<svg width="443" height="299" xmlns="http://www.w3.org/2000/svg" xmlns:xlink="http://www.w3.org/1999/xlink" xml:space="preserve" overflow="hidden"><defs><clipPath id="clip0"><rect x="489" y="134" width="443" height="299"/></clipPath></defs><g clip-path="url(#clip0)" transform="translate(-489 -134)"><path d="M207.184 280.768C206.611 280.78 206.056 280.975 205.602 281.325 204.252 277.759 202.163 275.468 199.816 275.468 197.469 275.468 195.38 277.759 194.031 281.325 193.576 280.975 193.021 280.78 192.448 280.768 189.781 280.768 187.621 285.278 187.621 290.84L212.012 290.84C212.012 285.278 209.851 280.768 207.184 280.768Z" fill="#5EC418" transform="matrix(1.00154 0 0 1 489.063 134)"/><path d="M147.036 280.768C146.462 280.78 145.907 280.975 145.453 281.325 144.104 277.759 142.015 275.468 139.668 275.468 137.321 275.468 135.232 277.759 133.883 281.325 133.428 280.975 132.873 280.78 132.299 280.768 129.633 280.768 127.472 285.278 127.472 290.84L151.864 290.84C151.864 285.278 149.702 280.768 147.036 280.768Z" fill="#5EC418" transform="matrix(1.00154 0 0 1 489.063 134)"/><path d="M380.884 280.768C380.31 280.78 379.755 280.975 379.301 281.325 377.951 277.759 375.862 275.468 373.515 275.468 371.168 275.468 369.079 277.759 367.73 281.325 367.276 280.975 366.721 280.78 366.147 280.768 363.481 280.768 361.32 285.278 361.32 290.84L385.711 290.84C385.711 285.278 383.55 280.768 380.884 280.768Z" fill="#5EC418" transform="matrix(1.00154 0 0 1 489.063 134)"/><path d="M108.151 289.861 434.75 289.861 434.75 290.985 108.151 290.985Z" fill="#3F3D56" transform="matrix(1.00154 0 0 1 489.063 134)"/><path d="M206.391 290.84 171.881 290.84 171.881 290.277C171.881 282.233 175.03 275.931 179.05 275.931 179.711 275.935 180.361 276.103 180.941 276.421 182.956 271.488 185.92 268.676 189.135 268.676 192.351 268.676 195.314 271.488 197.33 276.421 197.91 276.103 198.56 275.935 199.221 275.931 203.241 275.931 206.391 282.233 206.391 290.277ZM173.011 289.715 205.261 289.715C205.121 282.796 202.412 277.055 199.221 277.055 198.554 277.072 197.91 277.301 197.384 277.71L196.788 278.141 196.528 277.454C194.687 272.589 191.993 269.8 189.135 269.8 186.278 269.8 183.584 272.589 181.743 277.454L181.483 278.141 180.888 277.71C180.361 277.301 179.717 277.072 179.05 277.055 175.86 277.055 173.151 282.796 173.011 289.715Z" fill="#3F3D56" transform="matrix(1.00154 0 0 1 489.063 134)"/><path d="M407.635 290.84 373.124 290.84 373.124 290.277C373.124 282.233 376.274 275.931 380.294 275.931 380.955 275.935 381.605 276.103 382.185 276.421 384.2 271.488 387.164 268.676 390.38 268.676 393.594 268.676 396.558 271.488 398.574 276.421 399.154 276.103 399.803 275.935 400.465 275.931 404.485 275.931 407.635 282.233 407.635 290.277ZM374.254 289.715 406.505 289.715C406.365 282.796 403.656 277.055 400.465 277.055 399.798 277.072 399.154 277.301 398.628 277.71L398.032 278.141 397.772 277.454C395.931 272.589 393.237 269.8 390.38 269.8 387.523 269.8 384.827 272.589 382.987 277.454L382.726 278.141 382.131 277.71C381.604 277.301 380.961 277.072 380.294 277.055 377.103 277.055 374.394 282.796 374.254 289.715Z" fill="#3F3D56" transform="matrix(1.00154 0 0 1 489.063 134)"/><path d="M150.74 290.84 116.23 290.84 116.23 290.277C116.23 282.233 119.379 275.931 123.399 275.931 124.06 275.935 124.71 276.103 125.29 276.421 127.305 271.488 130.269 268.676 133.484 268.676 136.7 268.676 139.663 271.488 141.678 276.421 142.259 276.103 142.908 275.935 143.569 275.931 147.59 275.931 150.74 282.233 150.74 290.277ZM117.359 289.715 149.61 289.715C149.47 282.796 146.761 277.055 143.569 277.055 142.903 277.072 142.259 277.301 141.732 277.71L141.137 278.141 140.877 277.454C139.036 272.589 136.342 269.8 133.484 269.8 130.627 269.8 127.933 272.589 126.092 277.454L125.832 278.141 125.237 277.71C124.71 277.301 124.066 277.072 123.399 277.055 120.208 277.055 117.499 282.796 117.359 289.715Z" fill="#3F3D56" transform="matrix(1.00154 0 0 1 489.063 134)"/><path d="M74.4099 281.134C74.4099 281.663 74.2492 282.091 74.0511 282.091 73.8529 282.091 73.6922 281.663 73.6922 281.134 73.6922 280.606 73.8529 280.177 74.0511 280.177 74.2492 280.177 74.4099 280.606 74.4099 281.134Z" fill="#3F3D56" transform="matrix(0.53559 -0.844478 0.845781 0.534765 489.063 134)"/><path d="M276.253 85.2037 276.253 85.2037C276.748 84.4229 277.782 84.1908 278.563 84.6849L299.775 98.1176C300.556 98.6123 300.788 99.6461 300.293 100.427L300.293 100.427Z" fill="#5EC418" transform="matrix(1.00154 0 0 1 489.063 134)"/><path d="M274.248 85.9143 274.915 84.8603C275.253 84.3268 275.959 84.1677 276.493 84.5061L300.645 99.8001C301.277 100.2 301.465 101.037 301.065 101.669L300.51 102.545Z" fill="#3F3D56" transform="matrix(1.00154 0 0 1 489.063 134)"/><path d="M75.1275 281.134 75.6059 281.134 75.6059 283.048 75.1275 283.048Z" fill="#D0CDE1" transform="matrix(0.53559 -0.844478 0.845781 0.534765 489.063 134)"/><path d="M75.1275 283.765 75.6059 283.765 75.6059 285.679 75.1275 285.679Z" fill="#D0CDE1" transform="matrix(0.53559 -0.844478 0.845781 0.534765 489.063 134)"/><path d="M327.154 23.7396C327.154 32.0663 320.404 38.8165 312.077 38.8165 303.751 38.8165 297 32.0663 297 23.7396 297 15.4128 303.751 8.66265 312.077 8.66265 320.404 8.66265 327.154 15.4128 327.154 23.7396Z" fill="#FFB8B8" transform="matrix(1.00154 0 0 1 489.063 134)"/><path d="M312.997 34.4038C312.997 34.4038 320.352 45.9873 318.513 49.2968 316.674 52.6064 310.975 61.616 310.975 61.616 310.975 61.616 336.348 42.8616 333.038 38.8165 333.038 38.8165 325.5 32.3813 325.132 28.3362Z" fill="#FFB8B8" transform="matrix(1.00154 0 0 1 489.063 134)"/><path d="M339.857 336.502 339.121 325.286 327.354 326.941 328.089 338.525Z" fill="#FFB8B8" transform="matrix(1.00154 0 0 1 486.47 62.8255)"/><path d="M285.801 343.131 287.639 336.328 274.952 333.387 272.746 340.741Z" fill="#FFB8B8" transform="matrix(1.00154 0 0 1 486.47 62.8255)"/><path d="M325.959 99.7675 327.154 107.95C327.154 107.95 342.231 137.919 325.867 152.629L303.803 207.053C303.803 207.053 301.413 235.368 294.426 245.297L287.991 267.912 268.869 262.948 284.314 213.856C284.314 213.856 284.13 193.263 286.336 188.667L296.081 144.907 297.828 98.1131C297.828 98.1131 323.569 96.2744 325.959 99.7675Z" fill="#2F2E41" transform="matrix(1.00154 0 0 1 489.063 134)"/><path d="M323.109 150.78 331.383 206.675C331.383 206.675 335.796 228.187 336.164 236.461 336.531 244.735 338.003 255.399 338.003 255.399L323.109 257.789 308.4 185.714Z" fill="#2F2E41" transform="matrix(1.00154 0 0 1 489.063 134)"/><path d="M339.474 259.444 327.706 260.18C327.706 260.18 323.325 255.215 323.585 257.789 323.845 260.363 321.087 271.211 321.087 271.211L311.894 280.772C311.894 280.772 293.691 280.772 296.449 289.598 299.207 298.423 320.719 291.069 320.719 291.069L328.993 288.311 328.993 291.988C328.993 291.988 343.151 294.01 343.519 290.333 343.886 286.656 343.519 282.06 342.967 281.691 342.415 281.324 339.474 259.444 339.474 259.444Z" fill="#2F2E41" transform="matrix(1.00154 0 0 1 489.063 134)"/><path d="M285.089 268.52C285.089 268.52 276.678 267.847 275.501 266.838 274.323 265.828 272.472 261.623 269.949 264.314 267.426 267.006 258.341 275.754 258.341 275.754L249.594 279.959C249.594 279.959 238.155 276.931 234.285 283.997 230.416 291.062 253.295 298.464 259.182 296.109L266.585 294.595 266.248 298.128C266.248 298.128 276.678 300.483 278.192 297.455 279.706 294.426 280.884 290.894 280.211 289.884 279.538 288.875 285.089 268.52 285.089 268.52Z" fill="#2F2E41" transform="matrix(1.00154 0 0 1 489.063 134)"/><path d="M347.196 57.5709 334.171 86.3881 328.515 98.8979 326.419 103.537 296.081 103.17 299.207 82.0249C294.794 70.6253 305.275 66.0288 305.275 66.0288L314.1 56.6237 314.1 58.1224C314.1 58.1224 322.742 47.8259 326.603 41.9422 330.464 36.0585 335.796 38.2649 335.796 38.2649 344.989 37.3456 347.196 57.5709 347.196 57.5709Z" fill="#575A89" transform="matrix(1.00154 0 0 1 489.063 134)"/><path d="M334.171 86.3881 328.515 98.8979C326.699 95.5003 325.316 91.6519 325.316 89.3792 325.316 83.1278 331.567 86.4376 331.567 86.4376 331.567 86.4376 326.511 58.766 326.511 50.4919 326.511 44.9962 331.093 69.3858 334.171 86.3881Z" fill="#000000" fill-opacity="0.2" transform="matrix(1.00154 0 0 1 489.063 134)"/><path d="M329.177 88.4602 301.781 87.9087C301.781 87.9087 281.74 89.5631 284.682 97.6533 287.624 105.744 303.62 97.6533 303.62 97.6533L335.612 102.617Z" fill="#FFB8B8" transform="matrix(1.00154 0 0 1 489.063 134)"/><path d="M334.325 39.7358C334.325 39.7358 324.764 40.4713 324.764 48.7452 324.764 57.0189 333.406 86.4376 333.406 86.4376 333.406 86.4376 327.154 83.1278 327.154 89.3792 327.154 95.6307 337.635 113.833 338.738 101.698 338.738 101.698 354.551 109.42 353.631 94.8955 352.712 80.3699 342.783 49.6646 342.783 49.6646 342.783 49.6646 341.68 39.1843 334.325 39.7358Z" fill="#575A89" transform="matrix(1.00154 0 0 1 489.063 134)"/><path d="M312.579 22.0997C311.523 21.0779 311.543 19.3546 310.692 18.1567 309.356 16.2758 306.574 16.4019 304.29 16.7266 302.761 16.8768 301.259 17.2259 299.821 17.7648 298.543 18.2909 297.586 19.3869 297.237 20.7246 297.058 21.4656 296.663 19.3632 296.262 16.6403 295.418 10.94 298.351 5.34708 303.521 2.80075 303.551 2.78606 303.58 2.77155 303.61 2.75724 306.194 1.50167 308.9 0.392832 311.756 0.0812412 314.612-0.230349 317.659 0.333808 319.898 2.13261 320.922 2.95474 321.755 4.01018 322.852 4.73083 324.781 5.99701 327.222 6.05834 329.514 6.3253 332.122 6.55099 334.653 7.32741 336.939 8.60329 339.238 9.90328 340.931 12.0567 341.651 14.5966 342.377 17.5521 341.193 21.0457 338.288 22.3282 337.78 22.5417 337.33 22.8719 336.974 23.2919 334.588 26.2087 338.44 27.8047 338.999 30.3436 339.465 32.4622 337.427 34.3803 335.338 34.9636 331.283 35.9717 327.081 33.9645 325.317 30.1761 324.601 28.5142 324.438 26.6758 324.243 24.8764 324.019 22.8168 318.617 19.0862 322.264 21.8923 322.972 22.4224 323.53 23.1275 323.882 23.9384 324.991 26.5943 322.689 28.1017 321.454 29.9979 320.082 32.1737 320.068 34.94 321.416 37.1303 318.155 35.3047 316.654 31.4183 317.841 27.8751 318.173 26.974 318.675 26.1409 318.975 25.2292 319.445 23.8066 319.03 21.042 316.93 21.6025 315.432 22.0025 314.151 23.6207 312.579 22.0997Z" fill="#2F2E41" transform="matrix(1.00154 0 0 1 489.063 134)"/><path d="M442.191 208.992C442.191 212.718 439.171 215.738 435.446 215.738 431.72 215.738 428.7 212.718 428.7 208.992 428.7 205.267 431.72 202.247 435.446 202.247 439.171 202.247 442.191 205.267 442.191 208.992Z" fill="#D0CDE1" transform="matrix(1.00154 0 0 1 489.063 134)"/><path d="M429.824 230.915C429.824 237.125 424.791 242.158 418.582 242.158 412.372 242.158 407.339 237.125 407.339 230.915 407.339 224.706 412.372 219.673 418.582 219.673 424.791 219.673 429.824 224.706 429.824 230.915Z" fill="#5EC418" transform="matrix(1.00154 0 0 1 489.063 134)"/><path d="M421.056 237.661 422.18 237.661 422.18 289.94 421.056 289.94Z" fill="#3F3D56" transform="matrix(1.00154 0 0 1 489.063 134)"/><path d="M421.954 238.785C415.435 238.785 410.15 233.5 410.15 226.981 410.15 220.461 415.435 215.176 421.954 215.176 428.474 215.176 433.759 220.461 433.759 226.981 433.752 233.497 428.471 238.778 421.954 238.785ZM421.954 216.3C416.056 216.3 411.274 221.082 411.274 226.981 411.274 232.879 416.056 237.661 421.954 237.661 427.853 237.661 432.635 232.879 432.635 226.981 432.628 221.084 427.851 216.307 421.954 216.3Z" fill="#3F3D56" transform="matrix(1.00154 0 0 1 489.063 134)"/><path d="M431.511 218.549C427.475 218.549 424.203 215.276 424.203 211.241 424.203 207.205 427.475 203.933 431.511 203.933 435.547 203.933 438.818 207.205 438.818 211.241 438.814 215.275 435.545 218.544 431.511 218.549ZM431.511 205.057C428.096 205.057 425.327 207.826 425.327 211.241 425.327 214.656 428.096 217.424 431.511 217.424 434.926 217.424 437.694 214.656 437.694 211.241 437.69 207.827 434.924 205.061 431.511 205.057Z" fill="#3F3D56" transform="matrix(1.00154 0 0 1 489.063 134)"/><path d="M281.366 180.233C281.366 186.183 230.891 191.005 168.625 191.005 158.335 191.005 148.368 190.872 138.896 190.624 102.366 189.676 73.2225 187.012 61.4852 183.594 57.8517 182.538 55.8841 181.407 55.8841 180.233 55.8841 178.89 58.462 177.601 63.1692 176.417 65.9159 175.724 69.3875 175.067 73.4954 174.449 73.5277 174.445 73.5636 174.442 73.5995 174.435 83.0066 173.031 95.7345 171.846 110.725 170.991 127.647 170.018 147.456 169.462 168.625 169.462 230.891 169.462 281.366 174.284 281.366 180.233Z" fill="#F0F0F0" transform="matrix(1.00154 0 0 1 433.093 198.442)"/><path d="M118.561 160.696C118.561 160.696 89.0166 178.519 143.461 205.962 143.461 205.962 155.457 183.683 142.194 165.523 136.864 158.194 126.895 156.009 118.989 160.438Z" fill="#5EC418" transform="matrix(1.00154 0 0 1 446.636 171.904)"/><path d="M118.901 160.32C118.901 160.32 144.186 179.664 143.474 205.962" stroke="#535461" stroke-width="0.43685" stroke-miterlimit="10" fill="none" transform="matrix(1.00154 0 0 1 446.636 171.904)"/><path d="M144.907 206.286C144.907 206.286 135.65 174.832 146.655 151.719 151.328 142.044 152.736 131.115 150.669 120.571 149.649 115.574 148.174 110.682 146.261 105.954" stroke="#535461" stroke-width="0.873701" stroke-miterlimit="10" fill="none" transform="matrix(1.00154 0 0 1 446.636 171.904)"/><path d="M153.089 91.3327C153.089 95.1858 146.1 106.356 146.1 106.356 146.1 106.356 139.11 95.1858 139.11 91.3327 139.365 87.481 142.695 84.5655 146.546 84.8206 150.042 85.0522 152.827 87.8366 153.059 91.3327Z" fill="#5EC418" transform="matrix(1.00154 0 0 1 446.636 171.904)"/><path d="M164.618 112.673C162.525 115.906 150.599 121.493 150.599 121.493 150.599 121.493 150.818 108.326 152.91 105.094 154.792 101.723 159.05 100.517 162.421 102.399 165.791 104.281 166.997 108.539 165.115 111.909 164.967 112.176 164.8 112.432 164.618 112.677Z" fill="#5EC418" transform="matrix(1.00154 0 0 1 446.636 171.904)"/><path d="M164.116 149.132C160.678 150.88 147.563 149.67 147.563 149.67 147.563 149.67 154.396 138.412 157.838 136.678 161.163 134.717 165.448 135.824 167.409 139.149 169.369 142.474 168.263 146.759 164.937 148.72 164.674 148.875 164.401 149.013 164.12 149.132Z" fill="#5EC418" transform="matrix(1.00154 0 0 1 446.636 171.904)"/><path d="M157.523 176.637C154.426 178.926 141.299 179.961 141.299 179.961 141.299 179.961 146.13 167.729 149.228 165.418 152.469 163.321 156.796 164.249 158.893 167.49 160.805 170.446 160.22 174.364 157.528 176.632Z" fill="#5EC418" transform="matrix(1.00154 0 0 1 446.636 171.904)"/><path d="M135.956 122.218C138.717 124.9 151.591 127.683 151.591 127.683 151.591 127.683 148.437 114.896 145.676 112.214 142.734 109.714 138.323 110.072 135.823 113.013 133.556 115.681 133.612 119.616 135.956 122.218Z" fill="#5EC418" transform="matrix(1.00154 0 0 1 446.636 171.904)"/><path d="M128.652 154.501C132.09 156.249 145.204 155.039 145.204 155.039 145.204 155.039 138.372 143.777 134.951 142.042 131.626 140.082 127.341 141.188 125.38 144.514 123.42 147.839 124.526 152.124 127.852 154.085 128.115 154.24 128.388 154.378 128.669 154.497Z" fill="#5EC418" transform="matrix(1.00154 0 0 1 446.636 171.904)"/><path d="M125.856 186.833C128.953 189.122 142.081 190.157 142.081 190.157 142.081 190.157 137.249 177.925 134.152 175.614 131.2 173.127 126.79 173.504 124.303 176.456 121.816 179.408 122.193 183.818 125.145 186.305 125.369 186.494 125.605 186.669 125.852 186.828Z" fill="#5EC418" transform="matrix(1.00154 0 0 1 446.636 171.904)"/><path d="M153.089 91.3327C153.089 95.1858 146.1 106.356 146.1 106.356 146.1 106.356 139.11 95.1858 139.11 91.3327 139.365 87.481 142.695 84.5655 146.546 84.8206 150.042 85.0522 152.827 87.8366 153.059 91.3327Z" fill="#000000" fill-opacity="0.25" transform="matrix(1.00154 0 0 1 446.636 171.904)"/><path d="M164.618 112.673C162.525 115.906 150.599 121.493 150.599 121.493 150.599 121.493 150.818 108.326 152.91 105.094 154.792 101.723 159.05 100.517 162.421 102.399 165.791 104.281 166.997 108.539 165.115 111.909 164.967 112.176 164.8 112.432 164.618 112.677Z" fill="#000000" fill-opacity="0.25" transform="matrix(1.00154 0 0 1 446.636 171.904)"/><path d="M164.116 149.132C160.678 150.88 147.563 149.67 147.563 149.67 147.563 149.67 154.396 138.412 157.838 136.678 161.163 134.717 165.448 135.824 167.409 139.149 169.369 142.474 168.263 146.759 164.937 148.72 164.674 148.875 164.401 149.013 164.12 149.132Z" fill="#000000" fill-opacity="0.25" transform="matrix(1.00154 0 0 1 446.636 171.904)"/><path d="M157.523 176.637C154.426 178.926 141.299 179.961 141.299 179.961 141.299 179.961 146.13 167.729 149.228 165.418 152.469 163.321 156.796 164.249 158.893 167.49 160.805 170.446 160.22 174.364 157.528 176.632Z" fill="#000000" fill-opacity="0.25" transform="matrix(1.00154 0 0 1 446.636 171.904)"/><path d="M135.956 122.218C138.717 124.9 151.591 127.683 151.591 127.683 151.591 127.683 148.437 114.896 145.676 112.214 142.734 109.714 138.323 110.072 135.823 113.013 133.556 115.681 133.612 119.616 135.956 122.218Z" fill="#000000" fill-opacity="0.25" transform="matrix(1.00154 0 0 1 446.636 171.904)"/><path d="M128.652 154.501C132.09 156.249 145.204 155.039 145.204 155.039 145.204 155.039 138.372 143.777 134.951 142.042 131.626 140.082 127.341 141.188 125.38 144.514 123.42 147.839 124.526 152.124 127.852 154.085 128.115 154.24 128.388 154.378 128.669 154.497Z" fill="#000000" fill-opacity="0.25" transform="matrix(1.00154 0 0 1 446.636 171.904)"/><path d="M125.856 186.833C128.953 189.122 142.081 190.157 142.081 190.157 142.081 190.157 137.249 177.925 134.152 175.614 131.2 173.127 126.79 173.504 124.303 176.456 121.816 179.408 122.193 183.818 125.145 186.305 125.369 186.494 125.605 186.669 125.852 186.828Z" fill="#000000" fill-opacity="0.25" transform="matrix(1.00154 0 0 1 446.636 171.904)"/><path d="M166.33 206.884C166.33 206.884 157.073 175.431 168.078 152.317 172.751 142.643 174.16 131.713 172.092 121.17 171.072 116.173 169.597 111.28 167.685 106.553" stroke="#535461" stroke-width="0.873701" stroke-miterlimit="10" fill="none" transform="matrix(1.00154 0 0 1 446.636 171.904)"/><path d="M174.513 91.9312C174.513 95.7843 167.523 106.955 167.523 106.955 167.523 106.955 160.533 95.7843 160.533 91.9312 160.788 88.0795 164.118 85.164 167.969 85.4191 171.466 85.6506 174.25 88.4351 174.482 91.9312Z" fill="#5EC418" transform="matrix(1.00154 0 0 1 446.636 171.904)"/><path d="M186.063 113.271C183.97 116.504 172.044 122.091 172.044 122.091 172.044 122.091 172.263 108.925 174.355 105.692 176.237 102.322 180.495 101.115 183.866 102.997 187.236 104.879 188.442 109.137 186.56 112.507 186.411 112.774 186.245 113.031 186.063 113.276Z" fill="#5EC418" transform="matrix(1.00154 0 0 1 446.636 171.904)"/><path d="M185.539 149.74C182.101 151.487 168.986 150.277 168.986 150.277 168.986 150.277 175.819 139.019 179.261 137.285 182.582 135.318 186.87 136.417 188.836 139.739 190.803 143.061 189.704 147.347 186.383 149.314 186.111 149.475 185.829 149.617 185.539 149.74Z" fill="#5EC418" transform="matrix(1.00154 0 0 1 446.636 171.904)"/><path d="M178.942 177.235C175.845 179.524 162.718 180.559 162.718 180.559 162.718 180.559 167.549 168.328 170.646 166.017 173.887 163.92 178.214 164.847 180.311 168.089 182.224 171.045 181.639 174.962 178.947 177.231Z" fill="#5EC418" transform="matrix(1.00154 0 0 1 446.636 171.904)"/><path d="M157.375 122.834C160.136 125.516 173.01 128.299 173.01 128.299 173.01 128.299 169.856 115.512 167.095 112.83 164.153 110.33 159.742 110.688 157.242 113.629 154.974 116.297 155.031 120.232 157.375 122.834Z" fill="#5EC418" transform="matrix(1.00154 0 0 1 446.636 171.904)"/><path d="M150.075 155.1C153.513 156.847 166.627 155.637 166.627 155.637 166.627 155.637 159.795 144.375 156.357 142.641 152.804 141.132 148.7 142.789 147.191 146.342 145.82 149.57 147.054 153.314 150.075 155.095Z" fill="#5EC418" transform="matrix(1.00154 0 0 1 446.636 171.904)"/><path d="M147.279 187.431C150.377 189.72 163.504 190.756 163.504 190.756 163.504 190.756 158.672 178.524 155.575 176.213 152.623 173.726 148.213 174.102 145.726 177.055 143.239 180.007 143.616 184.416 146.568 186.904 146.792 187.093 147.029 187.267 147.275 187.427Z" fill="#5EC418" transform="matrix(1.00154 0 0 1 446.636 171.904)"/><path d="M141.723 205.207 168.807 205.207 168.807 207.391 141.723 207.391Z" fill="#5EC418" transform="matrix(1.00154 0 0 1 446.636 171.904)"/></g></svg>