<?xml version="1.0" encoding="UTF-8" standalone="no"?>
<!-- Created with Inkscape (http://www.inkscape.org/) -->

<svg
   width="16"
   height="16.000063"
   viewBox="0 0 4.2333332 4.2333501"
   version="1.1"
   id="svg4951"
   inkscape:version="1.1.1 (3bf5ae0d25, 2021-09-20)"
   sodipodi:docname="germinate-mini.svg"
   xmlns:inkscape="http://www.inkscape.org/namespaces/inkscape"
   xmlns:sodipodi="http://sodipodi.sourceforge.net/DTD/sodipodi-0.dtd"
   xmlns="http://www.w3.org/2000/svg"
   xmlns:svg="http://www.w3.org/2000/svg"
   xmlns:rdf="http://www.w3.org/1999/02/22-rdf-syntax-ns#"
   xmlns:cc="http://creativecommons.org/ns#"
   xmlns:dc="http://purl.org/dc/elements/1.1/">
  <sodipodi:namedview
     id="base"
     pagecolor="#ffffff"
     bordercolor="#666666"
     borderopacity="1.0"
     inkscape:pageopacity="0.0"
     inkscape:pageshadow="2"
     inkscape:zoom="5.6568542"
     inkscape:cx="-143.10074"
     inkscape:cy="-7.6897863"
     inkscape:document-units="mm"
     inkscape:current-layer="layer1"
     showgrid="false"
     units="px"
     inkscape:window-width="3440"
     inkscape:window-height="1377"
     inkscape:window-x="-8"
     inkscape:window-y="-8"
     inkscape:window-maximized="1"
     inkscape:pagecheckerboard="0">
    <inkscape:grid
       type="xygrid"
       id="grid5751"
       originx="8.1384586"
       originy="8.1389714" />
  </sodipodi:namedview>
  <defs
     id="defs4945" />
  <metadata
     id="metadata4948">
    <rdf:RDF>
      <cc:Work
         rdf:about="">
        <dc:format>image/svg+xml</dc:format>
        <dc:type
           rdf:resource="http://purl.org/dc/dcmitype/StillImage" />
      </cc:Work>
    </rdf:RDF>
  </metadata>
  <g
     inkscape:label="Layer 1"
     inkscape:groupmode="layer"
     id="layer1"
     transform="translate(8.1384593,-153.39435)">
    <path
       id="path907-7"
       style="fill:#ffffff;fill-opacity:1;stroke:none;stroke-width:0.0636402;stroke-linecap:round;stroke-linejoin:bevel;stroke-miterlimit:4;stroke-dasharray:none;stroke-opacity:1;paint-order:normal"
       d="m -6.0218215,153.39435 c -1.1668228,0 -2.1166379,0.94988 -2.1166378,2.11671 -1e-7,1.16682 0.949815,2.11664 2.1166378,2.11664 1.1668227,0 2.1166955,-0.94982 2.1166955,-2.11664 0,-1.16683 -0.9498728,-2.11671 -2.1166955,-2.11671 z m 0,0.36905 c 0.9673644,0 1.7476582,0.78029 1.7476582,1.74766 0,0.96736 -0.7802938,1.74758 -1.7476582,1.74758 -0.9673644,0 -1.7476005,-0.78022 -1.7476005,-1.74758 0,-0.96737 0.7802361,-1.74766 1.7476005,-1.74766 z m -0.44089,0.60211 c -0.4409227,0 -0.4409201,0 -0.6613637,0.38183 l -0.2204593,0.38186 c -0.2204675,0.38184 -0.2204675,0.38186 0,0.76367 l 0.2204593,0.38184 c 0.2225603,0.38184 0.2225577,0.38184 0.6613637,0.38184 0.4409113,0 0.4409226,0 0.6613782,-0.38184 h -1.44e-5 c 0.2204529,-0.38184 0.2204486,-0.38183 0,-0.76365 v -2e-5 H -6.242252 -6.6831564 l 0.2204449,0.38183 h 0.4409189 l -0.2204594,0.38184 h -0.4409044 l -0.2204593,-0.38184 -0.2204595,-0.38183 0.2204595,-0.38184 0.2204593,-0.38186 h 0.4409044 0.4409187 l -0.2204593,-0.38183 z m 0.8818232,0 0.2204594,0.38183 0.2204594,0.38186 h -0.4409188 l -0.220445,0.38184 h 0.4409044 l 0.2204594,0.38183 -0.2204594,0.38184 -0.2204594,0.38184 h 0.4409188 l 0.2204594,-0.38184 0.2204449,-0.38184 c 0.2204555,-0.38184 0.2204555,-0.38183 0,-0.76367 l -0.2204449,-0.38186 -0.2204594,-0.38183 z" />
  </g>
</svg>
