<?xml version="1.0" encoding="UTF-8" standalone="no"?>
<svg
   width="24"
   height="24"
   viewBox="0 0 6.35 6.35"
   version="1.1"
   id="svg8"
   sodipodi:docname="image-icon-date.svg"
   inkscape:version="1.2.1 (9c6d41e410, 2022-07-14)"
   xmlns:inkscape="http://www.inkscape.org/namespaces/inkscape"
   xmlns:sodipodi="http://sodipodi.sourceforge.net/DTD/sodipodi-0.dtd"
   xmlns="http://www.w3.org/2000/svg"
   xmlns:svg="http://www.w3.org/2000/svg">
  <defs
     id="defs12" />
  <sodipodi:namedview
     id="namedview10"
     pagecolor="#ffffff"
     bordercolor="#666666"
     borderopacity="1.0"
     inkscape:showpageshadow="2"
     inkscape:pageopacity="0.0"
     inkscape:pagecheckerboard="0"
     inkscape:deskcolor="#d1d1d1"
     showgrid="false"
     inkscape:zoom="15.512155"
     inkscape:cx="24.722548"
     inkscape:cy="5.4473411"
     inkscape:window-width="1718"
     inkscape:window-height="1368"
     inkscape:window-x="-7"
     inkscape:window-y="0"
     inkscape:window-maximized="0"
     inkscape:current-layer="svg8" />
  <g
     aria-label="ISO"
     style="font-style:normal;font-weight:400;font-size:5.33333349px;line-height:1.25;font-family:sans-serif;text-align:center;letter-spacing:0;word-spacing:0;text-anchor:middle;fill:#2980b9;fill-opacity:1;stroke:none"
     id="g4" />
  <path
     style="opacity:1;fill:#2980b9;fill-opacity:1;stroke:none;stroke-width:0.52916;stroke-linecap:round;stroke-linejoin:round;stroke-miterlimit:4;stroke-dasharray:none;stroke-opacity:1;paint-order:stroke fill markers"
     d="M 0.52916,0.97464503 V 5.7370986 h 5.2916 V 0.97464503 Z M 0.79374,1.2392253 H 5.55618 V 5.4725186 H 0.79374 Z"
     id="path6"
     sodipodi:nodetypes="cccccccccc" />
  <rect
     style="fill:#2980b9;fill-opacity:1;stroke:none;stroke-width:0.246514;stroke-linecap:round"
     id="rect443"
     width="0.26458001"
     height="0.97612643"
     x="3.0427101"
     y="0.61282152" />
  <rect
     style="fill:#2980b9;fill-opacity:1;stroke:none;stroke-width:0.246514;stroke-linecap:round"
     id="rect1379"
     width="0.26458001"
     height="0.97612643"
     x="4.2367272"
     y="0.61282152" />
  <rect
     style="fill:#2980b9;fill-opacity:1;stroke:none;stroke-width:0.246514;stroke-linecap:round"
     id="rect1381"
     width="0.26458001"
     height="0.97612643"
     x="1.7763282"
     y="0.61282152" />
  <g
     aria-label="25"
     id="text2163"
     style="font-size:3.52778px;line-height:1.25;font-family:Calibri;-inkscape-font-specification:Calibri;stroke-width:0.264583;fill:#2980b9;fill-opacity:1">
    <path
       d="m 2.9837571,4.3428921 q 0,0.031006 -0.00517,0.055122 -0.00345,0.024116 -0.012058,0.041341 -0.00689,0.015503 -0.020671,0.024116 -0.012058,0.00689 -0.027561,0.00689 H 1.6866778 q -0.024116,0 -0.043064,-0.00517 -0.017225,-0.00689 -0.031006,-0.020671 -0.012058,-0.01378 -0.018948,-0.039619 -0.00517,-0.025838 -0.00517,-0.063734 0,-0.034451 0.00172,-0.060289 0.00345,-0.025838 0.012058,-0.044786 0.00861,-0.020671 0.020671,-0.039619 0.01378,-0.020671 0.034451,-0.043064 l 0.4323598,-0.458198 q 0.1498617,-0.1584745 0.2394343,-0.2842206 0.091295,-0.1257461 0.1395264,-0.229099 0.049954,-0.1033529 0.065457,-0.1877578 0.015503,-0.084405 0.015503,-0.1584745 0,-0.07407 -0.024116,-0.1395265 -0.024116,-0.067179 -0.070625,-0.1171333 -0.044786,-0.049954 -0.1136883,-0.079237 -0.068902,-0.029283 -0.1584745,-0.029283 -0.1050754,0 -0.1894803,0.029283 -0.082682,0.029283 -0.1464167,0.063734 -0.062012,0.034451 -0.1050755,0.063734 -0.041341,0.029283 -0.062012,0.029283 -0.012058,0 -0.022393,-0.00689 -0.00861,-0.00689 -0.015503,-0.022393 -0.00517,-0.015503 -0.00861,-0.041341 -0.00345,-0.025838 -0.00345,-0.062012 0,-0.025838 0.00172,-0.044786 0.00172,-0.018948 0.00517,-0.032728 0.00517,-0.01378 0.012058,-0.025838 0.00689,-0.012058 0.027561,-0.029283 0.020671,-0.018948 0.070624,-0.049954 0.051676,-0.031006 0.1274686,-0.060289 0.077515,-0.031006 0.1688098,-0.051677 0.093018,-0.020671 0.194648,-0.020671 0.1619196,0 0.282498,0.046509 0.122301,0.044786 0.2015382,0.1240235 0.08096,0.079237 0.1205784,0.1843128 0.039619,0.1050755 0.039619,0.2239313 0,0.1067981 -0.018948,0.2135961 -0.018948,0.1050755 -0.08096,0.229099 Q 2.7219296,3.3524265 2.6065189,3.5040108 2.4911081,3.6538726 2.2999052,3.8502432 L 1.9467826,4.2188686 h 0.969795 q 0.01378,0 0.025838,0.00861 0.01378,0.00689 0.022393,0.022393 0.010335,0.015503 0.01378,0.039619 0.00517,0.022393 0.00517,0.053399 z"
       id="path5271"
       style="fill:#2980b9;fill-opacity:1" />
    <path
       d="m 4.7614275,3.7537804 q 0,0.1791451 -0.060289,0.3186716 -0.060289,0.1395264 -0.1705324,0.2359892 -0.1102431,0.09474 -0.26355,0.1446941 -0.1515843,0.049954 -0.3376195,0.049954 -0.103353,0 -0.1963706,-0.015503 -0.093018,-0.01378 -0.1653647,-0.034451 -0.072347,-0.022393 -0.1188559,-0.043064 -0.046509,-0.02067 -0.060289,-0.032728 -0.012058,-0.012058 -0.017225,-0.022393 -0.00517,-0.010335 -0.010335,-0.024116 -0.00345,-0.015503 -0.00517,-0.037896 -0.00172,-0.022393 -0.00172,-0.053399 0,-0.029283 0.00172,-0.051677 0.00345,-0.024116 0.010335,-0.037896 0.00689,-0.015503 0.015503,-0.022393 0.010335,-0.00689 0.022393,-0.00689 0.017225,0 0.053399,0.022393 0.036173,0.020671 0.096463,0.046509 0.062012,0.024116 0.1515843,0.046509 0.091295,0.022393 0.2153186,0.022393 0.1154108,0 0.2118735,-0.027561 0.096463,-0.027561 0.1653647,-0.086127 0.070625,-0.058567 0.1102432,-0.1464166 0.039619,-0.089573 0.039619,-0.2170412 0,-0.106798 -0.034451,-0.1877578 -0.032728,-0.082682 -0.1033529,-0.1360814 -0.068902,-0.055121 -0.1757,-0.08096 -0.106798,-0.027561 -0.2549372,-0.027561 -0.1050755,0 -0.1808677,0.010335 -0.075792,0.010335 -0.141249,0.010335 -0.048231,0 -0.068902,-0.022393 -0.020671,-0.022393 -0.020671,-0.086127 V 2.3533482 q 0,-0.056844 0.025838,-0.084405 0.027561,-0.027561 0.077515,-0.027561 h 0.9870205 q 0.01378,0 0.025838,0.00861 0.01378,0.00689 0.022393,0.022393 0.00861,0.015503 0.012058,0.039619 0.00517,0.024116 0.00517,0.056844 0,0.062012 -0.017226,0.096463 -0.017225,0.034451 -0.048231,0.034451 H 3.7261756 v 0.6252852 q 0.060289,-0.00861 0.122301,-0.010335 0.063734,-0.00172 0.1464166,-0.00172 0.191203,0 0.3341745,0.046509 0.1429716,0.044786 0.2377117,0.1291911 0.096463,0.082682 0.1446942,0.2015383 0.049954,0.1188558 0.049954,0.2635499 z"
       id="path5268"
       style="fill:#2980b9;fill-opacity:1" />
  </g>
</svg>
