<svg xmlns="http://www.w3.org/2000/svg" width="24" height="24" viewBox="0 0 6.35 6.35"><path style="color:#000;font-style:normal;font-variant:normal;font-weight:400;font-stretch:normal;font-size:medium;line-height:normal;font-family:sans-serif;font-variant-ligatures:normal;font-variant-position:normal;font-variant-caps:normal;font-variant-numeric:normal;font-variant-alternates:normal;font-feature-settings:normal;text-indent:0;text-align:start;text-decoration:none;text-decoration-line:none;text-decoration-style:solid;text-decoration-color:#000;letter-spacing:normal;word-spacing:normal;text-transform:none;writing-mode:lr-tb;direction:ltr;text-orientation:mixed;dominant-baseline:auto;baseline-shift:baseline;text-anchor:start;white-space:normal;shape-padding:0;clip-rule:nonzero;display:inline;overflow:visible;visibility:visible;opacity:1;isolation:auto;mix-blend-mode:normal;color-interpolation:sRGB;color-interpolation-filters:linearRGB;solid-color:#000;solid-opacity:1;vector-effect:none;fill:#23a1d7;fill-opacity:1;fill-rule:nonzero;stroke:none;stroke-width:.26499999;stroke-linecap:round;stroke-linejoin:round;stroke-miterlimit:4;stroke-dasharray:none;stroke-dashoffset:0;stroke-opacity:1;color-rendering:auto;image-rendering:auto;shape-rendering:auto;text-rendering:auto;enable-background:accumulate" d="M2.236 291.046a.133.133 0 0 0-.117.106l-.123.614.225.224.136-.678h.774l-.353 1.235.215.215.442-1.548a.133.133 0 0 0-.127-.168H2.25a.133.133 0 0 0-.014 0zm2.39 1.587a.133.133 0 0 0-.015.002l-1.527.218.234.234 1.098-.156-.376.878.2.201.512-1.192a.133.133 0 0 0-.125-.185zm-2.88.379-.156.786a.133.133 0 0 0 .152.157l.812-.136-.23-.23-.438.073.086-.425zm1.355 1.354-.19 2.092a.133.133 0 0 0 .253.065l.628-1.466-.201-.2-.34.793.095-1.04z" transform="translate(0 -290.65)"/><path d="m.926 291.443 3.969 3.969" style="fill:none;stroke:#23a1d7;stroke-width:.26458332;stroke-linecap:round;stroke-linejoin:miter;stroke-miterlimit:4;stroke-dasharray:none;stroke-opacity:1" transform="translate(0 -290.65)"/></svg>