<svg xmlns="http://www.w3.org/2000/svg" width="96" height="68" viewBox="0 0 25.4 17.992"><path style="opacity:1;fill:currentColor;fill-opacity:1;stroke:none;stroke-width:.52916664;stroke-linecap:round;stroke-linejoin:round;stroke-miterlimit:4;stroke-dasharray:none;stroke-opacity:1;paint-order:normal" d="M23.151 280.067c.147 0 .265.118.265.264v15.346a.264.264 0 0 1-.265.265h-3.969a.264.264 0 0 1-.264-.265v-15.346c0-.146.118-.264.264-.264zm-.265.529h-3.44v14.816h3.44z" transform="translate(0 -279.008)"/><path style="opacity:1;fill:currentColor;fill-opacity:1;stroke:none;stroke-width:.52916664;stroke-linecap:round;stroke-linejoin:round;stroke-miterlimit:4;stroke-dasharray:none;stroke-opacity:1;paint-order:normal" d="M19.182 280.86c.147 0 .265.118.265.265v13.758a.264.264 0 0 1-.265.265H14.42a.264.264 0 0 1-.265-.265v-13.758c0-.147.118-.265.265-.265zm-.264.53h-4.234v13.229h4.234z" transform="translate(0 -279.008)"/><path style="opacity:1;fill:currentColor;fill-opacity:1;stroke:none;stroke-width:.52916664;stroke-linecap:round;stroke-linejoin:round;stroke-miterlimit:4;stroke-dasharray:none;stroke-opacity:1;paint-order:normal" d="M14.155 281.654v.53h-1.323v-.53zm0 12.436v.529h-1.323v-.53z" transform="translate(0 -279.008)"/><path style="opacity:1;fill:currentColor;fill-opacity:1;stroke:none;stroke-width:.52916664;stroke-linecap:round;stroke-linejoin:round;stroke-miterlimit:4;stroke-dasharray:none;stroke-opacity:1;paint-order:normal" d="M12.568 280.86c.146 0 .264.118.264.265v13.758a.264.264 0 0 1-.264.265h-2.382a.264.264 0 0 1-.264-.265v-13.758c0-.147.118-.265.264-.265zm-.265.53h-1.852v13.229h1.852z" transform="translate(0 -279.008)"/><path style="opacity:1;fill:currentColor;fill-opacity:1;stroke:none;stroke-width:.52916664;stroke-linecap:round;stroke-linejoin:round;stroke-miterlimit:4;stroke-dasharray:none;stroke-opacity:1;paint-order:normal" d="M9.922 281.654v.53H6.747v11.906h3.175v.529h-3.44v-12.965z" transform="translate(0 -279.008)"/><path style="fill:currentColor;font-style:normal;font-variant:normal;font-weight:400;font-stretch:normal;font-size:medium;line-height:normal;font-family:sans-serif;font-variant-ligatures:normal;font-variant-position:normal;font-variant-caps:normal;font-variant-numeric:normal;font-variant-alternates:normal;font-feature-settings:normal;text-indent:0;text-align:start;text-decoration:none;text-decoration-line:none;text-decoration-style:solid;text-decoration-color:#000;letter-spacing:normal;word-spacing:normal;text-transform:none;writing-mode:lr-tb;direction:ltr;text-orientation:mixed;dominant-baseline:auto;baseline-shift:baseline;text-anchor:start;white-space:normal;shape-padding:0;clip-rule:nonzero;display:inline;overflow:visible;visibility:visible;opacity:1;isolation:auto;mix-blend-mode:normal;color-interpolation:sRGB;color-interpolation-filters:linearRGB;solid-color:#000;solid-opacity:1;vector-effect:none;fill:currentColor;fill-opacity:1;fill-rule:nonzero;stroke:none;stroke-width:.5291667;stroke-linecap:round;stroke-linejoin:round;stroke-miterlimit:4;stroke-dasharray:none;stroke-dashoffset:0;stroke-opacity:1;color-rendering:auto;image-rendering:auto;shape-rendering:auto;text-rendering:auto;enable-background:accumulate" d="M6.475 281.654a.265.265 0 0 0-.133.041l-4.233 2.645a.265.265 0 0 0-.125.224v7.145a.265.265 0 0 0 .125.225l4.233 2.644a.265.265 0 0 0 .404-.224v-12.436a.265.265 0 0 0-.271-.264Zm-.258.742v11.479l-3.703-2.313v-6.851z" transform="translate(0 -279.008)"/><path style="fill:currentColor;font-style:normal;font-variant:normal;font-weight:400;font-stretch:normal;font-size:medium;line-height:normal;font-family:sans-serif;font-variant-ligatures:normal;font-variant-position:normal;font-variant-caps:normal;font-variant-numeric:normal;font-variant-alternates:normal;font-feature-settings:normal;text-indent:0;text-align:start;text-decoration:none;text-decoration-line:none;text-decoration-style:solid;text-decoration-color:#000;letter-spacing:normal;word-spacing:normal;text-transform:none;writing-mode:lr-tb;direction:ltr;text-orientation:mixed;dominant-baseline:auto;baseline-shift:baseline;text-anchor:start;white-space:normal;shape-padding:0;clip-rule:nonzero;display:inline;overflow:visible;visibility:visible;opacity:1;isolation:auto;mix-blend-mode:normal;color-interpolation:sRGB;color-interpolation-filters:linearRGB;solid-color:#000;solid-opacity:1;vector-effect:none;fill:currentColor;fill-opacity:1;fill-rule:nonzero;stroke:none;stroke-width:.5291667;stroke-linecap:round;stroke-linejoin:miter;stroke-miterlimit:4;stroke-dasharray:none;stroke-dashoffset:0;stroke-opacity:1;color-rendering:auto;image-rendering:auto;shape-rendering:auto;text-rendering:auto;enable-background:accumulate" d="M15.188 282.184a.265.265 0 0 0 .025.529h2.646a.265.265 0 1 0 0-.53h-2.646a.265.265 0 0 0-.026 0zM15.188 284.83a.265.265 0 0 0 .025.527h2.646a.265.265 0 1 0 0-.527h-2.646a.265.265 0 0 0-.026 0zM15.213 287.475a.265.265 0 1 0 0 .529h2.646a.265.265 0 1 0 0-.53zM15.188 290.121a.265.265 0 0 0 .025.53h2.646a.265.265 0 1 0 0-.53h-2.646a.265.265 0 0 0-.026 0zM15.188 292.768a.265.265 0 0 0 .025.527h2.646a.265.265 0 1 0 0-.527h-2.646a.265.265 0 0 0-.026 0zM3.832 283.502a.265.265 0 0 0-.26.27v8.73a.265.265 0 1 0 .53 0v-8.73a.265.265 0 0 0-.27-.27z" transform="translate(0 -279.008)"/></svg>