<svg xmlns="http://www.w3.org/2000/svg" width="96" height="68" viewBox="0 0 25.4 17.992"><g transform="translate(0 -279.008)"><path style="fill:#2980b9;fill-opacity:1;stroke:none;stroke-width:.99999994px;stroke-linecap:butt;stroke-linejoin:miter;stroke-opacity:1" d="m40 8-7 6H5v10h9l2-3h2l2 3h12.566L38 21l10-3 11 3 4 3h28V8H40zm37 4h9c.554 0 1 .446 1 1v6c0 .554-.446 1-1 1h-9c-.554 0-1-.446-1-1v-6c0-.554.446-1 1-1z" transform="matrix(.26458 0 0 .26458 0 279.008)"/><path style="fill:none;stroke:#2980b9;stroke-width:.5291667;stroke-linecap:butt;stroke-linejoin:round;stroke-miterlimit:4;stroke-dasharray:none;stroke-opacity:1" d="M1.323 282.712v12.965h22.754v-14.552H10.583l-1.852 1.587H1.323v12.965"/><rect style="opacity:1;fill:#2980b9;fill-opacity:1;stroke:none;stroke-width:.52916664;stroke-linecap:butt;stroke-linejoin:round;stroke-miterlimit:4;stroke-dasharray:none;stroke-opacity:1;paint-order:normal" width="2.381" height="1.323" x="2.117" y="281.39" ry=".265"/><rect ry=".265" y="281.39" x="5.292" height="1.323" width="2.381" style="opacity:1;fill:#2980b9;fill-opacity:1;stroke:none;stroke-width:.52916664;stroke-linecap:butt;stroke-linejoin:round;stroke-miterlimit:4;stroke-dasharray:none;stroke-opacity:1;paint-order:normal"/><path style="opacity:1;fill:#2980b9;fill-opacity:1;stroke:none;stroke-width:1.99999988;stroke-linecap:butt;stroke-linejoin:round;stroke-miterlimit:4;stroke-dasharray:none;stroke-opacity:1;paint-order:normal" d="M6 23c-.554 0-1 .446-1 1s.446 1 1 1h8.174A3 3 0 0 1 14 24a3 3 0 0 1 .176-1H6zm13.826 0A3 3 0 0 1 20 24a3 3 0 0 1-.176 1H33.21a22 22 0 0 1 2.207-2h-15.59zm42.649 0a22 22 0 0 1 2.267 2H90c.554 0 1-.446 1-1s-.446-1-1-1H62.475z" transform="matrix(.26458 0 0 .26458 0 279.008)"/><circle style="opacity:1;fill:none;fill-opacity:1;stroke:#2980b9;stroke-width:.5291667;stroke-linecap:round;stroke-linejoin:round;stroke-miterlimit:4;stroke-dasharray:none;stroke-opacity:1;paint-order:normal" cx="12.7" cy="289.678" r="5.821"/><circle style="opacity:1;fill:none;fill-opacity:1;stroke:#2980b9;stroke-width:.61674786;stroke-linecap:round;stroke-linejoin:round;stroke-miterlimit:4;stroke-dasharray:none;stroke-opacity:1;paint-order:normal" cx="12.7" cy="289.678" r="3.925"/><circle style="opacity:1;fill:none;fill-opacity:1;stroke:#2980b9;stroke-width:.52916664;stroke-linecap:round;stroke-linejoin:round;stroke-miterlimit:4;stroke-dasharray:none;stroke-opacity:1;paint-order:normal" cx="4.498" cy="285.358" r=".794"/><path style="opacity:1;fill:none;fill-opacity:1;stroke:#2980b9;stroke-width:1.99999988;stroke-linecap:round;stroke-linejoin:round;stroke-miterlimit:4;stroke-dasharray:none;stroke-opacity:1;paint-order:normal" d="M71 37.326a3 3 0 0 0-1.2.254 22 22 0 0 1 .2 2.746 22 22 0 0 1-.193 2.752 3 3 0 0 0 1.193.248 3 3 0 0 0 3-3 3 3 0 0 0-3-3z" transform="matrix(.26458 0 0 .26458 0 279.008)"/></g></svg>