<svg xmlns="http://www.w3.org/2000/svg" width="24" height="24" viewBox="0 0 6.35 6.35"><path d="M3.175 290.915a2.91 2.91 0 0 0-2.91 2.91 2.91 2.91 0 0 0 2.91 2.91 2.91 2.91 0 0 0 2.91-2.91 2.91 2.91 0 0 0-2.91-2.91zm0 .264a2.646 2.646 0 0 1 2.646 2.646 2.646 2.646 0 0 1-2.646 2.646 2.646 2.646 0 0 1-2.646-2.646 2.646 2.646 0 0 1 2.646-2.646z" style="opacity:1;fill:currentColor;fill-opacity:1;stroke:none;stroke-width:.66145837;stroke-linecap:round;stroke-linejoin:round;stroke-miterlimit:4;stroke-dasharray:none;stroke-opacity:1;paint-order:stroke fill markers" transform="matrix(.9091 0 0 .9091 .289 -263.939)"/><path d="M3.144 291.03s.638 1.018.828 1.583c.177.528.277 1.648.277 1.648" style="fill:none;stroke:currentColor;stroke-width:.26458335;stroke-linecap:butt;stroke-linejoin:miter;stroke-miterlimit:4;stroke-dasharray:none;stroke-opacity:1" transform="matrix(.9091 0 0 .9091 .289 -263.939)"/><path style="fill:none;stroke:currentColor;stroke-width:.26458335;stroke-linecap:butt;stroke-linejoin:miter;stroke-miterlimit:4;stroke-dasharray:none;stroke-opacity:1" d="M.738 292.454s1.202-.043 1.786.075c.546.11 1.566.584 1.566.584" transform="matrix(.9091 0 0 .9091 .289 -263.939)"/><path d="M.77 295.25s.563-1.063.957-1.51c.369-.417 1.288-1.063 1.288-1.063" style="fill:none;stroke:currentColor;stroke-width:.26458335;stroke-linecap:butt;stroke-linejoin:miter;stroke-miterlimit:4;stroke-dasharray:none;stroke-opacity:1" transform="matrix(.9091 0 0 .9091 .289 -263.939)"/><path style="fill:none;stroke:currentColor;stroke-width:.26458335;stroke-linecap:butt;stroke-linejoin:miter;stroke-miterlimit:4;stroke-dasharray:none;stroke-opacity:1" d="M3.206 296.62s-.638-1.018-.828-1.583c-.177-.528-.277-1.648-.277-1.648" transform="matrix(.9091 0 0 .9091 .289 -263.939)"/><path d="M5.612 295.196s-1.202.043-1.786-.075c-.546-.11-1.566-.584-1.566-.584" style="fill:none;stroke:currentColor;stroke-width:.26458335;stroke-linecap:butt;stroke-linejoin:miter;stroke-miterlimit:4;stroke-dasharray:none;stroke-opacity:1" transform="matrix(.9091 0 0 .9091 .289 -263.939)"/><path style="fill:none;stroke:currentColor;stroke-width:.26458335;stroke-linecap:butt;stroke-linejoin:miter;stroke-miterlimit:4;stroke-dasharray:none;stroke-opacity:1" d="M5.58 292.4s-.563 1.063-.957 1.51c-.369.417-1.288 1.063-1.288 1.063" transform="matrix(.9091 0 0 .9091 .289 -263.939)"/></svg>