<svg viewBox="0 0 24 24" xmlns="http://www.w3.org/2000/svg"><path d="M18.917 18.756a.773.773 0 0 1-.772-.773.773.773 0 0 1 .772-.773.773.773 0 0 1 .773.773.773.773 0 0 1-.773.772m0-2.935a2.163 2.163 0 0 0-2.163 2.163c0 1.622 2.163 4.017 2.163 4.017s2.163-2.395 2.163-4.017a2.163 2.163 0 0 0-2.163-2.163z" style="fill:#2980b9;stroke-width:.309" transform="translate(-.66 -.66) scale(1.05263)"/><path style="color:#2980b9;fill:#2980b9;stroke-linecap:round" d="M20.791 2.309a.595.595 0 0 0-.23.04l-4.805 1.91-7.332-1.566a.5.5 0 0 0-.315.051.6.6 0 0 0-.14.03L3.027 4.462a.781.781 0 0 0-.527.736v15.602c0 .432.47.75.871.59l4.947-1.967c.013-.005.025-.012.037-.018l4.77 1.024a6.25 6.25 0 0 1-.111-1.047l-4.196-.903V3.8l6.295 1.346v9.432a6.25 6.25 0 0 1 4.139-1.582 6.25 6.25 0 0 1 2.18.393V2.94c0-.35-.31-.627-.641-.632z"/></svg>