<svg xmlns="http://www.w3.org/2000/svg" width="24" height="24" viewBox="0 0 6.35 6.35"><g transform="translate(0 -290.65)"><path style="opacity:1;fill:currentColor;fill-opacity:1;stroke:none;stroke-width:.60132581;stroke-linecap:round;stroke-linejoin:round;stroke-miterlimit:4;stroke-dasharray:none;stroke-opacity:1;paint-order:stroke fill markers" d="M3.175 291.18a2.646 2.646 0 0 0-2.646 2.645 2.646 2.646 0 0 0 2.646 2.646 2.646 2.646 0 0 0 2.646-2.646 2.646 2.646 0 0 0-2.646-2.646Zm0 .24a2.405 2.405 0 0 1 2.405 2.405 2.405 2.405 0 0 1-2.405 2.405 2.405 2.405 0 0 1-2.405-2.405 2.405 2.405 0 0 1 2.405-2.405Z"/><path style="opacity:1;fill:currentColor;fill-opacity:1;stroke:none;stroke-width:.52916664;stroke-linecap:round;stroke-linejoin:round;stroke-miterlimit:4;stroke-dasharray:none;stroke-opacity:1;paint-order:stroke fill markers" d="M2.765 293.49a.53.53 0 0 0-.016.648l-.275.337a.111.111 0 0 0 .016.157l.032.026c.047.039.118.032.157-.016l.275-.337a.53.53 0 0 0 .63-.145.53.53 0 0 0 .017-.648l.945-1.156a.111.111 0 0 0-.016-.157l-.032-.027a.111.111 0 0 0-.157.016l-.945 1.157a.53.53 0 0 0-.63.145zm.205.168a.265.265 45 0 1 .247-.094.265.265 45 0 1 .004 0 .265.265 45 0 1 .022.006.265.265 45 0 1 .022.007.265.265 45 0 1 .003 0 .265.265 45 0 1 .013.005.265.265 45 0 1 .011.005.265.265 45 0 1 .004.002.265.265 45 0 1 .018.01.265.265 45 0 1 .001.001.265.265 45 0 1 .002.001.265.265 45 0 1 .017.012.265.265 45 0 1 .003.002.265.265 45 0 1 .005.004.265.265 45 0 1 .02.018.265.265 45 0 1 .06.093.265.265 45 0 1-.042.26.265.265 45 0 1-.248.094.265.265 45 0 1-.003 0 .265.265 45 0 1-.023-.005.265.265 45 0 1-.021-.007.265.265 45 0 1-.01-.004.265.265 45 0 1-.013-.006.265.265 45 0 1-.008-.004.265.265 45 0 1-.019-.01.265.265 45 0 1-.003-.003.265.265 45 0 1-.016-.011.265.265 45 0 1-.009-.006.265.265 45 0 1-.019-.018.265.265 45 0 1-.06-.094.265.265 45 0 1 .042-.26z"/><rect style="opacity:1;fill:currentColor;fill-opacity:1;stroke:none;stroke-width:.52916664;stroke-linecap:round;stroke-linejoin:round;stroke-miterlimit:4;stroke-dasharray:none;stroke-opacity:1;paint-order:stroke fill markers" width="1.587" height=".265" x="2.381" y="290.65" ry=".132"/><rect ry=".132" y="221.789" x="188.506" height=".265" width="1.058" style="opacity:1;fill:currentColor;fill-opacity:1;stroke:none;stroke-width:.52916664;stroke-linecap:round;stroke-linejoin:round;stroke-miterlimit:4;stroke-dasharray:none;stroke-opacity:1;paint-order:stroke fill markers" transform="rotate(39.421)"/></g></svg>