<svg xmlns="http://www.w3.org/2000/svg" width="24" height="24" viewBox="0 0 6.35 6.35"><g aria-label="ISO" style="font-style:normal;font-weight:400;font-size:5.33333349px;line-height:1.25;font-family:sans-serif;text-align:center;letter-spacing:0;word-spacing:0;text-anchor:middle;fill:#2980b9;fill-opacity:1;stroke:none"><path d="M9.234 12.798q0 .02-.01.037-.01.015-.037.026-.026.007-.07.013-.041.007-.107.007-.062 0-.106-.007-.045-.006-.07-.013-.027-.01-.037-.026-.01-.016-.01-.037V9.564q0-.021.01-.037.013-.015.039-.023.029-.01.07-.016.045-.008.104-.008.066 0 .107.008.044.005.07.016.027.008.037.023.01.016.01.037zM11.94 11.92q0 .237-.088.422-.086.185-.243.315-.153.128-.364.193-.209.065-.45.065-.17 0-.316-.028-.143-.03-.258-.07-.112-.042-.19-.087-.075-.044-.107-.075-.028-.031-.044-.078-.013-.05-.013-.13 0-.058.005-.094.006-.04.016-.063t.026-.031q.016-.01.037-.01.036 0 .101.044.068.044.172.096.104.052.25.1.148.043.341.043.146 0 .266-.039.122-.039.208-.109.089-.073.135-.177.047-.104.047-.237 0-.143-.065-.245-.065-.101-.172-.177-.106-.078-.244-.14-.136-.066-.28-.13-.142-.069-.278-.15-.135-.08-.242-.19-.107-.109-.174-.255-.065-.148-.065-.354 0-.21.075-.375.078-.166.214-.278.138-.112.325-.17.19-.06.409-.06.112 0 .224.021.115.019.213.052.102.032.18.073.078.04.102.065.026.024.034.04.007.012.013.036.005.02.007.052.003.031.003.08 0 .048-.005.084-.003.037-.01.063-.008.023-.024.036-.013.01-.031.01-.029 0-.091-.036-.06-.036-.149-.08-.088-.048-.21-.084-.12-.04-.272-.04-.14 0-.244.04-.105.036-.172.099-.068.062-.102.148-.034.086-.034.183 0 .14.065.242.065.101.172.18.11.078.248.143l.28.133q.144.065.282.145.138.079.245.188.11.107.174.255.068.146.068.346zM15.401 11.142q0 .409-.096.737-.097.328-.29.56-.19.229-.479.354-.289.122-.674.122-.38 0-.659-.112-.276-.114-.458-.33-.18-.217-.268-.537-.089-.32-.089-.737 0-.398.096-.724.097-.325.29-.552.192-.23.481-.352.29-.125.675-.125.372 0 .648.112t.458.329q.185.213.274.53.091.316.091.725zm-.471.031q0-.286-.052-.531-.05-.248-.17-.427-.117-.183-.315-.284-.198-.102-.49-.102-.291 0-.489.11t-.323.291q-.122.183-.177.427-.052.243-.052.51 0 .298.05.548.049.25.166.432.117.18.313.281.198.1.494.1.295 0 .495-.11t.323-.294q.123-.188.175-.433.052-.245.052-.518z" style="font-style:normal;font-variant:normal;font-weight:400;font-stretch:normal;font-family:Calibri;-inkscape-font-specification:Calibri;fill:#2980b9" transform="matrix(.58098 0 0 .58098 -3.851 -3.32)"/></g><path style="opacity:1;fill:#2980b9;fill-opacity:1;stroke:none;stroke-width:1.99999988;stroke-linecap:round;stroke-linejoin:round;stroke-miterlimit:4;stroke-dasharray:none;stroke-opacity:1;paint-order:stroke fill markers" d="M2 5v14h20V5H2zm1 1h18v12H3V6z" transform="scale(.26458)"/></svg>