<?xml version="1.0" encoding="UTF-8" standalone="no"?>
<!-- Created with Inkscape (http://www.inkscape.org/) -->

<svg
   xmlns:dc="http://purl.org/dc/elements/1.1/"
   xmlns:cc="http://creativecommons.org/ns#"
   xmlns:rdf="http://www.w3.org/1999/02/22-rdf-syntax-ns#"
   xmlns:svg="http://www.w3.org/2000/svg"
   xmlns="http://www.w3.org/2000/svg"
   xmlns:sodipodi="http://sodipodi.sourceforge.net/DTD/sodipodi-0.dtd"
   xmlns:inkscape="http://www.inkscape.org/namespaces/inkscape"
   id="svg2"
   version="1.1"
   inkscape:version="0.91 r13725"
   xml:space="preserve"
   width="791.34998"
   height="157.175"
   viewBox="0 0 791.34998 157.175"
   sodipodi:docname="bbsrc.svg"><metadata
     id="metadata8"><rdf:RDF><cc:Work
         rdf:about=""><dc:format>image/svg+xml</dc:format><dc:type
           rdf:resource="http://purl.org/dc/dcmitype/StillImage" /><dc:title></dc:title></cc:Work></rdf:RDF></metadata><defs
     id="defs6"><clipPath
       clipPathUnits="userSpaceOnUse"
       id="clipPath18"><path
         d="m 0,0 6330.79,0 0,1257 L 0,1257 0,0 Z"
         id="path20"
         inkscape:connector-curvature="0" /></clipPath></defs><sodipodi:namedview
     pagecolor="#ffffff"
     bordercolor="#666666"
     borderopacity="1"
     objecttolerance="10"
     gridtolerance="10"
     guidetolerance="10"
     inkscape:pageopacity="0"
     inkscape:pageshadow="2"
     inkscape:window-width="1920"
     inkscape:window-height="1018"
     id="namedview4"
     showgrid="false"
     inkscape:zoom="1.2652597"
     inkscape:cx="418.28268"
     inkscape:cy="59.080568"
     inkscape:window-x="-8"
     inkscape:window-y="-8"
     inkscape:window-maximized="1"
     inkscape:current-layer="g10" /><g
     id="g10"
     inkscape:groupmode="layer"
     inkscape:label="ink_ext_XXXXXX"
     transform="matrix(1.25,0,0,-1.25,0,157.175)"><path
       inkscape:connector-curvature="0"
       id="path22"
       style="fill:#2c3797;fill-opacity:1;fill-rule:nonzero;stroke:none"
       d="m 213.32,54.5406 c -5.753,2.6313 -12.062,3.1578 -19.855,3.1578 -1.3,0 -10.578,0 -12.248,0 l 0,-38.2304 13.732,0 c 6.495,0 12.805,0.525 17.444,2.2789 6.495,2.6312 10.763,8.0679 10.763,16.4859 0,8.2414 -3.897,13.5031 -9.836,16.3078 z m -21.711,51.7344 -10.392,0 0,-32.6184 9.649,0 c 13.548,0 23.197,3.3321 23.197,17.5364 0,11.4 -9.464,15.082 -22.454,15.082 z m 5.196,-104.16914 -34.516,0 c -3.898,0 -4.826,1.40312 -4.826,5.08711 l 0,111.70903 c 0,3.683 1.671,4.559 5.568,4.559 l 27.835,0 c 29.878,0 46.58,-8.593 46.58,-29.6372 0,-12.2761 -7.424,-22.973 -20.97,-25.7797 l 0,-0.1753 c 17.628,-1.227 30.99,-12.6258 30.99,-30.3383 0,-28.41058 -24.31,-35.42464 -50.661,-35.42464" /><path
       inkscape:connector-curvature="0"
       id="path24"
       style="fill:#2c3797;fill-opacity:1;fill-rule:nonzero;stroke:none"
       d="m 311.12,54.5406 c -5.752,2.6313 -12.061,3.1578 -19.855,3.1578 -1.3,0 -10.578,0 -12.248,0 l 0,-38.2304 13.731,0 c 6.496,0 12.804,0.525 17.444,2.2789 6.496,2.6312 10.763,8.0679 10.763,16.4859 0,8.2414 -3.896,13.5031 -9.835,16.3078 z m -21.711,51.7344 -10.392,0 0,-32.6184 9.65,0 c 13.547,0 23.195,3.3321 23.195,17.5364 0,11.4 -9.465,15.082 -22.453,15.082 z m 5.195,-104.16914 -34.516,0 c -3.897,0 -4.825,1.40312 -4.825,5.08711 l 0,111.70903 c 0,3.683 1.671,4.559 5.568,4.559 l 27.836,0 c 29.876,0 46.578,-8.593 46.578,-29.6372 0,-12.2761 -7.424,-22.973 -20.971,-25.7797 l 0,-0.1753 c 17.63,-1.227 30.991,-12.6258 30.991,-30.3383 0,-28.41058 -24.31,-35.42464 -50.661,-35.42464" /><path
       inkscape:connector-curvature="0"
       id="path26"
       style="fill:#2c3797;fill-opacity:1;fill-rule:nonzero;stroke:none"
       d="m 390.179,0 c -11.136,0 -24.311,1.93086 -35.447,5.61406 -3.339,1.22696 -3.71,3.15586 -2.783,5.60974 l 3.899,11.4 c 0.554,1.7543 1.483,2.8051 3.34,2.8051 0.741,0 1.668,-0.1738 2.784,-0.5238 8.72,-2.9821 18.37,-5.2621 27.649,-5.2621 10.021,0 21.341,4.559 21.341,15.6078 0,8.0664 -6.31,12.4512 -13.547,15.7832 L 373.29,62.4328 c -13.176,6.1383 -21.897,16.4844 -21.897,30.1637 0,21.3945 22.269,33.1445 42.867,33.1445 12.247,0 22.454,-1.753 33.219,-6.138 2.411,-1.052 3.709,-2.104 3.709,-3.507 0,-0.702 -0.184,-1.403 -0.555,-2.279 l -4.454,-10.698 c -0.743,-1.929 -1.856,-2.631 -3.156,-2.631 -0.927,0 -1.855,0.351 -2.968,0.702 -7.609,2.981 -17.074,5.436 -24.496,5.436 -8.722,0 -18.743,-3.507 -18.743,-13.328 0,-7.1898 7.052,-11.3992 13.176,-14.205 L 410.59,69.6223 C 425.252,62.9594 435.271,53.6648 435.271,37.5305 435.271,13.1539 414.302,0 390.179,0" /><path
       inkscape:connector-curvature="0"
       id="path28"
       style="fill:#2c3797;fill-opacity:1;fill-rule:nonzero;stroke:none"
       d="m 479.07,106.275 -9.279,0 0,-42.4395 11.506,0 c 14.846,0 24.681,7.5407 24.681,21.7461 0,15.2574 -10.763,20.6934 -26.908,20.6934 z m 55.857,-104.16914 -16.887,0 c -3.341,0 -5.567,0.87617 -7.237,3.5082 l -26.723,41.21134 -14.289,0 0,-40.33438 c 0,-2.63204 -1.115,-4.38516 -4.269,-4.38516 l -15.216,0 c -3.156,0 -4.453,1.40312 -4.453,4.38516 l 0,111.88498 c 0,3.858 0.927,5.085 5.009,5.085 l 27.464,0 c 16.146,0 33.219,-2.28 43.055,-12.977 5.937,-6.489 8.905,-15.082 8.905,-24.5512 0,-16.1344 -9.092,-28.7609 -23.937,-34.8988 L 536.781,6.66484 c 0.558,-0.87695 0.929,-1.7539 0.929,-2.45468 0,-1.40235 -1.112,-2.1043 -2.783,-2.1043" /><path
       inkscape:connector-curvature="0"
       id="path30"
       style="fill:#2c3797;fill-opacity:1;fill-rule:nonzero;stroke:none"
       d="M 630.11,7.19297 C 617.862,2.45703 606.729,0 593.182,0 c -39.156,0 -58.271,26.1313 -58.271,62.2574 0,35.9508 22.828,63.4836 60.127,63.4836 12.805,0 24.309,-2.455 34.887,-7.365 2.226,-1.053 2.97,-1.929 2.97,-2.982 0,-0.701 -0.187,-1.403 -0.557,-2.279 l -4.269,-11.049 c -0.556,-1.578 -1.485,-2.2793 -2.597,-2.2793 -0.557,0 -1.299,0.3503 -2.042,0.7013 -9.28,4.56 -17.63,6.314 -26.909,6.314 -25.794,0 -35.814,-22.4477 -35.814,-43.668 0,-27.0067 13.36,-44.193 36.188,-44.193 8.905,0 17.999,1.9281 26.721,5.6121 0.929,0.352 1.67,0.702 2.227,0.702 1.299,0 2.226,-0.877 2.969,-2.6313 l 3.711,-9.4699 c 0.372,-0.8769 0.556,-1.7527 0.556,-2.4551 0,-1.57888 -0.741,-2.62966 -2.969,-3.50583" /><path
       inkscape:connector-curvature="0"
       id="path32"
       style="fill:#2c3797;fill-opacity:1;fill-rule:nonzero;stroke:none"
       d="m 61.657,48.6121 c -2.1925,-3.0172 -4.955,-5.4945 -7.991,-7.3297 l 2.232,-4.4269 4.593,2.4 3.134,-5.9895 -2.9895,-1.539 -1.5218,2.9515 -6.2258,-3.1859 1.5215,-2.9699 -3.009,-1.5497 -3.1336,5.9911 4.6004,2.3082 -2.3051,4.4019 C 47.1566,38.1707 43.4902,37.3766 39.7781,37.327 l -0.223,-4.9223 5.1797,-0.2121 -0.2832,-6.7555 -3.3602,0.1609 0.1664,3.3211 -6.9961,0.3516 -0.1609,-3.3379 -3.3801,0.1699 0.275,6.7539 5.1453,-0.2988 0.2235,4.9352 c -3.6106,0.3984 -7.1582,1.5179 -10.4911,3.4078 l -2.6379,-4.1328 4.3774,-2.7785 -3.6211,-5.7098 -2.832,1.8242 1.807,2.7918 -5.8809,3.8023 -1.8117,-2.8082 -2.8441,1.8282 3.6168,5.7121 4.3066,-2.8297 2.6528,4.1582 c -2.9872,2.2242 -5.4309,5.0176 -7.2403,8.0602 L 11.427,48.5801 13.8324,43.9844 7.84141,40.8566 6.30117,43.8504 9.2582,45.3688 6.06563,51.598 3.09609,50.0699 1.54766,53.084 l 5.99336,3.1297 2.30976,-4.6028 4.34962,2.2743 c -1.4555,3.3601 -2.2758,6.9472 -2.3141,10.6132 L 6.97578,64.6906 6.75977,59.5113 0,59.793 0.166797,63.1551 3.48281,62.9898 3.83164,69.9844 0.499609,70.1477 0.663281,73.5344 7.41992,73.2469 7.1168,68.1098 12.0641,67.9125 c 0.4597,4.0145 1.864,8.0109 4.182,11.6449 8.1543,12.8008 25.1418,16.5711 37.941,8.4141 12.2902,-7.8317 16.266,-23.852 9.3395,-36.4445 l 4.1754,-2.6711 2.7699,4.3785 5.7097,-3.6203 -1.823,-2.8313 -2.7926,1.8016 -3.7918,-5.8766 2.7961,-1.8113 -1.8262,-2.8488 -5.7113,3.6234 2.8309,4.3012 -4.2067,2.6398" /><path
       inkscape:connector-curvature="0"
       id="path34"
       style="fill:#d5068d;fill-opacity:1;fill-rule:nonzero;stroke:none"
       d="m 117.506,11.4172 c 4.222,1.0609 8.286,3.1387 11.839,6.1348 12.501,10.5507 14.082,29.2398 3.532,41.7437 C 122.324,71.7941 103.636,73.3754 91.1355,62.8238 79.0273,52.6078 77.1609,34.7629 86.6391,22.2898 l -4.009,-3.3828 -1.2207,1.4481 -2.786,-2.3512 4.8664,-5.766 2.7852,2.3512 -1.2695,1.5058 4.0371,3.4012 c 2.7941,-2.8723 6.1054,-5.116 9.6129,-6.6063 L 96.9203,7.9 95.141,8.54102 93.9016,5.11094 l 7.0944,-2.55899 1.239,3.42891 -1.853,0.66797 1.801,4.99527 c 3.799,-1.0621 7.782,-1.3929 11.704,-0.9121 l 0.914,-5.22302 -1.866,-0.33007 0.643,-3.59493 7.425,1.33321 -0.641,3.59062 -1.94,-0.34765 -0.916,5.25704" /><path
       inkscape:connector-curvature="0"
       id="path36"
       style="fill:#edac09;fill-opacity:1;fill-rule:nonzero;stroke:none"
       d="m 131.619,99.4883 c -2.622,3.1507 -5.769,5.6207 -9.228,7.3907 l 1.829,4.123 c 1.658,0.014 3.243,0.978 3.954,2.595 0.969,2.2 -0.029,4.769 -2.232,5.74 -2.199,0.966 -4.767,-0.033 -5.737,-2.235 -0.703,-1.594 -0.365,-3.382 0.707,-4.614 l -1.822,-4.165 c -3.726,1.365 -7.708,1.97 -11.671,1.781 l -0.502,4.489 c 1.429,0.844 2.319,2.472 2.125,4.23 -0.258,2.389 -2.41,4.114 -4.798,3.85 -2.392,-0.26 -4.115,-2.41 -3.854,-4.8 0.19,-1.731 1.376,-3.112 2.919,-3.647 l 0.561,-4.513 c -3.853,-0.651 -7.5985,-2.063 -11.0477,-4.302 l -2.6879,3.645 c 0.8152,1.442 0.7754,3.299 -0.2688,4.723 -1.4207,1.939 -4.1472,2.357 -6.0851,0.936 -1.9383,-1.421 -2.3567,-4.146 -0.9348,-6.085 1.0273,-1.404 2.7465,-2.01 4.35,-1.694 l 2.7086,-3.671 c -3.1301,-2.604 -5.6133,-5.758 -7.3789,-9.1955 l -4.1516,1.7969 c -0.0175,1.6606 -0.9808,3.2473 -2.5972,3.9582 -2.1996,0.9694 -4.7707,-0.0312 -5.7391,-2.2344 -0.9684,-2.1988 0.0324,-4.7672 2.232,-5.7347 1.5957,-0.7035 3.386,-0.37 4.6153,0.7062 l 4.1894,-1.8035 c -1.375,-3.7379 -1.9929,-7.7215 -1.7965,-11.6914 l -4.4964,-0.5035 c -0.845,1.4301 -2.4723,2.3203 -4.2266,2.1297 -2.3902,-0.2629 -4.1152,-2.4121 -3.8551,-4.8028 0.2645,-2.391 2.4125,-4.1136 4.8008,-3.8547 1.7332,0.1926 3.1133,1.3774 3.6449,2.9227 l 4.5293,0.5227 c 0.6609,-3.8075 2.0793,-7.5606 4.2859,-10.9825 l -3.6417,-2.7129 c -1.4438,0.8114 -3.2973,0.7739 -4.7243,-0.2718 -1.9386,-1.4223 -2.3543,-4.1453 -0.9363,-6.0852 1.4234,-1.941 4.1481,-2.3578 6.0856,-0.9355 1.4039,1.0297 2.0062,2.7492 1.6957,4.3476 l 3.6906,2.7078 c 2.6047,-3.1316 5.7465,-5.614 9.1926,-7.3796 l -1.8153,-4.1473 c -1.6597,-0.0188 -3.2453,-0.9785 -3.9578,-2.5965 -0.9683,-2.202 0.0328,-4.773 2.2336,-5.7391 2.1981,-0.9714 4.7695,0.0274 5.7383,2.2329 0.6976,1.5933 0.364,3.3859 -0.707,4.6148 l 1.8601,4.1668 c 3.7014,-1.3461 7.6764,-1.9574 11.6214,-1.7715 l 0.514,-4.4988 c -1.431,-0.8473 -2.32,-2.4703 -2.13,-4.2274 0.264,-2.3925 2.412,-4.1183 4.804,-3.8574 2.389,0.2656 4.113,2.4137 3.851,4.8027 -0.189,1.7305 -1.374,3.1133 -2.918,3.645 l -0.457,4.5414 c 4.352,0.766 8.638,2.5375 12.431,5.3207 8.304,6.0875 12.257,15.7324 11.819,25.2961 l 4.742,0.4734 c 0.843,-1.4281 2.471,-2.3203 4.228,-2.1273 2.389,0.2629 4.115,2.4109 3.851,4.8027 -0.262,2.3891 -2.412,4.116 -4.801,3.8523 -1.73,-0.1878 -3.111,-1.375 -3.642,-2.9183 l -4.519,-0.4981 c -0.655,3.834 -2.075,7.5868 -4.304,11.0336 l 3.64,2.668 c 1.447,-0.8156 3.301,-0.7723 4.724,0.2707 1.941,1.4218 2.359,4.1468 0.936,6.0878 -1.419,1.936 -4.145,2.358 -6.083,0.933 -1.405,-1.027 -2.01,-2.745 -1.696,-4.348 l -3.667,-2.6927 z m -36.6366,-0.007 c 10.4676,7.6827 25.1796,5.4187 32.8586,-5.0516 7.679,-10.4703 5.414,-25.182 -5.054,-32.8629 -10.471,-7.675 -25.1831,-5.4121 -32.8628,5.057 -7.6769,10.4692 -5.4129,25.1817 5.0582,32.8575" /></g></svg>