<?xml version="1.0" encoding="UTF-8" standalone="no"?>
<!-- Created with Inkscape (http://www.inkscape.org/) -->

<svg
   width="133.34999mm"
   height="55.370941mm"
   viewBox="0 0 133.34999 55.370941"
   version="1.1"
   id="svg5"
   inkscape:version="1.2.2 (732a01da63, 2022-12-09)"
   sodipodi:docname="bold.svg"
   inkscape:export-filename="C:\Users\sr41756\workspaces\video\2021-hutton-symposium\bold.png"
   inkscape:export-xdpi="97.73951"
   inkscape:export-ydpi="97.73951"
   xmlns:inkscape="http://www.inkscape.org/namespaces/inkscape"
   xmlns:sodipodi="http://sodipodi.sourceforge.net/DTD/sodipodi-0.dtd"
   xmlns="http://www.w3.org/2000/svg"
   xmlns:svg="http://www.w3.org/2000/svg">
  <sodipodi:namedview
     id="namedview7"
     pagecolor="#ffffff"
     bordercolor="#666666"
     borderopacity="1.0"
     inkscape:pageshadow="2"
     inkscape:pageopacity="0.0"
     inkscape:pagecheckerboard="0"
     inkscape:document-units="mm"
     showgrid="false"
     inkscape:zoom="1.0809568"
     inkscape:cx="70.308083"
     inkscape:cy="323.78722"
     inkscape:window-width="2560"
     inkscape:window-height="1377"
     inkscape:window-x="1912"
     inkscape:window-y="-8"
     inkscape:window-maximized="1"
     inkscape:current-layer="layer1"
     inkscape:showpageshadow="2"
     inkscape:deskcolor="#d1d1d1" />
  <defs
     id="defs2" />
  <g
     inkscape:label="Layer 1"
     inkscape:groupmode="layer"
     id="layer1"
     transform="translate(-52.605975,-35.16504)">
    <g
       aria-label="BOLD"
       id="text1002"
       style="font-size:50.8px;fill:#18543e;stroke-width:0.264583">
      <path
         d="m 52.605975,35.735547 h 11.286132 q 7.714258,0 11.186914,2.207618 3.497461,2.182812 3.497461,6.970117 0,3.249414 -1.537891,5.333007 -1.513086,2.083594 -4.043164,2.505274 v 0.248047 q 3.447852,0.768945 4.960938,2.877343 1.53789,2.108399 1.53789,5.60586 0,4.960937 -3.596679,7.739062 Q 72.325701,72 66.174138,72 H 52.605975 Z m 7.689453,14.361914 h 4.464843 q 3.125391,0 4.514453,-0.967383 1.413867,-0.967382 1.413867,-3.199804 0,-2.083594 -1.53789,-2.976563 -1.513086,-0.917773 -4.812109,-0.917773 h -4.043164 z m 0,6.101953 V 65.65 h 5.010546 q 3.175,0 4.688086,-1.21543 1.513086,-1.215429 1.513086,-3.720703 0,-4.514453 -6.449219,-4.514453 z"
         style="-inkscape-font-specification:'Open Sans Bold'"
         id="path338" />
      <path
         d="m 119.65304,53.818164 q 0,9.004102 -4.46484,13.841016 -4.46484,4.836914 -12.79922,4.836914 -8.334374,0 -12.799218,-4.836914 -4.464844,-4.836914 -4.464844,-13.890625 0,-9.053711 4.464844,-13.816211 4.489648,-4.787304 12.848828,-4.787304 8.35918,0 12.77441,4.812109 4.44004,4.812109 4.44004,13.841015 z m -26.466598,0 q 0,6.077149 2.306836,9.15293 2.306835,3.075781 6.895702,3.075781 9.20254,0 9.20254,-12.228711 0,-12.253515 -9.15293,-12.253515 -4.588867,0 -6.920508,3.100586 -2.33164,3.075781 -2.33164,9.152929 z"
         style="-inkscape-font-specification:'Open Sans Bold'"
         id="path340" />
      <path
         d="M 127.16886,72 V 35.735547 h 7.68946 V 65.65 H 149.5675 V 72 Z"
         style="-inkscape-font-specification:'Open Sans Bold'"
         id="path342" />
      <path
         d="m 185.95597,53.520508 q 0,8.954492 -5.10977,13.716992 Q 175.76124,72 166.13702,72 H 155.86788 V 35.735547 h 11.38536 q 8.88007,0 13.7914,4.688086 4.91133,4.688086 4.91133,13.096875 z m -7.98711,0.198438 q 0,-11.683008 -10.31875,-11.683008 h -4.09277 V 65.65 h 3.29902 q 11.1125,0 11.1125,-11.931054 z"
         style="-inkscape-font-specification:'Open Sans Bold'"
         id="path344" />
    </g>
    <g
       aria-label="Crop Wild Relatives"
       id="text2986"
       style="font-size:13.7583px;fill:#18543e;stroke-width:0.264583"
       transform="translate(4.9343075)">
      <path
         d="m 57.795214,78.356394 q -1.58543,0 -2.492349,1.061432 -0.906919,1.061431 -0.906919,2.902141 0,1.901171 0.880048,2.935731 0.880047,1.027842 2.505784,1.027842 1.047995,0 2.35799,-0.38964 v 1.074867 q -0.624767,0.22841 -1.202508,0.309025 -0.577741,0.08733 -1.330148,0.08733 -2.169888,0 -3.345524,-1.316713 -1.168918,-1.32343 -1.168918,-3.741881 0,-1.51825 0.557587,-2.660296 0.564305,-1.142047 1.632455,-1.760095 1.074867,-0.618049 2.525937,-0.618049 1.558558,0 2.71404,0.577741 l -0.497126,1.047996 q -1.175636,-0.537434 -2.230349,-0.537434 z"
         id="path404" />
      <path
         d="m 65.554411,79.720132 q 0.490408,0 0.866612,0.08061 l -0.147794,1.115175 q -0.409794,-0.09405 -0.799433,-0.09405 -0.584459,0 -1.088303,0.32246 -0.497126,0.32246 -0.779279,0.893483 -0.282152,0.564306 -0.282152,1.256251 v 3.936701 H 62.114836 V 79.85449 h 0.994252 l 0.134359,1.350302 h 0.05374 q 0.423229,-0.732253 1.00097,-1.108457 0.577741,-0.376203 1.256251,-0.376203 z"
         id="path406" />
      <path
         d="m 74.072733,83.529192 q 0,1.807121 -0.913637,2.821527 -0.913637,1.014406 -2.525938,1.014406 -1.00097,0 -1.77353,-0.463537 -0.772561,-0.470254 -1.189072,-1.343584 -0.416511,-0.873329 -0.416511,-2.028812 0,-1.800402 0.900201,-2.801372 0.900201,-1.007688 2.525938,-1.007688 1.558557,0 2.472194,1.027842 0.920355,1.021123 0.920355,2.781218 z m -5.569155,0 q 0,1.39061 0.544151,2.116145 0.55087,0.718818 1.619019,0.718818 1.054713,0 1.605583,-0.718818 0.550869,-0.725535 0.550869,-2.116145 0,-1.390609 -0.557587,-2.089273 -0.55087,-0.705381 -1.619019,-0.705381 -2.143016,0 -2.143016,2.794654 z"
         id="path408" />
      <path
         d="m 79.480659,87.365125 q -1.484661,0 -2.284093,-1.06815 h -0.08062 l 0.02687,0.275435 q 0.05374,0.523998 0.05374,0.933791 v 3.029782 H 75.98734 V 79.85449 h 0.994253 l 0.16123,1.007688 h 0.05374 q 0.429947,-0.604612 0.994252,-0.873329 0.564305,-0.268717 1.303277,-0.268717 1.437634,0 2.230349,1.00097 0.799432,0.994252 0.799432,2.80809 0,1.807121 -0.799432,2.821527 -0.799433,1.014406 -2.243785,1.014406 z m -0.201538,-6.630587 q -1.095021,0 -1.585429,0.618048 -0.48369,0.618049 -0.497126,1.941479 v 0.235127 q 0,1.498097 0.497126,2.169889 0.497126,0.665074 1.612301,0.665074 0.927073,0 1.444353,-0.752407 0.523997,-0.752407 0.523997,-2.095991 0,-1.350302 -0.523997,-2.062402 -0.51728,-0.718817 -1.471225,-0.718817 z"
         id="path410" />
      <path
         d="m 96.859916,87.230766 h -1.249533 l -1.914607,-6.435767 q -0.423229,-1.437635 -0.497126,-1.941479 -0.107487,0.772561 -0.470254,1.981787 l -1.854146,6.395459 h -1.249533 l -2.599835,-9.821599 h 1.28984 l 1.524968,5.999103 q 0.309024,1.175636 0.470254,2.337836 0.147795,-1.101739 0.523998,-2.411733 l 1.733223,-5.925206 h 1.276405 l 1.807121,5.972231 q 0.349331,1.1622 0.537433,2.364708 0.107487,-0.927073 0.476973,-2.351272 l 1.518249,-5.985667 h 1.289841 z"
         id="path412" />
      <path
         d="m 102.03272,87.230766 h -1.20923 V 79.85449 h 1.20923 z m -1.30328,-9.371498 q 0,-0.403075 0.20154,-0.584459 0.20825,-0.181384 0.51056,-0.181384 0.28215,0 0.49041,0.181384 0.21497,0.181384 0.21497,0.584459 0,0.396357 -0.21497,0.584459 -0.20826,0.188102 -0.49041,0.188102 -0.30231,0 -0.51056,-0.188102 -0.20154,-0.188102 -0.20154,-0.584459 z"
         id="path414" />
      <path
         d="m 105.57978,87.230766 h -1.20923 V 76.777683 h 1.20923 z"
         id="path416" />
      <path
         d="m 110.53088,87.365125 q -1.43763,0 -2.23035,-0.994252 -0.79271,-0.994253 -0.79271,-2.814809 0,-1.80712 0.79271,-2.821526 0.79944,-1.014406 2.24379,-1.014406 1.48466,0 2.28409,1.088303 h 0.0873 q -0.0202,-0.134358 -0.0538,-0.537434 -0.0336,-0.409793 -0.0336,-0.550869 v -2.942449 h 1.20923 v 10.453083 h -0.9741 l -0.18138,-0.987534 h -0.0537 q -0.77256,1.121893 -2.29753,1.121893 z m 0.19482,-1.00097 q 1.10174,0 1.60559,-0.597895 0.51056,-0.604613 0.51056,-1.975069 V 83.5695 q 0,-1.538404 -0.51728,-2.190042 -0.51056,-0.658356 -1.6123,-0.658356 -0.93379,0 -1.44435,0.745689 -0.51057,0.738971 -0.51057,2.116145 0,1.370455 0.50385,2.075837 0.51056,0.705382 1.4645,0.705382 z"
         id="path418" />
      <path
         d="m 121.36017,82.125147 h 1.47123 q 1.19579,0 1.74666,-0.470254 0.55086,-0.470255 0.55086,-1.397327 0,-0.927073 -0.55758,-1.350302 -0.55759,-0.429947 -1.80712,-0.429947 h -1.40405 z m 0,1.047996 v 4.057623 h -1.2361 v -9.821599 h 2.70733 q 1.82727,0 2.7006,0.698664 0.88005,0.691946 0.88005,2.089273 0,1.954915 -1.96835,2.633425 l 2.69388,4.400237 h -1.44435 l -2.37814,-4.057623 z"
         id="path420" />
      <path
         d="m 131.65203,87.365125 q -1.65933,0 -2.60656,-1.00097 -0.9405,-1.007688 -0.9405,-2.767783 0,-1.773531 0.88004,-2.821527 0.88005,-1.054713 2.37815,-1.054713 1.39061,0 2.21691,0.900201 0.8263,0.893484 0.8263,2.425169 v 0.732253 h -5.05187 q 0.0336,1.256252 0.6382,1.90789 0.60461,0.651638 1.71307,0.651638 0.59118,0 1.12189,-0.100769 0.53072,-0.107487 1.24282,-0.409793 v 1.061431 q -0.61133,0.261999 -1.14877,0.369486 -0.53743,0.107487 -1.26968,0.107487 z m -0.30231,-6.657459 q -0.86661,0 -1.37045,0.557587 -0.50385,0.557588 -0.5979,1.55184 h 3.75532 q -0.0134,-1.03456 -0.47697,-1.571993 -0.46354,-0.537434 -1.31,-0.537434 z"
         id="path422" />
      <path
         d="m 137.48318,87.230766 h -1.20923 V 76.777683 h 1.20923 z"
         id="path424" />
      <path
         d="m 144.37576,87.230766 -0.23513,-1.047995 h -0.0537 q -0.55087,0.691946 -1.10174,0.940509 -0.54415,0.241845 -1.37717,0.241845 -1.08831,0 -1.70635,-0.571023 -0.61805,-0.571024 -0.61805,-1.612301 0,-2.243785 3.54034,-2.351272 l 1.24953,-0.04703 v -0.436664 q 0,-0.83974 -0.36276,-1.236098 -0.36277,-0.403075 -1.1622,-0.403075 -0.58446,0 -1.10846,0.174666 -0.51728,0.174666 -0.9741,0.389639 l -0.36949,-0.906919 q 0.55759,-0.295588 1.21595,-0.463536 0.65835,-0.167948 1.30327,-0.167948 1.33687,0 1.98851,0.591177 0.65164,0.591177 0.65164,1.881017 v 5.025004 z m -2.49235,-0.83974 q 1.01441,0 1.59215,-0.544151 0.58446,-0.55087 0.58446,-1.558558 v -0.665074 l -1.08831,0.04703 q -1.26968,0.04702 -1.85414,0.403075 -0.57774,0.35605 -0.57774,1.121893 0,0.577741 0.34933,0.886765 0.35605,0.309024 0.99425,0.309024 z"
         id="path426" />
      <path
         d="m 150.00538,86.37759 q 0.23513,0 0.55087,-0.04702 0.31574,-0.04703 0.47697,-0.107487 v 0.927073 q -0.16794,0.0739 -0.52399,0.141077 -0.34934,0.0739 -0.7121,0.0739 -2.16317,0 -2.16317,-2.277375 v -4.292751 h -1.04128 v -0.577741 l 1.05471,-0.48369 0.48369,-1.571993 h 0.71882 v 1.692915 h 2.12958 v 0.940509 h -2.12958 v 4.259161 q 0,0.638203 0.30231,0.980817 0.30902,0.342613 0.85317,0.342613 z"
         id="path428" />
      <path
         d="m 153.71367,87.230766 h -1.20923 V 79.85449 h 1.20923 z m -1.30328,-9.371498 q 0,-0.403075 0.20154,-0.584459 0.20826,-0.181384 0.51056,-0.181384 0.28215,0 0.49041,0.181384 0.21497,0.181384 0.21497,0.584459 0,0.396357 -0.21497,0.584459 -0.20826,0.188102 -0.49041,0.188102 -0.3023,0 -0.51056,-0.188102 -0.20154,-0.188102 -0.20154,-0.584459 z"
         id="path430" />
      <path
         d="m 157.67725,87.230766 -2.79466,-7.376276 h 1.29656 l 1.56528,4.346494 q 0.46353,1.309995 0.59117,1.954915 h 0.0538 q 0.0202,-0.08733 0.047,-0.19482 0.0336,-0.114204 0.0739,-0.241845 0.0403,-0.134358 0.49712,-1.51825 l 1.572,-4.346494 h 1.28984 l -2.80137,7.376276 z"
         id="path432" />
      <path
         d="m 166.17541,87.365125 q -1.65933,0 -2.60655,-1.00097 -0.94051,-1.007688 -0.94051,-2.767783 0,-1.773531 0.88005,-2.821527 0.88004,-1.054713 2.37814,-1.054713 1.39061,0 2.21691,0.900201 0.82631,0.893484 0.82631,2.425169 v 0.732253 h -5.05188 q 0.0336,1.256252 0.6382,1.90789 0.60462,0.651638 1.71307,0.651638 0.59118,0 1.1219,-0.100769 0.53071,-0.107487 1.24281,-0.409793 v 1.061431 q -0.61133,0.261999 -1.14876,0.369486 -0.53744,0.107487 -1.26969,0.107487 z m -0.30231,-6.657459 q -0.86661,0 -1.37045,0.557587 -0.50384,0.557588 -0.5979,1.55184 h 3.75532 q -0.0134,-1.03456 -0.47697,-1.571993 -0.46354,-0.537434 -1.31,-0.537434 z"
         id="path434" />
      <path
         d="m 175.60066,85.195237 q 0,1.034559 -0.77256,1.605582 -0.77257,0.564306 -2.16989,0.564306 -1.45779,0 -2.31768,-0.463537 v -1.101739 q 1.21594,0.591177 2.34455,0.591177 0.91364,0 1.33015,-0.295588 0.41651,-0.295589 0.41651,-0.792715 0,-0.436664 -0.40308,-0.738971 -0.39635,-0.302306 -1.41748,-0.691946 -1.04128,-0.403075 -1.4645,-0.685227 -0.42323,-0.288871 -0.62477,-0.644921 -0.19482,-0.35605 -0.19482,-0.866611 0,-0.90692 0.73897,-1.430917 0.73897,-0.523998 2.02881,-0.523998 1.25625,0 2.35127,0.497126 l -0.40979,0.960663 q -1.12189,-0.470255 -2.02209,-0.470255 -0.75241,0 -1.14205,0.241845 -0.38964,0.235127 -0.38964,0.651638 0,0.403076 0.3359,0.671792 0.33589,0.261999 1.56527,0.732254 0.92036,0.342614 1.35702,0.638202 0.44339,0.295589 0.65164,0.665074 0.20826,0.369486 0.20826,0.886766 z"
         id="path436" />
    </g>
  </g>
</svg>
