<svg xmlns="http://www.w3.org/2000/svg" data-name="cimmyt-logo-eng" class="sf-logo__eng" viewBox="0 0 403.16 92.94">
  <path d="M14.51 29.24L14.49 0h1.32v29.26l.1 8.9-.33 3.63a7.69 7.69 0 0 1-1.82 4 18.89 18.89 0 0 1-2 2.08 5 5 0 0 0-1.39 2.07L10 52l2.21-3c2.26-2.37 4.37-4.31 4.69-7.86l.07-1.1v-40h1.32v42.19a35.26 35.26 0 0 1-2.38 10.81s-.86 1.8-1.77 3.28c-1.18 2-2.67 3-4 5.92l-.15 2-1.69.06-.17-4.15a13.37 13.37 0 0 1-.37-2.13A7.1 7.1 0 0 0 7 55.53l-.14-.2C-.67 46.44.07 38.63.07 38.63L0 37.41V0h1.23l.06 33.91.12 2.3a7.16 7.16 0 0 0 1.76 5c1.42 1.54 1.53 1.46 2.7 2.82a12.41 12.41 0 0 1 1.82 3l.06-1.63-.59-1.61-.92-1.16a9.76 9.76 0 0 1-3.71-8.33L2.46 0h1.17v23.91L4 26s.88 2.79 1.8 5c1.51 3.6 2.65 5.71 2.65 5.71A16.18 16.18 0 0 0 7.91 33c-.4-.73-1.14-2.51-1.14-2.51A27.75 27.75 0 0 1 5.4 26L5 24.35v-1.28L4.93 0H6.1v14.8a9.09 9.09 0 0 0 1.14 4.8 26.29 26.29 0 0 1 1 2.92s.36-1.13-.47-4.58c-.22-.91-.42-4.2-.42-4.2V.09h1.12v9s.38 3.88.76 2.85a8.71 8.71 0 0 0 .47-2.21V0h1.22v20.75a20.57 20.57 0 0 1-.64 4.25 6.53 6.53 0 0 0-.36 3.15 8.06 8.06 0 0 0 1.26-2.7c.27-.89 1-3.66 1-3.66V0h1.21v28.77a34.13 34.13 0 0 1-1.54 5.9c-.82 2.41-1.24 2.87-1.41 3.74a10.74 10.74 0 0 0-.16 2.44L12 37c.38-.82 1-2 1-2s.39-1 1-2.68zM31.79 23a2.49 2.49 0 0 1 1.2.81 2.12 2.12 0 0 1 .35.83 1.89 1.89 0 0 1-.27 1.69 1.34 1.34 0 0 1-1.3.54 7.2 7.2 0 0 1-1.31-.26 2.49 2.49 0 0 1-.95-.52A1.51 1.51 0 0 1 29 25a2.89 2.89 0 0 1 0-1.32 1 1 0 0 1 .49-.82 1.51 1.51 0 0 1 1-.22 3.19 3.19 0 0 1 .63.11zm-6.89-6.22c.06.42.09.95.17 1.48.14.86.26 1.37.31 1.68a.68.68 0 0 1-.26.67c-.11.1-.18.09-.22.07-.2-.07-.35-.2-.4-.61s-.17-1-.2-1.56a7.3 7.3 0 0 1 0-1.39 1.67 1.67 0 0 1 .12-.6s0-.09.19 0a.35.35 0 0 1 .29.26zm.1-4.96v.5a9.32 9.32 0 0 0 .2 1.73 3.68 3.68 0 0 1 .14 1.84.62.62 0 0 1-.22.28c-.19.16-.3.14-.45-.07a2.09 2.09 0 0 1-.35-1.1l-.08-.84a6.51 6.51 0 0 1 0-1.91 1.58 1.58 0 0 1 .23-.74.23.23 0 0 1 .22-.07c.31.03.31.16.31.38zm-.12 9.3c.07.42.11 1 .17 1.49.14.86.27 1.36.31 1.68a.69.69 0 0 1-.25.67c-.12.1-.19.09-.24.07s-.33-.19-.38-.61a14.35 14.35 0 0 1-.2-1.54 7.43 7.43 0 0 1 0-1.41 2.15 2.15 0 0 1 .12-.61s0-.07.2 0a.4.4 0 0 1 .27.26zm6.91-2.4a2.45 2.45 0 0 1 1.2.82 2 2 0 0 1 .35.82 1.87 1.87 0 0 1-.27 1.64 1.35 1.35 0 0 1-1.3.55 7.2 7.2 0 0 1-1.31-.26 2.63 2.63 0 0 1-.95-.52 1.49 1.49 0 0 1-.52-1 2.94 2.94 0 0 1 0-1.33 1 1 0 0 1 .49-.82 1.51 1.51 0 0 1 1-.22 4.14 4.14 0 0 1 .63.11zm0 12.74a2.45 2.45 0 0 1 1.2.82 2.12 2.12 0 0 1 .35.83 1.87 1.87 0 0 1-.27 1.68 1.3 1.3 0 0 1-1.3.54 6.19 6.19 0 0 1-1.31-.26 2.61 2.61 0 0 1-.95-.51 1.51 1.51 0 0 1-.52-1 2.89 2.89 0 0 1 0-1.32 1 1 0 0 1 .49-.82 1.46 1.46 0 0 1 1-.22 3.93 3.93 0 0 1 .63.11zm0-4.25A2.55 2.55 0 0 1 33 28a2 2 0 0 1 .35.82 1.87 1.87 0 0 1-.27 1.68 1.3 1.3 0 0 1-1.3.54 5.59 5.59 0 0 1-1.31-.27 2.33 2.33 0 0 1-.95-.5 1.54 1.54 0 0 1-.52-1A2.9 2.9 0 0 1 29 28a1 1 0 0 1 .49-.82 1.46 1.46 0 0 1 1-.22 2.44 2.44 0 0 1 .63.11zm0 12.79a2.62 2.62 0 0 1 1.2.83 2 2 0 0 1 .35.83 1.87 1.87 0 0 1-.27 1.68 1.34 1.34 0 0 1-1.3.55 7 7 0 0 1-1.31-.28 2.47 2.47 0 0 1-.95-.51A1.51 1.51 0 0 1 29 42a2.9 2.9 0 0 1 0-1.32 1 1 0 0 1 .49-.81 1.46 1.46 0 0 1 1-.22 2.59 2.59 0 0 1 .63.1zm0-4.29a2.59 2.59 0 0 1 1.2.82 2.07 2.07 0 0 1 .35.82 1.88 1.88 0 0 1-.27 1.65 1.3 1.3 0 0 1-1.3.54 6.58 6.58 0 0 1-1.31-.26 2.48 2.48 0 0 1-.95-.51 1.57 1.57 0 0 1-.52-1 2.85 2.85 0 0 1 0-1.31 1 1 0 0 1 .49-.83 1.55 1.55 0 0 1 1-.22 4.14 4.14 0 0 1 .63.11zm0 12.75a2.45 2.45 0 0 1 1.2.82 2.07 2.07 0 0 1 .35.82 1.87 1.87 0 0 1-.27 1.68 1.33 1.33 0 0 1-1.3.55 7.12 7.12 0 0 1-1.31-.27 2.51 2.51 0 0 1-.95-.5 1.57 1.57 0 0 1-.52-1 2.94 2.94 0 0 1 0-1.33 1 1 0 0 1 .49-.81 1.46 1.46 0 0 1 1-.23 3.91 3.91 0 0 1 .63.12zm0-4.25A2.43 2.43 0 0 1 33 45a2.11 2.11 0 0 1 .35.84 1.88 1.88 0 0 1-.27 1.68 1.32 1.32 0 0 1-1.3.54 6.73 6.73 0 0 1-1.31-.26 2.4 2.4 0 0 1-.95-.51 1.59 1.59 0 0 1-.52-1A2.94 2.94 0 0 1 29 45a1 1 0 0 1 .49-.82 1.45 1.45 0 0 1 1-.21 2.59 2.59 0 0 1 .63.1zm0 12.79a2.52 2.52 0 0 1 1.2.82 2.07 2.07 0 0 1 .35.82 1.89 1.89 0 0 1-.27 1.69 1.32 1.32 0 0 1-1.3.54 6.89 6.89 0 0 1-1.31-.26 2.48 2.48 0 0 1-.95-.51A1.56 1.56 0 0 1 29 59a2.89 2.89 0 0 1 0-1.32 1 1 0 0 1 .49-.82 1.41 1.41 0 0 1 1-.22 3 3 0 0 1 .63.11zm0-4.29a2.36 2.36 0 0 1 1.2.81 2.06 2.06 0 0 1 .35.83 1.86 1.86 0 0 1-.27 1.65 1.35 1.35 0 0 1-1.3.55 7.12 7.12 0 0 1-1.31-.27 2.48 2.48 0 0 1-.95-.51 1.51 1.51 0 0 1-.52-1 2.89 2.89 0 0 1 0-1.32 1 1 0 0 1 .49-.82 1.51 1.51 0 0 1 1-.22 3.07 3.07 0 0 1 .63.11zm0 8.5A2.36 2.36 0 0 1 33 62a2 2 0 0 1 .35.83 1.85 1.85 0 0 1-.27 1.67 1.34 1.34 0 0 1-1.3.56 6.79 6.79 0 0 1-1.31-.28 2.46 2.46 0 0 1-.95-.5 1.54 1.54 0 0 1-.52-1A2.94 2.94 0 0 1 29 62a1 1 0 0 1 .49-.81 1.41 1.41 0 0 1 1-.23 2.94 2.94 0 0 1 .63.12h.1zm-3.12-37.54a.74.74 0 0 1-.64.61 1 1 0 0 1-.88-.11 2 2 0 0 1-.76-.59 4.26 4.26 0 0 1-.71-1.08 2.88 2.88 0 0 1-.28-1.63 1 1 0 0 1 .77-.84 1.39 1.39 0 0 1 1.08.31c.28.25.55.53.77.77a3.2 3.2 0 0 1 .75 2 2.54 2.54 0 0 1-.1.56zm0 4.33a.74.74 0 0 1-.64.62 1 1 0 0 1-.88-.11 2.18 2.18 0 0 1-.76-.6 4.27 4.27 0 0 1-.71-1.07 2.92 2.92 0 0 1-.28-1.64 1 1 0 0 1 .77-.83 1.31 1.31 0 0 1 1.08.3c.28.26.55.53.77.78a3.22 3.22 0 0 1 .75 2 2.46 2.46 0 0 1-.1.55zm0 4.29a.72.72 0 0 1-.64.62 1 1 0 0 1-.88-.11 2 2 0 0 1-.76-.59 4.36 4.36 0 0 1-.71-1.07 3 3 0 0 1-.28-1.64 1 1 0 0 1 .77-.84 1.39 1.39 0 0 1 1.08.3c.27.27.55.54.77.78a4.3 4.3 0 0 1 .54.92 2.16 2.16 0 0 1 .21 1.07 2.37 2.37 0 0 1-.1.56zm0 4.33a.73.73 0 0 1-.64.61 1.05 1.05 0 0 1-.88-.11 2.3 2.3 0 0 1-.76-.6 4.17 4.17 0 0 1-.71-1.07 2.9 2.9 0 0 1-.28-1.63 1 1 0 0 1 .77-.85 1.39 1.39 0 0 1 1.08.31c.28.26.55.54.77.78a3.14 3.14 0 0 1 .75 2 2.63 2.63 0 0 1-.1.56zm0 4.31a.74.74 0 0 1-.64.61 1 1 0 0 1-.88-.1 2.27 2.27 0 0 1-.76-.6 4.08 4.08 0 0 1-.71-1.08 2.88 2.88 0 0 1-.28-1.63 1 1 0 0 1 .77-.84 1.43 1.43 0 0 1 1.08.3c.27.26.55.54.77.78a3.27 3.27 0 0 1 .75 2 2.44 2.44 0 0 1-.1.56zm0 4.32a.75.75 0 0 1-.64.61 1 1 0 0 1-.88-.12 2.14 2.14 0 0 1-.76-.59 3.68 3.68 0 0 1-.71-1.08 2.89 2.89 0 0 1-.28-1.63 1 1 0 0 1 .77-.83 1.32 1.32 0 0 1 1.08.31 8 8 0 0 1 .77.77 3.19 3.19 0 0 1 .75 2 2.62 2.62 0 0 1-.1.56zm0 4.31a.75.75 0 0 1-.64.62 1.05 1.05 0 0 1-.88-.12 2 2 0 0 1-.76-.6 3.55 3.55 0 0 1-.71-1.07 2.88 2.88 0 0 1-.28-1.63 1 1 0 0 1 .77-.84 1.35 1.35 0 0 1 1.08.31c.28.25.55.54.77.78a3.19 3.19 0 0 1 .75 2 2.63 2.63 0 0 1-.1.55zm0 4.32a.76.76 0 0 1-.64.62 1.13 1.13 0 0 1-.88-.11 2.19 2.19 0 0 1-.76-.61 4 4 0 0 1-.71-1.07 2.94 2.94 0 0 1-.28-1.64 1 1 0 0 1 .77-.84 1.47 1.47 0 0 1 1.08.3c.27.27.55.54.77.79a4 4 0 0 1 .54.91 2.2 2.2 0 0 1 .21 1.08 2.63 2.63 0 0 1-.1.57zm0 4.32a.74.74 0 0 1-.64.61 1 1 0 0 1-.88-.12 2 2 0 0 1-.76-.6 4 4 0 0 1-.71-1.09 3 3 0 0 1-.28-1.64 1 1 0 0 1 .77-.84 1.39 1.39 0 0 1 1.08.31c.28.25.55.53.77.76a4.66 4.66 0 0 1 .54.93 2.16 2.16 0 0 1 .21 1.07 2.62 2.62 0 0 1-.1.61zm-.04 4.08a.76.76 0 0 1-.64.62 1.09 1.09 0 0 1-.88-.11 2.18 2.18 0 0 1-.76-.6 4.34 4.34 0 0 1-.71-1.08 2.92 2.92 0 0 1-.28-1.63 1 1 0 0 1 .76-.83 1.43 1.43 0 0 1 1.09.29c.27.27.55.55.75.79a3.44 3.44 0 0 1 .55.92 2.15 2.15 0 0 1 .22 1.07 3 3 0 0 1-.1.56zM24.88 25.4c.07.42.11 1 .17 1.48.14.86.27 1.37.31 1.68a.72.72 0 0 1-.25.68c-.12.08-.19.08-.24.06s-.33-.18-.38-.62-.18-1-.2-1.55a7.34 7.34 0 0 1 0-1.4 2.07 2.07 0 0 1 .12-.6s0-.07.2 0a.35.35 0 0 1 .27.27zm-.04 4.26c.07.43.1 1 .18 1.5.14.85.26 1.35.31 1.67a.69.69 0 0 1-.26.67c-.12.09-.19.08-.24.06s-.33-.18-.38-.6-.17-1-.2-1.55a9.59 9.59 0 0 1 0-1.41 2.27 2.27 0 0 1 .12-.59s0-.09.2 0a.36.36 0 0 1 .27.25zm0 4.28c.07.42.1 1 .18 1.48.14.87.26 1.37.31 1.68a.69.69 0 0 1-.26.67c-.12.09-.19.09-.24.07s-.33-.19-.38-.61-.17-1-.2-1.55a9.45 9.45 0 0 1 0-1.4 2.37 2.37 0 0 1 .12-.6s0-.09.2 0a.32.32 0 0 1 .27.26zm.04 4.27c.07.43.11 1 .17 1.48.14.87.27 1.38.31 1.69a.7.7 0 0 1-.25.67c-.12.09-.19.09-.24.06s-.33-.19-.38-.62-.18-1-.2-1.54a7.34 7.34 0 0 1 0-1.4 2.15 2.15 0 0 1 .12-.61s0-.08.2 0a.36.36 0 0 1 .27.27zm-.04 4.31c.07.43.1.95.18 1.48.14.87.26 1.38.31 1.69a.67.67 0 0 1-.26.66c-.12.1-.19.09-.24.07s-.33-.19-.38-.61-.17-1-.2-1.55a9.47 9.47 0 0 1 0-1.4 2.48 2.48 0 0 1 .12-.6s0-.08.2 0a.36.36 0 0 1 .27.26zm.08 4.31c.07.43.1 1 .17 1.49.14.85.27 1.36.31 1.68a.66.66 0 0 1-.26.67.23.23 0 0 1-.22.07c-.19-.08-.34-.21-.39-.62s-.17-1-.2-1.54a7.44 7.44 0 0 1 0-1.41 2.37 2.37 0 0 1 .12-.6s0-.08.2 0a.37.37 0 0 1 .27.26zm-.04 4.4c.07.42.11 1 .17 1.48.14.86.27 1.37.31 1.68a.69.69 0 0 1-.25.67c-.12.09-.19.09-.24.07s-.33-.2-.38-.62-.18-1-.2-1.55a7.33 7.33 0 0 1 0-1.4 1.92 1.92 0 0 1 .12-.6s0-.08.2 0a.36.36 0 0 1 .27.27zm0 4.35c.07.42.11 1 .17 1.48.14.86.27 1.37.31 1.68a.68.68 0 0 1-.25.67.24.24 0 0 1-.24.07c-.18-.07-.33-.19-.38-.62s-.18-1-.2-1.55a7.34 7.34 0 0 1 0-1.4 2.07 2.07 0 0 1 .12-.6s0-.08.2 0a.37.37 0 0 1 .27.27zm3.79-36.09a.72.72 0 0 1-.64.6 1 1 0 0 1-.88-.09 2.3 2.3 0 0 1-.76-.6 4.45 4.45 0 0 1-.71-1.08 2.89 2.89 0 0 1-.28-1.63 1 1 0 0 1 .77-.84 1.39 1.39 0 0 1 1.08.31c.27.25.55.53.77.77a4.46 4.46 0 0 1 .54.91 2.18 2.18 0 0 1 .21 1.07 2.52 2.52 0 0 1-.1.58zm7.23 3.25a3.18 3.18 0 0 1 1.21-.08 1.35 1.35 0 0 1 .8.52 3.44 3.44 0 0 1 .24 1.12 3.14 3.14 0 0 1-.06.7 1.56 1.56 0 0 1-.51 1 2.69 2.69 0 0 1-1 .51 6.55 6.55 0 0 1-1.32.26 1.33 1.33 0 0 1-1.3-.55 1.85 1.85 0 0 1-.25-1.67 1.94 1.94 0 0 1 .92-1.36 2.61 2.61 0 0 1 .62-.29zm6.55-6.53c.38-.13.45.16.5.75a7.55 7.55 0 0 1 0 1.42c0 .54-.14 1.09-.19 1.56a.79.79 0 0 1-.48.74c-.24.08-.56-.17-.64-.45a1.66 1.66 0 0 1 0-.93 11.21 11.21 0 0 0 .22-1.21c.08-.5.11-1 .18-1.49a.5.5 0 0 1 .41-.39z" class="cls-1"></path>
  <path d="M42.46 11.52c.12 0 .17 0 .2.06a1.39 1.39 0 0 1 .24.75 6.71 6.71 0 0 1 0 1.9l-.09.84a2.2 2.2 0 0 1-.33 1.13c-.17.2-.26.22-.46.06a.76.76 0 0 1-.27-.68 7.31 7.31 0 0 1 .25-1.44 8.6 8.6 0 0 0 .2-1.72v-.52c-.02-.22.03-.34.26-.38zm0 9.23h.19a2.27 2.27 0 0 1 .12.59 8.33 8.33 0 0 1 0 1.4c0 .53-.15 1.06-.21 1.55s-.2.54-.38.62a.3.3 0 0 1-.24-.07.68.68 0 0 1-.25-.68c.13-.63.22-1.2.31-1.67s.1-1.06.17-1.49a.38.38 0 0 1 .29-.25zM35.9 18.5a3 3 0 0 1 1.21-.09 1.33 1.33 0 0 1 .8.54 3.32 3.32 0 0 1 .24 1.1 3 3 0 0 1-.06.7 1.48 1.48 0 0 1-.51 1 2.47 2.47 0 0 1-1 .52 6.41 6.41 0 0 1-1.32.26A1.3 1.3 0 0 1 34 22a1.89 1.89 0 0 1-.25-1.69 1.87 1.87 0 0 1 .92-1.31 2.68 2.68 0 0 1 .62-.3zm0 12.74a2.81 2.81 0 0 1 1.21-.08 1.37 1.37 0 0 1 .8.51 3.57 3.57 0 0 1 .24 1.13 3 3 0 0 1-.06.69 1.53 1.53 0 0 1-.51 1 2.16 2.16 0 0 1-1 .5 6.38 6.38 0 0 1-1.32.29 1.36 1.36 0 0 1-1.3-.56 1.88 1.88 0 0 1-.25-1.69 2.28 2.28 0 0 1 1.54-1.63zm0-4.24a3 3 0 0 1 1.21-.08 1.29 1.29 0 0 1 .8.52 3.44 3.44 0 0 1 .24 1.12 3 3 0 0 1-.06.69 1.56 1.56 0 0 1-.51 1 2.69 2.69 0 0 1-1 .51 6.47 6.47 0 0 1-1.28.24 1.32 1.32 0 0 1-1.3-.54 1.85 1.85 0 0 1-.25-1.67 1.9 1.9 0 0 1 .92-1.36 2.27 2.27 0 0 1 .62-.29l.59-.17zm0 12.74a2.81 2.81 0 0 1 1.21-.08 1.24 1.24 0 0 1 .8.53 3.26 3.26 0 0 1 .24 1.1 2.93 2.93 0 0 1-.06.69 1.56 1.56 0 0 1-.51 1 2.47 2.47 0 0 1-1 .51 6.41 6.41 0 0 1-1.32.26 1.32 1.32 0 0 1-1.3-.54 2.27 2.27 0 0 1 .67-3 2.75 2.75 0 0 1 .62-.31zm0-4.24a2.54 2.54 0 0 1 1.21-.09 1.3 1.3 0 0 1 .8.52 3.39 3.39 0 0 1 .24 1.12 3 3 0 0 1-.06.69 1.54 1.54 0 0 1-.51 1 2.58 2.58 0 0 1-1 .5 5.3 5.3 0 0 1-1.32.26A1.32 1.32 0 0 1 34 39a2.29 2.29 0 0 1 .67-3 3.16 3.16 0 0 1 .62-.3zm0 12.74a2.68 2.68 0 0 1 1.21-.1 1.33 1.33 0 0 1 .8.53 3.45 3.45 0 0 1 .24 1.13 3.05 3.05 0 0 1-.06.69 1.56 1.56 0 0 1-.51 1 2.53 2.53 0 0 1-1 .51 8 8 0 0 1-1.32.27 1.39 1.39 0 0 1-1.3-.55 2.29 2.29 0 0 1 .67-3 2 2 0 0 1 .62-.29zm0-4.24a3 3 0 0 1 1.21-.08 1.35 1.35 0 0 1 .8.52 3.44 3.44 0 0 1 .24 1.12 3.09 3.09 0 0 1-.06.7 1.53 1.53 0 0 1-.51 1 2.52 2.52 0 0 1-1 .51 6.49 6.49 0 0 1-1.28.23 1.33 1.33 0 0 1-1.3-.55 1.87 1.87 0 0 1-.25-1.68 1.94 1.94 0 0 1 .92-1.36 3.08 3.08 0 0 1 .62-.29zm0 12.73a2.83 2.83 0 0 1 1.21-.08 1.26 1.26 0 0 1 .8.53 3.27 3.27 0 0 1 .24 1.11 3 3 0 0 1-.06.69 1.59 1.59 0 0 1-.51 1 2.77 2.77 0 0 1-1 .51 8.09 8.09 0 0 1-1.32.26 1.32 1.32 0 0 1-1.3-.54 1.87 1.87 0 0 1-.25-1.68 1.9 1.9 0 0 1 .92-1.36 3.16 3.16 0 0 1 .62-.3zm0-4.25a2.81 2.81 0 0 1 1.21-.08 1.3 1.3 0 0 1 .8.52 3.45 3.45 0 0 1 .24 1.13 3 3 0 0 1-.06.68 1.56 1.56 0 0 1-.51 1 2.76 2.76 0 0 1-1 .51 7 7 0 0 1-1.32.26A1.33 1.33 0 0 1 34 56a1.88 1.88 0 0 1-.25-1.69 1.9 1.9 0 0 1 .92-1.31 2.27 2.27 0 0 1 .62-.29h.09zm0 8.52a3.16 3.16 0 0 1 1.21-.08 1.35 1.35 0 0 1 .8.53 3.39 3.39 0 0 1 .24 1.12 2.93 2.93 0 0 1-.06.69 1.56 1.56 0 0 1-.51 1 2.67 2.67 0 0 1-1 .5 6.63 6.63 0 0 1-1.28.24 1.33 1.33 0 0 1-1.3-.55 1.86 1.86 0 0 1-.25-1.68 1.9 1.9 0 0 1 .92-1.35 2.27 2.27 0 0 1 .62-.29zm2.41-37.95a2.93 2.93 0 0 1 .48-1.58 3 3 0 0 1 .63-.79 2 2 0 0 1 .92-.65 1 1 0 0 1 1 .22 1.46 1.46 0 0 1 .27 1.39 3.91 3.91 0 0 1-.61 1.44 3.29 3.29 0 0 1-1.12 1 1 1 0 0 1-.88.12.76.76 0 0 1-.65-.62 3.05 3.05 0 0 1-.04-.53zm0 4.32a3.07 3.07 0 0 1 .48-1.6 3.27 3.27 0 0 1 .63-.77 1.74 1.74 0 0 1 .92-.66 1 1 0 0 1 1 .22 1.46 1.46 0 0 1 .32 1.44 3.75 3.75 0 0 1-.61 1.45 3.47 3.47 0 0 1-1.12 1 1 1 0 0 1-.88.11.77.77 0 0 1-.65-.62 3 3 0 0 1-.09-.57zm0 4.32a3.07 3.07 0 0 1 .48-1.6 3.32 3.32 0 0 1 .63-.77 1.94 1.94 0 0 1 .92-.67 1 1 0 0 1 1 .22 1.46 1.46 0 0 1 .27 1.39A3.7 3.7 0 0 1 41 31.7a3.33 3.33 0 0 1-1.12 1.06 1 1 0 0 1-.88.11.79.79 0 0 1-.65-.61 3.49 3.49 0 0 1-.04-.57zm0 4.31a3 3 0 0 1 .48-1.6 3.37 3.37 0 0 1 .63-.78 2 2 0 0 1 .92-.66 1 1 0 0 1 1 .22 1.47 1.47 0 0 1 .27 1.39 3.89 3.89 0 0 1-.56 1.43 3.38 3.38 0 0 1-1.12 1 1.09 1.09 0 0 1-.88.11.8.8 0 0 1-.65-.62 3.23 3.23 0 0 1-.09-.49zm0 4.32a3 3 0 0 1 .48-1.59 3.18 3.18 0 0 1 .63-.79 1.9 1.9 0 0 1 .92-.65 1 1 0 0 1 1 .22 1.44 1.44 0 0 1 .27 1.38 3.8 3.8 0 0 1-.61 1.46 3.48 3.48 0 0 1-1.12 1 1.05 1.05 0 0 1-.88.11.77.77 0 0 1-.65-.61 3.33 3.33 0 0 1-.04-.53zm0 4.31a3 3 0 0 1 .48-1.63 3.17 3.17 0 0 1 .63-.78 2 2 0 0 1 .92-.66 1 1 0 0 1 1 .22 1.46 1.46 0 0 1 .27 1.39 3.89 3.89 0 0 1-.61 1.45 3.36 3.36 0 0 1-1.12 1 1 1 0 0 1-.88.12.78.78 0 0 1-.65-.63 3.09 3.09 0 0 1-.04-.48zm0 4.31a3 3 0 0 1 .48-1.58 3 3 0 0 1 .63-.78 1.94 1.94 0 0 1 .92-.66 1 1 0 0 1 1 .22 1.46 1.46 0 0 1 .27 1.39 3.65 3.65 0 0 1-.56 1.47 3.3 3.3 0 0 1-1.12 1 1 1 0 0 1-.88.11.77.77 0 0 1-.65-.62 3.05 3.05 0 0 1-.09-.55zm0 4.32a3 3 0 0 1 .48-1.59 3.13 3.13 0 0 1 .63-.78 2 2 0 0 1 .92-.66 1 1 0 0 1 1 .22 1.46 1.46 0 0 1 .27 1.39 3.82 3.82 0 0 1-.61 1.45 3.37 3.37 0 0 1-1.12 1 1 1 0 0 1-.88.11.76.76 0 0 1-.65-.6 3.29 3.29 0 0 1-.04-.54zm0 4.31a3 3 0 0 1 .48-1.57 2.94 2.94 0 0 1 .63-.76 1.89 1.89 0 0 1 .92-.67 1 1 0 0 1 1 .21 1.48 1.48 0 0 1 .27 1.4 3.84 3.84 0 0 1-.61 1.44 3.49 3.49 0 0 1-1.12 1 1.05 1.05 0 0 1-.88.12.81.81 0 0 1-.65-.62 3.43 3.43 0 0 1-.04-.55zm.04 4.1a3 3 0 0 1 .48-1.59 3.92 3.92 0 0 1 .63-.78 2.06 2.06 0 0 1 .92-.67 1 1 0 0 1 1.06.23 1.47 1.47 0 0 1 .26 1.39 3.8 3.8 0 0 1-1.7 2.49 1 1 0 0 1-.89.11.75.75 0 0 1-.64-.61 3.11 3.11 0 0 1-.12-.57zm4.09-36.62c.16-.05.18 0 .19 0a1.93 1.93 0 0 1 .13.6 8.26 8.26 0 0 1 0 1.4c0 .54-.14 1.07-.2 1.55s-.21.55-.39.61c0 0-.1 0-.23-.06a.72.72 0 0 1-.26-.68c.14-.63.24-1.22.32-1.67s.09-1.07.17-1.49a.33.33 0 0 1 .27-.26zm-.01 4.4c.16-.05.18 0 .19 0a2.27 2.27 0 0 1 .12.59 7.41 7.41 0 0 1 0 1.4c0 .52-.14 1.05-.2 1.56a.64.64 0 0 1-.39.61.27.27 0 0 1-.24-.07.68.68 0 0 1-.25-.67c.14-.64.23-1.21.31-1.67s.1-1.07.17-1.5a.37.37 0 0 1 .29-.25zm.06 4.15c.16-.06.18 0 .2 0a2.07 2.07 0 0 1 .12.6 7.36 7.36 0 0 1 0 1.4c0 .54-.14 1.07-.2 1.54s-.2.56-.39.63c0 0-.09 0-.22-.07a.67.67 0 0 1-.26-.67c.13-.64.23-1.21.31-1.69s.1-1 .17-1.47a.36.36 0 0 1 .27-.27zm-.03 4.4c.15-.06.17 0 .19 0a2.47 2.47 0 0 1 .12.61 8.31 8.31 0 0 1 0 1.4c0 .52-.15 1-.21 1.54s-.2.54-.38.61-.12 0-.24-.06a.66.66 0 0 1-.25-.67c.13-.63.22-1.19.31-1.68s.1-1 .17-1.48a.36.36 0 0 1 .29-.27zm0 4.14h.19a2.69 2.69 0 0 1 .12.62 8.31 8.31 0 0 1 0 1.4c0 .52-.15 1-.21 1.54s-.2.55-.38.62a.25.25 0 0 1-.24-.06.69.69 0 0 1-.25-.68c.13-.64.22-1.2.31-1.68s.1-1.06.17-1.48a.38.38 0 0 1 .29-.28zm0 4.4h.19a2.27 2.27 0 0 1 .12.6 8.29 8.29 0 0 1 0 1.4c0 .53-.15 1.06-.21 1.54s-.2.55-.38.61-.12 0-.24-.06a.66.66 0 0 1-.25-.66c.13-.65.22-1.21.31-1.68s.1-1.06.17-1.49a.37.37 0 0 1 .29-.26zm0 4.31c.15-.05.17 0 .19 0a2.37 2.37 0 0 1 .12.6 8.29 8.29 0 0 1 0 1.4c0 .52-.15 1-.21 1.54s-.2.55-.38.62-.12 0-.24-.07a.68.68 0 0 1-.25-.68c.13-.62.22-1.2.31-1.66s.1-1.07.17-1.49a.36.36 0 0 1 .29-.26zm0 4.27h.19a2.27 2.27 0 0 1 .12.6 8.41 8.41 0 0 1 0 1.41c0 .51-.15 1.05-.21 1.54s-.2.54-.38.6-.12 0-.24 0a.68.68 0 0 1-.25-.68c.13-.64.22-1.2.31-1.68s.1-1 .17-1.48a.36.36 0 0 1 .29-.31zm-4.15-36.25a3 3 0 0 1 .48-1.59 3.6 3.6 0 0 1 .63-.78 1.94 1.94 0 0 1 .92-.66 1 1 0 0 1 1 .23 1.44 1.44 0 0 1 .27 1.38 3.7 3.7 0 0 1-.61 1.44A3.44 3.44 0 0 1 39.93 20a1 1 0 0 1-.88.11.77.77 0 0 1-.65-.61 3.29 3.29 0 0 1-.09-.63zm-9.09-9.74a1.29 1.29 0 0 1-.52.84 8.09 8.09 0 0 1-3.22 1.6c-.33.06-.72-.34-.89-.66a4.12 4.12 0 0 1-.19-3.12c.22-.57.66-1.14 1.08-1a7.7 7.7 0 0 1 3.23 1.6c.4.36.51.47.51.74zm5.66 4.14a1.3 1.3 0 0 1 .95.25 8.16 8.16 0 0 1 2.48 2.64c.15.29-.1.8-.35 1.06a4 4 0 0 1-2.87 1.13c-.61-.05-1.26-.3-1.3-.73a8.35 8.35 0 0 1 .52-3.62c.26-.51.32-.64.57-.73zm-2.68.04a1.36 1.36 0 0 1 .63.76 8.45 8.45 0 0 1 .5 3.6c0 .33-.54.6-.9.67a4.08 4.08 0 0 1-3-.79c-.46-.39-.84-1-.64-1.36a8.19 8.19 0 0 1 2.5-2.62c.52-.28.71-.34.91-.26zm-1.99-1.73a1.37 1.37 0 0 1 .06 1 8.45 8.45 0 0 1-1.69 3.22c-.23.23-.79.15-1.12 0a4.16 4.16 0 0 1-1.94-2.43c-.14-.6-.11-1.31.28-1.48a8.1 8.1 0 0 1 3.54-.61c.55.06.71.08.87.3zm7.63-2.42a1.35 1.35 0 0 1 .54-.84 8.34 8.34 0 0 1 3.25-1.54c.32-.07.71.35.89.68a4.19 4.19 0 0 1 .12 3.12c-.23.58-.68 1.12-1.09 1A8.19 8.19 0 0 1 38.34 10c-.34-.46-.5-.58-.5-.84zM34.92 5.1a1.29 1.29 0 0 1-.63-.76 8.44 8.44 0 0 1-.48-3.62c0-.33.55-.58.9-.65a3.91 3.91 0 0 1 3 .81c.46.38.85 1 .63 1.36a8.15 8.15 0 0 1-2.54 2.61c-.5.25-.63.33-.88.25zm-2.62-.01a1.34 1.34 0 0 1-.95-.22 8.63 8.63 0 0 1-2.51-2.61c-.16-.29.09-.81.34-1.08A4 4 0 0 1 32 0c.61 0 1.27.28 1.31.71a8.46 8.46 0 0 1-.48 3.62c-.21.54-.28.67-.53.76zm4.7 1.5a1.37 1.37 0 0 1 0-1 8.29 8.29 0 0 1 1.73-3.19c.22-.24.77-.15 1.1 0a4 4 0 0 1 1.92 2.44c.15.59.11 1.31-.28 1.48a7.77 7.77 0 0 1-3.55.59c-.56-.07-.72-.09-.92-.32zm0 5.07a1.32 1.32 0 0 1 .91-.35 8 8 0 0 1 3.54.66c.3.15.37.71.33 1.07a4.13 4.13 0 0 1-1.69 2.62c-.51.32-1.2.5-1.47.18A8 8 0 0 1 37 12.6c-.1-.6-.12-.71 0-.94zm-6.9-5.07a1.34 1.34 0 0 1-.91.38 8.25 8.25 0 0 1-3.54-.62c-.3-.15-.39-.72-.34-1.08A4.1 4.1 0 0 1 27 2.64c.51-.34 1.19-.52 1.47-.21a8.14 8.14 0 0 1 1.7 3.23c.05.55.08.72-.07.93z" class="cls-1"></path>
  <path d="M33.61 13.2a4.06 4.06 0 1 0-4-4 4 4 0 0 0 4 4zm64.51 47.21c-4.79 2.86-10.45 3.73-16 3.73-7.12 0-14.46-1.63-19.82-6.37s-7.8-11.46-7.8-18.4c0-15.51 13-23.27 27.9-23.27a49.25 49.25 0 0 1 15.9 2.5c.56.2 1.33.34 1.12 1.34a96.52 96.52 0 0 0-1.12 10.39h-2.7a53.86 53.86 0 0 0-.42-5.8c-3.35-3.44-7.75-4.65-12.5-4.65a17.83 17.83 0 0 0-13.55 5.66C66 29 65 34 65 38.49c0 5.66 1.47 11.12 5.52 15.36 4.27 4.45 8.88 5.88 15 5.88a30.4 30.4 0 0 0 13.32-3.45l.83.82zM116.08 25c-.08-4.87-.36-5.41-6-5.27v-2.87c4.61.2 8.18.36 10.9.36s6.22-.16 10.83-.36v2.91c-5.66-.2-5.94.34-5.94 5.21v30.3c0 4.86.28 5.41 5.94 5.2v2.92c-4.61-.22-8.1-.37-10.83-.37s-6.29.15-10.9.37v-2.85c5.59.14 5.87-.41 6-5.27zm76.19 1.06l-7.55 14.74-10.26 21.38-.77 1.55h-2.37c-.14-.61-1.6-3.72-2.51-5.61L152.74 26v29.28c0 4.86.28 5.41 5.93 5.2v2.92c-3.27-.22-5.86-.37-7.87-.37s-4.66.15-8.09.37v-2.92c5.66.21 5.94-.34 5.94-5.2V25c0-4.87-.28-5.41-5.94-5.21v-2.93c4.12.2 6.7.36 8.71.36s4.6-.16 8-.36c1.25 2.91 3.63 8.05 5.24 11l11 22.32c1.12-2 2.11-3.92 3.08-6 5.1-10.55 11.24-23.13 13.12-27.39 3.42.2 6 .36 8 .36s4.62-.16 8.11-.36v2.91c-5.66-.2-5.94.34-5.94 5.21v30.3c0 4.86.28 5.41 5.94 5.2v2.99c-4.61-.22-8.11-.37-10.84-.37s-6.29.15-10.89.37v-2.85c5.58.14 5.86-.41 5.94-5.27zm75.73 0l-7.54 14.74-10.26 21.38-.78 1.55h-2.37c-.14-.61-1.6-3.72-2.51-5.61L228.47 26v29.28c0 4.86.29 5.41 5.94 5.2v2.92c-3.28-.22-5.87-.37-7.87-.37s-4.67.15-8.09.37v-2.92c5.65.21 5.94-.34 5.94-5.2V25c0-4.87-.29-5.41-5.94-5.21v-2.93c4.11.2 6.69.36 8.7.36s4.61-.16 8-.36c1.25 2.91 3.62 8.05 5.23 11l11 22.32c1.11-2 2.1-3.92 3.07-6 5.1-10.55 11.25-23.13 13.12-27.39 3.43.2 6 .36 8 .36s4.62-.16 8.1-.36v2.91c-5.65-.2-5.92.34-5.92 5.21v30.3c0 4.86.27 5.41 5.92 5.2v2.99c-4.6-.22-8.1-.37-10.82-.37s-6.29.15-10.89.37v-2.85c5.57.14 5.86-.41 5.93-5.27zM319.36 39c5.51-8.8 10.42-16.22 13.14-21.78h5.37v1.3L335 22.39l-7.4 10.94-3.14 4.87-2.17 4.3a7.85 7.85 0 0 0-.42 3.19v9.59c0 4.86.28 5.41 5.94 5.2v2.92c-4.61-.22-8.1-.37-10.83-.37s-6.28.15-10.9.37v-2.85c5.6.14 5.88-.41 5.94-5.27v-8.51a9.58 9.58 0 0 0-.62-3.59c-.7-1.56-1.62-2.9-2.46-4.39l-7.05-11a54.5 54.5 0 0 0-3.64-4.52A7.24 7.24 0 0 0 292.8 21v-2.5l11.13-2.42c3.83 2.08 5.93 5.59 8 9.16zm53.22 16.27c0 4.87.28 5.42 5.95 5.21v2.92c-4.62-.22-8.12-.37-10.85-.37s-6.29.15-10.9.37v-2.85c5.6.14 5.88-.41 6-5.28V21.38h-10.33a3.45 3.45 0 0 0-3.14 2.16c-.14 1.15-.21 2.85-.35 4.54h-2.8c.15-3.31-.27-7.63-.2-11.22 9.29.2 16.34.37 21.87.37s12.45-.17 22-.37c-.21 3-.57 7.16-.92 11.22h-2.69a19.3 19.3 0 0 0-.14-2.84c-.49-3.38.2-3.79-3.65-3.86h-9.88zm11.73 8.4v-9.38h1.81l2.18 6.63c.21.62.35 1.08.44 1.38l.49-1.5 2.24-6.51h1.59v9.38h-1.17v-7.86l-2.68 7.86h-1.08l-2.66-8v8zm11.99-5.26h2.61a3.69 3.69 0 0 0 1.29-.18 1.38 1.38 0 0 0 .71-.56 1.51 1.51 0 0 0 .24-.82 1.46 1.46 0 0 0-.46-1.1 2.21 2.21 0 0 0-1.49-.42h-2.9zm-1.22 5.26v-9.38h4.08a5.46 5.46 0 0 1 1.86.26 2 2 0 0 1 1 .89 2.76 2.76 0 0 1 .38 1.41 2.43 2.43 0 0 1-.63 1.69 3.2 3.2 0 0 1-2 .86 3.32 3.32 0 0 1 .73.46 6.25 6.25 0 0 1 1 1.25l1.59 2.56h-1.52l-1.21-2c-.36-.58-.65-1-.87-1.29a2.74 2.74 0 0 0-.62-.62 1.67 1.67 0 0 0-.56-.26 3.69 3.69 0 0 0-.67 0h-1.34v4.16zM1.92 77v12.49H.26V77zm3.96 3.44v1.44a3.13 3.13 0 0 1 2.94-1.65 4 4 0 0 1 1.49.25 2.43 2.43 0 0 1 1 .68 2.49 2.49 0 0 1 .52 1 5.61 5.61 0 0 1 .17 1.38v5.95h-1.52v-6.12a1.69 1.69 0 0 0-1.84-1.82 3 3 0 0 0-1.18.21 2.28 2.28 0 0 0-.83.59 2.64 2.64 0 0 0-.5.9A3.72 3.72 0 0 0 6 84.38v5.11H4.48v-9zm12.19 0v1.32h-1.8v5.62a2.3 2.3 0 0 0 0 .42.46.46 0 0 0 .17.24.65.65 0 0 0 .34.11 4.45 4.45 0 0 0 .57 0h.68v1.31h-1.09a4.71 4.71 0 0 1-1-.08 1.53 1.53 0 0 1-.67-.28 1.26 1.26 0 0 1-.37-.6 3.2 3.2 0 0 1-.13-1v-5.74h-1.53v-1.32h1.54v-2.71h1.49v2.71zm8.05 8.48a4.11 4.11 0 0 1-2.55.76 4.68 4.68 0 0 1-1.88-.34 3.81 3.81 0 0 1-1.34-1 4.35 4.35 0 0 1-.82-1.5 7.14 7.14 0 0 1-.3-1.91 5.43 5.43 0 0 1 .31-1.89 4.55 4.55 0 0 1 .89-1.49 4.09 4.09 0 0 1 3.05-1.33 3.71 3.71 0 0 1 2 .5A4 4 0 0 1 26.76 82a5.33 5.33 0 0 1 .67 1.68 7.59 7.59 0 0 1 .15 1.74H20.8a3.74 3.74 0 0 0 .14 1.12 2.64 2.64 0 0 0 .51.95 2.48 2.48 0 0 0 .89.65 3 3 0 0 0 1.28.25 2.59 2.59 0 0 0 1.55-.39 2.12 2.12 0 0 0 .8-1.33h1.47a3.64 3.64 0 0 1-1.32 2.25zm-.36-5.82a2.5 2.5 0 0 0-.54-.81 2.52 2.52 0 0 0-1.83-.74 2.51 2.51 0 0 0-1 .2 2.34 2.34 0 0 0-.79.55 2.47 2.47 0 0 0-.53.81 3.25 3.25 0 0 0-.23 1H26a2.87 2.87 0 0 0-.24-1.01zm4.7-2.66v1.91a4 4 0 0 1 1.33-1.63 3.42 3.42 0 0 1 2-.49v1.58a4.29 4.29 0 0 0-1.52.24 2.45 2.45 0 0 0-1 .72 2.88 2.88 0 0 0-.56 1.15 6 6 0 0 0-.18 1.55v4h-1.47v-9zm6.2 0v1.44a3.13 3.13 0 0 1 2.94-1.65 4 4 0 0 1 1.49.25 2.36 2.36 0 0 1 1 .68 2.49 2.49 0 0 1 .52 1 5.61 5.61 0 0 1 .15 1.34v5.95h-1.5v-6.08a1.77 1.77 0 0 0-.49-1.37 1.82 1.82 0 0 0-1.35-.49 3 3 0 0 0-1.18.21 2.28 2.28 0 0 0-.83.59 2.64 2.64 0 0 0-.5.9 3.72 3.72 0 0 0-.16 1.13v5.11h-1.49v-9zm15.27 9.24a1.23 1.23 0 0 1-.91-.32 1.39 1.39 0 0 1-.34-1.06 3.55 3.55 0 0 1-1.43 1.06 4.63 4.63 0 0 1-1.76.32 4.85 4.85 0 0 1-1.16-.13 2.57 2.57 0 0 1-.95-.43 2.28 2.28 0 0 1-.65-.79 2.73 2.73 0 0 1-.23-1.16 2.63 2.63 0 0 1 .26-1.27 2.3 2.3 0 0 1 .69-.79 3.18 3.18 0 0 1 1-.47c.37-.1.75-.19 1.13-.26s.8-.14 1.16-.18a6.14 6.14 0 0 0 1-.18 1.52 1.52 0 0 0 .66-.33.82.82 0 0 0 .24-.64 1.54 1.54 0 0 0-.18-.79 1.35 1.35 0 0 0-.47-.45 2.16 2.16 0 0 0-.65-.21 4.24 4.24 0 0 0-.71 0 3.12 3.12 0 0 0-1.57.36 1.53 1.53 0 0 0-.69 1.35h-1.52a3.12 3.12 0 0 1 .35-1.41 2.63 2.63 0 0 1 .84-.94 3.58 3.58 0 0 1 1.21-.52 6.59 6.59 0 0 1 1.43-.16 8.35 8.35 0 0 1 1.22.09 3.26 3.26 0 0 1 1.09.36 2.13 2.13 0 0 1 .79.76 2.43 2.43 0 0 1 .3 1.28v4.66a3.49 3.49 0 0 0 .06.76c0 .17.17.25.41.25a1.38 1.38 0 0 0 .45-.14v1.16a2.11 2.11 0 0 1-1.07.22zm-2.08-4.55c-.3.06-.62.11-1 .15l-1 .14a3.89 3.89 0 0 0-.91.26 1.54 1.54 0 0 0-.65.5 1.38 1.38 0 0 0-.26.88 1.21 1.21 0 0 0 .15.62 1.18 1.18 0 0 0 .39.41 1.5 1.5 0 0 0 .56.23 2.81 2.81 0 0 0 .65.07 3.62 3.62 0 0 0 1.26-.2 2.65 2.65 0 0 0 .86-.51 1.89 1.89 0 0 0 .49-.66 1.64 1.64 0 0 0 .16-.68v-1.52a1.94 1.94 0 0 1-.7.31zm8.4-4.69v1.32h-1.8v5.62a1.66 1.66 0 0 0 0 .42.46.46 0 0 0 .17.24.65.65 0 0 0 .34.11 4.45 4.45 0 0 0 .57 0h.68v1.31h-1.09a4.71 4.71 0 0 1-1-.08 1.53 1.53 0 0 1-.67-.28 1.35 1.35 0 0 1-.38-.6 3.56 3.56 0 0 1-.12-1v-5.74h-1.53v-1.32H55v-2.71h1.49v2.71zM60 78.82V77h1.49v1.82zm1.49 1.62v9H60v-9zm2.08 2.67a4.32 4.32 0 0 1 .84-1.5 4.11 4.11 0 0 1 1.38-1 4.68 4.68 0 0 1 1.89-.37 4.63 4.63 0 0 1 1.9.37 4 4 0 0 1 1.38 1 4.32 4.32 0 0 1 .84 1.5 6.26 6.26 0 0 1 .28 1.89 6.13 6.13 0 0 1-.28 1.85 4.41 4.41 0 0 1-.84 1.5 3.86 3.86 0 0 1-1.38 1 4.81 4.81 0 0 1-1.9.35 4.86 4.86 0 0 1-1.89-.35 4 4 0 0 1-1.38-1 4.41 4.41 0 0 1-.84-1.5 6.13 6.13 0 0 1-.28-1.85 6.26 6.26 0 0 1 .28-1.89zm1.52 3.33a3 3 0 0 0 .6 1.07 2.73 2.73 0 0 0 .9.65 2.7 2.7 0 0 0 1.09.23 2.68 2.68 0 0 0 2-.88 3 3 0 0 0 .6-1.07 5 5 0 0 0 0-2.92 3 3 0 0 0-.6-1.08 2.79 2.79 0 0 0-.9-.67 2.74 2.74 0 0 0-1.1-.22 2.69 2.69 0 0 0-1.09.22 2.79 2.79 0 0 0-.9.67 3 3 0 0 0-.6 1.08 5 5 0 0 0 0 2.92zm10.14-6v1.44a3.13 3.13 0 0 1 2.94-1.65 4 4 0 0 1 1.49.25 2.36 2.36 0 0 1 1 .68 2.49 2.49 0 0 1 .52 1 5.61 5.61 0 0 1 .15 1.34v5.95h-1.5v-6.08a1.77 1.77 0 0 0-.49-1.37 1.82 1.82 0 0 0-1.34-.45 3 3 0 0 0-1.18.21 2.28 2.28 0 0 0-.83.59 2.64 2.64 0 0 0-.5.9 3.72 3.72 0 0 0-.17 1.13v5.11h-1.49v-9zm15.27 9.24a1.23 1.23 0 0 1-.91-.32 1.39 1.39 0 0 1-.35-1.06 3.45 3.45 0 0 1-1.42 1.06 4.63 4.63 0 0 1-1.76.32 4.85 4.85 0 0 1-1.16-.13 2.5 2.5 0 0 1-1-.43 2.28 2.28 0 0 1-.65-.79 2.73 2.73 0 0 1-.23-1.16 2.63 2.63 0 0 1 .26-1.27 2.2 2.2 0 0 1 .69-.79 3.18 3.18 0 0 1 1-.47c.37-.1.74-.19 1.13-.26s.8-.14 1.16-.18a5.81 5.81 0 0 0 1-.18 1.51 1.51 0 0 0 .67-.33.82.82 0 0 0 .24-.64 1.54 1.54 0 0 0-.18-.79 1.35 1.35 0 0 0-.47-.45 2.16 2.16 0 0 0-.65-.21 4.31 4.31 0 0 0-.71 0 3.12 3.12 0 0 0-1.57.36 1.53 1.53 0 0 0-.69 1.35h-1.48a3.12 3.12 0 0 1 .35-1.41 2.63 2.63 0 0 1 .84-.94 3.61 3.61 0 0 1 1.2-.52 6.76 6.76 0 0 1 1.44-.16 8.35 8.35 0 0 1 1.22.09 3.26 3.26 0 0 1 1.09.36 2.13 2.13 0 0 1 .79.76 2.43 2.43 0 0 1 .29 1.28v4.66a2.86 2.86 0 0 0 .07.76c0 .17.17.25.41.25a1.38 1.38 0 0 0 .45-.09v1.16a2.11 2.11 0 0 1-1.07.17zm-2.08-4.55c-.3.06-.62.11-1 .15l-1 .14a3.89 3.89 0 0 0-.91.26 1.48 1.48 0 0 0-.65.5 1.38 1.38 0 0 0-.26.88 1.21 1.21 0 0 0 .15.62 1.18 1.18 0 0 0 .39.41 1.5 1.5 0 0 0 .56.23 2.81 2.81 0 0 0 .65.07 3.62 3.62 0 0 0 1.26-.2 2.65 2.65 0 0 0 .86-.51A2 2 0 0 0 89 87a1.81 1.81 0 0 0 .16-.68v-1.5a2 2 0 0 1-.74.31zM94.53 77v12.49H93V77zm9.73 0l3.94 10.5 4-10.5h2.28v12.49h-1.58V79.1l-3.91 10.39h-1.49l-3.91-10.39v10.39H102V77zm19.63 12.68a1.28 1.28 0 0 1-.92-.32 1.43 1.43 0 0 1-.34-1.06 3.52 3.52 0 0 1-1.42 1.06 4.66 4.66 0 0 1-1.76.32 4.85 4.85 0 0 1-1.16-.13 2.5 2.5 0 0 1-1-.43 2.28 2.28 0 0 1-.65-.79 2.73 2.73 0 0 1-.23-1.16 2.63 2.63 0 0 1 .26-1.27 2.2 2.2 0 0 1 .69-.79 3.18 3.18 0 0 1 1-.47c.37-.1.74-.19 1.13-.26s.79-.14 1.16-.18a5.81 5.81 0 0 0 1-.18 1.51 1.51 0 0 0 .67-.33.82.82 0 0 0 .24-.64 1.54 1.54 0 0 0-.18-.79 1.35 1.35 0 0 0-.47-.45 2.25 2.25 0 0 0-.65-.21 4.31 4.31 0 0 0-.71 0 3.12 3.12 0 0 0-1.57.36 1.53 1.53 0 0 0-.69 1.35h-1.48a3.12 3.12 0 0 1 .35-1.41 2.63 2.63 0 0 1 .84-.94 3.61 3.61 0 0 1 1.2-.52 6.76 6.76 0 0 1 1.44-.16 8.11 8.11 0 0 1 1.21.09 3.24 3.24 0 0 1 1.1.36 2.13 2.13 0 0 1 .79.76 2.53 2.53 0 0 1 .29 1.28v4.66a3.49 3.49 0 0 0 .06.76c0 .17.18.25.42.25a1.43 1.43 0 0 0 .45-.09v1.16a2.13 2.13 0 0 1-1.07.17zm-2.08-4.55c-.3.06-.62.11-1 .15l-1 .14a3.89 3.89 0 0 0-.91.26 1.48 1.48 0 0 0-.65.5 1.38 1.38 0 0 0-.26.88 1.21 1.21 0 0 0 .15.62 1.25 1.25 0 0 0 .38.41 1.65 1.65 0 0 0 .56.23 3 3 0 0 0 .66.07 3.62 3.62 0 0 0 1.26-.2 2.65 2.65 0 0 0 .86-.51 2 2 0 0 0 .49-.66 1.81 1.81 0 0 0 .16-.68v-1.52a2 2 0 0 1-.7.31zm4.62-6.31V77h1.49v1.82zm1.49 1.62v9h-1.49v-9zm7.08 1.32h-5.11v-1.32h7v1l-5.53 6.72h5.77v1.31h-7.63v-1.12zm10 7.16a4.11 4.11 0 0 1-2.55.76 4.68 4.68 0 0 1-1.88-.34 3.81 3.81 0 0 1-1.34-1 4.19 4.19 0 0 1-.82-1.5 7.14 7.14 0 0 1-.3-1.91 5.43 5.43 0 0 1 .31-1.89 4.55 4.55 0 0 1 .89-1.49 3.91 3.91 0 0 1 1.34-1 4 4 0 0 1 1.71-.36 3.71 3.71 0 0 1 2 .5 4.08 4.08 0 0 1 1.31 1.31 5.33 5.33 0 0 1 .67 1.68 7.59 7.59 0 0 1 .15 1.74h-6.78a3.74 3.74 0 0 0 .14 1.12 2.64 2.64 0 0 0 .51.95 2.48 2.48 0 0 0 .89.65 3 3 0 0 0 1.28.25 2.59 2.59 0 0 0 1.55-.44 2.12 2.12 0 0 0 .8-1.33h1.47a3.64 3.64 0 0 1-1.35 2.3zm-.36-5.82a2.5 2.5 0 0 0-.54-.81 2.52 2.52 0 0 0-1.83-.74 2.51 2.51 0 0 0-1 .2 2.34 2.34 0 0 0-.79.55 2.47 2.47 0 0 0-.53.81 3.25 3.25 0 0 0-.23 1h5.2a2.87 2.87 0 0 0-.25-1.01zm15.2 6.58a1.26 1.26 0 0 1-.92-.32 1.39 1.39 0 0 1-.34-1.06 3.55 3.55 0 0 1-1.43 1.06 4.63 4.63 0 0 1-1.76.32 4.71 4.71 0 0 1-1.15-.13 2.62 2.62 0 0 1-1-.43 2.15 2.15 0 0 1-.64-.79 2.58 2.58 0 0 1-.24-1.16 2.75 2.75 0 0 1 .26-1.27 2.41 2.41 0 0 1 .69-.79 3.29 3.29 0 0 1 1-.47c.37-.1.75-.19 1.13-.26s.8-.14 1.17-.18a6 6 0 0 0 1-.18 1.47 1.47 0 0 0 .66-.33.79.79 0 0 0 .25-.64 1.45 1.45 0 0 0-.19-.79 1.35 1.35 0 0 0-.47-.45 2.16 2.16 0 0 0-.65-.21 4.2 4.2 0 0 0-.7 0 3.16 3.16 0 0 0-1.58.36 1.51 1.51 0 0 0-.68 1.35h-1.49a3.12 3.12 0 0 1 .35-1.41 2.63 2.63 0 0 1 .84-.94 3.58 3.58 0 0 1 1.21-.52 6.59 6.59 0 0 1 1.43-.16 8.25 8.25 0 0 1 1.22.09 3.18 3.18 0 0 1 1.09.36 2.13 2.13 0 0 1 .79.76 2.43 2.43 0 0 1 .3 1.28v4.66a3.49 3.49 0 0 0 .06.76c0 .17.18.25.41.25a1.48 1.48 0 0 0 .46-.09v1.16a2.16 2.16 0 0 1-1.08.17zm-2.08-4.55q-.47.09-1 .15l-1 .14a3.75 3.75 0 0 0-.91.26 1.57 1.57 0 0 0-.66.5 1.38 1.38 0 0 0-.25.88 1.21 1.21 0 0 0 .14.62 1.18 1.18 0 0 0 .39.41 1.57 1.57 0 0 0 .56.23 2.9 2.9 0 0 0 .66.07 3.62 3.62 0 0 0 1.26-.2 2.6 2.6 0 0 0 .85-.51 1.89 1.89 0 0 0 .49-.66 1.64 1.64 0 0 0 .16-.68v-1.52a2 2 0 0 1-.69.31zm5.93-4.69v1.44a3.13 3.13 0 0 1 2.94-1.65 4 4 0 0 1 1.49.25 2.36 2.36 0 0 1 1 .68 2.49 2.49 0 0 1 .52 1 5.61 5.61 0 0 1 .15 1.34v5.95h-1.49v-6.08a1.77 1.77 0 0 0-.5-1.37 1.82 1.82 0 0 0-1.35-.49 3 3 0 0 0-1.18.21 2.28 2.28 0 0 0-.83.59 2.64 2.64 0 0 0-.5.9 3.72 3.72 0 0 0-.17 1.13v5.11h-1.48v-9zm14.92 9.05v-1.22a2.19 2.19 0 0 1-1.16 1.08 4.41 4.41 0 0 1-1.73.33 4 4 0 0 1-1.83-.38 3.75 3.75 0 0 1-1.29-1 4.34 4.34 0 0 1-.78-1.51 6 6 0 0 1-.26-1.82 6.35 6.35 0 0 1 .25-1.82 4.3 4.3 0 0 1 .77-1.49 3.65 3.65 0 0 1 1.3-1 4.12 4.12 0 0 1 1.81-.38 5.23 5.23 0 0 1 .75.07 3.86 3.86 0 0 1 .8.24 3.48 3.48 0 0 1 .76.41 2.28 2.28 0 0 1 .6.67V77h1.49v12.49zm-5.34-3.21a3.36 3.36 0 0 0 .51 1.08 2.53 2.53 0 0 0 .87.75 2.62 2.62 0 0 0 1.25.28 2.55 2.55 0 0 0 1.28-.3 2.48 2.48 0 0 0 .86-.78 3.26 3.26 0 0 0 .48-1.09 5.19 5.19 0 0 0 .15-1.24 5.49 5.49 0 0 0-.16-1.29 3.21 3.21 0 0 0-.5-1.09 2.49 2.49 0 0 0-.88-.76 2.68 2.68 0 0 0-1.32-.29 2.51 2.51 0 0 0-1.27.3 2.33 2.33 0 0 0-.84.78 3.62 3.62 0 0 0-.46 1.12 6.16 6.16 0 0 0-.14 1.3 4.62 4.62 0 0 0 .17 1.23zm23.79 3.21L194.21 79l-2.89 10.5h-1.73L186.35 77h1.7l2.45 10.39L193.33 77h1.81l2.76 10.39L200.47 77h1.67l-3.35 12.49zM205 77v4.77a1.93 1.93 0 0 1 .49-.7 2.69 2.69 0 0 1 .71-.48 3.76 3.76 0 0 1 .82-.27 4 4 0 0 1 .83-.09 4 4 0 0 1 1.49.25 2.43 2.43 0 0 1 1 .68 2.49 2.49 0 0 1 .52 1 5.61 5.61 0 0 1 .15 1.34v5.95h-1.49v-6.08a1.69 1.69 0 0 0-1.84-1.82 3 3 0 0 0-1.18.21 2.28 2.28 0 0 0-.83.59 2.64 2.64 0 0 0-.5.9 3.72 3.72 0 0 0-.17 1.13v5.11h-1.48V77zm14.6 11.92a4.13 4.13 0 0 1-2.55.76 4.73 4.73 0 0 1-1.89-.34 3.77 3.77 0 0 1-1.33-1 4 4 0 0 1-.82-1.5 7.14 7.14 0 0 1-.3-1.91 5.43 5.43 0 0 1 .31-1.89 4.52 4.52 0 0 1 .88-1.49 4 4 0 0 1 1.35-1 4 4 0 0 1 1.71-.36 3.73 3.73 0 0 1 2 .5 4.08 4.08 0 0 1 1.28 1.31 5.08 5.08 0 0 1 .66 1.68 6.61 6.61 0 0 1 .15 1.74h-6.77a3.74 3.74 0 0 0 .14 1.12 2.46 2.46 0 0 0 1.4 1.6 3 3 0 0 0 1.28.25 2.61 2.61 0 0 0 1.55-.44 2.11 2.11 0 0 0 .79-1.33h1.47a3.63 3.63 0 0 1-1.31 2.3zm-.36-5.82a2.48 2.48 0 0 0-1.35-1.35 2.41 2.41 0 0 0-1-.2 2.51 2.51 0 0 0-1 .2 2.38 2.38 0 0 0-.8.55 2.62 2.62 0 0 0-.52.81 3 3 0 0 0-.23 1h5.2a3.11 3.11 0 0 0-.3-1.01zm10.3 6.58a1.26 1.26 0 0 1-.92-.32 1.39 1.39 0 0 1-.34-1.06 3.48 3.48 0 0 1-1.43 1.06 4.63 4.63 0 0 1-1.76.32 4.77 4.77 0 0 1-1.15-.13 2.5 2.5 0 0 1-.95-.43 2.18 2.18 0 0 1-.65-.79 2.58 2.58 0 0 1-.24-1.16 2.75 2.75 0 0 1 .26-1.27 2.32 2.32 0 0 1 .7-.79 3.07 3.07 0 0 1 1-.47c.36-.1.74-.19 1.12-.26s.8-.14 1.17-.18a5.81 5.81 0 0 0 1-.18 1.47 1.47 0 0 0 .66-.33.79.79 0 0 0 .25-.64 1.54 1.54 0 0 0-.18-.79 1.38 1.38 0 0 0-.48-.45 2.19 2.19 0 0 0-.64-.21 4.31 4.31 0 0 0-.71 0 3.16 3.16 0 0 0-1.58.36 1.51 1.51 0 0 0-.68 1.35h-1.49a3.12 3.12 0 0 1 .35-1.41 2.63 2.63 0 0 1 .84-.94 3.58 3.58 0 0 1 1.21-.52 6.59 6.59 0 0 1 1.43-.16 8.25 8.25 0 0 1 1.22.09 3.18 3.18 0 0 1 1.09.36 2.13 2.13 0 0 1 .79.76 2.43 2.43 0 0 1 .3 1.28v4.66a3.49 3.49 0 0 0 .06.76c0 .17.18.25.41.25a1.48 1.48 0 0 0 .46-.09v1.16a2.16 2.16 0 0 1-1.12.17zm-2.08-4.55c-.31.06-.62.11-1 .15l-1 .14a3.75 3.75 0 0 0-.91.26 1.57 1.57 0 0 0-.66.5 1.38 1.38 0 0 0-.25.88 1.21 1.21 0 0 0 .15.62 1.15 1.15 0 0 0 .38.41 1.65 1.65 0 0 0 .56.23 3 3 0 0 0 .66.07 3.62 3.62 0 0 0 1.26-.2 2.6 2.6 0 0 0 .85-.51 1.78 1.78 0 0 0 .5-.68 1.64 1.64 0 0 0 .16-.68v-1.5a1.89 1.89 0 0 1-.7.31zm8.4-4.69v1.32h-1.81v5.62a1.61 1.61 0 0 0 0 .42.45.45 0 0 0 .16.24.69.69 0 0 0 .35.11 4.17 4.17 0 0 0 .56 0h.69v1.31h-1.14a4.71 4.71 0 0 1-1-.08 1.48 1.48 0 0 1-.66-.28 1.27 1.27 0 0 1-.38-.6 3.56 3.56 0 0 1-.12-1v-5.74H231v-1.32h1.54v-2.71h1.48v2.71zm8.48-3.44v12.49h-1.66V77zm3.96 3.44v1.33a3.31 3.31 0 0 1 2.93-1.54 3.22 3.22 0 0 1 1.52.36 2 2 0 0 1 1 1.18 3.18 3.18 0 0 1 1.2-1.13 3.38 3.38 0 0 1 1.64-.41 4.71 4.71 0 0 1 1.23.15 2.64 2.64 0 0 1 .95.47 2.17 2.17 0 0 1 .61.81 3.06 3.06 0 0 1 .22 1.2v6.63h-1.5v-5.93a4 4 0 0 0-.07-.79 1.83 1.83 0 0 0-.26-.64 1.27 1.27 0 0 0-.54-.42 2 2 0 0 0-.88-.16 2.33 2.33 0 0 0-1.73.63 2.27 2.27 0 0 0-.63 1.68v5.63h-1.49v-5.93a3.94 3.94 0 0 0-.08-.8 1.61 1.61 0 0 0-.27-.64 1.28 1.28 0 0 0-.52-.42 2 2 0 0 0-.83-.15 2.28 2.28 0 0 0-1.11.26 2.33 2.33 0 0 0-.75.63 2.21 2.21 0 0 0-.42.76 2.06 2.06 0 0 0-.13.66v5.63h-1.49v-9zm15.07 0v1.23a2.21 2.21 0 0 1 1.16-1.09 4.24 4.24 0 0 1 1.73-.35 4 4 0 0 1 1.83.39 3.66 3.66 0 0 1 1.29 1 4.38 4.38 0 0 1 .78 1.52 6 6 0 0 1 .26 1.82 6.28 6.28 0 0 1-.25 1.81 4.26 4.26 0 0 1-.77 1.5 3.68 3.68 0 0 1-1.29 1 4.31 4.31 0 0 1-1.82.36 4.08 4.08 0 0 1-.74-.07 3.89 3.89 0 0 1-.81-.22A3.17 3.17 0 0 1 264 89a2.44 2.44 0 0 1-.61-.67v4.65h-1.49V80.44zm5.34 3.22a3.35 3.35 0 0 0-.5-1.08 2.37 2.37 0 0 0-.88-.75 2.62 2.62 0 0 0-1.25-.28 2.5 2.5 0 0 0-2.14 1.07 3.31 3.31 0 0 0-.48 1.1 5.19 5.19 0 0 0-.15 1.24 5.56 5.56 0 0 0 .16 1.29 3.3 3.3 0 0 0 .5 1.09 2.6 2.6 0 0 0 .88.76 2.83 2.83 0 0 0 1.32.29 2.5 2.5 0 0 0 1.28-.3 2.33 2.33 0 0 0 .83-.79 3.3 3.3 0 0 0 .46-1.12 6.14 6.14 0 0 0 .14-1.29 4.62 4.62 0 0 0-.17-1.23zm4.84-3.22v1.91a4 4 0 0 1 1.33-1.63 3.42 3.42 0 0 1 2-.49v1.58a4.29 4.29 0 0 0-1.52.24 2.55 2.55 0 0 0-1 .72 3.17 3.17 0 0 0-.56 1.15 6.5 6.5 0 0 0-.17 1.55v4h-1.49v-9zm3.96 2.67a4 4 0 0 1 .84-1.5 3.92 3.92 0 0 1 1.38-1 5 5 0 0 1 3.79 0 4 4 0 0 1 1.37 1 4.32 4.32 0 0 1 .84 1.5A6 6 0 0 1 286 85a5.83 5.83 0 0 1-.28 1.85 4.41 4.41 0 0 1-.84 1.5 3.83 3.83 0 0 1-1.37 1 5.31 5.31 0 0 1-3.79 0 3.78 3.78 0 0 1-1.38-1 4.1 4.1 0 0 1-.84-1.5 5.83 5.83 0 0 1-.28-1.85 6 6 0 0 1 .29-1.89zm1.49 3.33a3.35 3.35 0 0 0 .6 1.07 2.68 2.68 0 0 0 2 .88 2.7 2.7 0 0 0 1.09-.23 2.54 2.54 0 0 0 .9-.65 3.19 3.19 0 0 0 .61-1.07 5 5 0 0 0 0-2.92 3.14 3.14 0 0 0-.61-1.08 2.59 2.59 0 0 0-.9-.67 2.69 2.69 0 0 0-1.09-.22 2.74 2.74 0 0 0-1.1.22 2.79 2.79 0 0 0-.9.67 3.3 3.3 0 0 0-.6 1.08 5 5 0 0 0 0 2.92zm11.25 3.05l-3.36-9h1.66l2.54 7.51 2.47-7.55h1.56l-3.31 9zm12.67-.57a4.14 4.14 0 0 1-2.56.76 4.71 4.71 0 0 1-1.88-.34 3.81 3.81 0 0 1-1.34-1 4.17 4.17 0 0 1-.81-1.5 7.13 7.13 0 0 1-.31-1.91 5.43 5.43 0 0 1 .32-1.89 4.52 4.52 0 0 1 .88-1.49 4.13 4.13 0 0 1 3-1.33 3.74 3.74 0 0 1 2 .5 4.19 4.19 0 0 1 1.34 1.28 5.08 5.08 0 0 1 .66 1.68 7.59 7.59 0 0 1 .15 1.74h-6.77a3.19 3.19 0 0 0 .14 1.12 2.48 2.48 0 0 0 .5.95 2.51 2.51 0 0 0 .9.65 2.94 2.94 0 0 0 1.27.25A2.59 2.59 0 0 0 302 88a2.12 2.12 0 0 0 .8-1.33h1.47a3.67 3.67 0 0 1-1.35 2.25zm-.36-5.82a2.87 2.87 0 0 0-.54-.81 2.5 2.5 0 0 0-.81-.54 2.44 2.44 0 0 0-1-.2 2.52 2.52 0 0 0-1.05.2 2.44 2.44 0 0 0-.79.55 2.64 2.64 0 0 0-.53.81 3 3 0 0 0-.22 1h5.19a3.1 3.1 0 0 0-.25-1.01zm4.75-2.66v1.33a3.31 3.31 0 0 1 2.93-1.54 3.22 3.22 0 0 1 1.52.36 2 2 0 0 1 1 1.18 3.18 3.18 0 0 1 1.2-1.13 3.38 3.38 0 0 1 1.64-.41 4.71 4.71 0 0 1 1.23.15 2.64 2.64 0 0 1 .95.47 2.17 2.17 0 0 1 .61.81 3.06 3.06 0 0 1 .22 1.2v6.63h-1.49v-5.93a4 4 0 0 0-.07-.79 1.83 1.83 0 0 0-.26-.64 1.27 1.27 0 0 0-.54-.42 2 2 0 0 0-.88-.16 2.33 2.33 0 0 0-1.73.63 2.27 2.27 0 0 0-.63 1.68v5.63h-1.49v-5.93a3.94 3.94 0 0 0-.08-.8 1.61 1.61 0 0 0-.27-.64 1.28 1.28 0 0 0-.52-.42 2 2 0 0 0-.83-.15 2.28 2.28 0 0 0-1.11.26 2.33 2.33 0 0 0-.75.63 2.21 2.21 0 0 0-.42.76 2.06 2.06 0 0 0-.13.66v5.63h-1.49v-9zm19.93 8.48a4.13 4.13 0 0 1-2.55.76 4.68 4.68 0 0 1-1.88-.34 3.72 3.72 0 0 1-1.34-1 4 4 0 0 1-.82-1.5 7.14 7.14 0 0 1-.3-1.91 5.43 5.43 0 0 1 .31-1.89 4.55 4.55 0 0 1 .89-1.49 3.82 3.82 0 0 1 1.34-1 4 4 0 0 1 1.71-.36 3.73 3.73 0 0 1 2 .5 4.08 4.08 0 0 1 1.28 1.31 5.33 5.33 0 0 1 .67 1.68 7 7 0 0 1 .14 1.74h-6.77a3.74 3.74 0 0 0 .14 1.12 2.64 2.64 0 0 0 .51.95 2.48 2.48 0 0 0 .89.65 3 3 0 0 0 1.28.25 2.59 2.59 0 0 0 1.55-.44 2.07 2.07 0 0 0 .79-1.33h1.47a3.63 3.63 0 0 1-1.31 2.3zm-.36-5.82a2.48 2.48 0 0 0-1.35-1.35 2.41 2.41 0 0 0-1-.2 2.51 2.51 0 0 0-1 .2 2.38 2.38 0 0 0-.8.55 2.62 2.62 0 0 0-.52.81 3 3 0 0 0-.23 1h5.2a2.87 2.87 0 0 0-.3-1.01zm4.75-2.66v1.44a3.13 3.13 0 0 1 2.94-1.65 4 4 0 0 1 1.49.25 2.37 2.37 0 0 1 1.47 1.72 5.61 5.61 0 0 1 .15 1.34v5.95h-1.48v-6.12a1.69 1.69 0 0 0-1.84-1.82 3 3 0 0 0-1.18.21 2.28 2.28 0 0 0-.83.59 2.48 2.48 0 0 0-.5.9 3.72 3.72 0 0 0-.17 1.13v5.11h-1.49v-9zm12.2 0v1.32H342v5.62a1.66 1.66 0 0 0 0 .42.46.46 0 0 0 .17.24.62.62 0 0 0 .34.11 4.24 4.24 0 0 0 .57 0h.68v1.31h-1.14a4.83 4.83 0 0 1-1-.08 1.54 1.54 0 0 1-.66-.28 1.27 1.27 0 0 1-.38-.6 3.56 3.56 0 0 1-.12-1v-5.74H339v-1.32h1.54v-2.71H342v2.71zm14.31-1.68a3.89 3.89 0 0 0-2.27-.66 4.06 4.06 0 0 0-1.92.42 3.86 3.86 0 0 0-1.31 1.13 4.84 4.84 0 0 0-.76 1.62 7.31 7.31 0 0 0-.24 1.89 8.28 8.28 0 0 0 .24 2 4.86 4.86 0 0 0 .76 1.66A3.9 3.9 0 0 0 354 88a4.13 4.13 0 0 0 1.93.42 3.73 3.73 0 0 0 1.46-.27 3.36 3.36 0 0 0 1.1-.75 3.58 3.58 0 0 0 .73-1.15 4.73 4.73 0 0 0 .31-1.43h1.66a5.65 5.65 0 0 1-1.62 3.67 5.24 5.24 0 0 1-3.78 1.31 5.91 5.91 0 0 1-2.54-.5 5 5 0 0 1-1.8-1.37 5.87 5.87 0 0 1-1.08-2.06 8.85 8.85 0 0 1-.36-2.56 8.22 8.22 0 0 1 .39-2.56 5.94 5.94 0 0 1 1.13-2.09 5.1 5.1 0 0 1 1.85-1.41 5.9 5.9 0 0 1 2.55-.52 6.56 6.56 0 0 1 1.85.26 5 5 0 0 1 1.56.77 4.35 4.35 0 0 1 1.1 1.24 4.7 4.7 0 0 1 .59 1.76h-1.66a3.14 3.14 0 0 0-1.23-2zm11.24 10.16a4.14 4.14 0 0 1-2.56.76 4.71 4.71 0 0 1-1.88-.34 3.9 3.9 0 0 1-1.34-1 4.17 4.17 0 0 1-.81-1.5 7.56 7.56 0 0 1-.31-1.91 5.43 5.43 0 0 1 .32-1.89 4.52 4.52 0 0 1 .88-1.49 4 4 0 0 1 1.35-1 4 4 0 0 1 1.71-.36 3.73 3.73 0 0 1 2 .5A4.08 4.08 0 0 1 370 82a5.08 5.08 0 0 1 .66 1.68 6.61 6.61 0 0 1 .15 1.74h-6.77a3.74 3.74 0 0 0 .14 1.12 2.46 2.46 0 0 0 1.4 1.6 3 3 0 0 0 1.28.25 2.61 2.61 0 0 0 1.55-.44 2.11 2.11 0 0 0 .79-1.33h1.47a3.63 3.63 0 0 1-1.29 2.3zM369 83.1a2.48 2.48 0 0 0-1.35-1.35 2.44 2.44 0 0 0-1-.2 2.51 2.51 0 0 0-1 .2 2.38 2.38 0 0 0-.8.55 2.62 2.62 0 0 0-.52.81 3 3 0 0 0-.23 1h5.2a3.4 3.4 0 0 0-.3-1.01zm4.77-2.66v1.44a3.13 3.13 0 0 1 2.94-1.65 3.94 3.94 0 0 1 1.48.25 2.46 2.46 0 0 1 1 .68 2.6 2.6 0 0 1 .51 1 5.61 5.61 0 0 1 .15 1.34v5.95h-1.49v-6.08a1.68 1.68 0 0 0-1.83-1.82 3 3 0 0 0-1.18.21 2.32 2.32 0 0 0-.84.59 2.62 2.62 0 0 0-.49.9 3.72 3.72 0 0 0-.17 1.13v5.11h-1.49v-9zm12.23 0v1.32h-1.8v5.62a1.66 1.66 0 0 0 0 .42.46.46 0 0 0 .17.24.62.62 0 0 0 .34.11 4.24 4.24 0 0 0 .57 0h.72v1.31h-1.14a4.83 4.83 0 0 1-1-.08 1.54 1.54 0 0 1-.66-.28 1.27 1.27 0 0 1-.38-.6 3.56 3.56 0 0 1-.12-1v-5.74h-1.54v-1.32h1.54v-2.71h1.49v2.71zm8 8.48a4.14 4.14 0 0 1-2.56.76 4.71 4.71 0 0 1-1.88-.34 3.9 3.9 0 0 1-1.34-1 4.17 4.17 0 0 1-.81-1.5 7.56 7.56 0 0 1-.31-1.91 5.43 5.43 0 0 1 .32-1.89 4.52 4.52 0 0 1 .88-1.49 4 4 0 0 1 1.35-1 4 4 0 0 1 1.71-.36 3.73 3.73 0 0 1 2 .5 4.08 4.08 0 0 1 1.3 1.31 5.08 5.08 0 0 1 .66 1.68 6.61 6.61 0 0 1 .15 1.74h-6.77a3.45 3.45 0 0 0 .14 1.12 2.37 2.37 0 0 0 .51.95 2.48 2.48 0 0 0 .89.65 3 3 0 0 0 1.28.25 2.61 2.61 0 0 0 1.55-.44 2.11 2.11 0 0 0 .79-1.33h1.47a3.63 3.63 0 0 1-1.33 2.3zm-.36-5.82a2.48 2.48 0 0 0-1.35-1.35 2.44 2.44 0 0 0-1-.2 2.48 2.48 0 0 0-1 .2 2.38 2.38 0 0 0-.8.55 2.62 2.62 0 0 0-.52.81 3 3 0 0 0-.23 1h5.2a3.4 3.4 0 0 0-.28-1.01zm4.72-2.66v1.91a4.19 4.19 0 0 1 1.33-1.63 3.46 3.46 0 0 1 2-.49v1.58a4.25 4.25 0 0 0-1.52.24 2.55 2.55 0 0 0-1 .72 3.17 3.17 0 0 0-.56 1.15 6.5 6.5 0 0 0-.17 1.55v4H397v-9z" class="cls-1"></path>
</svg>