<?xml version="1.0" encoding="UTF-8" standalone="no"?>
<!-- Created with Inkscape (http://www.inkscape.org/) -->

<svg
   width="70.401039mm"
   height="28.91423mm"
   viewBox="0 0 70.401039 28.91423"
   version="1.1"
   id="svg716"
   inkscape:version="1.2 (dc2aedaf03, 2022-05-15)"
   sodipodi:docname="crop-trust.svg"
   xmlns:inkscape="http://www.inkscape.org/namespaces/inkscape"
   xmlns:sodipodi="http://sodipodi.sourceforge.net/DTD/sodipodi-0.dtd"
   xmlns="http://www.w3.org/2000/svg"
   xmlns:svg="http://www.w3.org/2000/svg">
  <sodipodi:namedview
     id="namedview718"
     pagecolor="#ffffff"
     bordercolor="#666666"
     borderopacity="1.0"
     inkscape:showpageshadow="2"
     inkscape:pageopacity="0.0"
     inkscape:pagecheckerboard="0"
     inkscape:deskcolor="#d1d1d1"
     inkscape:document-units="mm"
     showgrid="false"
     inkscape:zoom="0.93806818"
     inkscape:cx="-104.47002"
     inkscape:cy="233.45851"
     inkscape:window-width="3440"
     inkscape:window-height="1377"
     inkscape:window-x="-8"
     inkscape:window-y="-8"
     inkscape:window-maximized="1"
     inkscape:current-layer="layer1" />
  <defs
     id="defs713">
    <clipPath
       clipPathUnits="userSpaceOnUse"
       id="clipPath60">
      <path
         d="m 381.883,269.222 h 199.562 v 81.962 H 381.883 Z"
         id="path58" />
    </clipPath>
  </defs>
  <g
     inkscape:label="Layer 1"
     inkscape:groupmode="layer"
     id="layer1"
     transform="translate(-132.61999,-86.799292)">
    <g
       id="g54"
       transform="matrix(0.35277777,0,0,-0.35277777,-2.099839,210.6892)">
      <g
         id="g56"
         clip-path="url(#clipPath60)">
        <g
           id="g62"
           transform="translate(402.7843,279.2006)">
          <path
             d="m 0,0 h -10.906 c -2.86,0 -5.187,2.327 -5.187,5.188 V 56.85 c 0,2.861 2.327,5.188 5.187,5.188 H 4.25 v 4.808 h -15.156 c -5.511,0 -9.996,-4.484 -9.996,-9.996 V 5.188 c 0,-5.512 4.485,-9.996 9.996,-9.996 H 0 Z"
             style="fill:#2f6fb3;fill-opacity:1;fill-rule:nonzero;stroke:none"
             id="path64" />
        </g>
        <g
           id="g66"
           transform="translate(443.5413,346.0471)">
          <path
             d="M 0,0 H -15.156 V -4.808 H 0 c 2.861,0 5.188,-2.327 5.188,-5.188 v -51.663 c 0,-2.86 -2.327,-5.187 -5.188,-5.187 h -10.859 v -4.808 H 0 c 5.512,0 9.996,4.484 9.996,9.995 V -9.996 C 9.996,-4.484 5.512,0 0,0"
             style="fill:#2f6fb3;fill-opacity:1;fill-rule:nonzero;stroke:none"
             id="path68" />
        </g>
        <g
           id="g70"
           transform="translate(417.71,292.7574)">
          <path
             d="m 0,0 v -21.012 c 0,-0.902 0.481,-1.734 1.261,-2.185 l 0.586,-0.338 v 21.013 c 0,0.901 -0.481,1.734 -1.262,2.184 z"
             style="fill:#7ca566;fill-opacity:1;fill-rule:nonzero;stroke:none"
             id="path72" />
        </g>
        <g
           id="g74"
           transform="translate(407.92,296.8392)">
          <path
             d="m 0,0 v -21.178 c 0,-0.901 0.481,-1.734 1.261,-2.184 l 0.586,-0.339 v 21.179 c 0,0.901 -0.481,1.734 -1.262,2.184 z"
             style="fill:#f59e24;fill-opacity:1;fill-rule:nonzero;stroke:none"
             id="path76" />
        </g>
        <g
           id="g78"
           transform="translate(427.5464,296.8394)">
          <path
             d="m 0,0 v -21.178 c 0,-0.902 -0.481,-1.734 -1.261,-2.184 l -0.586,-0.339 v 21.178 c 0,0.902 0.481,1.734 1.262,2.185 z"
             style="fill:#da4f37;fill-opacity:1;fill-rule:nonzero;stroke:none"
             id="path80" />
        </g>
        <g
           id="g82"
           transform="translate(423.2499,341.5179)">
          <path
             d="M 0,0 V 9.667 L -3.017,7.925 C -4.578,7.024 -5.54,5.358 -5.54,3.556 v -9.6 l 3.085,1.742 C -0.894,-3.401 0,-1.802 0,0"
             style="fill:#18543e;fill-opacity:1;fill-rule:nonzero;stroke:none"
             id="path84" />
        </g>
        <g
           id="g86"
           transform="translate(412.1699,315.1657)">
          <path
             d="M 0,0 V 9.667 L 3.017,7.925 C 4.578,7.024 5.54,5.358 5.54,3.556 v -9.6 L 2.455,-4.302 C 0.894,-3.401 0,-1.802 0,0"
             style="fill:#7ca566;fill-opacity:1;fill-rule:nonzero;stroke:none"
             id="path88" />
        </g>
        <g
           id="g90"
           transform="translate(412.1699,331.5299)">
          <path
             d="M 0,0 V 9.667 L 3.017,7.925 C 4.578,7.024 5.54,5.358 5.54,3.556 v -9.6 L 2.455,-4.302 C 0.894,-3.401 0,-1.802 0,0"
             style="fill:#7ca566;fill-opacity:1;fill-rule:nonzero;stroke:none"
             id="path92" />
        </g>
        <g
           id="g94"
           transform="translate(412.1699,298.8015)">
          <path
             d="M 0,0 V 9.667 L 3.017,7.925 C 4.578,7.024 5.54,5.358 5.54,3.556 v -9.6 L 2.455,-4.302 C 0.894,-3.401 0,-1.802 0,0"
             style="fill:#7ca566;fill-opacity:1;fill-rule:nonzero;stroke:none"
             id="path96" />
        </g>
        <g
           id="g98"
           transform="translate(423.2499,325.1455)">
          <path
             d="M 0,0 V 9.667 L -3.017,7.925 C -4.578,7.024 -5.54,5.358 -5.54,3.556 v -9.6 l 3.085,1.742 C -0.894,-3.401 0,-1.802 0,0"
             style="fill:#18543e;fill-opacity:1;fill-rule:nonzero;stroke:none"
             id="path100" />
        </g>
        <g
           id="g102"
           transform="translate(423.2499,308.7732)">
          <path
             d="M 0,0 V 9.667 L -3.017,7.925 C -4.578,7.024 -5.54,5.358 -5.54,3.556 v -9.6 l 3.085,1.742 C -0.894,-3.401 0,-1.802 0,0"
             style="fill:#18543e;fill-opacity:1;fill-rule:nonzero;stroke:none"
             id="path104" />
        </g>
        <g
           id="g106"
           transform="translate(400.6472,300.624)">
          <path
             d="M 0,0 -3.196,8.78 0.279,8.056 C 2.054,7.743 3.527,6.507 4.143,4.813 l 3.13,-8.598 -3.494,0.582 C 2.004,-2.89 0.616,-1.694 0,0"
             style="fill:#f59e24;fill-opacity:1;fill-rule:nonzero;stroke:none"
             id="path108" />
        </g>
        <g
           id="g110"
           transform="translate(408.1176,312.4941)">
          <path
             d="M 0,0 -3.152,8.661 -5.392,5.992 C -6.551,4.611 -6.798,2.481 -6.182,0.787 l 3.173,-8.717 2.173,3.048 C 0.323,-3.501 0.616,-1.694 0,0"
             style="fill:#da4f37;fill-opacity:1;fill-rule:nonzero;stroke:none"
             id="path112" />
        </g>
        <g
           id="g114"
           transform="translate(394.9884,316.1714)">
          <path
             d="M 0,0 -3.152,8.661 0.279,8.056 C 2.054,7.743 3.527,6.507 4.144,4.813 L 7.446,-4.259 3.779,-3.203 C 2.004,-2.89 0.616,-1.694 0,0"
             style="fill:#f59e24;fill-opacity:1;fill-rule:nonzero;stroke:none"
             id="path116" />
        </g>
        <g
           id="g118"
           transform="translate(434.8426,300.6879)">
          <path
             d="M 0,0 3.037,8.345 -0.431,7.638 C -2.203,7.333 -3.671,6.111 -4.282,4.434 l -3.014,-8.282 3.531,0.684 C -1.992,-2.859 -0.611,-1.678 0,0"
             style="fill:#da4f37;fill-opacity:1;fill-rule:nonzero;stroke:none"
             id="path120" />
        </g>
        <g
           id="g122"
           transform="translate(427.215,312.1293)">
          <path
             d="M 0,0 2.994,8.227 5.24,5.573 C 6.401,4.201 6.655,2.087 6.044,0.409 L 3.03,-7.873 0.85,-4.844 C -0.312,-3.471 -0.611,-1.678 0,0"
             style="fill:#f59e24;fill-opacity:1;fill-rule:nonzero;stroke:none"
             id="path124" />
        </g>
        <g
           id="g126"
           transform="translate(440.1903,315.3836)">
          <path
             d="M 0,0 2.994,8.227 -0.431,7.638 C -2.203,7.333 -3.671,6.111 -4.282,4.434 l -3.142,-8.635 3.659,1.037 C -1.992,-2.859 -0.611,-1.678 0,0"
             style="fill:#da4f37;fill-opacity:1;fill-rule:nonzero;stroke:none"
             id="path128" />
        </g>
        <g
           id="g130"
           transform="translate(432.4783,326.5902)">
          <path
             d="M 0,0 2.994,8.227 5.24,5.573 C 6.401,4.201 6.655,2.087 6.044,0.409 L 3.03,-7.873 0.85,-4.844 C -0.312,-3.471 -0.611,-1.678 0,0"
             style="fill:#f59e24;fill-opacity:1;fill-rule:nonzero;stroke:none"
             id="path132" />
        </g>
        <g
           id="g134"
           transform="translate(477.5096,336.2685)">
          <path
             d="m 0,0 c -2.217,0 -3.933,-0.833 -5.15,-2.499 -1.216,-1.666 -1.824,-3.987 -1.824,-6.964 0,-6.195 2.325,-9.292 6.974,-9.292 1.951,0 4.314,0.487 7.088,1.463 v -4.941 c -2.28,-0.95 -4.827,-1.425 -7.639,-1.425 -4.042,0 -7.133,1.225 -9.273,3.677 -2.141,2.451 -3.212,5.97 -3.212,10.556 0,2.888 0.526,5.418 1.577,7.591 1.052,2.173 2.562,3.839 4.532,4.998 1.97,1.159 4.279,1.739 6.927,1.739 2.698,0 5.409,-0.653 8.133,-1.958 l -1.9,-4.788 C 5.194,-1.349 4.149,-0.919 3.097,-0.551 2.046,-0.184 1.013,0 0,0"
             style="fill:#2f6fb3;fill-opacity:1;fill-rule:nonzero;stroke:none"
             id="path136" />
        </g>
        <g
           id="g138"
           transform="translate(496.398,328.4395)">
          <path
             d="m 0,0 h 1.9 c 1.862,0 3.237,0.31 4.124,0.931 0.887,0.621 1.33,1.596 1.33,2.927 0,1.317 -0.453,2.254 -1.358,2.812 -0.907,0.557 -2.31,0.836 -4.21,0.836 H 0 Z m 0,-4.789 v -10.66 h -5.891 v 27.782 h 8.095 c 3.775,0 6.569,-0.688 8.38,-2.062 1.812,-1.375 2.718,-3.462 2.718,-6.261 0,-1.635 -0.45,-3.088 -1.349,-4.362 -0.9,-1.273 -2.173,-2.27 -3.82,-2.992 4.18,-6.246 6.904,-10.281 8.171,-12.105 H 9.767 l -6.631,10.66 z"
             style="fill:#2f6fb3;fill-opacity:1;fill-rule:nonzero;stroke:none"
             id="path140" />
        </g>
        <g
           id="g142"
           transform="translate(519.5826,326.9193)">
          <path
             d="m 0,0 c 0,-3.104 0.589,-5.441 1.767,-7.012 1.178,-1.571 2.939,-2.356 5.283,-2.356 4.7,0 7.05,3.122 7.05,9.368 0,6.258 -2.337,9.387 -7.012,9.387 C 4.744,9.387 2.977,8.599 1.786,7.021 0.595,5.444 0,3.104 0,0 m 20.276,0 c 0,-4.599 -1.141,-8.133 -3.421,-10.603 -2.28,-2.471 -5.548,-3.706 -9.805,-3.706 -4.256,0 -7.525,1.235 -9.805,3.706 -2.281,2.47 -3.421,6.017 -3.421,10.641 0,4.624 1.143,8.155 3.43,10.594 2.287,2.439 5.565,3.658 9.834,3.658 4.269,0 7.534,-1.229 9.796,-3.687 C 19.145,8.146 20.276,4.611 20.276,0"
             style="fill:#2f6fb3;fill-opacity:1;fill-rule:nonzero;stroke:none"
             id="path144" />
        </g>
        <g
           id="g146"
           transform="translate(549.9504,327.6983)">
          <path
             d="m 0,0 h 1.938 c 1.812,0 3.167,0.358 4.066,1.074 0.9,0.715 1.35,1.757 1.35,3.126 0,1.38 -0.377,2.4 -1.131,3.059 C 5.469,7.918 4.288,8.247 2.679,8.247 H 0 Z m 13.301,4.409 c 0,-2.99 -0.934,-5.277 -2.802,-6.86 C 8.63,-4.035 5.973,-4.827 2.527,-4.827 H 0 v -9.881 h -5.891 v 27.782 h 8.874 c 3.37,0 5.932,-0.726 7.687,-2.176 1.754,-1.451 2.631,-3.614 2.631,-6.489"
             style="fill:#2f6fb3;fill-opacity:1;fill-rule:nonzero;stroke:none"
             id="path148" />
        </g>
        <g
           id="g150"
           transform="translate(477.935,279.6509)">
          <path
             d="m 0,0 h -5.891 v 22.879 h -7.544 v 4.903 H 7.544 V 22.879 H 0 Z"
             style="fill:#2f6fb3;fill-opacity:1;fill-rule:nonzero;stroke:none"
             id="path152" />
        </g>
        <g
           id="g154"
           transform="translate(495.6452,295.1)">
          <path
             d="m 0,0 h 1.901 c 1.862,0 3.236,0.31 4.123,0.931 0.887,0.621 1.33,1.596 1.33,2.927 0,1.317 -0.453,2.254 -1.358,2.812 -0.907,0.557 -2.31,0.836 -4.21,0.836 H 0 Z m 0,-4.789 v -10.66 h -5.891 v 27.782 h 8.095 c 3.775,0 6.569,-0.688 8.38,-2.062 1.812,-1.375 2.718,-3.462 2.718,-6.261 0,-1.635 -0.45,-3.088 -1.349,-4.362 -0.9,-1.273 -2.173,-2.27 -3.819,-2.992 4.18,-6.246 6.904,-10.281 8.17,-12.105 H 9.768 l -6.632,10.66 z"
             style="fill:#2f6fb3;fill-opacity:1;fill-rule:nonzero;stroke:none"
             id="path156" />
        </g>
        <g
           id="g158"
           transform="translate(536.5024,307.4327)">
          <path
             d="m 0,0 v -17.976 c 0,-2.053 -0.459,-3.852 -1.378,-5.397 -0.919,-1.546 -2.245,-2.73 -3.981,-3.554 -1.735,-0.823 -3.788,-1.235 -6.157,-1.235 -3.572,0 -6.346,0.915 -8.323,2.746 -1.976,1.831 -2.964,4.336 -2.964,7.516 V 0 h 5.872 v -17.007 c 0,-2.141 0.43,-3.712 1.292,-4.713 0.861,-1.001 2.286,-1.501 4.275,-1.501 1.926,0 3.322,0.503 4.19,1.511 0.868,1.007 1.302,2.587 1.302,4.741 V 0 Z"
             style="fill:#2f6fb3;fill-opacity:1;fill-rule:nonzero;stroke:none"
             id="path160" />
        </g>
        <g
           id="g162"
           transform="translate(558.1476,287.366)">
          <path
             d="m 0,0 c 0,-2.508 -0.902,-4.485 -2.707,-5.929 -1.806,-1.444 -4.317,-2.166 -7.535,-2.166 -2.964,0 -5.587,0.557 -7.867,1.672 v 5.473 c 1.875,-0.836 3.461,-1.425 4.76,-1.767 1.298,-0.343 2.486,-0.513 3.563,-0.513 1.292,0 2.283,0.247 2.974,0.741 0.69,0.494 1.035,1.228 1.035,2.204 0,0.544 -0.152,1.029 -0.455,1.454 -0.305,0.424 -0.751,0.833 -1.34,1.225 -0.589,0.393 -1.79,1.02 -3.602,1.881 -1.697,0.799 -2.97,1.565 -3.819,2.3 -0.848,0.734 -1.527,1.589 -2.033,2.565 -0.507,0.976 -0.76,2.116 -0.76,3.421 0,2.457 0.833,4.389 2.498,5.795 1.667,1.407 3.969,2.11 6.908,2.11 1.444,0 2.822,-0.171 4.133,-0.513 1.311,-0.342 2.682,-0.824 4.114,-1.445 l -1.9,-4.579 c -1.482,0.608 -2.708,1.032 -3.677,1.273 -0.969,0.241 -1.922,0.361 -2.86,0.361 -1.115,0 -1.97,-0.26 -2.565,-0.779 -0.596,-0.52 -0.893,-1.197 -0.893,-2.033 0,-0.52 0.12,-0.973 0.36,-1.359 0.241,-0.387 0.624,-0.76 1.151,-1.121 C -9.992,9.91 -8.747,9.26 -6.784,8.323 -4.187,7.081 -2.406,5.837 -1.444,4.589 -0.481,3.341 0,1.811 0,0"
             style="fill:#2f6fb3;fill-opacity:1;fill-rule:nonzero;stroke:none"
             id="path164" />
        </g>
        <g
           id="g166"
           transform="translate(573.901,279.6509)">
          <path
             d="m 0,0 h -5.891 v 22.879 h -7.544 v 4.903 H 7.544 V 22.879 H 0 Z"
             style="fill:#2f6fb3;fill-opacity:1;fill-rule:nonzero;stroke:none"
             id="path168" />
        </g>
      </g>
    </g>
  </g>
</svg>
