<svg xmlns="http://www.w3.org/2000/svg" width="373px" height="168px" viewBox="0 0 1473 668">
          <g class="logo">
            <polygon fill="#0B3F7A" points="451.3,385.2 451.3,339.9 372.8,385.2 372.8,385.2 372.8,430.5   "></polygon>
            <polygon fill="#165DA3" points="451.3,339.9 412.1,317.3 412.1,317.2 412.1,317.2 412.1,317.2 412.1,317.3 372.8,339.9
              412.1,362.6 412.1,362.6 412.1,362.6 412.1,362.6   "></polygon>
            <polygon fill="#2FB8F4" points="372.8,294.6 372.8,339.9 490.5,271.9 490.5,226.6   "></polygon>
            <polygon fill="#F4CA18" points="137.3,249.3 98.1,271.9 215.8,339.9 215.8,294.6  "></polygon>
            <polygon fill="#880D10" points="176.6,317.2 215.8,339.9 176.6,362.6   "></polygon>
            <polygon fill="#C82127" points="215.8,339.9 176.6,362.6 176.6,407.9 176.6,407.9 215.8,430.5   "></polygon>
            <polygon fill="#C82127" points="215.8,430.6 215.8,626.9 228.9,634.5 228.9,438.1   "></polygon>
            <polygon fill="#0B3F7A" points="359.7,438.1 359.7,634.5 372.8,626.9 372.8,430.6   "></polygon>
            <polygon fill="#00903B" points="333.6,407.9 333.6,407.9 333.6,362.6 294.3,385.2 294.3,385.2 294.3,430.5   "></polygon>
            <polygon fill="#006D3C" points="255.1,271.9 255.1,362.6 294.3,385.2 294.3,294.6   "></polygon>
            <polygon fill="#00903B" points="294.3,249.3 294.3,339.9 333.6,317.2 333.6,226.6   "></polygon>
            <polygon fill="#00903B" points="255.1,136 255.1,226.6 294.3,249.3 294.3,158.6 294.3,158.6   "></polygon>
            <polygon fill="#96AF3A" points="333.6,181.3 333.6,90.7 294.3,113.3 294.3,204 333.6,181.3  "></polygon>
            <polygon fill="#004B25" points="294.3,475.9 294.3,430.5 255.1,407.9 255.1,453.2 287.8,472.1 287.8,667.9 300.9,667.9
              300.9,479.7   "></polygon>
            <polygon fill="#0B3F7A" points="0,0 0,589.1 176.6,589.1 176.6,549.9 39.2,549.9 39.2,39.2 550.1,39.2 550.1,549.9 412.1,549.9
              412.1,589.1 589.4,589.1 589.4,0   "></polygon>
          </g>
          <g class="label">
            <path fill="#0B3F7A" d="M758.8,112.5c14.1,1,29,6.5,42.1,12.1l12-33.9c-13.6-6-31.1-12.5-54.2-13.9c-30-1.9-90.8,18.1-90.8,100.4
              c0,82.3,60.8,102.3,90.8,100.4c23.1-1.5,40.5-7.9,54.2-13.9l-12-33.9c-13.1,5.7-28.1,11.1-42.1,12.1c-16.6,1.2-49.5-8.9-49.5-64.7
              C709.3,121.4,742.2,111.3,758.8,112.5z"></path>
            <polygon fill="#0B3F7A" points="671.3,351.9 721.3,351.9 721.3,510.2 762.1,510.2 762.4,351.9 812,351.9 812,314.3 671.3,314.3
              "></polygon>
            <path fill="#0B3F7A" d="M966.4,376c0-19.4-6.6-34.7-19.7-45.6c-12.9-10.7-30-16.1-50.9-16.1h-55.7v195.9h40.7v-72h6.6l44.7,72h46.6
              l-48.1-78.6C954.4,422,966.4,403.3,966.4,376z M880.8,351.6h11.8c13.4,0,22.7,2.2,27.7,6.6c3.8,3.6,5.8,9.5,5.8,17.7
              c0,8.4-1.9,14.5-5.8,18.1c-4.8,4.5-14.1,6.8-27.7,6.8h-11.8V351.6z"></path>
            <path fill="#0B3F7A" d="M1080.2,511.7c23.8,0,43.8-7.6,59.6-22.6c15.8-15,23.9-33.9,23.9-56.1V312.9h-41.1v115.7
              c0,13.5-3.8,24.2-11.7,32.8c-7.8,8.4-17.8,12.5-30.6,12.5h0c-12.8,0-22.9-4.1-30.6-12.5c-7.9-8.5-11.7-19.2-11.7-32.8V312.9h-41.1
              V433c0,22.2,8.1,41.1,23.9,56.1C1036.4,504.1,1056.4,511.7,1080.2,511.7L1080.2,511.7z"></path>
            <path fill="#0B3F7A" d="M1295.4,409.2L1295.4,409.2c-3.5-2.5-17.3-10-42.1-22.8c-13.3-7-20.1-14-20.1-20.9c0-4.6,1.4-8.3,4.3-11.3
              c3.7-3.7,9.4-5.6,16.9-5.6c11.3,0,25.7,3.7,42.8,11l3.8,1.6l12.3-35.3l-3.5-1.4c-21.6-8.6-40.3-13-55.5-13
              c-15.9,0-29.9,4.2-41.7,12.6c-14,10.1-21.1,24-21.1,41.2c0,18.2,8.1,33.2,24,44.7c0.7,0.6,2.9,2.1,41.8,22.4
              c13.5,7.2,20.3,14.6,20.3,22.2c0,6.1-2.1,10.8-6.4,14.6c-5,4.2-12.2,6.4-21.3,6.4c-11.4,0-27.4-4.8-47.5-14.2l-3.8-1.8l-13,33.5
              l2.9,1.7c20.5,11.8,41.1,17.8,61.4,17.8c17.9,0,33.5-4.8,46.6-14.2c14.9-10.8,22.4-25.5,22.4-43.6
              C1319.1,436.5,1311.1,421.1,1295.4,409.2z"></path>
            <polygon fill="#0B3F7A" points="1332.4,314.3 1332.4,351.9 1382.2,351.9 1382.2,510.2 1423.1,510.2 1423.4,351.9 1473,351.9
              1473,314.3  "></polygon>
            <path fill="#0B3F7A" d="M1255.3,205.4h21.3c21.1,0,38.2-5.6,50.8-16.5c12.8-11.1,19.2-26.8,19.2-46.7c0-19.7-6.5-35.3-19.4-46.4
              c-12.7-11-29.7-16.5-50.7-16.5h-61.8v195.9h40.5V205.4z M1255.3,116.4h17.8c13.2,0,22.4,2.4,27.2,7.1l0.1,0.1
              c3.9,3.6,5.8,9.8,5.8,18.6c0,9.2-1.9,15.8-5.7,19.5c-4.9,4.7-14.1,7.1-27.5,7.1h-17.8V116.4z"></path>
            <path fill="#0B3F7A" d="M1087.9,278.1c29.5,0,54.3-10.1,73.8-29.9c18.7-19.3,28.2-43.3,28.2-71.3c0-27.8-9.5-51.7-28.2-71
              c-19.5-19.7-44.3-29.6-73.8-29.6c-29.3,0-53.9,9.9-72.9,29.4c-19,19.5-28.6,43.4-28.6,71.3c0,28,9.5,52,28.2,71.3
              C1033.9,268,1058.5,278.1,1087.9,278.1z M1131.8,222.1L1131.8,222.1c-11.5,12.7-25.9,18.9-43.9,18.9c-18,0-32.3-6.2-43.6-18.8l0,0
              c-11-12.1-16.6-27.3-16.6-45.2c0-17.9,5.6-33.2,16.8-45.3c11.2-12.2,25.4-18.2,43.5-18.2c18.1,0,32.4,6,43.8,18.2
              c11.3,12.2,17,27.4,17,45.3C1148.7,194.8,1143,210,1131.8,222.1z"></path>
            <path fill="#0B3F7A" d="M880.6,203h6.9l44.8,72.2h46.3l-48.1-78.6c23.8-9.6,35.9-28.3,35.9-55.7c0-19.4-6.6-34.7-19.7-45.5
              c-12.9-10.7-30-16.1-50.9-16.1h-55.6v195.9h40.4V203z M920.4,158.9c-4.9,4.5-14.2,6.8-27.8,6.8h-11.9v-49.4h11.9
              c13.4,0,22.8,2.2,27.9,6.6c3.8,3.6,5.8,9.6,5.8,17.8C926.2,149.3,924.3,155.3,920.4,158.9z"></path>
          </g>
        </svg>