<?xml version="1.0" encoding="UTF-8" standalone="no"?>
<!-- Created with Inkscape (http://www.inkscape.org/) -->

<svg
   xmlns:dc="http://purl.org/dc/elements/1.1/"
   xmlns:cc="http://creativecommons.org/ns#"
   xmlns:rdf="http://www.w3.org/1999/02/22-rdf-syntax-ns#"
   xmlns:svg="http://www.w3.org/2000/svg"
   xmlns="http://www.w3.org/2000/svg"
   xmlns:sodipodi="http://sodipodi.sourceforge.net/DTD/sodipodi-0.dtd"
   xmlns:inkscape="http://www.inkscape.org/namespaces/inkscape"
   width="11.906248mm"
   height="5.5876751mm"
   viewBox="0 0 11.906248 5.5876751"
   version="1.1"
   id="svg1031"
   inkscape:version="0.92.4 (5da689c313, 2019-01-14)"
   sodipodi:docname="crp-maize.svg">
  <defs
     id="defs1025" />
  <sodipodi:namedview
     id="base"
     pagecolor="#ffffff"
     bordercolor="#666666"
     borderopacity="1.0"
     inkscape:pageopacity="0.0"
     inkscape:pageshadow="2"
     inkscape:zoom="31.678384"
     inkscape:cx="28.345742"
     inkscape:cy="8.0226525"
     inkscape:document-units="mm"
     inkscape:current-layer="layer1"
     showgrid="false"
     fit-margin-top="0"
     fit-margin-left="0"
     fit-margin-right="0"
     fit-margin-bottom="0"
     inkscape:window-width="3440"
     inkscape:window-height="1377"
     inkscape:window-x="-8"
     inkscape:window-y="-8"
     inkscape:window-maximized="1" />
  <metadata
     id="metadata1028">
    <rdf:RDF>
      <cc:Work
         rdf:about="">
        <dc:format>image/svg+xml</dc:format>
        <dc:type
           rdf:resource="http://purl.org/dc/dcmitype/StillImage" />
        <dc:title></dc:title>
      </cc:Work>
    </rdf:RDF>
  </metadata>
  <g
     inkscape:label="Layer 1"
     inkscape:groupmode="layer"
     id="layer1"
     transform="translate(21.433744,-75.262317)">
    <g
       id="g4950"
       transform="matrix(0.03134213,0,0,0.03134213,-21.433744,75.262317)">
      <path
         id="path4827"
         transform="translate(-115.8,-326.74)"
         d="m 315.21,366.62 h 8 c 3,0 5.45,1.36 5.45,4.26 a 4,4 0 0 1 -3.24,4.26 v 0.05 c 1.45,0.38 1.54,1.66 2.39,3.72 l 1.64,4.6 h -4.69 l -1,-3.05 c -0.92,-2.9 -1.49,-3.63 -3.16,-3.63 h -1 v 6.68 h -4.5 z m 4.5,7 h 1.19 c 1.45,0 3.29,-0.05 3.29,-2 0,-1.57 -1.57,-1.86 -3.29,-1.86 h -1.19 z"
         class="cls-1"
         inkscape:connector-curvature="0"
         style="fill:#231f20" />
      <polygon
         id="polygon4829"
         points="221.32,43.08 221.32,46.56 228.31,46.56 228.31,49.75 221.32,49.75 221.32,53.57 228.99,53.57 228.99,56.77 216.82,56.77 216.82,39.88 228.72,39.88 228.72,43.08 "
         class="cls-1"
         style="fill:#231f20" />
      <path
         id="path4831"
         transform="translate(-115.8,-326.74)"
         d="m 348.64,379.35 a 10,10 0 0 0 4.65,1.11 c 1.42,0 2.78,-0.29 2.78,-1.65 0,-3.14 -8,-1.16 -8,-7.3 0,-4.06 4,-5.18 7.35,-5.18 a 14.13,14.13 0 0 1 4.35,0.63 l -0.29,3.49 a 8.91,8.91 0 0 0 -3.75,-0.78 c -1.13,0 -3,0.1 -3,1.57 0,2.74 8,0.9 8,7 0,4.38 -3.67,5.56 -7.42,5.56 a 17.73,17.73 0 0 1 -5,-0.72 z"
         class="cls-1"
         inkscape:connector-curvature="0"
         style="fill:#231f20" />
      <polygon
         id="polygon4833"
         points="253.09,43.08 253.09,46.56 260.08,46.56 260.08,49.75 253.09,49.75 253.09,53.57 260.76,53.57 260.76,56.77 248.59,56.77 248.59,39.88 260.49,39.88 260.49,43.08 "
         class="cls-1"
         style="fill:#231f20" />
      <path
         id="path4835"
         transform="translate(-115.8,-326.74)"
         d="m 385.66,366.62 h 5.51 l 6.51,16.89 h -4.93 l -1.26,-3.61 h -6.34 l -1.33,3.61 h -4.57 z m 2.75,3.49 v 0 l -2.18,6.6 h 4.23 z"
         class="cls-1"
         inkscape:connector-curvature="0"
         style="fill:#231f20" />
      <path
         id="path4837"
         transform="translate(-115.8,-326.74)"
         d="m 400.54,366.62 h 8 c 3,0 5.44,1.36 5.44,4.26 a 4,4 0 0 1 -3.24,4.26 v 0.05 c 1.45,0.38 1.55,1.66 2.39,3.72 l 1.65,4.6 h -4.69 l -1,-3.05 c -0.92,-2.9 -1.5,-3.63 -3.17,-3.63 H 405 v 6.68 h -4.5 z m 4.5,7 h 1.18 c 1.45,0 3.29,-0.05 3.29,-2 0,-1.57 -1.57,-1.86 -3.29,-1.86 H 405 Z"
         class="cls-1"
         inkscape:connector-curvature="0"
         style="fill:#231f20" />
      <path
         id="path4839"
         transform="translate(-115.8,-326.74)"
         d="m 431.71,383.12 a 18.94,18.94 0 0 1 -5,0.67 c -4.5,0 -9.7,-2.27 -9.7,-8.65 0,-5.88 4.11,-8.81 9.68,-8.81 a 17.28,17.28 0 0 1 5,0.88 l -0.36,3.65 a 8.82,8.82 0 0 0 -4.4,-1.19 5.14,5.14 0 0 0 -5.28,5.47 c 0,3.31 2.35,5.32 5.64,5.32 a 11.92,11.92 0 0 0 4.21,-0.87 z"
         class="cls-1"
         inkscape:connector-curvature="0"
         style="fill:#231f20" />
      <polygon
         id="polygon4841"
         points="329.21,46.34 329.21,39.88 333.71,39.88 333.71,56.77 329.21,56.77 329.21,49.53 323.89,49.53 323.89,56.77 319.4,56.77 319.4,39.88 323.89,39.88 323.89,46.34 "
         class="cls-1"
         style="fill:#231f20" />
      <path
         id="path4843"
         transform="translate(-115.8,-326.74)"
         d="m 315.09,395.65 h 5.37 c 5.15,0 7.57,1.74 7.57,5.53 0,3.42 -2.49,5.45 -6.7,5.45 h -1.74 v 5.9 h -4.5 z m 4.5,7.78 h 1.16 c 1.55,0 2.78,-0.55 2.78,-2.32 0,-1.77 -1.23,-2.27 -2.78,-2.27 h -1.16 z"
         class="cls-1"
         inkscape:connector-curvature="0"
         style="fill:#231f20" />
      <path
         id="path4845"
         transform="translate(-115.8,-326.74)"
         d="m 331,395.65 h 8 c 3,0 5.44,1.35 5.44,4.25 a 4,4 0 0 1 -3.24,4.26 v 0 c 1.45,0.38 1.55,1.67 2.39,3.72 l 1.65,4.6 h -4.7 l -1,-3 c -0.92,-2.9 -1.5,-3.63 -3.17,-3.63 h -1 v 6.68 H 331 Z m 4.49,7 h 1.19 c 1.45,0 3.29,-0.05 3.29,-2 0,-1.57 -1.57,-1.86 -3.29,-1.86 h -1.19 z"
         class="cls-1"
         inkscape:connector-curvature="0"
         style="fill:#231f20" />
      <path
         id="path4847"
         transform="translate(-115.8,-326.74)"
         d="m 356.05,395.36 c 5.56,0 8.46,3.31 8.46,8.72 0,5.41 -2.95,8.74 -8.46,8.74 -5.51,0 -8.47,-3.36 -8.47,-8.74 0,-5.38 2.9,-8.72 8.47,-8.72 m 0,14.12 c 2.73,0 3.82,-2.61 3.82,-5.4 0,-2.79 -1.09,-5.39 -3.82,-5.39 -2.73,0 -3.83,2.47 -3.83,5.39 0,2.92 1.09,5.4 3.83,5.4"
         class="cls-1"
         inkscape:connector-curvature="0"
         style="fill:#231f20" />
      <path
         id="path4849"
         transform="translate(-115.8,-326.74)"
         d="m 383.72,412 a 24.79,24.79 0 0 1 -6.53,0.78 c -4.5,0 -9.7,-2.27 -9.7,-8.66 0,-6.39 4.48,-8.8 10.67,-8.8 a 16.23,16.23 0 0 1 5.1,0.75 l -0.36,3.67 a 8.6,8.6 0 0 0 -4.11,-1.09 c -3.66,0 -6.66,1.53 -6.66,5.47 0,3.31 2.35,5.32 5.64,5.32 a 3.8,3.8 0 0 0 1.59,-0.29 v -3.34 h -2.63 v -3.19 h 7 z"
         class="cls-1"
         inkscape:connector-curvature="0"
         style="fill:#231f20" />
      <path
         id="path4851"
         transform="translate(-115.8,-326.74)"
         d="m 388.06,395.65 h 8 c 3,0 5.44,1.35 5.44,4.25 a 4,4 0 0 1 -3.24,4.26 v 0 c 1.45,0.38 1.54,1.67 2.39,3.72 l 1.65,4.6 h -4.7 l -1,-3 c -0.91,-2.9 -1.49,-3.63 -3.16,-3.63 h -0.95 v 6.68 h -4.5 z m 4.5,7 h 1.19 c 1.45,0 3.29,-0.05 3.29,-2 0,-1.57 -1.57,-1.86 -3.29,-1.86 h -1.19 z"
         class="cls-1"
         inkscape:connector-curvature="0"
         style="fill:#231f20" />
      <path
         id="path4853"
         transform="translate(-115.8,-326.74)"
         d="m 411.09,395.65 h 5.51 l 6.51,16.88 h -4.94 l -1.25,-3.61 h -6.34 l -1.33,3.61 h -4.57 z m 2.76,3.48 h -0.05 l -2.18,6.6 h 4.23 z"
         class="cls-1"
         inkscape:connector-curvature="0"
         style="fill:#231f20" />
      <polygon
         id="polygon4855"
         points="320.89,80.13 324.64,68.91 331.46,68.91 331.46,85.79 327.06,85.79 327.13,72.82 327.08,72.82 322.77,85.79 318.64,85.79 314.52,72.82 314.47,72.82 314.57,85.79 310.17,85.79 310.17,68.91 317.26,68.91 320.84,80.13 "
         class="cls-1"
         style="fill:#231f20" />
      <path
         id="path4857"
         transform="translate(-115.8,-326.74)"
         d="m 467.93,395.36 c 5.56,0 8.46,3.31 8.46,8.72 0,5.41 -2.95,8.74 -8.46,8.74 -5.51,0 -8.47,-3.36 -8.47,-8.74 0,-5.38 2.91,-8.72 8.47,-8.72 m 0,14.12 c 2.73,0 3.82,-2.61 3.82,-5.4 0,-2.79 -1.09,-5.39 -3.82,-5.39 -2.73,0 -3.82,2.47 -3.82,5.39 0,2.92 1.09,5.4 3.82,5.4"
         class="cls-1"
         inkscape:connector-curvature="0"
         style="fill:#231f20" />
      <polygon
         id="polygon4859"
         points="375.85,80.37 375.77,68.91 379.88,68.91 379.88,85.79 374.3,85.79 368.4,74.25 368.35,74.25 368.49,85.79 364.36,85.79 364.36,68.91 370.09,68.91 375.8,80.37 "
         class="cls-1"
         style="fill:#231f20" />
      <rect
         id="rect4861"
         height="177.81"
         width="3.1400001"
         x="175.14999"
         class="cls-1"
         y="0"
         style="fill:#231f20" />
      <path
         id="path4863"
         transform="translate(-115.8,-326.74)"
         d="m 184,398.78 c -8.47,-3.45 -10,-2.77 -8.9,-15.65 10,6.13 9.32,8.39 8.92,15.62 m 2.56,-12.56 c -1.66,-2.13 -5.61,-5.6 -7.67,-7.67 -3.19,-3.18 -4,-4.12 -4,-9.54 V 345.9 c 0,-3.3 -5.07,-2.83 -5.07,0.12 0,0 -0.36,40.2 0,43.61 0.36,3.41 -1.34,6.09 4.13,9.56 6,3.83 14.73,6.36 14.73,6.36 0,0 0.12,-8.84 0.24,-12.14 a 9.71,9.71 0 0 0 -2.35,-7.19"
         class="cls-1"
         inkscape:connector-curvature="0"
         style="fill:#231f20" />
      <path
         id="path4865"
         transform="translate(-115.8,-326.74)"
         d="m 207.8,383.16 c 1.06,12.88 -0.43,12.21 -8.9,15.65 -0.4,-7.23 -1.1,-9.49 8.92,-15.62 M 194,393.41 c 0.12,3.3 0.24,12.14 0.24,12.14 0,0 8.69,-2.53 14.73,-6.36 5.47,-3.47 3.77,-6.14 4.13,-9.55 0.36,-3.41 0,-43.62 0,-43.62 0,-2.95 -5.07,-3.42 -5.07,-0.12 V 369 c 0,5.43 -0.82,6.37 -4,9.55 -2.06,2.07 -6,5.55 -7.66,7.67 a 9.67,9.67 0 0 0 -2.36,7.19"
         class="cls-1"
         inkscape:connector-curvature="0"
         style="fill:#231f20" />
      <path
         id="path4867"
         transform="translate(-115.8,-326.74)"
         d="m 191.6,377.58 c -9.77,-5.22 -2.78,-12.3 0,-17 l 0.25,0.39 c 7.17,10.74 5.22,12.35 -0.25,16.6 m 6.56,-14.86 c -3,-5.28 0,0 -4.08,-6.88 v -25.5 c 0,-4 -5,-3.67 -5,0 l 0.06,25.47 c 0,0 -4.3,7.22 -5.49,10.1 -1.19,2.88 -2.82,6.34 1.26,11 0.3,0.36 0.82,1.34 6.77,6.91 l 0.12,-0.13 c 0,0 0,0 5.2,-5.2 6.47,-6.39 4.15,-10.47 1.2,-15.74"
         class="cls-1"
         inkscape:connector-curvature="0"
         style="fill:#231f20" />
      <path
         id="path4869"
         transform="translate(-115.8,-326.74)"
         d="m 184.17,419.81 c -7.59,-2.91 -12.64,-3.66 -26.29,-6.4 -13.65,-2.74 -21.82,-5.26 -29.2,-13 11.86,4.55 30.85,6.2 41.21,8.39 10.36,2.19 13.18,4.88 14.29,11 z m 4.39,-2.43 c -0.25,-5 -2,-9.43 -12.27,-13.27 -8.6,-3.22 -20.77,-3.92 -29.61,-5.34 -8.84,-1.42 -23.54,-3.83 -30.88,-10.84 5.5,18.3 19.3,25.95 33.29,28.95 15.85,3.39 30.07,4.82 38.71,10.82 l 0.88,0.61 c -0.49,-4.23 0.13,-5.93 -0.12,-10.93"
         class="cls-1"
         inkscape:connector-curvature="0"
         style="fill:#231f20" />
      <path
         id="path4871"
         transform="translate(-115.8,-326.74)"
         d="m 198.61,419.8 c 1.1,-6.14 3.93,-8.82 14.29,-11 10.36,-2.18 29.35,-3.84 41.2,-8.39 -7.38,7.77 -15.54,10.28 -29.19,13 -13.65,2.72 -18.71,3.49 -26.29,6.4 z m -4.5,8.51 0.88,-0.61 c 8.64,-6 22.85,-7.43 38.7,-10.82 14,-3 27.79,-10.65 33.29,-29 -7.34,7 -22,9.43 -30.87,10.85 -8.87,1.42 -21,2.12 -29.62,5.34 -10.24,3.84 -12,8.26 -12.26,13.27 -0.26,5.01 0.37,6.71 -0.12,10.93"
         class="cls-1"
         inkscape:connector-curvature="0"
         style="fill:#231f20" />
      <path
         id="path4873"
         transform="translate(-115.8,-326.74)"
         d="m 183.25,452 h -6.72 a 60.48,60.48 0 0 0 -0.23,-7.56 c -0.52,-6.31 -7.88,-6.86 -20,-10.22 -8.3,-2.31 -19.14,-5.3 -24,-13.6 a 87.29,87.29 0 0 0 18.49,5.77 c 9.16,1.89 14.4,2.95 22.83,4.71 8,1.67 9.6,6.59 9.6,12 z M 188,440.64 c 0.11,-9.84 -5.53,-12.61 -13.94,-14.82 C 165.65,423.61 154,422 144,419.08 134,416.16 128.55,414.33 121.8,407 c 1.44,14.26 11.39,24.32 23.67,28.63 12.28,4.31 11.61,3.43 18.24,5.09 6.63,1.66 7.85,4.09 7.85,8.18 v 8.4 H 188 c 0.33,-19 -0.11,-6.85 0,-16.69"
         class="cls-1"
         inkscape:connector-curvature="0"
         style="fill:#231f20" />
      <path
         id="path4875"
         transform="translate(-115.8,-326.74)"
         d="m 199.23,443.14 c 0,-5.42 1.57,-10.34 9.6,-12 8.43,-1.76 13.67,-2.83 22.84,-4.71 a 87,87 0 0 0 18.47,-5.77 c -4.84,8.3 -15.68,11.29 -24,13.6 -12.1,3.35 -19.45,3.91 -20,10.21 A 62.1,62.1 0 0 0 206,452 h -6.72 z m -4.78,14.22 h 16.47 V 449 c 0,-4.09 1.22,-6.52 7.86,-8.18 6.64,-1.66 6,-0.78 18.23,-5.09 12.23,-4.31 22.23,-14.37 23.67,-28.64 -6.75,7.3 -12.28,9.18 -22.22,12.06 -9.94,2.88 -21.67,4.53 -30.08,6.74 -8.41,2.21 -14,5 -13.93,14.82 0.07,9.82 -0.34,-2.33 0,16.69"
         class="cls-1"
         inkscape:connector-curvature="0"
         style="fill:#231f20" />
      <path
         id="path4877"
         transform="translate(-115.8,-326.74)"
         d="m 154.29,504.11 a 29.32,29.32 0 0 1 -6.6,0.91 c -9.36,0 -15.87,-4.68 -15.87,-14.46 0,-9.78 6.05,-15.45 15.87,-15.45 a 19.06,19.06 0 0 1 6.55,1.2 l -0.41,4.89 a 12,12 0 0 0 -6.26,-1.54 c -6,0 -9.7,4.56 -9.7,10.49 0,5.93 3.65,10.31 9.82,10.31 a 16.26,16.26 0 0 0 6.35,-1.19 z"
         class="cls-1"
         inkscape:connector-curvature="0"
         style="fill:#231f20" />
      <path
         id="path4879"
         transform="translate(-115.8,-326.74)"
         d="m 181.13,481.2 a 18.79,18.79 0 0 0 -7.45,-1.53 c -6.76,0 -10.49,4.55 -10.49,10.48 0,5.93 3.65,10.32 9.82,10.32 a 15.66,15.66 0 0 0 3.82,-0.42 v -7.54 h -6.14 V 488 h 11.69 v 15.58 A 36.48,36.48 0 0 1 173,505 c -9.36,0 -15.87,-4.68 -15.87,-14.46 0,-9.78 6.05,-15.45 15.87,-15.45 a 28.46,28.46 0 0 1 8.5,1.2 z"
         class="cls-1"
         inkscape:connector-curvature="0"
         style="fill:#231f20" />
      <rect
         id="rect4881"
         height="29.08"
         width="5.8299999"
         y="148.78999"
         x="72.68"
         class="cls-1"
         style="fill:#231f20" />
      <path
         id="path4883"
         transform="translate(-115.8,-326.74)"
         d="m 197.57,504.61 h 6 l 2.54,-6.67 h 11.8 l 2.49,6.67 h 6.46 l -11.42,-29.08 h -6.58 z m 18.74,-11.25 h -8.5 l 4.21,-12 h 0.08 z"
         class="cls-1"
         inkscape:connector-curvature="0"
         style="fill:#231f20" />
      <rect
         id="rect4885"
         height="29.08"
         width="5.8299999"
         y="148.78999"
         x="72.68"
         class="cls-1"
         style="fill:#231f20" />
      <path
         id="path4887"
         transform="translate(-115.8,-326.74)"
         d="m 197.57,504.61 h 6 l 2.54,-6.67 h 11.8 l 2.49,6.67 h 6.46 l -11.42,-29.08 h -6.58 z m 18.74,-11.25 h -8.5 l 4.21,-12 h 0.08 z"
         class="cls-1"
         inkscape:connector-curvature="0"
         style="fill:#231f20" />
      <rect
         id="rect4889"
         height="29.08"
         width="5.8299999"
         y="148.78999"
         x="72.68"
         class="cls-1"
         style="fill:#231f20" />
      <path
         id="path4891"
         transform="translate(-115.8,-326.74)"
         d="m 197.57,504.61 h 6 l 2.54,-6.67 h 11.8 l 2.49,6.67 h 6.46 l -11.42,-29.08 h -6.58 z m 18.74,-11.25 h -8.5 l 4.21,-12 h 0.08 z"
         class="cls-1"
         inkscape:connector-curvature="0"
         style="fill:#231f20" />
      <path
         id="path4893"
         transform="translate(-115.8,-326.74)"
         d="m 229.5,504.61 h 5.83 v -12.09 h 1.87 c 2.46,0 3.21,0.84 4.05,3 l 3.5,9.09 h 6.49 l -4.66,-11.38 c -0.59,-1.29 -1.5,-2.87 -3.09,-3 v -0.09 a 6.65,6.65 0 0 0 6,-6.75 c 0,-8.08 -7.46,-7.87 -13.71,-7.87 h -6.28 z m 5.83,-24.5 h 1.92 c 2.92,0 6.17,0.29 6.17,3.79 0,3.5 -3.3,4 -6.17,4 h -1.92 z"
         class="cls-1"
         inkscape:connector-curvature="0"
         style="fill:#231f20" />
      <path
         id="path4895"
         transform="translate(-115.8,-326.74)"
         d="m 340.2,445.39 c -0.23,-3.84 -0.51,-8.5 -0.51,-11.88 h -0.1 c -1.12,3.18 -2.37,6.65 -3.95,10.45 l -5.54,13.35 H 327 l -5.12,-13.11 c -1.49,-3.92 -2.7,-7.43 -3.58,-10.69 h -0.1 c -0.09,3.43 -0.33,8 -0.6,12.16 l -0.84,11.8 H 312.9 L 315.11,430 h 5.17 l 5.35,13.31 c 1.3,3.39 2.33,6.42 3.16,9.27 h 0.1 c 0.84,-2.77 1.95,-5.79 3.35,-9.27 L 337.83,430 H 343 l 2,27.52 h -4 z"
         class="cls-1"
         inkscape:connector-curvature="0"
         style="fill:#231f20" />
      <path
         id="path4897"
         transform="translate(-115.8,-326.74)"
         d="m 366.71,452.74 a 32.08,32.08 0 0 0 0.3,4.73 h -3.29 l -0.29,-2.49 h -0.13 a 7.53,7.53 0 0 1 -6.16,2.94 c -4.09,0 -6.17,-2.81 -6.17,-5.67 0,-4.78 4.33,-7.39 12.12,-7.35 v -0.41 c 0,-1.59 -0.46,-4.57 -4.58,-4.53 a 9.85,9.85 0 0 0 -5.29,1.47 l -0.83,-2.41 a 13.26,13.26 0 0 1 6.66,-1.72 c 6.17,0 7.66,4.13 7.66,8.05 z m -3.53,-5.35 c -4,-0.08 -8.54,0.61 -8.54,4.45 a 3.18,3.18 0 0 0 3.41,3.43 5.08,5.08 0 0 0 5,-3.31 4.15,4.15 0 0 0 0.17,-1.14 z"
         class="cls-1"
         inkscape:connector-curvature="0"
         style="fill:#231f20" />
      <path
         id="path4899"
         transform="translate(-115.8,-326.74)"
         d="m 378.38,432.16 a 2.17,2.17 0 0 1 -2.33,2.2 2.13,2.13 0 0 1 -2.21,-2.2 2.21,2.21 0 0 1 2.29,-2.25 2.18,2.18 0 0 1 2.25,2.25 z m -4.08,25.31 v -19.76 h 3.7 v 19.76 z"
         class="cls-1"
         inkscape:connector-curvature="0"
         style="fill:#231f20" />
      <path
         id="path4901"
         transform="translate(-115.8,-326.74)"
         d="m 383.42,455.39 9.08,-11.63 c 0.91,-1.11 1.75,-2.05 2.66,-3.11 v -0.08 h -10.91 v -2.86 h 15.33 V 440 l -9,11.47 c -0.87,1.1 -1.67,2.12 -2.58,3.1 v 0.09 h 11.74 v 2.85 h -16.32 z"
         class="cls-1"
         inkscape:connector-curvature="0"
         style="fill:#231f20" />
      <path
         id="path4903"
         transform="translate(-115.8,-326.74)"
         d="m 407,448.24 c 0.08,4.86 3.2,6.87 6.91,6.87 a 13.33,13.33 0 0 0 5.58,-1 l 0.67,2.57 a 16.75,16.75 0 0 1 -6.75,1.26 c -6.21,0 -9.91,-4 -9.91,-10 0,-6 3.58,-10.62 9.46,-10.62 6.62,0 8.32,5.64 8.32,9.27 a 8.79,8.79 0 0 1 -0.12,1.67 z m 10.74,-2.57 c 0.05,-2.24 -1,-5.8 -5.08,-5.8 -3.75,0 -5.33,3.31 -5.62,5.8 z"
         class="cls-1"
         inkscape:connector-curvature="0"
         style="fill:#231f20" />
    </g>
  </g>
</svg>
