<?xml version="1.0" encoding="UTF-8" standalone="no"?>
<!-- Created with Inkscape (http://www.inkscape.org/) -->

<svg
   xmlns:dc="http://purl.org/dc/elements/1.1/"
   xmlns:cc="http://creativecommons.org/ns#"
   xmlns:rdf="http://www.w3.org/1999/02/22-rdf-syntax-ns#"
   xmlns:svg="http://www.w3.org/2000/svg"
   xmlns="http://www.w3.org/2000/svg"
   xmlns:sodipodi="http://sodipodi.sourceforge.net/DTD/sodipodi-0.dtd"
   xmlns:inkscape="http://www.inkscape.org/namespaces/inkscape"
   width="11.90625mm"
   height="5.5767593mm"
   viewBox="0 0 11.90625 5.5767593"
   version="1.1"
   id="svg1031"
   inkscape:version="0.92.4 (5da689c313, 2019-01-14)"
   sodipodi:docname="crp-wheat.svg">
  <defs
     id="defs1025" />
  <sodipodi:namedview
     id="base"
     pagecolor="#ffffff"
     bordercolor="#666666"
     borderopacity="1.0"
     inkscape:pageopacity="0.0"
     inkscape:pageshadow="2"
     inkscape:zoom="31.678384"
     inkscape:cx="45.904607"
     inkscape:cy="4.2502281"
     inkscape:document-units="mm"
     inkscape:current-layer="layer1"
     showgrid="false"
     fit-margin-top="0"
     fit-margin-left="0"
     fit-margin-right="0"
     fit-margin-bottom="0"
     inkscape:window-width="3440"
     inkscape:window-height="1377"
     inkscape:window-x="-8"
     inkscape:window-y="-8"
     inkscape:window-maximized="1" />
  <metadata
     id="metadata1028">
    <rdf:RDF>
      <cc:Work
         rdf:about="">
        <dc:format>image/svg+xml</dc:format>
        <dc:type
           rdf:resource="http://purl.org/dc/dcmitype/StillImage" />
        <dc:title></dc:title>
      </cc:Work>
    </rdf:RDF>
  </metadata>
  <g
     inkscape:label="Layer 1"
     inkscape:groupmode="layer"
     id="layer1"
     transform="translate(26.079527,-74.275112)">
    <g
       transform="matrix(0.03272746,0,0,0.03272746,-26.341347,73.898746)"
       id="g84"
       style="fill:#4a7628;fill-opacity:1">
      <path
         inkscape:connector-curvature="0"
         class="st0"
         d="m 73.1,80.4 c 0,0 0,0 0,0 -8.1,-3.3 -9.5,-2.6 -8.5,-14.9 9.6,5.8 8.9,7.9 8.5,14.9 M 75.6,68.3 C 74,66.3 70.3,63 68.3,61 65.3,58 64.5,57.1 64.5,51.9 V 29.8 c 0,-3.2 -4.8,-2.7 -4.8,0.1 0,0 -0.3,38.4 0,41.7 0.3,3.3 -1.3,5.8 3.9,9.1 5.8,3.7 14.1,6.1 14.1,6.1 0,0 0.1,-8.4 0.2,-11.6 0,-3.1 -0.8,-4.8 -2.3,-6.9"
         id="path4"
         style="fill:#4a7628;fill-opacity:1" />
      <path
         inkscape:connector-curvature="0"
         class="st0"
         d="m 95.8,65.4 c 1,12.3 -0.4,11.7 -8.5,15 0,0 0,0 0,0 -0.4,-7 -1,-9.1 8.5,-15 m -13.2,9.8 c 0.1,3.2 0.2,11.6 0.2,11.6 0,0 8.3,-2.4 14.1,-6.1 5.2,-3.3 3.6,-5.9 3.9,-9.1 0.3,-3.3 0,-41.7 0,-41.7 0,-2.8 -4.8,-3.3 -4.8,-0.1 v 22.1 c 0,5.2 -0.8,6.1 -3.8,9.1 -2,2 -5.7,5.3 -7.3,7.3 -1.6,2.1 -2.4,3.8 -2.3,6.9"
         id="path6"
         style="fill:#4a7628;fill-opacity:1" />
      <path
         inkscape:connector-curvature="0"
         class="st0"
         d="m 80.4,60.1 c -9.3,-5 -2.7,-11.8 0,-16.2 l 0.2,0.4 c 6.8,10.2 5,11.7 -0.2,15.8 m 6.2,-14.2 c -2.8,-5 0,0 -3.9,-6.6 V 15 c 0,-3.8 -4.8,-3.5 -4.8,0 L 78,39.3 c 0,0 -4.1,6.9 -5.2,9.7 -1.1,2.7 -2.7,6 1.2,10.5 0.3,0.3 0.8,1.3 6.5,6.6 0,0 0.1,-0.1 0.1,-0.1 0,0 0,0 5,-5 6.1,-6.2 3.8,-10.1 1,-15.1"
         id="path8"
         style="fill:#4a7628;fill-opacity:1" />
      <path
         inkscape:connector-curvature="0"
         class="st0"
         d="m 73.3,100.4 c -7.2,-2.8 -12.1,-3.5 -25.1,-6.1 -13,-2.6 -20.8,-5 -27.9,-12.4 11.3,4.3 29.5,5.9 39.4,8 9.8,2.1 12.5,4.7 13.6,10.5 z m 4.2,-2.3 C 77.3,93.3 75.6,89.1 65.8,85.4 57.6,82.3 46,81.7 37.5,80.3 29,79 15,76.7 8,70 c 5.3,17.5 18.4,24.8 31.8,27.7 15.1,3.2 28.7,4.6 37,10.3 l 0.8,0.6 c -0.5,-4.1 0.1,-5.7 -0.1,-10.5"
         id="path10"
         style="fill:#4a7628;fill-opacity:1" />
      <path
         inkscape:connector-curvature="0"
         class="st0"
         d="m 87,100.4 c 1.1,-5.9 3.8,-8.4 13.6,-10.5 9.9,-2.1 28,-3.7 39.4,-8 -7,7.4 -14.8,9.8 -27.9,12.4 -13,2.6 -17.8,3.4 -25.1,6.1 z m -4.2,8.2 0.8,-0.6 c 8.3,-5.7 21.8,-7.1 37,-10.3 13.4,-2.9 26.5,-10.2 31.8,-27.7 -7,6.7 -21,9 -29.5,10.4 -8.4,1.4 -20.1,2 -28.3,5.1 -9.8,3.7 -11.5,7.9 -11.7,12.7 -0.3,4.7 0.3,6.3 -0.1,10.4"
         id="path12"
         style="fill:#4a7628;fill-opacity:1" />
      <path
         inkscape:connector-curvature="0"
         class="st0"
         d="M 72.4,131.2 H 66 c 0,0 0.1,-2.7 -0.2,-7.2 -0.5,-6 -7.5,-6.6 -19.1,-9.8 -7.9,-2.2 -18.3,-5.1 -22.9,-13 2.8,1.2 8.4,3.6 17.7,5.5 8.8,1.8 13.8,2.8 21.8,4.5 7.7,1.6 9.2,6.3 9.2,11.5 v 8.5 z M 77,120.3 c 0.1,-9.4 -5.3,-12 -13.3,-14.2 C 55.7,104 44.5,102.4 35,99.7 25.5,97 20.2,95.2 13.8,88.2 c 1.4,13.6 10.9,23.2 22.6,27.4 11.7,4.1 11.1,3.3 17.4,4.9 6.3,1.6 7.5,3.9 7.5,7.8 v 8 H 77 c 0.3,-18.2 -0.2,-6.6 0,-16"
         id="path14"
         style="fill:#4a7628;fill-opacity:1" />
      <path
         inkscape:connector-curvature="0"
         class="st0"
         d="m 87.6,122.7 c 0,-5.2 1.5,-9.9 9.2,-11.5 8.1,-1.7 13.1,-2.7 21.8,-4.5 9.2,-1.9 14.8,-4.3 17.6,-5.5 -4.6,7.9 -15,10.8 -22.9,13 -11.6,3.2 -18.6,3.7 -19.1,9.8 -0.4,4.6 -0.2,7.2 -0.2,7.2 h -6.4 z m -4.5,13.6 h 15.7 v -8 c 0,-3.9 1.2,-6.2 7.5,-7.8 6.3,-1.6 5.7,-0.7 17.4,-4.9 11.7,-4.1 21.2,-13.7 22.6,-27.4 -6.4,7 -11.7,8.8 -21.2,11.5 -9.5,2.7 -20.7,4.3 -28.7,6.4 -8,2.1 -13.4,4.8 -13.3,14.2 0.1,9.5 -0.3,-2.2 0,16"
         id="path16"
         style="fill:#4a7628;fill-opacity:1" />
      <path
         inkscape:connector-curvature="0"
         class="st0"
         d="m 44.7,181 c -2,0.5 -4.2,0.9 -6.3,0.9 -8.9,0 -15.2,-4.5 -15.2,-13.8 0,-9.5 5.8,-14.8 15.2,-14.8 1.8,0 4.2,0.4 6.3,1.1 l -0.4,4.7 c -2.1,-1.2 -4,-1.5 -6,-1.5 -5.7,0 -9.3,4.4 -9.3,10 0,5.6 3.5,9.9 9.4,9.9 2.2,0 4.8,-0.5 6.1,-1.1 z"
         id="path18"
         style="fill:#4a7628;fill-opacity:1" />
      <path
         inkscape:connector-curvature="0"
         class="st0"
         d="m 70.4,159.1 c -2.1,-1 -4.9,-1.5 -7.1,-1.5 -6.5,0 -10,4.3 -10,10 0,5.6 3.5,9.9 9.4,9.9 1.5,0 2.7,-0.2 3.6,-0.4 v -7.2 h -5.9 v -4.4 h 11.2 v 14.9 c -2.9,0.8 -6,1.4 -8.9,1.4 -8.9,0 -15.2,-4.5 -15.2,-13.8 0,-9.5 5.8,-14.8 15.2,-14.8 3.2,0 5.7,0.4 8.1,1.1 z"
         id="path20"
         style="fill:#4a7628;fill-opacity:1" />
      <rect
         x="77.400002"
         y="153.7"
         class="st0"
         width="5.5999999"
         height="27.799999"
         id="rect22"
         style="fill:#4a7628;fill-opacity:1" />
      <path
         inkscape:connector-curvature="0"
         class="st0"
         d="m 86.1,181.4 h 5.8 l 2.4,-6.4 h 11.3 l 2.4,6.4 h 6.2 L 103.3,153.6 H 97 Z M 104,170.7 h -8.1 l 4,-11.5 h 0.1 z"
         id="path24"
         style="fill:#4a7628;fill-opacity:1" />
      <rect
         x="77.400002"
         y="153.7"
         class="st0"
         width="5.5999999"
         height="27.799999"
         id="rect26"
         style="fill:#4a7628;fill-opacity:1" />
      <path
         inkscape:connector-curvature="0"
         class="st0"
         d="m 86.1,181.4 h 5.8 l 2.4,-6.4 h 11.3 l 2.4,6.4 h 6.2 L 103.3,153.6 H 97 Z M 104,170.7 h -8.1 l 4,-11.5 h 0.1 z"
         id="path28"
         style="fill:#4a7628;fill-opacity:1" />
      <rect
         x="77.400002"
         y="153.7"
         class="st0"
         width="5.5999999"
         height="27.799999"
         id="rect30"
         style="fill:#4a7628;fill-opacity:1" />
      <path
         inkscape:connector-curvature="0"
         class="st0"
         d="m 86.1,181.4 h 5.8 l 2.4,-6.4 h 11.3 l 2.4,6.4 h 6.2 L 103.3,153.6 H 97 Z M 104,170.7 h -8.1 l 4,-11.5 h 0.1 z"
         id="path32"
         style="fill:#4a7628;fill-opacity:1" />
      <path
         inkscape:connector-curvature="0"
         class="st0"
         d="m 116.6,181.4 h 5.6 v -11.5 h 1.8 c 2.3,0 3.1,0.8 3.9,2.9 l 3.3,8.7 h 6.2 l -4.5,-10.9 c -0.6,-1.2 -1.4,-2.7 -2.9,-2.9 v -0.1 c 3.5,-0.5 5.7,-3.2 5.7,-6.4 0,-7.7 -7.1,-7.5 -13.1,-7.5 h -6 z m 5.5,-23.4 h 1.8 c 2.8,0 5.9,0.3 5.9,3.6 0,3.5 -3.1,3.9 -5.9,3.9 h -1.8 z"
         id="path34"
         style="fill:#4a7628;fill-opacity:1" />
      <g
         id="g80"
         style="fill:#4a7628;fill-opacity:1">
        <path
           inkscape:connector-curvature="0"
           class="st0"
           d="m 199.4,49.6 h 7.7 c 2.9,0 5.2,1.3 5.2,4.1 0,2.1 -1,3.6 -3.1,4.1 v 0 c 1.4,0.4 1.5,1.6 2.3,3.6 l 1.6,4.4 h -4.5 l -0.9,-2.9 c -0.9,-2.8 -1.4,-3.5 -3,-3.5 h -0.9 v 6.4 h -4.3 V 49.6 Z m 4.3,6.7 h 1.1 c 1.4,0 3.1,0 3.1,-1.9 0,-1.5 -1.5,-1.8 -3.1,-1.8 h -1.1 z"
           id="path36"
           style="fill:#4a7628;fill-opacity:1" />
        <path
           inkscape:connector-curvature="0"
           class="st0"
           d="m 216,49.6 h 11.4 v 3 h -7.1 V 56 h 6.7 v 3 h -6.7 v 3.7 h 7.3 v 3 H 216 Z"
           id="path38"
           style="fill:#4a7628;fill-opacity:1" />
        <path
           inkscape:connector-curvature="0"
           class="st0"
           d="m 231.4,61.8 c 1.1,0.6 2.7,1.1 4.4,1.1 1.4,0 2.7,-0.3 2.7,-1.6 0,-3 -7.6,-1.1 -7.6,-7 0,-3.9 3.8,-4.9 7,-4.9 1.5,0 3.1,0.2 4.2,0.6 l -0.3,3.3 c -1.1,-0.5 -2.4,-0.7 -3.6,-0.7 -1.1,0 -2.9,0.1 -2.9,1.5 0,2.6 7.6,0.9 7.6,6.7 0,4.2 -3.5,5.3 -7.1,5.3 -1.5,0 -3.4,-0.2 -4.8,-0.7 z"
           id="path40"
           style="fill:#4a7628;fill-opacity:1" />
        <path
           inkscape:connector-curvature="0"
           class="st0"
           d="m 246.4,49.6 h 11.4 v 3 h -7.1 V 56 h 6.7 v 3 h -6.7 v 3.7 h 7.3 v 3 h -11.6 z"
           id="path42"
           style="fill:#4a7628;fill-opacity:1" />
        <path
           inkscape:connector-curvature="0"
           class="st0"
           d="m 266.7,49.6 h 5.3 l 6.2,16.1 h -4.7 l -1.2,-3.4 h -6.1 l -1.3,3.4 h -4.4 z m 2.6,3.4 v 0 l -2.1,6.3 h 4 z"
           id="path44"
           style="fill:#4a7628;fill-opacity:1" />
        <path
           inkscape:connector-curvature="0"
           class="st0"
           d="m 280.9,49.6 h 7.7 c 2.9,0 5.2,1.3 5.2,4.1 0,2.1 -1,3.6 -3.1,4.1 v 0 c 1.4,0.4 1.5,1.6 2.3,3.6 l 1.6,4.4 h -4.5 l -0.9,-2.9 c -0.9,-2.8 -1.4,-3.5 -3,-3.5 h -0.9 v 6.4 H 281 V 49.6 Z m 4.3,6.7 h 1.1 c 1.4,0 3.1,0 3.1,-1.9 0,-1.5 -1.5,-1.8 -3.1,-1.8 h -1.1 z"
           id="path46"
           style="fill:#4a7628;fill-opacity:1" />
        <path
           inkscape:connector-curvature="0"
           class="st0"
           d="m 310.7,65.4 c -1.2,0.3 -2.6,0.6 -4.8,0.6 -4.3,0 -9.3,-2.2 -9.3,-8.3 0,-5.6 3.9,-8.4 9.2,-8.4 1.6,0 3.2,0.4 4.8,0.8 l -0.3,3.5 c -1.4,-0.8 -2.7,-1.1 -4.2,-1.1 -3,0 -5,2.2 -5,5.2 0,3.2 2.2,5.1 5.4,5.1 1.4,0 2.8,-0.4 4,-0.8 z"
           id="path48"
           style="fill:#4a7628;fill-opacity:1" />
        <path
           inkscape:connector-curvature="0"
           class="st0"
           d="m 314,49.6 h 4.3 v 6.2 h 5.1 v -6.2 h 4.3 v 16.1 h -4.3 v -6.9 h -5.1 v 6.9 H 314 Z"
           id="path50"
           style="fill:#4a7628;fill-opacity:1" />
        <path
           inkscape:connector-curvature="0"
           class="st0"
           d="m 199.3,77.4 h 5.1 c 4.9,0 7.2,1.7 7.2,5.3 0,3.3 -2.4,5.2 -6.4,5.2 h -1.7 v 5.6 h -4.3 V 77.4 Z m 4.3,7.4 h 1.1 c 1.5,0 2.7,-0.5 2.7,-2.2 0,-1.6 -1.2,-2.2 -2.7,-2.2 h -1.1 z"
           id="path52"
           style="fill:#4a7628;fill-opacity:1" />
        <path
           inkscape:connector-curvature="0"
           class="st0"
           d="m 214.5,77.4 h 7.7 c 2.9,0 5.2,1.3 5.2,4.1 0,2.1 -1,3.6 -3.1,4.1 v 0 c 1.4,0.4 1.5,1.6 2.3,3.6 l 1.6,4.4 h -4.5 l -0.9,-2.9 c -0.9,-2.8 -1.4,-3.5 -3,-3.5 h -0.9 v 6.4 h -4.3 V 77.4 Z m 4.3,6.7 h 1.1 c 1.4,0 3.1,0 3.1,-1.9 0,-1.5 -1.5,-1.8 -3.1,-1.8 h -1.1 z"
           id="path54"
           style="fill:#4a7628;fill-opacity:1" />
        <path
           inkscape:connector-curvature="0"
           class="st0"
           d="m 238.4,77.1 c 5.3,0 8.1,3.2 8.1,8.3 0,5.1 -2.8,8.3 -8.1,8.3 -5.3,0 -8.1,-3.2 -8.1,-8.3 0,-5.2 2.8,-8.3 8.1,-8.3 z m 0,13.5 c 2.6,0 3.6,-2.5 3.6,-5.2 0,-2.8 -1,-5.2 -3.6,-5.2 -2.6,0 -3.7,2.4 -3.7,5.2 0.1,2.7 1.1,5.2 3.7,5.2 z"
           id="path56"
           style="fill:#4a7628;fill-opacity:1" />
        <path
           inkscape:connector-curvature="0"
           class="st0"
           d="m 264.9,93 c -2.7,0.7 -4.8,0.7 -6.2,0.7 -4.3,0 -9.3,-2.2 -9.3,-8.3 0,-6.1 4.3,-8.4 10.2,-8.4 1.1,0 3.3,0.1 4.9,0.7 l -0.3,3.5 c -1.3,-0.8 -2.9,-1 -3.9,-1 -3.5,0 -6.4,1.5 -6.4,5.2 0,3.2 2.2,5.1 5.4,5.1 0.6,0 1.1,-0.1 1.5,-0.3 V 87 h -2.5 v -3 h 6.7 v 9 z"
           id="path58"
           style="fill:#4a7628;fill-opacity:1" />
        <path
           inkscape:connector-curvature="0"
           class="st0"
           d="m 269,77.4 h 7.7 c 2.9,0 5.2,1.3 5.2,4.1 0,2.1 -1,3.6 -3.1,4.1 v 0 c 1.4,0.4 1.5,1.6 2.3,3.6 l 1.6,4.4 h -4.5 l -0.9,-2.9 c -0.9,-2.8 -1.4,-3.5 -3,-3.5 h -0.9 v 6.4 H 269 Z m 4.3,6.7 h 1.1 c 1.4,0 3.1,0 3.1,-1.9 0,-1.5 -1.5,-1.8 -3.1,-1.8 h -1.1 z"
           id="path60"
           style="fill:#4a7628;fill-opacity:1" />
        <path
           inkscape:connector-curvature="0"
           class="st0"
           d="m 291,77.4 h 5.3 l 6.2,16.1 h -4.7 l -1.2,-3.4 h -6.1 l -1.3,3.4 h -4.4 z m 2.6,3.3 v 0 l -2.1,6.3 h 4 z"
           id="path62"
           style="fill:#4a7628;fill-opacity:1" />
        <path
           inkscape:connector-curvature="0"
           class="st0"
           d="m 305.2,77.4 h 6.8 l 3.4,10.7 v 0 L 319,77.4 h 6.5 v 16.1 h -4.2 l 0.1,-12.4 v 0 l -4.1,12.4 h -3.9 l -3.9,-12.4 v 0 l 0.1,12.4 h -4.2 V 77.4 Z"
           id="path64"
           style="fill:#4a7628;fill-opacity:1" />
        <path
           inkscape:connector-curvature="0"
           class="st0"
           d="m 345.3,77.1 c 5.3,0 8.1,3.2 8.1,8.3 0,5.1 -2.8,8.3 -8.1,8.3 -5.3,0 -8.1,-3.2 -8.1,-8.3 0,-5.2 2.8,-8.3 8.1,-8.3 z m 0,13.5 c 2.6,0 3.7,-2.5 3.7,-5.2 0,-2.8 -1,-5.2 -3.7,-5.2 -2.6,0 -3.6,2.4 -3.6,5.2 -0.1,2.7 1,5.2 3.6,5.2 z"
           id="path66"
           style="fill:#4a7628;fill-opacity:1" />
        <path
           inkscape:connector-curvature="0"
           class="st0"
           d="m 357,77.4 h 5.5 l 5.5,11 v 0 l -0.1,-11 h 3.9 v 16.1 h -5.3 l -5.6,-11 v 0 l 0.1,11 h -4 z"
           id="path68"
           style="fill:#4a7628;fill-opacity:1" />
        <path
           inkscape:connector-curvature="0"
           class="st0"
           d="m 206,138 -7.5,-28.3 h 3.8 l 4.3,18.6 c 0.5,1.9 0.9,3.9 1.2,5.8 0.7,-3 1.1,-4.8 1.3,-5.2 l 5.4,-19.1 h 4.5 l 4.1,14.3 c 1,3.6 1.8,6.9 2.2,10 0.4,-1.8 0.8,-3.8 1.4,-6.2 l 4.4,-18.2 h 3.8 l -7.8,28.3 h -3.6 l -6,-21.6 c -0.5,-1.8 -0.8,-2.9 -0.9,-3.3 -0.3,1.3 -0.6,2.4 -0.8,3.3 l -6,21.6 z"
           id="path70"
           style="fill:#4a7628;fill-opacity:1" />
        <path
           inkscape:connector-curvature="0"
           class="st0"
           d="m 238.8,138 v -28.3 h 3.5 v 10.2 c 1.6,-1.9 3.7,-2.8 6.1,-2.8 1.5,0 2.8,0.3 4,0.9 1.1,0.6 1.9,1.4 2.4,2.5 0.5,1.1 0.7,2.6 0.7,4.6 v 13 H 252 v -13 c 0,-1.7 -0.4,-3 -1.1,-3.8 -0.8,-0.8 -1.8,-1.2 -3.2,-1.2 -1,0 -2,0.3 -2.9,0.8 -0.9,0.5 -1.6,1.3 -1.9,2.2 -0.4,0.9 -0.6,2.2 -0.6,3.8 V 138 Z"
           id="path72"
           style="fill:#4a7628;fill-opacity:1" />
        <path
           inkscape:connector-curvature="0"
           class="st0"
           d="m 275.7,131.4 3.6,0.4 c -0.6,2.1 -1.6,3.7 -3.2,4.9 -1.5,1.2 -3.5,1.7 -5.9,1.7 -3,0 -5.4,-0.9 -7.1,-2.8 -1.8,-1.8 -2.6,-4.4 -2.6,-7.8 0,-3.5 0.9,-6.1 2.7,-8 1.8,-1.9 4.1,-2.9 6.9,-2.9 2.7,0 5,0.9 6.7,2.8 1.7,1.9 2.6,4.5 2.6,7.9 0,0.2 0,0.5 0,0.9 h -15.3 c 0.1,2.3 0.8,4 1.9,5.2 1.1,1.2 2.6,1.8 4.3,1.8 1.3,0 2.4,-0.3 3.3,-1 0.8,-0.5 1.6,-1.6 2.1,-3.1 z m -11.4,-5.6 h 11.5 c -0.2,-1.7 -0.6,-3 -1.3,-3.9 -1.1,-1.3 -2.5,-2 -4.3,-2 -1.6,0 -2.9,0.5 -4,1.6 -1.2,1.1 -1.8,2.5 -1.9,4.3 z"
           id="path74"
           style="fill:#4a7628;fill-opacity:1" />
        <path
           inkscape:connector-curvature="0"
           class="st0"
           d="m 297.8,135.5 c -1.3,1.1 -2.5,1.9 -3.7,2.3 -1.2,0.5 -2.5,0.7 -3.8,0.7 -2.3,0 -4,-0.6 -5.2,-1.7 -1.2,-1.1 -1.8,-2.5 -1.8,-4.2 0,-1 0.2,-1.9 0.7,-2.8 0.5,-0.8 1.1,-1.5 1.8,-2 0.7,-0.5 1.6,-0.9 2.5,-1.1 0.7,-0.2 1.7,-0.4 3.1,-0.5 2.8,-0.3 4.9,-0.7 6.2,-1.2 0,-0.5 0,-0.8 0,-0.9 0,-1.4 -0.3,-2.4 -1,-3 -0.9,-0.8 -2.2,-1.2 -4,-1.2 -1.6,0 -2.8,0.3 -3.6,0.9 -0.8,0.6 -1.4,1.6 -1.7,3 l -3.4,-0.5 c 0.3,-1.5 0.8,-2.6 1.5,-3.5 0.7,-0.9 1.7,-1.6 3.1,-2.1 1.3,-0.5 2.9,-0.7 4.7,-0.7 1.8,0 3.2,0.2 4.3,0.6 1.1,0.4 1.9,0.9 2.4,1.6 0.5,0.6 0.9,1.4 1.1,2.4 0.1,0.6 0.2,1.7 0.2,3.2 v 4.6 c 0,3.2 0.1,5.3 0.2,6.1 0.1,0.9 0.4,1.7 0.9,2.5 h -3.6 c -0.5,-0.7 -0.8,-1.5 -0.9,-2.5 z m -0.2,-7.8 c -1.3,0.5 -3.2,1 -5.7,1.3 -1.4,0.2 -2.4,0.4 -3,0.7 -0.6,0.3 -1.1,0.6 -1.4,1.1 -0.3,0.5 -0.5,1 -0.5,1.7 0,0.9 0.4,1.7 1.1,2.3 0.7,0.6 1.7,0.9 3.1,0.9 1.3,0 2.5,-0.3 3.6,-0.9 1,-0.6 1.8,-1.4 2.3,-2.4 0.4,-0.8 0.6,-1.9 0.6,-3.5 v -1.2 z"
           id="path76"
           style="fill:#4a7628;fill-opacity:1" />
        <path
           inkscape:connector-curvature="0"
           class="st0"
           d="m 314.9,134.9 0.5,3.1 c -1,0.2 -1.9,0.3 -2.6,0.3 -1.3,0 -2.2,-0.2 -2.9,-0.6 -0.7,-0.4 -1.2,-0.9 -1.5,-1.6 -0.3,-0.7 -0.4,-2 -0.4,-4.1 v -11.8 h -2.6 v -2.7 h 2.6 v -5.1 l 3.5,-2.1 v 7.2 h 3.5 v 2.7 h -3.5 v 12 c 0,1 0.1,1.6 0.2,1.9 0.1,0.3 0.3,0.5 0.6,0.7 0.3,0.2 0.7,0.3 1.2,0.3 0.2,0 0.7,-0.1 1.4,-0.2 z"
           id="path78"
           style="fill:#4a7628;fill-opacity:1" />
      </g>
      <rect
         x="175.2"
         y="11.5"
         class="st0"
         width="3"
         height="169.8"
         id="rect82"
         style="fill:#4a7628;fill-opacity:1" />
    </g>
  </g>
</svg>
