<svg width="300" height="154" xmlns="http://www.w3.org/2000/svg">
  <path d="M0 153.05h2.807V0H0Z" fill="#009c45"/>
  <path d="M69.442 19.604c.482 1.315 1.447 1.798 2.17 1.447-1.622-.175-.328-2.938-2.411-2.938-.11 0-.22 0-.33.022-.35-.373-.745-.526-1.359-.526-.877 0-2.39.855-2.39 2.61 0 3.77 4.385 4.121 4.385 7.454 0 .965-.723 1.58-1.556 1.58-.746 0-1.338-.834-1.952-2.128-.307-.614-.92-1.469-1.6-2.346.197.153.416.22.635.241a.95.95 0 0 0 .614-.22.985.985 0 0 0 .264-.613v-.022c0-.308-.132-.614-.351-.856a1.43 1.43 0 0 0-.877-.416.94.94 0 0 0-.614.241c-.153.132-.242.351-.242.592v.023c0 .131.023.263.066.394-.943-1.25-1.82-2.455-1.82-3.113 0-.592.395-1.097.9-1.71.022 0 .174.087.174.087l.132-.154c.175-.175.548-.592 1.293-1.403l.242-.241-.482-.373c.13-.285.241-.592.307-.921.153.592.46.987.899.855-.285-.614.285-1.447-.088-3.004.35.614.877.921 1.25.811-.965-.877.285-2.06-.987-3.924.417.13.702.044.877-.154-1.162-.175-.636-1.645-2.653-2.171.504-.088.79-.373.724-.636-.526.373-1.009-.723-2.763-.702-.11-.657-.724-1.359-1.403-1.688.131.504 0 .965-.132 1.36l-5.723-5.614c-.175-.175-.263-.197-.307-.153-.045.065-.045.175.066.285l4.912 6.161c-.373.131-.724.285-1.119.417-.241.087-.416.328-.416.635-.9.46-1.71 1.009-2.105 1.382-.307.285-.548.35-.285.965.11.24-.22.81.504.394.46-.285 1.513-.877 1.689-.504.065.198-.46.438-.812.57-.35.154-.745.417-.701.57.066.132.35-.022.373.132.022.175.13.307.285.307.131 0 .307-.307.438-.198.11.088-.066.768-.175.943.548-.066.92-.614.92-1.009.023-.416.132-.526.22-.57.088-.066.198.439.066.724.307-.045.614-.439.57-1.162.132-.11.285-.198.395-.198.197 0 .57.504 1.096.504.965 0 1.513-.79 1.579-1.162.045-.285.022-.57-.153-.79.372.264.46.702.46 1.031 0 1.382-2.434 2.04-3.42 2.982-.046.045-.088.066-.11.11l-1.162-.439-.066.242c0 .022-.022.065-.066.22-.11.394-.372 1.205-.526 1.688l-.065.175.11.065c-.68.9-1.229 1.908-1.338 2.96a13.424 13.424 0 0 0-.834-.767c.023-.11.045-.22.045-.329.023-.307-.065-.592-.263-.79a.75.75 0 0 0-.526-.284.76.76 0 0 0-.548.22l-.11.109c-.022-.045-.066-.066-.11-.11-.372-.285-.854-.614-1.14-.943-.109-.131-.24-.197-.482-.197-.11 0-.35-.023-.504-.023-.175 0-.285.132-.46.307-.11.088-.373.285-.658.526.132.132.285.285.417.439.065.065.131.153.22.241.065-.045.13-.11.197-.154.11-.087.285-.11.416-.11.153 0 .351.11.504.33.11.153 1.03 1.36 1.798 2.214-.087.023-.175.045-.241.088-.329.131-1.074.11-1.403.087-.33-.044-.395-.109-.614.242a5.076 5.076 0 0 1-.307.416c-.11.132-.197.285.045.68.328.57 1.162 2.083 1.447 2.763.285.68.614.767 1.14.987.548.219 1.447.745 1.557.877l.022-.526c-.153-.154-.658-.351-.855-.417-.175-.066-.241-.154 0-.154.22 0 .855.22 1.316.417-.132-.504-.614-1.075-.921-1.381-.373-.11-.768-.11-.921 0 .022.109-.066.24-.22.24-.153 0-.241-.13-.197-.262.045-.154.263-.197.22-.483-.046-.307-.417-.35-.637-.372-.329-.482-.701-1.162-.877-1.447-.175-.286-.065-.439.045-.526.285-.242.855.11 2.04.197.394.022.898.045 1.425.065.153 1.36.701 2.632 2.587 3.114.92.22 1.864.899 2.193 1.776-3.772-.066-4.364 1.403-4.364 2.785 0 1.556 1.338 1.49 1.338 2.653 0 1.03-3.158 1.447-4.122 1.6-.812.11-1.272.286-1.645.68-.394.395-.79.768-1.49 1.47 0 0 .306.065.591.044l.526-.68c.175-.241.285-.416.395-.394.087.022.022.175-.11.438l-.438.746c1.864.11 1.973-.57 1.973-.856 0-.285-.438-.482-.175-.657.263-.175.482-.045.702.197.197.241.285.46.79.263 0 0 4.034-1.666 4.56-1.908.46-.197.307-.416.045-.635-.307-.242-.351-.658-.351-1.075 0-1.228.745-1.6 2.04-1.579-.023.22-.023.417-.023.592 0 1.908 2.872 3.772 3.661 3.772.351 0 .812-.263.855.899.023.833.176 1.447.023 2.412-.154.986-.438 1.14-1.009 1.535-.592.416-1.14 1.71-1.403 1.995.263.153.548.175.767-.438.176-.526.395-.9.614-1.031-.241.57-.394 1.425-.504 1.666.746.132 1.93-.548 1.93-1.052 0-.526-.417-.482-.417-.833 0-.154.198-.33.417-.33.307 0 .526.242.548.352.33-.176.526-.483.526-1.25-.022-.307-.022-.614-.045-.921a.856.856 0 0 0 .745.482c.264.023.55-.045.79-.22.285-.175.504-.46.549-.767.022-.066.022-.131.022-.175a.82.82 0 0 0-.131-.46.815.815 0 0 0-.526-.351c-.307-.066-.658 0-.943.197-.263.176-.46.439-.526.702-.066-1.03-.154-2.017-.11-2.412.045-.592.066-.833-.13-.92-.199-.088-.417.24-.703.24-.285 0-1.118-.789-1.118-1.622 0-.811.877-1.886.833-3.004 0-.35.22-.548.351-.22.175.395.439.9.811 1.338-.24 1.425 1.316 2.807 2.61 1.776-.636.088-1.075-.482-1.36-1.052.11.022.242.045.351.045.066 0 .131 0 .198-.023.438.57 1.885.526 2.258-.855-.263.285-.767.504-1.14.46.526-.416.811-1.096.811-1.842 0-3.596-4.363-4.034-4.363-7.301 0-1.206 1.052-1.996 1.798-1.996.285 0 .504.088.68.22-.286.285-.439.724-.417 1.25.131 2.587 4.341 2.456 4.407 3.705.46-1.885-2.675-1.293-2.806-3.837M58.2 9.693c.22-.395 0-.987.724-.987.35 0 .658.35 1.096.482-.701.045-1.315.22-1.82.504m-3.859 7.916c0 .22-.087.416-.22.526-.065.045-.153.11-.284.11-.242-.023-.439-.308-.439-.637v-.044c.023-.197.088-.395.242-.526.044-.045.153-.11.263-.088.131 0 .22.066.285.131.11.132.175.33.153.526m12.498 18.2c.023-.22.176-.417.373-.548.22-.132.46-.198.658-.154.088.022.22.087.307.197v.023c.088.11.066.241.066.35-.045.198-.198.395-.395.527-.35.24-.79.22-.965-.045a.528.528 0 0 1-.045-.351m-2.63-12.082a.46.46 0 0 1 .13-.329c.11-.11.264-.131.351-.11.198 0 .439.11.592.286a.867.867 0 0 1 .264.614c0 .088-.023.22-.154.329a.458.458 0 0 1-.329.131.922.922 0 0 1-.592-.307.867.867 0 0 1-.263-.614m-7.17-8.134c.197-.636.592-1.886.592-1.886l.657.241c-.197.088-.416.263-.635.46.153.066.416.088.614-.044l-.286.68c-.045-.11-.241-.352-.416-.395-.153.526.197.723.438.855.395.22.658.241.79.065.109-.24-.154-.547-.483-.416-.044-.35.154-.526.373-.526.198 0 .351.154.395.395-.023-.57.22-1.009.745-1.184.197.548.045.92-.372 1.315.219-.087.46-.066.57.088.131.197.065.46-.242.614-.065-.351-.482-.395-.614-.154-.11.242.066.46.439.658.438.242.79.11 1.03-.263-.153-.066-.394-.023-.636.11l.439-.834c.022.132.087.351.285.504.066-.197.175-.526.022-.81l.965.547c-.329.023-.57.286-.68.439.22.066.439.022.549 0l-.482.79c0-.286-.088-.505-.22-.593-.197.373-.154.746.263 1.009.373.22.658.263.812.045.131-.22-.11-.57-.46-.46 0-.351.197-.527.438-.505.175.022.307.22.35.46.132-.57.373-.877.943-.987.132.526-.13.965-.635 1.228.22-.065.438-.022.526.132.13.197.065.46-.264.614-.045-.373-.46-.439-.592-.22-.11.198.066.395.439.658.241.153.57.329.964-.045-.13-.154-.416-.198-.548-.198l.438-.548c0 .22.132.438.264.526.065-.263.11-.57.087-.767l.549.438s-.9.965-1.338 1.47zm5.92 14.932c-.242.329-.658.46-.921.263-.263-.198-.285-.614-.045-.943.241-.35.636-.46.899-.285.285.197.307.614.066.965m1.732-2.741c-.241.35-.658.46-.921.285-.263-.198-.285-.614-.045-.965.241-.329.636-.46.921-.263.263.175.263.614.045.943m-10.64-6.664a.865.865 0 0 0-.482.439c-.22.46.045 1.052.614 1.337.329.154.658.175.965.066a.764.764 0 0 0 .482-.417.857.857 0 0 0 .022-.657 1.279 1.279 0 0 0-.657-.702 1.404 1.404 0 0 0-.943-.066m.307 1.426c-.395-.176-.592-.549-.46-.834.065-.131.197-.197.285-.241a.872.872 0 0 1 .657.066c.22.11.395.285.46.482a.616.616 0 0 1 0 .35.421.421 0 0 1-.284.242.872.872 0 0 1-.658-.066m6.862 10.416c-.22.22-.35.526-.35.877v.022c0 .351.109.658.328.877a.784.784 0 0 0 .592.264c.22 0 .439-.088.592-.242.242-.22.351-.548.373-.877 0-.307-.087-.592-.241-.811a.97.97 0 0 0-.68-.373c-.22 0-.438.11-.614.264m.57 1.666a.468.468 0 0 1-.329-.153 1.013 1.013 0 0 1-.22-.636.86.86 0 0 1 .242-.614.518.518 0 0 1 .351-.132c.307 0 .548.351.548.768-.022.241-.109.482-.24.614-.088.066-.198.153-.352.153m-6.907-19.779c-.46.351-.592.943-.307 1.316.307.373.9.395 1.36.045.241-.197.416-.46.438-.746a.657.657 0 0 0-.153-.57c-.11-.175-.285-.263-.504-.307-.285-.045-.592.066-.833.264m-.088.855c0-.198.11-.417.307-.57a.8.8 0 0 1 .57-.176c.066.023.198.045.264.154.087.11.087.22.065.307a.692.692 0 0 1-.307.482c-.263.22-.658.241-.811.022a.281.281 0 0 1-.088-.22m8.156 19.69a.862.862 0 0 0-.372.548c-.045.241.045.504.241.724.175.197.439.35.724.394.285.066.592.023.833-.11a.872.872 0 0 0 .46-.613c.088-.504-.35-1.009-.965-1.118-.329-.066-.68 0-.92.175m.657 1.293c-.416-.065-.723-.372-.657-.68.022-.153.13-.24.197-.306.175-.11.417-.154.658-.11.373.066.658.33.658.614v.066c-.045.307-.439.504-.855.416m4.801-2.653a1.47 1.47 0 0 0 2.938 0c0-.79-.657-1.447-1.469-1.447-.811 0-1.469.658-1.469 1.447m.373 0a1.08 1.08 0 0 1 1.096-1.074 1.08 1.08 0 0 1 1.097 1.074c0 .614-.483 1.097-1.097 1.097a1.086 1.086 0 0 1-1.096-1.097m-33.592-8.354c.132-.373-.526-.79-.614-1.315-.065-.504 0-1.01-.592-1.71-.592-.68-2.63-2.851-3.245-3.53.175-.023.526-.11.9.24.219.22.657.614 1.052 1.031a10.66 10.66 0 0 1 2.17-3.464c.11-.154.242-.286.373-.417-.35.11-.899.198-1.206.395-.022-.592.023-1.075-.394-1.447.153-.834.022-1.842-1.842-3.092.943.241 1.513 1.096 2.258.438-.658-.022-.68-1.447-3.048-2.653.9 0 1.601 1.447 2.653.636-.986-.131-1.315-1.886-3.091-2.434.614.066 1.25.373 1.776-.35-.614.153-.965-.417-1.645-.46.264-.768.197-1.25-.065-1.82-.482.022-.943.174-1.294.46-.045-.439-.482-.46-.877-.417.022.175.11.438-.088.482a19.66 19.66 0 0 0-2.214.658c-.811.329-1.754.899-2.017 1.096-.154.11-.307-.175-.417-.285-.285.242-.57.57-.35.877-.461.045-.966.153-1.382.504 0 .526.438 1.03 1.096 1.316-1.118 1.096-.11 2.105-1.074 3.07 1.36.045 1.118-1.842 1.798-2.127-.066 1.337-.812 1.578-.812 3.026 0 .767.46 1.6.045 2.105 1.14-.307.856-2.829 1.557-3.596.132.438.045.855-.087 1.293-.417 1.162.044 2.763-.57 3.29 1.162-.11 1.293-1.974 2.236-2.654-.811 1.667-1.666 5.263-2.872 7.039-1.996 2.675-3.158 5.942-4.978 5.942-.811 0-1.403-.504-1.403-1.513 0-3.048 5.219-5.131 5.219-8.376 0-1.425-1.185-1.974-1.908-1.974-.504 0-1.096.242-1.6.658-.22-.087-.44-.154-.615-.154-1.842 0-1.36 3.333-2.96 3.29.636.35 1.732-.33 2.368-1.272-.263 2.148-3.354 1.578-3.113 4.166.438-2.018 5.35-1.732 5.35-4.78 0-.351-.175-.636-.417-.877.373-.242.724-.33 1.03-.33.593 0 1.141.461 1.141 1.316 0 2.72-5.175 5-5.175 8.332 0 .57.154 1.031.417 1.404-.35.153-.724.087-1.053-.285-.022.855 1.206 1.403 1.974.964.175.066.35.11.548.11-.242.636-1.03.833-1.448.811 1.272.987 3.487-.329 3.355-1.447 1.009-.811 1.645-2.215 2.39-3.114-.045.197-.087.417-.131.614-.724 1.36-1.425 2.566-1.623 4.342-.175 1.49-.92 2.828-1.973 2.828-.22 0-.592-.285-.767-.153-.33.285-.023.592-.023.855 0 .439-.811.855-.811 2.17 0 .593.329 1.295.197 1.667.351-.153.79-.723.965-1.447.373 1.732-.745 1.667.066 3.202.087-.526.592-.724.899-.526.307.219.175.372-.066.592-.22.241-.438 1.381.614 1.315-.197-.131-.22-.438.307-.548.724-.131.921.197 1.71.197.46 0 .592-.636.965-.636s.373.308.263.526c.592-.175.702-.504.702-.855 0-.329-.263-.548-.066-.68.22-.13.921.023.636.593.373-.066.57-.33.57-.768s-.504-.702-.986-.614c-.088-.285-.483-.438-.856-.438-.855 0-.723.68-1.315.68-.921 0-1.842-1.206-1.842-3.267 0-1.097 1.184-1.36 2.017-1.733.833-.35 2.303-1.25 3.18-2.719.68-1.14.701-2.412.614-3.903 1.162.68 1.315 1.645 1.315 2.347 0 .92-.482 1.293-.855 1.447-.307.153-.416.087-.46.285-.045.241.131.373.263.438.417.22.329.614.46 1.053.11.438.504 1.14 1.162 1.644.066-.263.045-.701 0-1.271.921.438.198 2.258 1.952 2.258-.329-.197-.241-.658-.066-.724.198-.065.417.11.768.592.329.46.241.417 1.074.417.833 0 .46-.285.9-.285.437 0 .394.504.174.899.724-.242.965-.79.702-1.382.658-.35 1.008.154 1.096.505.636-.636 0-1.425-.504-1.47.022-.24-.197-.481-.482-.503-.263-.023-.526-.023-.811-.023-.307.023-.483.46-.834.46-1.096 0-3.289-1.995-3.289-2.85s2.083-1.381 2.083-2.719c0-1.754-1.71-2.346-3.157-3.464.526-.57 2.017-.724 2.872-.307.088-.482.417-.373.526-1.206.307.745-.022 1.381.307 1.688.242-.35.856-.307.812-1.206.197.57-.242 1.447.197 1.82.087-.46.35-.548.526-.548.197 0 .329.131.329.394 0 .702-.856.373-.856 1.162 0 .33.439.439.439.658 0 .22-.351.548-.768.264.132.307.417.57.768.57.373 0 .79-.307.943-.702.197.505.045 1.074-.307 1.14.372.197 1.271 0 1.184-1.14.504.088.767.416.46 1.03.416-.087.811-.307.811-.745 0-.329-.372-.438-.22-.877M25.349 9.91c-.46.045-.46-.417-1.294-.614.592-.11 1.338-.417 1.995-.658.132.548-.087 1.228-.701 1.272m3.376 3.575c-.614.263-1.097-.263-1.206-.636-.11-.373-.22-.68-.066-.811.263-.264.329-.46.175-.79-.175-.372-.57-.197-1.008-.087.197-.351.219-.614-.066-.592-.307.045-.33.57-.504.504-.175-.066-.088-.351-.088-.526.023-.22.153-.307.373-.395l1.776-.68c.241-.087.395-.109.548.045.11.11.395.264.307.417-.087.175-.46-.198-.723 0-.22.175-.023.35.373.46-.373.22-.79.373-.658.768.11.35.307.438.68.438.197 0 .35.285.504.636.175.35.22.965-.417 1.25m.11-4.934c-.483.373-1.119.045-1.404-.46.658-.263 1.404-.57 1.93-.877-.482.723-.153 1.052-.526 1.337m-1.075-4.496c.11.22.175.307.175.483a1.148 1.148 0 0 1-.35-.33l.065.79c.11-.131.175-.241.285-.285-.022.526-.22.723-.395.767-.22.045-.394-.11-.416-.263-.045-.241.153-.373.35-.175.046-.46-.328-.46-.504-.263.198-.46.11-.768-.285-1.01-.263.44-.153.703.175 1.031-.307-.153-.592.11-.307.46.045-.306.307-.24.373.023.065.198-.153.46-.482.57-.483.154-.636-.175-.768-.438.11-.066.373-.045.636.131l-.241-.767a.773.773 0 0 1-.46.482c0-.241.153-.68.153-.68l-.943.373s.438.197.592.373a.765.765 0 0 1-.658 0l.373.723c.065-.329.22-.526.35-.548.11.263.198.614-.24.833-.308.175-.659.11-.746-.066-.132-.22 0-.46.263-.285-.045-.438-.438-.438-.548-.11 0-.46-.11-.723-.592-.854-.131.46.022.723.482.92-.241-.022-.526.242-.175.549 0-.285.242-.329.373-.131.11.153.087.35-.11.482-.153.087-.438.087-.81-.264.109-.044.219-.044.394 0l-.504-.613c.022.219.022.372-.023.482-.11-.132-.153-.242-.197-.46l-.373.328c.35.22.767.57 1.272 1.272.526-.35 1.49-.79 2.083-1.03.592-.242 1.578-.592 2.192-.724-.131-.833-.065-1.381.045-1.798zm-3.947-1.052.285.592.33-.417a.07.07 0 0 0 .044.023c.045.197.045.548.045.745a.44.44 0 0 0 .438.439.44.44 0 0 0 .197-.833 4.46 4.46 0 0 1-.46-.439V3.05l.592.065-.241-.614-.417.373-.022-.022-.045-.636-.592.22.395.481s-.023.023-.023.045zm2.17.46a.318.318 0 0 0 0-.46.31.31 0 0 0-.481 0 .318.318 0 0 0 0 .46.31.31 0 0 0 .482 0m.767-.57c.132-.11.132-.329 0-.46a.327.327 0 0 0-.482-.023c-.131.154-.131.351 0 .482a.31.31 0 0 0 .482 0m.9.154a.344.344 0 0 0 0-.482.344.344 0 0 0-.483 0 .344.344 0 0 0 0 .482c.131.132.35.132.482 0m.088.724c.131.131.329.131.482 0a.344.344 0 0 0 0-.482c-.153-.132-.35-.132-.482 0a.31.31 0 0 0 0 .482m-3.86.636c.176 0 .33-.153.33-.351a.338.338 0 0 0-.33-.329c-.196 0-.35.153-.35.329 0 .198.154.35.35.35m-.92.046c.197 0 .35-.154.35-.33a.346.346 0 0 0-.35-.35c-.175 0-.33.153-.33.35 0 .176.154.33.33.33m-.175.416a.346.346 0 0 0-.351-.35c-.175 0-.329.153-.329.35 0 .175.153.33.329.33.197 0 .35-.155.35-.33m.11.9a.36.36 0 0 0-.35-.352c-.176 0-.33.175-.33.351 0 .175.154.33.33.33.197 0 .35-.154.35-.33m22.694 24.405c0 .022.045.065.088.087.548.132 1.162-.263 1.49-.175-.416-.153-.7.11-1.095.023.241 0 .482-.045.504-.11-.198.131-.724-.088-.943.066 0 0-.023.022-.045.022-.153.045-.307.132-.307.264 0 .35 1.381.065 1.381.197 0 .087-.263.175-.636.175-.263 0-.745-.175-1.337-.023v-.022c.045-.088.154-.242.11-.307.044-.023.065-.066.087-.11-.045-.022-.066-.045-.11-.045.023-.022 0-.044-.022-.065l-.023-.066a.335.335 0 0 0-.13-.088c-.046-.022-.088-.022-.11-.044-.023 0-.066.022-.066.022-.045 0-.066 0-.066.023-.022-.023-.065-.023-.087-.045-.023.065-.045.087-.023.153-.045 0-.11.132-.153.11.022.045.045.045.045.045-.023.087-.045.153-.088.175l.045.045c-.022.11-.045.241-.022.329-.088-.088-.22-.285-.286-.33-.087-.044-.087-.087-.087-.174 0-.066.022-.132.022-.197l-.022-.045c0-.045-.066-.088-.11-.066.023 0 .045.022.045.066l-.022.022c-.023.023-.023.045 0 .066v.045c0 .022 0 .022 0 0-.023-.045-.045-.11-.088-.11h-.045v-.022c0-.045-.044-.088-.109-.023.022 0 .045 0 .045.023v.045c-.023.065.022.087.087.087h.023v.045c-.11-.045-.131 0-.153.023 0 .022 0 .045.022.045-.045.022-.045.065 0 .109 0-.022 0-.045.023-.066h.022l.022.023s.023 0 .066-.023c.023.023.023.023.045.023v.022c-.066.066-.045.11.023.132 0 0 .022 0 .022.022-.022.11-.175.088-.154-.022-.087.109.066.22.175.153.023.022.023.045.045.045 0 0 0-.023.023-.023v.023c0 .022.022.065.065.065 0-.022 0-.044.023-.044.022 0 0 .175.153.263.022.087.11.154.198.131.022.066.065.131.045.131-.023 0-.22-.022-.264.023a.408.408 0 0 1-.175.045l-.022.022.022-.022c-.066.022-.11 0-.131-.023-.023-.022-.023-.045-.045-.087l-.045-.045h-.066c-.022-.045-.087-.045-.11-.023.023 0 .046 0 .067.045 0 .023-.023.045-.023.045-.022.023 0 .066.11.088.022 0 .022.022.022.022-.045 0-.066.023-.088 0-.044-.045-.044-.087-.087-.066 0 0-.023.023-.045.023h-.023c-.044 0-.13.066-.087.131 0-.022.022-.065.066-.065 0 .022.022.022.022.045 0 .044.022.109.154.022-.023.045-.11.11-.045.153h.022v.023c-.022.065.066.11.11.11-.023 0-.066-.046-.045-.088h.045c.045-.023.022-.088.045-.11.022-.022.022 0 .022 0 0 .022.022.11.088.088.065 0 .11-.066.087-.088 0-.022 0-.022.023-.022.022.022.045.045.022.087a.048.048 0 0 0 .045-.045c.023.023.023.066-.022.11.022 0 .087-.045.11-.11.021 0 .021.023.021.023h.023c.022.022.066.022.131 0 0 .022 0 .065.023.087 0-.022 0-.045.022-.045.023 0 0 .066.045.11.023-.175.11-.11.22-.175 0-.023 0 0 0 0 0 .022-.023.045-.045.065.045 0 .175-.065.175-.13 0-.023.066-.088.087-.286h.066c.131-.023.198-.131.351-.131a.518.518 0 0 0-.045.197c0 .088.11.175.131.197.023.023 0 .023 0 .023-.044 0-.087.022-.11.022-.109.088-.109-.175-.24-.131-.023 0-.045.022-.045.022-.045 0-.132.066-.11.11.023 0 .045-.023.088-.045v.022c0 .023 0 .045.045.045h.067c0 .066-.154-.022-.131.11 0 .022.022.045.022.045 0 .044.023.087.11.065-.023-.022-.045-.022-.045-.065l.022.022c.023 0 .023-.022.023-.022v-.023l.022.023v.067c0 .045.066.11.131.045 0 0-.044 0-.065-.023.022 0 .045-.022.045-.022s.022-.023.022-.045v-.022h.045s0 .022.022.022c0 .022.045.045.088.045.088-.045.022-.11.088-.131h.044c.066.022.132.044.132 0 .022-.023.022-.154-.066-.198-.022-.023.066-.285-.131-.395.087.023.394.045.46-.022.088.022.198.087.198.11.022.022.022.044 0 .044-.088.066-.066.088-.11.11h-.022c-.023-.023-.045-.066-.066-.088-.045-.022-.066 0-.066 0-.045 0-.11 0-.131.045h.088v.022c0 .023 0 .023.022.045v.023c-.045-.023-.131-.023-.11.045v.022c-.022.045-.044.088-.022.11 0-.023.023-.023.066-.045 0 0 0 .022.022.022.023.023.066-.045.11-.022.022 0 .022 0 0 0-.045.022-.088.045-.066.087 0 0 0 .023.023.045-.023.023-.023.088.044.088v-.066h.045c.088-.045.045-.11.066-.131.045-.023.088.066.153 0 .023-.023.023-.045.023-.088.022.023.022.045.065.023-.045-.045 0-.066.023-.11h.022c.023 0 .066 0 .11-.045-.045 0-.154-.065-.088-.087.088-.023.11-.088.066-.132-.066-.087-.22-.11-.22-.22h.132c.46 0 .767-.109.745-.262 0-.33-1.403.022-1.403-.22 0-.066.088-.11.197-.153m-1.03.045c.022.022.11.066.175.066-.088.022-.066.044-.11.044s-.065-.065-.065-.109m-.088-.045c-.022.023-.065.066-.11.023-.022-.023.023-.045-.022-.088.023.022.11.066.132.066m-.153.329c.022-.023.022-.045.044-.045a.048.048 0 0 0 .045-.045c.023-.023 0-.045-.045-.066.045 0 .045-.022.045-.022-.022-.023-.065 0-.065 0 0-.023.022-.045.022-.045.023-.023.023 0 .045 0l.131.065c.023 0 .023 0 .023.023v.045c-.023 0-.023-.045-.045-.045-.023 0-.023.022 0 .045-.045 0-.066-.023-.088 0 0 .045 0 .045.023.065 0 .023 0 .045-.023.066 0 .023-.045.066-.087.045-.045-.022-.023-.066-.023-.088m1.69-2.297c.022.023.044.066.109.066.526.153 1.162-.242 1.469-.154-.417-.153-.68.11-1.096.023.24 0 .504-.045.504-.11-.175.131-.701-.088-.92.045-.023.022-.046.022-.046.045-.307 0-.548 0-.548.175 0 .438 1.14.175 1.49.175.352 0 .308.045.308.11 0 .109-.417.13-.614.13-.285 0-1.228-.174-1.776-.044.045-.088.153-.22.088-.285.044-.023.087-.066.087-.11a.167.167 0 0 0-.11-.044c.023-.023 0-.045-.022-.066 0-.023 0-.066-.022-.088a.338.338 0 0 0-.132-.065c-.065-.045-.087-.045-.109-.045h-.088c-.022 0-.065 0-.065.045a.166.166 0 0 0-.088-.045c-.022.045-.045.087-.022.153-.066 0-.11.131-.154.11.023.044.023.044.045.044-.045.088-.065.175-.11.175l.046.045c0 .066-.023.11-.023.175l-.045-.022h-.022c-.066-.022-.11 0-.22-.066-.087-.045-.087-.087-.087-.175 0-.066.022-.131.022-.22 0 0 0-.044-.022-.044 0-.066-.066-.088-.11-.088.023.022.045.045.045.088l-.022.022c-.023.023-.023.066 0 .088v.045h-.023c0-.066-.022-.132-.087-.132h-.023v-.022c0-.045-.065-.088-.13-.023.022 0 .044 0 .065.023-.023.022-.023.045-.023.045 0 .065.045.087.088.087h.022v.045c-.087-.045-.13 0-.13.045v.045c-.046.023-.046.066.022.11 0-.023 0-.066.022-.066s.022.022.022.022c.023 0 .023 0 .066-.022h.023s.022 0 .022.022h.022c-.087.066-.065.132.023.154v.022c0 .11-.153.088-.153-.022-.088.131.065.241.197.153 0 .045.023.066.045.066 0-.022 0-.022.023-.022.022.022.022.065.065.087 0-.022 0-.066.023-.066.022 0 .022-.044.153.045.023.023.023.045.066.045l.11-.022c-.023.087 0 .22-.023.22s-.175-.023-.242 0c-.065.044-.263.109-.329.044-.022-.045-.022-.066-.044-.11 0-.022-.045-.044-.045-.044h-.045a.133.133 0 0 0-.154-.023c.023 0 .066.023.088.066-.022 0-.022.022-.022.022-.023.023-.023.066.109.11 0 0 .023.022 0 .022 0 0-.022.023-.066 0-.045-.045-.045-.087-.11-.065 0 0-.022.022-.044.022-.066 0-.131.066-.11.131.023-.022.045-.065.066-.065.023.022.023.022.023.045 0 .065.045.109.175.022-.023.066-.11.11-.045.154l.022.022v.023c-.022.066.066.11.11.11-.023-.023-.045-.046-.045-.11.022.022.022.022.045.022.045-.045.022-.11.066-.131.022.045.022.11.11.11.065-.023.087-.066.087-.11.022 0 .045.045.045.066 0 0 .044-.023.065-.045 0 .022 0 .065-.045.131.045-.022.11-.045.11-.131.022 0 .022.022.045.045v-.023c.022.023.065.023.153 0v.023c0 .022 0 .065.022.065 0 0 0-.045.023-.045.022 0 0 .088.045.132 0-.198.153-.153.285-.22 0-.022 0 0 0 0 0 .023-.022.045-.045.066.131.088.241-.088.285-.198l.045-.022s0 .022-.022.045c.11.022.11-.088.154-.088.372.045.087-.307.68-.197.044 0 .109-.045.13-.066-.044.066-.044.241.046.263.044 0 .109.023.13.045.023.023 0 .023 0 .023-.044 0-.087.022-.109.022-.13.088-.13-.175-.263-.131l-.022.022a.141.141 0 0 0-.132.131c.023-.022.045-.065.088-.065v.045c0 .022 0 .044.045.044s.045-.022.066-.022v.022c0 .045-.154-.044-.132.11 0 0 .023.022.045.022-.022.066.023.11.088.066 0 0-.045-.022-.023-.045h.023s.022 0 .022-.022h.023c0 .022-.023.022-.023.045l.023.045c0 .044.065.109.153.044-.023 0-.088 0-.088-.022.023-.023.045-.023.045-.023v-.065h.09c0 .045.045.065.087.045.11-.023.023-.11.088-.11.023 0 .045-.022.066 0 .065 0 .175 0 .197-.022.023-.045 0-.175-.065-.22-.066-.022 0-.066-.045-.131a.459.459 0 0 0 .263.066c.175 0 .285-.023.373-.088.11-.045.22-.022.241-.022.023 0 .045.022.023.065-.045.088-.023.088-.045.132-.045.044-.11.022-.175.022-.023-.022-.045.022-.045.022-.066 0-.132.045-.132.11.023-.023.045-.045.088-.045v.022c0 .066.066.088.11.045 0-.022.022 0 .022 0-.066.045-.132.088-.088.132 0 0 .023 0 .023.022 0 .023 0 .066.045.088 0-.023 0-.045.022-.088h.045c.045 0 .045-.087.088-.11h.022c-.045.046-.066.11-.022.132h.022c.023.045.045.066.131.045-.022-.023-.065-.023-.065-.045.045-.023.045-.045.065-.045.045-.11-.044-.11-.022-.154 0-.045.088-.022.131-.131 0 0 0-.045-.045-.066.045 0 .066.023.088-.022-.066 0-.045-.066-.045-.11 0 0 0-.022.023-.022.022-.023.065-.045.065-.11-.045.045-.131.088-.131.023 0-.022.022-.066-.066-.045-.131 0-.307-.022-.548-.045-.023 0-.023 0 0-.022.241-.023.723-.045.723-.198 0-.131-.022-.22-.438-.22-.417 0-1.36.154-1.36-.087 0-.11.176-.088.395-.088m-1.36-.022c-.044.045-.087.066-.109.022-.045-.022 0-.044-.045-.109.045.045.11.088.154.088m.066.241c0 .022 0-.023-.023-.023-.022-.022-.022 0-.022.045-.023-.022-.045-.045-.066 0-.022.023-.022.045 0 .066.023 0 0 .022 0 .066-.022.022-.045.065-.11.045-.044-.023-.022-.088-.022-.11.023-.022.023-.045.045-.045.023 0 .045 0 .066-.045 0-.022-.022-.044-.066-.065.045 0 .066-.023.045-.023-.022-.022-.045 0-.066 0 0-.022.023-.045.045-.045 0-.022.023-.022.023 0l.154.066s.022.023.022.045c0 0 0 .022-.022.022m.087-.087c-.065 0-.065-.066-.065-.11.022.023.109.045.175.066-.088.022-.066.045-.11.045m3.193-1.263a.184.184 0 0 0 .045-.13c-.022.044-.131.087-.131.022 0-.023 0-.066-.066-.045-.153 0-.263-.023-.526-.045-.022 0-.022-.023 0-.023.264-.022.724-.045.724-.22 0-.13-.154-.219-.592-.219-.439 0-1.798.154-1.798-.087 0-.154.438-.088.79-.088.022.023.044.045.087.066.57.154 1.228-.263 1.579-.175-.46-.153-.746.131-1.163.045.242 0 .505-.066.526-.132-.197.132-.745-.087-.986.066-.023 0-.023.023-.045.023-.417 0-.921-.045-.921.197 0 .439 1.557.197 1.907.197.373 0 .46.023.46.088 0 .11-.372.153-.57.153-.35 0-1.797-.197-2.367-.023.022-.109.175-.24.11-.328.044-.023.087-.066.087-.11-.045-.045-.066-.045-.11-.045.023-.045 0-.066-.022-.087 0 0-.023-.066-.045-.066-.023-.023-.066-.066-.132-.11-.044-.022-.087-.022-.13-.022h-.067c-.044 0-.065 0-.087.045a.166.166 0 0 0-.088-.045c-.022.045-.045.088-.022.153-.045 0-.11.132-.154.132.023.022.023.045.045.045-.045.087-.065.175-.11.175l.067.065v.132l-.088-.023h-.066c-.022 0-.045-.022-.065-.022-.066 0-.132-.11-.242-.175-.087-.066-.087-.11-.087-.198 0-.066.045-.131.022-.198 0-.022 0-.065-.022-.087 0-.045-.066-.088-.11-.066.023 0 .045.023.045.066-.022.022-.022.045-.045.045 0 .022 0 .065.023.087v.045c-.023.023-.023 0-.023 0-.022-.045-.045-.131-.087-.131 0 0-.023-.023-.045-.023 0-.044-.066-.087-.132-.022.023 0 .045 0 .066.022l-.022.045c0 .066.045.088.11.088 0 0 .022 0 .022.022v.023c-.11-.045-.154 0-.154.045v.045c-.045.022-.045.065.023.109 0 0 0-.045.022-.066h.023c0 .023.022.023.022.023 0 .022.023 0 .066-.023h.022c0 .023 0 .023.023.023v.022c-.066.066-.045.132.045.154v.022c0 .11-.175.088-.154-.022-.087.131.066.241.176.175.022-.022.022 0 .022 0 0 .023.022.045.045.045 0 0 0-.022.022-.022.023.044.023.087.066.087 0-.022 0-.045.023-.045.022 0 .109.175.285.285 0-.022.065-.045.11-.065 0 .022.022.065.065.065h.022c0 .066.088.176.066.176-.022 0-.197-.045-.241 0-.088.044-.285.109-.351.044-.023-.044-.023-.065-.045-.109-.023-.045-.045-.066-.066-.066h-.045c-.045-.022-.11-.045-.153 0 .045 0 .066 0 .088.045 0 .023-.023.023-.023.045-.022.023 0 .066.132.11v.022c-.023 0-.045.023-.066-.022-.045-.023-.066-.088-.132-.045 0 0-.022 0-.044.022-.066-.022-.154.045-.11.11 0 0 .023-.045.066-.045.022 0 .022.022.022.022 0 .088.045.131.175.045.023-.023.023 0 0 0-.022.066-.109.11-.044.153l.022.023v.022c0 .088.066.131.11.131a.167.167 0 0 1-.045-.109h.045c.065-.022.044-.11.065-.131.023 0 .023 0 .023.022.022.023.022.088.11.088.065 0 .087-.066.087-.11.045.023.065.045.045.088l.065-.066c0 .045.023.088-.045.132.045 0 .11-.045.132-.132a.07.07 0 0 1 .022.045c.045 0 .088.023.175 0v.088c0-.023.023-.045.045-.045.023 0 0 .066.045.131.023-.197.132-.131.242-.197.022-.022.022-.022.022 0l-.066.066c.045.022.22-.088.22-.153 0-.023.087-.023.131-.045.131 0 .11-.088.153-.088.746.11.33-.307 1.162-.22.045 0 .066-.044.11-.087-.045.088-.045.263.045.263.022.023.11.045.131.066.022 0 0 .022 0 .022-.045 0-.11.023-.131.023-.11.087-.132-.197-.264-.131 0 0-.022.022-.044.022-.066 0-.132.066-.11.11 0 0 .045-.045.088-.045v.022c0 .045 0 .045.045.045h.065v.022c0 .045-.175-.045-.131.11l.022.045c0 .045.045.087.11.065-.023-.022-.045-.044-.045-.065a.07.07 0 0 0 .045.022l.022-.022v-.023c.023 0 .023.023.023.023l-.023.022.023.045c0 .066.066.11.153.066a.163.163 0 0 1-.088-.045c.023 0 .045-.023.045-.023.023 0 .023-.022.023-.044v-.023h.045c.022 0 .022.023.022.023.023.022.066.065.11.044.087-.044.022-.109.087-.13h.066c.066.022.175.022.197-.023.022-.045 0-.175-.066-.22-.045-.022 0-.087-.045-.153a.54.54 0 0 0 .285.066c.198 0 .264-.023.351-.066.11-.066.22-.045.242-.023.045 0 .065 0 .045.045-.045.11 0 .11-.023.154-.022.045-.11.023-.175 0-.023 0-.066.023-.066.045-.045 0-.11.045-.11.11.023-.023.046-.045.088-.045v.022c0 .066.088.088.132.045h.022c-.045.045-.131.11-.066.131l.023.023c0 .045.022.087.066.087-.023-.022-.023-.022 0-.087h.045c.044 0 .022-.088.087-.11 0 0 .023 0 0 0 0 .066-.022.11.023.132h.022c.022.044.066.087.131.044-.022 0-.045-.022-.065-.044l.045-.045c.044-.11-.045-.11-.045-.154s.11-.022.11-.13c.022-.023 0-.046-.046-.067.045 0 .066 0 .088-.045-.088.023-.045-.065-.045-.109m-3.201-.811c.022.022.131.045.175.065-.088.023-.066.045-.11.045-.045 0-.065-.065-.065-.11m-.11-.065c-.022.045-.066.088-.11.045-.022-.045 0-.045-.044-.11.045.023.131.066.153.066m-.153.373c.022-.045.022-.066.045-.066.022 0 .045 0 .045-.045.022-.022 0-.044-.045-.065.045 0 .045-.023.045-.023-.023-.022-.066 0-.066 0 0-.022.022-.045.022-.045.023-.022.023-.022.045 0l.154.066s.022 0 .022.023c0 .022 0 .044-.022.044 0 .023 0-.022-.023-.044-.022 0-.022.022-.022.065-.023-.022-.066-.045-.066 0-.023.023-.023.045 0 .066v.066c-.023.045-.066.087-.11.065-.045-.045-.045-.087-.022-.11m-.131-.197zm.045-.175v.023-.023m-2.755-2.532c0-.132-.153-.22-.592-.22-.46 0-1.798.154-1.798-.087 0-.153.46-.088.79-.088 0 .023.045.045.087.066.57.153 1.162-.22 1.58-.088-.33-.285-.746.045-1.163-.045.241 0 .504-.065.526-.131-.198.131-.746-.088-.987.066-.022 0-.022.022-.045.022-.416 0-.92-.045-.92.197 0 .439 1.556.175 1.907.175.373 0 .46.045.46.11 0 .11-.372.131-.57.131-.35 0-1.798-.175-2.368 0 .023-.11.153-.263.088-.329.065-.022.11-.066.11-.11-.046-.044-.088-.044-.11-.065.022-.022 0-.045-.023-.066-.022 0-.022-.065-.045-.087-.022 0-.065-.045-.13-.066-.067-.045-.11-.045-.132-.045 0 0-.066.022-.066 0-.045 0-.088 0-.088.045a.167.167 0 0 0-.087-.045c-.045.045-.045.088-.023.154-.065 0-.11.131-.153.131.023.023.023.045.045.045-.045.088-.066.175-.11.175.023.023.045.045.045.066 0 .045 0 .088-.022.131l-.045-.022h-.066c-.022 0-.045-.022-.065-.022-.066 0-.132-.11-.242-.176-.087-.065-.087-.087-.087-.197 0-.065.045-.153.022-.22 0 0 0-.044-.022-.065-.023-.045-.088-.087-.11-.066.023.023.045.023.045.066l-.045.045c0 .023-.022.066.023.088v.045c-.023.022-.023 0-.023 0-.022-.066-.045-.132-.087-.132h-.045v-.022c0-.045-.066-.088-.132-.023.023 0 .045 0 .066.023-.022 0-.022.045-.022.045 0 .065.044.087.109.087l.022.023v.022c-.109-.045-.153 0-.153.045v.045c-.045.022-.045.066.023.11 0 0 0-.046.022-.066a.07.07 0 0 0 .045.022c0 .022.023 0 .045-.022h.045c0 .022 0 .022.022.022v.022c-.065.066-.065.132.023.154.022 0 .022 0 .022.022 0 .11-.175.088-.175-.022-.088.131.088.241.198.175h.022c0 .022.023.045.045.045 0 0 0-.023.022-.023h.023c0 .045 0 .088.045.088 0-.023 0-.045.022-.045.023 0 .11.175.285.263.045 0 .088 0 .11-.045l.045.045c0 .066.045.175.045.175-.045 0-.307-.022-.373.023-.088.045-.285.11-.35.022-.023-.022-.023-.045-.046-.087-.022-.045-.045-.045-.065-.066h-.045c-.023-.022-.11-.045-.132 0 .023 0 .045 0 .066.045 0 .022-.023.045-.023.045 0 .022 0 .066.132.11v.022c-.023 0-.045.022-.066-.023-.045-.022-.066-.087-.11-.045-.022 0-.022 0-.044.023-.023 0-.023-.023-.023-.023-.065 0-.153.088-.11.154.023-.023.046-.066.067-.066.022 0 .022.022.022.045 0 .066.045.11.175.022h.023c-.045.066-.132.11-.066.175 0 0 .022 0 .022.023 0 .066.066.131.11.131a.166.166 0 0 1-.045-.11h.045c.066-.022.045-.109.087-.13v.022c.023.022.023.11.11.087.066 0 .11-.065.087-.109h.023c.022.022.045.045.022.088l.066-.066c0 .045.023.087-.022.131.022 0 .087-.045.11-.131l.044.045c.022 0 .066.022.153 0 0-.023 0 0 0 0v.087c.023-.022.023-.045.045-.045.023 0 0 .066.045.11.022-.197.241-.088.373-.175 0 0 .022 0 0 0 0 .045-.023.065-.045.087a.24.24 0 0 0 .154-.065v.022l.197-.11v-.044c.022-.023.045-.023.065-.023.132.023.11-.087.176-.087.723.11.307-.307 1.14-.22.045 0 .065-.022.11-.065-.046.087-.046.241.022.241.045 0 .131.045.154.066v.022c-.045 0-.11.023-.132.023-.131.087-.131-.198-.263-.132-.023 0-.023 0-.045.023-.045 0-.131.065-.11.131 0-.022.045-.066.088-.066v.045c0 .023 0 .045.045.045.022 0 .045-.022.066-.022v.022c0 .045-.175-.045-.132.11l.023.044c0 .045.022.088.11.066a.048.048 0 0 1-.046-.045h.045l.023-.022v-.023c0 .023.022.023.022.023l-.022.022c0 .023.022.045.022.045 0 .066.066.11.154.066a.162.162 0 0 1-.088-.045h.045c.022-.023.022-.045.022-.066.023 0 .023-.022.045-.022.023 0 .023.022.023.022.022.023.065.066.11.045.087-.045.022-.11.087-.131.022 0 .045-.023.065 0 .066.022.176 0 .198-.023.023-.044 0-.175-.066-.22-.045-.021 0-.065-.045-.13.088.022.154.065.286.065.197 0 .241-.045.329-.087.109-.066.219-.045.24-.023.046 0 .067 0 .046.045-.023.11.022.11 0 .153-.023.045-.11.023-.175 0-.045 0-.066.045-.066.045-.045 0-.11.045-.11.11a.166.166 0 0 1 .11-.045v.022c0 .066.088.088.131.045 0 0 .023 0 0 0-.045.045-.11.11-.045.131l.023.023c0 .045.045.087.066.087 0-.022 0-.022.022-.087 0 0 .022 0 .022.022.045 0 .023-.11.088-.131-.023.066-.023.131.022.131 0 0 .023 0 .045.023 0 .022.045.065.11.022 0 0-.045-.022-.045-.045l.022-.045c.045-.11-.066-.11-.066-.153 0-.045.11-.022.11-.131 0-.023 0-.045-.045-.066.045 0 .066 0 .088-.045-.088 0-.066-.045-.066-.087v-.023c.022-.022.045-.066.022-.131-.022.045-.109.087-.109.022 0-.022-.023-.065-.088-.045-.131 0-.22-.022-.482-.045.263-.022.724-.065.724-.241m-3.245-.35c.022 0 .131.044.175.065-.088.022-.066.045-.11.045-.045 0-.065-.066-.065-.11m-.11-.065c-.022.045-.066.065-.11.045-.022-.045 0-.045-.044-.132a.37.37 0 0 0 .153.088m-.153.35c.022-.022.022-.044.045-.044.022 0 .045 0 .045-.045.022-.023 0-.045-.045-.066.045 0 .045-.022.045-.045-.023 0-.066.023-.066 0 0 0 .022-.022.022-.045h.045l.153.088s.023 0 .023.022v.045c-.023 0-.023-.045-.045-.045s-.022.023-.022.045c-.023 0-.066-.022-.066.023-.023.022-.023.045 0 .065.022 0 0 .045 0 .066-.023.045-.066.088-.11.045-.045-.022-.045-.066-.022-.11m3.689-1.985c0-.131-.154-.241-.614-.241-.483 0-1.513.175-1.513-.088 0-.11.197-.11.438-.087a.166.166 0 0 0 .11.045c.591.175 1.293-.132 1.666-.023-.439-.329-.79 0-1.25-.11.285 0 .373-.065.373-.13-.198.13-.592-.066-.834.087-.022 0-.044 0-.044.023-.33 0-.592 0-.592.197 0 .482 1.227.197 1.622.197s.482.045.482.11c0 .13-.394.153-.614.153-.329 0-1.36-.175-1.973-.065.045-.088.175-.22.11-.307.044-.023.087-.066.087-.11a.166.166 0 0 0-.11-.045c.023-.022 0-.065-.022-.087-.022 0-.022-.066-.045-.088-.022 0-.066-.045-.131-.088-.066-.022-.11-.022-.132-.022-.022-.023-.087 0-.087 0-.045 0-.066 0-.088.045-.022-.045-.065-.045-.087-.045-.045.045-.045.088-.023.153-.066 0-.11.153-.175.132.023.044.045.044.066.065-.045.066-.066.175-.132.175.045.045.066.066.088.066-.022.066-.022.131-.022.175l-.11-.022-.022-.023h-.023.023l-.045-.022c-.045-.045-.11-.11-.198-.175-.087-.045-.087-.088-.087-.175 0-.088.045-.176.045-.242 0 0-.023-.045-.023-.065 0-.045-.066-.088-.131-.088.045.022.065.045.065.088l-.045.044c-.022.023-.044.045 0 .088 0 .023 0 .023-.022.045 0 .022 0 0 0 0-.022-.066-.045-.131-.088-.153h-.044c.022-.066-.045-.11-.132-.045.023 0 .045.022.066.022-.023.023-.023.066-.023.066-.022.066.045.087.11.087.022.023.022.023.022.045h-.022c-.11-.045-.153 0-.153.045v.045c-.045.023-.045.088.022.132 0-.023 0-.066.023-.066l.022-.023c0 .023.022.045.022.045s.023 0 .066-.022c0-.023.023-.023.023 0 0 0 .022 0 .022.022.023 0 .023 0 0 .023-.066.066-.066.131.023.154h.022c-.022.153-.198.11-.175-.023-.088.153.066.263.197.198h.022c0 .022.023.045.045.045 0 0 0-.023.023-.023v.023c0 .022.022.065.065.065 0-.022 0-.045.023-.045.022 0 .066.11.175.176.088.022.154.109.22.065-.023.088.065.198.044.198-.022 0-.263-.023-.328 0-.088.045-.308.131-.351.045-.023-.045-.023-.066-.045-.11-.023-.022-.066-.045-.066-.065h-.066c-.045-.023-.11-.023-.131 0 .023 0 .045 0 .066.044 0 .023-.023.045-.023.045-.022.023 0 .066.132.132 0 0 .022 0 0 .022-.023 0-.045 0-.066-.022-.045-.045-.066-.088-.131-.066 0 0-.023.022-.045.022-.066 0-.154.066-.11.132 0 0 .023-.045.066-.045 0 0 0 .022.022.045 0 .065.045.11.176.022.022-.022.022 0 0 0-.023.066-.11.11-.045.175 0 0 .022 0 .022.023 0 .087.066.154.132.154-.023-.023-.066-.066-.045-.132 0 0 .022.023.045.023.065-.045.022-.132.065-.132.023-.022.023-.022.023 0 0 .023.022.11.087.11.088-.023.132-.088.11-.131h.022c.023.022.045.044.023.087.022 0 .045-.022.065-.066.023.045.023.088-.022.154.022-.023.11-.066.131-.154 0 .023.023.045.023.066v-.022c.022.022.087.022.175 0v.022c0 .023 0 .045.022.066l.023-.045c.022 0 0 .088.045.131.022-.197.13-.131.263-.22.022 0 .022 0 0 .023 0 .023-.023.045-.045.066.131.045.373-.175.395-.263.065-.023.109-.023.13-.023.417.045.132-.372.79-.263.045.022.11-.022.153-.066-.044.088-.044.264.045.286.045 0 .132.022.154.065v.023c-.066 0-.11.022-.132.022-.131.088-.131-.22-.285-.153-.022 0-.045.022-.045.022-.065 0-.153.088-.131.132.022 0 .066-.045.11-.045v.045c-.023 0 0 .045.044.045.023 0 .045-.023.045-.023.023 0 .045 0 .045.023 0 .045-.198-.045-.153.11 0 0 0 .044.022.044 0 .045.023.11.11.066a.048.048 0 0 1-.045-.045h.045s.022 0 .022-.023h.023v.09c0 .045.065.11.153.066-.023-.023-.066-.023-.088-.045.023-.023.045-.023.045-.023.023 0 .023-.022.023-.065h.089c.023.045.045.065.11.045.087-.023.022-.11.087-.132h.066c.066.023.198.023.22-.022.022-.045 0-.175-.088-.22-.045-.022 0-.087-.045-.153.088.022.175.065.307.065.198 0 .263-.022.351-.087a.288.288 0 0 1 .263-.023c.023 0 .045 0 .045.045-.022.11 0 .131-.022.175-.023.045-.11 0-.175 0-.045 0-.066.023-.066.045-.045 0-.11.045-.11.11a.166.166 0 0 1 .11-.045v.022c0 .066.088.088.131.045h.023c-.045.045-.132.11-.066.131 0 .023.022.023.045.023 0 .066.022.11.066.11-.023-.023-.023-.046 0-.088h.045c.044 0 .022-.088.065-.132h.023c-.023.066-.045.132.022.154h.045c0 .045.066.065.11.045 0-.023-.045-.023-.045-.045 0-.023.022-.045.022-.066.045-.11-.065-.11-.065-.153 0-.045.109-.023.109-.132 0-.022 0-.065-.045-.065v-.023c.045 0 .066.023.088-.022-.088 0-.066-.066-.066-.11v-.022a.184.184 0 0 0 .045-.132c-.045.045-.131.088-.131 0 0 0-.023-.044-.088-.022-.154 0-.241-.022-.505-.045.307 0 .746-.088.746-.263m-3.64.263h.022-.022m.745-.658a.413.413 0 0 0 .176.066c-.066.022-.045.066-.11.066-.045-.023-.066-.088-.066-.132m-.109-.045c-.022.023-.066.066-.11.023-.044-.023 0-.045-.044-.132.045.045.131.088.153.11m-.175.373c.022-.045.022-.066.045-.066.045 0 .045 0 .065-.045 0-.022-.022-.045-.065-.066.045-.022.065-.022.045-.045-.023-.022-.045.023-.066 0 0-.022.022-.022.045-.044h.045l.131.065c.022.023.045.023.045.045 0 .023 0 .045-.022.045 0 .022 0-.045-.023-.045-.045 0-.045.023-.022.066-.023-.023-.066-.045-.088 0-.022.022 0 .045.023.066 0 .022 0 .044-.023.065 0 .045-.045.088-.11.066-.044-.022-.044-.088-.022-.11m.395.812v-.023zm2.113-2.529c.482.023.702-.131.702-.285 0-.526-1.294-.197-1.294-.526 0-.045.045-.11.088-.153h.022c.658-.045.68-.504 1.14-.592-.57-.088-.636.373-.877.373.11-.045.175-.198.154-.264-.11.154-.373.175-.505.351-.022.023-.044.066-.022.088-.088.045-.131.11-.131.197 0 .504 1.315.154 1.315.504 0 .132-.241.22-.592.22-.263 0-.46-.198-.964-.066 0-.087.153-.241.087-.329.045 0 .088-.045.088-.087a.166.166 0 0 0-.088-.045c0-.023-.022-.045-.045-.066 0-.022 0-.066-.022-.088-.023 0-.045-.044-.11-.065-.065-.023-.087-.023-.11-.045-.022 0-.065.022-.087.022-.022 0-.065 0-.065.023-.023-.023-.045-.023-.088-.045-.022.045-.022.087-.022.154-.045 0-.088.11-.132.11.023.022.023.044.045.044-.045.066-.066.154-.11.175.023 0 .023.023.046.023a.938.938 0 0 0-.066.307c-.045-.023-.066-.066-.11-.088-.087-.045-.065-.088-.065-.153.022-.066.065-.132.065-.175 0-.023-.022-.045-.022-.066 0-.045-.066-.088-.088-.066.023 0 .023.023.023.066l-.023.022c-.022.023-.045.045-.022.066v.045c0 .022 0 .022 0 0-.023-.045-.045-.11-.088-.11h-.022v-.022c0-.045-.045-.088-.132-.022.023 0 .045 0 .066.022-.022.022-.022.045-.022.045-.023.045.022.066.065.087h.023v.023c-.088-.045-.132 0-.153.045v.022c-.023.023-.045.066 0 .11.022-.023.022-.045.044-.066l.023.022h.066c0-.022.022-.022.022 0h.023v.023c-.066.065-.066.11.022.131v.023c-.022.087-.175.065-.153-.023-.11.11.045.198.153.154h.022c0 .022.023.045.045.045-.022-.023 0-.023.023-.023 0 .023 0 .066.045.066 0-.022 0-.045.022-.045.023 0 .045.088.132.175-.11.045-.286.088-.307.088-.023 0-.176-.023-.22 0-.088.045-.263.11-.329.045 0-.023 0-.066-.022-.088-.023-.022-.045-.065-.066-.065h-.045c-.022-.023-.087-.023-.131 0 .022 0 .066 0 .087.044-.022 0-.022.023-.022.045-.022.023 0 .045.11.088 0 0 .022.022 0 .022-.023 0-.045.023-.066 0-.045-.045-.045-.087-.11-.065l-.022.022h-.022c-.045 0-.132.045-.088.11 0-.023.022-.045.066-.045v.022c.022.066.045.11.153.045.022-.022.022 0 .022 0-.045.045-.11.11-.045.131 0 0 0 .023.023.023v.022c-.023.066.066.11.087.11 0-.023-.044-.045-.022-.11 0 .023.022.023.022.023.066-.023.045-.088.066-.11 0-.022.023 0 .023 0 0 .023.022.088.087.088.066 0 .088-.066.088-.088v-.022c.022.022.045.045.045.088 0-.023.045-.045.045-.066.022.045.022.087-.023.131.023 0 .088-.045.11-.131a.07.07 0 0 1 .022.045c.045 0 .088.022.153 0v.065s.023-.022.045-.022c.023 0 0 .066.045.11 0-.176.11-.11.22-.176 0-.022 0-.022 0 0a.048.048 0 0 1-.045.045c.045.023.131-.022.131-.087 0-.023.045-.045.066-.066.045.022.11 0 .131-.066 0 .023.023.088 0 .088.11.022.241-.11.285-.132.242-.044-.153-.22.351-.197.045 0 .11-.022.153-.045-.045.066-.045.22.023.242.045 0 .11.022.131.045.023 0 .023.022 0 .022-.045 0-.088 0-.11.023-.109.087-.109-.176-.24-.132 0 0-.023.023-.046.023-.045 0-.11.065-.11.11.023-.023.046-.046.089-.046v.023c0 .022 0 .045.044.045h.066c0 .065-.153-.023-.131.109 0 0 .022.023.022.045 0 .045.045.088.11.066-.023-.023-.045-.045-.045-.066h.045l.022-.022s.023 0 .023.022c0 0-.023 0-.023.022 0 0 0 .045.023.045-.023.045.065.088.131.045-.023 0-.066 0-.066-.022l.023-.023c.022 0 .022-.022.022-.045v-.022h.045s.022 0 .022.022c.023.023.045.045.088.045.088-.045.023-.11.088-.131h.045c.065.022.175.022.197-.022 0-.023 0-.154-.066-.197-.044 0 0-.066-.044-.11a.798.798 0 0 0 .263.045c.175 0 0-.022.087-.066a.205.205 0 0 1 .22-.022c.022 0 .045 0 .022.045-.022.087.023.11 0 .131-.022.045-.11.022-.153.022-.022 0-.066 0-.066.023-.045 0-.087.045-.087.11.022-.023.045-.046.087-.046 0 .066.066.088.11.045.022 0 .022 0 .022.023-.045.022-.11.087-.045.11 0 0 .023 0 .023.022 0 .044.022.065.066.087-.023-.022-.023-.045 0-.087h.022c.045 0 .023-.088.088-.11-.023.066-.023.11.022.131h.023c.022.045.065.066.109.045 0-.022-.045-.022-.045-.045.023-.022.023-.044.023-.044.044-.11-.045-.11-.045-.132 0-.045.087-.022.087-.131 0 0 0-.045-.045-.045v-.023c.023 0 .066.023.088-.022-.088 0-.066-.066-.066-.11.023-.022.045-.044.023-.109-.023.023-.088.066-.11 0 0 0 0-.045-.065-.045-.132.023-.176-.045-.417-.065 0 0-.022 0 0-.023m-1.097-.614c0 .023.11.066.154.066-.088.023-.066.045-.11.045s-.065-.066-.044-.11m-.11-.044c-.022.045-.066.065-.087.045-.045-.045 0-.045-.045-.11.045.023.11.066.131.066m-.131.329c0-.023.022-.045.022-.045a.048.048 0 0 0 .045-.045c.022-.023 0-.045-.023-.066.023 0 .023-.022.023-.022-.023-.023-.045 0-.066-.023 0 0 .023-.022.045-.022h.023l.13.066c.023 0 .023 0 .023.022s.023.045 0 .045c-.022 0-.022-.045-.045-.045v.045c-.022 0-.044-.023-.065.022-.023.023-.023.023 0 .045.022.023 0 .045 0 .066-.023.022-.045.066-.088.045-.045-.023-.045-.066-.022-.088m1.743 7.37h-.11v-.11c.023-.372-.197-.68-.635-.68-.373 0-1.097.483-2.105.483-.417 0-.921-.198-1.25-.395l-.131.307v-.022c0-.132-.11-.264-.242-.264-.131 0-.241.132-.241.264 0 .131.11.241.241.241a.334.334 0 0 0 .198-.087l-.131.285c.044.022.087.045.13.065-.152 1.535.988 3.487 2.983 4.079.307-.088.592-.045.592.285 0 .197-.088.285-.263.285-.132 0-.197-.066-.197-.154 0-.131.22-.045.241-.131.045-.131-.045-.198-.175-.198-.131 0-.35.11-.35.33 0 .284.219.438.46.438.219 0 .68-.132.613-.658.11 0 .242-.023.264-.132l.022-.307h-.11l.088-3.508h.088c.11 0 .22-.045.241-.197 0-.132-.11-.198-.22-.22m-3.595.285L40.5 30.72c-1.294-.505-2.588-1.667-2.412-3.487m2.5 3.158-2.215-3.18h.197c.11 0 .22 0 .33-.022l1.797 2.543c-.045.242-.087.483-.11.658m.154-1.008-1.557-2.237c.175-.045.33-.088.504-.153l1.162 1.666a8.46 8.46 0 0 1-.109.724m.373-2.456-.088-.022c-.11 0-.241.044-.241.175-.023.153.087.22.22.241h.065c0 .023 0 .066-.023.088-.022.197-.087.526-.131.92l-.987-1.425c.46-.197.834-.394 1.03-.394.154 0 .198.087.154.416m6.05-3.638a.251.251 0 0 0 .176-.153c-.088.022-.153-.023-.175-.023.066-.045.131 0 .066-.11-.088-.13-.132-.13-.22-.044-.066.088-.592-.022-.57-.416.022.065.088.109.154.153.022.022.045.022.065.022.023.023.045.023.066.023.066.022.11.022.153.022h.023v-.022c.11-.023.198-.088.198-.198.044-.22-.176-.307-.395-.504-.088-.066-.153-.131-.198-.175-.087-.154-.045-.285-.22-.57a1.957 1.957 0 0 1-.065-.264.718.718 0 0 0 .11.834c.22.241.68.46.657.657 0 .045-.044.088-.109.11-.022 0-.045 0-.066-.023h-.045c-.045-.022-.065-.022-.087-.045a.465.465 0 0 1-.175-.13 5.195 5.195 0 0 1-.483-.593c-.197-.263-.109-.526-.087-.745.153-.22-.088-.636-.22-.746 0 0 .023-.088-.022-.22-.023.023-.088.023-.11.023-.044-.088-.065-.11-.13-.11-.089-.022-.089-.065-.089-.109-.044.066-.065.11-.13.11-.067 0-.11 0-.132.022-.045.045-.066.066-.153.045-.088 0-.088.066-.088.131 0 .023.022.088.066.11l.022.022.066.088.045-.11c.045-.022.153-.022.175.045.022.066.045.088-.045.088-.066 0-.11 0-.175.022-.066 0-.066.045-.066.11.023.045.066.065.175.045.11-.023.285-.045.285.045 0 .22-.263.22-.329.482-.065-.045-.131-.088-.153-.153a1.698 1.698 0 0 0-.197-.242 1.492 1.492 0 0 0-.198-.153c-.088-.066-.088-.11-.088-.198 0-.087.023-.153.023-.22 0-.022 0-.065-.023-.065-.022-.066-.087-.11-.11-.087.023 0 .046.022.046.087a.048.048 0 0 0-.045.045c-.022 0-.022.045 0 .066.022 0 .022 0 .022.022 0 0 0 .023-.022.045v-.022c-.022-.045-.045-.132-.11-.132h-.044c.022 0 .022 0 .022-.022 0-.045-.066-.11-.154-.023.023 0 .045 0 .066.023 0 .022-.022.045-.022.065 0 .045.044.088.109.088h.022v.023c0 .022 0 .022 0 0-.11-.045-.153.022-.153.065v.045c-.045.023-.045.066.023.11 0 0 0-.045.022-.066h.022c0 .022.023.022.023.022 0 .023.022 0 .066-.022h.022c0 .022.023.022.023.022.022.023.022.023 0 .023-.066.066-.045.131.022.153-.022.066-.153.045-.131-.066-.11.154.045.242.175.198 0 .045 0 .153.022.153 0 0 0-.022.023-.022h.022c0 .045 0 .087.045.087 0-.022 0-.045.023-.045a.434.434 0 0 1 .065.11c.066.11.175.373.46.504-.153.066-.24.198-.328.285-.088.088-.198.175-.264.131-.022-.022-.044-.065-.087-.087-.023-.023-.066-.023-.088-.023 0 0-.022 0-.045.023a.104.104 0 0 0-.131.045c.022 0 .045-.023.088 0v.065c0 .023.022.066.175.066h.022c-.022.023-.045.045-.087.023-.066-.023-.088-.066-.132 0 0 0-.022.022-.045.022h-.022c-.045.022-.088.131-.023.175 0-.022 0-.045.023-.066.022 0 .045.023.045.023.045.066.087.087.175-.045 0-.023.022-.023.022 0-.022.066-.087.154 0 .175h.045v.022c.023.066.132.088.175.066-.045 0-.087-.022-.087-.087h.022c.066-.045 0-.11.023-.154 0-.022.022 0 .022 0 .023.023.066.088.131.045.045-.022.066-.045.066-.087.088-.045.175-.066.242-.045 0-.045.044-.11.153-.153.11-.023.154 0 .175.044a.763.763 0 0 1 .11-.175c0 .395.526.395.658.636-.154-.066-.351-.11-.439-.087-.131.022-.372.153-.394.307-.023.109.11.329.22.416-.154.045-.198 0-.352.023-.131.022-.153-.197-.307-.154l-.045.045c-.044 0-.13.066-.109.132.022-.023.045-.066.088-.066v.022c0 .045 0 .066.044.066.045 0 .045-.022.066-.022.023 0 .023 0 .023.022 0 .045-.175-.045-.154.11 0 .022.023.044.023.044 0 .066.045.11.131.088-.022-.022-.065-.045-.045-.066h.023c.022 0 .022 0 .022-.022h.045c0 .022-.022.022-.022.045 0 0 0 .045.022.045-.022.065.066.11.154.065-.023 0-.088-.022-.088-.044.023 0 .045-.023.045-.023v-.045c0-.022.023-.022.023-.022h.045c.022 0 .022 0 .022.022a.166.166 0 0 0 .11.045c.045-.022.045-.045.065-.045.023 0 .045.023.066.045-.022-.066.023-.11.153-.022l.088-.088s.11.066.153 0c.088-.066.045-.066.045-.131-.066-.132-.088-.11-.11-.22-.044-.22.242-.329.395-.285.045.131.22.46.526.57.175.045.263-.153.307-.131.023.022.023.045.045.066-.022.087 0 .175-.022.219-.023.045-.11 0-.175 0-.045 0-.088.022-.088.045-.045 0-.11.045-.11.11.023 0 .045-.046.088-.046l.022.023c0 .087.088.11.132.045.022 0 .045 0 .022.022-.045.045-.131.11-.045.132l.023.022c0 .045.045.11.087.11-.022-.023-.022-.045 0-.088h.045c.045 0 .023-.11.088-.131-.022.065-.022.13.022.13 0 0 .023.023.045.023.023.045.066.088.154.045-.022-.022-.066-.022-.088-.045.023-.022.045-.045.045-.065.045-.11-.065-.11-.065-.175 0-.045.131-.023.131-.132l-.023-.022c.066-.023.132-.066.132-.11-.066 0-.132-.022-.153-.022zm1.141.702c.11.087.066.263-.066.241a7.619 7.619 0 0 0-1.25-3.289s0-.022.023-.022a.423.423 0 0 0 .263-.351c-.197-.023-.329.087-.416.197l-.132-.197a6.725 6.725 0 0 0-1.425-1.316 4.733 4.733 0 0 0-1.557-.701c.023-.132.176-.154.242-.045.022-.198-.153-.307-.263-.264-.045.023-.11.066-.11.154a.508.508 0 0 0-.307-.154.44.44 0 0 0 .11.307c-.088 0-.154.045-.176.088-.065.088 0 .285.22.307-.088-.088-.066-.241.066-.22v2.522c-.132-.022-.286-.022-.417.11a.394.394 0 0 0 .417.11v2.762c-.132.022-.176-.153-.066-.242-.197 0-.285.198-.242.286.023.065.088.11.198.11a.48.48 0 0 0-.088.284c.11 0 .22-.045.286-.11a.195.195 0 0 0 .087.22c.11.045.285-.045.285-.263-.065.11-.22.088-.22-.045h1.908a.392.392 0 0 0 .11.417c.131-.132.131-.286.11-.417h2.126c.023.131-.153.175-.22.066 0 .197.176.285.286.241.045-.045.11-.087.087-.22.066.066.176.11.286.11a.384.384 0 0 0-.11-.285c.11 0 .175-.045.22-.11.022-.109-.066-.285-.264-.285m-1.841-3.354c-.045.045-.088.131-.066.175a.2.2 0 0 0 .197.131.515.515 0 0 0-.153.285c.131 0 .241-.022.307-.087-.023.131 0 .197.065.22.045.044.11.044.176 0 .504.81.833 1.71.986 2.652a.433.433 0 0 0-.241-.065c0 .13.045.22.11.285h-1.623c.022-.088-.023-.175-.088-.197-.087-.023-.154-.023-.22.065-.022-.087-.044-.197-.13-.285a.425.425 0 0 0-.132.285c-.088-.087-.153-.087-.22-.065-.065.022-.109.11-.109.197h-1.381c.065-.066.087-.154.087-.264a.368.368 0 0 0-.263.11v-2.259c.088.023.198-.044.22-.109.022-.066.022-.131-.088-.22a.39.39 0 0 0 .285-.13.363.363 0 0 0-.285-.11c.11-.088.11-.154.088-.22-.023-.065-.132-.131-.22-.11v-1.907a.489.489 0 0 0 .241.11.503.503 0 0 0-.065-.286c.416.132.833.351 1.25.614.46.33.898.724 1.271 1.184m6.073 4.148c-.22-.175-.614-.526-.811-.943-.242-.504-1.272-2.543-1.426-2.806-.13-.22-.197-.417-.197-.614 0-.22.11-.373.22-.526.066-.11.307-.33.373-.46.065-.11.13-.176.197-.242-.373-.658-.768-1.14-1.272-1.688a10.053 10.053 0 0 0-1.995-1.754c.394-.264.789-.636.789-1.25 0-.373-.154-.658-.417-.877.417-1.338 1.163-2.96 1.798-3.662l-1.337-.548c.35.526.373 1.14.285 1.491-.35-.241-.636-.57-.724-1.009a7.291 7.291 0 0 1-.504 1.47c.395-.197.702-.286 1.097-.11a1.636 1.636 0 0 1-1.689.57c-.482-.131-.943-.373-.92-.745 0-.22.175-.483.46-.46.285.044.307.482.22.68.394-.22.767-1.338.174-1.514-.46-.131-.899.526-1.052 1.03-.088-.613-.33-1.183-.811-1.14-.614.023-.417 1.163-.198 1.448.045-.395.263-.592.438-.592.154.022.373.131.351.504-.045.35-.57.57-1.162.57-.548 0-1.557-.153-1.644-1.25.372.066.942.329 1.184.702a8.424 8.424 0 0 1 0-1.82c-.307.438-.812.658-1.162.723.109-.482.504-.964.964-1.25h-2.434c.483.286.877.768.987 1.25-.35-.065-.855-.285-1.162-.723a6.332 6.332 0 0 1 0 1.82c.241-.373.811-.636 1.162-.702-.087 1.096-1.074 1.25-1.644 1.25-.592 0-1.097-.22-1.14-.57-.045-.373.175-.482.35-.504.175 0 .395.197.439.592.22-.285.394-1.426-.198-1.447-.482-.045-.724.525-.833 1.14-.154-.505-.57-1.162-1.053-1.03-.592.174-.197 1.293.197 1.512-.109-.197-.087-.636.22-.68.285-.022.438.242.46.46.023.373-.46.615-.92.746a1.636 1.636 0 0 1-1.69-.57c.395-.175.724-.088 1.097.11a6.052 6.052 0 0 1-.482-1.47c-.11.46-.416.79-.767 1.031-.066-.373-.045-.987.307-1.513l-1.338.548c.636.724 1.381 2.324 1.798 3.662a1.135 1.135 0 0 0-.395.877c0 .614.395.986.79 1.25-.746.482-1.403 1.074-2.017 1.754-.921 1.008-1.645 2.214-2.15 3.552.198.197.987 1.052 1.185 1.294.329.416.526.855.548 1.162 0 .614.132.855.46 1.271.11.11.242.592.264.877h6.644v7.236c-.264.023-.549.088-.768.351.768.329 1.491.592 2.237.833.065-.482.153-.767.394-1.074 0 0-.965-.088-1.469-.11v-7.235h6.49a10.459 10.459 0 0 1-.526 2.872 8.468 8.468 0 0 1-1.469 2.522 6.4 6.4 0 0 1-2.148 1.71c-.132.066-.132.154-.264.22-.11.109-.22.328-.307.57-.087.219-.11.372-.153.657.307.088.46.153.746.22 2.28.57 2.85.394 2.982.307a9.283 9.283 0 0 0 1.425-1.36A11.348 11.348 0 0 0 51.77 29.8c.526-1.381.789-2.872.789-4.385 0-.285 0-.373-.022-.636m-10.087.504h-6.665a9 9 0 0 1 .547-2.982 8.331 8.331 0 0 1 1.448-2.543 6.85 6.85 0 0 1 2.148-1.689 6.016 6.016 0 0 1 2.522-.614zm.11-11.073c-2.215 0-3.75.636-4.627 1.25-.526-.329-.745-.614-.745-.965 0-1.272 3.574-1.381 5.372-1.381 1.82 0 5.372.11 5.372 1.381 0 .351-.22.636-.746.965-.877-.614-2.412-1.25-4.626-1.25m.285 11.073v-7.828c.811.045 1.6.242 2.346.614a6.611 6.611 0 0 1 2.149 1.689 8.868 8.868 0 0 1 1.469 2.543c.329.943.504 1.93.526 2.982zm22.19 16.16c-.022-.088-.131-.154-.22-.11-2.082.592-4.67-1.118-7.17-2.785-2.104-1.403-4.078-2.74-5.788-2.74a3.67 3.67 0 0 0-1.666.394c-.593.329-1.031.855-1.316 1.535a8.794 8.794 0 0 1-.833 1.557c-.307.46-.504.789-.504 1.206 0 .329.153.636.438.92.241.242.592.483 1.096.746.11.066.198.11.307.175.417.198.68.33.724.549-.833.372-1.886.68-3.114.877-1.36.241-2.85.372-4.429.372-1.578 0-3.091-.131-4.45-.372-1.207-.198-2.281-.504-3.093-.877.023-.33.286-.483.724-.702.11-.045.22-.088.329-.153.416-.22.811-.417 1.074-.658.285-.263.439-.549.439-.877 0-.417-.22-.746-.504-1.206a8.756 8.756 0 0 1-.834-1.557c-.285-.68-.723-1.206-1.315-1.513a3.474 3.474 0 0 0-1.667-.416c-1.71 0-3.705 1.337-5.788 2.74-2.5 1.667-5.087 3.377-7.17 2.785-.088-.045-.197.023-.242.11a.221.221 0 0 0 .11.241c.636.263 1.184.702 1.732 1.14.745.57 1.447 1.118 2.237 1.118.745 0 1.534-.22 2.5-.723.832-.439 1.71-1.03 2.543-1.6 1.644-1.141 3.354-2.303 4.955-2.413-.154.153-.329.307-.482.46-.482.417-.877.79-.877 1.535 0 .592.197.987.482 1.58.066.174.175.35.263.57.175.394.264.723.351 1.161.066.198.11.417.175.658.11.395.285 1.096 1.47 1.71 1.38.68 3.749 1.053 7.038 1.053s5.657-.373 7.016-1.053c1.184-.614 1.382-1.315 1.491-1.71.066-.241.11-.46.154-.658.11-.438.175-.767.373-1.162.131-.285.241-.526.35-.723.264-.483.461-.834.461-1.382 0-.745-.438-1.118-.943-1.578-.153-.132-.329-.308-.504-.46 1.623.109 3.311 1.271 4.955 2.411.856.57 1.733 1.162 2.566 1.6.965.505 1.754.724 2.5.724.767 0 1.49-.548 2.236-1.14.548-.416 1.096-.855 1.732-1.118.088-.045.132-.154.088-.241m-20.874-2.15c-.088 0-.197.023-.285.045v-1.776a11.996 11.996 0 0 1-2.61-.394v2.17a1.27 1.27 0 0 0-.307-.044c-.635 0-1.008.526-1.008 1.008 0 .46.263.877.504 1.14.11-.263.22-.482.373-.482.307 0 .175 1.535 1.075 1.579a.693.693 0 0 0 .657.943.711.711 0 0 0 .723-.702.449.449 0 0 0-.066-.241c.921-.045.768-1.579 1.075-1.579.153 0 .241.198.394.482.22-.263.505-.68.505-1.14 0-.482-.395-1.008-1.03-1.008m-1.601 3.88a.393.393 0 0 1-.395-.394c0-.22.175-.395.395-.395.22 0 .394.176.394.395 0 .22-.175.395-.394.395m2.127-2.237c-.11-.197-.264-.307-.395-.307-.614 0-.373 1.6-1.096 1.6-.33 0-.483-.219-.483-.438 0-.22.154-.285.154-.46 0-.198-.154-.263-.307-.263-.154 0-.286.065-.286.263 0 .175.154.241.154.46 0 .22-.175.439-.482.439-.724 0-.483-1.6-1.097-1.6-.131 0-.285.109-.394.306-.132-.241-.198-.46-.198-.636 0-.285.22-.68.702-.68.811 0 .614 1.097 1.008 1.097.175 0 .307-.11.307-.285 0-.307-.57-.614-.57-1.053 0-.438.417-.833.855-1.184.46.351.877.746.877 1.184 0 .439-.57.746-.57 1.053 0 .175.11.285.285.285.395 0 .198-1.096 1.01-1.096.481 0 .7.394.7.68 0 .174-.065.394-.174.635m.417-6.03c-1.491-.372-3.267-1.008-4.912-1.754v-.022c.045-.33-.088-.724-.329-1.009-.263-.285-.592-.46-.943-.46-.153 0-.307.045-.46.087a6.896 6.896 0 0 1-.68-.701 7.973 7.973 0 0 1-1.447-2.522 9.127 9.127 0 0 1-.438-1.688c-.066.482-.614 1.118-1.535 1.118 0-.088 0-.329-.088-.35-.241.262-.614.57-1.447.262.131.658.307 1.294.526 1.93a11.354 11.354 0 0 0 2.149 3.574c.307.35.614.658.943.965v.175c0 .35.329.92.811 1.14.395.197.833.153 1.206-.131.724.394 1.644.745 2.631 1.03 1.118.307 2.193.482 3.026.482.724 0 1.688-.35 2.631-.942.373-.242.746-.504 1.009-.746.022-.045.066-.088.087-.11-.723.11-1.841-.109-2.74-.328m-5.438-2.237-.153-.11c-.307-.219-.549-.219-.812 0-.11.11-.22.242-.329.373l-.153.176.11.087c.285.242.329.504.263.658a.345.345 0 0 1-.175.131c-.154.045-.351-.022-.57-.153l-.132-.066-.065.11c0 .045-.023.066-.045.087-.045.045-.066.088-.088.132-.131.22-.198.394-.198.548 0 .023 0 .066.023.11.045.153.175.241.307.307l.066.045c.131.087.329.197.46.285a.883.883 0 0 1-.811.022c-.395-.197-.658-.658-.658-.899 0-.35.153-.79.46-1.25l.045-.065-.045-.066c-.11-.153-.153-.285-.22-.417.154.023.308.045.461.088l.066.023.065-.066c.176-.197.812-.811 1.382-.811.263 0 .526.13.723.35.154.176.242.373.286.57a1.068 1.068 0 0 1-.264-.197m.943 2.829a.632.632 0 0 1-.614-.636c0-.35.285-.636.614-.636a.636.636 0 0 1 0 1.272m2.785.855a.58.58 0 1 1 .02-1.16.58.58 0 0 1-.02 1.16M43.37 2.478c-.35-.264-.614-.636-.657-1.03.394.065.81.35 1.074.679V.482c-.263.351-.68.636-1.074.702.044-.395.285-.767.614-1.184H41.77c.329.417.57.79.614 1.184-.395-.066-.812-.35-1.075-.702v1.645c.264-.33.68-.614 1.075-.68-.045.395-.307.768-.658 1.03zM41.09 4.45a1.502 1.502 0 0 0 1.447 1.162c.724 0 1.316-.504 1.47-1.162zm1.776-.57h1.14a1.503 1.503 0 0 0-1.14-1.206zm-.614 0V2.675c-.592.11-1.052.592-1.162 1.206zm1.096 2.215c-.153.087-.329.13-.526.175v2.017h.526zm-1.6 2.192h.526V6.271a1.366 1.366 0 0 1-.526-.175zm1.71-2.565c0 .285.22.482.482.482.263 0 .46-.197.46-.482a.463.463 0 0 0-.46-.46c-.263 0-.482.22-.482.46m1.579-.045a.468.468 0 0 0 .482-.46.486.486 0 0 0-.482-.482c-.263 0-.46.219-.46.482s.197.46.46.46m1.162-.329c.263 0 .482-.22.482-.46a.486.486 0 0 0-.482-.482c-.241 0-.46.219-.46.482 0 .241.22.46.46.46m3.333 1.053a.468.468 0 0 0 .482-.46.486.486 0 0 0-.482-.483c-.264 0-.46.22-.46.482 0 .263.197.46.46.46m-.921-.81a.468.468 0 0 0 .482-.461.486.486 0 0 0-.482-.482c-.263 0-.46.22-.46.482 0 .263.197.46.46.46m-1.162-.35c.263 0 .46-.22.46-.483a.463.463 0 0 0-.46-.46c-.264 0-.482.22-.482.46 0 .263.219.482.482.482m2.521 3.596c-.241 0-.46.22-.46.46 0 .264.22.483.46.483.264 0 .482-.22.482-.482 0-.242-.219-.46-.482-.46m.242-1.14a.468.468 0 0 0-.483.46c0 .263.22.482.483.482s.46-.22.46-.483a.45.45 0 0 0-.46-.46m-.636-.68c0 .264.22.46.482.46a.45.45 0 0 0 .46-.46.468.468 0 0 0-.46-.482.486.486 0 0 0-.482.482m-8.42-.81c.263 0 .482-.22.482-.461a.486.486 0 0 0-.482-.482c-.263 0-.46.22-.46.482 0 .241.197.46.46.46m-1.096-.526a.45.45 0 0 0 .46-.46.468.468 0 0 0-.46-.482.486.486 0 0 0-.483.482c0 .263.22.46.483.46m-1.184-.329c.285 0 .482-.22.482-.46a.473.473 0 0 0-.482-.482c-.242 0-.46.22-.46.482 0 .241.219.46.46.46m-3.311 1.053a.45.45 0 0 0 .46-.46.468.468 0 0 0-.46-.483.486.486 0 0 0-.483.482c0 .264.22.46.483.46m.92-.81a.45.45 0 0 0 .46-.46.468.468 0 0 0-.46-.483.486.486 0 0 0-.482.482c0 .263.22.46.483.46m1.162-.35c.263 0 .482-.22.482-.483 0-.24-.22-.46-.482-.46-.264 0-.46.22-.46.46 0 .264.196.483.46.483m-2.061 4.056c0-.241-.22-.46-.46-.46-.264 0-.483.22-.483.46 0 .263.22.482.482.482.242 0 .46-.22.46-.482m-.219-1.14c0-.263-.22-.46-.482-.46a.45.45 0 0 0-.46.46c0 .263.197.482.46.482s.482-.22.482-.482m-.329-.658c.263 0 .482-.22.482-.482 0-.263-.22-.46-.482-.46a.45.45 0 0 0-.46.46c0 .263.197.482.46.482m11.007.285c.264.526.504.833.483 1.228-.045.395-.46.702-.658 1.096-.198-.482-.482-.833-.46-1.206.044-.35.548-.833.635-1.118m-6.972 0c-.286.526-.526.833-.483 1.228.045.395.46.702.658 1.096.175-.482.482-.833.439-1.206-.023-.35-.526-.833-.614-1.118m249.109 139.87c.109 2.522 2.302 3.333 4.648 3.333 1.754 0 4.166-.394 4.166-2.565 0-2.193-2.807-2.566-5.635-3.201-2.807-.636-5.635-1.58-5.635-4.868 0-3.465 3.42-4.912 6.424-4.912 3.816 0 6.841 1.206 7.083 5.416h-2.85c-.198-2.214-2.128-2.894-3.992-2.894-1.71 0-3.661.46-3.661 2.193 0 2.039 3.004 2.368 5.635 3.003 2.828.636 5.635 1.557 5.635 4.89 0 4.1-3.837 5.438-7.345 5.438-3.86 0-7.127-1.557-7.302-5.833zM275.55 135.86h2.675v3.64h.066c1.36-2.785 3.267-4.145 6.337-4.057v3.004c-4.583 0-6.25 2.61-6.25 6.973v7.674h-2.828zm-6.25 0h2.83v17.234h-2.83zm2.83-3.114h-2.83v-3.464h2.83zm-9.539 11.446c-1.096.79-3.223.833-5.13 1.162-1.864.329-3.465 1.008-3.465 3.091 0 1.886 1.6 2.544 3.333 2.544 3.728 0 5.262-2.324 5.262-3.903zm4.605 8.836c-.504.307-1.118.46-2.04.46-1.468 0-2.39-.789-2.39-2.675-1.556 1.842-3.661 2.675-6.073 2.675-3.135 0-5.7-1.403-5.7-4.823 0-3.903 2.915-4.737 5.832-5.307 3.135-.592 5.81-.416 5.81-2.543 0-2.456-2.039-2.873-3.837-2.873-2.412 0-4.166.746-4.298 3.267h-2.828c.154-4.253 3.464-5.766 7.301-5.766 3.092 0 6.469.701 6.469 4.736v8.88c0 1.338 0 1.93.899 1.93.22 0 .482-.023.855-.175zm-23.067-14.669h-2.894v-2.5h2.894v-2.565c0-2.806 1.667-4.276 4.758-4.276.549 0 1.316.11 1.842.264v2.477c-.504-.175-1.096-.241-1.6-.241-1.36 0-2.171.438-2.171 1.93v2.412h3.333v2.5h-3.333v14.734h-2.829zm-9.998 0h-2.917v-2.5h2.917v-2.565c0-2.806 1.666-4.276 4.758-4.276.548 0 1.293.11 1.841.264v2.477c-.504-.175-1.118-.241-1.6-.241-1.382 0-2.17.438-2.17 1.93v2.412h3.332v2.5h-3.333v14.734h-2.828zm-17.213 4.89h8.07l-3.97-11.095h-.065zm2.368-13.967h3.487l9.318 23.812h-3.508l-2.61-7.17H215.91l-2.653 7.17h-3.289zm-22.782 0h2.85v23.812h-2.85zm-6.687 14.91c-1.097.79-3.245.833-5.153 1.162-1.864.329-3.464 1.008-3.464 3.091 0 1.886 1.6 2.544 3.332 2.544 3.75 0 5.285-2.324 5.285-3.903zm4.604 8.836c-.504.307-1.14.46-2.039.46-1.469 0-2.412-.789-2.412-2.675-1.557 1.842-3.662 2.675-6.052 2.675-3.135 0-5.7-1.403-5.7-4.823 0-3.903 2.894-4.737 5.832-5.307 3.136-.592 5.789-.416 5.789-2.543 0-2.456-2.018-2.873-3.838-2.873-2.39 0-4.166.746-4.297 3.267h-2.829c.154-4.253 3.465-5.766 7.302-5.766 3.092 0 6.468.701 6.468 4.736v8.88c0 1.338 0 1.93.9 1.93.24 0 .503-.023.876-.175zm-25.785-17.168h2.653v3.64h.065c1.382-2.785 3.267-4.145 6.337-4.057v3.004c-4.56 0-6.227 2.61-6.227 6.973v7.674h-2.829zm-3.399 17.234h-2.675v-2.74h-.066c-1.206 2.126-3.135 3.135-5.591 3.135-4.539 0-5.942-2.61-5.942-6.293v-11.336h2.828v11.665c0 2.105 1.338 3.464 3.509 3.464 3.442 0 5.109-2.302 5.109-5.394v-9.735h2.828zm-26.07-12.85c2.981 0 5.503-.745 5.503-4.231 0-2.324-1.25-4.056-4.232-4.056h-7.872v8.288zm-9.758-10.962h11.204c4.473 0 7.236 2.433 7.236 6.249 0 2.85-1.272 5.218-4.144 6.03v.065c2.785.526 3.333 2.566 3.574 4.89.197 2.346.066 4.933 1.403 6.578h-3.53c-.899-.965-.416-3.53-.877-5.876-.329-2.325-.899-4.298-3.969-4.298h-7.74v10.174h-3.157zm-19.866 5.043c0-1.382-1.03-2.544-2.74-2.544-1.338 0-2.741.811-2.741 2.544 0 1.425 1.271 2.828 2.302 4.122 1.36-.855 3.18-2.127 3.18-4.122m-4.101 7.257c-2.237 1.272-4.144 2.544-4.144 5.372 0 2.412 2.236 4.035 4.539 4.035 2.17 0 3.903-1.096 5.065-2.829zm7.038 8.53c-1.447 2.236-4.144 3.377-6.753 3.377-6.425 0-7.433-4.561-7.433-6.513 0-3.727 2.543-5.59 5.57-7.192-1.338-1.885-2.632-3.157-2.632-5.59 0-2.61 1.93-4.912 5.372-4.912 2.96 0 5.767 1.644 5.767 4.867 0 2.829-2.171 4.868-4.473 6.162l4.297 5.24c.439-1.162.702-2.434.768-3.705h2.698c-.22 2.806-.592 3.77-1.579 5.876l4.627 5.372h-3.706zm-34.118.877c3.794 0 5.263-3.267 5.263-6.49 0-3.42-1.535-6.534-5.438-6.534-3.859 0-5.153 3.289-5.153 6.643 0 3.245 1.667 6.38 5.328 6.38m8.004 2.106h-2.829v-2.346h-.065c-.943 1.907-3.136 2.74-5.504 2.74-5.306 0-7.938-4.21-7.938-9.055 0-4.868 2.588-8.99 7.872-8.99 1.754 0 4.298.68 5.57 2.719h.065v-8.88h2.829zm-26.422-2.105c2.96 0 5.372-2.324 5.372-6.49 0-4.21-2.412-6.534-5.372-6.534s-5.372 2.324-5.372 6.534c0 4.166 2.412 6.49 5.372 6.49m0-15.546c5.46 0 8.376 3.969 8.376 9.056 0 5.02-2.916 8.99-8.376 8.99-5.46 0-8.376-3.97-8.376-8.99 0-5.087 2.916-9.056 8.376-9.056m-18.44 15.546c2.96 0 5.35-2.324 5.35-6.49 0-4.21-2.39-6.534-5.35-6.534-2.982 0-5.372 2.324-5.372 6.534 0 4.166 2.39 6.49 5.372 6.49m0-15.546c5.46 0 8.354 3.969 8.354 9.056 0 5.02-2.895 8.99-8.354 8.99-5.482 0-8.376-3.97-8.376-8.99 0-5.087 2.894-9.056 8.376-9.056m-24.733-6.161h15.655v2.675H19.952v7.564h10.941v2.675H19.952v10.898h-3.18zM234.68 100.82h3.442v2.5h-3.442v10.7c0 1.315.35 1.534 2.127 1.534h1.315v2.5h-2.17c-2.939 0-4.1-.592-4.1-3.75V103.32h-2.939v-2.5h2.938v-5.174h2.829zm-21.554 0h2.675v2.74h.066c1.205-2.126 3.135-3.135 5.59-3.135 4.54 0 5.943 2.61 5.943 6.293v11.336h-2.829V106.39c0-2.105-1.337-3.464-3.508-3.464-3.442 0-5.109 2.302-5.109 5.394v9.735h-2.828zm-5.328 6.972c-.132-2.697-2.171-4.867-4.978-4.867-2.96 0-4.736 2.236-4.933 4.867zm2.74 4.802c-.767 3.794-3.508 5.877-7.389 5.877-5.482 0-8.09-3.816-8.266-9.078 0-5.175 3.42-8.968 8.113-8.968 6.095 0 7.96 5.701 7.806 9.867h-12.915c-.088 3.004 1.6 5.68 5.372 5.68 2.346 0 3.968-1.141 4.473-3.378zm-42.34-11.774h2.653v2.543h.066c1.272-1.93 3.201-2.938 5.57-2.938 2.104 0 4.034.833 4.735 2.938 1.163-1.842 3.202-2.938 5.416-2.938 3.42 0 5.723 1.425 5.723 5v12.63h-2.828v-11.293c0-2.127-.57-3.837-3.333-3.837-2.741 0-4.495 1.732-4.495 4.407v10.722h-2.85v-11.292c0-2.237-.702-3.837-3.224-3.837-3.377 0-4.604 3.113-4.604 4.407v10.722h-2.829zm-17.695 0h2.653v2.74h.066c1.206-2.126 3.136-3.135 5.613-3.135 4.54 0 5.92 2.61 5.92 6.293v11.336h-2.828V106.39c0-2.105-1.316-3.464-3.486-3.464-3.443 0-5.11 2.302-5.11 5.394v9.735h-2.828zm-10.92 15.151c2.96 0 5.35-2.346 5.35-6.512 0-4.21-2.39-6.534-5.35-6.534-2.981 0-5.371 2.324-5.371 6.534 0 4.166 2.39 6.512 5.372 6.512m0-15.546c5.46 0 8.354 3.969 8.354 9.034 0 5.043-2.895 9.012-8.354 9.012-5.482 0-8.376-3.969-8.376-9.012 0-5.065 2.894-9.034 8.376-9.034m-17.76.395h2.652v3.64h.088c1.36-2.763 3.267-4.145 6.337-4.035v3.004c-4.583 0-6.25 2.61-6.25 6.973v7.652h-2.828zm-6.272 0h2.85v17.256h-2.85zm2.85-3.092h-2.85v-3.464h2.85zm-11.007 20.326h-3.047l-6.403-17.234h3.18l4.823 14.384h.066l4.714-14.384h2.96zM82.531 100.82h2.675v2.74h.065c1.206-2.126 3.136-3.135 5.592-3.135 4.538 0 5.942 2.61 5.942 6.293v11.336h-2.829V106.39c0-2.105-1.337-3.464-3.508-3.464-3.443 0-5.109 2.302-5.109 5.394v9.735H82.53zm-18.857-6.556h16.423v2.653H66.83v7.586h12.367v2.654H66.83v8.244h13.375v2.653H63.674zM43.39 100.82h2.676v3.64h.065c1.36-2.763 3.267-4.145 6.337-4.035v3.004c-4.583 0-6.25 2.61-6.25 6.973v7.652h-2.828zM32.516 115.97c2.982 0 5.372-2.346 5.372-6.512 0-4.21-2.39-6.534-5.372-6.534-2.96 0-5.372 2.324-5.372 6.534 0 4.166 2.412 6.512 5.372 6.512m0-15.546c5.482 0 8.376 3.969 8.376 9.034 0 5.043-2.894 9.012-8.376 9.012-5.46 0-8.376-3.97-8.376-9.012 0-5.065 2.916-9.034 8.376-9.034m-15.042 2.894H14.58v-2.5h2.894v-2.565c0-2.806 1.667-4.254 4.78-4.254.526 0 1.294.088 1.82.264v2.456a5.67 5.67 0 0 0-1.6-.242c-1.36 0-2.15.439-2.15 1.952v2.39h3.333v2.5h-3.332v14.734h-2.85zm162.608-37.516h3.42v2.5h-3.42v10.7c0 1.293.351 1.535 2.127 1.535h1.294v2.5h-2.149c-2.938 0-4.122-.593-4.122-3.772V68.302h-2.938v-2.5h2.938v-5.174h2.85zm-21.554 0h2.654v2.719h.087c1.184-2.127 3.114-3.114 5.591-3.114 4.54 0 5.943 2.587 5.943 6.293v11.336h-2.85V71.372c0-2.105-1.317-3.464-3.487-3.464-3.443 0-5.11 2.28-5.11 5.394v9.735h-2.828zm-5.328 6.972c-.131-2.718-2.17-4.867-4.977-4.867-2.96 0-4.736 2.236-4.934 4.867zm2.72 4.78c-.768 3.816-3.487 5.877-7.368 5.877-5.504 0-8.091-3.793-8.267-9.056 0-5.175 3.399-8.99 8.113-8.99 6.096 0 7.96 5.723 7.806 9.89H143.29c-.087 2.981 1.601 5.656 5.372 5.656 2.325 0 3.97-1.14 4.473-3.377zM113.6 65.803h2.654v2.521h.065c1.272-1.93 3.202-2.916 5.57-2.916 2.105 0 4.034.811 4.736 2.916 1.162-1.82 3.201-2.916 5.416-2.916 3.42 0 5.723 1.425 5.723 5v12.63h-2.829V71.722c0-2.127-.57-3.815-3.333-3.815-2.74 0-4.517 1.732-4.517 4.385v10.744h-2.828V71.723c0-2.237-.702-3.815-3.223-3.815-3.377 0-4.605 3.091-4.605 4.385v10.744h-2.828zm-5.547 0h3.42v2.5h-3.42v10.7c0 1.293.351 1.535 2.127 1.535h1.294v2.5h-2.149c-2.938 0-4.122-.593-4.122-3.772V68.302h-2.938v-2.5h2.938v-5.174h2.85zm-15.546 0h2.653v3.64h.066c1.381-2.785 3.267-4.144 6.337-4.035v2.982c-4.56 0-6.227 2.61-6.227 6.973v7.674h-2.829zm-6.534 8.332c-1.096.79-3.223.833-5.13 1.162-1.865.329-3.465 1.009-3.465 3.092 0 1.885 1.6 2.543 3.333 2.543 3.727 0 5.262-2.324 5.262-3.903zm4.605 8.836c-.504.286-1.119.46-2.04.46-1.447 0-2.39-.789-2.39-2.652-1.556 1.82-3.661 2.653-6.073 2.653-3.136 0-5.701-1.404-5.701-4.824 0-3.903 2.916-4.736 5.832-5.306 3.136-.592 5.81-.395 5.81-2.544 0-2.456-2.038-2.85-3.836-2.85-2.412 0-4.166.723-4.298 3.267h-2.828c.153-4.276 3.464-5.767 7.28-5.767 3.113 0 6.49.68 6.49 4.714v8.88c0 1.338 0 1.93.899 1.93.219 0 .482-.022.855-.153zM64.485 67.908c-3.793 0-5.262 3.267-5.262 6.49 0 3.399 1.534 6.534 5.437 6.534 3.86 0 5.175-3.31 5.175-6.666 0-3.245-1.688-6.358-5.35-6.358m-8.003-2.105h2.85v2.324h.066c.92-1.886 3.135-2.74 5.482-2.74 5.306 0 7.937 4.21 7.937 9.077 0 4.868-2.587 8.968-7.85 8.968-1.776 0-4.32-.658-5.57-2.697h-.065v8.902h-2.85zm-5.371 6.973c-.131-2.72-2.17-4.868-4.955-4.868-2.982 0-4.758 2.237-4.956 4.868zm2.74 4.78c-.767 3.815-3.507 5.876-7.366 5.876-5.504 0-8.113-3.793-8.267-9.056 0-5.174 3.399-8.99 8.091-8.99 6.096 0 7.96 5.723 7.806 9.89H41.2c-.087 2.981 1.6 5.656 5.372 5.656 2.346 0 3.969-1.14 4.473-3.376zm-33.898 2.806h5.263c2.17 0 8.003-.592 8.003-9.362 0-5.68-2.105-9.1-7.938-9.1h-5.328zm-3.18-21.137h8.18c7.323 0 11.423 3.684 11.423 11.336 0 7.981-3.486 12.476-11.423 12.476h-8.18z"/>
</svg>
