<?xml version="1.0" encoding="UTF-8" standalone="no"?>
<svg
   xmlns:dc="http://purl.org/dc/elements/1.1/"
   xmlns:cc="http://creativecommons.org/ns#"
   xmlns:rdf="http://www.w3.org/1999/02/22-rdf-syntax-ns#"
   xmlns:svg="http://www.w3.org/2000/svg"
   xmlns="http://www.w3.org/2000/svg"
   xmlns:sodipodi="http://sodipodi.sourceforge.net/DTD/sodipodi-0.dtd"
   xmlns:inkscape="http://www.inkscape.org/namespaces/inkscape"
   version="1.1"
   id="svg2"
   xml:space="preserve"
   width="161.74406"
   height="144.14047"
   viewBox="0 0 161.74406 144.14047"
   sodipodi:docname="eu.svg"
   inkscape:version="1.0 (4035a4fb49, 2020-05-01)"><metadata
     id="metadata8"><rdf:RDF><cc:Work
         rdf:about=""><dc:format>image/svg+xml</dc:format><dc:type
           rdf:resource="http://purl.org/dc/dcmitype/StillImage" /><dc:title></dc:title></cc:Work></rdf:RDF></metadata><defs
     id="defs6"><clipPath
       clipPathUnits="userSpaceOnUse"
       id="clipPath20"><path
         d="M 0,841.89 H 595.276 V 0 H 0 Z"
         id="path18" /></clipPath></defs><sodipodi:namedview
     fit-margin-bottom="0"
     fit-margin-right="0"
     fit-margin-left="0"
     fit-margin-top="0"
     inkscape:document-rotation="0"
     pagecolor="#ffffff"
     bordercolor="#666666"
     borderopacity="1"
     objecttolerance="10"
     gridtolerance="10"
     guidetolerance="10"
     inkscape:pageopacity="0"
     inkscape:pageshadow="2"
     inkscape:window-width="1718"
     inkscape:window-height="1368"
     id="namedview4"
     showgrid="false"
     inkscape:zoom="0.91401488"
     inkscape:cx="172.89439"
     inkscape:cy="361.12453"
     inkscape:window-x="0"
     inkscape:window-y="0"
     inkscape:window-maximized="0"
     inkscape:current-layer="g10" /><g
     id="g10"
     inkscape:groupmode="layer"
     inkscape:label="use-emblem_en"
     transform="matrix(1.3333333,0,0,-1.3333333,-134.21029,349.75554)"><g
       id="g1425"
       transform="translate(0.23489859)"><path
         d="m 102.86422,170.223 v 6.41113 h -2.4414 v 0.85938 h 5.84961 v -0.85938 h -2.44141 V 170.223 Z"
         id="path1235"
         style="font-variant:normal;font-weight:normal;font-stretch:normal;font-size:10px;font-family:Tahoma;-inkscape-font-specification:Tahoma;writing-mode:lr-tb;fill:#254aa5;fill-opacity:1;fill-rule:nonzero;stroke:none" /><path
         d="m 111.16887,170.223 h -0.91797 v 3.10547 q 0,0.37598 -0.0391,0.69824 -0.0342,0.32715 -0.13672,0.52246 -0.1123,0.20508 -0.3125,0.30274 -0.20019,0.10254 -0.54687,0.10254 -0.3418,0 -0.70801,-0.18555 -0.36133,-0.18067 -0.70801,-0.47363 V 170.223 h -0.91797 v 7.59766 h 0.91797 v -2.74903 q 0.41016,0.36621 0.81055,0.56153 0.40039,0.19531 0.84472,0.19531 0.80567,0 1.25977,-0.53223 0.4541,-0.52734 0.4541,-1.5332 z"
         id="path1237"
         style="font-variant:normal;font-weight:normal;font-stretch:normal;font-size:10px;font-family:Tahoma;-inkscape-font-specification:Tahoma;writing-mode:lr-tb;fill:#254aa5;fill-opacity:1;fill-rule:nonzero;stroke:none" /><path
         d="m 113.34926,170.223 h -0.91797 v 5.4541 h 0.91797 z m 0.0635,6.36719 h -1.04492 v 0.95215 h 1.04492 z"
         id="path1239"
         style="font-variant:normal;font-weight:normal;font-stretch:normal;font-size:10px;font-family:Tahoma;-inkscape-font-specification:Tahoma;writing-mode:lr-tb;fill:#254aa5;fill-opacity:1;fill-rule:nonzero;stroke:none" /><path
         d="m 116.12137,170.09116 q -0.54687,0 -1.02539,0.14649 -0.47363,0.14648 -0.78613,0.3125 v 1.03027 h 0.0488 q 0.11719,-0.0928 0.27344,-0.20508 0.16113,-0.1123 0.4248,-0.23437 0.23438,-0.10742 0.5127,-0.19043 0.2832,-0.083 0.58593,-0.083 0.21973,0 0.46875,0.0488 0.24903,0.0537 0.3711,0.13184 0.1709,0.1123 0.24414,0.23925 0.0781,0.12696 0.0781,0.38086 0,0.32715 -0.18067,0.49317 -0.17578,0.16601 -0.62988,0.27832 -0.17578,0.0439 -0.45898,0.10254 -0.28321,0.0586 -0.52246,0.12695 -0.625,0.18066 -0.90821,0.55664 -0.2832,0.38086 -0.2832,0.91797 0,0.7373 0.55664,1.20117 0.55664,0.46387 1.47949,0.46387 0.4541,0 0.91309,-0.11231 0.45898,-0.1123 0.77148,-0.2832 v -0.98145 h -0.0488 q -0.35156,0.27832 -0.78613,0.43946 -0.42969,0.16113 -0.86914,0.16113 -0.4541,0 -0.7666,-0.19043 -0.3125,-0.19043 -0.3125,-0.57617 0,-0.3418 0.18555,-0.5127 0.18554,-0.16601 0.5957,-0.27343 0.20508,-0.0537 0.4541,-0.10743 0.25391,-0.0488 0.53223,-0.11718 0.60547,-0.15137 0.9082,-0.50293 0.30762,-0.35157 0.30762,-0.95703 0,-0.35157 -0.1416,-0.66895 -0.13672,-0.3125 -0.40528,-0.53711 -0.29297,-0.24414 -0.66406,-0.37109 -0.36621,-0.12696 -0.92285,-0.12696 z"
         id="path1241"
         style="font-variant:normal;font-weight:normal;font-stretch:normal;font-size:10px;font-family:Tahoma;-inkscape-font-specification:Tahoma;writing-mode:lr-tb;fill:#254aa5;fill-opacity:1;fill-rule:nonzero;stroke:none" /><path
         d="m 126.70696,173.09409 q 0,-1.3623 -0.6543,-2.17285 -0.64941,-0.80566 -1.64551,-0.80566 -0.40527,0 -0.71777,0.0928 -0.3125,0.0928 -0.63965,0.28809 v -2.28516 h -0.91797 v 7.46582 h 0.91797 v -0.57129 q 0.3418,0.30762 0.75684,0.5127 0.41992,0.20996 0.91308,0.20996 0.9375,0 1.45996,-0.74219 0.52735,-0.74219 0.52735,-1.99219 z m -0.94727,-0.10254 q 0,0.93262 -0.29785,1.44532 -0.29785,0.51758 -0.96679,0.51758 -0.39063,0 -0.75684,-0.17579 -0.36133,-0.17089 -0.68848,-0.44433 v -3.09082 q 0.36133,-0.17578 0.61524,-0.23926 0.25879,-0.0635 0.59082,-0.0635 0.71289,0 1.1084,0.52246 0.3955,0.52247 0.3955,1.52832 z"
         id="path1243"
         style="font-variant:normal;font-weight:normal;font-stretch:normal;font-size:10px;font-family:Tahoma;-inkscape-font-specification:Tahoma;writing-mode:lr-tb;fill:#254aa5;fill-opacity:1;fill-rule:nonzero;stroke:none" /><path
         d="m 130.50239,174.69077 h -0.0488 q -0.10254,0.0293 -0.21973,0.0342 -0.1123,0.01 -0.27344,0.01 -0.37109,0 -0.7373,-0.16113 -0.36621,-0.16113 -0.69336,-0.47852 V 170.223 h -0.91797 v 5.4541 h 0.91797 v -0.81055 q 0.50293,0.44434 0.87402,0.625 0.37598,0.18555 0.72754,0.18555 0.1416,0 0.20996,-0.01 0.0732,-0.005 0.16114,-0.0195 z"
         id="path1245"
         style="font-variant:normal;font-weight:normal;font-stretch:normal;font-size:10px;font-family:Tahoma;-inkscape-font-specification:Tahoma;writing-mode:lr-tb;fill:#254aa5;fill-opacity:1;fill-rule:nonzero;stroke:none" /><path
         d="m 135.60307,172.94761 q 0,-1.37695 -0.66407,-2.12891 -0.66406,-0.74707 -1.76757,-0.74707 -1.1377,0 -1.792,0.77149 -0.64941,0.77636 -0.64941,2.10449 0,1.36719 0.66895,2.12402 0.67382,0.75684 1.77246,0.75684 1.10351,0 1.76757,-0.75684 0.66407,-0.75195 0.66407,-2.12402 z m -0.94727,0 q 0,1.05957 -0.38574,1.57227 -0.38574,0.51757 -1.09863,0.51757 -0.71778,0 -1.1084,-0.51757 -0.38574,-0.5127 -0.38574,-1.57227 0,-1.02539 0.38574,-1.55762 0.39062,-0.52734 1.1084,-0.52734 0.708,0 1.09375,0.51758 0.39062,0.52246 0.39062,1.56738 z"
         id="path1247"
         style="font-variant:normal;font-weight:normal;font-stretch:normal;font-size:10px;font-family:Tahoma;-inkscape-font-specification:Tahoma;writing-mode:lr-tb;fill:#254aa5;fill-opacity:1;fill-rule:nonzero;stroke:none" /><path
         d="m 137.98502,170.06675 q 0,-0.93262 -0.50293,-1.4209 -0.49805,-0.48828 -1.37695,-0.48828 -0.15137,0 -0.33692,0.0147 -0.19043,0.0146 -0.37597,0.0439 v 0.82032 h 0.0537 q 0.10742,-0.0244 0.23925,-0.044 0.12696,-0.0244 0.24414,-0.0244 0.36622,0 0.60059,0.0928 0.23926,0.0879 0.35645,0.2832 0.10742,0.17579 0.1416,0.44434 0.0391,0.26855 0.0391,0.6543 v 4.47265 h -0.98633 v 0.76172 h 1.9043 z m 0.005,6.52344 H 136.945 v 0.95215 h 1.04492 z"
         id="path1249"
         style="font-variant:normal;font-weight:normal;font-stretch:normal;font-size:10px;font-family:Tahoma;-inkscape-font-specification:Tahoma;writing-mode:lr-tb;fill:#254aa5;fill-opacity:1;fill-rule:nonzero;stroke:none" /><path
         d="m 141.63393,170.09605 q -1.30372,0 -2.02637,0.73242 -0.71777,0.7373 -0.71777,2.08984 0,1.33301 0.69824,2.11914 0.69824,0.79102 1.82617,0.79102 0.50781,0 0.89844,-0.14649 0.39062,-0.14648 0.68359,-0.45898 0.29297,-0.3125 0.44922,-0.7666 0.15625,-0.44922 0.15625,-1.10352 v -0.49804 h -3.7793 q 0,-0.95215 0.47852,-1.45508 0.47851,-0.50293 1.32324,-0.50293 0.30273,0 0.59082,0.0684 0.29297,0.0684 0.52734,0.17578 0.24903,0.1123 0.41993,0.21484 0.17089,0.10742 0.2832,0.2002 h 0.0537 v -1.00098 q -0.16113,-0.0635 -0.40039,-0.16113 -0.23926,-0.0928 -0.42969,-0.14649 -0.26855,-0.0732 -0.48828,-0.1123 -0.21484,-0.0391 -0.54688,-0.0391 z m 1.07421,3.46191 q -0.01,0.37109 -0.0879,0.63965 -0.0781,0.26855 -0.2246,0.4541 -0.16114,0.20508 -0.41504,0.3125 -0.24903,0.10742 -0.62012,0.10742 -0.36621,0 -0.625,-0.1123 -0.25391,-0.10742 -0.46387,-0.31738 -0.20508,-0.21485 -0.3125,-0.47852 -0.10742,-0.25879 -0.13672,-0.60547 z"
         id="path1251"
         style="font-variant:normal;font-weight:normal;font-stretch:normal;font-size:10px;font-family:Tahoma;-inkscape-font-specification:Tahoma;writing-mode:lr-tb;fill:#254aa5;fill-opacity:1;fill-rule:nonzero;stroke:none" /><path
         d="m 146.64373,170.10093 q -0.56152,0 -1.03027,0.1709 -0.46875,0.17578 -0.80567,0.52734 -0.33691,0.35156 -0.52246,0.88379 -0.18555,0.53711 -0.18555,1.25977 0,0.71777 0.19043,1.24023 0.19532,0.52246 0.51758,0.87891 0.32227,0.35644 0.80078,0.54687 0.4834,0.19531 1.03516,0.19531 0.44922,0 0.86426,-0.12695 0.41992,-0.12695 0.74707,-0.29297 v -1.03027 h -0.0537 q -0.0977,0.083 -0.25391,0.19043 -0.15137,0.10742 -0.37109,0.21973 -0.19043,0.0977 -0.44922,0.17089 -0.25879,0.0733 -0.49805,0.0733 -0.71289,0 -1.14746,-0.542 -0.42969,-0.53711 -0.42969,-1.52343 0,-0.9668 0.41504,-1.50879 0.41992,-0.53711 1.16211,-0.53711 0.44922,0 0.85449,0.18554 0.40528,0.18555 0.71778,0.47852 h 0.0537 v -1.03027 q -0.13672,-0.0635 -0.3418,-0.15625 -0.20508,-0.0879 -0.37109,-0.13184 -0.23438,-0.0684 -0.41992,-0.10254 -0.18555,-0.0391 -0.47852,-0.0391 z"
         id="path1253"
         style="font-variant:normal;font-weight:normal;font-stretch:normal;font-size:10px;font-family:Tahoma;-inkscape-font-specification:Tahoma;writing-mode:lr-tb;fill:#254aa5;fill-opacity:1;fill-rule:nonzero;stroke:none" /><path
         d="m 150.68615,170.11558 q -0.75195,0 -1.17187,0.4248 -0.41992,0.42969 -0.41992,1.35254 v 3.02246 h -0.62012 v 0.76172 h 0.62012 v 1.56738 h 0.91796 v -1.56738 h 1.68946 v -0.76172 h -1.68946 v -2.59277 q 0,-0.41504 0.0147,-0.63965 0.0146,-0.22461 0.11231,-0.41992 0.083,-0.1709 0.26855,-0.25879 0.18555,-0.083 0.50293,-0.083 0.22461,0 0.43457,0.0635 0.20996,0.0684 0.30274,0.1123 h 0.0537 v -0.82519 q -0.25879,-0.0732 -0.52734,-0.11231 -0.26368,-0.0439 -0.48829,-0.0439 z"
         id="path1255"
         style="font-variant:normal;font-weight:normal;font-stretch:normal;font-size:10px;font-family:Tahoma;-inkscape-font-specification:Tahoma;writing-mode:lr-tb;fill:#254aa5;fill-opacity:1;fill-rule:nonzero;stroke:none" /><path
         d="m 156.33826,170.223 h -0.91797 v 5.4541 h 0.91797 z m 0.0635,6.36719 h -1.04492 v 0.95215 h 1.04492 z"
         id="path1257"
         style="font-variant:normal;font-weight:normal;font-stretch:normal;font-size:10px;font-family:Tahoma;-inkscape-font-specification:Tahoma;writing-mode:lr-tb;fill:#254aa5;fill-opacity:1;fill-rule:nonzero;stroke:none" /><path
         d="m 159.11537,170.09116 q -0.54687,0 -1.02539,0.14649 -0.47363,0.14648 -0.78613,0.3125 v 1.03027 h 0.0488 q 0.11719,-0.0928 0.27344,-0.20508 0.16113,-0.1123 0.4248,-0.23437 0.23438,-0.10742 0.5127,-0.19043 0.2832,-0.083 0.58593,-0.083 0.21973,0 0.46875,0.0488 0.24903,0.0537 0.3711,0.13184 0.1709,0.1123 0.24414,0.23925 0.0781,0.12696 0.0781,0.38086 0,0.32715 -0.18067,0.49317 -0.17578,0.16601 -0.62988,0.27832 -0.17578,0.0439 -0.45898,0.10254 -0.28321,0.0586 -0.52246,0.12695 -0.625,0.18066 -0.90821,0.55664 -0.2832,0.38086 -0.2832,0.91797 0,0.7373 0.55664,1.20117 0.55664,0.46387 1.47949,0.46387 0.4541,0 0.91309,-0.11231 0.45898,-0.1123 0.77148,-0.2832 v -0.98145 h -0.0488 q -0.35156,0.27832 -0.78613,0.43946 -0.42969,0.16113 -0.86914,0.16113 -0.4541,0 -0.7666,-0.19043 -0.3125,-0.19043 -0.3125,-0.57617 0,-0.3418 0.18554,-0.5127 0.18555,-0.16601 0.59571,-0.27343 0.20507,-0.0537 0.4541,-0.10743 0.2539,-0.0488 0.53222,-0.11718 0.60547,-0.15137 0.90821,-0.50293 0.30762,-0.35157 0.30762,-0.95703 0,-0.35157 -0.14161,-0.66895 -0.13672,-0.3125 -0.40527,-0.53711 -0.29297,-0.24414 -0.66406,-0.37109 -0.36621,-0.12696 -0.92285,-0.12696 z"
         id="path1259"
         style="font-variant:normal;font-weight:normal;font-stretch:normal;font-size:10px;font-family:Tahoma;-inkscape-font-specification:Tahoma;writing-mode:lr-tb;fill:#254aa5;fill-opacity:1;fill-rule:nonzero;stroke:none" /><path
         d="m 167.29373,170.10093 q -0.56153,0 -1.03028,0.1709 -0.46875,0.17578 -0.80566,0.52734 -0.33691,0.35156 -0.52246,0.88379 -0.18555,0.53711 -0.18555,1.25977 0,0.71777 0.19043,1.24023 0.19531,0.52246 0.51758,0.87891 0.32227,0.35644 0.80078,0.54687 0.4834,0.19531 1.03516,0.19531 0.44922,0 0.86426,-0.12695 0.41992,-0.12695 0.74707,-0.29297 v -1.03027 h -0.0537 q -0.0977,0.083 -0.25391,0.19043 -0.15137,0.10742 -0.37109,0.21973 -0.19043,0.0977 -0.44922,0.17089 -0.25879,0.0733 -0.49805,0.0733 -0.71289,0 -1.14746,-0.542 -0.42969,-0.53711 -0.42969,-1.52343 0,-0.9668 0.41504,-1.50879 0.41992,-0.53711 1.16211,-0.53711 0.44922,0 0.85449,0.18554 0.40528,0.18555 0.71778,0.47852 h 0.0537 v -1.03027 q -0.13672,-0.0635 -0.3418,-0.15625 -0.20508,-0.0879 -0.3711,-0.13184 -0.23437,-0.0684 -0.41992,-0.10254 -0.18554,-0.0391 -0.47851,-0.0391 z"
         id="path1261"
         style="font-variant:normal;font-weight:normal;font-stretch:normal;font-size:10px;font-family:Tahoma;-inkscape-font-specification:Tahoma;writing-mode:lr-tb;fill:#254aa5;fill-opacity:1;fill-rule:nonzero;stroke:none" /><path
         d="m 174.17307,172.94761 q 0,-1.37695 -0.66406,-2.12891 -0.66407,-0.74707 -1.76758,-0.74707 -1.1377,0 -1.79199,0.77149 -0.64942,0.77636 -0.64942,2.10449 0,1.36719 0.66895,2.12402 0.67383,0.75684 1.77246,0.75684 1.10351,0 1.76758,-0.75684 0.66406,-0.75195 0.66406,-2.12402 z m -0.94727,0 q 0,1.05957 -0.38574,1.57227 -0.38574,0.51757 -1.09863,0.51757 -0.71777,0 -1.1084,-0.51757 -0.38574,-0.5127 -0.38574,-1.57227 0,-1.02539 0.38574,-1.55762 0.39063,-0.52734 1.1084,-0.52734 0.70801,0 1.09375,0.51758 0.39062,0.52246 0.39062,1.56738 z"
         id="path1263"
         style="font-variant:normal;font-weight:normal;font-stretch:normal;font-size:10px;font-family:Tahoma;-inkscape-font-specification:Tahoma;writing-mode:lr-tb;fill:#254aa5;fill-opacity:1;fill-rule:nonzero;stroke:none" /><path
         d="m 177.59506,172.96226 h -2.75391 v 0.88379 h 2.75391 z"
         id="path1265"
         style="font-variant:normal;font-weight:normal;font-stretch:normal;font-size:10px;font-family:Tahoma;-inkscape-font-specification:Tahoma;writing-mode:lr-tb;fill:#254aa5;fill-opacity:1;fill-rule:nonzero;stroke:none" /><path
         d="m 181.51686,176.94175 h -0.0488 q -0.12207,0.0439 -0.35157,0.083 -0.22949,0.0439 -0.41015,0.0439 -0.58106,0 -0.83008,-0.26367 -0.24414,-0.25879 -0.24414,-0.94238 v -0.18555 h 1.51855 v -0.76172 h -1.48925 V 170.223 h -0.91797 v 4.69238 h -0.62012 v 0.76172 h 0.62012 v 0.18067 q 0,0.98632 0.47363,1.49902 0.47363,0.51269 1.35742,0.51269 0.25391,0 0.49805,-0.0293 0.24414,-0.0244 0.44434,-0.0586 z"
         id="path1267"
         style="font-variant:normal;font-weight:normal;font-stretch:normal;font-size:10px;font-family:Tahoma;-inkscape-font-specification:Tahoma;writing-mode:lr-tb;fill:#254aa5;fill-opacity:1;fill-rule:nonzero;stroke:none" /><path
         d="m 185.92981,170.223 h -0.91797 v 0.60547 q -0.42481,-0.37109 -0.80567,-0.56641 -0.38086,-0.19043 -0.84961,-0.19043 -0.35644,0 -0.67383,0.11719 -0.3125,0.11719 -0.54687,0.37109 -0.23438,0.25391 -0.36621,0.63965 -0.12695,0.38574 -0.12695,0.9375 v 3.54004 h 0.91796 v -3.10547 q 0,-0.43457 0.0293,-0.72265 0.0342,-0.28321 0.14649,-0.49805 0.1123,-0.20996 0.30273,-0.30762 0.19532,-0.0976 0.55664,-0.0976 0.33692,0 0.71778,0.19043 0.38086,0.19043 0.69824,0.46875 v 4.07226 h 0.91797 z"
         id="path1269"
         style="font-variant:normal;font-weight:normal;font-stretch:normal;font-size:10px;font-family:Tahoma;-inkscape-font-specification:Tahoma;writing-mode:lr-tb;fill:#254aa5;fill-opacity:1;fill-rule:nonzero;stroke:none" /><path
         d="m 191.49887,170.223 h -0.91796 v 3.10547 q 0,0.37598 -0.0391,0.69824 -0.0342,0.32715 -0.13672,0.52246 -0.11231,0.20508 -0.3125,0.30274 -0.2002,0.10254 -0.54688,0.10254 -0.34179,0 -0.70801,-0.18555 -0.36132,-0.18067 -0.708,-0.47363 V 170.223 h -0.91797 v 5.4541 h 0.91797 v -0.60547 q 0.41015,0.36621 0.81054,0.56153 0.40039,0.19531 0.84473,0.19531 0.80566,0 1.25977,-0.53223 0.4541,-0.52734 0.4541,-1.5332 z"
         id="path1271"
         style="font-variant:normal;font-weight:normal;font-stretch:normal;font-size:10px;font-family:Tahoma;-inkscape-font-specification:Tahoma;writing-mode:lr-tb;fill:#254aa5;fill-opacity:1;fill-rule:nonzero;stroke:none" /><path
         d="m 196.94098,170.223 h -0.91797 v 0.55664 q -0.21484,-0.18066 -0.37109,-0.29785 -0.15625,-0.11719 -0.36621,-0.21484 -0.19531,-0.0928 -0.40527,-0.14161 -0.20997,-0.0537 -0.48829,-0.0537 -0.44433,0 -0.82519,0.18555 -0.37598,0.18555 -0.63965,0.54199 -0.26855,0.36133 -0.41504,0.88867 -0.14648,0.53223 -0.14648,1.22071 0,0.71777 0.18554,1.24023 0.18555,0.52735 0.5127,0.91797 0.29785,0.35645 0.71777,0.55664 0.42481,0.20508 0.88867,0.20508 0.41016,0 0.7129,-0.0928 0.30273,-0.0879 0.63964,-0.27832 v 2.36328 h 0.91797 z m -0.91797,1.32813 v 3.14453 q -0.34179,0.16601 -0.61523,0.22949 -0.26856,0.0635 -0.58594,0.0635 -0.70801,0 -1.1084,-0.53223 -0.40039,-0.52734 -0.40039,-1.52832 0,-0.96192 0.30762,-1.47461 0.30762,-0.50781 0.98633,-0.50781 0.36133,0 0.72754,0.16113 0.36621,0.16602 0.68847,0.44434 z"
         id="path1273"
         style="font-variant:normal;font-weight:normal;font-stretch:normal;font-size:10px;font-family:Tahoma;-inkscape-font-specification:Tahoma;writing-mode:lr-tb;fill:#254aa5;fill-opacity:1;fill-rule:nonzero;stroke:none" /><path
         d="m 200.58992,170.09605 q -1.30371,0 -2.02636,0.73242 -0.71778,0.7373 -0.71778,2.08984 0,1.33301 0.69824,2.11914 0.69825,0.79102 1.82618,0.79102 0.50781,0 0.89843,-0.14649 0.39063,-0.14648 0.6836,-0.45898 0.29297,-0.3125 0.44922,-0.7666 0.15625,-0.44922 0.15625,-1.10352 v -0.49804 h -3.7793 q 0,-0.95215 0.47852,-1.45508 0.47851,-0.50293 1.32324,-0.50293 0.30273,0 0.59082,0.0684 0.29297,0.0684 0.52734,0.17578 0.24903,0.1123 0.41992,0.21484 0.1709,0.10742 0.28321,0.2002 h 0.0537 v -1.00098 q -0.16113,-0.0635 -0.40039,-0.16113 -0.23926,-0.0928 -0.42969,-0.14649 -0.26855,-0.0732 -0.48828,-0.1123 -0.21484,-0.0391 -0.54688,-0.0391 z m 1.07422,3.46191 q -0.01,0.37109 -0.0879,0.63965 -0.0781,0.26855 -0.22461,0.4541 -0.16113,0.20508 -0.41504,0.3125 -0.24902,0.10742 -0.62011,0.10742 -0.36622,0 -0.625,-0.1123 -0.25391,-0.10742 -0.46387,-0.31738 -0.20508,-0.21485 -0.3125,-0.47852 -0.10742,-0.25879 -0.13672,-0.60547 z"
         id="path1275"
         style="font-variant:normal;font-weight:normal;font-stretch:normal;font-size:10px;font-family:Tahoma;-inkscape-font-specification:Tahoma;writing-mode:lr-tb;fill:#254aa5;fill-opacity:1;fill-rule:nonzero;stroke:none" /><path
         d="m 207.63098,170.223 h -0.91797 v 0.55664 q -0.21484,-0.18066 -0.37109,-0.29785 -0.15625,-0.11719 -0.36622,-0.21484 -0.19531,-0.0928 -0.40527,-0.14161 -0.20996,-0.0537 -0.48828,-0.0537 -0.44434,0 -0.8252,0.18555 -0.37597,0.18555 -0.63964,0.54199 -0.26856,0.36133 -0.41504,0.88867 -0.14649,0.53223 -0.14649,1.22071 0,0.71777 0.18555,1.24023 0.18555,0.52735 0.51269,0.91797 0.29786,0.35645 0.71778,0.55664 0.4248,0.20508 0.88867,0.20508 0.41016,0 0.71289,-0.0928 0.30273,-0.0879 0.63965,-0.27832 v 2.36328 h 0.91797 z m -0.91797,1.32813 v 3.14453 q -0.3418,0.16601 -0.61524,0.22949 -0.26855,0.0635 -0.58593,0.0635 -0.70801,0 -1.1084,-0.53223 -0.40039,-0.52734 -0.40039,-1.52832 0,-0.96192 0.30762,-1.47461 0.30761,-0.50781 0.98632,-0.50781 0.36133,0 0.72754,0.16113 0.36621,0.16602 0.68848,0.44434 z"
         id="path1277"
         style="font-variant:normal;font-weight:normal;font-stretch:normal;font-size:10px;font-family:Tahoma;-inkscape-font-specification:Tahoma;writing-mode:lr-tb;fill:#254aa5;fill-opacity:1;fill-rule:nonzero;stroke:none" /><path
         d="m 215.61469,172.96714 q 0,0.97656 -0.29785,1.47949 -0.29785,0.50782 -0.95703,0.50782 -0.37598,0 -0.76172,-0.17579 -0.38086,-0.17578 -0.69336,-0.44433 v -3.125 q 0.34668,-0.1709 0.61523,-0.24414 0.26856,-0.0684 0.59082,-0.0684 0.70313,0 1.10352,0.49805 0.40039,0.49804 0.40039,1.57226 z m 0.94726,0.0732 q 0,-1.33789 -0.64941,-2.15332 -0.64941,-0.81543 -1.62598,-0.81543 -0.44433,0 -0.76171,0.11231 -0.3125,0.10742 -0.62012,0.29297 l -0.0586,-0.25391 h -0.85937 v 7.59766 h 0.91797 v -2.71485 q 0.34668,0.3125 0.75195,0.51758 0.40527,0.20508 0.91797,0.20508 0.92285,0 1.45508,-0.74219 0.53222,-0.7373 0.53222,-2.0459 z"
         id="path1279"
         style="font-variant:normal;font-weight:normal;font-stretch:normal;font-size:10px;font-family:Tahoma;-inkscape-font-specification:Tahoma;writing-mode:lr-tb;fill:#254aa5;fill-opacity:1;fill-rule:nonzero;stroke:none" /><path
         d="m 221.73087,175.6771 -2.93457,-7.46582 h -0.98145 l 0.97657,2.27539 -1.98243,5.19043 h 0.99122 l 1.48925,-4.03808 1.48438,4.03808 z"
         id="path1281"
         style="font-variant:normal;font-weight:normal;font-stretch:normal;font-size:10px;font-family:Tahoma;-inkscape-font-specification:Tahoma;writing-mode:lr-tb;fill:#254aa5;fill-opacity:1;fill-rule:nonzero;stroke:none" /><path
         d="m 120.01165,156.11558 q -0.75195,0 -1.17187,0.4248 -0.41992,0.42969 -0.41992,1.35254 v 3.02246 h -0.62012 v 0.76172 h 0.62012 v 1.56738 h 0.91796 v -1.56738 h 1.68946 v -0.76172 h -1.68946 v -2.59277 q 0,-0.41504 0.0147,-0.63965 0.0147,-0.22461 0.11231,-0.41992 0.083,-0.1709 0.26855,-0.25879 0.18555,-0.083 0.50293,-0.083 0.22461,0 0.43457,0.0635 0.20996,0.0684 0.30274,0.1123 h 0.0537 v -0.82519 q -0.25879,-0.0732 -0.52735,-0.11231 -0.26367,-0.0439 -0.48828,-0.0439 z"
         id="path1284"
         style="font-variant:normal;font-weight:normal;font-stretch:normal;font-size:10px;font-family:Tahoma;-inkscape-font-specification:Tahoma;writing-mode:lr-tb;fill:#254aa5;fill-opacity:1;fill-rule:nonzero;stroke:none" /><path
         d="m 125.93837,156.223 h -0.91797 v 3.10547 q 0,0.37598 -0.0391,0.69824 -0.0342,0.32715 -0.13672,0.52246 -0.1123,0.20508 -0.3125,0.30274 -0.20019,0.10254 -0.54687,0.10254 -0.3418,0 -0.70801,-0.18555 -0.36133,-0.18067 -0.70801,-0.47363 V 156.223 h -0.91797 v 7.59766 h 0.91797 v -2.74903 q 0.41016,0.36621 0.81055,0.56153 0.40039,0.19531 0.84472,0.19531 0.80567,0 1.25977,-0.53223 0.4541,-0.52734 0.4541,-1.5332 z"
         id="path1286"
         style="font-variant:normal;font-weight:normal;font-stretch:normal;font-size:10px;font-family:Tahoma;-inkscape-font-specification:Tahoma;writing-mode:lr-tb;fill:#254aa5;fill-opacity:1;fill-rule:nonzero;stroke:none" /><path
         d="m 129.54943,156.09605 q -1.30372,0 -2.02637,0.73242 -0.71777,0.7373 -0.71777,2.08984 0,1.33301 0.69824,2.11914 0.69824,0.79102 1.82617,0.79102 0.50781,0 0.89844,-0.14649 0.39062,-0.14648 0.68359,-0.45898 0.29297,-0.3125 0.44922,-0.7666 0.15625,-0.44922 0.15625,-1.10352 v -0.49804 h -3.7793 q 0,-0.95215 0.47852,-1.45508 0.47851,-0.50293 1.32324,-0.50293 0.30273,0 0.59082,0.0684 0.29297,0.0684 0.52734,0.17578 0.24903,0.1123 0.41993,0.21484 0.17089,0.10742 0.2832,0.2002 h 0.0537 v -1.00098 q -0.16113,-0.0635 -0.40039,-0.16113 -0.23926,-0.0928 -0.42969,-0.14649 -0.26855,-0.0732 -0.48828,-0.1123 -0.21484,-0.0391 -0.54688,-0.0391 z m 1.07421,3.46191 q -0.01,0.37109 -0.0879,0.63965 -0.0781,0.26855 -0.2246,0.4541 -0.16114,0.20508 -0.41504,0.3125 -0.24903,0.10742 -0.62012,0.10742 -0.36621,0 -0.625,-0.1123 -0.25391,-0.10742 -0.46387,-0.31738 -0.20508,-0.21485 -0.3125,-0.47852 -0.10742,-0.25879 -0.13672,-0.60547 z"
         id="path1288"
         style="font-variant:normal;font-weight:normal;font-stretch:normal;font-size:10px;font-family:Tahoma;-inkscape-font-specification:Tahoma;writing-mode:lr-tb;fill:#254aa5;fill-opacity:1;fill-rule:nonzero;stroke:none" /><path
         d="m 135.5395,156.223 v 7.27051 h 4.5459 v -0.85938 h -3.5791 v -1.99218 h 3.33496 v -0.85938 h -3.33496 v -2.70019 h 3.5791 V 156.223 Z"
         id="path1290"
         style="font-variant:normal;font-weight:normal;font-stretch:normal;font-size:10px;font-family:Tahoma;-inkscape-font-specification:Tahoma;writing-mode:lr-tb;fill:#254aa5;fill-opacity:1;fill-rule:nonzero;stroke:none" /><path
         d="m 145.27431,156.223 h -0.91797 v 0.60547 q -0.4248,-0.37109 -0.80566,-0.56641 -0.38086,-0.19043 -0.84961,-0.19043 -0.35645,0 -0.67383,0.11719 -0.3125,0.11719 -0.54688,0.37109 -0.23437,0.25391 -0.36621,0.63965 -0.12695,0.38574 -0.12695,0.9375 v 3.54004 h 0.91797 v -3.10547 q 0,-0.43457 0.0293,-0.72265 0.0342,-0.28321 0.14648,-0.49805 0.11231,-0.20996 0.30274,-0.30762 0.19531,-0.0976 0.55664,-0.0976 0.33691,0 0.71777,0.19043 0.38086,0.19043 0.69824,0.46875 v 4.07226 h 0.91797 z"
         id="path1292"
         style="font-variant:normal;font-weight:normal;font-stretch:normal;font-size:10px;font-family:Tahoma;-inkscape-font-specification:Tahoma;writing-mode:lr-tb;fill:#254aa5;fill-opacity:1;fill-rule:nonzero;stroke:none" /><path
         d="m 149.44689,160.69077 h -0.0488 q -0.10254,0.0293 -0.21973,0.0342 -0.1123,0.01 -0.27344,0.01 -0.37109,0 -0.7373,-0.16113 -0.36621,-0.16113 -0.69336,-0.47852 V 156.223 h -0.91797 v 5.4541 h 0.91797 v -0.81055 q 0.50293,0.44434 0.87402,0.625 0.37598,0.18555 0.72754,0.18555 0.1416,0 0.20996,-0.01 0.0732,-0.005 0.16113,-0.0195 z"
         id="path1294"
         style="font-variant:normal;font-weight:normal;font-stretch:normal;font-size:10px;font-family:Tahoma;-inkscape-font-specification:Tahoma;writing-mode:lr-tb;fill:#254aa5;fill-opacity:1;fill-rule:nonzero;stroke:none" /><path
         d="m 154.54857,158.94761 q 0,-1.37695 -0.66407,-2.12891 -0.66406,-0.74707 -1.76757,-0.74707 -1.1377,0 -1.792,0.77149 -0.64941,0.77636 -0.64941,2.10449 0,1.36719 0.66895,2.12402 0.67382,0.75684 1.77246,0.75684 1.10351,0 1.76757,-0.75684 0.66407,-0.75195 0.66407,-2.12402 z m -0.94727,0 q 0,1.05957 -0.38574,1.57227 -0.38574,0.51757 -1.09863,0.51757 -0.71778,0 -1.1084,-0.51757 -0.38574,-0.5127 -0.38574,-1.57227 0,-1.02539 0.38574,-1.55762 0.39062,-0.52734 1.1084,-0.52734 0.708,0 1.09375,0.51758 0.39062,0.52246 0.39062,1.56738 z"
         id="path1296"
         style="font-variant:normal;font-weight:normal;font-stretch:normal;font-size:10px;font-family:Tahoma;-inkscape-font-specification:Tahoma;writing-mode:lr-tb;fill:#254aa5;fill-opacity:1;fill-rule:nonzero;stroke:none" /><path
         d="m 160.01646,159.09409 q 0,-1.3623 -0.6543,-2.17285 -0.64941,-0.80566 -1.64551,-0.80566 -0.40527,0 -0.71777,0.0928 -0.3125,0.0928 -0.63965,0.28809 v -2.28516 h -0.91797 v 7.46582 h 0.91797 v -0.57129 q 0.3418,0.30762 0.75684,0.5127 0.41992,0.20996 0.91308,0.20996 0.9375,0 1.45997,-0.74219 0.52734,-0.74219 0.52734,-1.99219 z m -0.94727,-0.10254 q 0,0.93262 -0.29785,1.44532 -0.29785,0.51758 -0.96679,0.51758 -0.39063,0 -0.75684,-0.17579 -0.36133,-0.17089 -0.68848,-0.44433 v -3.09082 q 0.36133,-0.17578 0.61524,-0.23926 0.25879,-0.0635 0.59082,-0.0635 0.71289,0 1.1084,0.52246 0.3955,0.52247 0.3955,1.52832 z"
         id="path1298"
         style="font-variant:normal;font-weight:normal;font-stretch:normal;font-size:10px;font-family:Tahoma;-inkscape-font-specification:Tahoma;writing-mode:lr-tb;fill:#254aa5;fill-opacity:1;fill-rule:nonzero;stroke:none" /><path
         d="m 163.28943,156.09605 q -1.30371,0 -2.02637,0.73242 -0.71777,0.7373 -0.71777,2.08984 0,1.33301 0.69824,2.11914 0.69824,0.79102 1.82617,0.79102 0.50781,0 0.89844,-0.14649 0.39062,-0.14648 0.68359,-0.45898 0.29297,-0.3125 0.44922,-0.7666 0.15625,-0.44922 0.15625,-1.10352 v -0.49804 h -3.7793 q 0,-0.95215 0.47852,-1.45508 0.47852,-0.50293 1.32324,-0.50293 0.30274,0 0.59082,0.0684 0.29297,0.0684 0.52735,0.17578 0.24902,0.1123 0.41992,0.21484 0.1709,0.10742 0.2832,0.2002 h 0.0537 v -1.00098 q -0.16113,-0.0635 -0.40039,-0.16113 -0.23926,-0.0928 -0.42969,-0.14649 -0.26855,-0.0732 -0.48828,-0.1123 -0.21484,-0.0391 -0.54687,-0.0391 z m 1.07422,3.46191 q -0.01,0.37109 -0.0879,0.63965 -0.0781,0.26855 -0.22461,0.4541 -0.16114,0.20508 -0.41504,0.3125 -0.24903,0.10742 -0.62012,0.10742 -0.36621,0 -0.625,-0.1123 -0.25391,-0.10742 -0.46387,-0.31738 -0.20507,-0.21485 -0.3125,-0.47852 -0.10742,-0.25879 -0.13672,-0.60547 z"
         id="path1300"
         style="font-variant:normal;font-weight:normal;font-stretch:normal;font-size:10px;font-family:Tahoma;-inkscape-font-specification:Tahoma;writing-mode:lr-tb;fill:#254aa5;fill-opacity:1;fill-rule:nonzero;stroke:none" /><path
         d="m 169.17814,157.56577 v 1.51368 q -0.32715,-0.0293 -0.83008,-0.083 -0.49805,-0.0488 -0.80566,-0.1416 -0.36622,-0.11231 -0.60547,-0.34668 -0.23926,-0.2295 -0.23926,-0.64454 0,-0.46875 0.26367,-0.708 0.26367,-0.23926 0.77148,-0.23926 0.43458,0 0.78614,0.18555 0.35156,0.19043 0.65918,0.46386 z m 0,-0.76172 q -0.11231,-0.083 -0.30274,-0.23437 -0.18554,-0.14648 -0.36133,-0.23438 -0.24414,-0.12695 -0.47363,-0.19531 -0.22461,-0.0684 -0.63476,-0.0684 -0.33692,0 -0.63965,0.12696 -0.30274,0.12695 -0.53223,0.35644 -0.21973,0.22461 -0.35156,0.55176 -0.13184,0.33203 -0.13184,0.69824 0,0.56641 0.23926,0.96192 0.23926,0.40039 0.75684,0.63476 0.45898,0.20996 1.08398,0.28809 0.625,0.083 1.34766,0.12207 v 0.17578 q 0,0.32226 -0.0977,0.51758 -0.0977,0.20019 -0.27344,0.30761 -0.17578,0.11231 -0.42969,0.14649 -0.2539,0.0391 -0.52246,0.0391 -0.31738,0 -0.74707,-0.0976 -0.42969,-0.0928 -0.85937,-0.27344 h -0.0537 v 0.93261 q 0.2539,0.0733 0.72754,0.16114 0.47363,0.0879 0.9375,0.0879 0.56152,0 0.94726,-0.0879 0.38574,-0.0879 0.69336,-0.31739 0.29785,-0.2246 0.44434,-0.58105 0.14648,-0.35645 0.14648,-0.86914 V 156.223 h -0.91309 z"
         id="path1302"
         style="font-variant:normal;font-weight:normal;font-stretch:normal;font-size:10px;font-family:Tahoma;-inkscape-font-specification:Tahoma;writing-mode:lr-tb;fill:#254aa5;fill-opacity:1;fill-rule:nonzero;stroke:none" /><path
         d="m 175.61837,156.223 h -0.91797 v 3.10547 q 0,0.37598 -0.0391,0.69824 -0.0342,0.32715 -0.13671,0.52246 -0.11231,0.20508 -0.3125,0.30274 -0.2002,0.10254 -0.54688,0.10254 -0.3418,0 -0.70801,-0.18555 -0.36133,-0.18067 -0.70801,-0.47363 V 156.223 h -0.91796 v 5.4541 h 0.91796 v -0.60547 q 0.41016,0.36621 0.81055,0.56153 0.40039,0.19531 0.84473,0.19531 0.80566,0 1.25976,-0.53223 0.45411,-0.52734 0.45411,-1.5332 z"
         id="path1304"
         style="font-variant:normal;font-weight:normal;font-stretch:normal;font-size:10px;font-family:Tahoma;-inkscape-font-specification:Tahoma;writing-mode:lr-tb;fill:#254aa5;fill-opacity:1;fill-rule:nonzero;stroke:none" /><path
         d="m 182.54857,156.07163 q -0.63965,0 -1.11817,0.16602 -0.47851,0.1709 -0.81543,0.50293 -0.38086,0.38086 -0.53711,0.9082 -0.15625,0.53223 -0.15625,1.3086 v 4.53613 h 0.9668 v -4.53613 q 0,-0.50293 0.0635,-0.84961 0.0635,-0.3418 0.24903,-0.61524 0.19531,-0.29297 0.52734,-0.44433 0.33691,-0.15137 0.82031,-0.15137 0.4541,0 0.80567,0.15137 0.35156,0.15136 0.54687,0.44433 0.18066,0.27832 0.24414,0.61524 0.0684,0.33691 0.0684,0.82519 v 4.56055 h 0.9668 v -4.53613 q 0,-0.75684 -0.15625,-1.29883 -0.15137,-0.542 -0.53711,-0.91797 -0.34668,-0.33692 -0.81055,-0.50293 -0.45898,-0.16602 -1.12793,-0.16602 z"
         id="path1306"
         style="font-variant:normal;font-weight:normal;font-stretch:normal;font-size:10px;font-family:Tahoma;-inkscape-font-specification:Tahoma;writing-mode:lr-tb;fill:#254aa5;fill-opacity:1;fill-rule:nonzero;stroke:none" /><path
         d="m 190.73337,156.223 h -0.91797 v 3.10547 q 0,0.37598 -0.0391,0.69824 -0.0342,0.32715 -0.13672,0.52246 -0.1123,0.20508 -0.3125,0.30274 -0.20019,0.10254 -0.54687,0.10254 -0.3418,0 -0.70801,-0.18555 -0.36133,-0.18067 -0.70801,-0.47363 V 156.223 h -0.91797 v 5.4541 h 0.91797 v -0.60547 q 0.41016,0.36621 0.81055,0.56153 0.40039,0.19531 0.84473,0.19531 0.80566,0 1.25976,-0.53223 0.4541,-0.52734 0.4541,-1.5332 z"
         id="path1308"
         style="font-variant:normal;font-weight:normal;font-stretch:normal;font-size:10px;font-family:Tahoma;-inkscape-font-specification:Tahoma;writing-mode:lr-tb;fill:#254aa5;fill-opacity:1;fill-rule:nonzero;stroke:none" /><path
         d="m 192.91376,156.223 h -0.91797 v 5.4541 h 0.91797 z m 0.0635,6.36719 h -1.04492 v 0.95215 h 1.04492 z"
         id="path1310"
         style="font-variant:normal;font-weight:normal;font-stretch:normal;font-size:10px;font-family:Tahoma;-inkscape-font-specification:Tahoma;writing-mode:lr-tb;fill:#254aa5;fill-opacity:1;fill-rule:nonzero;stroke:none" /><path
         d="m 198.69857,158.94761 q 0,-1.37695 -0.66407,-2.12891 -0.66406,-0.74707 -1.76757,-0.74707 -1.1377,0 -1.792,0.77149 -0.64941,0.77636 -0.64941,2.10449 0,1.36719 0.66894,2.12402 0.67383,0.75684 1.77247,0.75684 1.10351,0 1.76757,-0.75684 0.66407,-0.75195 0.66407,-2.12402 z m -0.94727,0 q 0,1.05957 -0.38574,1.57227 -0.38574,0.51757 -1.09863,0.51757 -0.71778,0 -1.1084,-0.51757 -0.38575,-0.5127 -0.38575,-1.57227 0,-1.02539 0.38575,-1.55762 0.39062,-0.52734 1.1084,-0.52734 0.708,0 1.09375,0.51758 0.39062,0.52246 0.39062,1.56738 z"
         id="path1312"
         style="font-variant:normal;font-weight:normal;font-stretch:normal;font-size:10px;font-family:Tahoma;-inkscape-font-specification:Tahoma;writing-mode:lr-tb;fill:#254aa5;fill-opacity:1;fill-rule:nonzero;stroke:none" /><path
         d="m 203.87837,156.223 h -0.91796 v 3.10547 q 0,0.37598 -0.0391,0.69824 -0.0342,0.32715 -0.13672,0.52246 -0.11231,0.20508 -0.3125,0.30274 -0.2002,0.10254 -0.54688,0.10254 -0.3418,0 -0.70801,-0.18555 -0.36132,-0.18067 -0.708,-0.47363 V 156.223 h -0.91797 v 5.4541 h 0.91797 v -0.60547 q 0.41015,0.36621 0.81054,0.56153 0.40039,0.19531 0.84473,0.19531 0.80566,0 1.25977,-0.53223 0.4541,-0.52734 0.4541,-1.5332 z"
         id="path1314"
         style="font-variant:normal;font-weight:normal;font-stretch:normal;font-size:10px;font-family:Tahoma;-inkscape-font-specification:Tahoma;writing-mode:lr-tb;fill:#254aa5;fill-opacity:1;fill-rule:nonzero;stroke:none" /></g><g
       id="g1383"
       transform="matrix(1.847405,0,0,1.847405,-135.75652,-163.16842)"><path
         id="path360"
         style="fill:#ffffff;fill-opacity:1;fill-rule:nonzero;stroke:none"
         d="m 127.971,185.712 h 65.664 v 44.603 h -65.664 z" /><path
         id="path362"
         style="fill:#254aa5;fill-opacity:1;fill-rule:nonzero;stroke:none"
         d="m 129.234,229.092 h 63.138 v -42.093 h -63.138 z" /><g
         transform="translate(159.4576,219.9209)"
         id="g364"><path
           id="path366"
           style="fill:#fff200;fill-opacity:1;fill-rule:nonzero;stroke:none"
           d="M 0,0 1.332,0.972 2.664,0 2.158,1.572 3.511,2.545 H 1.843 L 1.332,4.136 0.822,2.543 -0.845,2.545 0.507,1.572 Z" /></g><g
         transform="translate(152.5629,218.0686)"
         id="g368"><path
           id="path370"
           style="fill:#fff200;fill-opacity:1;fill-rule:nonzero;stroke:none"
           d="M 0,0 1.332,0.972 2.664,0 2.158,1.572 3.51,2.545 H 1.842 L 1.331,4.138 0.821,2.543 -0.846,2.545 0.506,1.572 Z" /></g><g
         transform="translate(148.8504,217.1502)"
         id="g372"><path
           id="path374"
           style="fill:#fff200;fill-opacity:1;fill-rule:nonzero;stroke:none"
           d="M 0,0 -0.51,-1.595 -2.178,-1.593 -0.825,-2.565 -1.332,-4.138 0,-3.166 1.332,-4.138 0.825,-2.565 2.178,-1.593 H 0.51 Z" /></g><g
         transform="translate(146.9998,207.0988)"
         id="g376"><path
           id="path378"
           style="fill:#fff200;fill-opacity:1;fill-rule:nonzero;stroke:none"
           d="M 0,0 1.331,-0.972 0.825,0.6 2.178,1.572 H 0.51 L 0,3.165 -0.51,1.569 -2.178,1.572 -0.825,0.6 -1.332,-0.972 Z" /></g><g
         transform="translate(149.3609,201.7644)"
         id="g380"><path
           id="path382"
           style="fill:#fff200;fill-opacity:1;fill-rule:nonzero;stroke:none"
           d="M 0,0 -0.51,1.593 -1.021,-0.002 -2.688,0 -1.336,-0.972 -1.843,-2.545 -0.51,-1.571 0.822,-2.545 0.315,-0.972 1.667,0 Z" /></g><g
         transform="translate(154.4152,196.71)"
         id="g384"><path
           id="path386"
           style="fill:#fff200;fill-opacity:1;fill-rule:nonzero;stroke:none"
           d="M 0,0 -0.51,1.591 -1.02,-0.002 -2.688,0 -1.336,-0.972 -1.842,-2.545 -0.51,-1.572 0.822,-2.545 0.316,-0.972 1.668,0 Z" /></g><g
         transform="translate(161.3012,194.8784)"
         id="g388"><path
           id="path390"
           style="fill:#fff200;fill-opacity:1;fill-rule:nonzero;stroke:none"
           d="M 0,0 -0.51,1.593 -1.02,-0.002 -2.688,0 -1.336,-0.972 -1.842,-2.545 -0.51,-1.572 0.822,-2.545 0.315,-0.972 1.668,0 Z" /></g><g
         transform="translate(168.1872,196.71)"
         id="g392"><path
           id="path394"
           style="fill:#fff200;fill-opacity:1;fill-rule:nonzero;stroke:none"
           d="M 0,0 -0.51,1.591 -1.021,-0.002 -2.687,0 -1.336,-0.972 -1.842,-2.545 -0.51,-1.572 0.823,-2.545 0.315,-0.972 1.668,0 Z" /></g><g
         transform="translate(173.2433,201.7644)"
         id="g396"><path
           id="path398"
           style="fill:#fff200;fill-opacity:1;fill-rule:nonzero;stroke:none"
           d="M 0,0 -0.511,1.593 -1.023,-0.002 -2.689,0 -1.336,-0.972 -1.844,-2.545 -0.511,-1.571 0.821,-2.545 0.313,-0.972 1.666,0 Z" /></g><g
         transform="translate(176.7411,208.6902)"
         id="g400"><path
           id="path402"
           style="fill:#fff200;fill-opacity:1;fill-rule:nonzero;stroke:none"
           d="M 0,0 H -1.668 L -2.18,1.593 -2.689,-0.002 -4.357,0 l 1.353,-0.972 -0.506,-1.573 1.33,0.974 1.333,-0.974 -0.506,1.573 z" /></g><g
         transform="translate(171.3995,213.0333)"
         id="g404"><path
           id="path406"
           style="fill:#fff200;fill-opacity:1;fill-rule:nonzero;stroke:none"
           d="M 0,0 1.332,0.972 2.665,0 2.157,1.572 3.51,2.543 H 1.844 L 1.332,4.136 0.821,2.541 -0.845,2.543 0.508,1.572 Z" /></g><g
         transform="translate(167.6967,222.2046)"
         id="g408"><path
           id="path410"
           style="fill:#fff200;fill-opacity:1;fill-rule:nonzero;stroke:none"
           d="m 0,0 -0.51,-1.595 -1.668,0.004 1.352,-0.974 -0.506,-1.573 1.334,0.974 1.33,-0.974 -0.506,1.573 1.353,0.974 H 0.51 Z" /></g></g></g></svg>
