<?xml version="1.0" encoding="UTF-8" standalone="no"?>
<svg
   xmlns:dc="http://purl.org/dc/elements/1.1/"
   xmlns:cc="http://creativecommons.org/ns#"
   xmlns:rdf="http://www.w3.org/1999/02/22-rdf-syntax-ns#"
   xmlns:svg="http://www.w3.org/2000/svg"
   xmlns="http://www.w3.org/2000/svg"
   xmlns:sodipodi="http://sodipodi.sourceforge.net/DTD/sodipodi-0.dtd"
   xmlns:inkscape="http://www.inkscape.org/namespaces/inkscape"
   id="Layer_1"
   data-name="Layer 1"
   viewBox="0 0 324.19 202.27"
   version="1.1"
   sodipodi:docname="jhl.svg"
   inkscape:version="0.92.4 (5da689c313, 2019-01-14)">
  <metadata
     id="metadata103">
    <rdf:RDF>
      <cc:Work
         rdf:about="">
        <dc:format>image/svg+xml</dc:format>
        <dc:type
           rdf:resource="http://purl.org/dc/dcmitype/StillImage" />
        <dc:title>James Hutton Limited</dc:title>
      </cc:Work>
    </rdf:RDF>
  </metadata>
  <sodipodi:namedview
     pagecolor="#ffffff"
     bordercolor="#666666"
     borderopacity="1"
     objecttolerance="10"
     gridtolerance="10"
     guidetolerance="10"
     inkscape:pageopacity="0"
     inkscape:pageshadow="2"
     inkscape:window-width="3440"
     inkscape:window-height="1377"
     id="namedview101"
     showgrid="false"
     inkscape:zoom="2.4777855"
     inkscape:cx="98.517713"
     inkscape:cy="110.81408"
     inkscape:window-x="-8"
     inkscape:window-y="-8"
     inkscape:window-maximized="1"
     inkscape:current-layer="Layer_1" />
  <defs
     id="defs4">
    <style
       id="style2">.cls-1{fill:#86a315;}.cls-2{fill:#8b1c6d;}.cls-3{fill:#1d1d1b;}.cls-4{fill:#69a2c2;}</style>
  </defs>
  <title
     id="title6">James Hutton Limited</title>
  <path
     class="cls-1"
     d="M383,288.86v61h8.38c1.59,0,15.35-.61,15.35-15.79V282.28A113.56,113.56,0,0,1,383,288.86"
     transform="translate(-257.09 -200.2)"
     id="path8" />
  <path
     class="cls-1"
     d="M366.4,290.24h0A89.25,89.25,0,0,1,351.55,289v60.8h24v-60c-2.94.27-6,.42-9.11.42"
     transform="translate(-257.09 -200.2)"
     id="path10" />
  <path
     class="cls-1"
     d="M324.75,279.56q-2.29-1.31-4.64-2.44v72.7h23.95v-62.4a80.28,80.28,0,0,1-19.31-7.86"
     transform="translate(-257.09 -200.2)"
     id="path12" />
  <path
     class="cls-2"
     d="M288.67,269.72v80.1h23.95V274a71.6,71.6,0,0,0-23.95-4.25"
     transform="translate(-257.09 -200.2)"
     id="path14" />
  <path
     class="cls-2"
     d="M257.09,276.08V334c0,1.6.57,15.79,15.34,15.79h8.75V270.07a83.44,83.44,0,0,0-24.09,6"
     transform="translate(-257.09 -200.2)"
     id="path16" />
  <path
     class="cls-3"
     d="M435.77,343.61V305.87h5.5v33.29l13.11.73v3.72Z"
     transform="translate(-257.09 -200.2)"
     id="path18" />
  <path
     class="cls-3"
     d="M456.74,308.86c0-1.51.36-2.4,1.1-2.7a5.32,5.32,0,0,1,2-.45c1.75,0,2.62,1.05,2.62,3.15s-.86,3.09-2.57,3.09a6,6,0,0,1-2-.42C457.12,311.25,456.74,310.36,456.74,308.86Zm.36,34.75V317.4l4.93-.63v26.84Z"
     transform="translate(-257.09 -200.2)"
     id="path20" />
  <path
     class="cls-3"
     d="M468.16,343.61V317.4l4.93-.63v2.05l.47-.32.58-.31A12.07,12.07,0,0,1,477,317a11.5,11.5,0,0,1,2.83-.36q4.51,0,6.61,3.19l.58-.42a17.08,17.08,0,0,1,3.48-1.95,10.73,10.73,0,0,1,4.22-.82,8,8,0,0,1,5.44,1.89,6.07,6.07,0,0,1,2.16,4.78v20.32h-4.92V325a4,4,0,0,0-1.3-3.07,4.61,4.61,0,0,0-3.24-1.19,5.6,5.6,0,0,0-1.39.19l-1,.26a8.83,8.83,0,0,0-2.87,1.87v20.59h-4.93V324.84a3.85,3.85,0,0,0-1.28-3,4.7,4.7,0,0,0-3.28-1.18,7.33,7.33,0,0,0-1.78.27l-1.36.47a7.6,7.6,0,0,0-1.89,1.26v20.91Z"
     transform="translate(-257.09 -200.2)"
     id="path22" />
  <path
     class="cls-3"
     d="M508.06,308.86c0-1.51.36-2.4,1.1-2.7a5.28,5.28,0,0,1,2-.45c1.75,0,2.62,1.05,2.62,3.15s-.86,3.09-2.57,3.09a6,6,0,0,1-2-.42C508.44,311.25,508.06,310.36,508.06,308.86Zm.36,34.75V317.4l4.93-.63v26.84Z"
     transform="translate(-257.09 -200.2)"
     id="path24" />
  <path
     class="cls-3"
     d="M516.7,320.66v-3.31H520V313l4.93-.79v5.14h5.19v3.3l-5.19.47v15.73a5.7,5.7,0,0,0,.5,2.83,2.09,2.09,0,0,0,1.88.79h1.22l.37-.13.48-.19.42-.12.37-.19v3.66l-.42.16-.31.1-1.57.32a17.47,17.47,0,0,1-2.26.16q-5.61,0-5.61-5.88V321Z"
     transform="translate(-257.09 -200.2)"
     id="path26" />
  <path
     class="cls-3"
     d="M554.29,332.08H538l.1,1.15a8.67,8.67,0,0,0,2.7,5.22,8.1,8.1,0,0,0,5.53,1.86,16.48,16.48,0,0,0,4.93-.89l.68-.26.53-.21.94,3.77-.68.21-.63.21a25,25,0,0,1-6.92,1.1q-6,0-9.33-3.67c-2.24-2.45-3.35-5.83-3.35-10.17,0-4,.82-7.18,2.48-9.49s3.41-3.59,5.25-3.85a32.57,32.57,0,0,1,3.69-.39,9.34,9.34,0,0,1,7.66,3.41q2.77,3.41,2.77,9.85Zm-16.67-3.36h11.85v-.83a8.59,8.59,0,0,0-1.56-5.51,5,5,0,0,0-4.13-1.94c-.21,0-.82.08-1.84.24a4.78,4.78,0,0,0-2.93,2.07,8.22,8.22,0,0,0-1.39,5.08Z"
     transform="translate(-257.09 -200.2)"
     id="path28" />
  <path
     class="cls-3"
     d="M574.84,319.18V305.92l4.92-.52v38.21h-4.71v-2.2l-.42.26-.79.58-1.31.79a8.54,8.54,0,0,1-4.4,1.2,8.69,8.69,0,0,1-6-2.44,10.19,10.19,0,0,1-3.3-5.66,28.38,28.38,0,0,1-.63-5.16,31,31,0,0,1,.23-3.36,21.06,21.06,0,0,1,1.18-4.58,9.57,9.57,0,0,1,3.41-4.43,8.87,8.87,0,0,1,5.45-1.84,10,10,0,0,1,5.82,1.94Zm0,4-1.26-.89a8.72,8.72,0,0,0-2-.84,6.86,6.86,0,0,0-1.91-.32,5.11,5.11,0,0,0-3.8,1.6,7.3,7.3,0,0,0-1.94,4,25.52,25.52,0,0,0-.39,4,24.85,24.85,0,0,0,.36,3.61,7.19,7.19,0,0,0,1.94,3.93,5.17,5.17,0,0,0,3.88,1.63,7.9,7.9,0,0,0,3.78-1.1l1.31-.84Z"
     transform="translate(-257.09 -200.2)"
     id="path30" />
  <path
     class="cls-1"
     d="M327.88,223.14A76.87,76.87,0,0,0,366.39,233h0a105.64,105.64,0,0,0,40.33-8.5V216c0-1.6-.56-15.79-15.33-15.79h-119c-1.55,0-15.34.59-15.34,15.79v2.62a83.82,83.82,0,0,1,31.23-6.15,79.32,79.32,0,0,1,39.56,10.68"
     transform="translate(-257.09 -200.2)"
     id="path32" />
  <path
     class="cls-1"
     d="M327.88,248.55a76.87,76.87,0,0,0,38.51,9.85h0a105.59,105.59,0,0,0,40.33-8.5V231.37a111,111,0,0,1-40.33,8h0a83.13,83.13,0,0,1-41.64-10.68,73.06,73.06,0,0,0-36.43-9.85,77.7,77.7,0,0,0-31.23,6.72V244a83.89,83.89,0,0,1,31.23-6.14,79.31,79.31,0,0,1,39.56,10.67"
     transform="translate(-257.09 -200.2)"
     id="path34" />
  <path
     class="cls-4"
     d="M327.88,274.05a77,77,0,0,0,38.51,9.85,105.5,105.5,0,0,0,40.33-8.5V256.79a111.26,111.26,0,0,1-40.33,7.95h0a83.13,83.13,0,0,1-41.64-10.68,73.06,73.06,0,0,0-36.43-9.85,77.87,77.87,0,0,0-31.23,6.72v18.59a83.86,83.86,0,0,1,31.23-6.15,79.32,79.32,0,0,1,39.56,10.68"
     transform="translate(-257.09 -200.2)"
     id="path36" />
  <path
     class="cls-3"
     d="M435.11,256.37h8.62v15.08H453V256.37h8.68v37.24H453V277.18h-9.25v16.43h-8.62Z"
     transform="translate(-257.09 -200.2)"
     id="path38" />
  <path
     class="cls-3"
     d="M475.34,294.28q-7.95,0-7.95-7.95V267.06l7.44-.72v17.82c0,2.68,1.21,4,3.64,4a7.47,7.47,0,0,0,3.8-1.29V267h7.43v26.6h-7.38l-.05-1.45A13.89,13.89,0,0,1,475.34,294.28Z"
     transform="translate(-257.09 -200.2)"
     id="path40" />
  <path
     class="cls-3"
     d="M494.46,267h2.89V263l7.44-1V267h4.44v4.71l-4.44.57v15.12c.17,1.1.92,1.65,2.24,1.65a6.23,6.23,0,0,0,2.25-.46v5.05a18.47,18.47,0,0,1-4.86.68q-3.76,0-5.42-1.42T497.35,288V272.13l-2.89-.31Z"
     transform="translate(-257.09 -200.2)"
     id="path42" />
  <path
     class="cls-3"
     d="M512.17,267h2.9V263l7.43-1V267H527v4.71l-4.45.57v15.12q.27,1.65,2.25,1.65a6.23,6.23,0,0,0,2.25-.46v5.05a18.47,18.47,0,0,1-4.86.68q-3.76,0-5.42-1.42T515.07,288V272.13l-2.9-.31Z"
     transform="translate(-257.09 -200.2)"
     id="path44" />
  <path
     class="cls-3"
     d="M542.24,266.34c4,0,7,1.13,9,3.39s3,5.8,3,10.6-1,8.25-2.92,10.53-5,3.42-9.11,3.42-7.22-1.11-9.15-3.34a11.38,11.38,0,0,1-2.17-4.3,23.87,23.87,0,0,1-.72-6.31q0-7.24,2.89-10.62T542.24,266.34Zm-4.24,14q0,8.79,4.24,8.79t4.28-8.79q0-8.77-4.28-8.78a3.38,3.38,0,0,0-3.18,2.16A15.69,15.69,0,0,0,538,280.33Z"
     transform="translate(-257.09 -200.2)"
     id="path46" />
  <path
     class="cls-3"
     d="M559,266.91l7.44-.68v2.12a22.93,22.93,0,0,1,3.78-1.57,10.92,10.92,0,0,1,3.22-.55q3.71,0,5.33,1.58a7.42,7.42,0,0,1,2.08,3.18,15.09,15.09,0,0,1,.47,4.13v18.49h-7.44V275.07q-.48-2.69-3.51-2.69a8,8,0,0,0-3.93,1.34v19.89H559Z"
     transform="translate(-257.09 -200.2)"
     id="path48" />
  <path
     class="cls-3"
     d="M436.63,246.51l.7-.89a9.91,9.91,0,0,0,1.93-6V203.06h5.5v32.81A22.41,22.41,0,0,1,444,243a12.89,12.89,0,0,1-3.46,4.67l-1.1.89Z"
     transform="translate(-257.09 -200.2)"
     id="path50" />
  <path
     class="cls-3"
     d="M465.46,225v-2.59a4.9,4.9,0,0,0-1.12-3.56c-.75-.76-2-1.13-3.85-1.13H458.6l-2,.37a14.65,14.65,0,0,0-1.7.56l-1,.34-.84.35-1.25-3.9,1-.26,1.31-.36c1.12-.27,2.08-.49,2.89-.65a11.86,11.86,0,0,1,2.14-.23q6.3,0,8.76,1.73c1.64,1.15,2.46,3.22,2.46,6.19V240.8h-4.76l-.17-2.41-.57.42c-1.94,1.5-3.43,2.31-4.45,2.41s-1.75.17-2.19.21a5.57,5.57,0,0,1-1,0,7.5,7.5,0,0,1-5.73-2.31,8.16,8.16,0,0,1-2.19-5.87,20.31,20.31,0,0,1,.39-3.06,6.75,6.75,0,0,1,2.94-4.07,11.26,11.26,0,0,1,6.84-1.88,21.52,21.52,0,0,1,3.56.31l1.16.21.63.16Zm0,2.89-.68-.11-.94-.1a18.22,18.22,0,0,0-2.36-.16,8.65,8.65,0,0,0-4.32.94,4.31,4.31,0,0,0-2.1,2.26,7,7,0,0,0-.45,2.2,4.28,4.28,0,0,0,1.42,3.25,5.34,5.34,0,0,0,3.77,1.31,7.66,7.66,0,0,0,2.44-.37,9.17,9.17,0,0,0,2.49-1.36l.73-.53Z"
     transform="translate(-257.09 -200.2)"
     id="path52" />
  <path
     class="cls-3"
     d="M476.42,240.8V214.59l4.93-.63v2l.47-.32.58-.31a11.9,11.9,0,0,1,2.88-1.21,11.45,11.45,0,0,1,2.83-.37q4.51,0,6.6,3.2l.59-.42a17.08,17.08,0,0,1,3.48-2,10.73,10.73,0,0,1,4.22-.83,7.91,7.91,0,0,1,5.43,1.9,6,6,0,0,1,2.17,4.77V240.8h-4.93V222.15a4,4,0,0,0-1.29-3.07,4.61,4.61,0,0,0-3.24-1.19,5.3,5.3,0,0,0-1.4.19l-1,.26a6.66,6.66,0,0,0-1.19.58,7.72,7.72,0,0,0-1.68,1.28v20.6h-4.93V222a3.88,3.88,0,0,0-1.28-3,4.7,4.7,0,0,0-3.28-1.18,7.33,7.33,0,0,0-1.78.27l-1.37.47a7.6,7.6,0,0,0-1.88,1.25V240.8Z"
     transform="translate(-257.09 -200.2)"
     id="path54" />
  <path
     class="cls-3"
     d="M537.49,229.27H521.24l.1,1.15a8.67,8.67,0,0,0,2.7,5.22,8.1,8.1,0,0,0,5.53,1.86,16.48,16.48,0,0,0,4.93-.89l.68-.27.53-.21.94,3.78-.68.21-.63.21a25,25,0,0,1-6.92,1.1q-6,0-9.33-3.67t-3.35-10.17c0-4,.82-7.18,2.48-9.49s3.41-3.59,5.25-3.85a32.57,32.57,0,0,1,3.69-.39,9.36,9.36,0,0,1,7.66,3.4q2.77,3.42,2.77,9.86Zm-16.67-3.36h11.85v-.84a8.58,8.58,0,0,0-1.56-5.5,5,5,0,0,0-4.13-1.94c-.21,0-.82.08-1.84.24a4.74,4.74,0,0,0-2.93,2.07,8.22,8.22,0,0,0-1.39,5.08Z"
     transform="translate(-257.09 -200.2)"
     id="path56" />
  <path
     class="cls-3"
     d="M540.63,239.59l1.42-4,.89.4a17.41,17.41,0,0,0,6,1.28,16,16,0,0,0,1.7-.16,7,7,0,0,0,2.44-.86,2.46,2.46,0,0,0,1.26-2.33,2.05,2.05,0,0,0-.55-1.62c-.37-.32-.74-.6-1.11-.87s-.77-.53-1.23-.81l-.94-.52-1.63-.78-.89-.42a17.76,17.76,0,0,1-5.42-3.64,5.86,5.86,0,0,1-1.71-4,11,11,0,0,1,.5-2.75,6.15,6.15,0,0,1,3-3.27,11.87,11.87,0,0,1,6.26-1.51,22.82,22.82,0,0,1,6.82,1.15l.89.32.79.31-1.26,3.83-.89-.32a22.16,22.16,0,0,0-3.52-1,16,16,0,0,0-2.88-.32,5.78,5.78,0,0,0-3.46.89,2.66,2.66,0,0,0-1.2,2.2,3,3,0,0,0,.41,1.59,4.14,4.14,0,0,0,1.58,1.28l1,.58.73.37,2,1,2.63,1.31q5.34,2.67,5.34,6.54a9.64,9.64,0,0,1,0,1.1,20.37,20.37,0,0,1-.58,2.06,6.54,6.54,0,0,1-3,3.27,11.72,11.72,0,0,1-6.37,1.57,25,25,0,0,1-8.07-1.52Z"
     transform="translate(-257.09 -200.2)"
     id="path58" />
  <path
     class="cls-2"
     d="M260.35,395.71h-3.26V370.15h3.26Z"
     transform="translate(-257.09 -200.2)"
     id="path60" />
  <path
     class="cls-2"
     d="M274.44,395.71V383.32c0-1.81-.49-3.47-2.83-3.47a3.36,3.36,0,0,0-2.51,1.2,5.37,5.37,0,0,0-.68,2.62v12h-2.9V381.55c0-1.24-.07-2.48-.18-3.72h3.08v2.23h.08c.85-1.91,2.37-2.58,4.46-2.58,1.63,0,3.5.67,4.17,2.3a4.3,4.3,0,0,1,4.25-2.3c1.88,0,4.89.42,4.89,4.63v13.6h-2.9V383.32c0-1.81-.5-3.47-2.83-3.47a2.63,2.63,0,0,0-2.2.67c-.85.71-1,2.48-1,3.15v12Z"
     transform="translate(-257.09 -200.2)"
     id="path62" />
  <path
     class="cls-2"
     d="M293.85,380h.07a4.43,4.43,0,0,1,4.11-2.47c2.87,0,5.77,1.13,5.77,9,0,4.46-.14,9.6-5.91,9.6A4.53,4.53,0,0,1,294,393.9h-.11v8.57H291V377.83h2.9Zm6.91,6.52c0-2.69,0-6.62-3.65-6.62s-3.26,4.95-3.26,7.68c0,2.37.14,6.16,3.37,6.16S300.76,391.25,300.76,386.47Z"
     transform="translate(-257.09 -200.2)"
     id="path64" />
  <path
     class="cls-2"
     d="M317.08,393.13H317a4.37,4.37,0,0,1-4.49,2.94c-3.79,0-4.89-2.45-4.89-5.88,0-5.42,5.31-5.67,9.38-5.56.07-2.37.11-5-3-5a2.64,2.64,0,0,0-2.79,3.19h-3.15c.14-4,2.26-5.38,6.05-5.38,4.6,0,5.81,2.37,5.81,5.38v8.6a28.55,28.55,0,0,0,.35,4.25h-3.19Zm-6.55-2.73c0,1.73.85,3.29,2.8,3.29,1.77,0,4-1.1,3.68-6.87C314.25,386.86,310.53,386.61,310.53,390.4Z"
     transform="translate(-257.09 -200.2)"
     id="path66" />
  <path
     class="cls-2"
     d="M334.4,383.57c.07-2.94-1.38-3.72-2.48-3.72-2.23,0-3.75,1.06-3.75,5.95,0,5.8.74,7.89,3.75,7.89.68,0,2.69-.71,2.59-3.93h3c.11,5-3.64,6.31-5.63,6.31-3.78,0-6.79-1.14-6.79-9,0-5.24.6-9.56,6.79-9.56,3.58,0,5.67,2.09,5.49,6.09Z"
     transform="translate(-257.09 -200.2)"
     id="path68" />
  <path
     class="cls-2"
     d="M342.55,377.83V374.4l2.9-1.31v4.74h3.9V380h-3.9V391c0,1.13,0,2.58,2.66,2.58.21,0,.67-.07,1.31-.14v2.23c-1,.07-1.91.28-2.87.28-2.76,0-4-1.13-4-3.18V380h-2.94v-2.2Z"
     transform="translate(-257.09 -200.2)"
     id="path70" />
  <path
     class="cls-2"
     d="M359.2,377.83V374.4l2.9-1.31v4.74H366V380H362.1V391c0,1.13,0,2.58,2.65,2.58.22,0,.68-.07,1.31-.14v2.23c-.95.07-1.91.28-2.86.28-2.77,0-4-1.13-4-3.18V380h-2.94v-2.2Z"
     transform="translate(-257.09 -200.2)"
     id="path72" />
  <path
     class="cls-2"
     d="M377.89,395.71V383.6c0-2.19-.71-3.75-3.18-3.75-2.91,0-3.65,2.34-3.65,5.34v10.52h-2.91V370.15h2.91v10h.14c1.17-2.09,2.51-2.65,4.85-2.65,3.05,0,4.75,1.52,4.75,5.55v12.68Z"
     transform="translate(-257.09 -200.2)"
     id="path74" />
  <path
     class="cls-2"
     d="M388.38,380.52h.07c1.2-2.73,2.69-3,5.52-3v3l-.78-.11a4.71,4.71,0,0,0-.78-.07c-3.22,0-4,2.44-4,4.85v10.55h-2.91V377.83h2.91Z"
     transform="translate(-257.09 -200.2)"
     id="path76" />
  <path
     class="cls-2"
     d="M396.13,387c0-5.24.61-9.56,6.8-9.56s6.8,4.32,6.8,9.56c0,7.89-3,9-6.8,9S396.13,394.93,396.13,387Zm10.55-1.24c0-4.89-1.52-5.95-3.75-5.95s-3.75,1.06-3.75,5.95c0,5.8.74,7.89,3.75,7.89S406.68,391.6,406.68,385.8Z"
     transform="translate(-257.09 -200.2)"
     id="path78" />
  <path
     class="cls-2"
     d="M423.36,377.83h2.91V392c0,1.24.07,2.48.18,3.72h-3.09v-2.16h-.1a5.15,5.15,0,0,1-4.53,2.52c-3.12,0-4.82-1.56-4.82-4.61V377.83h2.9v12.39c0,2.16,1,3.61,3.05,3.61,1.56,0,3.5-1.16,3.5-4.14Z"
     transform="translate(-257.09 -200.2)"
     id="path80" />
  <path
     class="cls-2"
     d="M440.44,377.83h2.9v19.69c0,4-2.66,5-6.59,5-3,0-5.66-1.48-5.41-4.78h3.25a2.5,2.5,0,0,0,2.73,2.59,2.86,2.86,0,0,0,3.12-3.08v-3.72h-.11a4.46,4.46,0,0,1-3.93,2.23c-4.85,0-5.81-4.18-5.81-9.49,0-8.21,4.15-8.74,5.6-8.74a4.31,4.31,0,0,1,4.18,2.55h.07Zm-3.4,2.05c-3.3,0-3.4,4-3.4,6.34,0,5.74,1.31,7.08,3.47,7.08,3.5,0,3.4-4.14,3.4-6.62C440.51,384,440.68,379.88,437,379.88Z"
     transform="translate(-257.09 -200.2)"
     id="path82" />
  <path
     class="cls-2"
     d="M457.86,395.71V383.6c0-2.19-.71-3.75-3.19-3.75-2.9,0-3.64,2.34-3.64,5.34v10.52h-2.91V370.15H451v10h.14c1.17-2.09,2.51-2.65,4.85-2.65,3,0,4.74,1.52,4.74,5.55v12.68Z"
     transform="translate(-257.09 -200.2)"
     id="path84" />
  <path
     class="cls-2"
     d="M475.5,388.1v.74c0,3.47,2.19,4.57,4.28,4.57,2.59,0,4.57-1.1,4.57-4.14,0-5.67-11.47-5-11.47-12.72,0-4.53,3.22-6.93,7.51-6.93,4.67,0,7.29,2.26,7.08,7.47h-3.4c0-2.8-.85-4.64-3.93-4.64-1.95,0-3.93,1-3.93,3.75,0,5.63,11.47,4.82,11.47,12.93,0,5.38-3.72,7.11-7.93,7.11-7.55.07-7.55-5.7-7.47-8.14Z"
     transform="translate(-257.09 -200.2)"
     id="path86" />
  <path
     class="cls-2"
     d="M501.17,383.57c.07-2.94-1.38-3.72-2.47-3.72-2.24,0-3.76,1.06-3.76,5.95,0,5.8.74,7.89,3.76,7.89.67,0,2.68-.71,2.58-3.93h3.05c.1,5-3.65,6.31-5.63,6.31-3.79,0-6.8-1.14-6.8-9,0-5.24.6-9.56,6.8-9.56,3.57,0,5.66,2.09,5.48,6.09Z"
     transform="translate(-257.09 -200.2)"
     id="path88" />
  <path
     class="cls-2"
     d="M508.76,370.15H512v3.11h-3.25Zm3.08,25.56h-2.91V377.83h2.91Z"
     transform="translate(-257.09 -200.2)"
     id="path90" />
  <path
     class="cls-2"
     d="M519.17,387.71c0,5,1.34,6,3.61,6,2,0,3-1.59,3.11-3.4h3.19c0,4-2.48,5.78-6.23,5.78s-6.8-1.14-6.8-9c0-5.24.6-9.56,6.8-9.56,5.09,0,6.37,2.79,6.37,8.71v1.52Zm7-2.2c0-5.2-1.45-5.84-3.58-5.84-1.84,0-3.36.89-3.39,5.84Z"
     transform="translate(-257.09 -200.2)"
     id="path92" />
  <path
     class="cls-2"
     d="M543.21,395.71V383.32c0-1.91-.67-3.47-3.15-3.47-3.19,0-3.65,2.83-3.65,5.27v10.59h-2.9V381.55c0-1.24-.07-2.48-.18-3.72h3.08v2.3h.14c1.14-2,2.48-2.65,4.78-2.65,3.83,0,4.78,2.3,4.78,5.84v12.39Z"
     transform="translate(-257.09 -200.2)"
     id="path94" />
  <path
     class="cls-2"
     d="M560,383.57c.07-2.94-1.38-3.72-2.47-3.72-2.23,0-3.76,1.06-3.76,5.95,0,5.8.75,7.89,3.76,7.89.67,0,2.69-.71,2.58-3.93h3c.11,5-3.64,6.31-5.62,6.31-3.79,0-6.8-1.14-6.8-9,0-5.24.6-9.56,6.8-9.56,3.57,0,5.66,2.09,5.48,6.09Z"
     transform="translate(-257.09 -200.2)"
     id="path96" />
  <path
     class="cls-2"
     d="M570.7,387.71c0,5,1.34,6,3.61,6,2,0,3-1.59,3.11-3.4h3.19c0,4-2.48,5.78-6.23,5.78s-6.8-1.14-6.8-9c0-5.24.6-9.56,6.8-9.56,5.1,0,6.37,2.79,6.37,8.71v1.52Zm7-2.2c0-5.2-1.45-5.84-3.58-5.84-1.84,0-3.36.89-3.39,5.84Z"
     transform="translate(-257.09 -200.2)"
     id="path98" />
</svg>
