<?xml version="1.0" encoding="UTF-8" standalone="no"?>
<!-- Created with Inkscape (http://www.inkscape.org/) -->

<svg
   xmlns:dc="http://purl.org/dc/elements/1.1/"
   xmlns:cc="http://creativecommons.org/ns#"
   xmlns:rdf="http://www.w3.org/1999/02/22-rdf-syntax-ns#"
   xmlns:svg="http://www.w3.org/2000/svg"
   xmlns="http://www.w3.org/2000/svg"
   xmlns:sodipodi="http://sodipodi.sourceforge.net/DTD/sodipodi-0.dtd"
   xmlns:inkscape="http://www.inkscape.org/namespaces/inkscape"
   viewBox="0 0 92.910082 43.000001"
   id="svg4316"
   version="1.1"
   inkscape:version="0.91 r13725"
   sodipodi:docname="jhi.svg">
  <defs
     id="defs4318" />
  <sodipodi:namedview
     id="base"
     pagecolor="#ffffff"
     bordercolor="#666666"
     borderopacity="1.0"
     inkscape:pageopacity="0.0"
     inkscape:pageshadow="2"
     inkscape:zoom="0.35"
     inkscape:cx="1161.1532"
     inkscape:cy="-874.43653"
     inkscape:document-units="px"
     inkscape:current-layer="layer1"
     showgrid="false"
     units="px"
     fit-margin-top="0"
     fit-margin-left="0"
     fit-margin-right="0"
     fit-margin-bottom="0"
     inkscape:window-width="1920"
     inkscape:window-height="1018"
     inkscape:window-x="1912"
     inkscape:window-y="-8"
     inkscape:window-maximized="1" />
  <metadata
     id="metadata4321">
    <rdf:RDF>
      <cc:Work
         rdf:about="">
        <dc:format>image/svg+xml</dc:format>
        <dc:type
           rdf:resource="http://purl.org/dc/dcmitype/StillImage" />
        <dc:title></dc:title>
      </cc:Work>
    </rdf:RDF>
  </metadata>
  <g
     inkscape:label="Layer 1"
     inkscape:groupmode="layer"
     id="layer1"
     transform="translate(1273.2961,385.07437)">
    <g
       transform="matrix(0.73983191,0,0,-0.73983191,-1297.4134,-88.850475)"
       id="g3237"
       inkscape:export-filename="C:\Users\sr41756\Desktop\logo2.png"
       inkscape:export-xdpi="48.573853"
       inkscape:export-ydpi="48.573853">
      <g
         id="g3192">
        <g
           id="g3093"
           transform="translate(60.095505,391.48151)">
          <path
             d="m 0,0 c 4.468,-2.538 9.501,-3.825 14.958,-3.825 l 10e-4,0 c 7.183,0 13.214,2.24 15.666,3.3 l 0,3.304 c -0.006,0.622 -0.22,6.133 -5.957,6.133 l -46.208,0 c -0.603,-0.005 -5.957,-0.229 -5.957,-6.133 l 0,-1.021 c 2.799,1.135 7.037,2.389 12.129,2.389 C -10.015,4.147 -4.844,2.751 0,0"
             style="fill:#6ba62e;fill-opacity:1;fill-rule:nonzero;stroke:none"
             id="path3095"
             inkscape:connector-curvature="0" />
        </g>
        <g
           id="g3097"
           transform="translate(81.502808,365.9532)">
          <path
             d="m 0,0 0,-23.681 3.255,0 c 0.62,0.007 5.963,0.236 5.963,6.133 l 0,20.104 C 7.189,1.742 3.955,0.645 0,0"
             style="fill:#6ba62e;fill-opacity:1;fill-rule:nonzero;stroke:none"
             id="path3099"
             inkscape:connector-curvature="0" />
        </g>
        <g
           id="g3101"
           transform="translate(75.055801,365.41859)">
          <path
             d="m 0,0 -0.001,0 c -1.974,0 -3.897,0.16 -5.765,0.473 l 0,-23.619 9.305,0 0,23.31 C 2.399,0.059 1.217,0 0,0"
             style="fill:#6ba62e;fill-opacity:1;fill-rule:nonzero;stroke:none"
             id="path3103"
             inkscape:connector-curvature="0" />
        </g>
        <g
           id="g3105"
           transform="translate(58.879303,369.5654)">
          <path
             d="m 0,0 c -0.596,0.338 -1.197,0.653 -1.803,0.947 l 0,-28.24 9.305,0 0,24.241 C 4.871,-2.36 2.364,-1.343 0,0"
             style="fill:#6ba62e;fill-opacity:1;fill-rule:nonzero;stroke:none"
             id="path3107"
             inkscape:connector-curvature="0" />
        </g>
        <g
           id="g3109"
           transform="translate(44.862503,373.3884)">
          <path
             d="m 0,0 0,-31.116 9.305,0 0,29.463 C 6.295,-0.571 3.182,-0.015 0,0"
             style="fill:#811c76;fill-opacity:1;fill-rule:nonzero;stroke:none"
             id="path3111"
             inkscape:connector-curvature="0" />
        </g>
        <g
           id="g3113"
           transform="translate(32.598404,370.9183)">
          <path
             d="m 0,0 0,-22.513 c 0.006,-0.622 0.22,-6.133 5.958,-6.133 l 3.398,0 0,30.981 C 5.391,1.961 2.129,0.888 0,0"
             style="fill:#811c76;fill-opacity:1;fill-rule:nonzero;stroke:none"
             id="path3115"
             inkscape:connector-curvature="0" />
        </g>
        <g
           id="g3117"
           transform="translate(60.095505,381.6107)">
          <path
             d="m 0,0 c 4.468,-2.539 9.501,-3.826 14.958,-3.826 l 10e-4,0 c 7.186,10e-4 13.215,2.241 15.666,3.301 l 0,7.199 C 27.575,5.45 21.802,3.583 14.959,3.583 l -10e-4,0 c -5.889,0 -11.33,1.395 -16.174,4.147 -4.469,2.538 -9.23,3.826 -14.152,3.826 -5.3,0 -9.634,-1.496 -12.129,-2.609 l 0,-7.187 c 2.799,1.134 7.04,2.386 12.129,2.386 C -10.015,4.146 -4.844,2.751 0,0"
             style="fill:#6ba62e;fill-opacity:1;fill-rule:nonzero;stroke:none"
             id="path3119"
             inkscape:connector-curvature="0" />
        </g>
        <g
           id="g3121"
           transform="translate(60.095505,371.7061)">
          <path
             d="m 0,0 c 4.468,-2.538 9.501,-3.825 14.959,-3.825 7.182,0 13.212,2.239 15.666,3.3 l 0,7.232 C 27.575,5.484 21.802,3.617 14.959,3.616 l -10e-4,0 c -5.889,0 -11.33,1.396 -16.174,4.148 -4.469,2.538 -9.23,3.825 -14.152,3.825 -5.3,0 -9.634,-1.496 -12.129,-2.609 l 0,-7.22 c 2.799,1.134 7.041,2.387 12.129,2.387 C -10.015,4.147 -4.844,2.751 0,0"
             style="fill:#5c9bc1;fill-opacity:1;fill-rule:nonzero;stroke:none"
             id="path3123"
             inkscape:connector-curvature="0" />
        </g>
      </g>
      <g
         transform="translate(100.01939,396.9445)"
         id="g3125">
        <path
           inkscape:connector-curvature="0"
           id="path3127"
           style="fill:#211d1d;fill-opacity:1;fill-rule:nonzero;stroke:none"
           d="m 0,0 6.617,0 0,-0.974 -2.574,-0.18 0,-8.844 -1.484,0 0,8.829 L 0,-0.959 0,0 Z" />
      </g>
      <g
         transform="translate(107.28551,396.9144)"
         id="g3129">
        <path
           inkscape:connector-curvature="0"
           id="path3131"
           style="fill:#211d1d;fill-opacity:1;fill-rule:nonzero;stroke:none"
           d="m 0,0 1.358,0.165 0,-3.702 c 0.237,0.179 0.331,0.239 0.489,0.329 0.442,0.24 1.058,0.39 1.611,0.39 0.694,0 1.327,-0.225 1.753,-0.6 0.394,-0.359 0.536,-0.794 0.536,-1.663 l 0,-4.887 -1.341,0 0,4.587 c 0,0.285 -0.016,0.479 -0.064,0.644 -0.126,0.525 -0.616,0.855 -1.31,0.855 -0.411,0 -0.869,-0.12 -1.232,-0.33 -0.143,-0.075 -0.221,-0.135 -0.442,-0.3 l 0,-5.456 L 0,-9.968 0,0 Z" />
      </g>
      <g
         transform="translate(118.82989,390.8886)"
         id="g3133">
        <path
           inkscape:connector-curvature="0"
           id="path3135"
           style="fill:#211d1d;fill-opacity:1;fill-rule:nonzero;stroke:none"
           d="M 0,0 C 0,1.439 -0.552,2.188 -1.626,2.188 -2.684,2.188 -3.3,1.409 -3.332,0 L 0,0 Z m -3.221,-0.884 c 0.127,-1.424 0.963,-2.189 2.353,-2.189 0.505,0 0.995,0.09 1.69,0.345 L 1.09,-3.703 c -0.789,-0.269 -1.532,-0.389 -2.274,-0.389 -2.242,0 -3.554,1.364 -3.554,3.732 0,2.204 1.185,3.538 3.128,3.538 1.894,0 2.953,-1.259 2.953,-3.478 0,-0.135 0,-0.33 -0.016,-0.584 l -4.548,0 z" />
      </g>
      <g
         transform="translate(125.2121,386.5865)"
         id="g3137">
        <path
           inkscape:connector-curvature="0"
           id="path3139"
           style="fill:#211d1d;fill-opacity:1;fill-rule:nonzero;stroke:none"
           d="m 0,0 c 0.078,0.33 0.11,0.63 0.11,1.529 l 0,8.829 1.5,0 0,-8.694 C 1.61,0.405 1.579,0.15 1.341,-0.315 1.105,-0.795 0.758,-1.199 0.142,-1.664 l -0.774,0.51 C -0.268,-0.75 -0.111,-0.45 0,0" />
      </g>
      <g
         transform="translate(131.29179,390.4689)"
         id="g3141">
        <path
           inkscape:connector-curvature="0"
           id="path3143"
           style="fill:#211d1d;fill-opacity:1;fill-rule:nonzero;stroke:none"
           d="m 0,0 c -1.105,0 -1.847,-0.57 -1.847,-1.424 0,-0.735 0.584,-1.244 1.452,-1.244 0.553,0 1.011,0.18 1.58,0.614 l 0,1.949 C 0.711,-0.03 0.363,0 0,0 m 1.185,1.334 c 0,0.225 0,0.36 -0.032,0.48 -0.111,0.494 -0.6,0.764 -1.405,0.764 -0.585,0 -1.201,-0.135 -2.022,-0.419 l -0.347,1.019 c 0.394,0.105 0.536,0.135 0.774,0.195 0.663,0.15 1.279,0.225 1.894,0.225 0.885,0 1.485,-0.165 1.943,-0.525 0.427,-0.345 0.553,-0.69 0.553,-1.574 l 0,-5.022 -1.28,0 -0.047,0.645 c -0.758,-0.585 -1.374,-0.81 -2.132,-0.81 -1.437,0 -2.4,0.885 -2.4,2.189 0,1.439 1.106,2.368 2.795,2.368 0.474,0 1.105,-0.09 1.706,-0.224 l 0,0.689 z" />
      </g>
      <g
         transform="translate(135.35139,393.88651)"
         id="g3145">
        <path
           inkscape:connector-curvature="0"
           id="path3147"
           style="fill:#211d1d;fill-opacity:1;fill-rule:nonzero;stroke:none"
           d="m 0,0 1.357,0.165 0,-0.57 c 0.238,0.15 0.332,0.195 0.459,0.255 0.458,0.225 0.978,0.36 1.453,0.36 0.6,0 1.169,-0.195 1.563,-0.525 0.111,-0.09 0.174,-0.165 0.301,-0.345 0.757,0.57 1.468,0.84 2.241,0.84 0.664,0 1.248,-0.225 1.643,-0.6 0.426,-0.419 0.552,-0.809 0.552,-1.739 l 0,-4.781 -1.357,0 0,4.497 c 0,0.284 -0.016,0.509 -0.048,0.659 -0.095,0.525 -0.616,0.9 -1.232,0.9 -0.521,0 -0.947,-0.18 -1.484,-0.6 l 0,-5.456 -1.342,0 0,4.467 c 0,0.389 0,0.554 -0.032,0.674 -0.079,0.555 -0.6,0.93 -1.295,0.93 -0.473,0 -0.852,-0.135 -1.422,-0.54 l 0,-5.531 L 0,-6.94 0,0 Z" />
      </g>
      <g
         transform="translate(150.8606,390.8886)"
         id="g3149">
        <path
           inkscape:connector-curvature="0"
           id="path3151"
           style="fill:#211d1d;fill-opacity:1;fill-rule:nonzero;stroke:none"
           d="M 0,0 C 0,1.439 -0.553,2.188 -1.627,2.188 -2.685,2.188 -3.3,1.409 -3.332,0 L 0,0 Z m -3.222,-0.884 c 0.127,-1.424 0.963,-2.189 2.353,-2.189 0.506,0 0.995,0.09 1.69,0.345 L 1.089,-3.703 C 0.3,-3.972 -0.442,-4.092 -1.185,-4.092 c -2.242,0 -3.553,1.364 -3.553,3.732 0,2.204 1.185,3.538 3.127,3.538 1.895,0 2.953,-1.259 2.953,-3.478 0,-0.135 0,-0.33 -0.016,-0.584 l -4.548,0 z" />
      </g>
      <g
         transform="translate(153.2464,388.2803)"
         id="g3153">
        <path
           inkscape:connector-curvature="0"
           id="path3155"
           style="fill:#211d1d;fill-opacity:1;fill-rule:nonzero;stroke:none"
           d="m 0,0 c 0.757,-0.3 1.358,-0.45 1.926,-0.45 0.916,0 1.516,0.36 1.516,0.9 0,0.434 -0.284,0.659 -1.785,1.334 -0.82,0.39 -1.089,0.539 -1.405,0.824 -0.362,0.33 -0.568,0.795 -0.568,1.274 0,1.155 1.089,1.934 2.732,1.934 0.71,0 1.453,-0.15 2.337,-0.465 L 4.39,4.347 C 3.569,4.632 2.953,4.767 2.4,4.767 1.579,4.767 1.058,4.452 1.058,3.942 1.058,3.793 1.105,3.658 1.184,3.538 1.342,3.328 1.484,3.223 2.116,2.923 L 2.684,2.653 3.41,2.294 C 4.516,1.769 4.895,1.319 4.895,0.525 c 0,-1.259 -1.089,-2.054 -2.811,-2.054 -0.773,0 -1.516,0.135 -2.463,0.465 L 0,0 Z" />
      </g>
      <g
         transform="translate(100.0293,381.0294)"
         id="g3157">
        <path
           inkscape:connector-curvature="0"
           id="path3159"
           style="fill:#211d1d;fill-opacity:1;fill-rule:nonzero;stroke:none"
           d="m 0,0 3.158,0 0,-6.535 4.335,0 0,6.535 3.158,0 0,-15.908 -3.158,0 0,7.155 -4.335,0 0,-7.155 -3.158,0 L 0,0 Z" />
      </g>
      <g
         transform="translate(115.65871,376.6886)"
         id="g3161">
        <path
           inkscape:connector-curvature="0"
           id="path3163"
           style="fill:#211d1d;fill-opacity:1;fill-rule:nonzero;stroke:none"
           d="m 0,0 0,-7.656 c 0,-1.312 0.461,-1.836 1.636,-1.836 0.6,0 1.177,0.191 1.799,0.644 l 0,8.562 2.767,0 0,-11.281 -2.744,0 -0.023,0.668 c -1.037,-0.668 -1.891,-0.93 -2.928,-0.93 -2.167,0 -3.274,1.144 -3.274,3.386 l 0,8.133 L 0,0 Z" />
      </g>
      <g
         transform="translate(123.4041,376.4025)"
         id="g3165">
        <path
           inkscape:connector-curvature="0"
           id="path3167"
           style="fill:#211d1d;fill-opacity:1;fill-rule:nonzero;stroke:none"
           d="m 0,0 1.221,0 0,1.741 2.767,0.382 0,-2.123 1.914,0 0,-1.837 -1.914,-0.214 0,-6.01 c 0,-0.334 0.023,-0.573 0.023,-0.692 0.069,-0.477 0.415,-0.739 0.945,-0.739 0.278,0 0.554,0.071 0.969,0.214 l 0,-1.955 c -0.485,-0.191 -1.269,-0.31 -1.914,-0.31 -1.983,0 -2.79,0.763 -2.79,2.623 l 0,6.869 L 0,-1.837 0,0 Z" />
      </g>
      <g
         transform="translate(130.48019,376.4025)"
         id="g3169">
        <path
           inkscape:connector-curvature="0"
           id="path3171"
           style="fill:#211d1d;fill-opacity:1;fill-rule:nonzero;stroke:none"
           d="m 0,0 1.222,0 0,1.741 2.767,0.382 0,-2.123 1.913,0 0,-1.837 -1.913,-0.214 0,-6.01 c 0,-0.334 0.022,-0.573 0.022,-0.692 0.07,-0.477 0.415,-0.739 0.946,-0.739 0.277,0 0.553,0.071 0.968,0.214 l 0,-1.955 c -0.484,-0.191 -1.268,-0.31 -1.914,-0.31 -1.982,0 -2.789,0.763 -2.789,2.623 l 0,6.869 L 0,-1.837 0,0 Z" />
      </g>
      <g
         transform="translate(142.58299,366.8625)"
         id="g3173">
        <path
           inkscape:connector-curvature="0"
           id="path3175"
           style="fill:#211d1d;fill-opacity:1;fill-rule:nonzero;stroke:none"
           d="M 0,0 C 1.314,0 1.983,1.264 1.983,3.888 1.983,6.511 1.314,7.799 0,7.799 -1.314,7.799 -1.983,6.511 -1.983,3.935 -1.983,1.264 -1.337,0 0,0 m 0,9.826 c 3.274,0 4.865,-1.932 4.865,-5.938 0,-4.007 -1.591,-5.939 -4.865,-5.939 -3.274,0 -4.865,1.932 -4.865,5.867 0,4.078 1.545,6.01 4.865,6.01" />
      </g>
      <g
         transform="translate(149.1528,376.37869)"
         id="g3177">
        <path
           inkscape:connector-curvature="0"
           id="path3179"
           style="fill:#211d1d;fill-opacity:1;fill-rule:nonzero;stroke:none"
           d="m 0,0 2.743,0.286 0,-0.906 C 3.735,0 4.749,0.334 5.694,0.334 c 0.968,0 1.891,-0.334 2.467,-0.93 0.6,-0.597 0.807,-1.336 0.807,-2.815 l 0,-7.846 -2.766,0 0,7.131 c 0,0.334 -0.024,0.668 -0.047,0.883 -0.115,0.739 -0.737,1.216 -1.568,1.216 -0.552,0 -1.175,-0.239 -1.844,-0.692 l 0,-8.538 -2.743,0 L 0,0 Z" />
      </g>
      <path
         inkscape:connector-curvature="0"
         id="path3181"
         style="fill:#211d1d;fill-opacity:1;fill-rule:nonzero;stroke:none"
         d="m 100.019,359.279 2.546,0 0,-13.486 -2.546,0 0,13.486 z" />
      <g
         transform="translate(104.3248,355.3365)"
         id="g3183">
        <path
           inkscape:connector-curvature="0"
           id="path3185"
           style="fill:#211d1d;fill-opacity:1;fill-rule:nonzero;stroke:none"
           d="m 0,0 2.228,0.243 0,-0.769 C 3.033,0 3.857,0.283 4.624,0.283 5.41,0.283 6.159,0 6.628,-0.506 7.114,-1.011 7.283,-1.638 7.283,-2.891 l 0,-6.652 -2.247,0 0,6.045 c 0,0.283 -0.019,0.566 -0.038,0.748 -0.093,0.627 -0.599,1.031 -1.272,1.031 -0.45,0 -0.955,-0.201 -1.498,-0.586 l 0,-7.238 L 0,-9.543 0,0 Z" />
      </g>
      <g
         transform="translate(113.291,347.99741)"
         id="g3187">
        <path
           inkscape:connector-curvature="0"
           id="path3189"
           style="fill:#211d1d;fill-opacity:1;fill-rule:nonzero;stroke:none"
           d="m 0,0 c 0.281,-0.121 0.412,-0.182 0.6,-0.243 0.561,-0.161 1.16,-0.263 1.61,-0.263 1.01,0 1.628,0.364 1.628,0.931 0,0.303 -0.15,0.525 -0.506,0.747 C 2.996,1.395 2.808,1.496 1.928,1.86 1.068,2.244 0.656,2.507 0.281,2.891 -0.168,3.356 -0.43,4.023 -0.43,4.751 c 0,1.759 1.385,2.891 3.576,2.891 0.898,0 1.797,-0.181 2.92,-0.565 L 5.58,5.257 C 4.625,5.621 3.782,5.803 3.146,5.803 2.303,5.803 1.798,5.479 1.798,4.933 1.798,4.772 1.854,4.609 1.928,4.509 2.116,4.266 2.21,4.185 2.921,3.841 L 3.538,3.538 4.362,3.154 C 5.71,2.507 6.216,1.799 6.216,0.607 c 0,-1.921 -1.385,-3.094 -3.651,-3.094 -0.749,0 -1.647,0.142 -2.415,0.364 -0.187,0.061 -0.318,0.101 -0.655,0.223 L 0,0 Z" />
      </g>
      <g
         transform="translate(120.4422,355.35699)"
         id="g3191">
        <path
           inkscape:connector-curvature="0"
           id="path3193"
           style="fill:#211d1d;fill-opacity:1;fill-rule:nonzero;stroke:none"
           d="m 0,0 0.992,0 0,1.476 2.247,0.323 0,-1.799 1.554,0 0,-1.557 -1.554,-0.182 0,-5.095 c 0,-0.283 0.018,-0.485 0.018,-0.586 0.057,-0.405 0.338,-0.627 0.768,-0.627 0.225,0 0.449,0.061 0.786,0.182 l 0,-1.658 C 4.418,-9.685 3.782,-9.786 3.257,-9.786 c -1.61,0 -2.265,0.647 -2.265,2.224 l 0,5.823 L 0,-1.557 0,0 Z" />
      </g>
      <g
         transform="translate(126.6947,355.3365)"
         id="g3195">
        <path
           inkscape:connector-curvature="0"
           id="path3197"
           style="fill:#211d1d;fill-opacity:1;fill-rule:nonzero;stroke:none"
           d="m 0,0 2.228,0.243 0,-9.786 L 0,-9.543 0,0 Z m 1.105,4.044 c 0.692,0 1.254,-0.546 1.254,-1.213 0,-0.688 -0.562,-1.234 -1.254,-1.234 -0.675,0 -1.236,0.546 -1.236,1.214 0,0.687 0.543,1.233 1.236,1.233" />
      </g>
      <g
         transform="translate(130.3632,355.35699)"
         id="g3199">
        <path
           inkscape:connector-curvature="0"
           id="path3201"
           style="fill:#211d1d;fill-opacity:1;fill-rule:nonzero;stroke:none"
           d="m 0,0 0.992,0 0,1.476 2.247,0.323 0,-1.799 1.553,0 0,-1.557 -1.553,-0.182 0,-5.095 c 0,-0.283 0.019,-0.485 0.019,-0.586 0.056,-0.405 0.336,-0.627 0.767,-0.627 0.225,0 0.449,0.061 0.786,0.182 l 0,-1.658 C 4.418,-9.685 3.782,-9.786 3.258,-9.786 c -1.61,0 -2.266,0.647 -2.266,2.224 l 0,5.823 L 0,-1.557 0,0 Z" />
      </g>
      <g
         transform="translate(138.6749,355.5995)"
         id="g3203">
        <path
           inkscape:connector-curvature="0"
           id="path3205"
           style="fill:#211d1d;fill-opacity:1;fill-rule:nonzero;stroke:none"
           d="m 0,0 0,-6.49 c 0,-1.112 0.375,-1.557 1.33,-1.557 0.486,0 0.954,0.162 1.46,0.546 l 0,7.259 2.247,0 0,-9.564 -2.229,0 -0.018,0.566 c -0.842,-0.566 -1.536,-0.789 -2.378,-0.789 -1.76,0 -2.658,0.971 -2.658,2.872 l 0,6.894 L 0,0 Z" />
      </g>
      <g
         transform="translate(144.96429,355.35699)"
         id="g3207">
        <path
           inkscape:connector-curvature="0"
           id="path3209"
           style="fill:#211d1d;fill-opacity:1;fill-rule:nonzero;stroke:none"
           d="m 0,0 0.992,0 0,1.476 2.247,0.323 0,-1.799 1.553,0 0,-1.557 -1.553,-0.182 0,-5.095 c 0,-0.283 0.019,-0.485 0.019,-0.586 0.056,-0.405 0.336,-0.627 0.767,-0.627 0.225,0 0.449,0.061 0.786,0.182 l 0,-1.658 C 4.418,-9.685 3.782,-9.786 3.258,-9.786 c -1.61,0 -2.266,0.647 -2.266,2.224 l 0,5.823 L 0,-1.557 0,0 Z" />
      </g>
      <g
         transform="translate(156.06509,351.29289)"
         id="g3211">
        <path
           inkscape:connector-curvature="0"
           id="path3213"
           style="fill:#211d1d;fill-opacity:1;fill-rule:nonzero;stroke:none"
           d="M 0,0 0,0.081 C 0,1.678 -0.542,2.568 -1.554,2.568 -2.565,2.568 -3.145,1.638 -3.164,0 L 0,0 Z m -2.939,-1.516 c 0.168,-1.537 1.049,-2.366 2.527,-2.366 0.562,0 1.068,0.101 1.892,0.405 L 1.854,-5.196 C 0.88,-5.56 0.038,-5.701 -0.936,-5.701 c -2.864,0 -4.474,1.859 -4.474,5.135 0,3.053 1.441,4.873 3.894,4.873 2.359,0 3.632,-1.719 3.632,-4.873 0,-0.243 0,-0.485 -0.038,-0.95 l -5.017,0 z" />
      </g>
      <text
         id="text3215"
         transform="matrix(1,0,0,-1,513.5669,275.1613)">
        <tspan
           id="tspan3217"
           y="0"
           x="0"
           style="font-variant:normal;font-weight:normal;font-stretch:normal;font-size:60px;font-family:Webdings;-inkscape-font-specification:Webdings;writing-mode:lr-tb;fill:#6ea31b;fill-opacity:1;fill-rule:nonzero;stroke:none"></tspan>
        <tspan
           id="tspan3219"
           y="52.98"
           x="0"
           style="font-variant:normal;font-weight:normal;font-stretch:normal;font-size:60px;font-family:Webdings;-inkscape-font-specification:Webdings;writing-mode:lr-tb;fill:#6ea31b;fill-opacity:1;fill-rule:nonzero;stroke:none"></tspan>
        <tspan
           id="tspan3221"
           y="99"
           x="0"
           style="font-variant:normal;font-weight:normal;font-stretch:normal;font-size:60px;font-family:Webdings;-inkscape-font-specification:Webdings;writing-mode:lr-tb;fill:#6ea31b;fill-opacity:1;fill-rule:nonzero;stroke:none"></tspan>
        <tspan
           id="tspan3223"
           y="178.98"
           x="0"
           style="font-variant:normal;font-weight:normal;font-stretch:normal;font-size:60px;font-family:Webdings;-inkscape-font-specification:Webdings;writing-mode:lr-tb;fill:#6ea31b;fill-opacity:1;fill-rule:nonzero;stroke:none"></tspan>
      </text>
    </g>
  </g>
</svg>
