<?xml version="1.0" encoding="UTF-8" standalone="no"?>
<!-- Created with Inkscape (http://www.inkscape.org/) -->

<svg
   version="1.1"
   id="svg2"
   width="762.45331"
   height="343.07999"
   viewBox="0 0 762.45331 343.07999"
   sodipodi:docname="Hutton_logo_Horiz.eps"
   xmlns:inkscape="http://www.inkscape.org/namespaces/inkscape"
   xmlns:sodipodi="http://sodipodi.sourceforge.net/DTD/sodipodi-0.dtd"
   xmlns="http://www.w3.org/2000/svg"
   xmlns:svg="http://www.w3.org/2000/svg">
  <defs
     id="defs6" />
  <sodipodi:namedview
     id="namedview4"
     pagecolor="#ffffff"
     bordercolor="#000000"
     borderopacity="0.25"
     inkscape:showpageshadow="2"
     inkscape:pageopacity="0.0"
     inkscape:pagecheckerboard="0"
     inkscape:deskcolor="#d1d1d1" />
  <g
     id="g8"
     inkscape:groupmode="layer"
     inkscape:label="ink_ext_XXXXXX"
     transform="matrix(1.3333333,0,0,-1.3333333,0,343.08)">
    <g
       id="g10"
       transform="scale(0.1)">
      <path
         d="m 1217.35,2178.55 c 197.82,-112.37 420.61,-169.36 662.21,-169.36 h 0.05 c 318.03,0 584.96,99.19 693.57,146.13 v 146.29 c -0.33,27.49 -9.81,271.47 -263.77,271.47 H 263.766 C 237.07,2572.9 0,2562.97 0,2301.61 v -45.21 c 123.934,50.2 311.547,105.69 536.996,105.69 236.981,0 465.924,-61.72 680.354,-183.54"
         style="fill:#74a82b;fill-opacity:1;fill-rule:nonzero;stroke:none"
         id="path12" />
      <path
         d="M 2165.07,1048.37 V 0 h 144.08 c 27.42,0.269531 264.02,10.4297 264.02,271.48 v 890.03 c -89.9,-36.05 -233.06,-84.6 -408.1,-113.14"
         style="fill:#74a82b;fill-opacity:1;fill-rule:nonzero;stroke:none"
         id="path14" />
      <path
         d="m 1879.66,1024.71 h -0.07 c -87.4,0 -172.53,7.07 -255.19,20.94 V 0.0117188 h 411.9 V 1031.96 c -50.45,-4.66 -102.76,-7.25 -156.64,-7.25"
         style="fill:#74a82b;fill-opacity:1;fill-rule:nonzero;stroke:none"
         id="path16" />
      <path
         d="m 1163.51,1208.29 c -26.39,14.98 -53.04,28.91 -79.82,41.95 V 0.0195313 h 411.93 V 1073.17 c -116.47,30.6 -227.47,75.66 -332.11,135.12"
         style="fill:#74a82b;fill-opacity:1;fill-rule:nonzero;stroke:none"
         id="path18" />
      <path
         d="M 542.961,1377.55 V 0 h 411.984 v 1304.41 c -133.3,47.85 -271.14,72.5 -411.984,73.14"
         style="fill:#821a74;fill-opacity:1;fill-rule:nonzero;stroke:none"
         id="path20" />
      <path
         d="M 0.0351563,1268.2 V 271.5 C 0.304688,244.02 9.76953,0.0195313 263.785,0.0195313 h 150.43 V 1371.55 C 238.707,1355.02 94.3008,1307.56 0.0351563,1268.2"
         style="fill:#821a74;fill-opacity:1;fill-rule:nonzero;stroke:none"
         id="path22" />
      <path
         d="m 1217.35,1741.55 c 197.82,-112.36 420.61,-169.35 662.21,-169.35 h 0.05 c 318.1,0 585.03,99.19 693.57,146.13 v 318.69 c -135.07,-54.13 -390.65,-136.81 -693.57,-136.81 h -0.05 c -260.74,0 -501.59,61.72 -716.01,183.55 -197.835,112.38 -408.679,169.37 -626.554,169.37 -234.641,0 -426.484,-66.2 -536.996,-115.48 v -318.17 c 123.934,50.18 311.691,105.63 536.996,105.63 236.981,0 465.924,-61.73 680.354,-183.56"
         style="fill:#74a82b;fill-opacity:1;fill-rule:nonzero;stroke:none"
         id="path24" />
      <path
         d="m 1217.35,1303.07 c 197.82,-112.37 420.61,-169.36 662.26,-169.36 317.89,0 584.84,99.14 693.57,146.15 v 320.17 c -135.07,-54.21 -390.65,-136.82 -693.57,-136.87 h -0.05 c -260.74,0 -501.59,61.78 -716.01,183.6 -197.835,112.38 -408.679,169.38 -626.554,169.38 -234.641,0 -426.484,-66.2 -536.996,-115.55 v -319.57 c 123.984,50.17 311.746,105.62 536.996,105.62 236.981,0 465.924,-61.74 680.354,-183.57"
         style="fill:#67a0c0;fill-opacity:1;fill-rule:nonzero;stroke:none"
         id="path26" />
      <path
         d="m 3208.41,132.68 h -186.03 v 39.199 l 59.18,13.851 v 442.809 l -59.18,13.852 v 39.199 h 186.03 v -39.199 l -59.19,-13.852 V 185.73 l 59.19,-13.851 V 132.68"
         style="fill:#050606;fill-opacity:1;fill-rule:nonzero;stroke:none"
         id="path28" />
      <path
         d="m 3478.24,552.441 c 43.57,0 76.37,-11.82 98.4,-35.39 22.04,-23.582 33.07,-60.981 33.07,-112.219 V 132.68 h -65.34 v 265.23 c 0,32.789 -6.3,57.399 -18.85,73.809 -12.56,16.39 -32.15,24.59 -58.81,24.59 -38.95,0 -65.99,-12.45 -81.08,-37.27 -15.13,-24.879 -22.69,-62.41 -22.69,-112.66 V 132.68 h -65.35 v 412.058 h 52.28 l 9.22,-56.129 h 3.85 c 11.77,21.012 28.05,36.922 48.83,47.672 20.74,10.758 42.9,16.16 66.47,16.16"
         style="fill:#050606;fill-opacity:1;fill-rule:nonzero;stroke:none"
         id="path30" />
      <path
         d="m 3964.88,245.691 c 0,-39.472 -13.2,-69.461 -39.6,-89.949 -26.4,-20.492 -62.13,-30.754 -107.23,-30.754 -25.64,0 -47.8,2.203 -66.49,6.532 -18.71,4.359 -35.26,10.652 -49.6,18.839 v 62.282 c 14.34,-8.211 31.89,-15.649 52.66,-22.289 20.76,-6.692 41.89,-10 63.43,-10 28.69,0 49.7,5.378 63.03,16.128 13.32,10.758 19.99,25.391 19.99,43.829 0,15.882 -6.04,29.32 -18.08,40.371 -12.03,11.011 -34.97,23.961 -68.79,38.82 -23.07,10.762 -43.07,21.391 -59.98,31.891 -16.91,10.507 -29.97,23.05 -39.18,37.668 -9.23,14.613 -13.85,32.933 -13.85,54.98 0,34.313 12.95,60.992 38.84,79.953 25.87,18.938 59.81,28.457 101.84,28.457 22.03,0 42.79,-2.32 62.28,-6.949 19.46,-4.621 37.9,-11.281 55.35,-19.98 l -23.06,-52.278 c -14.86,7.18 -30.49,13.078 -46.88,17.68 -16.45,4.629 -33.36,6.93 -50.77,6.93 -24.11,0 -42.53,-4.622 -55.34,-13.832 -12.81,-9.231 -19.23,-21.559 -19.23,-36.899 0,-11.801 2.81,-21.539 8.46,-29.223 5.65,-7.679 15.13,-15.378 28.44,-23.058 13.33,-7.699 31.52,-16.41 54.6,-26.141 34.32,-14.879 61.11,-31.027 80.32,-48.449 19.23,-17.41 28.84,-42.27 28.84,-74.559"
         style="fill:#050606;fill-opacity:1;fill-rule:nonzero;stroke:none"
         id="path32" />
      <path
         d="m 4180.13,180.34 c 8.7,0 17.68,0.781 26.89,2.301 9.25,1.55 17.18,3.597 23.84,6.168 v -51.52 c -7.68,-3.598 -17.56,-6.527 -29.6,-8.848 -12.05,-2.281 -23.94,-3.453 -35.74,-3.453 -30.24,0 -55.36,8.973 -75.36,26.91 -19.97,17.954 -29.97,49.454 -29.97,94.551 v 246.02 h -51.49 v 33.043 l 53.04,23.078 23.06,90.711 h 40.75 v -94.563 h 100.68 V 492.469 H 4125.55 V 249.531 c 0,-23.062 4.73,-40.351 14.23,-51.902 9.44,-11.508 22.91,-17.289 40.35,-17.289"
         style="fill:#050606;fill-opacity:1;fill-rule:nonzero;stroke:none"
         id="path34" />
      <path
         d="m 4339.26,700.039 c 10.78,0 19.73,-3.578 26.89,-10.758 7.2,-7.199 10.78,-18.211 10.78,-33.07 0,-14.352 -3.58,-25.109 -10.78,-32.289 -7.16,-7.184 -16.11,-10.762 -26.89,-10.762 -11.28,0 -20.63,3.578 -28.08,10.762 -7.43,7.18 -11.14,17.937 -11.14,32.289 0,14.859 3.71,25.871 11.14,33.07 7.45,7.18 16.8,10.758 28.08,10.758 m 31.52,-567.348 h -65.34 V 544.75 h 65.34 V 132.691"
         style="fill:#050606;fill-opacity:1;fill-rule:nonzero;stroke:none"
         id="path36" />
      <path
         d="m 4614.48,180.34 c 8.69,0 17.67,0.781 26.9,2.301 9.23,1.55 17.16,3.597 23.83,6.168 v -51.52 c -7.66,-3.598 -17.55,-6.527 -29.59,-8.848 -12.05,-2.281 -23.98,-3.453 -35.75,-3.453 -30.25,0 -55.37,8.973 -75.35,26.91 -19.97,17.954 -29.98,49.454 -29.98,94.551 v 246.02 h -51.5 v 33.043 l 53.05,23.078 23.05,90.711 h 40.76 v -94.563 h 100.69 V 492.469 H 4559.9 V 249.531 c 0,-23.062 4.73,-40.351 14.21,-51.902 9.48,-11.508 22.92,-17.289 40.37,-17.289"
         style="fill:#050606;fill-opacity:1;fill-rule:nonzero;stroke:none"
         id="path38" />
      <path
         d="M 5049.58,544.738 V 132.68 h -53.04 l -9.23,54.59 h -3.83 c -11.8,-21.032 -27.95,-36.668 -48.44,-46.899 -20.51,-10.262 -42.8,-15.391 -66.89,-15.391 -45.08,0 -78.4,12.559 -99.93,37.692 -21.52,25.098 -32.31,62.769 -32.31,113 v 269.066 h 66.14 V 282.59 c 0,-67.641 25.62,-101.481 76.87,-101.481 39.46,0 66.87,12.43 82.25,37.282 15.37,24.859 23.09,61.609 23.09,110.328 v 216.019 h 65.32"
         style="fill:#050606;fill-opacity:1;fill-rule:nonzero;stroke:none"
         id="path40" />
      <path
         d="m 5293.28,180.34 c 8.71,0 17.69,0.781 26.92,2.301 9.21,1.55 17.16,3.597 23.83,6.168 v -51.52 c -7.68,-3.598 -17.56,-6.527 -29.61,-8.848 -12.03,-2.281 -23.94,-3.453 -35.75,-3.453 -30.24,0 -55.35,8.973 -75.34,26.91 -19.97,17.954 -29.99,49.454 -29.99,94.551 v 246.02 h -51.5 v 33.043 l 53.05,23.078 23.06,90.711 h 40.77 v -94.563 h 100.67 V 492.469 H 5238.72 V 249.531 c 0,-23.062 4.71,-40.351 14.19,-51.902 9.48,-11.508 22.94,-17.289 40.37,-17.289"
         style="fill:#050606;fill-opacity:1;fill-rule:nonzero;stroke:none"
         id="path42" />
      <path
         d="m 5561.59,552.441 c 32.77,0 60.57,-7.832 83.41,-23.461 22.78,-15.648 40.21,-37.421 52.28,-65.359 12.02,-27.93 18.05,-59.832 18.05,-95.68 V 326.41 h -250.62 c 1.01,-48.168 11.41,-84.461 31.14,-108.801 19.72,-24.32 48.29,-36.5 85.7,-36.5 22.06,0 42.17,2.301 60.36,6.93 18.19,4.602 36.77,11.781 55.73,21.512 V 151.91 c -18.96,-9.238 -37.79,-16.031 -56.5,-20.379 -18.71,-4.351 -40.12,-6.531 -64.19,-6.531 -56.38,0 -100.33,18.711 -131.85,56.109 -31.52,37.403 -47.29,88.911 -47.29,154.52 0,68.68 14.62,121.98 43.84,159.91 29.21,37.922 69.19,56.902 119.94,56.902 m -0.78,-53.812 c -28.19,0 -50.35,-10.289 -66.49,-30.777 -16.17,-20.512 -25.76,-50.211 -28.85,-89.161 h 182.97 c 0,34.329 -7.03,62.899 -21.16,85.707 -14.06,22.813 -36.23,34.231 -66.47,34.231"
         style="fill:#050606;fill-opacity:1;fill-rule:nonzero;stroke:none"
         id="path44" />
      <path
         d="m 3177.18,1979.18 h -55.84 v 403.56 h -121.81 v 49.49 h 298.84 v -49.49 h -121.19 v -403.56"
         style="fill:#050606;fill-opacity:1;fill-rule:nonzero;stroke:none"
         id="path46" />
      <path
         d="m 3408.78,2461.42 v -139.6 c 0,-8.46 -0.31,-16.93 -0.96,-25.37 -0.63,-8.49 -1.38,-16.3 -2.21,-23.47 h 3.8 c 9.31,17.32 22.43,30.43 39.36,39.34 16.89,8.89 35.1,13.31 54.56,13.31 36.79,0 64.19,-9.95 82.16,-29.83 17.97,-19.87 26.97,-50.55 26.97,-92 v -224.62 h -53.94 v 218.92 c 0,27.47 -5.18,47.89 -15.54,61.22 -10.38,13.33 -26.55,19.99 -48.55,19.99 -32.13,0 -54.48,-10.47 -66.93,-31.41 -12.48,-20.94 -18.72,-51.72 -18.72,-92.33 v -176.39 h -53.92 v 482.24 h 53.92"
         style="fill:#050606;fill-opacity:1;fill-rule:nonzero;stroke:none"
         id="path48" />
      <path
         d="m 3827.57,2325.63 c 27.05,0 50.01,-6.46 68.83,-19.36 18.83,-12.91 33.21,-30.87 43.17,-53.93 9.91,-23.06 14.9,-49.38 14.9,-78.99 v -34.28 h -206.85 c 0.85,-39.75 9.39,-69.69 25.67,-89.78 16.3,-20.11 39.89,-30.13 70.77,-30.13 18.19,0 34.8,1.9 49.82,5.7 15,3.79 30.35,9.73 46,17.77 v -47.58 c -15.65,-7.63 -31.2,-13.24 -46.65,-16.84 -15.43,-3.58 -33.1,-5.38 -52.98,-5.38 -46.54,0 -82.79,15.46 -108.82,46.33 -26.01,30.87 -39.02,73.38 -39.02,127.52 0,56.69 12.05,100.7 36.18,132 24.1,31.3 57.1,46.95 98.98,46.95 m -0.65,-44.42 c -23.26,0 -41.56,-8.47 -54.89,-25.38 -13.33,-16.91 -21.24,-41.47 -23.78,-73.62 h 151.01 c 0,28.36 -5.81,51.94 -17.44,70.76 -11.65,18.83 -29.93,28.24 -54.9,28.24"
         style="fill:#050606;fill-opacity:1;fill-rule:nonzero;stroke:none"
         id="path50" />
      <path
         d="m 4132.76,1857.98 c -18.19,0 -33.01,2.54 -44.42,7.63 v 48.21 c 5.92,-2.12 12.38,-3.7 19.34,-4.77 6.98,-1.04 14.5,-1.58 22.53,-1.58 15.23,0 28.04,5.29 38.41,15.87 10.34,10.58 15.54,30.26 15.54,59.01 v 449.88 H 4240 v -448.6 c 0,-43.99 -9.63,-75.94 -28.87,-95.84 -19.25,-19.86 -45.36,-29.81 -78.37,-29.81"
         style="fill:#050606;fill-opacity:1;fill-rule:nonzero;stroke:none"
         id="path52" />
      <path
         d="m 4457.63,2325.63 c 38.09,0 65.88,-9.52 83.44,-28.55 17.56,-19.03 26.36,-48.01 26.36,-86.93 v -230.97 h -40 l -9.51,47.6 h -1.93 c -12.68,-18.2 -26.53,-31.73 -41.52,-40.64 -15.04,-8.87 -34.83,-13.31 -59.35,-13.31 -29.19,0 -52.46,8.89 -69.78,26.65 -17.38,17.75 -26.03,42.52 -26.03,74.24 0,33.84 11.96,60.07 35.85,78.69 23.91,18.61 59.96,28.76 108.18,30.45 l 50.78,1.89 v 20.96 c 0,27.49 -5.2,46.95 -15.56,58.38 -10.38,11.4 -25.49,17.12 -45.37,17.12 -14.81,0 -29.18,-2.33 -43.16,-6.98 -13.94,-4.66 -27.7,-10.36 -41.21,-17.14 l -17.17,40.6 c 14.4,8.47 30.68,15.24 48.87,20.33 18.18,5.07 37.23,7.61 57.11,7.61 m 56.49,-179.58 -43.16,-1.9 c -35.11,-1.26 -59.87,-7.83 -74.24,-19.67 -14.39,-11.83 -21.57,-28.78 -21.57,-50.76 0,-19.88 4.96,-34.36 14.9,-43.47 9.93,-9.1 23.17,-13.63 39.64,-13.63 24.56,0 44.78,8.13 60.61,24.43 15.87,16.28 23.82,40.69 23.82,73.29 v 31.71"
         style="fill:#050606;fill-opacity:1;fill-rule:nonzero;stroke:none"
         id="path54" />
      <path
         d="m 5000.16,2325.63 c 34.25,0 59.85,-9.73 76.76,-29.18 16.91,-19.47 25.4,-50.55 25.4,-93.27 v -224 h -53.93 v 218.92 c 0,54.13 -19.9,81.21 -59.66,81.21 -28.35,0 -48.53,-9.63 -60.59,-28.86 -12.05,-19.27 -18.09,-47.08 -18.09,-83.45 v -187.82 h -53.31 v 219.55 c 0,27.49 -4.96,47.8 -14.89,60.91 -9.95,13.1 -25.06,19.67 -45.39,19.67 -30.03,0 -50.55,-10.91 -61.54,-32.67 -11,-21.79 -16.5,-51.94 -16.5,-90.44 v -177.02 h -53.92 v 340.1 h 43.13 l 7.62,-46.31 h 3.17 c 9.3,17.76 21.91,30.98 37.74,39.66 15.87,8.67 33.34,13 52.37,13 47.37,0 77.84,-18.62 91.39,-55.84 h 3.16 c 10.15,19.03 23.68,33.1 40.59,42.2 16.95,9.09 35.75,13.64 56.49,13.64"
         style="fill:#050606;fill-opacity:1;fill-rule:nonzero;stroke:none"
         id="path56" />
      <path
         d="m 5316.79,2325.63 c 27.06,0 50.01,-6.46 68.83,-19.36 18.83,-12.91 33.21,-30.87 43.18,-53.93 9.91,-23.06 14.89,-49.38 14.89,-78.99 v -34.28 h -206.83 c 0.83,-39.75 9.37,-69.69 25.67,-89.78 16.28,-20.11 39.87,-30.13 70.76,-30.13 18.18,0 34.79,1.9 49.81,5.7 15,3.79 30.35,9.73 46,17.77 v -47.58 c -15.65,-7.63 -31.19,-13.24 -46.65,-16.84 -15.43,-3.58 -33.08,-5.38 -52.96,-5.38 -46.54,0 -82.79,15.46 -108.84,46.33 -26.01,30.87 -39.02,73.38 -39.02,127.52 0,56.69 12.06,100.7 36.18,132 24.11,31.3 57.1,46.95 98.98,46.95 m -0.63,-44.42 c -23.28,0 -41.57,-8.47 -54.89,-25.38 -13.34,-16.91 -21.26,-41.47 -23.8,-73.62 h 151.01 c 0,28.36 -5.81,51.94 -17.43,70.76 -11.64,18.83 -29.94,28.24 -54.89,28.24"
         style="fill:#050606;fill-opacity:1;fill-rule:nonzero;stroke:none"
         id="path58" />
      <path
         d="m 5718.43,2072.45 c 0,-32.58 -10.88,-57.33 -32.67,-74.23 -21.8,-16.92 -51.29,-25.38 -88.51,-25.38 -21.17,0 -39.47,1.8 -54.9,5.38 -15.44,3.6 -29.07,8.78 -40.93,15.54 v 51.42 c 11.86,-6.79 26.34,-12.92 43.48,-18.41 17.13,-5.5 34.58,-8.25 52.35,-8.25 23.68,0 41.04,4.44 52.03,13.31 10.99,8.88 16.5,20.96 16.5,36.18 0,13.11 -4.99,24.21 -14.92,33.31 -9.95,9.09 -28.85,19.77 -56.79,32.03 -19.05,8.9 -35.53,17.68 -49.49,26.35 -13.94,8.67 -24.75,19.03 -32.36,31.09 -7.61,12.05 -11.45,27.16 -11.45,45.37 0,28.35 10.71,50.33 32.08,66 21.35,15.62 49.38,23.46 84.07,23.46 18.18,0 35.31,-1.91 51.39,-5.7 16.07,-3.79 31.31,-9.32 45.68,-16.5 l -19.03,-43.15 c -12.25,5.93 -25.15,10.79 -38.7,14.6 -13.55,3.82 -27.51,5.72 -41.88,5.72 -19.9,0 -35.12,-3.83 -45.69,-11.42 -10.58,-7.63 -15.87,-17.78 -15.87,-30.47 0,-9.72 2.34,-17.76 7,-24.11 4.62,-6.35 12.46,-12.7 23.46,-19.04 11.02,-6.34 26.03,-13.54 45.06,-21.57 28.33,-12.28 50.44,-25.59 66.33,-39.97 15.85,-14.39 23.76,-34.9 23.76,-61.56"
         style="fill:#050606;fill-opacity:1;fill-rule:nonzero;stroke:none"
         id="path60" />
      <path
         d="m 3516.1,1051.8 h -151.64 v 240.97 H 3203 V 1051.8 h -152.48 v 585.23 H 3203 v -218.85 h 161.46 v 218.85 H 3516.1 V 1051.8"
         style="fill:#050606;fill-opacity:1;fill-rule:nonzero;stroke:none"
         id="path62" />
      <path
         d="M 4030.83,1505.06 V 1051.8 h -112.29 l -18.03,56.55 h -8.2 c -13.12,-22.42 -30.48,-38.81 -52.05,-49.19 -21.58,-10.36 -45.76,-15.56 -72.53,-15.56 -42.62,0 -77.59,13.64 -104.92,40.98 -27.34,27.31 -40.98,69.12 -40.98,125.41 v 295.07 h 148.36 v -249.18 c 0,-30.04 3.57,-52.73 10.65,-68.02 7.09,-15.29 19.13,-22.95 36.06,-22.95 27.32,0 45.22,11.6 53.71,34.84 8.44,23.21 12.7,55.86 12.7,97.94 v 207.37 h 147.52"
         style="fill:#050606;fill-opacity:1;fill-rule:nonzero;stroke:none"
         id="path64" />
      <path
         d="m 4334.92,1164.09 c 11.48,0 22.67,1.5 33.6,4.52 10.94,2.99 22.67,6.67 35.26,11.05 V 1069 c -16.4,-7.65 -33.48,-13.8 -51.23,-18.44 -17.76,-4.62 -39.49,-6.96 -65.16,-6.96 -44.81,0 -79.39,11.6 -103.69,34.83 -24.33,23.22 -36.47,64.06 -36.47,122.54 v 190.17 h -51.65 v 66.39 l 65.59,43.44 36.88,95.08 h 97.52 v -91 h 101.67 v -113.91 h -101.67 v -182.79 c 0,-29.5 13.12,-44.26 39.35,-44.26"
         style="fill:#050606;fill-opacity:1;fill-rule:nonzero;stroke:none"
         id="path66" />
      <path
         d="m 4679.99,1164.09 c 11.48,0 22.67,1.5 33.61,4.52 10.94,2.99 22.67,6.67 35.24,11.05 V 1069 c -16.39,-7.65 -33.46,-13.8 -51.23,-18.44 -17.76,-4.62 -39.47,-6.96 -65.16,-6.96 -44.82,0 -79.39,11.6 -103.68,34.83 -24.34,23.22 -36.48,64.06 -36.48,122.54 v 190.17 h -51.65 v 66.39 l 65.59,43.44 36.9,95.08 h 97.5 v -91 h 101.66 v -113.91 h -101.66 v -182.79 c 0,-29.5 13.14,-44.26 39.36,-44.26"
         style="fill:#050606;fill-opacity:1;fill-rule:nonzero;stroke:none"
         id="path68" />
      <path
         d="m 5223.41,1279.65 c 0,-45.88 -7.93,-86.59 -23.74,-122.12 -15.87,-35.53 -39.53,-63.4 -70.92,-83.6 -31.45,-20.22 -70.38,-30.33 -116.81,-30.33 -43.17,0 -80.61,9.97 -112.27,29.92 -31.72,19.93 -56.04,47.53 -72.99,82.79 -16.91,35.24 -25.38,76.35 -25.38,123.34 0,71.04 18.15,127.74 54.49,170.09 36.34,42.33 89.19,63.52 158.62,63.52 40.42,0 76.49,-9.01 108.19,-27.06 31.68,-18.02 56.41,-44.39 74.19,-79.08 17.74,-34.72 26.62,-77.19 26.62,-127.47 m -272.11,-0.81 c 0,-39.35 4.77,-69.39 14.32,-90.17 9.57,-20.76 25.54,-31.14 47.96,-31.14 21.86,0 37.29,10.24 46.31,30.73 9.01,20.51 13.54,50.96 13.54,91.39 0,39.9 -4.68,69.81 -13.92,89.76 -9.32,19.94 -24.9,29.9 -46.74,29.9 -40.98,0 -61.47,-40.15 -61.47,-120.47"
         style="fill:#050606;fill-opacity:1;fill-rule:nonzero;stroke:none"
         id="path70" />
      <path
         d="m 5568.47,1513.25 c 44.26,0 79.8,-13.65 106.56,-40.98 26.76,-27.32 40.17,-69.13 40.17,-125.39 V 1051.8 h -148.37 v 249.17 c 0,30.05 -3.54,52.73 -10.65,68.02 -7.1,15.31 -19.95,22.96 -38.51,22.96 -25.71,0 -42.91,-11.21 -51.65,-33.61 -8.76,-22.41 -13.12,-57.37 -13.12,-104.9 V 1051.8 h -147.53 v 453.25 h 113.1 l 18.87,-58.18 h 6.55 c 12.56,21.32 29.22,37.71 50,49.17 20.77,11.49 45.64,17.21 74.58,17.21"
         style="fill:#050606;fill-opacity:1;fill-rule:nonzero;stroke:none"
         id="path72" />
    </g>
  </g>
</svg>
