<?xml version="1.0" encoding="UTF-8" standalone="no"?>
<!-- Generator: Adobe Illustrator 16.0.0, SVG Export Plug-In . SVG Version: 6.00 Build 0)  -->

<svg
   xmlns:dc="http://purl.org/dc/elements/1.1/"
   xmlns:cc="http://creativecommons.org/ns#"
   xmlns:rdf="http://www.w3.org/1999/02/22-rdf-syntax-ns#"
   xmlns:svg="http://www.w3.org/2000/svg"
   xmlns="http://www.w3.org/2000/svg"
   xmlns:sodipodi="http://sodipodi.sourceforge.net/DTD/sodipodi-0.dtd"
   xmlns:inkscape="http://www.inkscape.org/namespaces/inkscape"
   version="1.1"
   id="Layer_1"
   x="0px"
   y="0px"
   width="123.66745"
   height="102"
   viewBox="0 0 123.66744 102"
   enable-background="new 0 0 595.28 841.89"
   xml:space="preserve"
   inkscape:version="0.91 r13725"
   sodipodi:docname="IBH logo.svg"><metadata
     id="metadata3698"><rdf:RDF><cc:Work
         rdf:about=""><dc:format>image/svg+xml</dc:format><dc:type
           rdf:resource="http://purl.org/dc/dcmitype/StillImage" /><dc:title></dc:title></cc:Work></rdf:RDF></metadata><defs
     id="defs3696" /><sodipodi:namedview
     pagecolor="#ffffff"
     bordercolor="#666666"
     borderopacity="1"
     objecttolerance="10"
     gridtolerance="10"
     guidetolerance="10"
     inkscape:pageopacity="0"
     inkscape:pageshadow="2"
     inkscape:window-width="1558"
     inkscape:window-height="846"
     id="namedview3694"
     showgrid="false"
     fit-margin-top="0"
     fit-margin-left="0"
     fit-margin-right="0"
     fit-margin-bottom="0"
     inkscape:zoom="0.78632599"
     inkscape:cx="251.20901"
     inkscape:cy="216.12583"
     inkscape:window-x="42"
     inkscape:window-y="0"
     inkscape:window-maximized="1"
     inkscape:current-layer="Layer_1" /><g
     id="g3700"
     transform="matrix(0.25055402,0,0,0.25055402,-11.633474,-57.62066)"><g
       id="g3538"><path
         id="path3540"
         d="m 367.564,519.293 c -1.198,-2.283 -2.051,-3.55 -2.051,-3.55 0,0 -1.208,1.132 -3.058,3.156 -0.944,0.994 -1.961,2.294 -3.246,3.634 -1.253,1.369 -2.607,2.931 -4.001,4.668 -1.461,1.669 -2.994,3.48 -4.498,5.469 -1.521,1.969 -3.155,3.955 -4.655,6.174 -3.102,4.313 -6.077,9.083 -8.519,14.244 -1.172,2.656 -2.376,5.444 -3.505,8.521 -1.136,3.205 -2.278,6.434 -3.408,9.624 -2.24,6.714 -4.681,13.511 -6.947,19.926 -2.35,6.193 -4.537,11.965 -6.198,16.025 -0.951,2.307 -1.685,4.087 -2.146,5.207 -1.94,1.139 -3.928,2.32 -6.004,3.455 -2.352,1.228 -4.78,2.475 -7.277,3.732 -2.549,1.253 -5.217,2.275 -7.924,3.397 -2.711,1.1 -5.475,2.24 -8.316,3.17 -2.826,0.984 -5.724,1.975 -8.678,2.849 -2.958,0.802 -5.971,1.566 -9.015,2.298 -0.76,0.181 -1.521,0.379 -2.282,0.544 l -2.286,0.456 c -1.532,0.298 -3.062,0.596 -4.589,0.893 -1.539,0.283 -3.076,0.566 -4.61,0.849 -1.539,0.238 -3.081,0.43 -4.625,0.629 -6.19,0.818 -12.375,1.208 -18.412,1.478 -12.082,0.502 -23.618,-0.575 -33.461,-1.835 -2.454,-0.35 -4.817,-0.731 -7.069,-1.114 -2.258,-0.364 -4.359,-0.88 -6.361,-1.28 -1.998,-0.438 -3.867,-0.848 -5.596,-1.227 -1.713,-0.448 -3.288,-0.86 -4.709,-1.232 -2.841,-0.768 -5.097,-1.353 -6.604,-1.827 -1.509,-0.476 -2.314,-0.729 -2.314,-0.729 0,0 0.805,0.265 2.313,0.761 1.507,0.494 3.763,1.109 6.605,1.919 1.424,0.391 3,0.823 4.715,1.295 1.732,0.402 3.605,0.837 5.606,1.302 2.005,0.427 4.11,0.978 6.377,1.364 2.259,0.415 4.632,0.828 7.098,1.212 9.883,1.395 21.495,2.6 33.688,2.264 6.099,-0.204 12.35,-0.529 18.614,-1.276 1.563,-0.189 3.125,-0.333 4.686,-0.593 1.555,-0.265 3.114,-0.529 4.675,-0.794 3.112,-0.573 6.209,-1.051 9.3,-1.814 3.091,-0.703 6.156,-1.427 9.169,-2.211 3.006,-0.893 5.964,-1.822 8.849,-2.794 l 2.164,-0.717 c 0.713,-0.268 1.424,-0.535 2.133,-0.802 1.409,-0.543 2.811,-1.083 4.204,-1.62 1.38,-0.545 2.752,-1.086 4.115,-1.623 1.354,-0.547 2.675,-1.179 3.988,-1.761 2.566,-1.255 5.074,-2.464 7.483,-3.723 2.368,-1.33 4.684,-2.63 6.938,-3.896 2.274,-1.208 4.35,-2.604 6.32,-3.956 1.969,-1.355 3.83,-2.679 5.595,-3.971 0.11,-0.087 0.213,-0.167 0.322,-0.254 0.244,-0.157 0.482,-0.302 0.729,-0.465 1.5,-1.005 3.061,-2.071 4.66,-3.19 1.598,-1.121 3.249,-2.267 4.854,-3.585 3.228,-2.596 6.585,-5.262 9.675,-8.326 1.564,-1.5 3.106,-3.022 4.606,-4.557 1.455,-1.605 2.868,-3.223 4.226,-4.837 5.439,-6.449 9.639,-13.271 11.993,-19.26 4.72,-12.085 3.305,-23.737 0.705,-31.957 -1.306,-4.145 -2.844,-7.454 -4.041,-9.739 z"
         inkscape:connector-curvature="0"
         style="fill:#bf9b2f" /><path
         id="path3542"
         d="m 340.296,531.725 c 2.273,-1.009 4.536,-2.083 6.547,-3.36 1.995,-1.297 3.88,-2.636 5.576,-3.981 1.63,-1.412 3.104,-2.797 4.393,-4.075 1.321,-1.249 2.292,-2.542 3.156,-3.565 1.688,-2.083 2.593,-3.405 2.593,-3.405 0,0 -1.436,-0.59 -3.878,-1.429 -2.44,-0.841 -5.882,-1.94 -9.828,-3.021 -3.9,-1.037 -8.522,-2.265 -13.075,-3.107 -2.26,-0.4 -4.644,-0.844 -6.957,-1.138 -2.328,-0.312 -4.546,-0.423 -6.841,-0.541 -4.492,-0.121 -9.335,0.317 -14.124,0.676 -1.197,0.093 -2.373,0.208 -3.523,0.342 -1.194,0.062 -2.361,0.143 -3.494,0.24 -2.229,0.263 -4.489,0.283 -6.504,0.467 -0.999,0.112 -2.013,0.107 -2.962,0.144 -0.951,0.033 -1.849,0.078 -2.692,0.132 -1.696,0.084 -3.238,0.028 -4.473,0.096 -1.231,0.08 -2.249,0.032 -2.939,0.028 -0.14,10e-4 -0.258,10e-4 -0.372,0.002 -1.249,-0.3 -2.473,-0.589 -3.664,-1.015 -0.691,-0.214 -1.379,-0.428 -2.062,-0.64 -0.677,-0.192 -1.343,-0.397 -1.996,-0.676 -5.225,-1.832 -9.758,-3.849 -13.413,-5.788 -0.909,-0.521 -1.778,-0.964 -2.602,-1.358 -0.803,-0.471 -1.565,-0.915 -2.278,-1.333 -1.429,-0.754 -2.608,-1.592 -3.578,-2.226 -0.971,-0.624 -1.726,-1.085 -2.215,-1.495 -0.496,-0.372 -0.761,-0.568 -0.761,-0.568 0,0 0.261,0.212 0.747,0.604 0.479,0.436 1.222,0.932 2.178,1.602 0.957,0.675 2.118,1.573 3.532,2.39 0.707,0.451 1.462,0.932 2.258,1.438 0.816,0.428 1.68,0.909 2.584,1.469 3.632,2.116 8.166,4.31 13.417,6.347 l 0.992,0.424 1.013,0.343 c 0.688,0.235 1.379,0.473 2.075,0.71 0.703,0.234 1.417,0.523 2.141,0.736 0.715,0.193 1.435,0.389 2.156,0.584 0.612,0.757 1.436,1.75 2.477,2.944 2.374,2.702 5.792,6.168 10.152,9.801 4.257,3.414 9.501,7.015 14.955,9.498 1.372,0.644 2.768,1.245 4.173,1.793 1.381,0.503 2.765,0.938 4.149,1.319 2.761,0.752 5.547,1.312 8.07,1.368 5.144,0.27 10.247,-0.882 14.897,-2.776 z"
         inkscape:connector-curvature="0"
         style="fill:#bf9b2f" /><path
         id="path3544"
         d="m 291.183,554.557 c 2.396,0.397 4.788,0.422 7.181,0.383 0.597,-0.015 1.192,-0.039 1.784,-0.073 0.581,-0.072 1.16,-0.146 1.736,-0.218 1.15,-0.161 2.286,-0.354 3.398,-0.569 1.106,-0.232 2.218,-0.418 3.246,-0.748 1.036,-0.312 2.041,-0.639 3.01,-0.974 3.914,-1.257 7.035,-3.011 9.262,-4.221 1.12,-0.598 1.951,-1.186 2.524,-1.584 0.568,-0.407 0.877,-0.629 0.877,-0.629 0,0 -1.069,-0.991 -2.941,-2.524 -0.938,-0.773 -2.061,-1.656 -3.367,-2.674 -1.309,-1.022 -2.777,-2.137 -4.362,-3.29 -1.585,-1.153 -3.286,-2.346 -5.061,-3.525 -0.869,-0.563 -1.774,-1.15 -2.717,-1.762 -0.935,-0.609 -1.883,-1.21 -2.841,-1.794 -1.916,-1.168 -3.868,-2.271 -5.823,-3.247 -1.979,-1.029 -3.99,-2.005 -5.972,-2.752 -1.966,-0.701 -4.134,-1.502 -6.309,-2.119 -2.161,-0.563 -4.431,-1.273 -6.647,-1.827 -0.548,-0.132 -1.1,-0.265 -1.655,-0.397 -0.55,-0.131 -1.111,-0.316 -1.661,-0.462 -1.102,-0.308 -2.187,-0.59 -3.248,-0.847 -1.054,-0.222 -2.113,-0.562 -3.135,-0.85 -1.022,-0.289 -2.015,-0.553 -2.97,-0.791 -1.919,-0.523 -3.72,-1.135 -5.312,-1.541 -0.795,-0.187 -1.557,-0.479 -2.26,-0.703 -0.698,-0.221 -1.349,-0.426 -1.942,-0.613 -1.178,-0.354 -2.117,-0.6 -2.763,-0.854 -0.15,-0.051 -0.281,-0.094 -0.399,-0.134 -0.093,-0.059 -0.186,-0.121 -0.279,-0.178 -1.192,-0.786 -2.388,-1.412 -3.529,-2.195 -1.134,-0.734 -2.259,-1.463 -3.37,-2.185 -1.062,-0.774 -2.11,-1.538 -3.142,-2.291 -4.003,-3.133 -7.609,-5.829 -10.336,-8.642 -2.814,-2.617 -4.984,-4.883 -6.419,-6.536 -0.739,-0.788 -1.304,-1.414 -1.653,-1.897 -0.365,-0.455 -0.559,-0.697 -0.559,-0.697 0,0 0.186,0.253 0.534,0.728 0.178,0.232 0.383,0.546 0.65,0.877 0.273,0.321 0.588,0.692 0.94,1.107 1.378,1.731 3.482,4.104 6.225,6.87 0.68,0.698 1.386,1.461 2.149,2.217 0.79,0.714 1.606,1.455 2.446,2.215 0.832,0.826 1.749,1.525 2.678,2.31 0.937,0.759 1.866,1.682 2.884,2.421 1.021,0.804 2.059,1.62 3.109,2.448 1.105,0.767 2.225,1.542 3.353,2.323 l 0.857,0.625 0.879,0.56 1.777,1.176 0.978,0.665 c 0.315,0.82 0.725,1.852 1.232,3.051 1.339,3.076 3.39,7.344 6.209,11.923 1.399,2.207 2.989,4.497 4.752,6.768 0.88,1.122 1.811,2.297 2.766,3.348 0.956,1.056 1.95,2.093 2.977,3.099 4.118,4.118 8.726,7.313 13.259,9.29 2.241,0.882 4.597,1.513 7,1.939 z"
         inkscape:connector-curvature="0"
         style="fill:#bf9b2f" /><path
         id="path3546"
         d="m 237.771,555.055 c 0.894,0.83 1.835,1.627 2.819,2.351 0.988,0.684 2.016,1.319 3.072,1.911 1.056,0.592 2.14,1.14 3.243,1.646 1.105,0.462 2.229,0.856 3.36,1.228 1.131,0.366 2.269,0.695 3.404,0.989 1.135,0.275 2.267,0.441 3.385,0.619 1.118,0.167 2.223,0.305 3.305,0.417 1.082,0.121 2.141,0.204 3.162,0.187 2.045,0.012 3.961,-0.054 5.678,-0.159 0.86,-0.035 1.664,-0.145 2.411,-0.262 0.745,-0.12 1.435,-0.231 2.062,-0.332 2.503,-0.438 3.973,-0.82 3.973,-0.82 0,0 -0.656,-1.316 -1.877,-3.438 -1.218,-2.122 -2.992,-5.053 -5.147,-8.283 -2.148,-3.171 -4.704,-6.905 -7.472,-10.365 -0.693,-0.868 -1.4,-1.723 -2.121,-2.557 -0.72,-0.833 -1.462,-1.729 -2.212,-2.552 -1.502,-1.667 -3.055,-3.221 -4.664,-4.588 -1.609,-1.47 -3.379,-2.881 -5.223,-4.18 -1.831,-1.435 -3.742,-2.724 -5.634,-4.044 -1.879,-1.404 -3.785,-2.557 -5.575,-3.909 -0.901,-0.643 -1.789,-1.252 -2.656,-1.829 -0.852,-0.647 -1.683,-1.26 -2.489,-1.836 -0.281,-0.201 -0.553,-0.399 -0.826,-0.598 -0.08,-0.084 -0.155,-0.164 -0.237,-0.25 -1.263,-1.145 -2.611,-2.554 -4.052,-3.956 -0.687,-0.759 -1.401,-1.548 -2.144,-2.368 -0.368,-0.396 -0.743,-0.786 -1.128,-1.168 -0.376,-0.406 -0.752,-0.826 -1.146,-1.221 -0.761,-0.834 -1.549,-1.63 -2.309,-2.504 -0.735,-0.887 -1.485,-1.794 -2.248,-2.715 -0.796,-0.839 -1.523,-1.827 -2.289,-2.717 -0.774,-0.878 -1.483,-1.869 -2.191,-2.839 -0.349,-0.488 -0.703,-0.966 -1.061,-1.434 -0.358,-0.468 -0.679,-0.995 -1.026,-1.476 l -1.03,-1.439 -0.519,-0.702 -0.483,-0.747 c -0.634,-1.002 -1.289,-1.938 -1.878,-2.932 -0.572,-1.017 -1.142,-2 -1.726,-2.933 -0.539,-0.97 -1.073,-1.932 -1.601,-2.882 -0.542,-0.912 -0.947,-1.936 -1.418,-2.841 -0.217,-0.471 -0.465,-0.901 -0.662,-1.372 -0.2,-0.464 -0.397,-0.924 -0.593,-1.379 -0.389,-0.902 -0.83,-1.718 -1.139,-2.604 -0.338,-0.86 -0.674,-1.678 -1.002,-2.454 -0.269,-0.812 -0.529,-1.595 -0.778,-2.346 -0.123,-0.371 -0.25,-0.728 -0.378,-1.071 -0.105,-0.358 -0.208,-0.709 -0.308,-1.051 -0.209,-0.666 -0.409,-1.299 -0.595,-1.891 -0.347,-1.191 -0.561,-2.262 -0.798,-3.094 -0.253,-0.824 -0.311,-1.541 -0.418,-1.988 -0.089,-0.456 -0.137,-0.699 -0.137,-0.699 0,0 0.038,0.247 0.109,0.711 0.091,0.455 0.121,1.185 0.341,2.025 0.205,0.849 0.384,1.937 0.685,3.156 0.166,0.606 0.343,1.253 0.529,1.934 0.088,0.35 0.179,0.709 0.271,1.076 0.111,0.359 0.224,0.726 0.34,1.1 0.224,0.771 0.458,1.574 0.7,2.406 0.299,0.814 0.608,1.657 0.926,2.522 0.287,0.908 0.688,1.761 1.058,2.685 0.374,0.921 0.726,1.908 1.176,2.839 0.443,0.937 0.838,1.974 1.34,2.937 0.505,0.983 1.016,1.979 1.531,2.983 0.559,0.973 1.113,1.981 1.664,3.033 0.547,1.056 1.201,2.004 1.813,3.045 0.607,1.055 1.312,1.989 1.975,3.007 0.333,0.517 0.664,1.031 0.993,1.544 0.349,0.498 0.695,0.993 1.039,1.484 1.362,2.053 2.885,3.899 4.383,5.801 1.429,1.788 2.844,3.641 4.327,5.236 -0.015,0.581 -0.049,2.479 0.059,5.324 0.067,1.723 0.225,3.694 0.476,5.957 0.259,2.233 0.605,4.786 1.141,7.356 0.536,2.567 1.221,5.279 2.078,8.034 0.863,2.729 1.927,5.382 3.145,8.027 1.209,2.681 2.641,5.038 4.185,7.333 1.535,2.314 3.245,4.255 5.032,5.922 z"
         inkscape:connector-curvature="0"
         style="fill:#bf9b2f" /><path
         id="path3548"
         d="m 192.573,502.137 c -0.513,2.2 -1.011,4.676 -1.41,7.325 -0.358,2.595 -0.624,5.374 -0.744,8.252 -0.135,2.898 -0.009,5.722 0.237,8.628 0.236,2.924 0.764,5.655 1.447,8.323 0.668,2.693 1.612,5.108 2.728,7.28 0.56,1.081 1.168,2.163 1.855,3.16 0.696,0.98 1.444,1.93 2.235,2.847 0.794,0.91 1.616,1.82 2.495,2.639 0.886,0.8 1.803,1.566 2.74,2.3 0.941,0.723 1.885,1.457 2.869,2.076 0.985,0.612 1.979,1.191 2.971,1.738 0.995,0.538 1.976,1.077 2.963,1.523 0.993,0.431 1.972,0.829 2.927,1.198 0.956,0.369 1.888,0.708 2.786,1.019 0.899,0.307 1.783,0.515 2.614,0.737 1.665,0.428 3.155,0.757 4.399,1.006 2.513,0.387 4.033,0.479 4.033,0.479 0,0 -0.178,-1.451 -0.62,-3.84 -0.435,-2.406 -1.144,-5.662 -2.07,-9.515 -0.467,-1.909 -0.996,-3.924 -1.59,-5.976 -0.297,-1.025 -0.61,-2.061 -0.94,-3.097 -0.327,-1.048 -0.661,-2.134 -1.017,-3.193 -0.71,-2.129 -1.49,-4.23 -2.354,-6.237 -0.839,-2.091 -1.76,-4.096 -2.794,-5.941 -1.032,-1.851 -2.18,-3.845 -3.461,-5.678 -0.62,-0.93 -1.261,-1.891 -1.917,-2.874 -0.647,-0.965 -1.34,-1.847 -1.99,-2.813 -1.29,-1.956 -2.677,-3.694 -3.909,-5.57 -0.63,-0.885 -1.257,-1.765 -1.875,-2.633 -0.586,-0.896 -1.166,-1.753 -1.734,-2.567 -0.185,-0.261 -0.365,-0.516 -0.547,-0.771 -0.719,-1.323 -1.411,-2.91 -2.192,-4.509 -0.418,-0.834 -0.755,-1.812 -1.166,-2.726 -0.388,-0.941 -0.852,-1.822 -1.286,-2.78 -0.826,-1.944 -1.714,-3.885 -2.426,-6.017 -0.906,-1.967 -1.608,-4.147 -2.363,-6.22 -0.306,-1.098 -0.642,-2.163 -0.999,-3.202 -0.366,-1.031 -0.62,-2.143 -0.952,-3.172 -0.152,-0.524 -0.325,-1.029 -0.455,-1.56 l -0.359,-1.594 c -0.228,-1.059 -0.533,-2.044 -0.71,-3.093 -0.218,-1.005 -0.434,-2.003 -0.647,-2.989 -0.155,-0.988 -0.308,-1.966 -0.458,-2.927 -0.477,-3.839 -0.962,-7.225 -0.932,-10.18 -0.014,-0.731 -0.091,-1.402 -0.079,-2.066 0.006,-0.655 0.012,-1.277 0.017,-1.862 0.006,-0.579 -0.027,-1.105 -0.002,-1.605 0.034,-0.5 0.065,-0.959 0.093,-1.373 0.04,-0.812 0.071,-1.449 0.093,-1.884 0.038,-0.436 0.076,-0.671 0.076,-0.671 0,0 -0.048,0.236 -0.106,0.675 -0.041,0.438 -0.101,1.08 -0.177,1.897 -0.045,0.417 -0.095,0.88 -0.149,1.384 -0.051,0.507 -0.037,1.036 -0.068,1.623 -0.029,0.591 -0.06,1.221 -0.093,1.883 -0.047,0.675 0.008,1.354 -0.009,2.096 -0.152,2.997 0.213,6.439 0.542,10.365 0.12,0.98 0.243,1.977 0.366,2.985 0.153,1.009 0.369,2.011 0.545,3.064 0.151,1.068 0.395,2.098 0.608,3.171 0.216,1.07 0.394,2.194 0.712,3.24 0.286,1.092 0.571,2.182 0.854,3.263 0.331,1.064 0.643,2.154 0.925,3.275 0.285,1.122 0.696,2.145 1.037,3.237 0.179,0.544 0.357,1.085 0.534,1.622 0.206,0.521 0.41,1.037 0.613,1.549 0.362,1.054 0.7,2.138 1.08,3.169 0.173,0.431 0.337,0.84 0.507,1.262 -0.197,0.511 -0.871,2.301 -1.731,5.052 -0.526,1.659 -1.061,3.596 -1.57,5.793 z"
         inkscape:connector-curvature="0"
         style="fill:#bf9b2f" /><path
         id="path3550"
         d="m 165.646,529.354 c 1.145,1.879 2.543,3.484 3.908,5.051 1.354,1.582 2.837,2.913 4.257,4.135 0.71,0.611 1.409,1.188 2.087,1.731 0.682,0.538 1.377,0.991 2.023,1.438 1.302,0.881 2.483,1.622 3.478,2.22 1,0.589 1.849,0.973 2.419,1.257 0.579,0.269 0.895,0.415 0.895,0.415 0,0 0.304,-1.307 0.672,-3.504 0.372,-2.198 0.799,-5.26 1.188,-8.873 0.188,-1.795 0.351,-3.702 0.466,-5.665 0.109,-1.953 0.179,-3.975 0.219,-6.063 0.027,-2.07 -0.019,-4.143 -0.173,-6.164 -0.131,-2.053 -0.325,-4.116 -0.692,-6.054 -0.708,-3.912 -1.944,-8.14 -3.251,-12.257 -0.361,-0.996 -0.626,-2.087 -0.96,-3.097 -0.329,-0.999 -0.659,-2.002 -0.987,-3 -0.293,-1.013 -0.595,-1.997 -0.901,-2.945 -0.308,-0.947 -0.629,-1.854 -0.872,-2.783 -1.109,-3.61 -1.992,-6.765 -2.626,-9.002 -0.147,-0.584 -0.284,-1.103 -0.406,-1.554 -0.038,-0.295 -0.074,-0.579 -0.113,-0.879 -0.059,-0.449 -0.118,-0.903 -0.178,-1.361 -0.05,-0.461 -0.07,-0.94 -0.108,-1.411 -0.236,-1.861 -0.479,-3.728 -0.56,-5.664 -0.053,-0.961 -0.167,-1.89 -0.203,-2.85 -0.028,-0.963 -0.074,-1.913 -0.145,-2.846 -0.025,-0.47 -0.069,-0.928 -0.074,-1.398 l 0.014,-1.412 c 0.006,-0.934 0.001,-1.848 -0.039,-2.739 0.021,-0.902 0.042,-1.797 0.062,-2.682 0.028,-0.876 -0.004,-1.715 0.096,-2.571 0.174,-1.702 0.145,-3.267 0.362,-4.793 0.167,-1.513 0.228,-2.896 0.5,-4.198 0.084,-0.64 0.165,-1.252 0.242,-1.835 0.063,-0.576 0.137,-1.122 0.256,-1.642 0.192,-1.021 0.36,-1.91 0.498,-2.643 0.106,-0.721 0.28,-1.296 0.374,-1.683 0.096,-0.387 0.148,-0.593 0.148,-0.593 0,0 -0.062,0.205 -0.178,0.591 -0.112,0.385 -0.316,0.959 -0.459,1.678 -0.174,0.733 -0.385,1.622 -0.627,2.643 -0.063,0.26 -0.128,0.527 -0.195,0.803 -0.047,0.273 -0.095,0.555 -0.144,0.844 -0.104,0.585 -0.214,1.2 -0.328,1.843 -0.33,1.307 -0.471,2.702 -0.7,4.225 -0.281,1.537 -0.346,3.122 -0.58,4.84 -0.133,0.863 -0.167,1.721 -0.219,2.604 -0.058,0.896 -0.117,1.804 -0.176,2.718 -0.015,0.91 -0.032,1.832 -0.077,2.779 -0.034,0.942 -0.121,1.921 -0.065,2.857 0.078,1.892 0.003,3.878 0.123,5.79 0.032,0.983 0.063,1.956 0.094,2.918 0.086,0.959 0.171,1.906 0.254,2.84 0.015,1.05 0.093,2.06 0.187,3.052 -0.44,0.617 -0.964,1.367 -1.562,2.257 -0.875,1.307 -1.892,2.896 -2.969,4.724 -1.052,1.811 -2.112,3.828 -3.173,6.048 -1.062,2.22 -2.096,4.625 -2.938,7.08 -0.854,2.46 -1.671,5.091 -2.217,7.666 -0.542,2.571 -0.926,5.178 -1.108,7.722 -0.117,2.484 -0.023,4.897 0.296,7.138 0.703,4.408 2.491,8.62 4.885,12.254 z"
         inkscape:connector-curvature="0"
         style="fill:#bf9b2f" /><path
         id="path3552"
         d="m 145.193,511.955 c 0.471,0.63 0.921,1.219 1.354,1.757 0.46,0.514 0.887,0.989 1.274,1.422 1.573,1.71 2.594,2.651 2.594,2.651 0,0 0.702,-1.15 1.749,-3.133 1.048,-1.98 2.448,-4.789 3.883,-8.049 1.448,-3.271 3.042,-7.077 4.307,-10.933 0.639,-1.934 1.301,-3.961 1.797,-5.938 0.253,-0.993 0.478,-1.982 0.665,-2.964 0.202,-0.992 0.407,-2.002 0.548,-2.987 0.305,-1.984 0.393,-4.018 0.561,-6.179 0.062,-1.068 0.098,-2.141 0.107,-3.209 0.002,-1.063 0.089,-2.181 0.095,-3.255 0.005,-1.06 0.01,-2.132 0.015,-3.21 0.04,-1.078 0.061,-2.138 0.064,-3.172 -0.05,-2.045 0.112,-4.102 0.092,-5.955 -0.022,-0.923 0.059,-1.851 0.088,-2.721 0.025,-0.86 0.048,-1.69 0.071,-2.48 0.04,-1.565 0.183,-2.98 0.207,-4.129 0.008,-0.506 0.029,-0.961 0.053,-1.377 0.292,-1.54 0.689,-3.136 1.012,-4.721 0.212,-0.947 0.428,-1.909 0.647,-2.884 0.227,-0.965 0.393,-1.917 0.707,-2.892 0.597,-1.934 0.988,-3.847 1.611,-5.756 0.291,-0.95 0.527,-1.88 0.858,-2.809 0.343,-0.931 0.669,-1.846 0.954,-2.748 0.142,-0.449 0.284,-0.896 0.425,-1.342 0.172,-0.44 0.343,-0.878 0.513,-1.313 0.326,-0.856 0.647,-1.703 0.964,-2.535 0.717,-1.634 1.375,-3.184 1.987,-4.629 0.724,-1.426 1.288,-2.767 1.941,-3.956 0.645,-1.196 1.204,-2.276 1.688,-3.226 0.555,-0.92 1.039,-1.723 1.438,-2.383 0.382,-0.656 0.674,-1.167 0.927,-1.5 0.231,-0.337 0.355,-0.518 0.355,-0.518 0,0 -0.133,0.176 -0.382,0.505 -0.27,0.325 -0.59,0.825 -1.005,1.468 -0.433,0.649 -0.958,1.437 -1.56,2.34 -0.551,0.947 -1.173,2.015 -1.852,3.181 -0.724,1.172 -1.344,2.501 -2.138,3.917 -0.708,1.466 -1.454,3.01 -2.222,4.599 -0.353,0.83 -0.712,1.674 -1.075,2.528 -0.376,0.863 -0.775,1.749 -1.068,2.652 -0.322,0.903 -0.686,1.818 -1.065,2.749 -0.413,0.934 -0.656,1.861 -0.992,2.815 -0.301,0.949 -0.676,1.921 -0.954,2.881 -0.273,0.96 -0.569,1.926 -0.899,2.896 -0.156,0.487 -0.312,0.974 -0.467,1.458 -0.125,0.484 -0.249,0.967 -0.372,1.446 -0.254,0.979 -0.506,1.946 -0.753,2.898 -0.364,1.315 -0.685,2.611 -1,3.896 -0.618,0.445 -1.354,0.988 -2.206,1.639 -2.488,1.923 -5.766,4.717 -9.233,8.276 -3.294,3.494 -6.839,7.796 -9.476,12.339 -0.678,1.141 -1.322,2.303 -1.922,3.477 -0.585,1.167 -1.076,2.324 -1.541,3.493 -0.896,2.323 -1.677,4.696 -1.98,6.877 -1.523,8.879 1.729,18.113 5.672,24.462 0.964,1.61 2.01,3.014 2.939,4.281 z"
         inkscape:connector-curvature="0"
         style="fill:#bf9b2f" /><path
         id="path3554"
         d="m 143.623,459.458 c 1.03,-1.63 1.965,-3.291 2.733,-4.968 0.729,-1.666 1.517,-3.506 2.178,-5.388 0.341,-0.944 0.618,-1.893 0.945,-2.862 0.342,-0.973 0.664,-1.95 0.963,-2.925 0.314,-0.979 0.544,-1.942 0.868,-2.916 0.319,-0.974 0.617,-1.937 0.894,-2.883 0.47,-1.763 1.053,-3.483 1.542,-5.109 0.259,-0.503 0.54,-1.046 0.84,-1.628 0.498,-1.195 1.21,-2.54 1.887,-3.963 0.357,-0.714 0.678,-1.447 1.088,-2.201 0.406,-0.754 0.802,-1.529 1.155,-2.328 0.384,-0.792 0.738,-1.601 1.159,-2.411 0.44,-0.797 0.89,-1.612 1.347,-2.441 1.567,-3.354 3.695,-6.655 5.529,-9.899 1.004,-1.555 2.013,-3.117 3.008,-4.657 0.517,-0.737 1.03,-1.469 1.537,-2.193 0.243,-0.358 0.485,-0.714 0.726,-1.068 0.245,-0.35 0.526,-0.684 0.781,-1.021 1.062,-1.33 1.935,-2.644 2.948,-3.803 0.959,-1.178 1.799,-2.295 2.734,-3.238 1.644,-1.998 3.198,-3.504 4.202,-4.582 0.483,-0.548 0.968,-0.919 1.244,-1.199 0.291,-0.271 0.446,-0.416 0.446,-0.416 0,0 -0.163,0.138 -0.47,0.396 -0.291,0.268 -0.799,0.621 -1.312,1.147 -1.059,1.036 -2.706,2.48 -4.456,4.42 -0.458,0.471 -0.997,0.944 -1.45,1.482 -0.472,0.537 -0.96,1.093 -1.462,1.664 -1.072,1.13 -2.033,2.408 -3.153,3.714 -0.279,0.33 -0.561,0.663 -0.844,0.998 -0.258,0.348 -0.519,0.697 -0.78,1.049 -0.542,0.712 -1.091,1.433 -1.643,2.158 -0.59,0.725 -1.046,1.501 -1.606,2.262 l -1.662,2.323 c -0.484,0.807 -0.998,1.612 -1.53,2.418 -0.531,0.806 -1.105,1.609 -1.572,2.434 -0.96,1.643 -2.098,3.272 -2.901,4.939 -0.647,1.106 -1.325,2.203 -1.933,3.291 -0.262,0.091 -1.849,0.654 -4.286,1.685 -2.639,1.13 -6.431,2.845 -10.237,5.167 -1.932,1.16 -3.94,2.47 -5.939,3.915 -1.946,1.441 -3.827,3.014 -5.637,4.693 -0.896,0.838 -1.79,1.705 -2.607,2.588 -0.796,0.88 -1.557,1.78 -2.271,2.693 -1.401,1.822 -2.731,3.716 -3.588,5.563 -3.771,7.453 -3.357,16.432 -1.757,23.139 0.42,1.674 0.798,3.253 1.313,4.607 0.499,1.361 0.982,2.554 1.404,3.538 0.818,1.979 1.502,3.075 1.501,3.075 0,0 0.931,-0.795 2.39,-2.214 1.478,-1.425 3.531,-3.487 5.733,-5.943 2.208,-2.458 4.542,-5.295 6.838,-8.38 1.128,-1.532 2.201,-3.114 3.163,-4.722 z"
         inkscape:connector-curvature="0"
         style="fill:#bf9b2f" /><path
         id="path3556"
         d="m 80.761,405.018 c 0.138,0.726 0.274,1.446 0.409,2.16 0.162,0.713 0.344,1.418 0.524,2.112 0.364,1.389 0.75,2.734 1.158,4.024 0.777,2.58 1.799,4.936 2.881,6.971 1.093,2.036 2.264,3.884 3.647,5.548 1.385,1.664 2.854,3.146 4.352,4.457 2.955,2.625 6.194,4.561 9.085,5.974 2.889,1.414 5.457,2.311 7.302,2.863 1.837,0.553 2.988,0.765 2.988,0.765 0,0 -0.017,-0.303 -0.01,-0.863 -10e-4,-0.56 -0.015,-1.372 -0.062,-2.386 -0.047,-1.014 -0.128,-2.229 -0.266,-3.596 -0.144,-1.367 -0.206,-2.894 -0.413,-4.525 -0.459,-3.266 -0.867,-6.962 -1.853,-10.787 -0.779,-3.816 -2.128,-7.778 -3.845,-11.574 -1.867,-3.81 -4.369,-7.964 -7.268,-12.282 -1.421,-2.151 -2.827,-4.316 -4.297,-6.471 -1.454,-2.152 -2.947,-4.29 -4.263,-6.308 -2.669,-4.042 -5.22,-7.765 -6.923,-10.424 -0.904,-1.385 -1.617,-2.476 -2.101,-3.217 0.024,-0.28 0.04,-0.549 0.067,-0.834 0.139,-1.613 0.256,-3.29 0.446,-4.991 0.224,-1.701 0.452,-3.439 0.684,-5.206 0.538,-3.602 1.396,-7.24 2.216,-11.017 0.374,-1.898 0.949,-3.744 1.475,-5.646 0.558,-1.885 1.089,-3.819 1.746,-5.698 1.292,-3.749 2.574,-7.59 4.171,-11.224 0.774,-1.833 1.547,-3.664 2.353,-5.459 0.861,-1.768 1.713,-3.516 2.552,-5.237 1.633,-3.486 3.55,-6.675 5.308,-9.783 1.792,-3.081 3.679,-5.879 5.345,-8.536 3.522,-5.172 6.705,-9.408 9.042,-12.263 1.164,-1.445 2.078,-2.58 2.702,-3.354 0.446,-0.556 0.75,-0.902 0.892,-1.06 -0.043,0.048 -0.095,0.104 -0.169,0.187 -0.174,0.19 -0.432,0.473 -0.751,0.859 -0.642,0.765 -1.583,1.887 -2.781,3.316 -2.41,2.825 -5.697,7.018 -9.349,12.163 -3.53,5.222 -7.578,11.365 -11.118,18.278 -0.896,1.725 -1.803,3.471 -2.689,5.248 -0.823,1.81 -1.655,3.64 -2.493,5.483 -0.406,0.921 -0.813,1.846 -1.222,2.772 -0.37,0.945 -0.741,1.892 -1.113,2.839 -0.73,1.898 -1.443,3.8 -2.131,5.698 -0.667,1.918 -1.279,3.855 -1.88,5.768 -0.6,1.914 -1.175,3.811 -1.604,5.737 -0.46,1.906 -0.916,3.796 -1.367,5.665 -0.452,1.855 -0.758,3.738 -1.12,5.552 -0.28,1.821 -0.587,3.588 -0.803,5.337 -0.192,1.748 -0.379,3.458 -0.562,5.122 -0.451,3.306 -0.421,6.451 -0.456,9.313 10e-4,1.435 -0.038,2.791 0.01,4.095 0.026,0.642 0.051,1.266 0.075,1.874 -0.051,1.52 -0.079,3.096 -0.105,4.711 0.004,5.75 0.474,12.022 1.584,17.85 z"
         inkscape:connector-curvature="0"
         style="fill:#bf9b2f" /><path
         id="path3558"
         d="m 119.856,389.45 c -1.091,3.026 -1.686,5.77 -2.078,7.721 -0.291,1.975 -0.368,3.168 -0.368,3.168 0,0 1.146,-0.133 3.034,-0.479 1.908,-0.339 4.471,-0.902 7.515,-1.667 3.026,-0.769 6.395,-1.763 9.681,-3.024 1.678,-0.623 3.38,-1.301 4.992,-2.064 1.635,-0.757 3.117,-1.619 4.66,-2.526 1.511,-0.916 2.991,-1.997 4.452,-3.16 1.541,-1.136 3.04,-2.362 4.467,-3.627 1.521,-1.226 2.989,-2.479 4.351,-3.727 1.468,-1.198 2.833,-2.388 4.083,-3.522 1.34,-1.086 2.553,-2.123 3.617,-3.069 1.099,-0.908 2.087,-1.726 2.917,-2.412 0.801,-0.692 1.437,-1.249 1.916,-1.605 0.041,-0.033 0.071,-0.058 0.108,-0.088 0.47,-0.278 0.938,-0.563 1.393,-0.871 0.853,-0.514 1.653,-1.084 2.575,-1.577 0.896,-0.496 1.812,-1.003 2.744,-1.519 0.863,-0.57 1.819,-1.072 2.76,-1.587 0.948,-0.508 1.858,-1.051 2.828,-1.535 1.997,-0.903 3.831,-1.971 5.804,-2.85 0.98,-0.442 1.882,-0.953 2.882,-1.334 0.968,-0.4 1.932,-0.799 2.889,-1.194 0.91,-0.444 1.908,-0.75 2.822,-1.127 0.937,-0.347 1.806,-0.752 2.744,-1.02 1.843,-0.577 3.526,-1.23 5.204,-1.682 0.815,-0.25 1.608,-0.494 2.375,-0.73 0.781,-0.187 1.535,-0.368 2.258,-0.541 0.719,-0.171 1.376,-0.387 2.036,-0.517 0.652,-0.136 1.272,-0.266 1.854,-0.387 1.149,-0.259 2.133,-0.494 2.981,-0.589 1.646,-0.27 2.587,-0.424 2.587,-0.424 0,0 -0.952,0.115 -2.619,0.315 -0.859,0.062 -1.86,0.25 -3.026,0.464 -0.592,0.098 -1.221,0.203 -1.884,0.313 -0.675,0.097 -1.341,0.292 -2.075,0.434 -0.736,0.146 -1.504,0.298 -2.3,0.456 -0.79,0.181 -1.583,0.423 -2.428,0.636 -0.83,0.236 -1.74,0.403 -2.603,0.693 -0.873,0.272 -1.78,0.541 -2.722,0.799 -0.957,0.241 -1.864,0.593 -2.818,0.919 -0.941,0.342 -1.948,0.637 -2.903,1.028 -1.923,0.739 -3.995,1.431 -5.934,2.344 -0.973,0.452 -2.034,0.83 -2.989,1.32 -0.976,0.469 -1.97,0.924 -2.987,1.357 -1.035,0.421 -1.94,0.966 -2.922,1.442 -0.949,0.505 -1.965,0.955 -2.859,1.499 -1.853,0.988 -3.806,1.89 -5.47,2.937 -0.844,0.527 -1.705,0.996 -2.54,1.445 -0.438,-0.081 -0.907,-0.164 -1.429,-0.252 -2.668,-0.417 -6.418,-0.871 -10.723,-1.011 -2.116,-0.049 -4.33,0 -6.621,0.15 -2.293,0.148 -4.641,0.408 -6.861,0.852 -2.243,0.431 -4.472,0.984 -6.554,1.685 -2.023,0.728 -3.925,1.589 -5.61,2.572 -6.658,3.967 -11.047,11.116 -13.206,17.168 z"
         inkscape:connector-curvature="0"
         style="fill:#bf9b2f" /><path
         id="path3560"
         d="m 134.552,354.01 c -1.685,2.422 -3.042,4.613 -3.78,6.292 -0.786,1.654 -1.173,2.681 -1.173,2.681 0,0 1.045,0.18 2.803,0.365 1.757,0.186 4.224,0.381 7.045,0.446 2.807,0.057 6.108,0.065 9.351,-0.233 3.213,-0.321 6.641,-0.782 9.7,-1.759 1.502,-0.508 3.202,-1.055 4.801,-1.758 0.812,-0.343 1.611,-0.718 2.422,-1.098 0.839,-0.359 1.67,-0.737 2.489,-1.128 0.819,-0.391 1.626,-0.794 2.417,-1.207 l 2.422,-1.169 c 1.581,-0.786 3.065,-1.596 4.547,-2.281 2.419,-1.252 4.639,-2.296 6.343,-3.149 1.408,-0.479 2.99,-0.872 4.531,-1.438 0.831,-0.268 1.637,-0.588 2.521,-0.828 0.871,-0.243 1.76,-0.49 2.665,-0.742 3.49,-1.207 7.329,-2.016 10.954,-3.007 1.829,-0.385 3.665,-0.772 5.476,-1.153 0.896,-0.159 1.785,-0.316 2.665,-0.472 0.864,-0.171 1.714,-0.333 2.575,-0.423 3.384,-0.468 6.475,-0.878 9.124,-1.021 1.328,-0.08 2.515,-0.198 3.575,-0.251 1.062,-0.017 1.988,-0.032 2.751,-0.044 1.501,-0.066 2.372,0 2.372,0 0,0 -0.873,-0.108 -2.383,-0.115 -0.768,-0.023 -1.7,-0.052 -2.77,-0.084 -1.071,-0.003 -2.268,0.063 -3.611,0.083 -1.362,-0.056 -2.777,0.123 -4.339,0.196 -1.576,0.043 -3.176,0.294 -4.913,0.417 -0.435,0.038 -0.873,0.076 -1.313,0.114 -0.433,0.063 -0.87,0.128 -1.309,0.192 -0.895,0.121 -1.799,0.244 -2.709,0.368 -1.836,0.256 -3.664,0.647 -5.594,0.912 -1.828,0.468 -3.772,0.775 -5.646,1.2 -0.943,0.22 -1.877,0.438 -2.8,0.654 -0.469,0.109 -0.936,0.217 -1.399,0.324 -0.451,0.133 -0.898,0.265 -1.343,0.396 -1.793,0.462 -3.646,0.823 -5.28,1.37 -0.667,0.23 -1.338,0.41 -2,0.578 -0.498,-0.223 -1.072,-0.475 -1.732,-0.754 -2.372,-1.023 -5.569,-2.17 -9.385,-3.242 -0.949,-0.264 -1.933,-0.52 -2.943,-0.76 -0.997,-0.227 -2.004,-0.423 -3.038,-0.607 -2.062,-0.364 -4.198,-0.645 -6.335,-0.808 -2.121,-0.148 -4.179,-0.119 -6.194,0.021 -2.013,0.142 -3.941,0.434 -5.623,0.947 -6.971,1.868 -12.428,7.232 -15.937,11.975 z"
         inkscape:connector-curvature="0"
         style="fill:#bf9b2f" /><path
         id="path3562"
         d="m 157.43,325.129 c -0.58,0.458 -1.132,0.914 -1.654,1.357 -0.511,0.456 -0.972,0.92 -1.413,1.355 -0.876,0.875 -1.628,1.679 -2.24,2.36 -1.242,1.344 -1.839,2.275 -1.839,2.275 0,0 0.956,0.443 2.591,1.071 1.634,0.628 3.998,1.494 6.722,2.312 5.449,1.614 12.421,3.237 18.91,3.052 1.644,-0.028 3.309,-0.254 5.074,-0.471 1.773,-0.208 3.556,-0.519 5.315,-0.879 1.813,-0.288 3.592,-0.638 5.293,-1.024 1.744,-0.322 3.433,-0.643 4.987,-0.998 2.766,-0.501 5.169,-1.045 7.069,-1.386 0.307,-0.009 0.614,-0.019 0.932,-0.028 0.841,-0.027 1.716,-0.055 2.624,-0.083 0.889,-0.049 1.84,-0.018 2.768,-0.097 0.928,-0.041 1.882,-0.082 2.857,-0.125 0.975,0.012 1.972,0.023 2.985,0.036 1.971,-0.127 4.043,-0.045 6.082,-0.012 1.013,0.001 2.053,0.087 3.08,0.138 1.027,0.052 2.043,0.074 3.052,0.097 4.09,0.382 8.024,0.659 11.681,1.286 0.902,0.14 1.79,0.278 2.661,0.413 0.864,0.169 1.711,0.334 2.536,0.496 0.819,0.165 1.604,0.255 2.371,0.45 0.76,0.189 1.495,0.372 2.199,0.546 0.697,0.157 1.365,0.307 2.001,0.45 0.629,0.18 1.227,0.352 1.788,0.512 1.109,0.302 2.076,0.565 2.871,0.781 1.551,0.535 2.438,0.84 2.438,0.84 0,0 -0.878,-0.347 -2.415,-0.953 -0.79,-0.252 -1.75,-0.56 -2.85,-0.912 -0.559,-0.186 -1.153,-0.383 -1.779,-0.591 -0.634,-0.172 -1.3,-0.353 -1.994,-0.541 -0.702,-0.206 -1.435,-0.42 -2.194,-0.642 -0.767,-0.242 -1.55,-0.356 -2.37,-0.559 -0.826,-0.196 -1.674,-0.396 -2.539,-0.601 -0.87,-0.195 -1.755,-0.333 -2.669,-0.534 -0.912,-0.164 -1.859,-0.398 -2.808,-0.538 -0.958,-0.144 -1.927,-0.289 -2.902,-0.435 l -1.494,-0.247 -1.496,-0.163 c -1.005,-0.114 -2.026,-0.242 -3.06,-0.384 -1.029,-0.105 -2.045,-0.132 -3.083,-0.228 -1.028,-0.062 -2.094,-0.239 -3.113,-0.27 -2.044,-0.075 -4.157,-0.29 -6.145,-0.22 -1.019,-0.046 -2.021,-0.09 -3.001,-0.134 -0.994,-0.048 -1.936,0.008 -2.886,0.006 -0.947,0.038 -1.874,0.023 -2.778,-0.012 -0.386,-0.008 -0.76,-0.008 -1.131,-0.008 -0.395,-0.32 -0.848,-0.681 -1.361,-1.08 -1.969,-1.517 -4.845,-3.647 -8.206,-5.613 -3.338,-1.938 -7.322,-3.982 -11.291,-5.294 -1.994,-0.676 -4.043,-1.272 -6.013,-1.647 -1.952,-0.349 -3.866,-0.539 -5.661,-0.534 -7.122,0.098 -13.976,3.632 -18.502,7.41 z"
         inkscape:connector-curvature="0"
         style="fill:#bf9b2f" /><path
         id="path3564"
         d="m 184.54,303.826 c -1.209,0.562 -2.333,1.109 -3.302,1.668 -0.956,0.581 -1.787,1.125 -2.469,1.591 -1.364,0.934 -2.133,1.557 -2.133,1.557 0,0 0.737,0.608 2.032,1.538 1.294,0.93 3.143,2.183 5.337,3.489 1.097,0.653 2.281,1.319 3.523,1.965 1.252,0.662 2.585,1.335 3.944,1.94 2.729,1.225 5.567,2.178 8.506,2.823 1.463,0.311 2.999,0.463 4.616,0.621 1.627,0.181 3.295,0.28 4.952,0.317 3.361,0.19 6.684,0.146 9.689,0.251 1.812,-0.019 3.508,0.042 4.979,0.083 0.812,0.126 1.671,0.26 2.583,0.402 1.473,0.229 3.076,0.651 4.711,0.822 1.63,0.185 3.37,0.604 5.114,0.936 1.747,0.202 3.558,0.657 5.354,1.018 1.79,0.313 3.611,0.844 5.404,1.191 3.577,0.869 7.091,1.808 10.289,2.815 1.604,0.439 3.115,1.049 4.545,1.511 0.713,0.246 1.408,0.451 2.069,0.697 0.654,0.269 1.286,0.528 1.891,0.776 1.209,0.488 2.326,0.822 3.277,1.285 0.951,0.426 1.78,0.797 2.462,1.104 1.364,0.569 2.108,0.987 2.109,0.986 0,0.001 -0.729,-0.455 -2.066,-1.093 -0.671,-0.34 -1.486,-0.753 -2.42,-1.227 -0.935,-0.519 -2.038,-0.902 -3.232,-1.453 -0.598,-0.278 -1.222,-0.569 -1.868,-0.87 -0.651,-0.293 -1.341,-0.521 -2.047,-0.805 -1.419,-0.52 -2.917,-1.226 -4.51,-1.738 -3.178,-1.162 -6.677,-2.26 -10.25,-3.308 -3.59,-0.944 -7.226,-2.005 -10.749,-2.707 -1.731,-0.393 -3.462,-0.875 -5.097,-1.167 -1.165,-0.176 -2.269,-0.433 -3.328,-0.692 -0.3,-0.371 -0.646,-0.792 -1.043,-1.263 -1.491,-1.791 -3.596,-4.03 -6.216,-6.469 -2.625,-2.469 -5.685,-4.841 -8.961,-6.879 -0.818,-0.508 -1.649,-0.998 -2.483,-1.45 -0.824,-0.425 -1.654,-0.819 -2.482,-1.177 -1.656,-0.716 -3.308,-1.287 -4.894,-1.663 -6.28,-1.353 -13.039,0.266 -17.836,2.575 z"
         inkscape:connector-curvature="0"
         style="fill:#bf9b2f" /><path
         id="path3566"
         d="m 228.613,290.941 c -0.774,-0.197 -1.558,-0.371 -2.34,-0.5 -0.777,-0.101 -1.556,-0.173 -2.332,-0.22 -1.552,-0.094 -3.09,-0.088 -4.572,-0.013 -1.466,0.136 -2.872,0.355 -4.185,0.599 -2.64,0.443 -4.831,1.223 -6.38,1.794 -1.55,0.576 -2.446,0.996 -2.446,0.996 0,0 0.572,0.767 1.61,1.979 1.037,1.213 2.536,2.873 4.358,4.668 1.826,1.806 3.952,3.686 6.319,5.561 1.179,0.92 2.406,1.798 3.669,2.591 0.632,0.396 1.272,0.771 1.921,1.121 0.657,0.379 1.322,0.733 1.996,1.057 5.371,2.414 12.663,4.235 18.439,5.741 1.453,0.4 2.811,0.713 4.039,1.021 0.298,0.087 0.587,0.169 0.869,0.249 0.703,0.301 1.438,0.625 2.204,0.949 0.675,0.286 1.377,0.583 2.106,0.892 0.724,0.322 1.468,0.674 2.235,0.968 0.756,0.315 1.533,0.64 2.327,0.971 0.392,0.165 0.788,0.331 1.188,0.499 0.394,0.193 0.791,0.388 1.192,0.585 0.805,0.349 1.621,0.702 2.447,1.059 0.819,0.356 1.644,0.695 2.454,1.13 0.814,0.41 1.63,0.813 2.446,1.2 0.815,0.392 1.639,0.732 2.442,1.169 l 2.381,1.258 c 0.788,0.408 1.577,0.774 2.33,1.238 0.756,0.426 1.507,0.85 2.249,1.269 0.737,0.414 1.471,0.779 2.16,1.243 1.378,0.907 2.732,1.66 3.977,2.458 1.221,0.817 2.376,1.591 3.439,2.303 1.052,0.718 1.982,1.435 2.818,2.021 0.834,0.591 1.557,1.098 2.118,1.586 1.138,0.919 1.789,1.444 1.789,1.444 0,0 -0.626,-0.56 -1.723,-1.539 -0.541,-0.519 -1.238,-1.067 -2.047,-1.7 -0.809,-0.632 -1.715,-1.39 -2.736,-2.174 -1.037,-0.766 -2.163,-1.599 -3.353,-2.479 -1.209,-0.879 -2.54,-1.687 -3.891,-2.667 -2.75,-1.813 -5.806,-3.663 -8.968,-5.475 -3.203,-1.708 -6.436,-3.581 -9.658,-5.035 -1.563,-0.888 -3.123,-1.584 -4.627,-2.274 -1.005,-0.428 -1.942,-0.924 -2.841,-1.379 -0.208,-0.434 -0.451,-0.923 -0.732,-1.47 -1.032,-2.015 -2.56,-4.78 -4.537,-7.775 -1.971,-2.977 -4.384,-6.005 -7.091,-8.81 -2.688,-2.703 -5.657,-5.023 -8.558,-6.493 -1.439,-0.689 -2.956,-1.217 -4.505,-1.616 z"
         inkscape:connector-curvature="0"
         style="fill:#bf9b2f" /><path
         id="path3568"
         d="m 246.703,300.166 c 1.748,2.093 3.725,4.261 5.917,5.902 1.097,0.803 2.323,1.655 3.62,2.469 1.297,0.808 2.667,1.55 4.053,2.264 2.757,1.604 5.605,2.849 8.111,4.198 1.256,0.649 2.454,1.157 3.515,1.719 1.061,0.561 2.009,1.039 2.803,1.427 0.202,0.095 0.394,0.186 0.575,0.271 0.613,0.415 1.244,0.833 1.899,1.267 1.161,0.803 2.384,1.648 3.65,2.524 1.283,0.803 2.537,1.79 3.825,2.673 1.297,0.86 2.546,1.886 3.831,2.788 l 1.886,1.384 c 0.608,0.488 1.215,0.974 1.817,1.458 1.197,0.96 2.401,1.806 3.479,2.79 1.084,0.961 2.163,1.805 3.149,2.656 0.961,0.877 1.872,1.708 2.709,2.471 0.862,0.708 1.579,1.473 2.235,2.103 0.65,0.631 1.218,1.182 1.685,1.635 0.474,0.436 0.813,0.825 1.049,1.083 0.236,0.257 0.361,0.395 0.361,0.395 0,0 -0.118,-0.145 -0.34,-0.416 -0.223,-0.271 -0.542,-0.683 -0.991,-1.146 -0.442,-0.48 -0.98,-1.064 -1.598,-1.734 -0.626,-0.665 -1.303,-1.483 -2.128,-2.241 -0.802,-0.813 -1.672,-1.696 -2.592,-2.629 -0.938,-0.926 -1.981,-1.818 -3.023,-2.845 -1.039,-1.043 -2.189,-1.985 -3.352,-3 -0.583,-0.517 -1.169,-1.038 -1.757,-1.559 -0.594,-0.52 -1.213,-0.988 -1.82,-1.503 -0.623,-0.489 -1.24,-0.995 -1.853,-1.512 l -0.917,-0.781 -0.936,-0.721 c -1.263,-0.987 -2.501,-1.954 -3.703,-2.894 -1.223,-0.929 -2.406,-1.827 -3.527,-2.679 -0.601,-0.457 -1.165,-0.887 -1.705,-1.297 -0.054,-0.202 -0.11,-0.409 -0.171,-0.629 -0.56,-2.026 -1.427,-4.828 -2.651,-7.922 -0.607,-1.568 -1.317,-3.131 -2.113,-4.694 -0.794,-1.569 -1.675,-3.145 -2.631,-4.663 -0.478,-0.755 -0.973,-1.511 -1.486,-2.217 -0.516,-0.689 -1.048,-1.354 -1.593,-1.989 -1.09,-1.27 -2.232,-2.416 -3.397,-3.373 -1.163,-0.987 -2.431,-1.729 -3.75,-2.378 -1.32,-0.65 -2.693,-1.188 -4.073,-1.634 -2.761,-0.816 -5.549,-1.146 -8.016,-1.314 -2.462,-0.04 -4.604,0.112 -6.122,0.272 -0.761,0.067 -1.361,0.189 -1.772,0.274 -0.411,0.089 -0.635,0.138 -0.635,0.138 0,0 0.348,0.806 1.019,2.104 0.668,1.283 1.663,3.111 2.926,5.146 1.263,2.029 2.791,4.254 4.538,6.359 z"
         inkscape:connector-curvature="0"
         style="fill:#bf9b2f" /><path
         id="path3570"
         d="m 172.703,617.487 c 1.271,0.321 2.552,0.646 3.842,0.973 2.591,0.62 5.18,1.333 7.863,1.846 2.674,0.536 5.374,1.058 8.085,1.562 5.474,0.828 10.967,1.498 16.496,1.845 1.375,0.098 2.75,0.195 4.121,0.293 1.375,0.034 2.746,0.069 4.113,0.104 1.361,0.014 2.717,0.027 4.067,0.04 1.345,0.014 2.683,-0.009 4.013,-0.095 2.65,-0.138 5.278,-0.273 7.875,-0.409 2.583,-0.204 5.123,-0.486 7.604,-0.743 1.226,-0.172 2.438,-0.314 3.633,-0.518 1.191,-0.216 2.37,-0.429 3.537,-0.64 2.326,-0.438 4.584,-0.831 6.767,-1.312 2.199,-0.482 4.294,-1.024 6.292,-1.584 1.998,-0.583 3.899,-1.082 5.716,-1.751 0.038,-0.014 0.074,-0.026 0.112,-0.039 0.019,-0.005 0.037,-0.01 0.056,-0.015 3.253,-0.874 6.804,-1.781 10.459,-3.015 1.826,-0.64 3.682,-1.313 5.545,-2.019 1.864,-0.705 3.74,-1.415 5.583,-2.297 1.848,-0.847 3.685,-1.721 5.489,-2.617 0.9,-0.457 1.801,-0.885 2.677,-1.38 0.869,-0.507 1.733,-1.012 2.593,-1.513 3.409,-2.036 6.631,-4.083 9.44,-6.394 2.825,-2.257 5.337,-4.444 7.316,-6.797 1.998,-2.306 3.696,-4.65 5.085,-7.071 1.365,-2.475 2.452,-4.951 3.307,-7.371 0.428,-1.211 0.797,-2.406 1.114,-3.582 0.313,-1.185 0.555,-2.389 0.763,-3.541 0.412,-2.316 0.648,-4.517 0.763,-6.554 0.115,-2.037 0.108,-3.912 0.038,-5.578 -0.074,-1.671 -0.236,-3.178 -0.392,-4.397 -0.319,-2.453 -0.659,-3.875 -0.659,-3.875 0,0 -0.351,0.169 -0.995,0.479 -0.639,0.317 -1.551,0.811 -2.731,1.355 -2.354,1.105 -5.503,2.917 -9.204,4.902 -7.323,4.187 -16.439,9.693 -24.083,17.326 -3.833,3.727 -7.773,8.806 -11.912,13.918 -1.042,1.336 -2.077,2.663 -3.1,3.974 -1.036,1.347 -2.083,2.603 -3.122,3.917 -2.142,2.691 -4.204,5.281 -6.133,7.706 -3.977,4.836 -7.66,9.222 -10.352,12.427 -1.53,1.77 -2.696,3.117 -3.441,3.978 -3.526,0.745 -7.228,1.533 -11.098,2.058 -2.429,0.277 -4.919,0.646 -7.448,0.819 -2.547,0.174 -5.125,0.351 -7.725,0.528 -2.607,0.155 -5.254,0.143 -7.943,0.152 -2.693,0.031 -5.395,-0.118 -8.114,-0.29 -5.456,-0.258 -10.881,-0.851 -16.297,-1.601 -2.698,-0.479 -5.375,-0.954 -8.02,-1.424 -2.652,-0.493 -5.23,-1.14 -7.802,-1.719 -1.28,-0.301 -2.562,-0.587 -3.815,-0.917 -1.247,-0.355 -2.484,-0.707 -3.708,-1.056 -2.441,-0.73 -4.875,-1.396 -7.175,-2.209 -2.311,-0.818 -4.56,-1.614 -6.735,-2.384 -2.195,-0.757 -4.228,-1.658 -6.233,-2.44 -1.984,-0.832 -3.916,-1.604 -5.702,-2.434 -1.782,-0.848 -3.474,-1.652 -5.064,-2.408 -3.204,-1.502 -5.9,-2.989 -8.142,-4.192 -4.502,-2.396 -6.977,-3.946 -6.978,-3.945 0,-10e-4 2.461,1.593 6.95,4.062 2.231,1.246 4.923,2.776 8.121,4.333 1.588,0.784 3.277,1.619 5.057,2.498 1.789,0.854 3.716,1.663 5.702,2.528 3.957,1.733 8.366,3.365 12.993,5.05 2.315,0.838 4.752,1.557 7.206,2.327 1.234,0.375 2.476,0.748 3.73,1.126 z"
         inkscape:connector-curvature="0"
         style="fill:#bf9b2f" /><path
         id="path3572"
         d="m 131.185,589.939 c 2.571,1.305 5.151,2.612 7.736,3.924 5.225,2.489 10.47,4.801 15.753,6.601 1.315,0.469 2.609,0.951 3.918,1.386 1.316,0.411 2.625,0.82 3.927,1.227 2.602,0.795 5.137,1.606 7.7,2.228 2.544,0.576 5.022,1.149 7.458,1.642 2.445,0.425 4.836,0.84 7.164,1.245 2.307,0.46 4.597,0.646 6.769,0.854 2.184,0.175 4.253,0.372 6.275,0.424 0.396,0.01 0.772,0.02 1.162,0.029 3.379,0.394 7.104,0.699 11.019,0.812 1.932,0.056 3.904,0.09 5.894,0.098 2.003,-0.062 4.026,-0.153 6.047,-0.273 4.034,-0.171 8.1,-0.796 11.983,-1.407 3.89,-0.697 7.624,-1.666 11.038,-2.701 3.417,-1.171 6.521,-2.441 9.182,-3.828 2.665,-1.489 5.062,-3.155 7.202,-4.927 1.07,-0.896 2.076,-1.772 3.019,-2.75 0.942,-0.977 1.823,-1.969 2.645,-2.967 3.287,-4.006 5.628,-8.035 7.259,-11.87 1.637,-3.776 2.598,-7.101 3.167,-9.479 0.566,-2.379 0.749,-3.816 0.749,-3.816 0,0 -1.565,0.055 -4.144,0.351 -0.644,0.082 -1.352,0.172 -2.117,0.27 -0.763,0.112 -1.583,0.238 -2.458,0.316 -1.746,0.193 -3.684,0.459 -5.759,0.826 -1.036,0.206 -2.111,0.356 -3.214,0.522 -1.103,0.175 -2.234,0.376 -3.387,0.609 -1.153,0.223 -2.329,0.518 -3.521,0.772 -1.192,0.235 -2.4,0.505 -3.621,0.812 -1.22,0.304 -2.452,0.66 -3.69,1.032 -1.236,0.328 -2.479,0.699 -3.723,1.116 -1.245,0.416 -2.491,0.88 -3.734,1.393 -1.239,0.474 -2.473,0.971 -3.7,1.539 -2.453,1.129 -5.041,2.585 -7.712,4.053 -2.671,1.483 -5.476,3.286 -8.293,4.932 -2.921,1.786 -5.804,3.548 -8.585,5.248 -2.945,1.763 -5.779,3.461 -8.433,5.049 -2.734,1.636 -5.322,3.071 -7.714,4.446 -2.383,1.348 -4.562,2.605 -6.371,3.587 -2.054,1.118 -3.621,1.971 -4.624,2.518 -1.997,-0.306 -4.047,-0.606 -6.132,-0.991 -2.389,-0.491 -4.83,-0.992 -7.313,-1.503 -2.517,-0.586 -5.003,-1.372 -7.578,-2.099 -1.278,-0.381 -2.583,-0.741 -3.867,-1.16 -1.282,-0.436 -2.57,-0.873 -3.863,-1.312 -2.592,-0.873 -5.233,-1.786 -7.804,-2.894 -2.578,-1.094 -5.233,-2.156 -7.783,-3.411 -2.556,-1.24 -5.135,-2.476 -7.685,-3.767 -2.506,-1.348 -5.007,-2.724 -7.483,-4.143 -4.865,-2.961 -9.649,-5.999 -14.091,-9.225 -8.965,-6.35 -16.839,-13.314 -23.224,-19.639 -3.274,-3.1 -6,-6.253 -8.497,-8.982 -1.256,-1.364 -2.376,-2.686 -3.392,-3.927 -1.022,-1.241 -1.961,-2.381 -2.81,-3.411 -0.843,-1.036 -1.608,-1.958 -2.247,-2.777 -0.626,-0.83 -1.158,-1.536 -1.59,-2.108 -0.861,-1.151 -1.32,-1.766 -1.32,-1.766 0,0 0.452,0.623 1.3,1.791 0.426,0.581 0.95,1.298 1.567,2.141 0.631,0.831 1.385,1.768 2.218,2.82 0.837,1.045 1.765,2.203 2.775,3.464 0.507,0.626 1.035,1.276 1.583,1.952 0.57,0.657 1.161,1.338 1.772,2.04 2.466,2.78 5.17,5.985 8.421,9.152 6.341,6.449 14.168,13.582 23.141,20.106 2.243,1.637 4.499,3.307 6.896,4.851 2.386,1.556 4.738,3.182 7.223,4.658 2.487,1.468 4.989,2.908 7.517,4.297 z"
         inkscape:connector-curvature="0"
         style="fill:#bf9b2f" /><path
         id="path3574"
         d="m 70.882,524.025 c 0.735,1.01 1.513,2.005 2.284,3.01 1.56,2.003 3.097,4.056 4.758,6.051 1.681,1.967 3.383,3.957 5.099,5.964 1.734,1.977 3.61,3.845 5.443,5.732 1.819,1.899 3.754,3.696 5.683,5.492 3.793,3.641 7.851,6.979 11.852,10.069 2.049,1.491 4.081,2.971 6.089,4.433 1.989,1.458 4.079,2.749 6.062,4.069 1.008,0.615 2.008,1.225 2.999,1.828 0.996,0.592 2.014,1.137 3.002,1.69 1.979,1.081 3.917,2.138 5.801,3.167 1.92,0.988 3.799,1.87 5.617,2.682 1.51,0.682 2.978,1.291 4.429,1.85 0.021,0.01 0.04,0.021 0.061,0.03 1.516,0.729 3.111,1.478 4.766,2.233 0.829,0.372 1.673,0.75 2.529,1.134 0.875,0.348 1.763,0.7 2.661,1.058 1.798,0.702 3.641,1.398 5.509,2.076 1.889,0.645 3.834,1.226 5.772,1.802 3.851,1.2 7.889,2.01 11.753,2.751 1.938,0.36 3.902,0.566 5.79,0.783 1.901,0.188 3.729,0.388 5.543,0.418 3.63,0.055 6.967,-0.014 9.979,-0.488 3.016,-0.477 5.839,-1.211 8.454,-2.138 2.641,-1.01 5.07,-2.201 7.284,-3.499 1.108,-0.653 2.158,-1.314 3.164,-2.028 1.009,-0.727 1.965,-1.468 2.869,-2.217 1.807,-1.497 3.405,-3.021 4.805,-4.499 2.793,-2.922 4.833,-5.83 6.167,-7.882 1.335,-2.071 1.991,-3.373 1.991,-3.373 0,0 -1.501,-0.433 -4.038,-0.979 -1.257,-0.328 -2.772,-0.692 -4.494,-1.047 -0.859,-0.187 -1.779,-0.331 -2.728,-0.54 -0.947,-0.213 -1.94,-0.42 -2.973,-0.616 -1.034,-0.195 -2.107,-0.38 -3.217,-0.547 -1.104,-0.185 -2.226,-0.413 -3.389,-0.587 -1.16,-0.182 -2.352,-0.343 -3.572,-0.477 -1.217,-0.14 -2.432,-0.335 -3.686,-0.454 -1.251,-0.129 -2.526,-0.227 -3.821,-0.287 -1.288,-0.079 -2.571,-0.18 -3.886,-0.205 -1.311,-0.033 -2.64,-0.023 -3.983,0.035 -1.335,0.041 -2.658,0.077 -4.006,0.198 -2.692,0.23 -5.618,0.712 -8.63,1.189 -3.024,0.505 -6.258,1.219 -9.47,1.821 -3.221,0.621 -6.596,1.402 -9.845,2.024 -3.369,0.67 -6.612,1.314 -9.648,1.919 -3.162,0.568 -6.107,1.099 -8.747,1.573 -2.71,0.484 -5.163,0.91 -7.184,1.214 -2.325,0.369 -4.119,0.654 -5.248,0.833 -2.605,-1.368 -5.283,-2.821 -7.956,-4.446 -4.015,-2.439 -7.956,-5.268 -12.034,-8.165 -1.984,-1.489 -3.975,-3.051 -5.967,-4.66 l -1.494,-1.217 -1.445,-1.274 -2.89,-2.589 -2.889,-2.62 -2.786,-2.717 c -1.832,-1.837 -3.735,-3.638 -5.45,-5.582 -1.729,-1.956 -3.443,-3.896 -5.137,-5.814 -1.65,-1.962 -3.221,-3.955 -4.79,-5.916 -1.594,-1.944 -3.042,-3.948 -4.447,-5.936 -1.394,-1.991 -2.818,-3.929 -4.064,-5.899 -2.498,-3.937 -4.898,-7.697 -6.875,-11.29 -0.996,-1.809 -1.951,-3.544 -2.859,-5.195 -0.856,-1.679 -1.637,-3.291 -2.377,-4.81 -0.732,-1.526 -1.418,-2.955 -2.052,-4.275 -0.625,-1.328 -1.13,-2.573 -1.622,-3.688 -0.951,-2.25 -1.698,-4.017 -2.208,-5.222 -0.511,-1.21 -0.759,-1.863 -0.759,-1.863 0,0 0.239,0.66 0.734,1.883 0.493,1.219 1.217,3.006 2.139,5.28 0.478,1.126 0.962,2.387 1.574,3.729 0.617,1.337 1.284,2.784 1.996,4.33 0.723,1.538 1.477,3.175 2.321,4.874 0.889,1.676 1.823,3.438 2.797,5.273 1.934,3.65 4.305,7.469 6.756,11.481 1.242,1.998 2.635,3.979 4.014,6.011 0.699,1.01 1.406,2.027 2.12,3.052 z"
         inkscape:connector-curvature="0"
         style="fill:#bf9b2f" /><path
         id="path3576"
         d="m 50.829,448.896 c 0.465,1.811 1.029,4.009 1.676,6.531 0.709,2.504 1.595,5.307 2.542,8.344 0.477,1.51 1.045,3.066 1.651,4.67 0.602,1.599 1.225,3.251 1.865,4.949 0.62,1.697 1.376,3.402 2.137,5.138 0.763,1.735 1.553,3.494 2.372,5.263 0.839,1.765 1.773,3.524 2.683,5.307 0.94,1.772 1.808,3.588 2.852,5.345 2.047,3.531 4.128,7.018 6.452,10.386 1.13,1.704 2.261,3.387 3.433,5.019 1.215,1.61 2.438,3.189 3.658,4.735 0.611,0.77 1.22,1.534 1.825,2.296 0.615,0.752 1.264,1.477 1.89,2.205 1.259,1.439 2.502,2.862 3.729,4.265 2.54,2.663 5.119,5.106 7.493,7.424 2.136,1.994 4.252,3.711 6.231,5.303 1.913,1.794 4.009,3.658 6.277,5.513 1.303,1.121 2.724,2.185 4.163,3.248 1.438,1.064 2.904,2.122 4.386,3.159 1.509,1.011 3.068,1.969 4.612,2.911 1.561,0.925 3.066,1.874 4.673,2.667 6.297,3.308 12.594,5.69 17.99,6.639 2.715,0.46 5.324,0.675 7.858,0.612 2.559,-0.093 4.995,-0.4 7.285,-0.861 2.277,-0.442 4.451,-1.102 6.466,-1.857 2.009,-0.748 3.851,-1.58 5.511,-2.431 3.306,-1.678 5.949,-3.528 7.747,-4.901 1.797,-1.376 2.771,-2.297 2.771,-2.297 0,0 -0.292,-0.203 -0.828,-0.575 -0.544,-0.356 -1.336,-0.876 -2.327,-1.525 -0.979,-0.669 -2.168,-1.447 -3.539,-2.279 -1.376,-0.829 -2.909,-1.751 -4.547,-2.736 -6.678,-3.826 -15.248,-8.411 -24.824,-10.674 -2.373,-0.588 -5.01,-1.026 -7.824,-1.389 -2.748,-0.421 -5.681,-0.758 -8.708,-1.054 -3.092,-0.319 -6.143,-0.634 -9.086,-0.938 -3.07,-0.277 -6.038,-0.609 -8.887,-0.931 -2.921,-0.329 -5.642,-0.635 -8.082,-0.909 -2.497,-0.324 -4.706,-0.611 -6.541,-0.85 -2.167,-0.278 -3.811,-0.489 -4.844,-0.622 -0.207,-0.195 -0.411,-0.388 -0.62,-0.584 -0.629,-0.61 -1.236,-1.248 -1.865,-1.886 -2.444,-2.668 -5.036,-5.421 -7.444,-8.424 -1.221,-1.491 -2.476,-3.001 -3.673,-4.57 -1.166,-1.586 -2.326,-3.206 -3.469,-4.86 l -1.727,-2.468 -1.635,-2.519 c -1.082,-1.687 -2.152,-3.386 -3.188,-5.109 -1.031,-1.726 -1.948,-3.487 -2.905,-5.22 -0.928,-1.742 -1.907,-3.454 -2.745,-5.188 -0.846,-1.729 -1.663,-3.451 -2.453,-5.151 -0.797,-1.698 -1.56,-3.376 -2.209,-5.041 -0.668,-1.668 -1.318,-3.292 -1.947,-4.862 -0.312,-0.791 -0.618,-1.568 -0.918,-2.331 -0.274,-0.77 -0.542,-1.525 -0.806,-2.265 -0.999,-2.993 -1.939,-5.759 -2.686,-8.231 -0.693,-2.491 -1.298,-4.663 -1.795,-6.452 -0.491,-1.798 -0.877,-3.218 -1.08,-4.19 -0.221,-0.973 -0.339,-1.491 -0.339,-1.491 0,0 0.108,0.524 0.311,1.507 0.183,0.98 0.545,2.415 1.002,4.235 z"
         inkscape:connector-curvature="0"
         style="fill:#bf9b2f" /><path
         id="path3578"
         d="m 53.287,410.735 c 0.133,1.978 0.237,3.989 0.51,6.018 0.496,4.062 0.938,8.226 1.734,12.414 0.368,2.095 0.758,4.182 1.202,6.262 0.507,2.07 1.015,4.146 1.525,6.229 l 0.777,3.094 c 0.283,1.026 0.601,2.045 0.906,3.058 0.619,2.024 1.258,4.02 1.927,5.964 0.672,1.954 1.443,3.868 2.158,5.752 0.75,1.879 1.401,3.739 2.223,5.524 0.834,1.741 1.655,3.454 2.458,5.131 0.406,0.828 0.808,1.647 1.204,2.457 0.429,0.796 0.852,1.581 1.269,2.356 1.572,2.979 3.159,5.644 4.799,8.048 0.551,0.996 1.118,2.012 1.715,3.057 0.817,1.418 1.637,2.888 2.608,4.333 1.917,2.9 3.852,5.931 6.151,8.778 1.121,1.437 2.263,2.857 3.417,4.248 1.18,1.377 2.432,2.694 3.656,3.981 1.245,1.276 2.434,2.538 3.726,3.681 1.284,1.147 2.561,2.234 3.821,3.25 2.48,2.057 5.083,3.706 7.471,5.021 1.205,0.651 2.392,1.244 3.613,1.744 1.235,0.49 2.464,0.914 3.683,1.277 2.448,0.718 4.8,1.229 7.151,1.48 4.719,0.492 9.005,0.266 12.716,-0.338 3.726,-0.615 6.777,-1.517 8.904,-2.251 2.126,-0.737 3.333,-1.303 3.333,-1.303 0,0 -0.812,-1.175 -2.309,-3.01 -0.38,-0.453 -0.798,-0.953 -1.25,-1.492 -0.441,-0.549 -0.915,-1.138 -1.417,-1.763 -1.01,-1.245 -2.22,-2.563 -3.488,-4.002 -5.168,-5.71 -11.855,-12.759 -20.225,-17.917 -2.166,-1.255 -4.419,-2.553 -6.973,-3.782 -1.26,-0.622 -2.597,-1.228 -3.922,-1.851 -1.311,-0.63 -2.659,-1.256 -4.033,-1.88 -5.841,-2.619 -11.534,-5.172 -16.542,-7.419 -5.156,-2.42 -9.929,-4.647 -13.323,-6.294 -1.921,-0.942 -3.383,-1.659 -4.314,-2.116 -0.799,-1.566 -1.604,-3.179 -2.44,-4.828 -0.764,-1.744 -1.494,-3.539 -2.251,-5.365 -0.732,-1.829 -1.554,-3.684 -2.202,-5.588 -1.373,-3.784 -2.741,-7.769 -3.764,-11.824 -0.539,-2.027 -1.105,-4.06 -1.616,-6.1 -0.458,-2.039 -0.899,-4.088 -1.3,-6.147 -0.875,-4.118 -1.357,-8.218 -1.942,-12.224 -0.53,-4.004 -0.761,-7.939 -1.041,-11.698 -0.136,-3.754 -0.201,-7.337 -0.262,-10.654 0.095,-3.318 0.21,-6.379 0.33,-9.102 0.139,-2.719 0.394,-5.081 0.554,-7.041 0.18,-1.957 0.315,-3.502 0.435,-4.551 0.139,-1.045 0.213,-1.603 0.213,-1.603 0,0 -0.085,0.559 -0.245,1.607 -0.139,1.052 -0.306,2.604 -0.524,4.568 -0.197,1.968 -0.504,4.34 -0.69,7.076 -0.172,2.738 -0.35,5.818 -0.506,9.16 0.009,3.343 -0.015,6.957 0.07,10.751 0.102,1.895 0.21,3.839 0.32,5.824 z"
         inkscape:connector-curvature="0"
         style="fill:#bf9b2f" /><path
         id="path3580"
         d="m 64.972,405.514 c 0.208,1.822 0.415,3.622 0.617,5.396 0.27,1.743 0.496,3.447 0.805,5.105 0.329,1.648 0.651,3.261 0.964,4.832 0.302,1.571 0.623,3.073 1.002,4.51 0.424,1.427 0.832,2.8 1.224,4.121 0.205,0.66 0.401,1.304 0.595,1.932 0.442,2.012 0.947,4.128 1.614,6.304 0.874,2.995 1.799,6.1 3.037,9.163 0.592,1.533 1.207,3.06 1.84,4.564 0.629,1.504 1.392,2.972 2.107,4.41 0.73,1.436 1.476,2.834 2.232,4.18 0.772,1.343 1.627,2.62 2.447,3.839 1.662,2.434 3.31,4.611 5.104,6.385 1.753,1.785 3.59,3.327 5.468,4.646 1.946,1.297 3.918,2.375 5.865,3.265 3.853,1.795 7.778,2.769 11.164,3.313 3.393,0.544 6.276,0.656 8.343,0.632 2.084,-0.034 3.31,-0.179 3.31,-0.179 0,0 -0.43,-1.234 -1.148,-3.299 -0.371,-1.026 -0.84,-2.249 -1.414,-3.611 -0.592,-1.355 -1.136,-2.906 -1.869,-4.517 -2.846,-6.481 -6.86,-14.517 -12.743,-21.316 -1.552,-1.687 -3.167,-3.431 -5.078,-5.187 -0.942,-0.88 -1.929,-1.768 -2.951,-2.659 -1.014,-0.903 -2.027,-1.806 -3.033,-2.702 -4.431,-3.782 -8.749,-7.469 -12.548,-10.712 -4.069,-3.403 -7.511,-6.515 -10.126,-8.779 -1.409,-1.226 -2.5,-2.174 -3.222,-2.801 -0.102,-0.468 -0.208,-0.931 -0.3,-1.407 -0.288,-1.616 -0.582,-3.266 -0.881,-4.945 -0.223,-1.718 -0.529,-3.475 -0.691,-5.256 -0.168,-1.792 -0.338,-3.607 -0.51,-5.439 -0.384,-3.692 -0.396,-7.462 -0.427,-11.32 -0.063,-1.922 0.053,-3.828 0.114,-5.752 0.079,-1.92 0.169,-3.846 0.287,-5.763 0.379,-3.796 0.714,-7.604 1.267,-11.253 1.041,-7.311 2.614,-14.169 4.148,-19.99 0.842,-2.898 1.586,-5.592 2.356,-7.937 0.802,-2.341 1.502,-4.381 2.078,-6.062 0.295,-0.843 0.56,-1.595 0.789,-2.25 0.251,-0.644 0.466,-1.192 0.639,-1.636 0.352,-0.889 0.539,-1.363 0.539,-1.363 0,0 -0.199,0.473 -0.571,1.359 -0.385,0.878 -0.904,2.19 -1.519,3.879 -0.616,1.679 -1.363,3.719 -2.221,6.058 -0.819,2.348 -1.63,5.041 -2.539,7.945 -1.667,5.838 -3.391,12.729 -4.606,20.106 -0.607,3.691 -1.07,7.528 -1.506,11.381 -0.155,1.943 -0.296,3.894 -0.418,5.843 -0.127,1.948 -0.24,3.894 -0.226,5.848 -0.084,3.918 -0.098,7.771 0.2,11.547 0.133,1.877 0.263,3.736 0.392,5.572 z"
         inkscape:connector-curvature="0"
         style="fill:#bf9b2f" /><path
         id="path3582"
         d="m 120.807,277.149 c 0.057,-0.062 0.093,-0.103 0.093,-0.103 0,0 -0.037,0.04 -0.093,0.103 z"
         inkscape:connector-curvature="0"
         style="fill:#bf9b2f" /><path
         id="path3584"
         d="m 117.547,293.144 c -1.189,1.762 -2.363,3.504 -3.449,5.271 -2.107,3.606 -4.242,7.044 -6.011,10.562 -0.841,1.745 -1.669,3.461 -2.479,5.14 -0.733,1.709 -1.45,3.381 -2.148,5.008 -1.477,3.204 -2.413,6.393 -3.331,9.275 -0.83,2.528 -1.434,4.92 -1.992,7.066 -0.453,1.348 -0.909,2.744 -1.358,4.18 -0.767,2.781 -1.498,5.701 -2.153,8.641 -0.551,2.992 -1.028,6.006 -1.365,8.942 -0.244,2.976 -0.368,5.867 -0.34,8.566 0.107,2.729 0.387,5.276 0.818,7.528 0.397,2.244 1.167,4.401 1.985,6.379 0.842,1.985 1.797,3.812 2.87,5.492 2.216,3.38 4.721,6.127 7.072,8.283 2.333,2.153 4.648,3.747 6.267,4.792 1.64,1.047 2.669,1.567 2.669,1.567 0,0 0.345,-1.171 0.76,-3.156 0.516,-1.965 1.088,-4.747 1.622,-7.99 1.059,-6.509 2.136,-14.758 0.821,-23.07 -0.305,-2.068 -0.812,-4.293 -1.45,-6.631 -0.579,-2.309 -1.263,-4.716 -2.03,-7.186 -0.79,-2.528 -1.57,-5.022 -2.322,-7.428 -0.815,-2.535 -1.6,-4.976 -2.334,-7.26 -1.5,-4.821 -2.795,-8.98 -3.716,-11.939 -0.478,-1.583 -0.854,-2.83 -1.108,-3.674 0.279,-0.734 0.572,-1.479 0.89,-2.241 0.649,-1.584 1.264,-3.264 2.018,-4.901 0.753,-1.654 1.522,-3.343 2.305,-5.062 0.833,-1.738 1.772,-3.444 2.738,-5.174 0.965,-1.73 1.937,-3.504 2.965,-5.266 2.118,-3.448 4.338,-7.05 6.891,-10.409 1.255,-1.697 2.489,-3.437 3.799,-5.098 1.337,-1.651 2.668,-3.295 3.989,-4.927 1.346,-1.645 2.787,-3.165 4.196,-4.703 1.423,-1.52 2.803,-3.071 4.244,-4.505 2.889,-2.848 5.709,-5.679 8.604,-8.105 1.44,-1.235 2.843,-2.438 4.199,-3.602 1.374,-1.147 2.75,-2.191 4.049,-3.23 1.326,-1.018 2.597,-1.994 3.808,-2.922 1.235,-0.895 2.432,-1.711 3.554,-2.491 2.259,-1.532 4.21,-2.938 5.889,-3.958 3.361,-2.08 5.282,-3.269 5.282,-3.269 0,0 -1.951,1.157 -5.367,3.184 -1.706,0.997 -3.694,2.37 -5.996,3.868 -1.143,0.765 -2.367,1.558 -3.623,2.442 -1.236,0.912 -2.535,1.87 -3.889,2.869 -1.328,1.024 -2.74,2.041 -4.14,3.181 -1.39,1.146 -2.827,2.331 -4.304,3.549 -0.73,0.612 -1.47,1.233 -2.219,1.861 -0.734,0.646 -1.458,1.321 -2.195,1.995 -1.468,1.353 -2.949,2.742 -4.43,4.166 -1.471,1.442 -2.908,2.968 -4.375,4.482 -1.465,1.517 -2.934,3.053 -4.332,4.687 -1.373,1.626 -2.756,3.266 -4.146,4.913 -1.337,1.687 -2.644,3.404 -3.949,5.107 l -1.938,2.562 c -0.606,0.882 -1.212,1.762 -1.815,2.639 z"
         inkscape:connector-curvature="0"
         style="fill:#bf9b2f" /><path
         id="path3586"
         d="m 206.208,236.694 c 0.069,-0.025 0.113,-0.042 0.113,-0.042 0,0 -0.044,0.016 -0.113,0.042 z"
         inkscape:connector-curvature="0"
         style="fill:#bf9b2f" /><path
         id="path3588"
         d="m 164.227,259.788 c -1.391,1.114 -2.792,2.236 -4.195,3.361 -1.386,1.139 -2.785,2.25 -4.095,3.48 -2.69,2.393 -5.323,4.753 -7.697,7.308 -1.19,1.257 -2.37,2.501 -3.536,3.732 -1.143,1.246 -2.219,2.533 -3.3,3.763 -1.023,1.265 -2.031,2.493 -2.988,3.716 -0.923,1.251 -1.826,2.475 -2.705,3.667 -0.891,1.18 -1.716,2.341 -2.472,3.488 -0.714,1.181 -1.401,2.316 -2.062,3.41 -1.297,2.189 -2.488,4.154 -3.425,5.988 -0.063,0.139 -0.121,0.268 -0.183,0.404 -0.514,0.833 -1.032,1.671 -1.57,2.543 -1.366,2.184 -2.624,4.598 -3.831,7.042 -0.599,1.226 -1.207,2.442 -1.748,3.694 -0.526,1.264 -1.029,2.528 -1.502,3.781 -0.472,1.252 -0.914,2.495 -1.318,3.715 -0.376,1.242 -0.697,2.476 -0.985,3.67 -0.551,2.406 -1.018,4.623 -1.105,6.745 -0.236,4.208 0.272,8.077 1.4,11.602 1.097,3.508 2.538,6.512 4.117,9.035 1.566,2.516 3.128,4.479 4.293,5.819 1.167,1.339 1.935,2.062 1.935,2.062 0,0 0.617,-0.935 1.513,-2.564 0.849,-1.657 2.196,-3.885 3.442,-6.633 2.648,-5.412 5.459,-12.561 6.37,-20.135 0.171,-1.939 0.278,-3.996 0.299,-6.174 0.022,-2.176 -0.083,-4.512 -0.177,-6.85 -0.077,-2.323 -0.207,-4.708 -0.357,-7.078 -0.08,-1.201 -0.158,-2.379 -0.235,-3.528 -0.065,-1.161 -0.128,-2.291 -0.19,-3.384 -0.41,-6.897 -0.737,-12.392 -0.878,-14.769 0.274,-0.402 0.546,-0.802 0.84,-1.213 0.824,-1.167 1.639,-2.416 2.554,-3.609 0.919,-1.203 1.858,-2.432 2.812,-3.681 4.06,-4.943 8.669,-10.037 13.897,-14.8 2.571,-2.39 5.291,-4.657 8.007,-6.903 2.787,-2.118 5.55,-4.271 8.343,-6.184 1.394,-0.956 2.783,-1.886 4.156,-2.789 1.372,-0.908 2.727,-1.788 4.089,-2.564 2.715,-1.573 5.287,-3.131 7.722,-4.423 2.484,-1.253 4.761,-2.402 6.779,-3.42 2.046,-0.971 3.862,-1.75 5.354,-2.42 1.5,-0.659 2.678,-1.176 3.481,-1.529 0.577,-0.257 0.958,-0.404 1.132,-0.468 -0.053,0.02 -0.118,0.043 -0.211,0.077 -0.214,0.076 -0.531,0.193 -0.939,0.365 -0.816,0.336 -2.013,0.83 -3.537,1.458 -1.515,0.641 -3.363,1.379 -5.443,2.315 -2.056,0.979 -4.375,2.083 -6.905,3.287 -2.481,1.258 -5.113,2.76 -7.892,4.287 -2.774,1.539 -5.581,3.38 -8.459,5.223 -2.86,1.896 -5.723,3.983 -8.595,6.081 z"
         inkscape:connector-curvature="0"
         style="fill:#bf9b2f" /><path
         id="path3590"
         d="m 195.298,249.318 c -1.666,0.937 -3.315,1.845 -4.917,2.788 -1.575,0.985 -3.131,1.958 -4.662,2.916 -2.986,1.939 -5.713,4.071 -8.304,5.992 -1.32,0.933 -2.522,1.948 -3.654,2.958 -1.135,1.002 -2.205,1.986 -3.23,2.925 -0.509,0.47 -1.008,0.93 -1.495,1.38 -0.472,0.471 -0.932,0.931 -1.381,1.379 -0.887,0.895 -1.729,1.744 -2.521,2.542 -0.288,0.33 -0.562,0.645 -0.832,0.958 -0.735,0.667 -1.479,1.351 -2.231,2.06 -1.839,1.835 -3.734,3.766 -5.554,5.79 -1.776,2.087 -3.503,4.23 -5.098,6.365 -1.541,2.206 -2.941,4.416 -4.145,6.541 -1.196,2.135 -2.106,4.294 -2.806,6.248 -2.746,7.926 -1.75,15.727 -0.063,21.359 0.834,2.821 1.793,5.093 2.579,6.703 0.786,1.609 1.344,2.512 1.344,2.512 0,0 0.799,-0.775 2.137,-2.073 0.662,-0.654 1.44,-1.455 2.287,-2.388 0.418,-0.471 0.861,-0.969 1.323,-1.49 0.476,-0.507 0.965,-1.044 1.46,-1.611 3.871,-4.649 8.635,-10.596 11.402,-17.78 0.709,-1.775 1.327,-3.766 1.889,-5.903 0.58,-2.111 1.145,-4.309 1.653,-6.612 0.99,-4.644 2.025,-9.319 2.896,-13.744 1.404,-6.721 2.524,-12.083 3.019,-14.448 0.906,-0.811 1.858,-1.621 2.913,-2.403 1.242,-0.975 2.52,-1.977 3.825,-3 1.316,-1.025 2.716,-1.972 4.129,-2.989 1.466,-0.965 2.956,-1.979 4.501,-2.94 1.567,-0.932 3.154,-1.875 4.753,-2.826 0.807,-0.474 1.619,-0.95 2.437,-1.43 0.825,-0.463 1.673,-0.883 2.522,-1.321 1.701,-0.867 3.435,-1.72 5.187,-2.563 1.736,-0.863 3.524,-1.587 5.306,-2.367 1.789,-0.744 3.573,-1.554 5.386,-2.201 1.822,-0.65 3.633,-1.296 5.424,-1.936 0.904,-0.31 1.803,-0.617 2.697,-0.923 0.902,-0.269 1.799,-0.535 2.688,-0.8 1.777,-0.538 3.541,-1.049 5.28,-1.536 1.738,-0.509 3.458,-0.843 5.138,-1.242 1.688,-0.372 3.33,-0.735 4.918,-1.085 1.594,-0.339 3.139,-0.574 4.624,-0.852 5.96,-1.103 11.037,-1.509 14.593,-1.9 1.78,-0.206 3.185,-0.252 4.144,-0.315 0.959,-0.055 1.472,-0.083 1.472,-0.083 0,0 -0.515,0.019 -1.481,0.053 -0.965,0.042 -2.378,0.061 -4.17,0.23 -3.581,0.314 -8.697,0.625 -14.724,1.608 -1.502,0.251 -3.064,0.444 -4.679,0.766 -1.609,0.319 -3.273,0.65 -4.983,0.989 -3.411,0.636 -6.964,1.583 -10.581,2.588 -0.905,0.25 -1.817,0.503 -2.736,0.757 -0.91,0.292 -1.826,0.586 -2.748,0.881 -1.828,0.608 -3.676,1.222 -5.537,1.841 -1.846,0.651 -3.677,1.406 -5.509,2.129 -1.825,0.753 -3.661,1.438 -5.438,2.306 -3.595,1.641 -7.149,3.255 -10.447,5.197 z"
         inkscape:connector-curvature="0"
         style="fill:#bf9b2f" /><path
         id="path3592"
         d="m 259.845,239.21 c -3.104,0.353 -6.288,0.719 -9.488,1.339 -1.594,0.295 -3.198,0.592 -4.807,0.89 -1.601,0.301 -3.199,0.738 -4.785,1.12 -1.599,0.374 -3.181,0.77 -4.743,1.182 -1.56,0.431 -3.095,0.95 -4.61,1.434 -1.505,0.5 -2.997,0.996 -4.471,1.486 -1.461,0.53 -2.892,1.098 -4.299,1.629 -1.371,0.581 -2.718,1.153 -4.036,1.712 -1.307,0.577 -2.566,1.209 -3.791,1.791 -2.469,1.157 -4.7,2.334 -6.701,3.596 -1.986,1.223 -3.807,2.344 -5.42,3.338 -0.656,0.488 -1.261,0.953 -1.828,1.393 -0.636,0.369 -1.276,0.75 -1.924,1.157 -3.943,2.315 -8.02,5.287 -11.628,8.354 -1.781,1.591 -3.45,3.2 -4.932,4.786 -1.471,1.608 -2.712,3.279 -3.726,4.829 -2.043,3.081 -3.226,6.49 -3.923,9.662 -0.345,1.595 -0.57,3.131 -0.682,4.623 -0.102,1.508 -0.11,2.938 -0.059,4.262 0.103,2.647 0.444,4.867 0.753,6.428 0.31,1.561 0.584,2.465 0.584,2.465 0,0 0.905,-0.449 2.342,-1.312 0.719,-0.432 1.571,-0.967 2.512,-1.603 0.954,-0.614 2.026,-1.281 3.134,-2.067 4.408,-3.207 9.866,-7.376 13.766,-13.103 0.993,-1.393 1.948,-2.991 2.881,-4.729 0.466,-0.869 0.927,-1.772 1.382,-2.701 0.466,-0.901 0.929,-1.822 1.386,-2.764 1.827,-3.762 3.579,-7.841 5.228,-11.415 2.445,-5.492 4.403,-9.889 5.304,-11.913 0.979,-0.554 2.007,-1.11 3.113,-1.666 2.331,-1.262 4.863,-2.354 7.502,-3.575 2.706,-1.171 5.543,-2.196 8.478,-3.244 2.93,-1.098 5.975,-1.966 9.097,-2.786 3.093,-0.922 6.239,-1.558 9.377,-2.21 3.138,-0.698 6.266,-1.108 9.321,-1.551 1.524,-0.211 3.033,-0.462 4.518,-0.591 1.49,-0.122 2.951,-0.241 4.374,-0.357 1.432,-0.103 2.827,-0.203 4.175,-0.3 1.352,-0.084 2.656,-0.089 3.914,-0.138 2.522,-0.033 4.852,-0.075 6.917,-0.057 2.065,0.077 3.867,0.144 5.35,0.199 1.491,0.065 2.663,0.117 3.461,0.152 0.802,0.029 1.224,0.078 1.224,0.078 0,0 -0.424,-0.06 -1.229,-0.109 -0.802,-0.056 -1.979,-0.137 -3.477,-0.24 -1.492,-0.093 -3.303,-0.207 -5.38,-0.336 -2.079,-0.063 -4.424,-0.085 -6.968,-0.115 -1.269,0.019 -2.585,-0.02 -3.952,0.044 -1.363,0.062 -2.772,0.127 -4.221,0.194 -1.441,0.081 -2.92,0.163 -4.43,0.248 -1.503,0.115 -3.034,0.312 -4.583,0.491 z"
         inkscape:connector-curvature="0"
         style="fill:#bf9b2f" /><path
         id="path3594"
         d="m 283.301,244.548 c -3.229,0.014 -6.425,0.207 -9.53,0.399 -3.111,0.275 -6.145,0.679 -9.063,1.008 -2.884,0.46 -5.643,1.079 -8.235,1.59 -2.605,0.445 -4.993,1.26 -7.182,1.919 -2.188,0.689 -4.172,1.272 -5.914,1.942 -0.704,0.31 -1.361,0.599 -1.983,0.873 -0.693,0.205 -1.393,0.414 -2.106,0.631 -8.746,2.733 -18.614,7.363 -23.959,12.617 -0.677,0.635 -1.312,1.289 -1.904,1.957 -0.585,0.699 -1.129,1.411 -1.633,2.13 -1.01,1.438 -1.863,2.907 -2.58,4.365 -1.447,2.882 -2.299,5.883 -2.833,8.464 -0.531,2.591 -0.729,4.826 -0.801,6.414 -0.071,1.587 -0.02,2.53 -0.02,2.53 0,0 0.987,-0.218 2.591,-0.709 1.606,-0.487 3.81,-1.296 6.357,-2.223 1.267,-0.485 2.604,-1.06 3.977,-1.709 1.389,-0.588 2.812,-1.265 4.231,-2.045 0.71,-0.39 1.42,-0.805 2.125,-1.249 0.71,-0.415 1.419,-0.841 2.117,-1.305 1.396,-0.924 2.755,-1.966 4.042,-3.14 2.584,-2.247 5.242,-5.299 7.907,-8.575 2.667,-3.172 5.335,-6.721 7.772,-9.846 2.433,-3.107 4.622,-5.966 6.204,-8.047 0.733,-0.959 1.322,-1.729 1.752,-2.292 0.952,-0.26 1.937,-0.514 2.986,-0.744 1.255,-0.293 2.544,-0.594 3.862,-0.901 0.664,-0.151 1.336,-0.303 2.014,-0.458 0.682,-0.125 1.37,-0.251 2.064,-0.378 2.831,-0.387 5.783,-0.912 8.812,-1.203 3.026,-0.263 6.156,-0.575 9.321,-0.625 3.14,-0.055 6.337,-0.127 9.485,-0.011 3.138,0.168 6.271,0.324 9.298,0.605 3.009,0.318 5.945,0.693 8.744,1.08 2.779,0.506 5.411,0.986 7.832,1.427 1.226,0.227 2.382,0.5 3.479,0.775 1.101,0.271 2.146,0.528 3.127,0.77 1.961,0.502 3.699,0.899 5.093,1.319 2.798,0.842 4.396,1.323 4.396,1.323 0,0 -1.597,-0.525 -4.39,-1.444 -1.394,-0.456 -3.129,-0.902 -5.092,-1.458 -0.982,-0.269 -2.027,-0.555 -3.13,-0.857 -0.55,-0.148 -1.114,-0.3 -1.691,-0.456 -0.585,-0.134 -1.184,-0.271 -1.794,-0.41 -2.446,-0.51 -5.084,-1.089 -7.872,-1.64 -2.816,-0.463 -5.776,-0.921 -8.815,-1.324 -3.062,-0.339 -6.229,-0.601 -9.412,-0.853 -3.201,-0.166 -6.447,-0.21 -9.649,-0.236 z"
         inkscape:connector-curvature="0"
         style="fill:#bf9b2f" /><path
         id="path3596"
         d="m 321.515,257.988 c -1.286,-0.286 -2.58,-0.575 -3.878,-0.864 l -3.943,-0.658 c -2.63,-0.456 -5.225,-0.874 -7.819,-1.062 -2.586,-0.213 -5.091,-0.465 -7.541,-0.574 -2.418,-0.003 -4.757,-0.007 -6.976,-0.01 -2.204,-0.031 -4.292,0.251 -6.192,0.417 -1.906,0.209 -3.627,0.337 -5.161,0.583 -0.95,0.204 -1.81,0.388 -2.589,0.555 -0.487,0.042 -0.98,0.086 -1.478,0.129 -4.15,0.303 -8.675,1.2 -12.858,2.205 -2.095,0.59 -4.108,1.268 -5.961,1.986 -1.854,0.712 -3.547,1.493 -5.008,2.418 -2.925,1.816 -5.303,3.943 -7.186,6.334 -1.884,2.381 -3.283,4.828 -4.309,7.03 -1.026,2.197 -1.681,4.159 -2.083,5.609 -0.401,1.435 -0.557,2.305 -0.557,2.305 0,0 0.925,-0.046 2.473,-0.122 1.548,-0.072 3.707,-0.248 6.184,-0.663 2.484,-0.287 5.288,-0.844 8.159,-1.662 1.436,-0.372 2.89,-0.836 4.333,-1.414 1.443,-0.578 2.875,-1.288 4.261,-2.016 1.387,-0.757 2.826,-1.7 4.299,-2.769 0.736,-0.534 1.482,-1.1 2.232,-1.689 0.755,-0.582 1.509,-1.164 2.257,-1.741 1.511,-1.194 3.032,-2.455 4.527,-3.724 1.52,-1.295 2.983,-2.542 4.353,-3.708 2.782,-2.355 5.291,-4.533 7.106,-6.121 0.807,-0.704 1.459,-1.273 1.947,-1.699 0.646,-0.053 1.305,-0.094 1.993,-0.1 2.143,-0.073 4.402,-0.149 6.738,-0.229 2.383,0.111 4.836,0.226 7.34,0.343 0.632,0.038 1.267,0.075 1.904,0.113 0.632,0.068 1.266,0.136 1.902,0.205 1.275,0.145 2.562,0.306 3.857,0.49 1.288,0.167 2.597,0.314 3.88,0.534 1.281,0.242 2.561,0.484 3.832,0.724 2.548,0.499 5.082,1.005 7.482,1.664 2.408,0.625 4.778,1.228 6.982,1.921 2.203,0.727 4.289,1.415 6.209,2.048 1.944,0.641 3.654,1.374 5.204,1.979 1.545,0.623 2.893,1.166 4.002,1.613 1.12,0.439 1.968,0.84 2.552,1.105 0.584,0.267 0.896,0.409 0.896,0.409 0,0 -0.31,-0.153 -0.889,-0.44 -0.58,-0.287 -1.423,-0.715 -2.537,-1.192 -1.104,-0.485 -2.444,-1.075 -3.982,-1.751 -1.54,-0.662 -3.248,-1.448 -5.188,-2.156 -1.919,-0.702 -4.004,-1.464 -6.208,-2.27 -2.217,-0.755 -4.589,-1.454 -7.015,-2.164 -2.41,-0.748 -4.978,-1.316 -7.546,-1.921 z"
         inkscape:connector-curvature="0"
         style="fill:#bf9b2f" /><path
         id="path3598"
         d="m 384.969,294.557 c -0.978,-0.757 -2.164,-1.675 -3.524,-2.729 -1.388,-1.018 -2.985,-2.125 -4.709,-3.337 -0.867,-0.589 -1.772,-1.204 -2.709,-1.84 -0.94,-0.628 -1.951,-1.231 -2.969,-1.87 -2.061,-1.246 -4.169,-2.618 -6.475,-3.83 -2.3,-1.227 -4.657,-2.492 -7.076,-3.701 -2.464,-1.146 -4.966,-2.27 -7.462,-3.335 -2.524,-1.062 -5.089,-1.971 -7.581,-2.856 -2.491,-0.888 -5.031,-1.547 -7.422,-2.286 -2.39,-0.667 -4.76,-1.144 -6.979,-1.61 -2.223,-0.486 -4.3,-0.854 -6.277,-1.04 -1.946,-0.207 -3.729,-0.397 -5.313,-0.565 -1.031,-0.056 -1.97,-0.075 -2.815,-0.078 -0.486,-0.067 -0.979,-0.128 -1.483,-0.179 -8.272,-1.208 -18.313,-0.871 -24.751,1.222 -3.257,1.141 -6.062,2.799 -8.404,4.643 -2.351,1.893 -4.252,4.029 -5.729,5.961 -2.951,3.885 -4.279,7.112 -4.279,7.112 0,0 0.907,0.223 2.436,0.469 0.764,0.123 1.684,0.253 2.727,0.364 1.045,0.098 2.208,0.206 3.452,0.323 4.999,0.409 11.385,0.403 17.464,-1.341 1.524,-0.451 3.14,-1.073 4.818,-1.81 1.661,-0.686 3.377,-1.465 5.121,-2.319 1.742,-0.847 3.514,-1.772 5.251,-2.681 1.722,-0.871 3.422,-1.757 5.045,-2.615 4.814,-2.576 8.684,-4.646 10.517,-5.627 0.797,0.113 1.614,0.24 2.473,0.403 1.082,0.192 2.193,0.391 3.331,0.593 1.126,0.25 2.276,0.506 3.446,0.766 4.745,1.175 9.749,2.657 14.768,4.577 2.477,0.966 4.972,1.983 7.425,3.041 2.399,1.132 4.77,2.289 7.072,3.433 2.296,1.142 4.427,2.415 6.498,3.587 2.083,1.161 3.97,2.382 5.725,3.499 1.743,1.15 3.363,2.196 4.766,3.168 1.381,1.004 2.585,1.879 3.576,2.599 1.985,1.462 3.12,2.297 3.12,2.297 0,0 -1.12,-0.877 -3.074,-2.408 z"
         inkscape:connector-curvature="0"
         style="fill:#bf9b2f" /><path
         id="path3600"
         d="m 191.436,368.147 c 1.238,-0.707 2.332,-1.369 3.284,-1.961 0.974,-0.571 1.866,-1.01 2.565,-1.398 1.387,-0.791 2.235,-1.154 2.234,-1.154 0,0 -0.87,0.328 -2.299,1.061 -0.722,0.357 -1.637,0.764 -2.646,1.292 -0.984,0.553 -2.115,1.172 -3.394,1.834 -1.233,0.729 -2.573,1.521 -3.988,2.357 -0.692,0.457 -1.402,0.926 -2.127,1.404 -0.74,0.476 -1.53,0.946 -2.26,1.485 -1.492,1.059 -3.115,2.14 -4.636,3.365 -0.769,0.606 -1.627,1.178 -2.386,1.823 -0.768,0.639 -1.558,1.279 -2.37,1.918 -0.823,0.639 -1.549,1.339 -2.321,2.019 -0.765,0.683 -1.573,1.349 -2.367,2.019 -0.755,0.704 -1.504,1.403 -2.245,2.093 -0.76,0.694 -1.51,1.394 -2.175,2.124 -1.444,1.375 -2.947,2.717 -4.183,4.101 -0.375,0.42 -0.762,0.819 -1.15,1.209 -0.603,0.058 -1.299,0.13 -2.098,0.225 -2.762,0.319 -6.397,0.961 -10.567,2.032 -2.103,0.53 -4.19,1.206 -6.33,1.997 -2.124,0.794 -4.324,1.7 -6.365,2.743 -4.024,2.092 -7.872,4.662 -10.437,7.52 -2.718,2.832 -4.465,6.292 -5.815,9.823 -1.145,3.543 -1.898,7.162 -2.035,10.373 -0.091,1.605 -0.186,3.113 -0.11,4.461 0.069,1.348 0.171,2.542 0.277,3.533 0.105,0.991 0.213,1.78 0.295,2.32 0.074,0.542 0.157,0.832 0.157,0.832 0,0 1.046,-0.444 2.793,-1.303 1.738,-0.856 4.143,-2.118 6.804,-3.697 2.659,-1.58 5.55,-3.47 8.468,-5.611 1.438,-1.069 2.84,-2.2 4.153,-3.39 1.314,-1.189 2.666,-2.438 3.812,-3.75 1.157,-1.312 2.237,-2.778 3.406,-4.306 0.565,-0.766 1.113,-1.552 1.642,-2.349 0.259,-0.397 0.521,-0.798 0.785,-1.203 0.276,-0.398 0.556,-0.799 0.836,-1.204 2.13,-3.232 4.198,-6.479 6.047,-9.335 0.975,-1.417 1.776,-2.768 2.581,-3.958 0.828,-1.183 1.53,-2.24 2.099,-3.125 0.171,-0.189 0.331,-0.365 0.506,-0.558 0.624,-0.653 1.271,-1.321 1.865,-2.032 0.627,-0.694 1.231,-1.411 1.897,-2.115 0.685,-0.686 1.384,-1.386 2.095,-2.099 1.259,-1.492 2.806,-2.888 4.207,-4.327 0.711,-0.712 1.527,-1.377 2.249,-2.083 0.76,-0.688 1.407,-1.43 2.203,-2.085 1.564,-1.313 2.989,-2.666 4.548,-3.872 0.766,-0.609 1.454,-1.251 2.219,-1.821 0.75,-0.569 1.493,-1.132 2.222,-1.686 0.703,-0.561 1.445,-1.068 2.167,-1.561 0.713,-0.499 1.396,-0.992 2.049,-1.474 1.362,-0.89 2.652,-1.731 3.839,-2.506 z"
         inkscape:connector-curvature="0"
         style="fill:#bf9b2f" /><path
         id="path3602"
         d="m 311.655,341.701 c -0.474,-0.824 -1.098,-1.663 -1.734,-2.646 -1.201,-2.034 -2.876,-4.168 -4.573,-6.655 -0.905,-1.171 -1.845,-2.402 -2.799,-3.688 -0.936,-1.182 -1.924,-2.35 -2.884,-3.586 -0.01,-0.46 -0.024,-0.989 -0.048,-1.593 -0.07,-2.171 -0.326,-5.035 -0.851,-8.299 -0.263,-1.628 -0.597,-3.346 -1.012,-5.09 -0.43,-1.706 -0.953,-3.407 -1.557,-5.083 -0.605,-1.67 -1.292,-3.312 -2.066,-4.823 -0.79,-1.46 -1.658,-2.812 -2.589,-3.983 -3.709,-4.756 -9.537,-7.341 -14.293,-8.625 -1.185,-0.361 -2.321,-0.544 -3.342,-0.707 -1.021,-0.16 -1.932,-0.271 -2.692,-0.348 -1.52,-0.154 -2.434,-0.171 -2.434,-0.171 0,0 0.684,3.492 2.284,7.976 0.795,2.25 1.814,4.705 3.059,7.161 1.238,2.505 2.708,4.953 4.486,7.023 3.527,4.361 9.097,8.476 13.393,12.157 1.107,0.837 2.111,1.722 3.032,2.481 0.92,0.758 1.748,1.413 2.444,1.95 0.723,0.607 1.292,1.08 1.671,1.393 0.868,0.995 1.741,1.963 2.599,2.902 1.006,1.228 1.999,2.402 2.957,3.516 1.809,2.369 3.588,4.402 4.885,6.354 0.683,0.941 1.347,1.747 1.866,2.533 0.518,0.779 0.969,1.458 1.341,2.018 0.741,1.1 1.166,1.729 1.166,1.729 0,0 -0.391,-0.653 -1.072,-1.796 -0.342,-0.584 -0.759,-1.29 -1.237,-2.1 z"
         inkscape:connector-curvature="0"
         style="fill:#bf9b2f" /></g><g
       id="g3604"><g
         id="g3606"><path
           id="path3608"
           d="m 224.971,358.943 0,47.65 -6.805,0 0,-47.65 6.805,0 z"
           inkscape:connector-curvature="0"
           style="fill:#683c11" /></g><g
         id="g3610"><path
           id="path3612"
           d="m 239.056,374.898 0,31.695 -6.809,0 0,-47.65 5.106,0 11.911,29.464 0,-29.464 6.811,0 0,47.65 -4.843,0 -12.176,-31.695 z"
           inkscape:connector-curvature="0"
           style="fill:#683c11" /></g><g
         id="g3614"><path
           id="path3616"
           d="m 283.178,365.005 -8.513,0 0,41.588 -6.807,0 0,-41.588 -8.508,0 0,-6.062 23.827,0 0,6.062 z"
           inkscape:connector-curvature="0"
           style="fill:#683c11" /></g><g
         id="g3618"><path
           id="path3620"
           d="m 293.265,384.467 0,17.022 11.912,0 0,5.104 -18.721,0 0,-47.65 18.721,0 0,5.106 -11.912,0 0,15.314 8.511,0 0,5.104 -8.511,0 z"
           inkscape:connector-curvature="0"
           style="fill:#683c11" /></g><g
         id="g3622"><path
           id="path3624"
           d="m 327.201,382.765 7.664,23.828 -6.752,0 -6.863,-22.126 -5.106,0 0,22.126 -6.809,0 0,-47.65 8.511,0 c 9.711,0 15.315,3.297 15.315,12.76 0,5.612 -1.994,9.627 -5.96,11.062 z m -9.355,-18.716 -1.702,0 0,15.314 1.702,0 c 5.504,0 8.514,-2.097 8.514,-7.66 -0.001,-5.557 -3.01,-7.654 -8.514,-7.654 z"
           inkscape:connector-curvature="0"
           style="fill:#683c11" /></g><g
         id="g3626"><path
           id="path3628"
           d="m 345.588,374.898 0,31.695 -6.809,0 0,-47.65 5.112,0 11.907,29.464 0,-29.464 6.809,0 0,47.65 -4.839,0 -12.18,-31.695 z"
           inkscape:connector-curvature="0"
           style="fill:#683c11" /></g><g
         id="g3630"><path
           id="path3632"
           d="m 372.987,406.593 -6.812,0 10.21,-47.65 6.812,0 10.212,47.65 -6.812,0 -2.55,-11.913 -8.515,0 -2.545,11.913 z m 6.809,-37.444 -3.41,20.425 6.812,0 -3.402,-20.425 z"
           inkscape:connector-curvature="0"
           style="fill:#683c11" /></g><g
         id="g3634"><path
           id="path3636"
           d="m 414.055,365.005 -8.515,0 0,41.588 -6.809,0 0,-41.588 -8.503,0 0,-6.062 23.826,0 0,6.062 z"
           inkscape:connector-curvature="0"
           style="fill:#683c11" /></g><g
         id="g3638"><path
           id="path3640"
           d="m 424.459,358.943 0,47.65 -6.805,0 0,-47.65 6.805,0 z"
           inkscape:connector-curvature="0"
           style="fill:#683c11" /></g><g
         id="g3642"><path
           id="path3644"
           d="m 457.16,373.997 0,17.281 c 0,9.572 -3.458,15.793 -13.139,15.793 -9.762,0 -13.14,-6.089 -13.14,-15.793 l 0,-17.281 c 0,-9.709 3.378,-15.534 13.14,-15.534 9.681,0 13.139,5.957 13.139,15.534 z m -19.467,-1.707 0,20.689 c 0,5.107 1.222,8.51 6.328,8.51 5.103,0 6.327,-3.403 6.327,-8.51 l 0,-20.689 c 0,-5.104 -1.225,-8.241 -6.327,-8.241 -5.106,0 -6.328,3.137 -6.328,8.241 z"
           inkscape:connector-curvature="0"
           style="fill:#683c11" /></g><g
         id="g3646"><path
           id="path3648"
           d="m 469.905,374.898 0,31.695 -6.812,0 0,-47.65 5.103,0 11.915,29.464 0,-29.464 6.811,0 0,47.65 -4.841,0 -12.176,-31.695 z"
           inkscape:connector-curvature="0"
           style="fill:#683c11" /></g><g
         id="g3650"><path
           id="path3652"
           d="m 497.292,406.593 -6.811,0 10.214,-47.65 6.808,0 10.212,47.65 -6.809,0 -2.553,-11.913 -8.507,0 -2.554,11.913 z m 6.806,-37.444 -3.402,20.425 6.808,0 -3.406,-20.425 z"
           inkscape:connector-curvature="0"
           style="fill:#683c11" /></g><g
         id="g3654"><path
           id="path3656"
           d="m 521.287,358.943 6.807,0 0,42.546 11.913,0 0,5.104 -18.72,0 0,-47.65 z"
           inkscape:connector-curvature="0"
           style="fill:#683c11" /></g><g
         id="g3658"><path
           id="path3660"
           d="m 233.436,479.453 -14.776,0 0,-59.098 12.666,0 c 10.652,0 18.009,4.355 18.009,14.775 0,7.684 -3.398,10.945 -9.563,12.665 6.562,2.178 10.552,5.969 10.552,14.771 -0.001,10.427 -6.467,16.887 -16.888,16.887 z m 8.443,-44.322 c 0,-8.344 -6.465,-8.442 -14.773,-8.442 l 0,18.995 4.221,0 c 6.992,0 10.552,-3.426 10.552,-10.553 z m -10.553,16.887 -4.221,0 0,21.109 4.221,0 c 7.288,0 10.553,-3.169 10.553,-10.56 0,-7.382 -3.265,-10.549 -10.553,-10.549 z"
           inkscape:connector-curvature="0"
           style="fill:#683c11" /></g><g
         id="g3662"><path
           id="path3664"
           d="m 259.48,479.453 -8.444,0 12.667,-59.098 8.445,0 12.657,59.098 -8.441,0 -3.162,-14.771 -10.555,0 -3.167,14.771 z m 8.443,-46.431 -4.22,25.329 8.445,0 -4.225,-25.329 z"
           inkscape:connector-curvature="0"
           style="fill:#683c11" /></g><g
         id="g3666"><path
           id="path3668"
           d="m 311.418,449.906 9.496,29.547 -8.377,0 -8.507,-27.436 -6.334,0 0,27.436 -8.445,0 0,-59.098 10.558,0 c 12.035,0 18.995,4.09 18.995,15.832 0,6.956 -2.471,11.939 -7.386,13.719 z m -11.609,-23.218 -2.112,0 0,18.995 2.112,0 c 6.825,0 10.552,-2.605 10.552,-9.496 0,-6.891 -3.727,-9.499 -10.552,-9.499 z"
           inkscape:connector-curvature="0"
           style="fill:#683c11" /></g><g
         id="g3670"><path
           id="path3672"
           d="m 325.784,420.355 8.445,0 0,52.771 14.776,0 0,6.326 -23.222,0 0,-59.097 z"
           inkscape:connector-curvature="0"
           style="fill:#683c11" /></g><g
         id="g3674"><path
           id="path3676"
           d="m 361.368,452.018 0,21.109 14.771,0 0,6.326 -23.216,0 0,-59.098 23.216,0 0,6.333 -14.771,0 0,18.995 10.55,0 0,6.334 -10.55,0 z"
           inkscape:connector-curvature="0"
           style="fill:#683c11" /></g><g
         id="g3678"><path
           id="path3680"
           d="m 389.656,460.46 -12.666,-40.104 8.445,0 8.437,29.551 8.444,-29.551 8.441,0 -12.657,40.104 0,18.993 -8.444,0 0,-18.993 z"
           inkscape:connector-curvature="0"
           style="fill:#683c11" /></g><g
         id="g3682"><path
           id="path3684"
           d="m 434.86,452.018 0,27.436 -8.444,0 0,-59.098 8.444,0 0,25.328 14.775,0 0,-25.328 8.442,0 0,59.098 -8.442,0 0,-27.436 -14.775,0 z"
           inkscape:connector-curvature="0"
           style="fill:#683c11" /></g><g
         id="g3686"><path
           id="path3688"
           d="m 482.932,480.082 c -13.126,0 -16.884,-8.708 -16.884,-21.73 l 0,-10.997 0,-26.999 8.44,0 0,37.996 c 0,7.812 0.627,14.775 8.443,14.775 7.82,0 8.442,-6.963 8.442,-14.775 l 0,-37.996 8.444,0 0,37.996 c 10e-4,13.022 -3.755,21.73 -16.885,21.73 z"
           inkscape:connector-curvature="0"
           style="fill:#683c11" /></g><g
         id="g3690"><path
           id="path3692"
           d="m 522.568,479.453 -14.775,0 0,-59.098 12.666,0 c 10.65,0 18.005,4.355 18.005,14.775 0,7.684 -3.396,10.945 -9.563,12.665 6.565,2.178 10.555,5.969 10.555,14.771 -10e-4,10.427 -6.467,16.887 -16.888,16.887 z m 8.443,-44.322 c 0,-8.344 -6.46,-8.442 -14.776,-8.442 l 0,18.995 4.225,0 c 6.99,0 10.551,-3.426 10.551,-10.553 z m -10.552,16.887 -4.225,0 0,21.109 4.225,0 c 7.289,0 10.552,-3.169 10.552,-10.56 0,-7.382 -3.263,-10.549 -10.552,-10.549 z"
           inkscape:connector-curvature="0"
           style="fill:#683c11" /></g></g></g></svg>