<?xml version="1.0" encoding="UTF-8" standalone="no"?>
<!-- Created with Inkscape (http://www.inkscape.org/) -->

<svg
   xmlns:dc="http://purl.org/dc/elements/1.1/"
   xmlns:cc="http://creativecommons.org/ns#"
   xmlns:rdf="http://www.w3.org/1999/02/22-rdf-syntax-ns#"
   xmlns:svg="http://www.w3.org/2000/svg"
   xmlns="http://www.w3.org/2000/svg"
   xmlns:sodipodi="http://sodipodi.sourceforge.net/DTD/sodipodi-0.dtd"
   xmlns:inkscape="http://www.inkscape.org/namespaces/inkscape"
   version="1.1"
   id="svg2"
   xml:space="preserve"
   width="660.6427"
   height="212.65199"
   viewBox="0 0 660.6427 212.65199"
   sodipodi:docname="innovate-uk.svg"
   inkscape:version="0.92.4 (5da689c313, 2019-01-14)"><metadata
     id="metadata8"><rdf:RDF><cc:Work
         rdf:about=""><dc:format>image/svg+xml</dc:format><dc:type
           rdf:resource="http://purl.org/dc/dcmitype/StillImage" /><dc:title></dc:title></cc:Work></rdf:RDF></metadata><defs
     id="defs6"><clipPath
       clipPathUnits="userSpaceOnUse"
       id="clipPath20"><path
         d="M 0,159.489 H 495.482 V 0 H 0 Z"
         id="path18"
         inkscape:connector-curvature="0" /></clipPath></defs><sodipodi:namedview
     pagecolor="#ffffff"
     bordercolor="#666666"
     borderopacity="1"
     objecttolerance="10"
     gridtolerance="10"
     guidetolerance="10"
     inkscape:pageopacity="0"
     inkscape:pageshadow="2"
     inkscape:window-width="2087"
     inkscape:window-height="970"
     id="namedview4"
     showgrid="false"
     inkscape:zoom="1.1836958"
     inkscape:cx="227.77486"
     inkscape:cy="70.012096"
     inkscape:window-x="0"
     inkscape:window-y="0"
     inkscape:window-maximized="0"
     inkscape:current-layer="g10" /><g
     id="g10"
     inkscape:groupmode="layer"
     inkscape:label="UKRI_IUK-Logo_Horiz-RGB"
     transform="matrix(1.3333333,0,0,-1.3333333,0,212.652)"><path
       d="m 321.113,78.322 h -6.395 v 32.204 h 6.395 z"
       style="fill:#2e2d62;fill-opacity:1;fill-rule:nonzero;stroke:none"
       id="path12"
       inkscape:connector-curvature="0" /><g
       id="g14"><g
         id="g16"
         clip-path="url(#clipPath20)"><g
           id="g22"
           transform="translate(348.9,90.7892)"><path
             d="M 0,0 V -12.467 H -6.119 V -1.38 c 0,0.782 0.552,6.579 -3.864,6.809 -2.163,0.138 -6.027,-1.058 -6.027,-7.085 v -10.811 h -6.073 v 23.002 h 4.692 l 0.783,-2.806 h 0.782 c 0.966,1.15 3.128,3.036 6.993,3.036 C -2.898,10.765 0,6.349 0,0"
             style="fill:#2e2d62;fill-opacity:1;fill-rule:nonzero;stroke:none"
             id="path24"
             inkscape:connector-curvature="0" /></g><g
           id="g26"
           transform="translate(375.9498,90.7892)"><path
             d="M 0,0 V -12.467 H -6.118 V -1.38 c 0,0.782 0.552,6.579 -3.865,6.809 -2.163,0.138 -6.027,-1.058 -6.027,-7.085 v -10.811 h -6.072 v 23.002 h 4.692 l 0.783,-2.806 h 0.782 c 0.966,1.15 3.128,3.036 6.992,3.036 C -2.898,10.765 0,6.349 0,0"
             style="fill:#2e2d62;fill-opacity:1;fill-rule:nonzero;stroke:none"
             id="path28"
             inkscape:connector-curvature="0" /></g><g
           id="g30"
           transform="translate(397.3863,89.8233)"><path
             d="m 0,0 c 0,3.588 -2.116,6.395 -5.612,6.395 -3.497,0 -5.843,-2.807 -5.843,-6.395 0,-3.588 2.346,-6.395 5.843,-6.395 C -2.116,-6.395 0,-3.588 0,0 m -17.482,-0.046 c 0,7.36 5.705,11.777 11.87,11.777 6.21,0 11.638,-4.462 11.638,-11.685 0,-7.315 -5.612,-11.777 -11.823,-11.777 -6.257,0 -11.685,4.462 -11.685,11.685"
             style="fill:#2e2d62;fill-opacity:1;fill-rule:nonzero;stroke:none"
             id="path32"
             inkscape:connector-curvature="0" /></g><g
           id="g34"
           transform="translate(428.5318,101.3243)"><path
             d="m 0,0 -7.453,-23.002 h -5.889 -3.036 L -23.831,0 h 6.119 l 5.337,-16.93 h 0.92 L -6.118,0 Z"
             style="fill:#2e2d62;fill-opacity:1;fill-rule:nonzero;stroke:none"
             id="path36"
             inkscape:connector-curvature="0" /></g><g
           id="g38"
           transform="translate(444.6793,87.983)"><path
             d="M 0,0 V 0.46 C -4.187,0 -8.327,-0.506 -8.327,-2.898 -8.327,-6.395 -0.368,-6.119 0,0 m 8.373,-5.245 v -4.416 h -1.38 c -2.669,0 -4.555,0.966 -5.337,2.944 -1.38,-1.886 -3.68,-3.174 -7.268,-3.174 -5.2,0 -8.512,2.668 -8.512,6.808 0,7.177 9.8,7.821 14.216,8.052 -0.092,2.668 -1.564,3.634 -3.91,3.634 -3.267,0 -3.496,-1.978 -3.496,-1.978 h -5.751 c 0.414,4.094 3.772,6.946 9.384,6.946 5.475,0 9.34,-2.714 9.34,-9.384 v -6.119 c 0,-2.669 0.966,-3.313 2.714,-3.313"
             style="fill:#2e2d62;fill-opacity:1;fill-rule:nonzero;stroke:none"
             id="path40"
             inkscape:connector-curvature="0" /></g><g
           id="g42"
           transform="translate(471.5464,80.024)"><path
             d="m 0,0 c 0,0 -1.933,-1.932 -5.475,-1.932 -4.417,0 -8.235,2.99 -8.235,7.637 v 10.673 h -4.601 v 4.508 h 2.301 c 1.565,0 2.622,1.058 2.622,2.715 v 4.6 h 5.567 V 21.3 h 5.797 V 16.378 H -7.821 V 6.073 c 0,-1.564 1.288,-2.76 2.944,-2.76 1.381,0 2.669,0.782 2.669,0.782 z"
             style="fill:#2e2d62;fill-opacity:1;fill-rule:nonzero;stroke:none"
             id="path44"
             inkscape:connector-curvature="0" /></g><g
           id="g46"
           transform="translate(478.9966,92.7213)"><path
             d="M 0,0 H 10.352 C 9.661,2.714 7.775,3.819 5.475,3.819 2.944,3.819 0.92,2.393 0,0 M 16.424,-4.646 H -0.368 c 0.69,-3.497 3.543,-4.785 6.027,-4.785 3.128,0 4.462,1.932 4.462,1.932 h 5.797 c -1.748,-4.6 -5.935,-7.13 -10.443,-7.13 -6.211,0 -11.64,4.738 -11.64,11.915 0,7.131 5.383,11.547 11.456,11.547 5.889,0 11.869,-4.094 11.133,-13.479"
             style="fill:#2e2d62;fill-opacity:1;fill-rule:nonzero;stroke:none"
             id="path48"
             inkscape:connector-curvature="0" /></g><g
           id="g50"
           transform="translate(340.2056,44.9977)"><path
             d="m 0,0 c 0,-9.892 -5.843,-14.032 -12.928,-14.032 -7.085,0 -13.019,4.14 -13.019,14.032 v 18.402 h 6.395 V 0.46 c 0,-5.245 2.208,-8.419 6.624,-8.419 4.417,0 6.533,3.174 6.533,8.419 V 18.402 H 0 Z"
             style="fill:#2e2d62;fill-opacity:1;fill-rule:nonzero;stroke:none"
             id="path52"
             inkscape:connector-curvature="0" /></g><g
           id="g54"
           transform="translate(354.65,44.7672)"><path
             d="m 0,0 h -2.669 v -13.571 h -6.164 v 32.204 h 6.164 V 5.98 h 2.576 L 8.051,18.633 H 15.09 L 5.061,2.99 16.47,-13.571 H 9.385 Z"
             style="fill:#2e2d62;fill-opacity:1;fill-rule:nonzero;stroke:none"
             id="path56"
             inkscape:connector-curvature="0" /></g><path
           d="M 141.732,0 H 0 v 141.732 h 141.732 z"
           style="fill:#2e2d62;fill-opacity:1;fill-rule:nonzero;stroke:none"
           id="path58"
           inkscape:connector-curvature="0" /><g
           id="g60"
           transform="translate(109.6084,70.8663)"><path
             d="m 0,0 h -22.216 v 23.724 z m -19.371,-44.105 h -19.371 v -7.745 l -13.635,17.869 c 10.381,1.911 15.742,7.279 15.742,16.627 0,2.307 -0.329,4.365 -0.977,6.19 h 18.241 z m -58.114,32.941 h 15.121 c 6.216,0 8.735,-2.409 8.735,-6.19 0,-3.782 -2.519,-6.269 -8.735,-6.269 h -15.121 z m 38.743,28.072 V -8.733 c -3.519,5.941 -11.612,8.701 -23.622,8.731 10.717,1.088 20.625,6.871 23.622,16.91 m 55.268,38.36 H 0 L -22.216,31.61 V 55.268 H -54.32 V 23.862 c 0,-6.724 -4.978,-10.627 -11.582,-10.627 -6.604,0 -11.583,3.903 -11.583,10.627 V 55.268 H -94.011 V 23.622 C -94.011,9.449 -82.568,1.318 -69.66,0 h -24.351 v -55.268 h 16.526 v 20.482 h 7.219 l 15.271,-20.482 h 71.521 v 11.163 H -2.845 v 32.941 H 16.526 V 3.417 L -7.162,27.672 16.526,51.85 Z"
             style="fill:#ffffff;fill-opacity:1;fill-rule:nonzero;stroke:none"
             id="path62"
             inkscape:connector-curvature="0" /></g><path
           d="m 141.732,0 h 90.875 v 23.572 h -90.875 z"
           style="fill:#8a1a9b;fill-opacity:1;fill-rule:nonzero;stroke:none"
           id="path64"
           inkscape:connector-curvature="0" /><path
           d="m 283.461,141.73 h -72.194 v -34.437 h 72.194 z"
           style="fill:#8a1a9b;fill-opacity:1;fill-rule:nonzero;stroke:none"
           id="path66"
           inkscape:connector-curvature="0" /><g
           id="g68"
           transform="translate(211.2676,107.2921)"><path
             d="m 0,0 v 34.437 17.76 H -69.535 V 34.437 -83.72 h 90.874 v -23.572 H 72.194 L 72.194,0 Z"
             style="fill:#be2bbb;fill-opacity:1;fill-rule:nonzero;stroke:none"
             id="path70"
             inkscape:connector-curvature="0" /></g></g></g></g></svg>