<?xml version="1.0" encoding="UTF-8" standalone="no"?>
<!-- Created with Inkscape (http://www.inkscape.org/) -->

<svg
   xmlns:dc="http://purl.org/dc/elements/1.1/"
   xmlns:cc="http://creativecommons.org/ns#"
   xmlns:rdf="http://www.w3.org/1999/02/22-rdf-syntax-ns#"
   xmlns:svg="http://www.w3.org/2000/svg"
   xmlns="http://www.w3.org/2000/svg"
   xmlns:sodipodi="http://sodipodi.sourceforge.net/DTD/sodipodi-0.dtd"
   xmlns:inkscape="http://www.inkscape.org/namespaces/inkscape"
   width="11.90625mm"
   height="5.0064931mm"
   viewBox="0 0 11.90625 5.0064931"
   version="1.1"
   id="svg1031"
   inkscape:version="0.92.4 (5da689c313, 2019-01-14)"
   sodipodi:docname="iwyp.svg">
  <defs
     id="defs1025" />
  <sodipodi:namedview
     id="base"
     pagecolor="#ffffff"
     bordercolor="#666666"
     borderopacity="1.0"
     inkscape:pageopacity="0.0"
     inkscape:pageshadow="2"
     inkscape:zoom="31.678384"
     inkscape:cx="16.933318"
     inkscape:cy="-0.10134559"
     inkscape:document-units="mm"
     inkscape:current-layer="layer1"
     showgrid="false"
     fit-margin-top="0"
     fit-margin-left="0"
     fit-margin-right="0"
     fit-margin-bottom="0"
     inkscape:window-width="3440"
     inkscape:window-height="1377"
     inkscape:window-x="-8"
     inkscape:window-y="-8"
     inkscape:window-maximized="1" />
  <metadata
     id="metadata1028">
    <rdf:RDF>
      <cc:Work
         rdf:about="">
        <dc:format>image/svg+xml</dc:format>
        <dc:type
           rdf:resource="http://purl.org/dc/dcmitype/StillImage" />
        <dc:title></dc:title>
      </cc:Work>
    </rdf:RDF>
  </metadata>
  <g
     inkscape:label="Layer 1"
     inkscape:groupmode="layer"
     id="layer1"
     transform="translate(18.414207,-73.694024)">
    <g
       id="g5210"
       transform="matrix(0.1329114,0,0,0.1329114,-50.891595,58.530893)">
      <rect
         id="rect4"
         height="23.036217"
         width="0.67154741"
         class="st0"
         y="128.53302"
         x="291.26022"
         style="fill:#939598;stroke-width:0.20349969" />
      <rect
         id="rect6"
         height="10.968659"
         width="2.4419906"
         class="st1"
         y="139.62378"
         x="244.35367"
         style="fill:#d8a929;stroke-width:0.20349969" />
      <polygon
         id="polygon8"
         points="94.2,141.3 105.9,174.8 115.2,141.3 127.3,141.3 112.7,193.9 100.9,193.9 89,159.9 77.3,193.9 65.6,193.9 51,141.3 63.1,141.3 72.5,174.8 84,141.3 "
         class="st1"
         style="fill:#d8a929"
         transform="matrix(0.20349921,0,0,0.20350016,238.35044,111.13377)" />
      <polygon
         id="polygon10"
         points="134.3,141.3 147.5,141.3 159.6,160.2 207.2,93.1 165.7,171.1 165.7,193.9 153.3,193.9 153.3,171.1 "
         class="st1"
         style="fill:#d8a929"
         transform="matrix(0.20349921,0,0,0.20350016,238.35044,111.13377)" />
      <path
         inkscape:connector-curvature="0"
         id="path12-3"
         d="m 278.46013,139.88834 h 2.64549 c 1.44485,0 2.46234,0.10175 3.11354,0.3256 0.63085,0.22385 1.1396,0.5698 1.5059,1.03785 0.36629,0.4884 0.54944,1.0582 0.54944,1.72975 0,0.75296 -0.2442,1.36346 -0.71224,1.85186 -0.4884,0.4884 -1.1396,0.83435 -1.9536,1.03785 -0.48839,0.10175 -1.36344,0.1628 -2.64549,0.1628 v 4.53805 h -2.50304 z m 2.50304,4.17176 h 0.79365 c 0.63085,0 1.0582,-0.0407 1.3024,-0.10175 0.24419,-0.0814 0.42734,-0.2035 0.56979,-0.3663 0.14245,-0.16281 0.2035,-0.36631 0.2035,-0.61051 0,-0.407 -0.2035,-0.71225 -0.59015,-0.8954 -0.28489,-0.14245 -0.81399,-0.2035 -1.58729,-0.2035 h -0.71225 v 2.17746 z"
         class="st1"
         style="fill:#d8a929;stroke-width:0.20349969" />
      <rect
         id="rect14"
         height="0.36631939"
         width="7.3671083"
         class="st2"
         transform="matrix(0.48637116,-0.87375231,0.87375036,0.48637465,0,0)"
         y="304.89764"
         x="15.62773"
         style="fill:#8dc63f;stroke-width:0.20351101" />
      <rect
         id="rect16"
         height="0.36628622"
         width="7.285048"
         class="st2"
         transform="matrix(0.43041325,-0.90263195,0.90263038,0.43041653,0,0)"
         y="303.52203"
         x="-0.85518533"
         style="fill:#8dc63f;stroke-width:0.20349267" />
      <rect
         id="rect18"
         height="0.3663063"
         width="7.4278994"
         class="st2"
         transform="matrix(0.45618908,-0.88988287,0.88988112,0.45619249,0,0)"
         y="301.76236"
         x="10.808382"
         style="fill:#8dc63f;stroke-width:0.2035038" />
      <polygon
         id="polygon20"
         points="174,67.5 172.4,66.9 185.8,29.6 187.5,30.2 "
         class="st2"
         style="fill:#8dc63f"
         transform="matrix(0.20349921,0,0,0.20350016,238.35044,111.13377)" />
      <polygon
         id="polygon22"
         points="139.6,116.3 125.7,86.5 127.3,85.8 141.3,115.6 "
         class="st2"
         style="fill:#8dc63f"
         transform="matrix(0.20349921,0,0,0.20350016,238.35044,111.13377)" />
      <polygon
         id="polygon24"
         points="141.6,100.5 126.2,68.2 127.8,67.4 143.2,99.7 "
         class="st2"
         style="fill:#8dc63f"
         transform="matrix(0.20349921,0,0,0.20350016,238.35044,111.13377)" />
      <polygon
         id="polygon26"
         points="142.4,83.9 125.7,51.4 127.3,50.6 144,83.1 "
         class="st2"
         style="fill:#8dc63f"
         transform="matrix(0.20349921,0,0,0.20350016,238.35044,111.13377)" />
      <polygon
         id="polygon28"
         points="142.4,67.5 129,30.2 130.7,29.6 144.1,66.9 "
         class="st2"
         style="fill:#8dc63f"
         transform="matrix(0.20349921,0,0,0.20350016,238.35044,111.13377)" />
      <path
         inkscape:connector-curvature="0"
         id="path30"
         d="m 270.42192,122.50942 c 0,0 0.0611,-0.0407 0.0611,-0.22385 0,-0.1221 0,-0.6105 0,-0.6105 h 0.18314 c 0,0 0,0.5698 0,0.63085 0,0.1628 0.0814,0.22385 0.0814,0.22385 l -0.0203,-0.0203 c 0.10175,0.1628 0.1628,0.3256 0.3256,0.50875 0.2849,0.32561 0.87505,1.20066 0.87505,1.50591 0.0814,1.52625 -0.8547,1.64835 -1.32275,2.13675 -0.59014,-0.54945 -1.40414,-0.59015 -1.40414,-2.1164 0,-0.407 0.63085,-1.1396 0.87505,-1.46521 0.2035,-0.2849 0.2442,-0.3663 0.34595,-0.5698 z"
         class="st2"
         style="fill:#8dc63f;stroke-width:0.20349969" />
      <path
         inkscape:connector-curvature="0"
         id="path32-3"
         d="m 267.85783,132.58268 c 0,0 0.0407,-0.0611 -0.061,-0.2035 -0.0611,-0.0814 -0.2849,-0.4884 -0.2849,-0.4884 l 0.14245,-0.10175 c 0,0 0.26455,0.46805 0.30524,0.50875 0.0814,0.1221 0.1628,0.14245 0.1628,0.14245 h -0.0204 c 0.1628,0.0814 0.2849,0.18315 0.50875,0.26455 0.38665,0.14245 1.2617,0.54945 1.4245,0.79365 0.79364,1.20065 0.0814,1.72976 -0.0611,2.36061 -0.7326,-0.1628 -1.40415,0.18315 -2.11639,-1.05821 -0.18315,-0.3256 -0.0203,-1.221 0.0204,-1.5873 0,-0.3256 -0.0204,-0.407 -0.0204,-0.63085 z"
         class="st2"
         style="fill:#8dc63f;stroke-width:0.20349969" />
      <path
         inkscape:connector-curvature="0"
         id="path34-3"
         d="m 273.2709,132.58268 c 0,0 -0.0407,-0.0611 0.0611,-0.2035 0.061,-0.0814 0.2849,-0.4884 0.2849,-0.4884 l -0.14245,-0.10175 c 0,0 -0.26455,0.46805 -0.30525,0.50875 -0.0814,0.1221 -0.16279,0.14245 -0.16279,0.14245 h 0.0204 c -0.1628,0.0814 -0.2849,0.18315 -0.50875,0.26455 -0.38665,0.14245 -1.2617,0.54945 -1.4245,0.79365 -0.79364,1.20065 -0.0814,1.72976 0.0611,2.36061 0.7326,-0.1628 1.40415,0.18315 2.11639,-1.05821 0.18315,-0.3256 0.0204,-1.221 -0.0204,-1.5873 0,-0.3256 0.0204,-0.407 0.0204,-0.63085 z"
         class="st2"
         style="fill:#8dc63f;stroke-width:0.20349969" />
      <path
         inkscape:connector-curvature="0"
         id="path36-6"
         d="m 267.85783,129.22493 c 0,0 0.0407,-0.061 -0.061,-0.2035 -0.0611,-0.0814 -0.2849,-0.4884 -0.2849,-0.4884 l 0.14245,-0.10175 c 0,0 0.26455,0.46805 0.30524,0.50875 0.0814,0.1221 0.1628,0.14245 0.1628,0.14245 h -0.0204 c 0.1628,0.0814 0.2849,0.18315 0.50875,0.26455 0.38665,0.14245 1.2617,0.54945 1.4245,0.79365 0.79364,1.20065 0.0814,1.72975 -0.0611,2.34025 -0.7326,-0.1628 -1.40415,0.18315 -2.11639,-1.0582 -0.18315,-0.3256 -0.0203,-1.221 0.0204,-1.5873 0,-0.30525 -0.0204,-0.407 -0.0204,-0.6105 z"
         class="st2"
         style="fill:#8dc63f;stroke-width:0.20349969" />
      <path
         inkscape:connector-curvature="0"
         id="path38-4"
         d="m 273.2709,129.22493 c 0,0 -0.0407,-0.061 0.0611,-0.2035 0.061,-0.0814 0.2849,-0.4884 0.2849,-0.4884 l -0.14245,-0.10175 c 0,0 -0.26455,0.46805 -0.30525,0.50875 -0.0814,0.1221 -0.16279,0.14245 -0.16279,0.14245 h 0.0204 c -0.1628,0.0814 -0.2849,0.18315 -0.50875,0.26455 -0.38665,0.14245 -1.2617,0.54945 -1.4245,0.79365 -0.79364,1.20065 -0.0814,1.72975 0.0611,2.34025 0.7326,-0.1628 1.40415,0.18315 2.11639,-1.0582 0.18315,-0.3256 0.0204,-1.221 -0.0204,-1.5873 0,-0.30525 0.0204,-0.407 0.0204,-0.6105 z"
         class="st2"
         style="fill:#8dc63f;stroke-width:0.20349969" />
      <path
         inkscape:connector-curvature="0"
         id="path40-9"
         d="m 267.85783,125.84683 c 0,0 0.0407,-0.061 -0.061,-0.22385 -0.0611,-0.0814 -0.2849,-0.4884 -0.2849,-0.4884 l 0.14245,-0.0814 c 0,0 0.26455,0.46805 0.30524,0.50875 0.0814,0.1221 0.1628,0.14245 0.1628,0.14245 h -0.0204 c 0.1628,0.0814 0.2849,0.18315 0.50875,0.26455 0.38665,0.14245 1.2617,0.54945 1.4245,0.79365 0.79364,1.20065 0.0814,1.72975 -0.0611,2.3606 -0.7326,-0.1628 -1.40415,0.18315 -2.11639,-1.0582 -0.18315,-0.3256 -0.0203,-1.221 0.0204,-1.5873 0,-0.3256 -0.0204,-0.407 -0.0204,-0.63085 z"
         class="st2"
         style="fill:#8dc63f;stroke-width:0.20349969" />
      <path
         inkscape:connector-curvature="0"
         id="path42-9"
         d="m 273.2709,125.84683 c 0,0 -0.0407,-0.061 0.0611,-0.22385 0.061,-0.0814 0.2849,-0.4884 0.2849,-0.4884 l -0.14245,-0.0814 c 0,0 -0.26455,0.46805 -0.30525,0.50875 -0.0814,0.1221 -0.16279,0.14245 -0.16279,0.14245 h 0.0204 c -0.1628,0.0814 -0.2849,0.18315 -0.50875,0.26455 -0.38665,0.14245 -1.2617,0.54945 -1.4245,0.79365 -0.79364,1.20065 -0.0814,1.72975 0.0611,2.3606 0.7326,-0.1628 1.40415,0.18315 2.11639,-1.0582 0.18315,-0.3256 0.0204,-1.221 -0.0204,-1.5873 0,-0.3256 0.0204,-0.407 0.0204,-0.63085 z"
         class="st2"
         style="fill:#8dc63f;stroke-width:0.20349969" />
      <rect
         id="rect44"
         height="6.5527053"
         width="0.36629856"
         class="st2"
         y="114.0845"
         x="270.40158"
         style="fill:#8dc63f;stroke-width:0.20349969" />
      <path
         inkscape:connector-curvature="0"
         id="path46-4"
         d="m 270.74751,140.94654 c -0.10175,-0.2035 -0.77329,-1.68905 -1.22099,-1.9129 -0.3256,-0.1628 -0.63085,-0.3256 -0.9361,-0.50875 -0.46805,-0.26455 -1.15994,-0.91575 -1.18029,-1.36345 -0.0814,-0.407 -0.42735,-1.44485 -0.18315,-1.9129 0.6105,1.1803 1.58729,0.95645 2.21814,1.3431 0.7326,0.4477 0.814,0.8547 1.20064,1.40415 l 0.0611,0.0407 h -0.0407 l 0.0611,-0.0407 c 0.3663,-0.5698 0.407,-0.9768 1.11925,-1.4652 0.6105,-0.42735 1.58729,-0.26455 2.13674,-1.48555 0.2849,0.46805 -0.0611,1.11925 -0.10175,1.52625 0,0.4477 -0.6512,1.28205 -1.09889,1.5873 -0.6105,0.38665 -2.01465,2.8083 -2.035,2.78795"
         class="st2"
         style="fill:#8dc63f;stroke-width:0.20349969" />
      <g
         id="g186"
         transform="matrix(0.20349921,0,0,0.20350016,238.35044,111.13377)">
        <path
           inkscape:connector-curvature="0"
           id="path118"
           d="m 288.6,105.6 h 4 v 21 h -4 z"
           class="st4"
           style="fill:#231f20" />
        <path
           inkscape:connector-curvature="0"
           id="path120"
           d="m 297.1,111.1 h 4 v 1.6 c 0.9,-0.7 1.7,-1.3 2.4,-1.6 0.7,-0.3 1.5,-0.4 2.2,-0.4 1.6,0 2.9,0.5 4,1.6 0.9,0.9 1.4,2.3 1.4,4.1 v 10.3 h -3.9 v -6.8 c 0,-1.9 -0.1,-3.1 -0.3,-3.7 -0.2,-0.6 -0.5,-1.1 -0.9,-1.4 -0.4,-0.3 -0.9,-0.5 -1.6,-0.5 -0.8,0 -1.5,0.3 -2.1,0.8 -0.6,0.5 -1,1.3 -1.2,2.2 -0.1,0.5 -0.2,1.5 -0.2,3.2 v 6.2 h -4 v -15.6 z"
           class="st4"
           style="fill:#231f20" />
        <path
           inkscape:connector-curvature="0"
           id="path122"
           d="m 315.8,105.4 h 4 v 5.7 h 2.4 v 3.4 h -2.4 v 12.2 h -4 v -12.2 h -2 v -3.4 h 2 z"
           class="st4"
           style="fill:#231f20" />
        <path
           inkscape:connector-curvature="0"
           id="path124"
           d="m 340.4,120 h -12.8 c 0.2,1.1 0.7,2 1.5,2.6 0.8,0.7 1.8,1 3.1,1 1.5,0 2.8,-0.5 3.8,-1.5 l 3.4,1.5 c -0.8,1.2 -1.8,2 -3,2.6 -1.2,0.6 -2.5,0.8 -4.2,0.8 -2.5,0 -4.5,-0.8 -6.1,-2.3 -1.6,-1.5 -2.3,-3.5 -2.3,-5.8 0,-2.4 0.8,-4.3 2.3,-5.9 1.6,-1.6 3.5,-2.3 5.9,-2.3 2.5,0 4.5,0.8 6.1,2.3 1.6,1.6 2.3,3.6 2.3,6.2 z m -3.9,-3.1 c -0.3,-0.9 -0.8,-1.6 -1.6,-2.1 -0.8,-0.5 -1.7,-0.8 -2.7,-0.8 -1.1,0 -2.1,0.3 -2.9,0.9 -0.5,0.4 -1,1.1 -1.5,2 z"
           class="st4"
           style="fill:#231f20" />
        <path
           inkscape:connector-curvature="0"
           id="path126"
           d="m 343,111.1 h 3.4 v 2 c 0.4,-0.8 0.9,-1.4 1.5,-1.8 0.6,-0.4 1.3,-0.6 2,-0.6 0.5,0 1.1,0.1 1.6,0.4 l -1.2,3.4 c -0.5,-0.2 -0.8,-0.3 -1.1,-0.3 -0.6,0 -1.1,0.4 -1.6,1.1 -0.4,0.7 -0.6,2.2 -0.6,4.4 v 0.8 6.3 h -4 z"
           class="st4"
           style="fill:#231f20" />
        <path
           inkscape:connector-curvature="0"
           id="path128"
           d="m 353.8,111.1 h 4 v 1.6 c 0.9,-0.7 1.7,-1.3 2.4,-1.6 0.7,-0.3 1.5,-0.4 2.2,-0.4 1.6,0 2.9,0.5 4,1.6 0.9,0.9 1.4,2.3 1.4,4.1 v 10.3 h -3.9 v -6.8 c 0,-1.9 -0.1,-3.1 -0.3,-3.7 -0.2,-0.6 -0.5,-1.1 -0.9,-1.4 -0.4,-0.3 -0.9,-0.5 -1.6,-0.5 -0.8,0 -1.5,0.3 -2.1,0.8 -0.6,0.5 -1,1.3 -1.2,2.2 -0.1,0.5 -0.2,1.5 -0.2,3.2 v 6.2 h -4 v -15.6 z"
           class="st4"
           style="fill:#231f20" />
        <path
           inkscape:connector-curvature="0"
           id="path130"
           d="m 383.7,111.1 h 4 v 15.5 h -4 V 125 c -0.8,0.7 -1.6,1.2 -2.3,1.6 -0.8,0.3 -1.6,0.5 -2.5,0.5 -2,0 -3.8,-0.8 -5.3,-2.3 -1.5,-1.6 -2.2,-3.5 -2.2,-5.8 0,-2.4 0.7,-4.4 2.2,-5.9 1.4,-1.5 3.2,-2.3 5.3,-2.3 0.9,0 1.8,0.2 2.7,0.5 0.8,0.4 1.6,0.9 2.3,1.6 v -1.8 z m -4.2,3.2 c -1.2,0 -2.2,0.4 -3.1,1.3 -0.8,0.9 -1.2,1.9 -1.2,3.3 0,1.3 0.4,2.4 1.2,3.3 0.8,0.9 1.8,1.3 3.1,1.3 1.2,0 2.3,-0.4 3.1,-1.3 0.8,-0.9 1.2,-2 1.2,-3.3 0,-1.4 -0.4,-2.4 -1.2,-3.3 -0.8,-0.9 -1.9,-1.3 -3.1,-1.3 z"
           class="st4"
           style="fill:#231f20" />
        <path
           inkscape:connector-curvature="0"
           id="path132"
           d="m 392.4,105.4 h 4 v 5.7 h 2.4 v 3.4 h -2.4 v 12.2 h -4 v -12.2 h -2 v -3.4 h 2 z"
           class="st4"
           style="fill:#231f20" />
        <path
           inkscape:connector-curvature="0"
           id="path134"
           d="m 402.7,104.7 c 0.7,0 1.3,0.2 1.8,0.7 0.5,0.5 0.7,1.1 0.7,1.8 0,0.7 -0.2,1.3 -0.7,1.8 -0.5,0.5 -1.1,0.7 -1.8,0.7 -0.7,0 -1.3,-0.3 -1.8,-0.7 -0.5,-0.5 -0.7,-1.1 -0.7,-1.8 0,-0.7 0.2,-1.3 0.7,-1.8 0.5,-0.5 1.1,-0.7 1.8,-0.7 z m -2,6.4 h 4 v 15.5 h -4 z"
           class="st4"
           style="fill:#231f20" />
        <path
           inkscape:connector-curvature="0"
           id="path136"
           d="m 416.1,110.7 c 1.5,0 2.9,0.4 4.2,1.1 1.3,0.7 2.3,1.7 3.1,3 0.7,1.3 1.1,2.6 1.1,4.1 0,1.5 -0.4,2.8 -1.1,4.1 -0.7,1.3 -1.7,2.3 -3,3 -1.3,0.7 -2.7,1.1 -4.2,1.1 -2.3,0 -4.2,-0.8 -5.8,-2.4 -1.6,-1.6 -2.4,-3.5 -2.4,-5.8 0,-2.4 0.9,-4.4 2.7,-6.1 1.5,-1.4 3.3,-2.1 5.4,-2.1 z m 0,3.6 c -1.2,0 -2.3,0.4 -3.1,1.3 -0.8,0.8 -1.2,1.9 -1.2,3.2 0,1.4 0.4,2.4 1.2,3.3 0.8,0.8 1.8,1.3 3.1,1.3 1.2,0 2.3,-0.4 3.1,-1.3 0.8,-0.8 1.2,-1.9 1.2,-3.3 0,-1.3 -0.4,-2.4 -1.2,-3.2 -0.8,-0.8 -1.8,-1.3 -3.1,-1.3 z"
           class="st4"
           style="fill:#231f20" />
        <path
           inkscape:connector-curvature="0"
           id="path138"
           d="m 428,111.1 h 4 v 1.6 c 0.9,-0.7 1.7,-1.3 2.4,-1.6 0.7,-0.3 1.5,-0.4 2.2,-0.4 1.6,0 2.9,0.5 4,1.6 0.9,0.9 1.4,2.3 1.4,4.1 v 10.3 h -3.9 v -6.8 c 0,-1.9 -0.1,-3.1 -0.3,-3.7 -0.2,-0.6 -0.5,-1.1 -0.9,-1.4 -0.4,-0.3 -0.9,-0.5 -1.6,-0.5 -0.8,0 -1.5,0.3 -2.1,0.8 -0.6,0.5 -1,1.3 -1.2,2.2 -0.1,0.5 -0.2,1.5 -0.2,3.2 v 6.2 h -4 v -15.6 z"
           class="st4"
           style="fill:#231f20" />
        <path
           inkscape:connector-curvature="0"
           id="path140"
           d="m 457.9,111.1 h 4 v 15.5 h -4 V 125 c -0.8,0.7 -1.6,1.2 -2.3,1.6 -0.8,0.3 -1.6,0.5 -2.5,0.5 -2,0 -3.8,-0.8 -5.3,-2.3 -1.5,-1.6 -2.2,-3.5 -2.2,-5.8 0,-2.4 0.7,-4.4 2.2,-5.9 1.4,-1.5 3.2,-2.3 5.3,-2.3 1,0 1.8,0.2 2.7,0.5 0.8,0.4 1.6,0.9 2.3,1.6 v -1.8 z m -4.2,3.2 c -1.2,0 -2.3,0.4 -3.1,1.3 -0.8,0.9 -1.2,1.9 -1.2,3.3 0,1.3 0.4,2.4 1.2,3.3 0.8,0.9 1.8,1.3 3,1.3 1.2,0 2.3,-0.4 3.1,-1.3 0.8,-0.9 1.2,-2 1.2,-3.3 0,-1.4 -0.4,-2.4 -1.2,-3.3 -0.7,-0.9 -1.7,-1.3 -3,-1.3 z"
           class="st4"
           style="fill:#231f20" />
        <path
           inkscape:connector-curvature="0"
           id="path142"
           d="m 465.7,105.1 h 4 v 21.5 h -4 z"
           class="st4"
           style="fill:#231f20" />
        <path
           inkscape:connector-curvature="0"
           id="path144"
           d="m 287.3,139.3 h 4.3 l 3.3,13.4 4.1,-13.4 h 3.7 l 4.2,13.4 3.3,-13.4 h 4.3 l -5.2,21 h -4.2 l -4.2,-13.6 -4.2,13.6 h -4.2 z"
           class="st4"
           style="fill:#231f20" />
        <path
           inkscape:connector-curvature="0"
           id="path146"
           d="m 316.8,138.8 h 3.9 v 7.6 c 0.8,-0.7 1.6,-1.2 2.3,-1.5 0.8,-0.3 1.6,-0.5 2.4,-0.5 1.6,0 2.9,0.5 4,1.6 0.9,0.9 1.4,2.3 1.4,4.1 v 10.3 h -3.9 v -6.8 c 0,-1.8 -0.1,-3 -0.3,-3.7 -0.2,-0.6 -0.5,-1.1 -0.9,-1.4 -0.4,-0.3 -0.9,-0.5 -1.6,-0.5 -0.8,0 -1.5,0.3 -2.1,0.8 -0.6,0.5 -1,1.2 -1.2,2.1 -0.1,0.5 -0.2,1.5 -0.2,3.2 v 6.2 h -3.9 v -21.5 z"
           class="st4"
           style="fill:#231f20" />
        <path
           inkscape:connector-curvature="0"
           id="path148"
           d="M 350.8,153.7 H 338 c 0.2,1.1 0.7,2 1.5,2.6 0.8,0.6 1.8,1 3.1,1 1.5,0 2.8,-0.5 3.8,-1.5 l 3.4,1.5 c -0.8,1.2 -1.8,2 -3,2.6 -1.2,0.6 -2.5,0.8 -4.1,0.8 -2.5,0 -4.5,-0.8 -6.1,-2.3 -1.6,-1.5 -2.3,-3.5 -2.3,-5.8 0,-2.4 0.8,-4.3 2.3,-5.9 1.6,-1.6 3.5,-2.3 5.9,-2.3 2.5,0 4.5,0.8 6.1,2.3 1.6,1.6 2.3,3.6 2.3,6.2 z m -4,-3.1 c -0.3,-0.9 -0.8,-1.6 -1.6,-2.1 -0.8,-0.5 -1.7,-0.8 -2.7,-0.8 -1.1,0 -2.1,0.3 -2.9,0.9 -0.5,0.4 -1,1.1 -1.5,2 z"
           class="st4"
           style="fill:#231f20" />
        <path
           inkscape:connector-curvature="0"
           id="path150"
           d="m 366,144.8 h 4 v 15.5 h -4 v -1.6 c -0.8,0.7 -1.6,1.2 -2.3,1.6 -0.8,0.3 -1.6,0.5 -2.5,0.5 -2,0 -3.8,-0.8 -5.3,-2.3 -1.5,-1.6 -2.2,-3.5 -2.2,-5.8 0,-2.4 0.7,-4.4 2.2,-5.9 1.4,-1.5 3.2,-2.3 5.3,-2.3 1,0 1.8,0.2 2.7,0.5 0.8,0.4 1.6,0.9 2.3,1.6 v -1.8 z m -4.2,3.2 c -1.2,0 -2.2,0.4 -3.1,1.3 -0.8,0.9 -1.2,1.9 -1.2,3.3 0,1.3 0.4,2.4 1.2,3.3 0.8,0.9 1.8,1.3 3.1,1.3 1.2,0 2.3,-0.4 3.1,-1.3 0.8,-0.9 1.2,-2 1.2,-3.3 0,-1.4 -0.4,-2.4 -1.2,-3.3 -0.8,-0.9 -1.8,-1.3 -3.1,-1.3 z"
           class="st4"
           style="fill:#231f20" />
        <path
           inkscape:connector-curvature="0"
           id="path152"
           d="m 374.8,139.1 h 4 v 5.7 h 2.4 v 3.4 h -2.4 v 12.2 h -4 v -12.2 h -2 v -3.4 h 2 z"
           class="st4"
           style="fill:#231f20" />
        <path
           inkscape:connector-curvature="0"
           id="path154"
           d="m 391.1,139.3 h 4.4 l 4,7.6 4,-7.6 h 4.3 l -6.3,11.9 v 9.1 h -4.1 v -9.1 z"
           class="st4"
           style="fill:#231f20" />
        <path
           inkscape:connector-curvature="0"
           id="path156"
           d="m 412.5,138.4 c 0.7,0 1.3,0.2 1.8,0.7 0.5,0.5 0.7,1.1 0.7,1.8 0,0.7 -0.2,1.3 -0.7,1.8 -0.5,0.5 -1.1,0.7 -1.8,0.7 -0.7,0 -1.3,-0.2 -1.8,-0.7 -0.5,-0.5 -0.7,-1.1 -0.7,-1.8 0,-0.7 0.2,-1.3 0.7,-1.8 0.5,-0.4 1.1,-0.7 1.8,-0.7 z m -2,6.4 h 4 v 15.5 h -4 z"
           class="st4"
           style="fill:#231f20" />
        <path
           inkscape:connector-curvature="0"
           id="path158"
           d="m 434.3,153.7 h -12.8 c 0.2,1.1 0.7,2 1.5,2.6 0.8,0.6 1.8,1 3.1,1 1.5,0 2.8,-0.5 3.8,-1.5 l 3.3,1.5 c -0.8,1.2 -1.8,2 -3,2.6 -1.2,0.6 -2.5,0.8 -4.1,0.8 -2.5,0 -4.5,-0.8 -6.1,-2.3 -1.6,-1.5 -2.3,-3.5 -2.3,-5.8 0,-2.4 0.8,-4.3 2.3,-5.9 1.6,-1.6 3.5,-2.3 5.9,-2.3 2.5,0 4.5,0.8 6.1,2.3 1.6,1.6 2.3,3.6 2.3,6.2 z m -4,-3.1 c -0.3,-0.9 -0.8,-1.6 -1.6,-2.1 -0.8,-0.5 -1.7,-0.8 -2.7,-0.8 -1.1,0 -2.1,0.3 -2.9,0.9 -0.5,0.4 -1,1.1 -1.5,2 z"
           class="st4"
           style="fill:#231f20" />
        <path
           inkscape:connector-curvature="0"
           id="path160"
           d="m 437.4,138.8 h 4 v 21.5 h -4 z"
           class="st4"
           style="fill:#231f20" />
        <path
           inkscape:connector-curvature="0"
           id="path162"
           d="m 456.9,138.8 h 4 v 21.5 h -4 v -1.6 c -0.8,0.7 -1.6,1.2 -2.3,1.6 -0.8,0.3 -1.6,0.5 -2.5,0.5 -2,0 -3.8,-0.8 -5.3,-2.3 -1.5,-1.6 -2.2,-3.5 -2.2,-5.8 0,-2.4 0.7,-4.4 2.2,-5.9 1.4,-1.5 3.2,-2.3 5.3,-2.3 1,0 1.8,0.2 2.7,0.5 0.8,0.4 1.6,0.9 2.3,1.6 v -7.8 z m -4.2,9.2 c -1.2,0 -2.2,0.4 -3.1,1.3 -0.8,0.9 -1.2,1.9 -1.2,3.3 0,1.3 0.4,2.4 1.2,3.3 0.8,0.9 1.8,1.3 3,1.3 1.2,0 2.3,-0.4 3.1,-1.3 0.8,-0.9 1.2,-2 1.2,-3.3 0,-1.4 -0.4,-2.4 -1.2,-3.3 -0.7,-0.9 -1.7,-1.3 -3,-1.3 z"
           class="st4"
           style="fill:#231f20" />
        <path
           inkscape:connector-curvature="0"
           id="path164"
           d="m 288.9,173.1 h 4.3 c 2.3,0 5,0.2 6.1,0.6 1,0.4 1.8,1.1 2.4,2.1 0.6,0.9 0.9,2.1 0.9,3.4 0,1.5 -0.4,2.7 -1.2,3.7 -0.8,1 -1.8,1.6 -3.2,2 -0.8,0.2 -3.2,0.3 -5.3,0.3 v 8.9 h -4.1 v -21 z m 4.1,8.2 h 2.3 c 1,0 1.7,-0.1 2.1,-0.2 0.4,-0.1 0.7,-0.4 0.9,-0.7 0.2,-0.3 0.3,-0.7 0.3,-1.2 0,-0.8 -0.3,-1.4 -1,-1.8 -0.5,-0.3 -1.3,-0.4 -2.6,-0.4 h -2 z"
           class="st4"
           style="fill:#231f20" />
        <path
           inkscape:connector-curvature="0"
           id="path166"
           d="m 316.3,178.5 h 4 V 194 h -4 v -1.6 c -0.8,0.7 -1.6,1.2 -2.3,1.6 -0.8,0.3 -1.6,0.5 -2.5,0.5 -2,0 -3.8,-0.8 -5.3,-2.3 -1.5,-1.6 -2.2,-3.5 -2.2,-5.8 0,-2.4 0.7,-4.4 2.2,-5.9 1.4,-1.5 3.2,-2.3 5.3,-2.3 0.9,0 1.8,0.2 2.7,0.5 0.8,0.4 1.6,0.9 2.3,1.6 v -1.8 z m -4.1,3.2 c -1.2,0 -2.2,0.4 -3.1,1.3 -0.8,0.9 -1.2,1.9 -1.2,3.3 0,1.3 0.4,2.4 1.2,3.3 0.8,0.9 1.8,1.3 3.1,1.3 1.2,0 2.3,-0.4 3.1,-1.3 0.8,-0.9 1.2,-2 1.2,-3.3 0,-1.4 -0.4,-2.4 -1.2,-3.3 -0.8,-0.9 -1.9,-1.3 -3.1,-1.3 z"
           class="st4"
           style="fill:#231f20" />
        <path
           inkscape:connector-curvature="0"
           id="path168"
           d="m 323.7,178.5 h 3.4 v 2 c 0.4,-0.8 0.9,-1.4 1.5,-1.8 0.6,-0.4 1.3,-0.6 2,-0.6 0.5,0 1.1,0.1 1.6,0.4 l -1.2,3.4 c -0.5,-0.2 -0.9,-0.3 -1.2,-0.3 -0.6,0 -1.1,0.4 -1.6,1.1 -0.4,0.7 -0.6,2.2 -0.6,4.4 v 0.8 6.3 h -3.9 z"
           class="st4"
           style="fill:#231f20" />
        <path
           inkscape:connector-curvature="0"
           id="path170"
           d="m 335.8,172.8 h 4 v 5.7 h 2.4 v 3.4 h -2.4 v 12.2 h -4 v -12.2 h -2 v -3.4 h 2 z"
           class="st4"
           style="fill:#231f20" />
        <path
           inkscape:connector-curvature="0"
           id="path172"
           d="m 344.5,178.5 h 4 v 1.6 c 0.9,-0.7 1.7,-1.3 2.5,-1.6 0.7,-0.3 1.5,-0.4 2.2,-0.4 1.6,0 2.9,0.5 4,1.6 0.9,0.9 1.4,2.3 1.4,4.1 v 10.3 h -3.9 v -6.8 c 0,-1.9 -0.1,-3.1 -0.3,-3.7 -0.2,-0.6 -0.5,-1.1 -0.9,-1.4 -0.4,-0.3 -0.9,-0.5 -1.6,-0.5 -0.8,0 -1.5,0.3 -2.1,0.8 -0.6,0.5 -1,1.3 -1.2,2.2 -0.1,0.5 -0.2,1.5 -0.2,3.2 v 6.2 h -4 v -15.6 z"
           class="st4"
           style="fill:#231f20" />
        <path
           inkscape:connector-curvature="0"
           id="path174"
           d="m 378.6,187.4 h -12.8 c 0.2,1.1 0.7,2 1.5,2.6 0.8,0.6 1.8,1 3.1,1 1.5,0 2.8,-0.5 3.8,-1.5 l 3.4,1.5 c -0.8,1.2 -1.8,2 -3,2.6 -1.2,0.6 -2.5,0.8 -4.2,0.8 -2.5,0 -4.5,-0.8 -6.1,-2.3 -1.6,-1.5 -2.3,-3.5 -2.3,-5.8 0,-2.4 0.8,-4.3 2.3,-5.9 1.6,-1.6 3.5,-2.3 5.9,-2.3 2.5,0 4.5,0.8 6.1,2.3 1.6,1.6 2.3,3.6 2.3,6.2 z m -4,-3 c -0.3,-0.9 -0.8,-1.6 -1.6,-2.1 -0.8,-0.5 -1.7,-0.8 -2.7,-0.8 -1.1,0 -2.1,0.3 -2.9,0.9 -0.5,0.4 -1,1.1 -1.5,2 z"
           class="st4"
           style="fill:#231f20" />
        <path
           inkscape:connector-curvature="0"
           id="path176"
           d="m 381.2,178.5 h 3.4 v 2 c 0.4,-0.8 0.9,-1.4 1.5,-1.8 0.6,-0.4 1.3,-0.6 2,-0.6 0.5,0 1.1,0.1 1.6,0.4 l -1.2,3.4 c -0.5,-0.2 -0.8,-0.3 -1.1,-0.3 -0.6,0 -1.1,0.4 -1.6,1.1 -0.4,0.7 -0.6,2.2 -0.6,4.4 v 0.8 6.3 h -3.9 v -15.7 z"
           class="st4"
           style="fill:#231f20" />
        <path
           inkscape:connector-curvature="0"
           id="path178"
           d="m 401.6,180.7 -2.5,2.4 c -1,-1 -1.9,-1.5 -2.7,-1.5 -0.4,0 -0.8,0.1 -1,0.3 -0.2,0.2 -0.4,0.4 -0.4,0.7 0,0.2 0.1,0.4 0.2,0.6 0.2,0.2 0.6,0.4 1.2,0.7 l 1.5,0.7 c 1.5,0.7 2.6,1.5 3.2,2.3 0.6,0.8 0.9,1.7 0.9,2.7 0,1.4 -0.5,2.5 -1.6,3.5 -1,0.9 -2.4,1.4 -4.2,1.4 -2.3,0 -4.2,-0.9 -5.5,-2.7 l 2.4,-2.6 c 0.5,0.5 1,1 1.6,1.3 0.6,0.3 1.2,0.5 1.7,0.5 0.5,0 0.9,-0.1 1.3,-0.4 0.3,-0.2 0.5,-0.5 0.5,-0.9 0,-0.6 -0.6,-1.2 -1.7,-1.8 l -1.3,-0.7 c -2.6,-1.3 -3.8,-2.8 -3.8,-4.8 0,-1.2 0.5,-2.3 1.5,-3.1 1,-0.9 2.2,-1.3 3.7,-1.3 1,0 2,0.2 2.9,0.7 0.7,0.5 1.5,1.2 2.1,2 z"
           class="st4"
           style="fill:#231f20" />
        <path
           inkscape:connector-curvature="0"
           id="path180"
           d="m 405.4,172.5 h 3.9 v 7.6 c 0.8,-0.7 1.6,-1.2 2.3,-1.5 0.8,-0.3 1.6,-0.5 2.4,-0.5 1.6,0 2.9,0.5 4,1.6 0.9,0.9 1.4,2.3 1.4,4.1 v 10.3 h -3.9 v -6.8 c 0,-1.8 -0.1,-3 -0.3,-3.7 -0.2,-0.6 -0.5,-1.1 -0.9,-1.4 -0.4,-0.3 -0.9,-0.5 -1.6,-0.5 -0.8,0 -1.5,0.3 -2.1,0.8 -0.6,0.5 -1,1.2 -1.2,2.1 -0.1,0.5 -0.2,1.5 -0.2,3.2 v 6.2 h -3.9 v -21.5 z"
           class="st4"
           style="fill:#231f20" />
        <path
           inkscape:connector-curvature="0"
           id="path182"
           d="m 425.1,172.1 c 0.7,0 1.3,0.2 1.8,0.7 0.5,0.5 0.8,1.1 0.8,1.8 0,0.7 -0.2,1.3 -0.7,1.8 -0.5,0.5 -1.1,0.7 -1.8,0.7 -0.7,0 -1.3,-0.2 -1.8,-0.8 -0.5,-0.5 -0.7,-1.1 -0.7,-1.8 0,-0.7 0.2,-1.3 0.7,-1.8 0.4,-0.3 1,-0.6 1.7,-0.6 z m -2,6.4 h 4 V 194 h -4 z"
           class="st4"
           style="fill:#231f20" />
        <path
           inkscape:connector-curvature="0"
           id="path184"
           d="m 434.9,178.5 v 1.7 c 0.7,-0.7 1.5,-1.2 2.3,-1.6 0.8,-0.4 1.7,-0.5 2.7,-0.5 2.1,0 3.8,0.8 5.3,2.3 1.5,1.5 2.2,3.5 2.2,5.9 0,2.3 -0.7,4.2 -2.2,5.8 -1.5,1.6 -3.3,2.3 -5.3,2.3 -0.9,0 -1.8,-0.2 -2.5,-0.5 -0.8,-0.3 -1.6,-0.8 -2.3,-1.6 v 7.3 H 431 v -21.2 h 3.9 z m 4.2,3.2 c -1.2,0 -2.3,0.4 -3.1,1.3 -0.8,0.8 -1.2,1.9 -1.2,3.3 0,1.4 0.4,2.5 1.2,3.3 0.8,0.9 1.9,1.3 3.1,1.3 1.2,0 2.2,-0.4 3.1,-1.3 0.8,-0.9 1.2,-2 1.2,-3.3 0,-1.3 -0.4,-2.4 -1.2,-3.3 -0.8,-0.8 -1.8,-1.3 -3.1,-1.3 z"
           class="st4"
           style="fill:#231f20" />
      </g>
    </g>
  </g>
</svg>
