<?xml version="1.0" encoding="UTF-8" standalone="no"?>
<svg
   id="Layer_1"
   version="1.1"
   viewBox="0 0 412.59999 293.4"
   sodipodi:docname="jhiss.svg"
   width="412.60001"
   height="293.39999"
   inkscape:version="1.4 (86a8ad7, 2024-10-11)"
   xmlns:inkscape="http://www.inkscape.org/namespaces/inkscape"
   xmlns:sodipodi="http://sodipodi.sourceforge.net/DTD/sodipodi-0.dtd"
   xmlns="http://www.w3.org/2000/svg"
   xmlns:svg="http://www.w3.org/2000/svg">
  <sodipodi:namedview
     id="namedview46"
     pagecolor="#ffffff"
     bordercolor="#000000"
     borderopacity="0.25"
     inkscape:showpageshadow="2"
     inkscape:pageopacity="0.0"
     inkscape:pagecheckerboard="0"
     inkscape:deskcolor="#d1d1d1"
     inkscape:zoom="1.46643"
     inkscape:cx="392.10872"
     inkscape:cy="317.43758"
     inkscape:window-width="2880"
     inkscape:window-height="1694"
     inkscape:window-x="-11"
     inkscape:window-y="-11"
     inkscape:window-maximized="1"
     inkscape:current-layer="Layer_1" />
  <!-- Generator: Adobe Illustrator 29.0.1, SVG Export Plug-In . SVG Version: 2.1.0 Build 192)  -->
  <defs
     id="defs1">
    <style
       id="style1">
      .st0 {
        fill: #872375;
      }

      .st1 {
        fill: #649ebc;
      }

      .st2 {
        fill: #81a43e;
      }
    </style>
  </defs>
  <path
     d="m 22.8,282.1 c 0,3.5 -1.2,6.2 -3.5,8.3 -2.3,2 -5.4,3 -9.3,3 -3.9,0 -3.9,-0.1 -5.6,-0.4 -1.7,-0.3 -3.2,-0.8 -4.4,-1.4 v -4.8 c 1.3,0.6 2.8,1.2 4.6,1.6 1.8,0.4 3.6,0.7 5.4,0.7 2.6,0 4.5,-0.6 5.8,-1.8 1.3,-1.2 2,-2.8 2,-4.7 0,-1.9 -0.2,-2.4 -0.7,-3.3 -0.5,-0.9 -1.3,-1.7 -2.5,-2.4 -1.2,-0.7 -2.8,-1.5 -4.8,-2.4 -3,-1.2 -5.3,-2.7 -6.9,-4.4 -1.6,-1.7 -2.4,-4.1 -2.4,-7.2 0,-3.1 0.5,-3.9 1.5,-5.4 1,-1.5 2.4,-2.7 4.1,-3.6 1.8,-0.8 3.8,-1.3 6.1,-1.3 2.3,0 3.8,0.2 5.4,0.6 1.6,0.4 3.1,0.9 4.4,1.5 l -1.5,4.3 c -1.3,-0.6 -2.6,-1.1 -4.1,-1.4 -1.4,-0.4 -2.9,-0.6 -4.3,-0.6 -2.2,0 -3.9,0.5 -5,1.6 -1.1,1.1 -1.7,2.5 -1.7,4.2 0,1.7 0.2,2.5 0.7,3.4 0.5,0.9 1.3,1.7 2.4,2.4 1.1,0.7 2.7,1.4 4.6,2.2 3.2,1.3 5.6,2.8 7.2,4.5 1.6,1.6 2.4,3.9 2.4,6.9"
     id="path1" />
  <path
     d="m 40.3,293.4 c -3.7,0 -6.7,-1.3 -8.9,-3.8 -2.2,-2.5 -3.3,-6.3 -3.3,-11.5 0,-5.2 1.1,-9.2 3.4,-11.8 2.3,-2.6 5.3,-3.8 9.1,-3.8 3.8,0 2.7,0.1 3.9,0.4 1.2,0.3 2.3,0.6 3.1,1.1 l -1.5,3.9 c -0.8,-0.3 -1.7,-0.6 -2.7,-0.9 -1,-0.3 -1.9,-0.4 -2.8,-0.4 -5.1,0 -7.6,3.8 -7.6,11.4 0,7.6 0.6,6.5 1.9,8.4 1.2,1.9 3.1,2.9 5.6,2.9 2.5,0 2.5,-0.1 3.6,-0.4 1.1,-0.3 2.1,-0.7 3.1,-1.2 v 4.1 c -1.9,1.1 -4.1,1.6 -6.9,1.6"
     id="path2" />
  <path
     d="M 58.3,292.8 H 53.6 V 263 h 4.7 z m -2.3,-41 c 0.8,0 1.4,0.3 1.9,0.8 0.5,0.5 0.8,1.3 0.8,2.4 0,1.1 -0.3,1.8 -0.8,2.3 -0.5,0.5 -1.2,0.8 -1.9,0.8 -0.7,0 -1.5,-0.3 -2,-0.8 -0.5,-0.5 -0.8,-1.3 -0.8,-2.3 0,-1 0.3,-1.9 0.8,-2.4 0.5,-0.5 1.2,-0.8 2,-0.8"
     id="path3" />
  <path
     d="m 77.2,266.4 c -2,0 -3.6,0.7 -4.8,2.2 -1.2,1.5 -1.9,3.6 -2.1,6.4 h 13.2 c 0,-2.5 -0.5,-4.5 -1.5,-6.2 -1,-1.6 -2.6,-2.5 -4.8,-2.5 m 0.1,-3.8 c 2.4,0 4.4,0.6 6,1.7 1.6,1.1 2.9,2.7 3.8,4.7 0.9,2 1.3,4.3 1.3,6.9 v 3 H 70.3 c 0,3.5 0.8,6.1 2.3,7.9 1.4,1.8 3.5,2.6 6.2,2.6 2.7,0 3,-0.2 4.4,-0.5 1.3,-0.3 2.7,-0.9 4,-1.6 v 4.2 c -1.4,0.7 -2.7,1.2 -4.1,1.5 -1.4,0.3 -2.9,0.5 -4.6,0.5 -4.1,0 -7.3,-1.4 -9.5,-4.1 -2.3,-2.7 -3.4,-6.4 -3.4,-11.2 0,-4.8 1.1,-8.8 3.2,-11.6 2.1,-2.7 5,-4.1 8.7,-4.1"
     id="path4" />
  <path
     d="m 108.3,262.5 c 3.1,0 5.5,0.9 7.1,2.6 1.6,1.7 2.4,4.4 2.4,8.1 v 19.7 h -4.7 v -19.2 c 0,-2.4 -0.5,-4.2 -1.4,-5.3 -0.9,-1.2 -2.3,-1.8 -4.3,-1.8 -2.8,0 -4.8,0.9 -5.9,2.7 -1.1,1.8 -1.6,4.5 -1.6,8.1 v 15.4 H 95.2 V 263 H 99 l 0.7,4.1 h 0.3 c 0.9,-1.5 2,-2.7 3.5,-3.4 1.5,-0.8 3.1,-1.2 4.8,-1.2"
     id="path5" />
  <path
     d="m 135.3,289.4 c 0.6,0 1.3,0 1.9,-0.2 0.7,-0.1 1.2,-0.3 1.7,-0.4 v 3.7 c -0.6,0.3 -1.3,0.5 -2.1,0.6 -0.9,0.2 -1.7,0.3 -2.6,0.3 -2.2,0 -4,-0.6 -5.4,-1.9 -1.4,-1.3 -2.2,-3.6 -2.2,-6.8 v -17.8 h -3.7 v -2.4 l 3.8,-1.7 1.7,-6.6 h 2.9 v 6.8 h 7.3 v 3.8 h -7.3 v 17.6 c 0,1.7 0.3,2.9 1,3.8 0.7,0.8 1.7,1.3 2.9,1.3"
     id="path6" />
  <path
     d="m 149.1,292.8 h -4.7 V 263 h 4.7 z m -2.3,-41 c 0.8,0 1.4,0.3 1.9,0.8 0.5,0.5 0.8,1.3 0.8,2.4 0,1.1 -0.3,1.8 -0.8,2.3 -0.5,0.5 -1.2,0.8 -1.9,0.8 -0.7,0 -1.5,-0.3 -2,-0.8 -0.5,-0.5 -0.8,-1.3 -0.8,-2.3 0,-1 0.3,-1.9 0.8,-2.4 0.5,-0.5 1.2,-0.8 2,-0.8"
     id="path7" />
  <path
     d="m 170,266.8 h -6.4 v 26 h -4.8 v -26 h -4.6 v -2.3 l 4.6,-1.6 v -1.7 c 0,-3.7 0.7,-6.4 2.1,-8.2 1.4,-1.8 3.6,-2.6 6.5,-2.6 2.9,0 2,0 2.9,0.3 0.9,0.2 1.7,0.4 2.4,0.7 l -1.2,3.8 c -0.6,-0.2 -1.2,-0.4 -1.8,-0.5 -0.7,-0.1 -1.3,-0.2 -2,-0.2 -1.4,0 -2.4,0.5 -3.1,1.6 -0.6,1 -1,2.8 -1,5.2 v 2 h 6.4 v 3.8 z"
     id="path8" />
  <path
     d="M 179.7,292.8 H 175 V 263 h 4.7 z m -2.2,-41 c 0.8,0 1.4,0.3 1.9,0.8 0.5,0.5 0.8,1.3 0.8,2.4 0,1.1 -0.3,1.8 -0.8,2.3 -0.5,0.5 -1.2,0.8 -1.9,0.8 -0.7,0 -1.5,-0.3 -2,-0.8 -0.5,-0.5 -0.8,-1.3 -0.8,-2.3 0,-1 0.3,-1.9 0.8,-2.4 0.5,-0.5 1.2,-0.8 2,-0.8"
     id="path9" />
  <path
     d="m 199.1,293.4 c -3.7,0 -6.7,-1.3 -8.9,-3.8 -2.2,-2.5 -3.3,-6.3 -3.3,-11.5 0,-5.2 1.1,-9.2 3.4,-11.8 2.3,-2.6 5.3,-3.8 9.1,-3.8 3.8,0 2.7,0.1 3.9,0.4 1.2,0.3 2.3,0.6 3.1,1.1 l -1.5,3.9 c -0.8,-0.3 -1.7,-0.6 -2.7,-0.9 -1,-0.3 -1.9,-0.4 -2.8,-0.4 -5.1,0 -7.6,3.8 -7.6,11.4 0,7.6 0.6,6.5 1.9,8.4 1.2,1.9 3.1,2.9 5.6,2.9 2.5,0 2.5,-0.1 3.6,-0.4 1.1,-0.3 2.1,-0.7 3.1,-1.2 v 4.1 c -1.9,1.1 -4.2,1.6 -6.9,1.6"
     id="path10" />
  <path
     d="m 246.2,282.1 c 0,3.5 -1.2,6.2 -3.5,8.3 -2.3,2 -5.4,3 -9.3,3 -3.9,0 -3.9,-0.1 -5.6,-0.4 -1.7,-0.3 -3.2,-0.8 -4.4,-1.4 v -4.8 c 1.3,0.6 2.8,1.2 4.6,1.6 1.8,0.4 3.6,0.7 5.4,0.7 2.6,0 4.5,-0.6 5.8,-1.8 1.3,-1.2 2,-2.8 2,-4.7 0,-1.9 -0.3,-2.4 -0.7,-3.3 -0.5,-0.9 -1.3,-1.7 -2.5,-2.4 -1.2,-0.7 -2.8,-1.5 -4.8,-2.4 -3,-1.2 -5.3,-2.7 -6.9,-4.4 -1.6,-1.7 -2.4,-4.1 -2.4,-7.2 0,-3.1 0.5,-3.9 1.5,-5.4 1,-1.5 2.4,-2.7 4.1,-3.6 1.8,-0.8 3.8,-1.3 6.1,-1.3 2.3,0 3.8,0.2 5.4,0.6 1.6,0.4 3.1,0.9 4.4,1.5 l -1.5,4.3 c -1.3,-0.6 -2.6,-1.1 -4.1,-1.4 -1.4,-0.4 -2.9,-0.6 -4.3,-0.6 -2.2,0 -3.9,0.5 -5,1.6 -1.1,1.1 -1.7,2.5 -1.7,4.2 0,1.7 0.2,2.5 0.7,3.4 0.5,0.9 1.3,1.7 2.4,2.4 1.1,0.7 2.7,1.4 4.6,2.2 3.2,1.3 5.6,2.8 7.2,4.5 1.6,1.6 2.4,3.9 2.4,6.9"
     id="path11" />
  <path
     d="m 263.3,266.4 c -2,0 -3.6,0.7 -4.8,2.2 -1.2,1.5 -1.9,3.6 -2.1,6.4 h 13.2 c 0,-2.5 -0.5,-4.5 -1.5,-6.2 -1,-1.6 -2.6,-2.5 -4.8,-2.5 m 0,-3.8 c 2.4,0 4.4,0.6 6,1.7 1.6,1.1 2.9,2.7 3.8,4.7 0.9,2 1.3,4.3 1.3,6.9 v 3 h -18.1 c 0,3.5 0.8,6.1 2.3,7.9 1.4,1.8 3.5,2.6 6.2,2.6 2.7,0 3,-0.2 4.4,-0.5 1.3,-0.3 2.7,-0.9 4,-1.6 v 4.2 c -1.4,0.7 -2.7,1.2 -4.1,1.5 -1.4,0.3 -2.9,0.5 -4.6,0.5 -4.1,0 -7.3,-1.4 -9.5,-4.1 -2.3,-2.7 -3.4,-6.4 -3.4,-11.2 0,-4.8 1.1,-8.8 3.2,-11.6 2.1,-2.7 5,-4.1 8.7,-4.1"
     id="path12" />
  <path
     d="m 293.8,262.5 c 1.1,0 2.2,0.1 3.2,0.3 l -0.6,4.6 c -0.4,-0.1 -0.9,-0.2 -1.4,-0.3 -0.5,0 -1,-0.1 -1.5,-0.1 -1.4,0 -2.6,0.4 -3.7,1.3 -1.1,0.9 -2,2 -2.7,3.5 -0.7,1.5 -1,3.3 -1,5.3 v 15.8 h -4.7 v -29.8 h 3.8 l 0.6,5.3 h 0.2 c 0.9,-1.7 1.9,-3.1 3.3,-4.2 1.3,-1.1 2.9,-1.7 4.6,-1.7"
     id="path13" />
  <path
     d="M 307.7,292.8 297.8,263 h 5 l 5.5,17.6 c 0.4,1.1 0.8,2.4 1.2,3.8 0.4,1.4 0.7,2.6 0.8,3.7 h 0.2 c 0.1,-0.8 0.4,-1.9 0.8,-3.3 0.4,-1.4 0.8,-2.6 1.1,-3.9 l 5.6,-18 h 5 l -10,29.8 h -5.3 z"
     id="path14" />
  <path
     d="m 332.2,292.8 h -4.7 V 263 h 4.7 z m -2.3,-41 c 0.8,0 1.4,0.3 1.9,0.8 0.5,0.5 0.8,1.3 0.8,2.4 0,1.1 -0.3,1.8 -0.8,2.3 -0.5,0.5 -1.2,0.8 -1.9,0.8 -0.7,0 -1.5,-0.3 -2,-0.8 -0.5,-0.5 -0.8,-1.3 -0.8,-2.3 0,-1 0.3,-1.9 0.8,-2.4 0.5,-0.5 1.2,-0.8 2,-0.8"
     id="path15" />
  <path
     d="m 351.6,293.4 c -3.7,0 -6.7,-1.3 -8.9,-3.8 -2.2,-2.5 -3.3,-6.3 -3.3,-11.5 0,-5.2 1.1,-9.2 3.4,-11.8 2.3,-2.6 5.3,-3.8 9.1,-3.8 3.8,0 2.7,0.1 3.9,0.4 1.2,0.3 2.3,0.6 3.1,1.1 l -1.5,3.9 c -0.8,-0.3 -1.7,-0.6 -2.7,-0.9 -1,-0.3 -1.9,-0.4 -2.8,-0.4 -5.1,0 -7.6,3.8 -7.6,11.4 0,7.6 0.6,6.5 1.9,8.4 1.2,1.9 3.1,2.9 5.6,2.9 2.5,0 2.5,-0.1 3.6,-0.4 1.1,-0.3 2.1,-0.7 3.1,-1.2 v 4.1 c -1.9,1.1 -4.1,1.6 -6.9,1.6"
     id="path16" />
  <path
     d="m 375.1,266.4 c -2,0 -3.6,0.7 -4.8,2.2 -1.2,1.5 -1.9,3.6 -2.1,6.4 h 13.2 c 0,-2.5 -0.5,-4.5 -1.5,-6.2 -1,-1.6 -2.6,-2.5 -4.8,-2.5 m 0,-3.8 c 2.4,0 4.4,0.6 6,1.7 1.6,1.1 2.9,2.7 3.8,4.7 0.9,2 1.3,4.3 1.3,6.9 v 3 h -18.1 c 0,3.5 0.8,6.1 2.2,7.9 1.4,1.8 3.5,2.6 6.2,2.6 2.7,0 3,-0.2 4.4,-0.5 1.3,-0.3 2.7,-0.9 4,-1.6 v 4.2 c -1.4,0.7 -2.7,1.2 -4.1,1.5 -1.4,0.3 -2.9,0.5 -4.6,0.5 -4.1,0 -7.3,-1.4 -9.5,-4.1 -2.3,-2.7 -3.4,-6.4 -3.4,-11.2 0,-4.8 1.1,-8.8 3.2,-11.6 2.1,-2.7 5,-4.1 8.7,-4.1"
     id="path17" />
  <path
     d="m 410.3,284.6 c 0,2.9 -1,5 -2.9,6.5 -1.9,1.5 -4.5,2.2 -7.8,2.2 -3.3,0 -3.5,-0.2 -4.8,-0.5 -1.4,-0.3 -2.5,-0.8 -3.6,-1.4 v -4.5 c 1,0.6 2.3,1.1 3.8,1.6 1.5,0.5 3,0.7 4.6,0.7 1.6,0 3.6,-0.4 4.6,-1.2 1,-0.8 1.4,-1.8 1.4,-3.2 0,-1.4 -0.4,-2.1 -1.3,-2.9 -0.9,-0.8 -2.5,-1.7 -5,-2.8 -1.7,-0.8 -3.1,-1.5 -4.3,-2.3 -1.2,-0.8 -2.2,-1.7 -2.8,-2.7 -0.7,-1.1 -1,-2.4 -1,-4 0,-2.5 0.9,-4.4 2.8,-5.8 1.9,-1.4 4.3,-2.1 7.4,-2.1 3.1,0 3.1,0.2 4.5,0.5 1.4,0.3 2.7,0.8 4,1.4 l -1.7,3.8 c -1.1,-0.5 -2.2,-0.9 -3.4,-1.3 -1.2,-0.3 -2.4,-0.5 -3.7,-0.5 -1.3,0 -3.1,0.3 -4,1 -0.9,0.7 -1.4,1.6 -1.4,2.7 0,1.1 0.2,1.6 0.6,2.1 0.4,0.6 1.1,1.1 2.1,1.7 1,0.6 2.3,1.2 3.9,1.9 2.5,1.1 4.4,2.2 5.8,3.5 1.4,1.3 2.1,3.1 2.1,5.4"
     id="path18" />
  <path
     class="st2"
     d="m 88.7,28.3 c 14.2,8.1 30.3,12.2 47.6,12.2 v 0 c 22.9,0 42.1,-7.1 49.9,-10.5 V 19.5 c 0,-2 -0.7,-19.5 -19,-19.5 H 20 C 18.1,0 1,0.7 1,19.5 v 3.3 c 8.9,-3.6 22.4,-7.6 38.6,-7.6 16.2,0 33.5,4.4 49,13.2"
     id="path19" />
  <path
     class="st2"
     d="m 156.9,109.7 v 75.4 h 10.4 c 2,0 19,-0.8 19,-19.5 v -64 c -6.5,2.6 -16.8,6.1 -29.4,8.1"
     id="path20" />
  <path
     class="st2"
     d="m 136.4,111.4 v 0 c -6.3,0 -12.4,-0.5 -18.4,-1.5 v 75.2 h 29.6 v -74.3 c -3.6,0.3 -7.4,0.5 -11.3,0.5"
     id="path21" />
  <path
     class="st2"
     d="M 84.8,98.1 C 82.9,97 81,96 79.1,95.1 v 90 h 29.6 v -77.2 c -8.4,-2.2 -16.4,-5.4 -23.9,-9.7"
     id="path22" />
  <path
     class="st0"
     d="m 40.2,86 v 99.1 H 69.8 V 91.2 C 60.2,87.8 50.3,86 40.2,85.9"
     id="path23" />
  <path
     class="st0"
     d="m 1.1,93.8 v 71.7 c 0,2 0.7,19.5 19,19.5 H 30.9 V 86.3 c -12.6,1.2 -23,4.6 -29.8,7.4"
     id="path24" />
  <path
     class="st2"
     d="M 88.7,59.8 C 102.9,67.9 119,72 136.3,72 v 0 c 22.9,0 42.1,-7.1 49.9,-10.5 V 38.6 c -9.7,3.9 -28.1,9.8 -49.9,9.8 v 0 C 117.5,48.4 100.2,44 84.8,35.2 70.6,27.1 55.4,23 39.7,23 24,23 9,27.8 1.1,31.3 v 22.9 c 8.9,-3.6 22.4,-7.6 38.6,-7.6 16.2,0 33.5,4.4 49,13.2"
     id="path25" />
  <path
     class="st1"
     d="m 88.7,91.3 c 14.2,8.1 30.3,12.2 47.7,12.2 17.4,0 42.1,-7.1 49.9,-10.5 V 70 c -9.7,3.9 -28.1,9.8 -49.9,9.8 v 0 C 117.6,79.8 100.3,75.4 84.9,66.6 70.7,58.5 55.5,54.4 39.8,54.4 24.1,54.4 9.1,59.2 1.2,62.7 v 23 c 8.9,-3.6 22.4,-7.6 38.6,-7.6 16.2,0 33.5,4.4 49,13.2"
     id="path26" />
  <polygon
     points="434.1,312.1 438.3,311.1 438.3,279.3 434.1,278.3 434.1,275.4 447.5,275.4 447.5,278.3 443.2,279.3 443.2,311.1 447.5,312.1 447.5,314.9 434.1,314.9 "
     id="polygon26"
     transform="translate(-215.5,-139.4)" />
  <path
     d="m 251.4,145.3 c 3.1,0 5.5,0.9 7.1,2.5 1.6,1.7 2.4,4.4 2.4,8.1 v 19.6 h -4.7 v -19.1 c 0,-2.4 -0.5,-4.1 -1.4,-5.3 -0.9,-1.2 -2.3,-1.8 -4.2,-1.8 -2.8,0 -4.7,0.9 -5.8,2.7 -1.1,1.8 -1.6,4.5 -1.6,8.1 v 15.4 h -4.7 v -29.7 h 3.8 l 0.7,4 h 0.3 c 0.8,-1.5 2,-2.7 3.5,-3.4 1.5,-0.8 3.1,-1.2 4.8,-1.2"
     id="path27" />
  <path
     d="m 286.4,167.4 c 0,2.8 -1,5 -2.8,6.5 -1.9,1.5 -4.5,2.2 -7.7,2.2 -3.2,0 -3.4,-0.2 -4.8,-0.5 -1.3,-0.3 -2.5,-0.8 -3.6,-1.4 v -4.5 c 1,0.6 2.3,1.1 3.8,1.6 1.5,0.5 3,0.7 4.6,0.7 1.6,0 3.6,-0.4 4.5,-1.2 1,-0.8 1.4,-1.8 1.4,-3.2 0,-1.4 -0.4,-2.1 -1.3,-2.9 -0.9,-0.8 -2.5,-1.7 -5,-2.8 -1.7,-0.8 -3.1,-1.5 -4.3,-2.3 -1.2,-0.8 -2.2,-1.7 -2.8,-2.7 -0.7,-1.1 -1,-2.4 -1,-4 0,-2.5 0.9,-4.4 2.8,-5.8 1.9,-1.4 4.3,-2 7.3,-2 3,0 3.1,0.2 4.5,0.5 1.4,0.3 2.7,0.8 4,1.4 l -1.7,3.8 c -1.1,-0.5 -2.2,-0.9 -3.4,-1.3 -1.2,-0.3 -2.4,-0.5 -3.7,-0.5 -1.3,0 -3.1,0.3 -4,1 -0.9,0.7 -1.4,1.6 -1.4,2.7 0,1.1 0.2,1.5 0.6,2.1 0.4,0.6 1.1,1.1 2,1.7 1,0.6 2.3,1.2 3.9,1.9 2.5,1.1 4.4,2.2 5.8,3.5 1.4,1.3 2.1,3 2.1,5.4"
     id="path28" />
  <path
     d="m 301.9,172.1 c 0.6,0 1.3,0 1.9,-0.2 0.7,-0.1 1.2,-0.3 1.7,-0.4 v 3.7 c -0.6,0.3 -1.3,0.5 -2.1,0.6 -0.9,0.2 -1.7,0.2 -2.6,0.2 -2.2,0 -4,-0.6 -5.4,-1.9 -1.4,-1.3 -2.2,-3.6 -2.2,-6.8 v -17.7 h -3.7 v -2.4 l 3.8,-1.7 1.7,-6.5 h 2.9 v 6.8 h 7.2 v 3.8 h -7.2 v 17.5 c 0,1.7 0.3,2.9 1,3.7 0.7,0.8 1.6,1.2 2.9,1.2"
     id="path29" />
  <path
     d="m 315.6,175.5 h -4.7 v -29.7 h 4.7 z m -2.3,-40.8 c 0.8,0 1.4,0.3 1.9,0.8 0.5,0.5 0.8,1.3 0.8,2.4 0,1.1 -0.3,1.8 -0.8,2.3 -0.5,0.5 -1.2,0.8 -1.9,0.8 -0.7,0 -1.5,-0.3 -2,-0.8 -0.5,-0.5 -0.8,-1.3 -0.8,-2.3 0,-1 0.3,-1.9 0.8,-2.4 0.5,-0.5 1.2,-0.8 2,-0.8"
     id="path30" />
  <path
     d="m 333.1,172.1 c 0.6,0 1.3,0 1.9,-0.2 0.7,-0.1 1.2,-0.3 1.7,-0.4 v 3.7 c -0.6,0.3 -1.3,0.5 -2.1,0.6 -0.9,0.2 -1.7,0.2 -2.6,0.2 -2.2,0 -4,-0.6 -5.4,-1.9 -1.4,-1.3 -2.2,-3.6 -2.2,-6.8 v -17.7 h -3.7 v -2.4 l 3.8,-1.7 1.7,-6.5 h 2.9 v 6.8 h 7.2 v 3.8 h -7.2 v 17.5 c 0,1.7 0.3,2.9 1,3.7 0.7,0.8 1.6,1.2 2.9,1.2"
     id="path31" />
  <path
     d="m 364.4,145.9 v 29.7 h -3.8 l -0.7,-3.9 h -0.3 c -0.8,1.5 -2,2.6 -3.5,3.4 -1.5,0.7 -3.1,1.1 -4.8,1.1 -3.2,0 -5.6,-0.9 -7.2,-2.7 -1.5,-1.8 -2.3,-4.5 -2.3,-8.1 V 146 h 4.8 v 18.9 c 0,4.9 1.8,7.3 5.5,7.3 3.7,0 4.8,-0.9 5.9,-2.7 1.1,-1.8 1.7,-4.4 1.7,-7.9 v -15.5 h 4.7 z"
     id="path32" />
  <path
     d="m 382,172.1 c 0.6,0 1.3,0 1.9,-0.2 0.7,-0.1 1.2,-0.3 1.7,-0.4 v 3.7 c -0.6,0.3 -1.3,0.5 -2.1,0.6 -0.9,0.2 -1.7,0.2 -2.6,0.2 -2.2,0 -4,-0.6 -5.4,-1.9 -1.4,-1.3 -2.2,-3.6 -2.2,-6.8 v -17.7 h -3.7 v -2.4 l 3.8,-1.7 1.7,-6.5 h 2.9 v 6.8 h 7.2 v 3.8 H 378 v 17.5 c 0,1.7 0.3,2.9 1,3.7 0.7,0.8 1.7,1.2 2.9,1.2"
     id="path33" />
  <path
     d="m 401.2,149.2 c -2,0 -3.6,0.7 -4.8,2.2 -1.2,1.5 -1.9,3.6 -2.1,6.4 h 13.2 c 0,-2.5 -0.5,-4.5 -1.5,-6.2 -1,-1.6 -2.6,-2.5 -4.8,-2.5 m 0.1,-3.8 c 2.4,0 4.4,0.6 6,1.7 1.6,1.1 2.9,2.7 3.8,4.7 0.9,2 1.3,4.3 1.3,6.9 v 3 h -18 c 0,3.5 0.8,6.1 2.2,7.8 1.4,1.8 3.5,2.6 6.2,2.6 2.7,0 3,-0.2 4.3,-0.5 1.3,-0.3 2.6,-0.8 4,-1.5 v 4.1 c -1.4,0.7 -2.7,1.2 -4.1,1.5 -1.3,0.3 -2.9,0.5 -4.6,0.5 -4.1,0 -7.2,-1.3 -9.5,-4 -2.3,-2.7 -3.4,-6.4 -3.4,-11.1 0,-4.7 1.1,-8.8 3.2,-11.5 2.1,-2.7 5,-4.1 8.6,-4.1"
     id="path34" />
  <polygon
     points="441.2,153 432.4,153 432.4,149.5 453.9,149.5 453.9,153 445.2,153 445.2,182.1 441.2,182.1 "
     id="polygon34"
     transform="translate(-215.5,-139.4)" />
  <path
     d="m 246.4,8 v 10 c 0,0.6 0,1.2 0,1.8 0,0.6 0,1.2 -0.2,1.7 h 0.3 c 0.7,-1.2 1.6,-2.2 2.8,-2.8 1.2,-0.6 2.5,-1 3.9,-1 2.6,0 4.6,0.7 5.9,2.1 1.3,1.4 1.9,3.6 1.9,6.6 v 16.2 h -3.9 V 26.8 c 0,-2 -0.4,-3.4 -1.1,-4.4 -0.7,-1 -1.9,-1.4 -3.5,-1.4 -2.3,0 -3.9,0.8 -4.8,2.3 -0.9,1.5 -1.3,3.7 -1.3,6.6 v 12.7 h -3.9 V 7.9 h 3.9 z"
     id="path35" />
  <path
     d="m 276.5,20.9 c -1.7,0 -3,0.6 -3.9,1.8 -0.9,1.2 -1.5,3 -1.7,5.3 h 10.9 c 0,-2 -0.4,-3.7 -1.3,-5.1 -0.8,-1.4 -2.2,-2 -4,-2 m 0,-3.2 c 1.9,0 3.6,0.5 5,1.4 1.4,0.9 2.4,2.2 3.1,3.9 0.7,1.7 1.1,3.6 1.1,5.7 v 2.5 h -14.9 c 0,2.9 0.7,5 1.8,6.5 1.2,1.4 2.9,2.2 5.1,2.2 2.2,0 2.5,-0.1 3.6,-0.4 1.1,-0.3 2.2,-0.7 3.3,-1.3 v 3.4 c -1.1,0.5 -2.2,1 -3.4,1.2 -1.1,0.3 -2.4,0.4 -3.8,0.4 -3.3,0 -6,-1.1 -7.8,-3.3 -1.9,-2.2 -2.8,-5.3 -2.8,-9.2 0,-3.9 0.9,-7.2 2.6,-9.5 1.7,-2.3 4.1,-3.4 7.1,-3.4"
     id="path36" />
  <path
     d="m 298.5,51.4 c -1.3,0 -2.4,-0.2 -3.2,-0.5 v -3.5 c 0.4,0.2 0.9,0.3 1.4,0.3 0.5,0 1,0.1 1.6,0.1 1.1,0 2,-0.4 2.8,-1.1 0.7,-0.8 1.1,-2.2 1.1,-4.2 V 10.1 h 4 v 32.3 c 0,3.2 -0.7,5.5 -2.1,6.9 -1.4,1.4 -3.3,2.1 -5.6,2.1"
     id="path37" />
  <path
     d="m 325.9,30.7 h -3.1 c -2.5,0.2 -4.3,0.7 -5.3,1.6 -1,0.9 -1.6,2.1 -1.6,3.7 0,1.6 0.4,2.5 1.1,3.1 0.7,0.7 1.7,1 2.9,1 1.8,0 3.2,-0.6 4.4,-1.8 1.1,-1.2 1.7,-2.9 1.7,-5.3 v -2.3 z m -4,-13 c 2.7,0 4.7,0.7 6,2.1 1.3,1.4 1.9,3.5 1.9,6.3 v 16.6 h -2.9 l -0.7,-3.4 h -0.1 c -0.9,1.3 -1.9,2.3 -3,2.9 -1.1,0.6 -2.5,1 -4.3,1 -1.8,0 -3.8,-0.6 -5,-1.9 -1.3,-1.3 -1.9,-3.1 -1.9,-5.3 0,-2.2 0.9,-4.3 2.6,-5.7 1.7,-1.3 4.3,-2.1 7.8,-2.2 h 3.7 v -1.6 c 0,-2 -0.4,-3.4 -1.1,-4.2 -0.7,-0.8 -1.8,-1.2 -3.3,-1.2 -1.5,0 -2.1,0.2 -3.1,0.5 -1,0.3 -2,0.7 -3,1.2 l -1.2,-2.9 c 1,-0.6 2.2,-1.1 3.5,-1.5 1.3,-0.4 2.7,-0.5 4.1,-0.5"
     id="path38" />
  <path
     d="m 360.9,17.7 c 2.5,0 4.3,0.7 5.5,2.1 1.2,1.4 1.8,3.6 1.8,6.7 v 16.1 h -3.9 V 26.8 c 0,-3.9 -1.4,-5.8 -4.3,-5.8 -2.9,0 -3.5,0.7 -4.4,2.1 -0.9,1.4 -1.3,3.4 -1.3,6 v 13.5 h -3.8 V 26.8 c 0,-2 -0.4,-3.4 -1.1,-4.4 -0.7,-0.9 -1.8,-1.4 -3.3,-1.4 -2.2,0 -3.6,0.8 -4.4,2.4 -0.8,1.6 -1.2,3.7 -1.2,6.5 v 12.7 h -3.9 V 18.1 h 3.1 l 0.5,3.3 h 0.2 c 0.7,-1.3 1.6,-2.2 2.7,-2.9 1.1,-0.6 2.4,-0.9 3.8,-0.9 3.4,0 5.6,1.3 6.6,4 h 0.2 c 0.7,-1.4 1.7,-2.4 2.9,-3 1.2,-0.7 2.6,-1 4.1,-1"
     id="path39" />
  <path
     d="m 383.6,20.9 c -1.7,0 -3,0.6 -3.9,1.8 -1,1.2 -1.5,3 -1.7,5.3 h 10.9 c 0,-2 -0.4,-3.7 -1.3,-5.1 -0.8,-1.4 -2.2,-2 -3.9,-2 m 0,-3.2 c 1.9,0 3.6,0.5 5,1.4 1.4,0.9 2.4,2.2 3.1,3.9 0.7,1.7 1.1,3.6 1.1,5.7 v 2.5 H 378 c 0,2.9 0.7,5 1.8,6.5 1.2,1.4 2.9,2.2 5.1,2.2 2.2,0 2.5,-0.1 3.6,-0.4 1.1,-0.3 2.2,-0.7 3.3,-1.3 v 3.4 c -1.1,0.5 -2.2,1 -3.4,1.2 -1.1,0.3 -2.4,0.4 -3.8,0.4 -3.3,0 -6,-1.1 -7.8,-3.3 -1.9,-2.2 -2.8,-5.3 -2.8,-9.2 0,-3.9 0.9,-7.2 2.6,-9.5 1.7,-2.3 4.1,-3.4 7.1,-3.4"
     id="path40" />
  <path
     d="m 412.6,36 c 0,2.3 -0.8,4.1 -2.4,5.3 -1.6,1.2 -3.7,1.8 -6.4,1.8 -2.7,0 -2.8,-0.1 -4,-0.4 -1.1,-0.3 -2.1,-0.6 -2.9,-1.1 v -3.7 c 0.9,0.5 1.9,0.9 3.1,1.3 1.2,0.4 2.5,0.6 3.8,0.6 1.3,0 3,-0.3 3.7,-1 0.8,-0.6 1.2,-1.5 1.2,-2.6 0,-1.1 -0.4,-1.7 -1.1,-2.4 -0.7,-0.7 -2.1,-1.4 -4.1,-2.3 -1.4,-0.6 -2.6,-1.3 -3.6,-1.9 -1,-0.6 -1.8,-1.4 -2.3,-2.2 -0.5,-0.9 -0.8,-2 -0.8,-3.3 0,-2 0.8,-3.6 2.3,-4.7 1.5,-1.1 3.6,-1.7 6,-1.7 2.4,0 2.5,0.1 3.7,0.4 1.2,0.3 2.3,0.7 3.3,1.2 l -1.4,3.1 c -0.9,-0.4 -1.8,-0.8 -2.8,-1.1 -1,-0.3 -2,-0.4 -3,-0.4 -1,0 -2.5,0.3 -3.3,0.8 -0.8,0.5 -1.1,1.3 -1.1,2.2 0,0.9 0.2,1.3 0.5,1.7 0.3,0.5 0.9,0.9 1.7,1.4 0.8,0.5 1.9,1 3.2,1.6 2,0.9 3.6,1.8 4.8,2.9 1.1,1 1.7,2.5 1.7,4.4"
     id="path41" />
  <polygon
     points="458.7,231.5 447.1,231.5 447.1,248.8 436.1,248.8 436.1,206.7 447.1,206.7 447.1,222.4 458.7,222.4 458.7,206.7 469.6,206.7 469.6,248.8 458.7,248.8 "
     id="polygon41"
     transform="translate(-215.5,-139.4)" />
  <path
     d="m 291.1,76.8 v 32.6 H 283 l -1.3,-4.1 h -0.6 c -0.9,1.6 -2.2,2.8 -3.7,3.5 -1.6,0.7 -3.3,1.1 -5.2,1.1 -3.1,0 -5.6,-1 -7.5,-2.9 -2,-2 -2.9,-5 -2.9,-9 V 76.8 h 10.7 v 17.9 c 0,2.2 0.3,3.8 0.8,4.9 0.5,1.1 1.4,1.7 2.6,1.7 2,0 3.3,-0.8 3.9,-2.5 0.6,-1.7 0.9,-4 0.9,-7 V 76.9 h 10.6 z"
     id="path42" />
  <path
     d="m 313,101.3 c 0.8,0 1.6,-0.1 2.4,-0.3 0.8,-0.2 1.6,-0.5 2.5,-0.8 v 8 c -1.2,0.6 -2.4,1 -3.7,1.3 -1.3,0.3 -2.8,0.5 -4.7,0.5 -3.2,0 -5.7,-0.8 -7.5,-2.5 -1.8,-1.7 -2.6,-4.6 -2.6,-8.8 V 85 h -3.7 v -4.8 l 4.7,-3.1 2.7,-6.8 h 7 v 6.5 h 7.3 V 85 h -7.3 v 13.2 c 0,2.1 0.9,3.2 2.8,3.2"
     id="path43" />
  <path
     d="m 337.9,101.3 c 0.8,0 1.6,-0.1 2.4,-0.3 0.8,-0.2 1.6,-0.5 2.5,-0.8 v 8 c -1.2,0.6 -2.4,1 -3.7,1.3 -1.3,0.3 -2.8,0.5 -4.7,0.5 -3.2,0 -5.7,-0.8 -7.5,-2.5 -1.8,-1.7 -2.6,-4.6 -2.6,-8.8 V 85 h -3.7 v -4.8 l 4.7,-3.1 2.7,-6.8 h 7 v 6.5 h 7.3 V 85 H 335 v 13.2 c 0,2.1 0.9,3.2 2.8,3.2"
     id="path44" />
  <path
     d="m 357.4,93.1 c 0,2.8 0.3,5 1,6.5 0.7,1.5 1.8,2.2 3.5,2.2 1.7,0 2.7,-0.7 3.3,-2.2 0.6,-1.5 1,-3.7 1,-6.6 0,-2.9 -0.3,-5 -1,-6.5 -0.7,-1.4 -1.8,-2.2 -3.4,-2.2 -2.9,0 -4.4,2.9 -4.4,8.7 m 19.6,0 c 0,3.3 -0.6,6.2 -1.7,8.8 -1.1,2.6 -2.8,4.6 -5.1,6 -2.3,1.5 -5.1,2.2 -8.4,2.2 -3.3,0 -5.8,-0.7 -8.1,-2.2 -2.3,-1.4 -4,-3.4 -5.3,-6 -1.2,-2.5 -1.8,-5.5 -1.8,-8.9 0,-5.1 1.3,-9.2 3.9,-12.2 2.6,-3 6.4,-4.6 11.4,-4.6 5,0 5.5,0.6 7.8,1.9 2.3,1.3 4.1,3.2 5.3,5.7 1.3,2.5 1.9,5.6 1.9,9.2"
     id="path45" />
  <path
     d="m 401.8,76.2 c 3.2,0 5.7,1 7.7,2.9 1.9,2 2.9,5 2.9,9 v 21.2 H 401.7 V 91.4 c 0,-2.2 -0.3,-3.8 -0.8,-4.9 -0.5,-1.1 -1.4,-1.7 -2.8,-1.7 -1.4,0 -3.1,0.8 -3.7,2.4 -0.6,1.6 -0.9,4.1 -0.9,7.5 v 14.5 H 382.9 V 76.6 h 8.1 l 1.4,4.2 h 0.5 c 0.9,-1.5 2.1,-2.7 3.6,-3.5 1.5,-0.8 3.3,-1.2 5.4,-1.2"
     id="path46" />
  <rect
     x="1.1000061"
     y="217.89999"
     width="411.5"
     height="1.7"
     id="rect46" />
</svg>
