<?xml version="1.0" encoding="UTF-8" standalone="no"?>
<!-- Created with Inkscape (http://www.inkscape.org/) -->

<svg
   version="1.1"
   id="svg2"
   xml:space="preserve"
   width="133.57573"
   height="55.888"
   viewBox="0 0 133.57573 55.888"
   sodipodi:docname="norad-black.svg"
   inkscape:version="1.1 (c68e22c387, 2021-05-23)"
   xmlns:inkscape="http://www.inkscape.org/namespaces/inkscape"
   xmlns:sodipodi="http://sodipodi.sourceforge.net/DTD/sodipodi-0.dtd"
   xmlns="http://www.w3.org/2000/svg"
   xmlns:svg="http://www.w3.org/2000/svg"><defs
     id="defs6"><clipPath
       clipPathUnits="userSpaceOnUse"
       id="clipPath16"><path
         d="M 0,841.89 H 595.28 V 0 H 0 Z"
         id="path14" /></clipPath></defs><sodipodi:namedview
     id="namedview4"
     pagecolor="#ffffff"
     bordercolor="#666666"
     borderopacity="1.0"
     inkscape:pageshadow="2"
     inkscape:pageopacity="0.0"
     inkscape:pagecheckerboard="0"
     showgrid="false"
     inkscape:zoom="1.6017532"
     inkscape:cx="-218.82273"
     inkscape:cy="39.019745"
     inkscape:window-width="3440"
     inkscape:window-height="1377"
     inkscape:window-x="-8"
     inkscape:window-y="-8"
     inkscape:window-maximized="1"
     inkscape:current-layer="g8" /><g
     id="g8"
     inkscape:groupmode="layer"
     inkscape:label="norad_logo_black_cmyk"
     transform="matrix(1.3333333,0,0,-1.3333333,-330.83026,589.69719)"><g
       id="g10"><g
         id="g12"
         clip-path="url(#clipPath16)"><g
           id="g18"
           transform="translate(305.7441,414.1211)"><path
             d="M 0,0 C -2.178,0 -3.734,1.627 -3.734,4.46 -3.734,7.23 -2.215,8.758 0,8.758 2.215,8.758 3.635,7.23 3.635,4.46 3.635,1.627 2.182,0 0,0 m 0,10.854 c -3.93,0 -6.578,-2.389 -6.578,-6.394 0,-3.979 2.767,-6.553 6.578,-6.553 3.639,0 6.48,2.757 6.48,6.553 0,4.005 -2.548,6.394 -6.48,6.394"
             style="fill:#1d1d1b;fill-opacity:1;fill-rule:nonzero;stroke:none"
             id="path20" /></g><g
           id="g22"
           transform="translate(343.8145,414.1924)"><path
             d="m 0,0 c -2.51,0 -4.068,1.647 -4.068,4.296 0,2.956 1.291,4.391 3.955,4.391 0.541,0 1.152,-0.061 1.902,-0.178 V 0.099 C 1.039,0.031 0.477,0 0,0 m 1.789,17.001 v -6.307 c -1.066,0.134 -1.812,0.136 -2.266,0.134 h -0.138 c -3.873,0 -6.28,-2.526 -6.28,-6.599 0,-3.916 2.487,-6.346 6.803,-6.346 1.442,0 3.264,0.222 4.385,0.411 l 0.162,0.029 0.035,18.678 z"
             style="fill:#1d1d1b;fill-opacity:1;fill-rule:nonzero;stroke:none"
             id="path24" /></g><g
           id="g26"
           transform="translate(331.6836,414.2051)"><path
             d="m 0,0 c -0.221,-0.017 -0.654,-0.042 -0.654,-0.042 -0.594,-0.041 -0.95,-0.062 -1.383,-0.062 -2.135,0 -3.453,0.339 -3.453,2.02 0,1.421 0.957,1.927 3.658,1.927 l 0.699,-0.025 c 0,0 0.858,-0.029 1.133,-0.04 z m -3.018,10.723 c -1.365,0 -2.707,-0.132 -4.095,-0.407 V 8.143 c 1.228,0.22 2.607,0.461 3.845,0.461 3.155,0 3.247,-0.539 3.248,-2.753 -0.269,0.008 -0.966,0.035 -0.966,0.035 l -0.778,0.028 c -2.427,0 -6.484,0 -6.484,-3.933 0,-3.611 2.625,-4.059 5.461,-4.111 1.476,-0.026 3.002,0.041 5.262,0.41 l 0.158,0.034 0.015,8.252 c 0,3.844 -2.568,4.157 -5.666,4.157"
             style="fill:#1d1d1b;fill-opacity:1;fill-rule:nonzero;stroke:none"
             id="path28" /></g><g
           id="g30"
           transform="translate(317.5625,421.6484)"><path
             d="M 0,0 V -9.297 H -2.699 V 3.247 h 2.318 c 0,0 -0.021,-1.145 0,-1.145 2.248,1.336 3.676,1.163 4.899,1.09 V 0.812 C 3.193,0.896 1.221,0.862 0,0"
             style="fill:#1d1d1b;fill-opacity:1;fill-rule:nonzero;stroke:none"
             id="path32" /></g><g
           id="g34"
           transform="translate(296.4805,430.2695)"><path
             d="m 0,0 v -17.883 h -3.994 c -0.024,0.044 -7.043,14.163 -7.043,14.163 h -0.225 v -14.163 h -2.67 V 0 h 2.362 c 1.683,0 2.31,-1.115 2.767,-1.932 l 0.076,-0.135 5.838,-11.979 h 0.225 V 0 Z"
             style="fill:#1d1d1b;fill-opacity:1;fill-rule:nonzero;stroke:none"
             id="path36" /></g><g
           id="g38"
           transform="translate(249.8027,430.1709)"><path
             d="m 0,0 c 3.809,-0.324 7.33,-1.854 10.197,-4.281 v -0.094 c -3.004,-0.191 -5.666,-1.38 -7.752,-3.296 -1.56,1.913 -2.466,4.358 -2.466,7.017 0,0.219 0.007,0.436 0.021,0.654 M 3.236,7.233 C 5.711,6.643 8.041,5.717 10.229,4.449 V 2.068 C 7.658,3.705 4.795,4.869 1.766,5.434 2.195,6.084 2.688,6.687 3.236,7.233 M 20.379,5.434 C 17.354,4.869 14.49,3.705 11.924,2.068 v 2.381 c 2.183,1.268 4.51,2.194 6.986,2.784 0.551,-0.546 1.043,-1.149 1.469,-1.799 m -2.317,-21.678 c -0.074,1.496 -0.392,2.972 -0.853,4.41 0.902,0.498 1.738,1.101 2.494,1.791 1.399,-1.717 2.266,-3.858 2.436,-6.201 z m -6.171,-11.966 0.033,5.844 c 1.135,-0.078 2.205,-0.332 3.244,-0.74 -0.758,-1.804 -1.85,-3.575 -3.24,-5.102 -0.012,0 -0.026,-0.002 -0.037,-0.002 m -4.911,5.096 c 1.051,0.416 2.118,0.667 3.249,0.748 l 0.031,-5.844 c -0.014,0.002 -0.028,0.002 -0.041,0.002 -1.391,1.527 -2.483,3.298 -3.239,5.094 M 4.937,-11.832 C 4.473,-13.271 4.152,-14.75 4.078,-16.244 H 0.01 c 0.17,2.343 1.037,4.484 2.435,6.201 0.754,-0.69 1.588,-1.293 2.492,-1.789 m 11.698,-12 c 0.701,-0.402 1.353,-0.882 1.949,-1.43 -1.334,-1.227 -2.77,-2.053 -4.496,-2.572 0.955,0.935 1.937,2.674 2.547,4.002 m -8.571,-4.002 c -1.73,0.519 -3.164,1.345 -4.5,2.572 0.596,0.548 1.248,1.028 1.952,1.43 0.605,-1.328 1.589,-3.067 2.548,-4.002 m 6.024,21.548 c 1.726,-0.518 3.162,-1.345 4.496,-2.57 -0.596,-0.545 -1.248,-1.026 -1.949,-1.431 -0.61,1.33 -1.592,3.065 -2.547,4.001 m -8.572,-4.001 c -0.704,0.405 -1.356,0.886 -1.952,1.431 1.336,1.225 2.77,2.052 4.5,2.57 -0.959,-0.936 -1.943,-2.671 -2.548,-4.001 m 4.713,8.032 C 7.312,-0.115 3.877,1.291 0.211,1.616 0.379,2.42 0.604,3.194 0.936,3.924 4.301,3.382 7.479,2.096 10.229,0.155 Z m 0,8.509 c -1.741,0.932 -3.545,1.715 -5.452,2.26 1.58,1.089 3.428,1.81 5.452,1.96 z m 1.695,4.22 c 2.019,-0.15 3.867,-0.871 5.445,-1.96 C 15.461,7.969 13.66,7.186 11.924,6.254 Z m 0,-10.319 c 2.746,1.941 5.922,3.227 9.289,3.769 0.332,-0.73 0.553,-1.504 0.723,-2.308 -3.665,-0.325 -7.1,-1.732 -10.012,-3.871 z m 0,-11.907 -0.033,5.852 c 0.011,0 0.025,0 0.037,-0.002 1.39,-1.535 2.48,-3.299 3.236,-5.1 -1.027,-0.405 -2.098,-0.667 -3.24,-0.75 m 0,-4.492 v 2.861 c 1.34,0.085 2.596,0.378 3.795,0.85 0.373,-1.213 0.599,-2.459 0.666,-3.711 z m -1.695,2.861 v -2.861 H 5.756 c 0.07,1.252 0.295,2.498 0.668,3.712 1.201,-0.473 2.459,-0.766 3.805,-0.851 m 0.031,7.483 -0.031,-5.852 c -1.149,0.083 -2.217,0.346 -3.247,0.751 0.756,1.799 1.848,3.564 3.241,5.099 0.009,0.002 0.023,0.002 0.037,0.002 M 5.754,-17.874 h 4.475 v -2.859 c -1.325,-0.083 -2.579,-0.368 -3.807,-0.852 -0.371,1.216 -0.598,2.462 -0.668,3.711 m 9.965,-3.707 c -1.229,0.48 -2.481,0.765 -3.795,0.848 v 2.859 h 4.461 c -0.067,-1.247 -0.293,-2.492 -0.666,-3.707 M 0.01,-17.874 h 4.068 c 0.072,-1.492 0.393,-2.967 0.858,-4.404 -0.905,-0.497 -1.735,-1.092 -2.495,-1.789 -1.396,1.713 -2.261,3.857 -2.431,6.193 m 19.697,-6.195 c -0.764,0.699 -1.596,1.297 -2.498,1.794 0.461,1.435 0.779,2.912 0.853,4.401 h 4.077 c -0.17,-2.336 -1.035,-4.482 -2.432,-6.195 m -0.004,16.398 c -2.088,1.916 -4.752,3.105 -7.75,3.296 v 0.094 c 2.863,2.426 6.385,3.956 10.197,4.28 0.012,-0.218 0.018,-0.434 0.018,-0.653 0,-2.659 -0.906,-5.104 -2.465,-7.017 m 4.125,7.017 c 0,7.032 -5.721,12.756 -12.754,12.756 -7.035,0 -12.754,-5.724 -12.754,-12.756 0,-3.121 1.127,-5.984 2.992,-8.202 -1.865,-2.221 -2.992,-5.083 -2.992,-8.204 0,-7.032 5.719,-12.754 12.754,-12.754 7.033,0 12.754,5.722 12.754,12.754 0,3.121 -1.127,5.983 -2.996,8.204 1.869,2.218 2.996,5.081 2.996,8.202"
             style="fill:#1d1d1b;fill-opacity:1;fill-rule:nonzero;stroke:none"
             id="path40" /></g></g></g></g></svg>
