<?xml version="1.0" encoding="UTF-8" standalone="no"?>
<!-- Generator: Adobe Illustrator 19.2.1, SVG Export Plug-In . SVG Version: 6.00 Build 0)  -->

<svg
   version="1.1"
   id="layer"
   x="0px"
   y="0px"
   viewBox="0 0 599.90289 216.59938"
   xml:space="preserve"
   sodipodi:docname="norwegian-ministry-of-foreign-affairs-new.svg"
   width="599.90289"
   height="216.59938"
   inkscape:version="1.1 (c68e22c387, 2021-05-23)"
   xmlns:inkscape="http://www.inkscape.org/namespaces/inkscape"
   xmlns:sodipodi="http://sodipodi.sourceforge.net/DTD/sodipodi-0.dtd"
   xmlns="http://www.w3.org/2000/svg"
   xmlns:svg="http://www.w3.org/2000/svg"><defs
   id="defs75">
	
	
	
	
	
	
	
	
	
	
	
	
	
	
	
	
	
	
	
	
	
	
	
	
	
	
	
	
	
	
	
	
	
	
</defs><sodipodi:namedview
   id="namedview73"
   pagecolor="#ffffff"
   bordercolor="#666666"
   borderopacity="1.0"
   inkscape:pageshadow="2"
   inkscape:pageopacity="0.0"
   inkscape:pagecheckerboard="0"
   showgrid="false"
   inkscape:zoom="0.68941718"
   inkscape:cx="-166.08231"
   inkscape:cy="36.987764"
   inkscape:window-width="3440"
   inkscape:window-height="1377"
   inkscape:window-x="-8"
   inkscape:window-y="-8"
   inkscape:window-maximized="1"
   inkscape:current-layer="layer" />
<path
   d="m 40.702896,70.1 c 0,0 -4.3,-0.3 -5,-0.5 -0.8,-0.2 -2.1,-1 -2.3,-1.4 -0.1,-0.4 0,-1.5 1,-1.1 0.9,0.4 1.3,1 3.2,1.2 0.8,0.1 2,0.3 2.2,0.2 z m -36.2,6.8 c 0.7,-1.2 5.7,-6.8 7.7,-7.9 1.2,-0.7 3.2,-0.4 3.2,-0.4 v 6.8 c -0.3,-0.1 -1.2,-0.3 -2.3,-0.5 -1.1,-0.2 -3.9,0.5 -3.9,0.5 l -0.7,1.2 c 2.2,-0.4 3.3,0.6 3.3,0.6 0,0.5 0.7,2.1 1,2.3 0.3,0.2 2.7,0.3 2.7,0.3 v 1 c -1.5,0.1 -3.5,1.3 -4,1.8 -1.2,1.1 -2,2.9 -2,2.9 l -0.3,1.6 0.5,0.5 c 0,0 0.9,-1.2 1.5,-1.6 1.1,-0.8 1.8,0.5 2.3,0.7 0.4,0.2 1.1,-0.6 1.5,-1 0.4,-0.4 0.6,-0.2 0.6,-0.2 V 109 c -2.1,-0.4 -4.1,0.4 -4.6,0.7 -0.6,0.3 -1,1.3 -1,1.3 0.3,-0.1 2.4,-0.2 2.9,0 0.5,0.2 1.2,2.3 1.4,2.6 0.3,0.2 1.3,0.2 1.3,0.2 0,0 0.1,2.6 0.1,2.8 0,0.3 -0.6,0.7 -1,1.2 -0.6,0.7 -1.4,3.8 -1.4,3.8 l 0.5,1.2 c 0,0 0.5,-1 0.6,-1.3 0.5,-1 1.1,-1 1.1,-1 v 7.4 h 2.5 v -7.6 c 0.1,0 0.9,0.4 1.1,0.3 0.4,-0.3 2.1,-4.2 2.4,-4.3 0.3,-0.1 1.9,0.3 1.9,0.3 l 0.9,3.5 h 0.7 l 17,-24 1.3,1.1 -7,9.8 c 0.9,1.4 1.8,2.2 2.4,3.4 0.9,2.3 1.5,5.3 1.6,5.5 0.1,0.3 0.1,0.3 -0.2,0.4 -1.9,0.9 -7.7,5.6 -8,5.8 -0.7,0.4 -2.8,2.2 -3.1,2.9 -1.3,3.7 -1.4,13.2 -1.2,14.4 0.2,0.9 1.5,2.2 1.5,2.2 0,0 -0.5,0.2 -1.2,0.5 -0.6,0.3 -2.6,2.5 -2.9,2.9 -1.4,1.9 -6.2,6.5 -6.6,6.5 -1.5,0.1 -2.9,-0.3 -2.9,-0.3 0,-0.2 -0.1,-2.3 -0.1,-2.6 0,-0.3 -0.1,-1.4 -0.4,-1.7 -0.6,-0.8 -1.2,-2.1 -1.3,-2.3 -0.2,-0.2 -2.3,-1.7 -2.3,-1.7 l -1.6,0.2 c 0.1,0.1 1,1 1.5,1.5 0.4,0.6 0.2,1.3 0.2,1.3 -0.6,0.4 -1.1,1.6 -1,1.8 0.1,0.3 2.4,2.7 2.4,2.7 0,0 -0.5,0.5 -0.7,0.6 -0.2,0.1 -1.6,-0.9 -2.5,-1.3 -0.9,-0.4 -0.9,-0.3 -1.1,-0.3 -0.3,0 -2.3,0.5 -2.6,0.6 -0.3,0.1 -2.4,1.8 -2.4,1.8 v 1.2 c 0,0 0.7,-0.4 1,-0.6 0.3,-0.2 1.1,-0.3 1.7,-0.3 0.6,0 0.5,0.3 0.6,0.6 0.3,0.7 1,1.4 1.4,1.6 0.4,0.2 3.6,-0.5 3.6,-0.5 l 0.5,0.7 c -1.5,0.6 -2.3,1.7 -2.6,2.2 -0.3,0.5 0.8,2.1 0.8,2.1 v 0.2 c 0,0.8 -2.1,2 -2.1,2 0.2,0 1.1,0.2 1.1,0.2 0,0 0.3,0.1 0.4,0.1 1,-0.3 1.9,-0.5 2.5,-1.1 0.8,-0.8 2,-2 2,-2 0,0 0.4,-1.7 0.5,-2 0.1,-0.7 0.8,-0.6 2.2,-0.3 0.9,0.2 1,0.2 1.1,0.7 0.1,0.2 0.2,0.5 0.2,0.9 0.1,0.6 0.4,1.9 0.4,1.9 h 0.6 c 0,0 2.6,-3.5 3.1,-3.8 0.6,-0.3 10.8,-7.9 10.8,-7.9 0.8,0.2 1.6,0.1 2.3,-0.3 1.3,-0.8 2.7,-2.5 2.7,-2.5 0,0 -0.1,-1.7 -0.2,-2.5 -0.1,-1.8 0.4,-2.2 0.8,-3.1 0.5,-1 1.8,-2.5 2.4,-3 0.1,-0.1 0.6,-0.4 0.6,-0.4 0,0 -2.6,-3.4 -3.2,-4 -1.2,-1.3 -0.8,-2.9 -0.6,-3.8 2.3,-7.7 3.5,-12.8 3.5,-13.4 0.1,-0.6 0,-3.3 0,-3.3 l 1.7,1.2 v 2.6 c 0,1 -1.5,6.3 -1.8,7.5 -0.9,3.6 -2.1,6.8 -1.6,7.9 1,1.9 5.1,6.2 6.3,6.7 1.7,0.8 10.4,0.4 11.2,0.5 5.9,0.7 6.2,1.1 6.7,1.6 0.5,0.5 4,4.7 5,5.5 1.9,1.6 4.6,6.5 4.6,6.5 l -2.1,0.5 c -1.7,-2 -3.2,-2.7 -3.9,-3.1 -1.9,-1.2 -3.9,-0.2 -4.5,-0.2 -1.3,0 -2,1.3 -2,1.3 1.1,-0.2 2.3,0.1 2.7,0.5 0.4,0.3 0.5,1.6 0.8,1.9 0.3,0.2 2.7,0.2 2.7,0.2 v 0.8 c 0,0 0.2,0.1 -0.1,0.1 -0.3,0.1 -2.9,0.3 -3.6,0.5 -0.7,0.2 -0.9,0.5 -1.5,1.1 -0.6,0.6 -2,3.2 -2,3.2 l 0.4,1.1 c 0.2,-0.6 2.4,-2.1 2.5,-1.9 0.5,0.7 1.5,1 2,1 1.5,-0.2 3.3,-2.8 3.3,-2.8 l 0.9,0.3 c 0,0 -0.8,1.2 -1.1,1.5 -1.4,1.5 -0.3,4.8 -0.3,4.8 0.3,0.1 1,0.4 1,0.4 -0.6,-1.1 1,-2.8 1,-2.8 1,0.3 2.1,0 2.3,-0.2 0.9,-0.7 0.8,-4.1 0.8,-4.1 l 4.1,-1.2 5.1,1.1 0.3,-0.9 -0.7,-0.8 c -1.4,-2.1 -1.8,-2.7 -2.1,-3.5 -1.4,-3.1 -6.5,-12.1 -6.6,-12.3 0,-0.2 0.2,-1.1 0,-1.8 -0.2,-0.7 -1.8,-3 -2.8,-3.8 -1.1,-0.9 -2.6,-0.8 -2.9,-1 -2.8,-1.6 -5.4,-3.6 -5.6,-4.1 -1,-1.5 -5.2,-5.7 -5.8,-6.4 -0.5,-0.6 -4.6,-4 -4.6,-4 l 1.8,-0.6 c 0,0 3.6,3 4.3,3.5 1.6,1.2 4.2,2.8 5.2,3.4 7.6,4.9 11.4,5.1 12,5.1 5.6,0.5 7.9,-2.7 8.2,-3 1.4,-1.6 3.5,-5.7 0.2,-10.6 -0.8,-1.2 -4.4,-6.5 -4.4,-6.5 l 7.5,-4.3 0.1,-1.1 -3.1,0.9 c 0,0 -2.5,-0.3 -3.4,-0.4 -0.8,-0.2 -0.9,-0.1 -0.9,-0.1 l -2.1,0.5 -0.1,-1 9.9,-5.5 0.2,-1.2 c 0,0 -3.1,1 -3.5,1 -0.4,0.1 -2.8,-0.3 -3.9,-0.5 -1.1,-0.2 -1.3,0 -1.3,0 l -2.4,0.6 v -1 l 11.6,-6.2 0.3,-1.1 -3.7,0.9 c 0,0 -3.2,-0.7 -3.4,-0.7 -0.2,0.1 -2.4,0.4 -2.4,0.4 0,0 -0.3,0.1 -0.3,0 0,-0.6 4,-5.7 4.3,-6.1 1.8,-2 3.8,-5.1 4.1,-5.6 4.5,-7.4 1.6,-12.1 1.2,-12.9 -3.6,-6.1 -10.1,-4.8 -11.1,-4.5 -5.9,1.9 -6.1,7.9 -6.1,8.4 0,0.5 -0.2,0.9 -0.7,1.5 -1.4,1.5 -4,6.8 -4,6.8 0.2,0 0.9,0 1.2,-0.2 0.2,-0.2 2.5,-2.4 2.8,-2.7 0.3,-0.3 0.3,0.3 0.3,1 -0.4,2.6 -2.1,4.9 -2.8,5.8 -2,2.8 -4.6,8.9 -4.6,8.9 l 1.2,-0.2 c 2.2,-3.5 9.8,-8.2 10.1,-8.5 1.3,-1.5 0.2,-6.5 0.2,-6.5 l 1.2,0.6 c 0.2,0.4 0.5,1.8 0.7,3 0.2,1.2 -0.1,3.3 -0.1,3.3 l 1,-0.8 c 0.4,-0.6 2.2,-6.4 0.9,-10 -0.5,-1.2 -3.8,-2.7 -3.8,-2.7 -0.4,-1.7 0.9,-3.5 1.5,-4 4.9,-3.5 8.8,0.1 9.9,2.4 2.6,5.5 -2.9,11.9 -4,12.8 -3.4,3.2 -10.9,10.3 -11.7,11.2 -5.7,6.6 -3,10.2 -2.2,11.9 1.2,2.5 8.2,8.7 9.8,10.1 2.3,2 4.2,4.6 4.5,5.7 1.6,6.3 -4.7,7.4 -7.2,6.8 -5.3,-1.2 -13.5,-8.1 -14.9,-9 -5.3,-3.4 -6.4,-2.4 -6.5,-3 -0.6,-3.9 -0.9,-17.3 -0.9,-17.3 -0.1,-0.5 0.5,-0.1 0.9,0 0.6,0.3 0.9,0.5 0.9,0.2 0,-0.3 -0.1,-3.1 0.1,-3.6 0.6,-1.2 1.5,-3.2 1.9,-4.2 2.3,-5 4.1,-8.8 4.4,-11 0.4,-2.8 0,-6.8 0,-6.8 0.6,-0.6 2.1,-2.8 2.1,-3 0.2,-0.4 0.1,-2.8 0,-3 -0.4,-0.4 -1.4,-0.6 -1.5,-0.6 -0.1,0 -0.3,-0.1 -0.3,-0.1 h -0.2 l 3.7,-5.5 c -0.3,-0.1 -0.6,-0.2 -1,-0.2 -0.7,0 -1.7,0.7 -1.7,0.7 -0.6,-1.1 -1.5,-1.1 -1.7,-1 -1.9,0.3 -1.4,1.8 -1.4,1.9 0.6,1.4 2.1,0.7 2.2,0.8 0.1,0 0.1,0.2 0.1,0.2 l -1.2,1.2 -5,-1 c 0,0 -0.2,-1.2 -0.3,-1.4 0,-0.1 0,-0.3 0.1,-0.2 0.1,0.1 0.8,0.4 1.2,0.4 0.8,0.1 1.4,-0.8 1.4,-1.2 0.1,-2 -1.9,-1.6 -1.9,-1.6 -0.1,-1.3 -1,-1.4 -1.3,-1.5 -1.2,-0.2 -1.6,1 -1.6,1 -0.3,-0.1 -0.6,-0.2 -0.6,-0.2 -1.4,-0.4 -1.8,0.9 -1.8,1.3 0.3,2.1 2.2,1.4 2.2,1.4 l 0.1,0.1 -0.9,1.3 -5.1,-1 -0.5,-1.6 0.2,-0.2 c 0.1,0.2 0.3,0.4 0.7,0.5 1.4,0.2 1.6,-0.8 1.7,-1.3 0.1,-2.5 -2.9,-1.4 -2.9,-1.4 -1.2,-1.4 -2,-1 -2,-1 l 1.5,6.6 c 0,0 -3.7,3.9 -3.9,4.2 -0.1,0.3 0.6,2.6 0.6,2.6 l 1.6,2.3 -1.2,1.9 6.8,0.8 -0.9,2.3 c 0,0 -8,1.8 -9.6,2.8 -2.5,1.7 -4.1,3.9 -5.6,5.7 -0.9,1.1 -2.8,9.1 -5.2,13.2 h 4.2 l -7.7,15.5 -1.1,-0.3 c 0,-0.1 0.3,-3.7 0.3,-4 0,-0.5 -0.5,-2.6 -0.6,-2.8 -0.3,-0.8 -2.2,-2.9 -2.2,-2.9 l -1.3,-0.2 c 0.5,0.7 0.9,2 1.1,2.8 0.2,0.8 -0.5,0.9 -0.9,1.5 -0.4,0.6 -0.3,1.1 -0.3,1.1 l 1.2,3.1 -0.8,0.1 c -0.6,-1 -1.3,-1.3 -1.3,-1.3 V 82 l 1.7,1 -0.8,1.5 2.7,0.5 6.1,5.5 2.5,-6.3 -6.3,-3.4 -0.9,-1.7 -2,0.4 c 0,-0.2 -0.7,-0.7 -0.7,-0.7 1,-0.9 2.5,-2.7 2.6,-3.3 0.1,-1.1 0.2,-1.3 0.3,-2.3 0.1,-1.1 -0.4,-2.6 -0.6,-2.8 -0.3,-0.4 -1.2,-1.4 -1.1,-1 0.3,1.3 -0.5,3.4 -0.5,3.4 0,0 -0.5,0.2 -1.1,0.4 -0.6,0.2 -0.7,0.5 -0.7,0.5 l -0.6,3.3 -0.8,-0.8 v -8.3 h 1.5 V 63 h -1.5 v -2.3 h -2.5 V 63 h -3.1 c -4.7,-0.9 -10.9,-6.3 -12.19999997,-7.3 -0.9,12.1 4.39999997,21.2 4.39999997,21.2 m 45.3,-7.5 0.4,1.8 -6.3,-0.7 -0.3,-1.9 z m -6.2,-3.8 -0.3,-1.5 2.4,-2.4 13,2.3 c 0,0 0.5,0.1 0.3,0.2 -0.1,0.1 -2.2,1.4 -2.2,1.4 0,0 -4.3,-2 -8.1,-1.7 0,0 0.9,1.4 -1.3,2.2 -0.4,0.1 -2.4,0.6 -2.4,-1.3 z m 15.2,0.7 c 0.3,0 0.9,-0.7 1.4,-0.7 0.4,0 1,0.4 1,0.4 -0.1,0.4 0.1,1 0,1.1 -0.3,0.7 -1.2,1.6 -1.2,1.6 -0.6,-1.7 -1.3,-2 -1.4,-2.1 0,0 0,-0.3 0.2,-0.3 m -25.6,23.7 c 0,0 2.7,-6.5 4.1,-7 1.4,-0.5 2.2,-0.9 5.4,-1.5 l -0.6,1.7 c 0,0 -3.6,0.8 -4.2,1.3 -0.7,0.6 -2.9,5.3 -3,5.5 z m -15.4,25.4 v -1.5 c 0,0 0.9,-0.2 1.2,-0.1 0.2,0 0.2,0 0.3,0.1 0,0.1 0.2,0.8 0.2,0.8 z"
   id="path2" /><path
   d="m 204.6029,97 h -4.4 l -18.3,-28 h -0.2 c 0.2,3.3 0.4,6.3 0.4,9 v 19 h -3.6 V 63.6 h 4.4 l 18.2,27.9 h 0.2 c 0,-0.4 -0.1,-1.7 -0.2,-4 -0.1,-2.2 -0.1,-3.8 -0.1,-4.8 V 63.5 h 3.6 z"
   id="path4" /><path
   d="m 234.9029,84.4 c 0,4.1 -1,7.3 -3.1,9.6 -2.1,2.3 -4.9,3.4 -8.5,3.4 -2.2,0 -4.2,-0.5 -6,-1.6 -1.7,-1 -3.1,-2.6 -4,-4.5 -0.9,-2 -1.4,-4.3 -1.4,-6.9 0,-4.1 1,-7.3 3.1,-9.5 2,-2.3 4.9,-3.4 8.5,-3.4 3.5,0 6.3,1.2 8.4,3.5 1.9,2.3 3,5.4 3,9.4 m -19.1,0 c 0,3.2 0.6,5.6 1.9,7.3 1.3,1.7 3.2,2.5 5.6,2.5 2.4,0 4.4,-0.8 5.7,-2.5 1.3,-1.7 1.9,-4.1 1.9,-7.3 0,-3.2 -0.6,-5.6 -1.9,-7.3 -1.3,-1.7 -3.2,-2.5 -5.7,-2.5 -2.5,0 -4.4,0.8 -5.6,2.4 -1.3,1.7 -1.9,4.2 -1.9,7.4"
   id="path6" /><path
   d="m 253.0029,71.4 c 1.1,0 2.1,0.1 3,0.3 l -0.5,3.5 c -1,-0.2 -1.9,-0.3 -2.7,-0.3 -2,0 -3.8,0.8 -5.2,2.5 -1.4,1.6 -2.2,3.7 -2.2,6.1 V 97 h -3.8 V 71.9 h 3.1 l 0.4,4.6 h 0.2 c 0.9,-1.6 2,-2.9 3.4,-3.8 1.2,-0.8 2.7,-1.3 4.3,-1.3"
   id="path8" /><path
   d="m 281.1029,97 -4.6,-14.7 c -0.3,-0.9 -0.8,-2.9 -1.6,-6.1 h -0.2 c -0.6,2.7 -1.1,4.7 -1.6,6.2 l -4.7,14.7 h -4.4 l -6.8,-25.1 h 4 c 1.6,6.3 2.8,11.1 3.7,14.4 0.8,3.3 1.3,5.5 1.4,6.6 h 0.2 c 0.2,-0.9 0.4,-2 0.8,-3.4 0.4,-1.4 0.7,-2.5 1,-3.3 l 4.6,-14.4 h 4.1 l 4.5,14.4 c 0.9,2.6 1.4,4.8 1.7,6.6 h 0.2 c 0.1,-0.6 0.2,-1.4 0.5,-2.5 0.3,-1.1 1.9,-7.3 4.8,-18.5 h 3.9 l -6.9,25.1 z"
   id="path10" /><path
   d="m 307.6029,97.4 c -3.7,0 -6.6,-1.1 -8.8,-3.4 -2.1,-2.3 -3.2,-5.4 -3.2,-9.4 0,-4 1,-7.2 3,-9.6 2,-2.4 4.7,-3.6 8,-3.6 3.1,0 5.6,1 7.5,3.1 1.8,2.1 2.7,4.8 2.7,8.2 v 2.4 h -17.3 c 0.1,2.9 0.8,5.2 2.2,6.7 1.4,1.5 3.4,2.3 6,2.3 2.7,0 5.4,-0.6 8,-1.7 v 3.4 c -1.3,0.6 -2.6,1 -3.8,1.2 -1.1,0.3 -2.6,0.4 -4.3,0.4 m -1,-22.8 c -2,0 -3.6,0.7 -4.8,2 -1.2,1.3 -1.9,3.1 -2.1,5.4 h 13.1 c 0,-2.4 -0.5,-4.2 -1.6,-5.5 -1.1,-1.2 -2.6,-1.9 -4.6,-1.9"
   id="path12" /><path
   d="m 343.8029,71.9 v 2.4 l -4.6,0.6 c 0.4,0.5 0.8,1.2 1.1,2.1 0.3,0.9 0.5,1.8 0.5,2.9 0,2.5 -0.8,4.4 -2.5,5.9 -1.7,1.5 -4,2.2 -6.9,2.2 -0.7,0 -1.4,-0.1 -2.1,-0.2 -1.6,0.9 -2.4,1.9 -2.4,3.2 0,0.7 0.3,1.2 0.8,1.5 0.6,0.3 1.5,0.5 2.9,0.5 h 4.4 c 2.7,0 4.8,0.6 6.2,1.7 1.5,1.1 2.2,2.8 2.2,5 0,2.8 -1.1,4.9 -3.3,6.3 -2.2,1.5 -5.5,2.2 -9.7,2.2 -3.3,0 -5.8,-0.6 -7.6,-1.8 -1.8,-1.2 -2.7,-2.9 -2.7,-5.2 0,-1.5 0.5,-2.8 1.5,-4 1,-1.1 2.3,-1.9 4.1,-2.3 -0.6,-0.3 -1.2,-0.7 -1.6,-1.4 -0.4,-0.6 -0.6,-1.3 -0.6,-2.1 0,-0.9 0.2,-1.7 0.7,-2.4 0.5,-0.7 1.2,-1.3 2.3,-2 -1.3,-0.5 -2.3,-1.4 -3.2,-2.7 -0.8,-1.3 -1.2,-2.7 -1.2,-4.4 0,-2.7 0.8,-4.9 2.5,-6.3 1.6,-1.5 4,-2.2 7,-2.2 1.3,0 2.5,0.2 3.5,0.5 z m -20,29.3 c 0,1.4 0.6,2.4 1.7,3.1 1.1,0.7 2.8,1 4.9,1 3.2,0 5.5,-0.5 7.1,-1.4 1.5,-0.9 2.3,-2.2 2.3,-3.9 0,-1.4 -0.4,-2.3 -1.3,-2.8 -0.8,-0.5 -2.4,-0.8 -4.7,-0.8 h -4.5 c -1.7,0 -3.1,0.4 -4,1.2 -1,0.8 -1.5,2 -1.5,3.6 m 2.1,-21.3 c 0,1.7 0.5,3.1 1.5,4 1,0.9 2.4,1.4 4.1,1.4 3.7,0 5.6,-1.8 5.6,-5.4 0,-3.8 -1.9,-5.6 -5.6,-5.6 -1.8,0 -3.2,0.5 -4.1,1.4 -1,0.9 -1.5,2.3 -1.5,4.2"
   id="path14" /><path
   d="m 348.7029,65.1 c 0,-0.9 0.2,-1.5 0.6,-1.9 0.4,-0.4 1,-0.6 1.6,-0.6 0.6,0 1.1,0.2 1.6,0.6 0.4,0.4 0.7,1 0.7,1.9 0,0.9 -0.2,1.5 -0.7,1.9 -0.4,0.4 -1,0.6 -1.6,0.6 -0.6,0 -1.2,-0.2 -1.6,-0.6 -0.4,-0.4 -0.6,-1 -0.6,-1.9 m 4.1,31.9 h -3.8 V 71.9 h 3.8 z"
   id="path16" /><path
   d="m 376.2029,97 -0.8,-3.6 h -0.2 c -1.2,1.6 -2.5,2.6 -3.7,3.2 -1.2,0.6 -2.8,0.8 -4.6,0.8 -2.5,0 -4.4,-0.6 -5.8,-1.9 -1.4,-1.3 -2.1,-3.1 -2.1,-5.5 0,-5.1 4,-7.7 12.1,-8 l 4.3,-0.1 v -1.6 c 0,-2 -0.4,-3.4 -1.3,-4.4 -0.9,-0.9 -2.2,-1.4 -4.1,-1.4 -2.1,0 -4.5,0.6 -7.1,1.9 l -1.2,-2.9 c 1.2,-0.7 2.6,-1.2 4.1,-1.6 1.5,-0.4 2.9,-0.6 4.4,-0.6 3,0 5.2,0.7 6.6,2 1.4,1.3 2.2,3.5 2.2,6.4 V 97 Z m -8.5,-2.7 c 2.4,0 4.2,-0.6 5.6,-1.9 1.3,-1.3 2,-3.1 2,-5.4 v -2.3 l -3.8,0.2 c -3,0.1 -5.2,0.6 -6.5,1.4 -1.3,0.8 -2,2.1 -2,3.9 0,1.4 0.4,2.4 1.2,3.1 0.8,0.6 2,1 3.5,1"
   id="path18" /><path
   d="M 404.0029,97 V 80.8 c 0,-2 -0.5,-3.6 -1.4,-4.6 -0.9,-1 -2.4,-1.5 -4.4,-1.5 -2.6,0 -4.5,0.7 -5.8,2.1 -1.2,1.4 -1.8,3.8 -1.8,7 V 97 h -3.8 V 71.9 h 3.1 l 0.6,3.4 h 0.2 c 0.8,-1.2 1.9,-2.2 3.3,-2.9 1.4,-0.7 3,-1 4.7,-1 3,0 5.3,0.7 6.8,2.2 1.5,1.5 2.3,3.8 2.3,7 V 97 Z"
   id="path20" /><path
   d="m 443.1029,97 -11.3,-29.6 h -0.2 c 0.2,2.3 0.3,5.1 0.3,8.4 V 97 h -3.6 V 63.6 h 5.8 l 10.6,27.6 h 0.2 l 10.7,-27.6 h 5.8 V 97 h -3.9 V 75.5 c 0,-2.5 0.1,-5.2 0.3,-8.1 h -0.2 l -11.4,29.6 z"
   id="path22" /><path
   d="m 469.7029,65.1 c 0,-0.9 0.2,-1.5 0.6,-1.9 0.4,-0.4 1,-0.6 1.6,-0.6 0.6,0 1.1,0.2 1.6,0.6 0.4,0.4 0.7,1 0.7,1.9 0,0.9 -0.2,1.5 -0.7,1.9 -0.4,0.4 -1,0.6 -1.6,0.6 -0.6,0 -1.2,-0.2 -1.6,-0.6 -0.4,-0.4 -0.6,-1 -0.6,-1.9 m 4.1,31.9 h -3.8 V 71.9 h 3.8 z"
   id="path24" /><path
   d="M 499.0029,97 V 80.8 c 0,-2 -0.5,-3.6 -1.4,-4.6 -0.9,-1 -2.4,-1.5 -4.4,-1.5 -2.6,0 -4.5,0.7 -5.8,2.1 -1.2,1.4 -1.8,3.8 -1.8,7 V 97 h -3.8 V 71.9 h 3.1 l 0.6,3.4 h 0.2 c 0.8,-1.2 1.9,-2.2 3.3,-2.9 1.4,-0.7 3,-1 4.7,-1 3,0 5.3,0.7 6.8,2.2 1.5,1.5 2.3,3.8 2.3,7 V 97 Z"
   id="path26" /><path
   d="m 510.3029,65.1 c 0,-0.9 0.2,-1.5 0.6,-1.9 0.4,-0.4 1,-0.6 1.6,-0.6 0.6,0 1.1,0.2 1.6,0.6 0.4,0.4 0.7,1 0.7,1.9 0,0.9 -0.2,1.5 -0.7,1.9 -0.4,0.4 -1,0.6 -1.6,0.6 -0.6,0 -1.2,-0.2 -1.6,-0.6 -0.4,-0.4 -0.6,-1 -0.6,-1.9 m 4.1,31.9 h -3.8 V 71.9 h 3.8 z"
   id="path28" /><path
   d="m 538.6029,90.1 c 0,2.3 -0.9,4.1 -2.6,5.4 -1.7,1.3 -4.2,1.9 -7.3,1.9 -3.3,0 -5.9,-0.5 -7.8,-1.6 v -3.5 c 1.2,0.6 2.5,1.1 3.9,1.4 1.4,0.3 2.7,0.5 4,0.5 2,0 3.5,-0.3 4.6,-1 1.1,-0.6 1.6,-1.6 1.6,-2.9 0,-1 -0.4,-1.8 -1.3,-2.5 -0.9,-0.7 -2.5,-1.5 -5,-2.5 -2.3,-0.9 -4,-1.6 -5,-2.3 -1,-0.6 -1.7,-1.4 -2.2,-2.2 -0.5,-0.8 -0.7,-1.8 -0.7,-2.9 0,-2 0.8,-3.7 2.5,-4.8 1.7,-1.2 3.9,-1.8 6.8,-1.8 2.7,0 5.3,0.5 7.9,1.6 l -1.4,3.1 c -2.5,-1 -4.8,-1.6 -6.8,-1.6 -1.8,0 -3.2,0.3 -4.1,0.9 -0.9,0.6 -1.4,1.3 -1.4,2.3 0,0.7 0.2,1.2 0.5,1.7 0.3,0.5 0.9,0.9 1.7,1.3 0.8,0.4 2.2,1 4.4,1.9 3,1.1 5,2.2 6,3.3 1.2,1.3 1.7,2.7 1.7,4.3"
   id="path30" /><path
   d="m 552.9029,94.3 c 0.7,0 1.3,0 1.9,-0.1 0.6,-0.1 1.1,-0.2 1.5,-0.3 v 2.9 c -0.4,0.2 -1,0.4 -1.8,0.5 -0.8,0.1 -1.5,0.2 -2.2,0.2 -4.8,0 -7.3,-2.6 -7.3,-7.7 V 74.9 h -3.6 V 73 l 3.6,-1.6 1.6,-5.3 h 2.2 v 5.8 h 7.3 v 2.9 h -7.3 v 14.7 c 0,1.5 0.4,2.7 1.1,3.5 0.7,0.9 1.7,1.3 3,1.3"
   id="path32" /><path
   d="m 572.7029,71.4 c 1.1,0 2.1,0.1 3,0.3 l -0.5,3.5 c -1,-0.2 -1.9,-0.3 -2.7,-0.3 -2,0 -3.8,0.8 -5.2,2.5 -1.4,1.6 -2.2,3.7 -2.2,6.1 V 97 h -3.8 V 71.9 h 3.1 l 0.4,4.6 h 0.2 c 0.9,-1.6 2,-2.9 3.4,-3.8 1.3,-0.8 2.8,-1.3 4.3,-1.3"
   id="path34" /><path
   d="m 576.4029,71.9 h 4.1 l 5.5,14.3 c 1.2,3.3 1.9,5.6 2.2,7.1 h 0.2 c 0.2,-0.8 0.6,-2.1 1.2,-4 0.6,-1.9 2.7,-7.7 6.2,-17.4 h 4.1 l -10.8,28.5 c -1.1,2.8 -2.3,4.8 -3.7,6 -1.4,1.2 -3.2,1.8 -5.2,1.8 -1.2,0 -2.3,-0.1 -3.4,-0.4 v -3 c 0.8,0.2 1.8,0.3 2.8,0.3 2.6,0 4.5,-1.5 5.6,-4.4 l 1.4,-3.6 z"
   id="path36" /><path
   d="m 199.6029,139.7 c 0,4.1 -1,7.3 -3.1,9.6 -2.1,2.3 -4.9,3.4 -8.5,3.4 -2.2,0 -4.2,-0.5 -6,-1.6 -1.7,-1.1 -3.1,-2.6 -4,-4.5 -0.9,-2 -1.4,-4.3 -1.4,-6.9 0,-4.1 1,-7.3 3.1,-9.5 2,-2.3 4.9,-3.4 8.5,-3.4 3.5,0 6.3,1.2 8.4,3.5 1.9,2.3 3,5.5 3,9.4 m -19.1,0 c 0,3.2 0.6,5.6 1.9,7.3 1.3,1.7 3.2,2.5 5.6,2.5 2.5,0 4.4,-0.8 5.7,-2.5 1.3,-1.7 1.9,-4.1 1.9,-7.3 0,-3.2 -0.6,-5.6 -1.9,-7.3 -1.3,-1.7 -3.2,-2.5 -5.7,-2.5 -2.5,0 -4.4,0.8 -5.6,2.4 -1.3,1.8 -1.9,4.2 -1.9,7.4"
   id="path38" /><path
   d="m 217.5029,130.2 h -6.4 v 22.1 h -3.8 v -22.1 h -4.5 v -1.7 l 4.5,-1.4 v -1.4 c 0,-6.2 2.7,-9.2 8.1,-9.2 1.3,0 2.9,0.3 4.7,0.8 l -1,3 c -1.5,-0.5 -2.7,-0.7 -3.8,-0.7 -1.4,0 -2.5,0.5 -3.2,1.4 -0.7,0.9 -1,2.5 -1,4.6 v 1.6 h 6.4 z"
   id="path40" /><polygon
   points="274.4,282.3 259.6,282.3 259.6,294.5 273.5,294.5 273.5,298 259.6,298 259.6,312.3 255.7,312.3 255.7,278.9 274.4,278.9 "
   id="polygon42"
   transform="translate(-20.897104,-160)" /><path
   d="m 280.1029,139.7 c 0,4.1 -1,7.3 -3.1,9.6 -2.1,2.3 -4.9,3.4 -8.5,3.4 -2.2,0 -4.2,-0.5 -6,-1.6 -1.7,-1.1 -3.1,-2.6 -4,-4.5 -0.9,-2 -1.4,-4.3 -1.4,-6.9 0,-4.1 1,-7.3 3.1,-9.5 2,-2.3 4.9,-3.4 8.5,-3.4 3.5,0 6.3,1.2 8.4,3.5 1.9,2.3 3,5.5 3,9.4 m -19.1,0 c 0,3.2 0.6,5.6 1.9,7.3 1.3,1.7 3.2,2.5 5.6,2.5 2.4,0 4.4,-0.8 5.7,-2.5 1.3,-1.7 1.9,-4.1 1.9,-7.3 0,-3.2 -0.6,-5.6 -1.9,-7.3 -1.3,-1.7 -3.2,-2.5 -5.7,-2.5 -2.5,0 -4.4,0.8 -5.6,2.4 -1.3,1.8 -1.9,4.2 -1.9,7.4"
   id="path44" /><path
   d="m 298.1029,126.8 c 1.1,0 2.1,0.1 3,0.3 l -0.5,3.5 c -1,-0.2 -1.9,-0.3 -2.7,-0.3 -2,0 -3.8,0.8 -5.2,2.5 -1.4,1.6 -2.2,3.7 -2.2,6.1 v 13.4 h -3.8 v -25.1 h 3.1 l 0.4,4.6 h 0.2 c 0.9,-1.6 2,-2.9 3.4,-3.8 1.3,-0.8 2.8,-1.2 4.3,-1.2"
   id="path46" /><path
   d="m 316.4029,152.7 c -3.7,0 -6.6,-1.1 -8.8,-3.4 -2.1,-2.3 -3.2,-5.4 -3.2,-9.4 0,-4 1,-7.2 3,-9.6 2,-2.4 4.7,-3.6 8,-3.6 3.1,0 5.6,1 7.5,3.1 1.8,2.1 2.7,4.8 2.7,8.2 v 2.4 h -17.3 c 0.1,2.9 0.8,5.2 2.2,6.7 1.4,1.5 3.4,2.3 6,2.3 2.7,0 5.4,-0.6 8,-1.7 v 3.4 c -1.3,0.6 -2.6,1 -3.8,1.2 -1.2,0.3 -2.6,0.4 -4.3,0.4 m -1,-22.7 c -2,0 -3.6,0.7 -4.8,2 -1.2,1.3 -1.9,3.1 -2.1,5.4 h 13.1 c 0,-2.4 -0.5,-4.2 -1.6,-5.5 -1.1,-1.3 -2.6,-1.9 -4.6,-1.9"
   id="path48" /><path
   d="m 331.8029,120.4 c 0,-0.9 0.2,-1.5 0.6,-1.9 0.4,-0.4 1,-0.6 1.6,-0.6 0.6,0 1.1,0.2 1.6,0.6 0.4,0.4 0.7,1 0.7,1.9 0,0.9 -0.2,1.5 -0.7,1.9 -0.4,0.4 -1,0.6 -1.6,0.6 -0.6,0 -1.2,-0.2 -1.6,-0.6 -0.4,-0.4 -0.6,-1 -0.6,-1.9 m 4.1,31.9 h -3.8 v -25.1 h 3.8 z"
   id="path50" /><path
   d="m 364.4029,127.2 v 2.4 l -4.6,0.6 c 0.4,0.5 0.8,1.2 1.1,2.1 0.3,0.9 0.5,1.8 0.5,2.9 0,2.5 -0.8,4.4 -2.5,5.9 -1.7,1.5 -4,2.2 -6.9,2.2 -0.7,0 -1.4,-0.1 -2.1,-0.2 -1.6,0.9 -2.4,1.9 -2.4,3.2 0,0.7 0.3,1.2 0.8,1.5 0.6,0.3 1.5,0.5 2.9,0.5 h 4.4 c 2.7,0 4.8,0.6 6.2,1.7 1.5,1.1 2.2,2.8 2.2,5 0,2.8 -1.1,4.9 -3.3,6.3 -2.2,1.5 -5.5,2.2 -9.7,2.2 -3.3,0 -5.8,-0.6 -7.6,-1.8 -1.8,-1.2 -2.7,-2.9 -2.7,-5.2 0,-1.5 0.5,-2.8 1.5,-4 1,-1.1 2.3,-1.9 4.1,-2.3 -0.6,-0.3 -1.2,-0.7 -1.6,-1.4 -0.4,-0.6 -0.6,-1.3 -0.6,-2.1 0,-0.9 0.2,-1.7 0.7,-2.4 0.5,-0.7 1.2,-1.3 2.3,-2 -1.3,-0.5 -2.3,-1.4 -3.2,-2.7 -0.8,-1.3 -1.2,-2.7 -1.2,-4.4 0,-2.7 0.8,-4.9 2.5,-6.3 1.6,-1.5 4,-2.2 7,-2.2 1.3,0 2.5,0.2 3.5,0.5 z m -20,29.3 c 0,1.4 0.6,2.4 1.7,3.1 1.1,0.7 2.8,1 4.9,1 3.2,0 5.5,-0.5 7.1,-1.4 1.5,-0.9 2.3,-2.2 2.3,-3.9 0,-1.4 -0.4,-2.3 -1.3,-2.8 -0.8,-0.5 -2.4,-0.8 -4.7,-0.8 h -4.5 c -1.7,0 -3.1,0.4 -4,1.2 -1,0.9 -1.5,2.1 -1.5,3.6 m 2.1,-21.2 c 0,1.7 0.5,3.1 1.5,4 1,0.9 2.4,1.4 4.1,1.4 3.7,0 5.6,-1.8 5.6,-5.4 0,-3.8 -1.9,-5.6 -5.6,-5.6 -1.8,0 -3.2,0.5 -4.1,1.4 -1,0.8 -1.5,2.3 -1.5,4.2"
   id="path52" /><path
   d="m 386.7029,152.3 v -16.2 c 0,-2 -0.5,-3.6 -1.4,-4.6 -0.9,-1 -2.4,-1.5 -4.4,-1.5 -2.6,0 -4.5,0.7 -5.8,2.1 -1.2,1.4 -1.8,3.8 -1.8,7 v 13.1 h -3.8 v -25.1 h 3.1 l 0.6,3.4 h 0.2 c 0.8,-1.2 1.9,-2.2 3.3,-2.9 1.4,-0.7 3,-1 4.7,-1 3,0 5.3,0.7 6.8,2.2 1.5,1.5 2.3,3.8 2.3,7 v 16.3 h -3.8 z"
   id="path54" /><path
   d="m 432.1029,152.3 -4.2,-10.6 h -13.4 l -4.1,10.6 h -3.9 l 13.2,-33.6 h 3.3 l 13.1,33.6 z m -5.4,-14.1 -3.9,-10.4 c -0.5,-1.3 -1,-2.9 -1.6,-4.8 -0.3,1.5 -0.8,3.1 -1.4,4.8 l -3.9,10.4 z"
   id="path56" /><path
   d="m 451.4029,130.2 h -6.4 v 22.1 h -3.8 v -22.1 h -4.5 v -1.7 l 4.5,-1.4 v -1.4 c 0,-6.2 2.7,-9.2 8.1,-9.2 1.3,0 2.9,0.3 4.7,0.8 l -1,3 c -1.5,-0.5 -2.7,-0.7 -3.8,-0.7 -1.4,0 -2.5,0.5 -3.2,1.4 -0.7,0.9 -1,2.5 -1,4.6 v 1.6 h 6.4 z m 15.9,0 h -6.4 v 22.1 h -3.8 v -22.1 h -4.5 v -1.7 l 4.5,-1.4 v -1.4 c 0,-6.2 2.7,-9.2 8.1,-9.2 1.3,0 2.9,0.3 4.7,0.8 l -1,3 c -1.5,-0.5 -2.7,-0.7 -3.8,-0.7 -1.4,0 -2.5,0.5 -3.2,1.4 -0.7,0.9 -1,2.5 -1,4.6 v 1.6 h 6.4 z"
   id="path58" /><path
   d="m 487.3029,152.3 -0.8,-3.6 h -0.2 c -1.2,1.6 -2.5,2.6 -3.7,3.2 -1.2,0.6 -2.8,0.8 -4.6,0.8 -2.5,0 -4.4,-0.6 -5.8,-1.9 -1.4,-1.3 -2.1,-3.1 -2.1,-5.5 0,-5.1 4,-7.7 12.1,-8 l 4.3,-0.1 v -1.6 c 0,-2 -0.4,-3.4 -1.3,-4.4 -0.9,-0.9 -2.2,-1.4 -4.1,-1.4 -2.1,0 -4.5,0.6 -7.1,1.9 l -1.2,-2.9 c 1.2,-0.7 2.6,-1.2 4.1,-1.6 1.5,-0.4 2.9,-0.6 4.4,-0.6 3,0 5.2,0.7 6.6,2 1.4,1.3 2.2,3.5 2.2,6.4 v 17.1 h -2.8 z m -8.6,-2.7 c 2.4,0 4.2,-0.6 5.6,-1.9 1.3,-1.3 2,-3.1 2,-5.4 V 140 l -3.8,0.2 c -3,0.1 -5.2,0.6 -6.5,1.4 -1.3,0.8 -2,2.1 -2,3.9 0,1.4 0.4,2.4 1.2,3.1 0.8,0.7 2,1 3.5,1"
   id="path60" /><path
   d="m 497.6029,120.4 c 0,-0.9 0.2,-1.5 0.6,-1.9 0.4,-0.4 1,-0.6 1.6,-0.6 0.6,0 1.1,0.2 1.6,0.6 0.4,0.4 0.7,1 0.7,1.9 0,0.9 -0.2,1.5 -0.7,1.9 -0.4,0.4 -1,0.6 -1.6,0.6 -0.6,0 -1.2,-0.2 -1.6,-0.6 -0.4,-0.4 -0.6,-1 -0.6,-1.9 m 4.1,31.9 h -3.8 v -25.1 h 3.8 z"
   id="path62" /><path
   d="m 521.2029,126.8 c 1.1,0 2.1,0.1 3,0.3 l -0.5,3.5 c -1,-0.2 -1.9,-0.3 -2.7,-0.3 -2,0 -3.8,0.8 -5.2,2.5 -1.4,1.6 -2.2,3.7 -2.2,6.1 v 13.4 h -3.8 v -25.1 h 3.1 l 0.4,4.6 h 0.2 c 0.9,-1.6 2,-2.9 3.4,-3.8 1.2,-0.8 2.7,-1.2 4.3,-1.2"
   id="path64" /><path
   d="m 545.0029,145.5 c 0,2.3 -0.9,4.1 -2.6,5.4 -1.7,1.3 -4.2,1.9 -7.3,1.9 -3.3,0 -5.9,-0.5 -7.8,-1.6 v -3.5 c 1.2,0.6 2.5,1.1 3.9,1.4 1.4,0.3 2.7,0.5 4,0.5 2,0 3.5,-0.3 4.6,-1 1.1,-0.6 1.6,-1.6 1.6,-2.9 0,-1 -0.4,-1.8 -1.3,-2.5 -0.9,-0.7 -2.5,-1.5 -5,-2.5 -2.3,-0.9 -4,-1.6 -5,-2.3 -1,-0.6 -1.7,-1.4 -2.2,-2.2 -0.5,-0.8 -0.7,-1.8 -0.7,-2.9 0,-2 0.8,-3.7 2.5,-4.8 1.7,-1.2 3.9,-1.8 6.8,-1.8 2.7,0 5.3,0.6 7.9,1.7 l -1.4,3.1 c -2.5,-1 -4.8,-1.6 -6.8,-1.6 -1.8,0 -3.2,0.3 -4.1,0.9 -0.9,0.6 -1.4,1.3 -1.4,2.3 0,0.7 0.2,1.2 0.5,1.7 0.3,0.5 0.9,0.9 1.7,1.3 0.8,0.4 2.2,1 4.4,1.9 3,1.1 5,2.2 6,3.3 1.2,1.1 1.7,2.5 1.7,4.2"
   id="path66" /><rect
   x="131.40289"
   y="0"
   width="3.7"
   height="216.59938"
   id="rect68"
   style="stroke-width:0.815367" />
</svg>
