<?xml version="1.0" encoding="utf-8"?>
<!-- Generator: Adobe Illustrator 23.0.4, SVG Export Plug-In . SVG Version: 6.00 Build 0)  -->
<svg version="1.1" xmlns="http://www.w3.org/2000/svg" xmlns:xlink="http://www.w3.org/1999/xlink" x="0px" y="0px"
	 viewBox="0 0 205.6 39.6" style="enable-background:new 0 0 205.6 39.6;" xml:space="preserve">
<style type="text/css">
	.st0{display:none;}
	.st1{display:inline;fill:#00FFFF;}
	.st2{fill:#FFFFFF;}
	.st3{fill:#C8102E;}
	.st4{fill:#00205B;}
</style>
<g id="BG" class="st0">
	<rect class="st1" width="205.6" height="39.6"/>
</g>
<g id="Wordmark">
	<g>
		<path d="M51.5,30.8v-30h9.3l12.1,23.1V0.8h6.4v30H70L57.9,7.7v23.1H51.5z"/>
		<path d="M94.3,31.4c-1.5,0-2.9-0.3-4.3-0.8c-1.4-0.5-2.6-1.3-3.6-2.3c-1-1-1.9-2.2-2.5-3.6c-0.6-1.4-0.9-3-0.9-4.6
			c0-1.7,0.3-3.2,0.9-4.6c0.6-1.4,1.5-2.6,2.5-3.6c1-1,2.3-1.8,3.6-2.3c1.4-0.5,2.8-0.8,4.3-0.8c1.5,0,2.9,0.3,4.3,0.8
			c1.4,0.5,2.6,1.3,3.6,2.3c1,1,1.9,2.2,2.5,3.6c0.6,1.4,0.9,3,0.9,4.6c0,1.7-0.3,3.2-0.9,4.6c-0.6,1.4-1.5,2.6-2.5,3.6
			c-1,1-2.3,1.8-3.6,2.3C97.2,31.1,95.8,31.4,94.3,31.4z M94.3,25.8c1.5,0,2.7-0.5,3.8-1.5c1.1-1,1.6-2.4,1.6-4.3
			c0-1.9-0.5-3.3-1.6-4.3c-1.1-1-2.3-1.5-3.8-1.5c-1.5,0-2.7,0.5-3.8,1.5c-1.1,1-1.6,2.4-1.6,4.3c0,1.9,0.5,3.3,1.6,4.3
			C91.6,25.3,92.8,25.8,94.3,25.8z"/>
		<path d="M108.5,30.8V9.2h6v5.7c0.4-1.8,1.1-3.3,2.2-4.3c1-1,2.3-1.6,3.8-1.6h2.1v7.2h-8.1v14.6H108.5z"/>
		<path d="M130.1,30.8L125,9.2h6.4l3.6,16.5l3.9-16.5h7.9l4.4,16.4l3.3-16.4h6.2l-5.1,21.6h-8.6l-4.2-16l-3.8,16H130.1z"/>
		<path d="M167.7,31.2c-1,0-2-0.2-2.8-0.5c-0.8-0.3-1.5-0.8-2.1-1.4c-0.6-0.6-1-1.3-1.3-2.1c-0.3-0.8-0.5-1.6-0.5-2.5
			c0-2,0.8-3.6,2.3-4.9c1.5-1.3,3.6-1.9,6.4-1.9h5v-1.4c0-1-0.3-1.7-0.9-2.2c-0.6-0.5-1.5-0.7-2.6-0.7c-1.1,0-1.9,0.2-2.4,0.7
			c-0.5,0.5-0.8,1-0.8,1.8h-6c0.2-1,0.5-2,1-2.9c0.5-0.9,1.1-1.7,1.9-2.4c0.8-0.7,1.8-1.2,2.9-1.6c1.1-0.4,2.4-0.6,3.8-0.6
			c1.3,0,2.4,0.2,3.6,0.5c1.1,0.3,2.1,0.8,2.9,1.4c0.8,0.6,1.5,1.3,1.9,2.2c0.5,0.9,0.7,1.9,0.7,3v15.2h-6v-3.6
			c-0.8,1.1-1.8,2-3,2.8C170.5,30.8,169.2,31.2,167.7,31.2z M170.4,25.9c0.8,0,1.6-0.1,2.3-0.2c0.7-0.1,1.4-0.3,1.9-0.5v-3h-5.4
			c-0.7,0-1.3,0.1-1.7,0.4c-0.4,0.3-0.6,0.7-0.6,1.3c0,0.6,0.3,1.1,0.8,1.4C168.4,25.8,169.2,25.9,170.4,25.9z"/>
		<path d="M189.2,30.8l-6.7-21.6h6.5l4.7,17.1l5.1-17.1h6.1l-9.4,29.6h-6.1l2.6-8H189.2z"/>
	</g>
</g>
<g id="Symbol">
	<g>
		<rect x="0" y="0" class="st2" width="42.8" height="31.6"/>
		<rect x="19.6" y="19.5" class="st3" width="22.5" height="11.2"/>
		<rect x="19.6" y="0.8" class="st3" width="22.5" height="11.3"/>
		<rect x="0.8" y="0.8" class="st3" width="11.2" height="11.3"/>
		<polygon class="st4" points="42.1,13.9 42.1,17.7 17.7,17.7 17.7,30.8 13.9,30.8 13.9,17.7 0.8,17.7 0.8,13.9 13.9,13.9 13.9,0.8 
			17.7,0.8 17.7,13.9 		"/>
		<rect x="0.8" y="19.5" class="st3" width="11.2" height="11.2"/>
	</g>
</g>
<g id="Guides">
</g>
</svg>
