<?xml version="1.0" encoding="UTF-8" standalone="no"?>
<!-- Created with Inkscape (http://www.inkscape.org/) -->

<svg
   xmlns:dc="http://purl.org/dc/elements/1.1/"
   xmlns:cc="http://creativecommons.org/ns#"
   xmlns:rdf="http://www.w3.org/1999/02/22-rdf-syntax-ns#"
   xmlns:svg="http://www.w3.org/2000/svg"
   xmlns="http://www.w3.org/2000/svg"
   xmlns:sodipodi="http://sodipodi.sourceforge.net/DTD/sodipodi-0.dtd"
   xmlns:inkscape="http://www.inkscape.org/namespaces/inkscape"
   width="285.25198"
   height="303.07416"
   id="svg3176"
   version="1.1"
   inkscape:version="0.92.1 r15371"
   sodipodi:docname="scottish-government.svg"
   viewBox="0 0 267.42373 284.13203">
  <defs
     id="defs3178" />
  <sodipodi:namedview
     id="base"
     pagecolor="#ffffff"
     bordercolor="#666666"
     borderopacity="1.0"
     inkscape:pageopacity="0.0"
     inkscape:pageshadow="2"
     inkscape:zoom="2.4988482"
     inkscape:cx="-3.5324525"
     inkscape:cy="158.58557"
     inkscape:document-units="px"
     inkscape:current-layer="layer1"
     showgrid="false"
     fit-margin-top="0"
     fit-margin-left="0"
     fit-margin-right="0"
     fit-margin-bottom="0"
     inkscape:window-width="3440"
     inkscape:window-height="1377"
     inkscape:window-x="-8"
     inkscape:window-y="-8"
     inkscape:window-maximized="1" />
  <metadata
     id="metadata3181">
    <rdf:RDF>
      <cc:Work
         rdf:about="">
        <dc:format>image/svg+xml</dc:format>
        <dc:type
           rdf:resource="http://purl.org/dc/dcmitype/StillImage" />
        <dc:title></dc:title>
      </cc:Work>
    </rdf:RDF>
  </metadata>
  <g
     inkscape:label="Capa 1"
     inkscape:groupmode="layer"
     id="layer1"
     transform="translate(-49.611244,-52.588932)">
    <rect
       width="261.94626"
       height="157.16776"
       id="rect3084"
       x="52.109409"
       y="52.880356"
       style="fill:#0065bd" />
    <path
       inkscape:connector-curvature="0"
       id="path4548"
       style="font-style:normal;font-weight:bold;font-size:40.68688965px;line-height:1.25;font-family:'Bitstream Vera Sans';-inkscape-font-specification:'Bitstream Vera Sans Bold';letter-spacing:0px;word-spacing:0px;fill:#203668;fill-opacity:1;stroke:none;stroke-width:0.99999803"
       d="m 49.611244,224.94548 h 25.862739 v 6.1106 h -9.303819 v 25.24038 h -7.236305 v -25.24038 h -9.322615 z" />
    <path
       inkscape:connector-curvature="0"
       id="path4550"
       style="font-style:normal;font-weight:bold;font-size:40.68688965px;line-height:1.25;font-family:'Bitstream Vera Sans';-inkscape-font-specification:'Bitstream Vera Sans Bold';letter-spacing:0px;word-spacing:0px;fill:#203668;fill-opacity:1;stroke:none;stroke-width:0.99999803"
       d="m 100.05862,241.97538 v 14.32108 h -6.766413 v -2.33085 -8.58845 q 0,-3.0868 -0.131569,-4.24173 -0.112773,-1.15492 -0.413504,-1.70089 -0.394707,-0.73495 -1.071348,-1.13393 -0.676642,-0.41997 -1.541239,-0.41997 -2.105107,0 -3.308025,1.82689 -1.202917,1.80588 -1.202917,5.01867 v 11.57026 h -6.728823 v -32.6739 h 6.728823 v 12.59919 q 1.522442,-2.05786 3.232842,-3.0238 1.710399,-0.98694 3.777915,-0.98694 3.646346,0 5.525901,2.49884 1.898357,2.49884 1.898357,7.26553 z" />
    <path
       inkscape:connector-curvature="0"
       id="path4552"
       style="font-style:normal;font-weight:bold;font-size:40.68688965px;line-height:1.25;font-family:'Bitstream Vera Sans';-inkscape-font-specification:'Bitstream Vera Sans Bold';letter-spacing:0px;word-spacing:0px;fill:#203668;fill-opacity:1;stroke:none;stroke-width:0.99999803"
       d="m 127.34982,244.47422 v 2.14187 h -15.73191 q 0.24435,2.64582 1.7104,3.96873 1.46605,1.32292 4.09744,1.32292 2.12391,0 4.34178,-0.69296 2.23668,-0.71394 4.58613,-2.14186 v 5.79563 q -2.38704,1.00794 -4.77409,1.51191 -2.38703,0.52496 -4.77407,0.52496 -5.71386,0 -8.89032,-3.23379 -3.15766,-3.25479 -3.15766,-9.11341 0,-5.75364 3.10127,-9.05042 3.12008,-3.29679 8.57079,-3.29679 4.96204,0 7.93175,3.33878 2.98849,3.33879 2.98849,8.92443 z m -6.91677,-2.49884 q 0,-2.14186 -1.12774,-3.44378 -1.10894,-1.32291 -2.91332,-1.32291 -1.95474,0 -3.17645,1.23892 -1.22172,1.21792 -1.52244,3.52777 z" />
    <path
       inkscape:connector-curvature="0"
       id="path4554"
       style="font-style:normal;font-weight:bold;font-size:40.68688965px;line-height:1.25;font-family:'Bitstream Vera Sans';-inkscape-font-specification:'Bitstream Vera Sans Bold';letter-spacing:0px;word-spacing:0px;fill:#203668;fill-opacity:1;stroke:none;stroke-width:0.99999803"
       d="m 165.63645,225.93241 v 6.63558 q -2.31186,-1.15492 -4.51095,-1.74289 -2.19908,-0.58797 -4.15382,-0.58797 -2.59379,0 -3.8343,0.79796 -1.24051,0.79795 -1.24051,2.47784 0,1.25992 0.827,1.97386 0.84581,0.69296 3.04489,1.19693 l 3.08248,0.69295 q 4.6801,1.04993 6.65364,3.1918 1.97354,2.14186 1.97354,6.08961 0,5.18666 -2.76296,7.72751 -2.74415,2.51983 -8.40163,2.51983 -2.66897,0 -5.35674,-0.56697 -2.68777,-0.56696 -5.37554,-1.67989 V 247.834 q 2.68777,1.5959 5.18758,2.41485 2.51861,0.79795 4.84926,0.79795 2.36825,0 3.62756,-0.88195 1.2593,-0.88194 1.2593,-2.51984 0,-1.4699 -0.86459,-2.26785 -0.84581,-0.79795 -3.40201,-1.42791 l -2.80055,-0.69296 q -4.2102,-1.00793 -6.16495,-3.21278 -1.93594,-2.20486 -1.93594,-5.94262 0,-4.6827 2.70656,-7.20253 2.70656,-2.51984 7.78138,-2.51984 2.31186,0 4.75528,0.39897 2.44343,0.37797 5.05602,1.15492 z" />
    <path
       inkscape:connector-curvature="0"
       id="path4556"
       style="font-style:normal;font-weight:bold;font-size:40.68688965px;line-height:1.25;font-family:'Bitstream Vera Sans';-inkscape-font-specification:'Bitstream Vera Sans Bold';letter-spacing:0px;word-spacing:0px;fill:#203668;fill-opacity:1;stroke:none;stroke-width:0.99999803"
       d="m 190.55941,233.51293 v 6.1316 q -1.37208,-1.04993 -2.76295,-1.5539 -1.37208,-0.50397 -2.85693,-0.50397 -2.81934,0 -4.39817,1.84788 -1.56003,1.82688 -1.56003,5.12368 0,3.29678 1.56003,5.14466 1.57883,1.82688 4.39817,1.82688 1.57882,0 2.9885,-0.52496 1.42847,-0.52497 2.63138,-1.55391 v 6.15261 q -1.57882,0.65096 -3.21404,0.96594 -1.61642,0.33598 -3.25164,0.33598 -5.69507,0 -8.90911,-3.25479 -3.21405,-3.27579 -3.21405,-9.09241 0,-5.81664 3.21405,-9.07143 3.21404,-3.27578 8.90911,-3.27578 1.65401,0 3.25164,0.33597 1.61642,0.31498 3.21404,0.96595 z" />
    <path
       inkscape:connector-curvature="0"
       id="path4558"
       style="font-style:normal;font-weight:bold;font-size:40.68688965px;line-height:1.25;font-family:'Bitstream Vera Sans';-inkscape-font-specification:'Bitstream Vera Sans Bold';letter-spacing:0px;word-spacing:0px;fill:#203668;fill-opacity:1;stroke:none;stroke-width:0.99999803"
       d="m 206.4229,237.58666 q -2.23667,0 -3.4208,1.80589 -1.16533,1.78489 -1.16533,5.16567 0,3.38078 1.16533,5.18666 1.18413,1.78488 3.4208,1.78488 2.19908,0 3.36441,-1.78488 1.16533,-1.80588 1.16533,-5.18666 0,-3.38078 -1.16533,-5.16567 -1.16533,-1.80589 -3.36441,-1.80589 z m 0,-5.37565 q 5.43193,0 8.47681,3.27578 3.06369,3.2758 3.06369,9.07143 0,5.79562 -3.06369,9.07141 -3.04488,3.27579 -8.47681,3.27579 -5.45072,0 -8.5332,-3.27579 -3.06368,-3.27579 -3.06368,-9.07141 0,-5.79563 3.06368,-9.07143 3.08248,-3.27578 8.5332,-3.27578 z" />
    <path
       inkscape:connector-curvature="0"
       id="path4560"
       style="font-style:normal;font-weight:bold;font-size:40.68688965px;line-height:1.25;font-family:'Bitstream Vera Sans';-inkscape-font-specification:'Bitstream Vera Sans Bold';letter-spacing:0px;word-spacing:0px;fill:#203668;fill-opacity:1;stroke:none;stroke-width:0.99999803"
       d="m 230.21811,226.1004 v 6.67758 h 6.93557 v 5.37565 h -6.93557 v 9.97435 q 0,1.63789 0.58267,2.22586 0.58266,0.56697 2.31185,0.56697 h 3.4584 v 5.37565 h -5.77025 q -3.98467,0 -5.65747,-1.84788 -1.65402,-1.86889 -1.65402,-6.3206 v -9.97435 h -3.34562 v -5.37565 h 3.34562 v -6.67758 z" />
    <path
       inkscape:connector-curvature="0"
       id="path4562"
       style="font-style:normal;font-weight:bold;font-size:40.68688965px;line-height:1.25;font-family:'Bitstream Vera Sans';-inkscape-font-specification:'Bitstream Vera Sans Bold';letter-spacing:0px;word-spacing:0px;fill:#203668;fill-opacity:1;stroke:none;stroke-width:0.99999803"
       d="m 248.6378,226.1004 v 6.67758 h 6.93557 v 5.37565 h -6.93557 v 9.97435 q 0,1.63789 0.58266,2.22586 0.58267,0.56697 2.31186,0.56697 h 3.45839 v 5.37565 h -5.77025 q -3.98467,0 -5.65747,-1.84788 -1.65401,-1.86889 -1.65401,-6.3206 v -9.97435 h -3.34562 v -5.37565 h 3.34562 v -6.67758 z" />
    <path
       inkscape:connector-curvature="0"
       id="path4564"
       style="font-style:normal;font-weight:bold;font-size:40.68688965px;line-height:1.25;font-family:'Bitstream Vera Sans';-inkscape-font-specification:'Bitstream Vera Sans Bold';letter-spacing:0px;word-spacing:0px;fill:#203668;fill-opacity:1;stroke:none;stroke-width:0.99999803"
       d="m 259.7084,232.77798 h 6.72883 v 23.51848 h -6.72883 z m 0,-9.15542 h 6.72883 v 6.13161 h -6.72883 z" />
    <path
       inkscape:connector-curvature="0"
       id="path4566"
       style="font-style:normal;font-weight:bold;font-size:40.68688965px;line-height:1.25;font-family:'Bitstream Vera Sans';-inkscape-font-specification:'Bitstream Vera Sans Bold';letter-spacing:0px;word-spacing:0px;fill:#203668;fill-opacity:1;stroke:none;stroke-width:0.99999803"
       d="m 289.38664,233.51293 v 5.71163 q -2.16149,-1.00794 -4.17261,-1.5119 -2.01114,-0.50397 -3.79672,-0.50397 -1.91714,0 -2.85693,0.54596 -0.92098,0.52497 -0.92098,1.6379 0,0.90294 0.69543,1.38591 0.71424,0.48296 2.53741,0.71395 l 1.18412,0.18898 q 5.16879,0.73496 6.95438,2.41485 1.78558,1.67989 1.78558,5.27067 0,3.75876 -2.48103,5.64863 -2.48101,1.88988 -7.40546,1.88988 -2.08631,0 -4.32298,-0.37798 -2.21789,-0.35697 -4.56733,-1.09192 v -5.71164 q 2.01112,1.09194 4.11623,1.6379 2.12391,0.54596 4.30419,0.54596 1.97354,0 2.96971,-0.60896 0.99616,-0.60896 0.99616,-1.80588 0,-1.00794 -0.69544,-1.4909 -0.67663,-0.50397 -2.72536,-0.77696 l -1.18412,-0.16798 q -4.49215,-0.62996 -6.29652,-2.33086 -1.80438,-1.70089 -1.80438,-5.16567 0,-3.73775 2.29306,-5.54364 2.29307,-1.80588 7.02955,-1.80588 1.86077,0 3.90949,0.31498 2.04872,0.31498 4.45455,0.98694 z" />
    <path
       inkscape:connector-curvature="0"
       id="path4568"
       style="font-style:normal;font-weight:bold;font-size:40.68688965px;line-height:1.25;font-family:'Bitstream Vera Sans';-inkscape-font-specification:'Bitstream Vera Sans Bold';letter-spacing:0px;word-spacing:0px;fill:#203668;fill-opacity:1;stroke:none;stroke-width:0.99999803"
       d="m 317.03498,241.97538 v 14.32108 h -6.76641 v -2.33085 -8.58845 q 0,-3.0868 -0.13158,-4.24173 -0.11277,-1.15492 -0.4135,-1.70089 -0.39471,-0.73495 -1.07134,-1.13393 -0.67665,-0.41997 -1.54125,-0.41997 -2.1051,0 -3.30802,1.82689 -1.20292,1.80588 -1.20292,5.01867 v 11.57026 h -6.72882 v -32.6739 h 6.72882 v 12.59919 q 1.52244,-2.05786 3.23284,-3.0238 1.7104,-0.98694 3.77791,-0.98694 3.64635,0 5.52591,2.49884 1.89836,2.49884 1.89836,7.26553 z" />
    <path
       inkscape:connector-curvature="0"
       id="path4527"
       style="font-style:normal;font-weight:bold;font-size:40.74817276px;line-height:1.25;font-family:'Bitstream Vera Sans';-inkscape-font-specification:'Bitstream Vera Sans Bold';letter-spacing:0px;word-spacing:0px;fill:#203668;fill-opacity:1;stroke:none;stroke-width:0.99999821"
       d="m 78.46403,295.48841 q -2.690332,1.48324 -5.586175,2.22485 -2.895843,0.74162 -5.978514,0.74162 -6.968706,0 -11.041569,-4.40732 -4.072864,-4.42851 -4.072864,-11.993 0,-7.64925 4.147595,-12.03538 4.147595,-4.38613 11.359178,-4.38613 2.783746,0 5.324614,0.59329 2.559552,0.59329 4.820178,1.75869 v 6.54742 q -2.335357,-1.50443 -4.652032,-2.24604 -2.297992,-0.74162 -4.614666,-0.74162 -4.297057,0 -6.632415,2.73339 -2.316674,2.7122 -2.316674,7.77638 0,5.0218 2.241943,7.75519 2.241943,2.73339 6.370855,2.73339 1.120971,0 2.073797,-0.14833 0.971508,-0.16951 1.737506,-0.50853 v -6.14483 h -4.390472 v -5.46677 H 78.46403 Z" />
    <path
       inkscape:connector-curvature="0"
       id="path4529"
       style="font-style:normal;font-weight:bold;font-size:40.74817276px;line-height:1.25;font-family:'Bitstream Vera Sans';-inkscape-font-specification:'Bitstream Vera Sans Bold';letter-spacing:0px;word-spacing:0px;fill:#203668;fill-opacity:1;stroke:none;stroke-width:0.99999821"
       d="m 94.437871,278.96096 q -2.223258,0 -3.400278,1.82225 -1.158337,1.80107 -1.158337,5.21251 0,3.41144 1.158337,5.23369 1.17702,1.80108 3.400278,1.80108 2.185896,0 3.344236,-1.80108 1.15834,-1.82225 1.15834,-5.23369 0,-3.41144 -1.15834,-5.21251 -1.15834,-1.82225 -3.344236,-1.82225 z m 0,-5.4244 q 5.399348,0 8.425969,3.30549 3.04531,3.3055 3.04531,9.15367 0,5.84818 -3.04531,9.15367 -3.026621,3.30549 -8.425969,3.30549 -5.418027,0 -8.482015,-3.30549 -3.045306,-3.30549 -3.045306,-9.15367 0,-5.84817 3.045306,-9.15367 3.063988,-3.30549 8.482015,-3.30549 z" />
    <path
       inkscape:connector-curvature="0"
       id="path4531"
       style="font-style:normal;font-weight:bold;font-size:40.74817276px;line-height:1.25;font-family:'Bitstream Vera Sans';-inkscape-font-specification:'Bitstream Vera Sans Bold';letter-spacing:0px;word-spacing:0px;fill:#203668;fill-opacity:1;stroke:none;stroke-width:0.99999821"
       d="m 108.15109,274.10866 h 6.68847 l 5.21251,16.40033 5.19384,-16.40033 h 6.70714 l -8.23913,23.73174 h -7.34237 z" />
    <path
       inkscape:connector-curvature="0"
       id="path4533"
       style="font-style:normal;font-weight:bold;font-size:40.74817276px;line-height:1.25;font-family:'Bitstream Vera Sans';-inkscape-font-specification:'Bitstream Vera Sans Bold';letter-spacing:0px;word-spacing:0px;fill:#203668;fill-opacity:1;stroke:none;stroke-width:0.99999821"
       d="m 156.6331,285.91096 v 2.16128 h -15.63755 q 0.24288,2.66983 1.70014,4.00473 1.45727,1.33492 4.07287,1.33492 2.11116,0 4.31573,-0.69924 2.22327,-0.72043 4.55863,-2.16129 v 5.84818 q -2.37273,1.01708 -4.74545,1.52562 -2.37273,0.52972 -4.74545,0.52972 -5.67959,0 -8.83699,-3.26311 -3.13872,-3.28431 -3.13872,-9.19605 0,-5.8058 3.08267,-9.13248 3.10135,-3.32668 8.51938,-3.32668 4.93228,0 7.88417,3.36906 2.97057,3.36906 2.97057,9.00534 z m -6.87529,-2.52149 q 0,-2.16129 -1.12097,-3.47501 -1.10228,-1.33491 -2.89584,-1.33491 -1.94302,0 -3.1574,1.25016 -1.21439,1.22896 -1.51332,3.55976 z" />
    <path
       inkscape:connector-curvature="0"
       id="path4535"
       style="font-style:normal;font-weight:bold;font-size:40.74817276px;line-height:1.25;font-family:'Bitstream Vera Sans';-inkscape-font-specification:'Bitstream Vera Sans Bold';letter-spacing:0px;word-spacing:0px;fill:#203668;fill-opacity:1;stroke:none;stroke-width:0.99999821"
       d="m 177.22162,280.57133 q -0.8781,-0.46617 -1.75619,-0.67805 -0.85941,-0.23308 -1.73751,-0.23308 -2.57823,0 -3.97945,1.88582 -1.38253,1.86464 -1.38253,5.36083 v 10.93355 h -6.68846 v -23.73174 h 6.68846 v 3.89879 q 1.28912,-2.3308 2.95189,-3.39025 1.68146,-1.08064 4.01681,-1.08064 0.3363,0 0.72864,0.0424 0.39234,0.0212 1.13965,0.12713 z" />
    <path
       inkscape:connector-curvature="0"
       id="path4537"
       style="font-style:normal;font-weight:bold;font-size:40.74817276px;line-height:1.25;font-family:'Bitstream Vera Sans';-inkscape-font-specification:'Bitstream Vera Sans Bold';letter-spacing:0px;word-spacing:0px;fill:#203668;fill-opacity:1;stroke:none;stroke-width:0.99999821"
       d="m 201.62143,283.38947 v 14.45093 h -6.72583 v -2.35199 -8.7087 q 0,-3.07241 -0.13077,-4.2378 -0.1121,-1.1654 -0.41103,-1.71631 -0.39234,-0.74162 -1.06492,-1.14422 -0.67259,-0.42378 -1.532,-0.42378 -2.09248,0 -3.28818,1.84345 -1.19571,1.82226 -1.19571,5.06418 v 11.67517 h -6.68846 v -23.73174 h 6.68846 v 3.47501 q 1.51331,-2.07653 3.21346,-3.05122 1.70014,-0.99589 3.75525,-0.99589 3.62448,0 5.49276,2.5215 1.88697,2.52149 1.88697,7.33141 z" />
    <path
       inkscape:connector-curvature="0"
       id="path4539"
       style="font-style:normal;font-weight:bold;font-size:40.74817276px;line-height:1.25;font-family:'Bitstream Vera Sans';-inkscape-font-specification:'Bitstream Vera Sans Bold';letter-spacing:0px;word-spacing:0px;fill:#203668;fill-opacity:1;stroke:none;stroke-width:0.99999821"
       d="m 227.25432,278.04983 q 1.27043,-2.20367 3.00793,-3.34787 1.7562,-1.1654 3.84868,-1.1654 3.60578,0 5.49276,2.5215 1.88696,2.52149 1.88696,7.33141 v 14.45093 h -6.72582 V 285.466 q 0.0187,-0.27546 0.0187,-0.57211 0.0187,-0.29664 0.0187,-0.84756 0,-2.5215 -0.6539,-3.64451 -0.6539,-1.14422 -2.11116,-1.14422 -1.90565,0 -2.95189,1.77988 -1.02756,1.77988 -1.06493,5.14894 V 297.8404 H 221.2945 V 285.466 q 0,-3.94117 -0.59786,-5.06418 -0.59785,-1.14422 -2.12984,-1.14422 -1.92434,0 -2.97057,1.80107 -1.04625,1.77988 -1.04625,5.10656 v 11.67517 h -6.72583 v -23.73174 h 6.72583 v 3.47501 q 1.23307,-2.01296 2.82111,-3.03004 1.60674,-1.01707 3.53106,-1.01707 2.16721,0 3.82999,1.18659 1.66277,1.18658 2.52219,3.32668 z" />
    <path
       inkscape:connector-curvature="0"
       id="path4541"
       style="font-style:normal;font-weight:bold;font-size:40.74817276px;line-height:1.25;font-family:'Bitstream Vera Sans';-inkscape-font-specification:'Bitstream Vera Sans Bold';letter-spacing:0px;word-spacing:0px;fill:#203668;fill-opacity:1;stroke:none;stroke-width:0.99999821"
       d="m 268.65553,285.91096 v 2.16128 h -15.63755 q 0.24288,2.66983 1.70014,4.00473 1.45726,1.33492 4.07286,1.33492 2.11116,0 4.31574,-0.69924 2.22326,-0.72043 4.55862,-2.16129 v 5.84818 q -2.37272,1.01708 -4.74545,1.52562 -2.37272,0.52972 -4.74545,0.52972 -5.67958,0 -8.83698,-3.26311 -3.13873,-3.28431 -3.13873,-9.19605 0,-5.8058 3.08268,-9.13248 3.10135,-3.32668 8.51938,-3.32668 4.93228,0 7.88417,3.36906 2.97057,3.36906 2.97057,9.00534 z m -6.87529,-2.52149 q 0,-2.16129 -1.12097,-3.47501 -1.10229,-1.33491 -2.89585,-1.33491 -1.94301,0 -3.1574,1.25016 -1.21439,1.22896 -1.51331,3.55976 z" />
    <path
       inkscape:connector-curvature="0"
       id="path4543"
       style="font-style:normal;font-weight:bold;font-size:40.74817276px;line-height:1.25;font-family:'Bitstream Vera Sans';-inkscape-font-specification:'Bitstream Vera Sans Bold';letter-spacing:0px;word-spacing:0px;fill:#203668;fill-opacity:1;stroke:none;stroke-width:0.99999821"
       d="m 294.7368,283.38947 v 14.45093 h -6.72582 v -2.35199 -8.7087 q 0,-3.07241 -0.13079,-4.2378 -0.1121,-1.1654 -0.41102,-1.71631 -0.39234,-0.74162 -1.06493,-1.14422 -0.67257,-0.42378 -1.53199,-0.42378 -2.09248,0 -3.28818,1.84345 -1.1957,1.82226 -1.1957,5.06418 v 11.67517 h -6.68846 v -23.73174 h 6.68846 v 3.47501 q 1.51331,-2.07653 3.21345,-3.05122 1.70014,-0.99589 3.75526,-0.99589 3.62447,0 5.49275,2.5215 1.88697,2.52149 1.88697,7.33141 z" />
    <path
       inkscape:connector-curvature="0"
       id="path4545"
       style="font-style:normal;font-weight:bold;font-size:40.74817276px;line-height:1.25;font-family:'Bitstream Vera Sans';-inkscape-font-specification:'Bitstream Vera Sans Bold';letter-spacing:0px;word-spacing:0px;fill:#203668;fill-opacity:1;stroke:none;stroke-width:0.99999821"
       d="m 308.28187,267.37055 v 6.73811 h 6.89397 v 5.42441 h -6.89397 v 10.06479 q 0,1.65275 0.57916,2.24604 0.57917,0.5721 2.298,0.5721 h 3.43765 v 5.4244 h -5.73565 q -3.96076,0 -5.62354,-1.86464 -1.64409,-1.88582 -1.64409,-6.3779 v -10.06479 h -3.32555 v -5.42441 h 3.32555 v -6.73811 z" />
    <path
       inkscape:connector-curvature="0"
       id="path4490"
       style="font-style:normal;font-weight:bold;font-size:24.58805275px;line-height:1.25;font-family:'Bitstream Vera Sans';-inkscape-font-specification:'Bitstream Vera Sans Bold';letter-spacing:0px;word-spacing:0px;fill:#203668;fill-opacity:1;stroke:none;stroke-width:1.00000143"
       d="m 62.269334,320.01626 q 1.329121,0 1.900314,-0.5905 0.582177,-0.59051 0.582177,-1.9421 0,-1.33848 -0.582177,-1.91586 -0.571193,-0.57738 -1.900314,-0.57738 H 60.48985 v 5.02584 z m -1.779484,3.49054 v 7.4141 h -4.229022 v -19.59161 h 6.45887 q 3.240419,0 4.745292,1.29911 1.515857,1.29911 1.515857,4.10728 0,1.9421 -0.790882,3.18872 -0.779897,1.24662 -2.361662,1.83712 0.867774,0.23621 1.548811,1.07604 0.692022,0.82671 1.395028,2.51948 l 2.295754,5.56386 h -4.503633 l -1.999174,-4.86838 q -0.604146,-1.4697 -1.230261,-2.00771 -0.61513,-0.53801 -1.647671,-0.53801 z" />
    <path
       inkscape:connector-curvature="0"
       id="path4492"
       style="font-style:normal;font-weight:bold;font-size:24.58805275px;line-height:1.25;font-family:'Bitstream Vera Sans';-inkscape-font-specification:'Bitstream Vera Sans Bold';letter-spacing:0px;word-spacing:0px;fill:#203668;fill-opacity:1;stroke:none;stroke-width:1.00000143"
       d="m 73.396604,316.22391 h 3.932441 v 14.69699 h -3.932441 z m 0,-5.72133 h 3.932441 v 3.83171 h -3.932441 z" />
    <path
       inkscape:connector-curvature="0"
       id="path4494"
       style="font-style:normal;font-weight:bold;font-size:24.58805275px;line-height:1.25;font-family:'Bitstream Vera Sans';-inkscape-font-specification:'Bitstream Vera Sans Bold';letter-spacing:0px;word-spacing:0px;fill:#203668;fill-opacity:1;stroke:none;stroke-width:1.00000143"
       d="m 86.643877,324.30726 q -1.23026,0 -1.856375,0.49864 -0.615131,0.49865 -0.615131,1.4697 0,0.89232 0.494302,1.40409 0.505286,0.49865 1.395027,0.49865 1.109433,0 1.867361,-0.94481 0.757929,-0.95793 0.757929,-2.38826 v -0.53801 z m 6.008509,-1.77152 v 8.38516 H 88.68699 v -2.1783 q -0.790883,1.33848 -1.779486,1.95522 -0.988601,0.60363 -2.405598,0.60363 -1.911298,0 -3.108606,-1.32535 -1.186323,-1.33848 -1.186323,-3.4643 0,-2.58509 1.482903,-3.79235 1.493888,-1.20725 4.679386,-1.20725 h 2.317724 v -0.36742 q 0,-1.1154 -0.73596,-1.62717 -0.73596,-0.52489 -2.295755,-0.52489 -1.263214,0 -2.350677,0.30181 -1.087462,0.30181 -2.021143,0.90544 v -3.58239 q 1.263214,-0.36743 2.537413,-0.55114 1.274199,-0.19683 2.548398,-0.19683 3.328295,0 4.800214,1.57468 1.482906,1.56155 1.482906,5.09145 z" />
    <path
       inkscape:connector-curvature="0"
       id="path4496"
       style="font-style:normal;font-weight:bold;font-size:24.58805275px;line-height:1.25;font-family:'Bitstream Vera Sans';-inkscape-font-specification:'Bitstream Vera Sans Bold';letter-spacing:0px;word-spacing:0px;fill:#203668;fill-opacity:1;stroke:none;stroke-width:1.00000143"
       d="m 104.70235,328.42766 q -0.81285,1.28599 -1.79046,1.88961 -0.97763,0.60363 -2.26281,0.60363 -2.251813,0 -3.723733,-2.1127 -1.471921,-2.12581 -1.471921,-5.40638 0,-3.29371 1.471921,-5.39328 1.47192,-2.11269 3.723733,-2.11269 1.28518,0 2.26281,0.60363 0.97761,0.60363 1.79046,1.90274 v -2.17831 h 3.95441 v 13.21417 q 0,3.54303 -1.87834,5.40639 -1.86736,1.87649 -5.42633,1.87649 -1.15337,0 -2.229855,-0.20995 -1.076472,-0.20997 -2.163933,-0.643 v -3.66112 q 1.032538,0.70861 2.021141,1.04978 0.988603,0.35431 1.988187,0.35431 1.93327,0 2.83399,-1.01042 0.90073,-1.01042 0.90073,-3.16248 z m -2.59233,-9.14625 q -1.21928,0 -1.90032,1.07602 -0.681038,1.07604 -0.681038,3.04439 0,2.02084 0.659078,3.07062 0.65906,1.03666 1.92228,1.03666 1.23025,0 1.91129,-1.07603 0.68104,-1.07603 0.68104,-3.03125 0,-1.96835 -0.68104,-3.04439 -0.68104,-1.07602 -1.91129,-1.07602 z" />
    <path
       inkscape:connector-curvature="0"
       id="path4498"
       style="font-style:normal;font-weight:bold;font-size:24.58805275px;line-height:1.25;font-family:'Bitstream Vera Sans';-inkscape-font-specification:'Bitstream Vera Sans Bold';letter-spacing:0px;word-spacing:0px;fill:#203668;fill-opacity:1;stroke:none;stroke-width:1.00000143"
       d="m 124.8259,321.97149 v 8.94941 h -3.9544 v -1.45657 -5.36703 q 0,-1.92898 -0.0769,-2.65071 -0.0659,-0.72172 -0.24166,-1.0629 -0.23067,-0.45929 -0.62611,-0.70861 -0.39544,-0.26245 -0.90072,-0.26245 -1.23026,0 -1.93327,1.14164 -0.70301,1.12852 -0.70301,3.13624 v 7.23039 h -3.93244 v -20.41832 h 3.93244 v 7.8734 q 0.88974,-1.286 1.88933,-1.88962 0.99959,-0.61675 2.20788,-0.61675 2.13099,0 3.22944,1.56155 1.10942,1.56156 1.10942,4.54033 z" />
    <path
       inkscape:connector-curvature="0"
       id="path4500"
       style="font-style:normal;font-weight:bold;font-size:24.58805275px;line-height:1.25;font-family:'Bitstream Vera Sans';-inkscape-font-specification:'Bitstream Vera Sans Bold';letter-spacing:0px;word-spacing:0px;fill:#203668;fill-opacity:1;stroke:none;stroke-width:1.00000143"
       d="m 134.00892,324.30726 q -1.23026,0 -1.85637,0.49864 -0.61513,0.49865 -0.61513,1.4697 0,0.89232 0.49429,1.40409 0.50529,0.49865 1.39503,0.49865 1.10944,0 1.86736,-0.94481 0.75794,-0.95793 0.75794,-2.38826 v -0.53801 z m 6.00851,-1.77152 v 8.38516 h -3.96539 v -2.1783 q -0.79089,1.33848 -1.7795,1.95522 -0.9886,0.60363 -2.40559,0.60363 -1.9113,0 -3.10861,-1.32535 -1.18632,-1.33848 -1.18632,-3.4643 0,-2.58509 1.48291,-3.79235 1.49388,-1.20725 4.67938,-1.20725 h 2.31773 v -0.36742 q 0,-1.1154 -0.73597,-1.62717 -0.73596,-0.52489 -2.29575,-0.52489 -1.26321,0 -2.35068,0.30181 -1.08746,0.30181 -2.02114,0.90544 v -3.58239 q 1.26321,-0.36743 2.53741,-0.55114 1.2742,-0.19683 2.5484,-0.19683 3.3283,0 4.80022,1.57468 1.4829,1.56155 1.4829,5.09145 z" />
    <path
       inkscape:connector-curvature="0"
       id="path4502"
       style="font-style:normal;font-weight:bold;font-size:24.58805275px;line-height:1.25;font-family:'Bitstream Vera Sans';-inkscape-font-specification:'Bitstream Vera Sans Bold';letter-spacing:0px;word-spacing:0px;fill:#203668;fill-opacity:1;stroke:none;stroke-width:1.00000143"
       d="m 143.69723,310.50258 h 3.93245 v 20.41832 h -3.93245 z" />
    <path
       inkscape:connector-curvature="0"
       id="path4504"
       style="font-style:normal;font-weight:bold;font-size:24.58805275px;line-height:1.25;font-family:'Bitstream Vera Sans';-inkscape-font-specification:'Bitstream Vera Sans Bold';letter-spacing:0px;word-spacing:0px;fill:#203668;fill-opacity:1;stroke:none;stroke-width:1.00000143"
       d="m 155.72522,312.05102 v 4.17289 h 4.05327 v 3.35932 h -4.05327 v 6.23309 q 0,1.02354 0.34052,1.39097 0.34053,0.3543 1.3511,0.3543 h 2.02114 v 3.35931 h -3.37224 q -2.3287,0 -3.30632,-1.15477 -0.96664,-1.16788 -0.96664,-3.94981 v -6.23309 h -1.95523 v -3.35932 h 1.95523 v -4.17289 z" />
    <path
       inkscape:connector-curvature="0"
       id="path4506"
       style="font-style:normal;font-weight:bold;font-size:24.58805275px;line-height:1.25;font-family:'Bitstream Vera Sans';-inkscape-font-specification:'Bitstream Vera Sans Bold';letter-spacing:0px;word-spacing:0px;fill:#203668;fill-opacity:1;stroke:none;stroke-width:1.00000143"
       d="m 167.70928,324.30726 q -1.23026,0 -1.85638,0.49864 -0.61513,0.49865 -0.61513,1.4697 0,0.89232 0.49431,1.40409 0.50528,0.49865 1.39502,0.49865 1.10944,0 1.86736,-0.94481 0.75793,-0.95793 0.75793,-2.38826 v -0.53801 z m 6.00851,-1.77152 v 8.38516 h -3.9654 v -2.1783 q -0.79088,1.33848 -1.77948,1.95522 -0.9886,0.60363 -2.4056,0.60363 -1.9113,0 -3.10861,-1.32535 -1.18632,-1.33848 -1.18632,-3.4643 0,-2.58509 1.4829,-3.79235 1.49389,-1.20725 4.67939,-1.20725 h 2.31772 v -0.36742 q 0,-1.1154 -0.73595,-1.62717 -0.73597,-0.52489 -2.29576,-0.52489 -1.26322,0 -2.35068,0.30181 -1.08747,0.30181 -2.02115,0.90544 v -3.58239 q 1.26322,-0.36743 2.53742,-0.55114 1.2742,-0.19683 2.5484,-0.19683 3.32829,0 4.80021,1.57468 1.48291,1.56155 1.48291,5.09145 z" />
    <path
       inkscape:connector-curvature="0"
       id="path4508"
       style="font-style:normal;font-weight:bold;font-size:24.58805275px;line-height:1.25;font-family:'Bitstream Vera Sans';-inkscape-font-specification:'Bitstream Vera Sans Bold';letter-spacing:0px;word-spacing:0px;fill:#203668;fill-opacity:1;stroke:none;stroke-width:1.00000143"
       d="m 187.00899,316.6832 v 3.56926 q -1.26321,-0.62988 -2.43854,-0.94481 -1.17534,-0.31493 -2.21887,-0.31493 -1.12041,0 -1.66964,0.34118 -0.53824,0.32805 -0.53824,1.02353 0,0.56427 0.40642,0.86608 0.41742,0.30182 1.48291,0.44616 l 0.69202,0.11811 q 3.02073,0.45927 4.06426,1.50905 1.04352,1.04979 1.04352,3.29371 0,2.34889 -1.44995,3.5299 -1.44995,1.18101 -4.32788,1.18101 -1.21927,0 -2.52643,-0.2362 -1.29617,-0.22308 -2.66922,-0.68236 v -3.56927 q 1.17534,0.68236 2.40559,1.02354 1.24125,0.34118 2.51544,0.34118 1.15338,0 1.73555,-0.38055 0.58218,-0.38055 0.58218,-1.12851 0,-0.62988 -0.40642,-0.93169 -0.39545,-0.31493 -1.59276,-0.48553 l -0.69202,-0.10492 q -2.62528,-0.39367 -3.67979,-1.45658 -1.05451,-1.06291 -1.05451,-3.22809 0,-2.33577 1.3401,-3.46429 1.34011,-1.12852 4.10819,-1.12852 1.08747,0 2.28478,0.19684 1.1973,0.19683 2.60331,0.61675 z" />
    <path
       inkscape:connector-curvature="0"
       id="path4510"
       style="font-style:normal;font-weight:bold;font-size:24.58805275px;line-height:1.25;font-family:'Bitstream Vera Sans';-inkscape-font-specification:'Bitstream Vera Sans Bold';letter-spacing:0px;word-spacing:0px;fill:#203668;fill-opacity:1;stroke:none;stroke-width:1.00000143"
       d="m 210.9881,321.97149 v 8.94941 h -3.9544 v -1.45657 -5.39328 q 0,-1.90273 -0.077,-2.62446 -0.0659,-0.72172 -0.24166,-1.0629 -0.23067,-0.45929 -0.62611,-0.70861 -0.39544,-0.26245 -0.90072,-0.26245 -1.23026,0 -1.93327,1.14164 -0.70301,1.12852 -0.70301,3.13624 v 7.23039 h -3.93244 v -14.69699 h 3.93244 v 2.15207 q 0.88974,-1.286 1.88933,-1.88962 0.99959,-0.61675 2.20788,-0.61675 2.13099,0 3.22944,1.56155 1.10942,1.56156 1.10942,4.54033 z" />
    <path
       inkscape:connector-curvature="0"
       id="path4512"
       style="font-style:normal;font-weight:bold;font-size:24.58805275px;line-height:1.25;font-family:'Bitstream Vera Sans';-inkscape-font-specification:'Bitstream Vera Sans Bold';letter-spacing:0px;word-spacing:0px;fill:#203668;fill-opacity:1;stroke:none;stroke-width:1.00000143"
       d="m 220.17113,324.30726 q -1.23027,0 -1.85638,0.49864 -0.61514,0.49865 -0.61514,1.4697 0,0.89232 0.49431,1.40409 0.50529,0.49865 1.39502,0.49865 1.10944,0 1.86737,-0.94481 0.75792,-0.95793 0.75792,-2.38826 v -0.53801 z m 6.0085,-1.77152 v 8.38516 h -3.9654 v -2.1783 q -0.79087,1.33848 -1.77948,1.95522 -0.9886,0.60363 -2.4056,0.60363 -1.91129,0 -3.10861,-1.32535 -1.18632,-1.33848 -1.18632,-3.4643 0,-2.58509 1.4829,-3.79235 1.49389,-1.20725 4.67939,-1.20725 h 2.31772 v -0.36742 q 0,-1.1154 -0.73595,-1.62717 -0.73597,-0.52489 -2.29576,-0.52489 -1.26321,0 -2.35067,0.30181 -1.08746,0.30181 -2.02115,0.90544 v -3.58239 q 1.26321,-0.36743 2.53741,-0.55114 1.27421,-0.19683 2.5484,-0.19683 3.32829,0 4.80021,1.57468 1.48291,1.56155 1.48291,5.09145 z" />
    <path
       inkscape:connector-curvature="0"
       id="path4514"
       style="font-style:normal;font-weight:bold;font-size:24.58805275px;line-height:1.25;font-family:'Bitstream Vera Sans';-inkscape-font-specification:'Bitstream Vera Sans Bold';letter-spacing:0px;word-spacing:0px;fill:#203668;fill-opacity:1;stroke:none;stroke-width:1.00000143"
       d="m 250.04889,321.97149 v 8.94941 h -3.95441 v -1.45657 -5.36703 q 0,-1.92898 -0.0769,-2.65071 -0.0659,-0.72172 -0.24166,-1.0629 -0.23068,-0.45929 -0.62612,-0.70861 -0.39544,-0.26245 -0.90072,-0.26245 -1.23027,0 -1.93327,1.14164 -0.703,1.12852 -0.703,3.13624 v 7.23039 h -3.93245 v -20.41832 h 3.93245 v 7.8734 q 0.88973,-1.286 1.88932,-1.88962 0.99958,-0.61675 2.20788,-0.61675 2.13099,0 3.22943,1.56155 1.10944,1.56156 1.10944,4.54033 z" />
    <path
       inkscape:connector-curvature="0"
       id="path4516"
       style="font-style:normal;font-weight:bold;font-size:24.58805275px;line-height:1.25;font-family:'Bitstream Vera Sans';-inkscape-font-specification:'Bitstream Vera Sans Bold';letter-spacing:0px;word-spacing:0px;fill:#203668;fill-opacity:1;stroke:none;stroke-width:1.00000143"
       d="m 253.04766,321.27601 h 6.89824 v 3.81859 h -6.89824 z" />
    <path
       inkscape:connector-curvature="0"
       id="path4518"
       style="font-style:normal;font-weight:bold;font-size:24.58805275px;line-height:1.25;font-family:'Bitstream Vera Sans';-inkscape-font-specification:'Bitstream Vera Sans Bold';letter-spacing:0px;word-spacing:0px;fill:#203668;fill-opacity:1;stroke:none;stroke-width:1.00000143"
       d="m 273.20415,327.35163 h -6.61265 l -1.04353,3.56927 h -4.25098 l 6.07441,-19.59161 h 5.04187 l 6.07442,19.59161 h -4.251 z m -5.55814,-3.63488 h 4.49264 l -2.24083,-7.79465 z" />
    <path
       inkscape:connector-curvature="0"
       id="path4520"
       style="font-style:normal;font-weight:bold;font-size:24.58805275px;line-height:1.25;font-family:'Bitstream Vera Sans';-inkscape-font-specification:'Bitstream Vera Sans Bold';letter-spacing:0px;word-spacing:0px;fill:#203668;fill-opacity:1;stroke:none;stroke-width:1.00000143"
       d="m 280.47588,310.50258 h 3.93244 v 20.41832 h -3.93244 z" />
    <path
       inkscape:connector-curvature="0"
       id="path4522"
       style="font-style:normal;font-weight:bold;font-size:24.58805275px;line-height:1.25;font-family:'Bitstream Vera Sans';-inkscape-font-specification:'Bitstream Vera Sans Bold';letter-spacing:0px;word-spacing:0px;fill:#203668;fill-opacity:1;stroke:none;stroke-width:1.00000143"
       d="m 294.75569,327.88964 q 1.26321,0 1.92228,-1.10227 0.67005,-1.10228 0.67005,-3.20184 0,-2.09957 -0.67005,-3.20184 -0.65907,-1.10228 -1.92228,-1.10228 -1.26321,0 -1.94425,1.11539 -0.67006,1.10228 -0.67006,3.18873 0,2.08645 0.67006,3.20184 0.68104,1.10227 1.94425,1.10227 z m -2.61431,-9.51366 q 0.81286,-1.286 1.80146,-1.88962 0.9886,-0.61675 2.27379,-0.61675 2.27378,0 3.73472,2.16518 1.46093,2.15206 1.46093,5.55074 0,3.39868 -1.46093,5.56386 -1.46094,2.15206 -3.73472,2.15206 -1.28519,0 -2.27379,-0.60363 -0.9886,-0.61674 -1.80146,-1.90273 v 2.12581 h -3.93243 v -20.41832 h 3.93243 z" />
    <path
       inkscape:connector-curvature="0"
       id="path4524"
       style="font-style:normal;font-weight:bold;font-size:24.58805275px;line-height:1.25;font-family:'Bitstream Vera Sans';-inkscape-font-specification:'Bitstream Vera Sans Bold';letter-spacing:0px;word-spacing:0px;fill:#203668;fill-opacity:1;stroke:none;stroke-width:1.00000143"
       d="m 309.84836,324.30726 q -1.23026,0 -1.85638,0.49864 -0.61513,0.49865 -0.61513,1.4697 0,0.89232 0.49431,1.40409 0.50528,0.49865 1.39503,0.49865 1.10943,0 1.86736,-0.94481 0.75792,-0.95793 0.75792,-2.38826 v -0.53801 z m 6.00851,-1.77152 v 8.38516 h -3.9654 v -2.1783 q -0.79088,1.33848 -1.77948,1.95522 -0.9886,0.60363 -2.4056,0.60363 -1.9113,0 -3.1086,-1.32535 -1.18633,-1.33848 -1.18633,-3.4643 0,-2.58509 1.4829,-3.79235 1.4939,-1.20725 4.67939,-1.20725 h 2.31772 v -0.36742 q 0,-1.1154 -0.73595,-1.62717 -0.73596,-0.52489 -2.29576,-0.52489 -1.26322,0 -2.35068,0.30181 -1.08746,0.30181 -2.02114,0.90544 v -3.58239 q 1.26321,-0.36743 2.53742,-0.55114 1.27419,-0.19683 2.54839,-0.19683 3.3283,0 4.80021,1.57468 1.48291,1.56155 1.48291,5.09145 z" />
    <path
       style="fill:#ffffff;stroke:none"
       d="M 6.8031343,172.07927 H 36.416778 L 138.86398,110.45088 242.91191,172.07927 H 268.9239 L 269.72427,150.8695 170.87873,91.642216 268.9239,32.014744 V 14.406632 H 236.90915 L 139.66435,73.233735 41.21899,14.406632 H 6.40295 L 6.8031344,31.214375 108.85015,91.642216 6.8031343,152.47024 Z"
       id="path3820"
       inkscape:connector-curvature="0"
       transform="translate(45.1241,38.1823)"
       sodipodi:nodetypes="ccccccccccccccccc" />
  </g>
</svg>
