<?xml version="1.0" encoding="UTF-8" standalone="no"?>
<!-- Created with Inkscape (http://www.inkscape.org/) -->

<svg
   xmlns:dc="http://purl.org/dc/elements/1.1/"
   xmlns:cc="http://creativecommons.org/ns#"
   xmlns:rdf="http://www.w3.org/1999/02/22-rdf-syntax-ns#"
   xmlns:svg="http://www.w3.org/2000/svg"
   xmlns="http://www.w3.org/2000/svg"
   xmlns:sodipodi="http://sodipodi.sourceforge.net/DTD/sodipodi-0.dtd"
   xmlns:inkscape="http://www.inkscape.org/namespaces/inkscape"
   version="1.1"
   id="svg2"
   xml:space="preserve"
   width="821.05334"
   height="260.09332"
   viewBox="0 0 821.05334 260.09332"
   sodipodi:docname="SEFARI_Logo_RGB.svg"
   inkscape:version="0.92.1 r15371"><metadata
     id="metadata8"><rdf:RDF><cc:Work
         rdf:about=""><dc:format>image/svg+xml</dc:format><dc:type
           rdf:resource="http://purl.org/dc/dcmitype/StillImage" /><dc:title></dc:title></cc:Work></rdf:RDF></metadata><defs
     id="defs6" /><sodipodi:namedview
     pagecolor="#ffffff"
     bordercolor="#666666"
     borderopacity="1"
     objecttolerance="10"
     gridtolerance="10"
     guidetolerance="10"
     inkscape:pageopacity="0"
     inkscape:pageshadow="2"
     inkscape:window-width="1920"
     inkscape:window-height="1017"
     id="namedview4"
     showgrid="false"
     inkscape:zoom="0.4141022"
     inkscape:cx="410.52667"
     inkscape:cy="130.04666"
     inkscape:window-x="-8"
     inkscape:window-y="-8"
     inkscape:window-maximized="1"
     inkscape:current-layer="g10" /><g
     id="g10"
     inkscape:groupmode="layer"
     inkscape:label="ink_ext_XXXXXX"
     transform="matrix(1.3333333,0,0,-1.3333333,0,260.09333)"><g
       id="g12"
       transform="scale(0.1)"><path
         d="M 5636.69,996.551 5609.54,852.02 c -1.84,-9.77 4.44,-19.219 14.15,-21.309 l 511.99,-110.289 c 11.75,-2.531 22.71,6.738 22.18,18.738 l -10.58,234.793 c -0.43,9.492 -8.04,17.086 -17.54,17.485 l -474.27,20.042 c -9.1,0.38 -17.1,-5.97 -18.78,-14.929"
         style="fill:#d22630;fill-opacity:1;fill-rule:nonzero;stroke:none"
         id="path14"
         inkscape:connector-curvature="0" /><path
         d="m 5637.56,1874.49 -37.6,15.54 c -9.22,3.81 -19.8,-0.38 -23.9,-9.48 L 5413.95,1520.9 c -4.29,-9.51 0.15,-20.69 9.79,-24.67 l 37.59,-15.54 c 9.23,-3.81 19.81,0.39 23.91,9.49 l 162.11,359.64 c 4.29,9.52 -0.15,20.69 -9.79,24.67"
         style="fill:#ffcd00;fill-opacity:1;fill-rule:nonzero;stroke:none"
         id="path16"
         inkscape:connector-curvature="0" /><path
         d="m 4891.19,992.688 -8.73,-66.438 c -1.16,-8.82 -8.42,-15.559 -17.3,-16.07 l -257.34,-14.828 c -8.22,-0.461 -15.77,4.546 -18.52,12.308 l -27.1,76.422 c -4.23,11.934 4.5,24.498 17.15,24.708 l 293.17,4.83 c 11.3,0.19 20.14,-9.71 18.67,-20.932"
         style="fill:#ed8b00;fill-opacity:1;fill-rule:nonzero;stroke:none"
         id="path18"
         inkscape:connector-curvature="0" /><path
         d="m 5312.73,711.57 126.51,28.399 c 7.07,1.601 14.42,-1.11 18.78,-6.899 l 390.62,-518.91 c 5.32,-7.07 4.87,-16.922 -1.07,-23.469 L 5680.29,6.07031 c -8.64,-9.53125 -24.13,-7.53125 -30.05,3.89063 L 5300.4,685.082 c -5.57,10.727 0.53,23.828 12.33,26.488"
         style="fill:#d22630;fill-opacity:1;fill-rule:nonzero;stroke:none"
         id="path20"
         inkscape:connector-curvature="0" /><path
         d="m 5774.16,1354.95 -61.33,40.02 c -6.5,4.24 -14.96,3.94 -21.14,-0.74 l -186.05,-141.14 c 22.81,-24.13 42.7,-51.03 59.08,-80.19 l 210.15,151.77 c 10.46,7.54 10.09,23.23 -0.71,30.28"
         style="fill:#ffcd00;fill-opacity:1;fill-rule:nonzero;stroke:none"
         id="path22"
         inkscape:connector-curvature="0" /><path
         d="m 4919.19,1254.99 -417.46,348.61 c -6.49,5.42 -15.82,5.76 -22.68,0.83 l -74.61,-53.54 c -10.28,-7.37 -10.31,-22.66 -0.06,-30.07 l 461.95,-334.14 c 15.17,24.66 32.93,47.52 52.86,68.31"
         style="fill:#ed8b00;fill-opacity:1;fill-rule:nonzero;stroke:none"
         id="path24"
         inkscape:connector-curvature="0" /><path
         d="m 4858.71,776.289 -425.45,-308 c -9.79,-7.078 -10.26,-21.488 -0.96,-29.199 l 60.08,-49.82 c 6.63,-5.489 16.17,-5.68 23.02,-0.469 l 402.81,307.14 c -22.98,24.149 -43.01,51.098 -59.5,80.348"
         style="fill:#dc4405;fill-opacity:1;fill-rule:nonzero;stroke:none"
         id="path26"
         inkscape:connector-curvature="0" /><path
         d="M 5007.21,625.379 4778.48,126.75 c -5.62,-12.25 3.33,-26.219 16.82,-26.219 h 148.06 c 7.91,0 14.94,5.028 17.5,12.508 l 160.09,467.281 c -40.57,9.27 -78.81,24.61 -113.74,45.059"
         style="fill:#dc4405;fill-opacity:1;fill-rule:nonzero;stroke:none"
         id="path28"
         inkscape:connector-curvature="0" /><path
         d="m 5090.72,1361.54 c 30.76,9.6 63.1,15.57 96.52,17.55 l -95.99,556.25 c -1.98,11.45 -13.89,18.26 -24.75,14.16 l -72.78,-27.5 c -8.47,-3.2 -13.38,-12.07 -11.59,-20.95 l 108.59,-539.51"
         style="fill:#ed8b00;fill-opacity:1;fill-rule:nonzero;stroke:none"
         id="path30"
         inkscape:connector-curvature="0" /><path
         d="m 539.547,1310.11 c 0,-9.43 -18.848,-64.8 -36.52,-64.8 -18.847,0 -103.664,62.44 -214.41,62.44 -82.461,0 -149.605,-30.63 -149.605,-116.63 0,-71.86 60.078,-104.85 201.441,-149.61 106.027,-32.99 227.371,-82.463 227.371,-232.069 0,-151.98 -127.23,-248.582 -294.511,-248.582 C 140.188,560.859 0,619.77 0,655.102 c 0,14.136 24.7383,70.679 42.4023,70.679 10.6055,0 111.9177,-76.57 229.7267,-76.57 109.559,0 195.559,53.019 195.559,149.621 0,61.258 -35.344,114.27 -160.215,151.973 -170.821,51.825 -267.4222,96.585 -267.4222,235.605 0,120.16 77.7502,204.98 247.3902,204.98 141.368,0 252.106,-57.73 252.106,-81.28"
         style="fill:#63666a;fill-opacity:1;fill-rule:nonzero;stroke:none"
         id="path32"
         inkscape:connector-curvature="0" /><path
         d="m 942.406,944.91 c -7.066,0 -9.422,-5.89 -9.422,-11.781 V 660.57 c 0,-8.242 7.067,-9.422 18.848,-9.422 h 387.578 c 7.07,0 11.78,-28.277 11.78,-41.226 0,-11.781 -4.71,-41.242 -11.78,-41.242 H 870.547 c -12.957,0 -31.805,0 -31.805,25.922 v 760.268 c 0,24.74 16.488,27.09 29.442,27.09 h 427.646 c 8.24,0 12.96,-27.09 12.96,-38.87 0,-10.61 -4.72,-42.41 -12.96,-42.41 H 949.473 c -12.957,0 -16.489,-1.18 -16.489,-9.43 V 1058 c 0,-9.43 1.172,-12.96 9.422,-12.96 l 280.374,-20.02 c 8.25,0 11.79,-18.86 11.79,-29.454 0,-14.136 -4.72,-29.453 -11.79,-30.636 L 942.406,944.91"
         style="fill:#63666a;fill-opacity:1;fill-rule:nonzero;stroke:none"
         id="path34"
         inkscape:connector-curvature="0" /><path
         d="m 1722.31,935.48 c -4.71,0 -9.42,-2.351 -9.42,-12.96 V 579.711 c 0,-12.973 -29.46,-14.141 -47.13,-14.141 -15.31,0 -47.12,1.168 -47.12,14.141 v 776.339 c 0,24.74 16.49,25.91 29.45,25.91 h 427.64 c 8.24,0 12.95,-24.73 12.95,-36.51 0,-10.61 -4.71,-42.41 -12.95,-42.41 h -346.35 c -12.96,0 -16.49,-1.18 -16.49,-9.43 v -245.03 c 0,-10.61 0,-14.14 8.24,-14.14 l 281.56,-21.21 c 7.07,0 11.78,-17.664 11.78,-29.449 0,-12.957 -4.71,-29.453 -11.78,-29.453 L 1722.31,935.48"
         style="fill:#63666a;fill-opacity:1;fill-rule:nonzero;stroke:none"
         id="path36"
         inkscape:connector-curvature="0" /><path
         d="m 2522.23,1246.49 c -2.36,8.24 -3.53,9.43 -9.43,9.43 -4.71,0 -7.06,-1.19 -9.42,-9.43 L 2393.82,913.102 h 239.15 z m 298.05,-662.068 c 0,-11.781 -5.89,-16.492 -22.38,-16.492 h -34.17 c -20.03,0 -24.74,4.711 -28.27,17.672 l -81.29,241.5 h -282.73 l -80.11,-241.5 c -3.54,-12.961 -8.25,-17.672 -20.03,-17.672 h -45.94 c -7.07,0 -16.49,2.359 -16.49,15.32 v 44.762 c 0,16.5 5.88,30.636 12.96,51.84 l 235.61,689.158 c 4.71,12.95 17.67,15.31 56.55,15.31 37.69,0 54.19,-1.17 58.89,-15.31 l 236.79,-695.049 c 7.07,-21.211 10.61,-32.992 10.61,-48.301 v -41.238"
         style="fill:#63666a;fill-opacity:1;fill-rule:nonzero;stroke:none"
         id="path38"
         inkscape:connector-curvature="0" /><path
         d="m 3188.98,1306.57 c -14.13,0 -22.38,-1.18 -22.38,-9.42 V 996.742 l 104.84,5.888 c 130.77,7.07 208.53,56.55 208.53,163.76 0,106.02 -60.09,140.18 -188.5,140.18 z M 3325.64,929.59 H 3168.95 V 579.711 c 0,-12.973 -29.45,-14.141 -47.12,-14.141 -15.32,0 -47.12,1.168 -47.12,14.141 v 777.519 c 0,23.56 18.85,24.73 31.8,24.73 h 180.25 c 199.1,0 286.26,-65.96 286.26,-214.4 0,-86 -37.69,-170.818 -156.68,-221.47 l 190.51,-292.16 c 5.49,-8.418 10.61,-17.668 10.61,-25.918 v -40.051 c 0,-11.781 -4.72,-20.031 -20.03,-20.031 h -34.16 c -16.5,0 -29.46,2.359 -35.34,12.961 L 3325.64,929.59"
         style="fill:#63666a;fill-opacity:1;fill-rule:nonzero;stroke:none"
         id="path40"
         inkscape:connector-curvature="0" /><path
         d="m 3997.15,579.711 c 0,-12.973 -29.45,-14.141 -45.94,-14.141 -16.49,0 -48.29,1.168 -48.29,14.141 v 789.299 c 0,15.31 30.62,15.31 47.12,15.31 17.66,0 47.11,0 47.11,-15.31 V 579.711"
         style="fill:#63666a;fill-opacity:1;fill-rule:nonzero;stroke:none"
         id="path42"
         inkscape:connector-curvature="0" /></g></g></svg>