<?xml version="1.0" encoding="UTF-8" standalone="no"?>
<svg
   xmlns:dc="http://purl.org/dc/elements/1.1/"
   xmlns:cc="http://creativecommons.org/ns#"
   xmlns:rdf="http://www.w3.org/1999/02/22-rdf-syntax-ns#"
   xmlns:svg="http://www.w3.org/2000/svg"
   xmlns="http://www.w3.org/2000/svg"
   xmlns:sodipodi="http://sodipodi.sourceforge.net/DTD/sodipodi-0.dtd"
   xmlns:inkscape="http://www.inkscape.org/namespaces/inkscape"
   version="1.1"
   id="svg2"
   xml:space="preserve"
   width="1239.1733"
   height="645.06665"
   viewBox="0 0 1239.1733 645.06665"
   sodipodi:docname="TWCF_Logo_Light_Vertical.eps"><metadata
     id="metadata8"><rdf:RDF><cc:Work
         rdf:about=""><dc:format>image/svg+xml</dc:format><dc:type
           rdf:resource="http://purl.org/dc/dcmitype/StillImage" /></cc:Work></rdf:RDF></metadata><defs
     id="defs6" /><sodipodi:namedview
     pagecolor="#ffffff"
     bordercolor="#666666"
     borderopacity="1"
     objecttolerance="10"
     gridtolerance="10"
     guidetolerance="10"
     inkscape:pageopacity="0"
     inkscape:pageshadow="2"
     inkscape:window-width="640"
     inkscape:window-height="480"
     id="namedview4" /><g
     id="g10"
     inkscape:groupmode="layer"
     inkscape:label="ink_ext_XXXXXX"
     transform="matrix(1.3333333,0,0,-1.3333333,0,645.06667)"><g
       id="g12"
       transform="scale(0.1)"><path
         d="m 6044.31,3440.56 c 0,-771.76 -625.65,-1397.43 -1397.43,-1397.43 -771.76,0 -1397.42,625.67 -1397.42,1397.43 0,771.77 625.66,1397.43 1397.42,1397.43 771.78,0 1397.43,-625.66 1397.43,-1397.43"
         style="fill:#171a1e;fill-opacity:1;fill-rule:nonzero;stroke:none"
         id="path14" /><path
         d="m 5302.38,3892.78 -0.05,-0.14 c -18.33,-5.03 -37.54,-10.66 -57.52,-16.92 -413.08,-130.1 -552.55,-294.54 -598.41,-404.33 -45.73,109.79 -185.24,274.23 -598.27,404.33 -19.71,6.17 -38.55,11.71 -56.66,16.65 l -0.04,0.41 c -567.9,155.06 -360.07,-287.82 -264.13,-433.37 90.54,-137.24 250.83,-101.11 311.96,-80.94 -62.92,-25.43 -219.18,-103.67 -152.23,-232.03 71.34,-136.55 231.34,-333.41 407.44,-363.96 l 0.14,-0.32 c 12.58,-2.15 25.11,-3.2 37.59,-3.2 127.72,0 247.8,115.79 314.25,454.91 66.44,-339.12 186.57,-454.91 314.24,-454.91 12.17,0 24.42,1.14 36.73,3.11 v -0.04 l 0.22,0.04 0.65,0.09 v 0.05 c 176.51,29.95 336.97,227.41 408.44,364.23 67,128.36 -89.3,206.65 -152.23,232.03 61.19,-20.17 221.46,-56.3 311.96,80.94 95.94,145.55 303.78,588.43 -264.08,433.37"
         style="fill:#fbce28;fill-opacity:1;fill-rule:nonzero;stroke:none"
         id="path16" /><path
         d="m 4270.62,4034.71 c -70.98,44.58 -125.44,63.65 -166.64,63.65 -90.27,0 -116.98,-91.23 -114.51,-205.55 18.66,-5.12 38.09,-10.84 58.45,-17.29 383.2,-120.63 530.95,-270.85 586.87,-379.55 -9.18,-52.77 -10.19,-93.83 -9.59,-115.05 0.91,21.08 5.62,52.31 21.26,89.99 -35.85,138.97 -130.28,409.55 -375.84,563.8"
         style="fill:#3fc0d3;fill-opacity:1;fill-rule:nonzero;stroke:none"
         id="path18" /><path
         d="m 5188.95,4098.38 c -41.25,0 -95.66,-19.08 -166.73,-63.66 -245.47,-154.24 -339.95,-424.82 -375.75,-563.79 15.63,-37.68 20.3,-68.91 21.21,-90 0.56,21.23 -0.41,62.29 -9.64,115.01 55.97,108.74 203.76,258.92 586.88,379.6 20.4,6.44 39.83,12.12 58.53,17.24 2.42,114.32 -24.28,205.6 -114.5,205.6"
         style="fill:#3fc0d3;fill-opacity:1;fill-rule:nonzero;stroke:none"
         id="path20" /><path
         d="m 4652.77,3202.16 c 4.57,45.04 8.87,92.18 12.62,143.68 -5.62,-39.84 -12.12,-76.37 -18.98,-111.31 -6.81,34.94 -13.26,71.47 -18.89,111.31 3.75,-51.5 8.06,-98.64 12.58,-143.68 -67.59,-315.31 -184.28,-423.36 -308.07,-423.36 -12.49,0 -25.02,1.09 -37.55,3.2 49.21,-86.43 104.63,-149.12 158.09,-149.12 77.19,0 150.13,219.68 193.84,598.31 43.81,-378.63 116.7,-598.31 193.84,-598.31 53.46,0 108.97,62.69 158.18,149.12 -12.54,-2.11 -25.1,-3.2 -37.6,-3.2 -123.74,0 -240.43,108.05 -308.06,423.36"
         style="fill:#3fc0d3;fill-opacity:1;fill-rule:nonzero;stroke:none"
         id="path22" /><path
         d="m 5245.27,3875.7 c -413.07,-130.1 -552.59,-294.54 -598.4,-404.29 -45.78,109.75 -185.25,274.19 -598.27,404.29 -20.4,6.4 -39.87,12.12 -58.53,17.19 2.92,-135.31 46.64,-302.95 74.44,-389.97 29.45,-92.19 116.79,-115.33 197.18,-115.33 16.1,0 27.72,1.1 37.32,2.56 -57.94,-40.7 -170.06,-135.86 -142.9,-248.44 25.61,-106.01 77.37,-251.33 138.97,-359.57 12.57,-2.1 25.06,-3.2 37.54,-3.2 127.72,0 247.8,115.78 314.29,454.95 66.44,-339.17 186.57,-454.95 314.25,-454.95 12.49,0 24.97,1.1 37.55,3.2 61.64,108.24 113.4,253.56 139.01,359.57 27.12,112.58 -84.97,207.74 -142.95,248.44 9.7,-1.46 21.26,-2.56 37.31,-2.56 80.4,0 167.74,23.14 197.18,115.33 27.81,87.02 71.57,254.66 74.46,389.97 -18.62,-5.07 -38.1,-10.79 -58.45,-17.19"
         style="fill:#ffffff;fill-opacity:1;fill-rule:nonzero;stroke:none"
         id="path24" /><path
         d="m 0,1397.99 v -87.11 H 175.969 V 758.832 h 96.941 v 552.048 h 175.969 v 87.11 H 0"
         style="fill:#171a1e;fill-opacity:1;fill-rule:nonzero;stroke:none"
         id="path26" /><path
         d="m 630.961,758.832 v 639.158 h 408.449 v -87.07 H 727.906 v -186.71 h 265.731 v -86.24 H 727.906 V 845.949 H 1039.41 V 758.832 H 630.961"
         style="fill:#171a1e;fill-opacity:1;fill-rule:nonzero;stroke:none"
         id="path28" /><path
         d="M 1710.8,758.832 V 1186.13 L 1563.55,874.629 h -71.79 L 1340.95,1186.13 V 758.832 H 1244 v 639.158 h 96.95 l 186.71,-397.7 183.14,397.7 h 96.95 V 758.832 h -96.95"
         style="fill:#171a1e;fill-opacity:1;fill-rule:nonzero;stroke:none"
         id="path30" /><path
         d="m 2681.71,758.832 v 639.158 h 96.95 V 845.949 h 307.89 v -87.117 h -404.84"
         style="fill:#171a1e;fill-opacity:1;fill-rule:nonzero;stroke:none"
         id="path32" /><path
         d="m 3268.68,758.832 v 639.158 h 408.45 v -87.07 h -311.5 v -186.71 h 265.73 v -86.24 H 3365.63 V 845.949 h 311.5 v -87.117 h -408.45"
         style="fill:#171a1e;fill-opacity:1;fill-rule:nonzero;stroke:none"
         id="path34" /><path
         d="M 4098.03,1310.9 V 758.82 h -96.94 v 552.08 h -175.97 v 87.07 H 4274 v -87.07 h -175.97"
         style="fill:#171a1e;fill-opacity:1;fill-rule:nonzero;stroke:none"
         id="path36" /><path
         d="M 5482.07,758.832 5186.7,1208.63 V 758.832 h -96.99 v 639.158 h 88.9 l 295.36,-448.869 v 448.869 h 96.94 V 758.832 h -88.84"
         style="fill:#171a1e;fill-opacity:1;fill-rule:nonzero;stroke:none"
         id="path38" /><path
         d="m 6618.3,758.832 h -84.38 L 6403.74,1206.71 6274.46,758.832 h -84.37 l -167,639.158 h 102.3 l 111.39,-457.021 128.36,457.021 h 78.11 l 128.36,-457.021 111.34,457.021 h 102.35 l -167,-639.158"
         style="fill:#171a1e;fill-opacity:1;fill-rule:nonzero;stroke:none"
         id="path40" /><path
         d="m 8252.48,758.832 v 639.158 h 96.94 V 845.949 h 307.94 v -87.117 h -404.88"
         style="fill:#171a1e;fill-opacity:1;fill-rule:nonzero;stroke:none"
         id="path42" /><path
         d="m 9162.62,1267.78 c -26.93,29.73 -62.83,43.13 -108.6,43.13 H 8936.4 V 845.93 h 117.62 c 45.77,0 81.67,13.402 108.6,42.98 33.24,36.91 34.16,105.961 34.16,193.94 0,87.99 -0.92,148.16 -34.16,184.93 M 9229.07,819 c -40.43,-40.43 -98.73,-60.18 -165.13,-60.18 h -224.48 v 639.15 h 224.48 c 66.4,0 124.7,-19.71 165.13,-60.13 69.14,-69.14 64.66,-162.48 64.66,-254.99 0,-92.409 4.48,-194.811 -64.66,-263.85"
         style="fill:#171a1e;fill-opacity:1;fill-rule:nonzero;stroke:none"
         id="path44" /><path
         d="m 7242.88,1276.75 c -22.41,24.29 -57.44,39.57 -95.11,39.57 -37.74,0 -72.77,-15.28 -95.22,-39.57 -31.41,-34.11 -37.67,-70.01 -37.67,-198.32 0,-128.45 6.26,-164.348 37.67,-198.461 22.45,-24.137 57.48,-39.469 95.22,-39.469 37.67,0 72.7,15.332 95.11,39.469 31.41,34.113 37.73,70.011 37.73,198.461 0,128.31 -6.32,164.21 -37.73,198.32 m 73.67,-455.078 c -44.04,-44 -100.61,-68.242 -168.78,-68.242 -68.28,0 -123.89,24.242 -167.87,68.242 -62.88,62.828 -61.97,133.75 -61.97,256.758 0,122.96 -0.91,193.89 61.97,256.72 43.98,44 99.59,68.27 167.87,68.27 68.17,0 124.74,-24.27 168.78,-68.27 62.78,-62.83 61,-133.76 61,-256.72 0,-123.008 1.78,-193.93 -61,-256.758"
         style="fill:#171a1e;fill-opacity:1;fill-rule:nonzero;stroke:none"
         id="path46" /><path
         d="M 7833.38,1310.91 H 7689.79 V 1110.8 h 143.59 c 64.66,0 108.66,36.77 108.66,99.6 0,62.83 -44,100.51 -108.66,100.51 m 112.27,-552.09 -134.68,269.3 h -121.18 v -269.3 h -96.94 v 639.2 h 247.76 c 121.18,0 198.41,-78.15 198.41,-186.75 0,-91.56 -55.69,-149.91 -127.49,-169.66 l 147.21,-282.79 h -113.09"
         style="fill:#171a1e;fill-opacity:1;fill-rule:nonzero;stroke:none"
         id="path48" /><path
         d="m 4739.81,1276.75 c -22.45,24.29 -57.48,39.57 -95.16,39.57 -37.68,0 -72.71,-15.28 -95.16,-39.57 -31.42,-34.11 -37.68,-70.01 -37.68,-198.32 0,-128.45 6.26,-164.348 37.68,-198.461 22.45,-24.137 57.48,-39.469 95.16,-39.469 37.68,0 72.71,15.332 95.16,39.469 31.42,34.113 37.72,70.011 37.72,198.461 0,128.31 -6.3,164.21 -37.72,198.32 m 73.62,-455.078 c -44.03,-44 -100.55,-68.242 -168.78,-68.242 -68.23,0 -123.88,24.242 -167.87,68.242 -62.88,62.828 -61.92,133.75 -61.92,256.758 0,122.96 -0.96,193.89 61.92,256.72 43.99,44 99.64,68.27 167.87,68.27 68.23,0 124.75,-24.27 168.78,-68.27 62.79,-62.83 61.05,-133.76 61.05,-256.72 0,-123.008 1.74,-193.93 -61.05,-256.758"
         style="fill:#171a1e;fill-opacity:1;fill-rule:nonzero;stroke:none"
         id="path50" /><path
         d="m 2282.48,1310.88 h -140.07 v -212.73 h 140.07 c 67.31,0 113.04,38.68 113.04,105.91 0,67.4 -45.73,106.82 -113.04,106.82 m 5.35,-300.72 H 2142.41 V 758.84 h -96.95 v 639.15 h 242.37 c 124.74,0 204.68,-82.53 204.68,-193.93 0,-111.21 -79.94,-193.9 -204.68,-193.9"
         style="fill:#171a1e;fill-opacity:1;fill-rule:nonzero;stroke:none"
         id="path52" /><path
         d="m 2002.56,274.102 0.23,-121.461 -128.68,-0.172 -0.18,121.402 -28.94,-0.051 0.45,-271.03094 28.95,0.10157 -0.23,123.69137 128.63,0.27 0.23,-123.74262 h 29 l -0.46,271.04262 -29,-0.05"
         style="fill:#3fc0d3;fill-opacity:1;fill-rule:nonzero;stroke:none"
         id="path54" /><path
         d="m 2326.79,274.641 -99.18,-271.18006 30.72,0.10156 21.59,61.3164 118.39,0.1914 21.81,-61.23827 30.83,0.03906 -99.74,270.80891 z m 12.67,-41.481 50.48,-142.9881 -101.29,-0.1406 z"
         style="fill:#3fc0d3;fill-opacity:1;fill-rule:nonzero;stroke:none"
         id="path56" /><path
         d="m 2747.48,249.469 -72.34,-0.137 0.18,-99.32 72.34,0.129 c 31.46,0.05 53.87,16.468 53.82,49.57 -0.04,33.109 -22.54,49.809 -54,49.758 M 2802.26,4.5 l -61.87,120.219 -65.02,-0.129 0.22,-120.32047 -28.99,-0.03906 -0.46,270.98053 103.81,0.191 c 47.24,0.09 80.39,-28.351 80.48,-75.281 0.09,-39.551 -23.78,-65.43 -58.81,-72.789 L 2836.15,4.55078 2802.26,4.5"
         style="fill:#3fc0d3;fill-opacity:1;fill-rule:nonzero;stroke:none"
         id="path58" /><path
         d="M 3047.6,275.91 3048.1,4.92969 H 3077 L 3076.59,275.961 3047.6,275.91"
         style="fill:#3fc0d3;fill-opacity:1;fill-rule:nonzero;stroke:none"
         id="path60" /><path
         d="m 3279.18,276.289 0.05,-25.887 78.38,0.129 0.41,-245.08959 28.99,0.03906 -0.41,245.10153 78.24,0.137 -0.05,25.89 -185.61,-0.32"
         style="fill:#3fc0d3;fill-opacity:1;fill-rule:nonzero;stroke:none"
         id="path62" /><path
         d="m 3789.68,277.191 -63.11,-129.921 -64.07,129.742 -31.13,-0.102 80.89,-158.91 0.23,-111.9375 28.9,0.04688 -0.14,111.99262 79.57,159.128 -31.14,-0.039"
         style="fill:#3fc0d3;fill-opacity:1;fill-rule:nonzero;stroke:none"
         id="path64" /><path
         d="m 4261.69,278.012 0.46,-270.98075 h 28.95 l -0.18,119.48075 118.71,0.23 -0.09,25.969 -118.67,-0.219 -0.18,99.637 139.29,0.23 -0.05,25.93 -168.24,-0.277"
         style="fill:#3fc0d3;fill-opacity:1;fill-rule:nonzero;stroke:none"
         id="path66" /><path
         d="m 4757.69,235.891 c -11.75,12.109 -28.98,19.328 -46.83,19.289 -17.96,-0.051 -35.03,-7.27 -46.72,-19.481 -17.2,-17.558 -19.12,-35.847 -18.98,-92.558 0.08,-56.6488 2.01,-74.9418 19.29,-92.4105 11.76,-12.168 28.81,-19.3516 46.82,-19.3516 17.85,0.0508 34.99,7.3203 46.74,19.5313 17.06,17.5117 18.94,35.8086 18.84,92.4688 -0.09,56.691 -2.05,74.992 -19.16,92.512 M 4780.46,33.7617 C 4762.22,15.4688 4738.35,5.53906 4711.32,5.5 4684.25,5.46094 4660.2,15.2891 4641.91,33.5313 4616.44,59 4616.39,85.7109 4616.3,143.102 c -0.09,57.48 -0.14,84.14 25.2,109.66 18.24,18.289 42.29,28.25 69.33,28.347 27.02,0.051 50.93,-9.879 69.27,-28.078 25.56,-25.472 25.61,-52.133 25.7,-109.621 0.13,-57.3787 0.18,-84.0389 -25.34,-109.6483"
         style="fill:#3fc0d3;fill-opacity:1;fill-rule:nonzero;stroke:none"
         id="path68" /><path
         d="M 5116.65,6.21094 C 5061.82,6.10938 5022.12,43.8008 5022.04,97.75 l -0.33,181.539 28.95,0.102 0.32,-179.309 c 0.05,-41.0625 25.98,-68.0429 65.62,-67.9414 39.51,0.0313 65.76,27.1094 65.71,68.1794 l -0.31,179.301 28.94,0.039 0.31,-181.5389 c 0.1,-54 -39.77,-91.82032 -94.6,-91.91016"
         style="fill:#3fc0d3;fill-opacity:1;fill-rule:nonzero;stroke:none"
         id="path70" /><path
         d="m 5608.69,280.32 0.37,-216.5192 -144.28,216.2812 -27.34,-0.031 0.49,-271.00022 28.95,0.05078 -0.36,217.30044 144.14,-217.06997 27.43,0.03906 -0.41,271.03891 -28.99,-0.09"
         style="fill:#3fc0d3;fill-opacity:1;fill-rule:nonzero;stroke:none"
         id="path72" /><path
         d="m 6009.19,235.359 c -14.13,14.454 -32.42,19.711 -53.36,19.711 l -58.95,-0.14 0.37,-219.2308 59,0.1016 c 20.93,0.0508 39.18,5.4414 53.27,19.9297 18.56,19.4414 17.69,59.8085 17.64,92.9295 -0.08,33.012 0.65,67.301 -17.97,86.699 m 20.4,-200.2067 C 6013.27,18.832 5989.39,10.0117 5961.18,9.91016 l -92.87,-0.14063 -0.46,271.04347 92.83,0.128 c 28.26,0.098 52.18,-8.679 68.49,-24.961 28.32,-28.07 26.9,-69.601 26.94,-107.281 0.1,-37.73 1.65,-85.2381 -26.52,-113.5467"
         style="fill:#3fc0d3;fill-opacity:1;fill-rule:nonzero;stroke:none"
         id="path74" /><path
         d="m 6337.07,281.59 -99.19,-271.1681 30.73,0.0469 21.63,61.3632 118.35,0.1875 21.77,-61.2773 30.86,0.0976 -99.73,270.8012 z m 12.66,-41.481 50.49,-142.9801 -101.29,-0.1367 z"
         style="fill:#3fc0d3;fill-opacity:1;fill-rule:nonzero;stroke:none"
         id="path76" /><path
         d="m 6605.48,282.051 0.05,-25.891 78.38,0.141 0.46,-245.1018 28.76,0.043 -0.41,245.0978 78.47,0.101 -0.04,25.93 -185.67,-0.32"
         style="fill:#3fc0d3;fill-opacity:1;fill-rule:nonzero;stroke:none"
         id="path78" /><path
         d="m 6993.67,282.742 0.5,-270.992 h 28.99 l -0.45,271.039 -29.04,-0.047"
         style="fill:#3fc0d3;fill-opacity:1;fill-rule:nonzero;stroke:none"
         id="path80" /><path
         d="m 7384.42,240.441 c -11.75,12.118 -29.03,19.289 -46.83,19.289 -17.97,-0.05 -35.03,-7.269 -46.74,-19.48 -17.18,-17.559 -18.97,-35.848 -18.88,-92.559 0.1,-56.6597 1.92,-74.9488 19.21,-92.4097 11.75,-12.1719 28.81,-19.3516 46.82,-19.3516 17.8,0.0508 35.03,7.3203 46.74,19.5312 17.05,17.5196 18.93,35.8086 18.84,92.4691 -0.09,56.699 -2.01,74.992 -19.16,92.511 m 22.77,-202.1285 c -18.24,-18.293 -42.12,-28.2227 -69.14,-28.2539 -27.03,-0.0469 -51.17,9.7812 -69.41,28.0234 -25.43,25.4688 -25.48,52.1289 -25.62,109.57 -0.09,57.477 -0.13,84.137 25.21,109.661 18.24,18.289 42.29,28.246 69.31,28.347 27.07,0.039 50.95,-9.879 69.29,-28.078 25.61,-25.473 25.66,-52.133 25.74,-109.613 0.09,-57.387 0.14,-84.0471 -25.38,-109.6565"
         style="fill:#3fc0d3;fill-opacity:1;fill-rule:nonzero;stroke:none"
         id="path82" /><path
         d="m 7823.54,284.191 0.36,-216.5816 -144.23,216.3516 -27.39,-0.102 0.51,-270.9801 28.98,0.0508 -0.41,217.2893 144.09,-217.0198 h 27.53 l -0.41,271.0428 -29.03,-0.051"
         style="fill:#3fc0d3;fill-opacity:1;fill-rule:nonzero;stroke:none"
         id="path84" /><path
         d="m 1535.78,0 c -26.75,-0.0390625 -51.08,9.78125 -69.42,28.0313 -25.42,25.5195 -25.47,52.1796 -25.56,109.5587 -0.14,57.48 -0.18,84.109 25.2,109.66 18.24,18.289 42.57,28.309 69.32,28.359 48.7,0.09 84.83,-29.589 94.11,-80.57 l -29.67,-0.047 c -7.37,33.098 -30.55,54.727 -64.44,54.68 -17.97,-0.031 -34.98,-6.942 -46.73,-19.113 -17.2,-17.508 -19.12,-36.168 -19.02,-92.918 0.08,-56.6996 2.1,-75.309 19.34,-92.8285 11.75,-12.1602 28.85,-18.9219 46.82,-18.8906 33.89,0.0469 57.76,21.7304 64.98,54.9297 l 28.95,0.0468 C 1620.97,29.8594 1584.07,0.0898438 1535.78,0"
         style="fill:#3fc0d3;fill-opacity:1;fill-rule:nonzero;stroke:none"
         id="path86" /></g></g></svg>
