<?xml version="1.0" encoding="utf-8"?>
<!-- Generator: Adobe Illustrator 14.0.0, SVG Export Plug-In . SVG Version: 6.00 Build 43363)  -->
<!DOCTYPE svg PUBLIC "-//W3C//DTD SVG 1.1//EN" "http://www.w3.org/Graphics/SVG/1.1/DTD/svg11.dtd">
<svg version="1.1" id="Logo" xmlns="http://www.w3.org/2000/svg" xmlns:xlink="http://www.w3.org/1999/xlink" x="0px" y="0px"
	 width="852px" height="712px" viewBox="0 0 852 712" enable-background="new 0 0 852 712" xml:space="preserve">
<g>
	<path fill-rule="evenodd" clip-rule="evenodd" fill="#FFFFFF" d="M537.707,202.308l-269.829-0.053v120.846l0.021,43.687
		c0.839,34.363,12.309,84.135,41.417,119.872c23.977,31.235,56.366,56.345,93.821,70.283c37.591-13.991,69.445-38.776,93.072-70.182
		l0.114,0.073c29.103-35.73,40.577-85.5,41.371-119.59l-0.027-44.117h0.04V202.308 M402.94,419.881l9.332,6.69l-9.386-6.71
		l134.627-96.733h0.075L402.94,419.881z"/>
	
		<path fill="none" stroke="#FFFFFF" stroke-width="0.62" stroke-linecap="round" stroke-linejoin="round" stroke-miterlimit="3.864" d="
		M537.707,202.308l-269.829-0.053v120.846l0.021,43.687c0.839,34.363,12.309,84.135,41.417,119.872
		c23.977,31.235,56.366,56.345,93.821,70.283c37.591-13.991,69.445-38.776,93.072-70.182l0.114,0.073
		c29.103-35.73,40.577-85.5,41.371-119.59l-0.027-44.117h0.04V202.308z M402.94,419.881l9.332,6.69l-9.386-6.71l134.627-96.733
		h0.075L402.94,419.881z"/>
	<path fill-rule="evenodd" clip-rule="evenodd" fill="#004FA3" d="M402.94,419.881l134.727-96.8l0.027,44.164
		c-0.794,34.09-12.269,83.86-41.371,119.59L402.94,419.881"/>
	<path fill-rule="evenodd" clip-rule="evenodd" fill="#004FA3" d="M402.886,419.861L267.878,322.79l0.021,43.999
		c0.839,34.363,12.309,84.135,41.417,119.872L402.886,419.861"/>
	<polyline fill-rule="evenodd" clip-rule="evenodd" fill="#CACBCD" points="402.886,419.861 267.878,323.101 268.413,322.254 
		536.99,321.935 537.565,323.087 402.886,419.861 	"/>
	<polyline fill-rule="evenodd" clip-rule="evenodd" fill="#EF3E33" points="537.707,323.128 537.707,202.308 267.878,202.255 
		267.878,323.101 537.707,323.128 	"/>
	<g>
		<path fill="#CACBCD" d="M38.693,257.148c13.362-8.026,30.688-3.701,38.708,9.666c8.026,13.363,3.701,30.704-9.653,38.737
			c-13.354,8.016-30.681,3.693-38.708-9.669C21.013,282.522,25.339,265.175,38.693,257.148"/>
		<path fill="#CACBCD" d="M19.706,327.844c12.323-7.415,28.321-3.423,35.724,8.908c7.41,12.337,3.417,28.343-8.914,35.758
			c-12.325,7.411-28.322,3.418-35.726-8.921C3.381,351.261,7.375,335.246,19.706,327.844"/>
		<path fill="#CACBCD" d="M15.252,398.195c11.3-6.792,25.97-3.13,32.762,8.176c6.786,11.309,3.125,25.983-8.183,32.769
			c-11.3,6.801-25.956,3.131-32.748-8.175C0.297,419.659,3.952,404.981,15.252,398.195"/>
	</g>
	<path fill="#CACBCD" d="M21.875,461.326c10.276-6.174,23.604-2.853,29.772,7.43c6.175,10.279,2.847,23.616-7.422,29.794
		c-10.278,6.175-23.604,2.854-29.773-7.431C8.276,480.842,11.604,467.496,21.875,461.326"/>
	<path fill="#CACBCD" d="M37.31,520.54c9.248-5.559,21.238-2.562,26.79,6.683c5.552,9.255,2.563,21.266-6.684,26.817
		c-9.247,5.558-21.237,2.57-26.79-6.683C25.061,538.104,28.063,526.099,37.31,520.54"/>
	<path fill-rule="evenodd" clip-rule="evenodd" fill="#CACBCD" d="M496.296,486.66l-93.41-66.799l-93.569,66.799
		c23.977,31.235,56.366,56.345,93.821,70.283C440.777,542.931,472.658,518.105,496.296,486.66"/>
	<path fill="#FFFFFF" d="M770.342,254.844c21.891,48.936,34.254,103.058,34.723,160.005l43.263-0.032l-0.036,4.792l-82.125-0.04
		C765.8,365.866,754.724,316.213,734.36,271L770.342,254.844"/>
	<g>
		<path fill="#CACBCD" d="M770.342,254.844c21.891,48.936,34.254,103.058,34.723,160.005l43.263-0.032l-0.036,4.792l-82.125-0.04
			C765.8,365.866,754.724,316.213,734.36,271L770.342,254.844z"/>
	</g>
	<path fill-rule="evenodd" clip-rule="evenodd" fill="#004FA3" d="M117.416,183.112c7.883,7.692,14.378,5.191,21.157-2.36
		c3.151-3.519,5.999-8.556,4.805-13.368c-0.99-4.114-4.046-7.788-7.565-10.947l-18.337-16.438c-3.348-2.997-4.798-2.428-7.951,1.091
		l-0.888,0.875l-1.729-1.553c2.244-2.156,4.434-4.353,6.494-6.663c2.069-2.305,4.028-4.718,5.864-7.119l1.735,1.546l-0.772,0.974
		c-3.26,3.635-3.721,5.201-0.374,8.197l21.279,19.076c3.172,2.848,4.928,5.87,6.147,10.087c0.814,2.805,0.401,7.436-0.765,10.135
		c-1.214,2.86-3.701,6.568-5.769,8.872c-4.705,5.247-11.144,10.806-18.765,8.977c-3.883-0.882-5.958-2.747-8.846-5.336
		L92.374,170.55c-4.502-4.035-4.853-4.454-10.1,0.826l-1.729-1.558c2.501-2.434,5.044-5.043,7.572-7.871
		c2.535-2.826,4.854-5.633,7.16-8.562l1.735,1.553c-4.679,5.796-4.223,6.101,0.277,10.135L117.416,183.112"/>
	<path fill-rule="evenodd" clip-rule="evenodd" fill="#004FA3" d="M200.178,120.678l-23.285-30.647
		c-2.72-3.58-4.251-3.288-8.013-0.427l-1.031,0.685l-1.409-1.85c2.609-1.689,5.171-3.438,7.632-5.309
		c2.467-1.877,4.84-3.877,7.104-5.891l1.411,1.851l-0.938,0.807c-3.888,2.963-4.634,4.406-1.923,7.978l27.133,35.705l1.913,2.149
		l-5.524,2.841l-57.295-13.573l22.864,30.098c2.719,3.573,4.311,3.233,8.203,0.285l1.031-0.691l1.404,1.857
		c-2.55,1.632-5.112,3.388-7.573,5.259c-2.468,1.871-4.84,3.872-7.165,5.938l-1.411-1.85l0.949-0.814
		c3.763-2.86,4.447-4.257,1.729-7.836l-23.57-31.02c-2.718-3.58-4.122-3.382-7.627-0.82l-0.86,0.65l-1.411-1.844
		c1.926-1.171,3.75-2.365,5.6-3.77c1.789-1.362,3.423-2.792,5.07-4.338L200.178,120.678"/>
	<path fill-rule="evenodd" clip-rule="evenodd" fill="#004FA3" d="M231.11,101.033c2.922,5.293,3.11,5.809,9.807,2.542l1.119,2.034
		c-3.361,1.599-6.622,3.22-9.943,5.063c-3.317,1.831-6.433,3.736-9.368,5.621l-1.127-2.034c6.326-3.931,5.994-4.372,3.063-9.66
		l-17.203-31.115c-2.922-5.28-3.117-5.796-9.807-2.535l-1.127-2.035c3.158-1.483,6.419-3.104,9.748-4.947
		c3.314-1.832,6.428-3.736,9.57-5.735l1.126,2.033c-6.326,3.938-5.993,4.38-3.07,9.667L231.11,101.033"/>
	<path fill-rule="evenodd" clip-rule="evenodd" fill="#004FA3" d="M236.818,55.946c-3.119-3.266-2.658-3.775-6.84-2.786
		l-1.403,0.468l-0.855-2.162c3.254-1.031,6.48-2.143,9.727-3.43c3.233-1.281,6.353-2.677,9.429-4.149l0.855,2.156
		c-6.968,2.596-5.999,3.79-4.92,5.038l5.903,6.907l22.486,24.004l0.149-27.209l-0.352-9.945c-0.157-4.603,0.82-8.656-7.708-4.949
		l-0.856-2.156c2.68-0.813,5.256-1.668,7.919-2.725c2.671-1.051,5.13-2.19,7.639-3.436l0.855,2.161
		c-4.726,1.533-3.812,4.258-3.857,7.938l-0.312,34.362l0.162,15.347l-3.606,1.424l-3.431-4.054l-5.119-5.552L236.818,55.946"/>
	<g>
		<path fill-rule="evenodd" clip-rule="evenodd" fill="#004FA3" d="M311.792,67.94c0.637,2.711,1.146,4.505,1.91,6.391
			c2.874-0.284,6.725-1.2,10.336-2.054c4.068-0.97,8.176-2.102,11.828-4.162c0.104-1.227,0.158-2.672-0.003-4.061l-0.307-4.304
			l2.481-0.59c0.079,1.647,0.128,3.87,0.699,6.276l1.482,6.257c-2.699,1.045-7.766,2.169-12.418,3.35
			c-4.508,0.827-9.056,1.755-13.652,2.841c-4.594,1.09-9.007,2.296-13.549,3.619l-0.544-2.264c3.735-1.037,6.073-3.268,4.874-8.318
			l-8.216-34.584c-1.396-5.884-1.445-6.427-8.772-5.084l-0.535-2.265c4.651-0.867,9.205-1.79,13.877-2.9
			c4.67-1.112,9.232-2.354,13.708-3.648c4.765-1.05,9.943-2.358,12.593-2.595c-0.238,2.683,0.035,5.17,0.533,7.599
			c0.369,1.586,0.457,2.914,0.829,4.5l-2.33,0.557c-0.78-2.928-1.73-4.935-2.815-7.138c-3.884-0.272-7.769,0.495-11.537,1.389
			c-3.308,0.78-6.847,1.62-9.252,2.596c0.148,1.945,0.489,3.702,1.111,6.345l3.348,14.086c16.465-3.756,17.734-3.098,16.053-10.5
			l2.487-0.59l4.134,17.408l-2.479,0.59c-2.028-8.514-2.449-7.938-19.333-3.288L311.792,67.94"/>
		<path fill-rule="evenodd" clip-rule="evenodd" fill="#004FA3" d="M357.357,24.514c-0.426-6.026-0.391-6.576-7.836-6.427
			l-0.162-2.31c4.339-0.088,8.832-0.251,13.387-0.583c4.563-0.325,9.023-0.807,13.491-1.363
			c10.622-1.309,15.984,4.128,16.444,10.622c0.61,8.42-6.586,13.986-13.983,15.991l19.183,21.604
			c1.343,1.377,3.003,1.729,4.563,1.845l0.17,2.318c-1.716-0.109-3.505-0.128-5.282-0.007c-1.781,0.122-3.47,0.401-5.234,0.767
			c-1.342-1.54-2.296-2.86-3.477-4.102l-20.085-22.315l0.226-1.18c2.404-0.014,4.791-0.264,7.082-0.821
			c5.348-1.314,9.683-5.822,9.266-11.53c-0.601-8.352-6.96-10.373-12.682-9.964c-2.697,0.195-5.606,0.792-7.646,1.558
			c-0.366,1.348-0.258,2.976-0.076,5.362l2.542,35.467c0.443,6.026,0.408,6.568,7.85,6.419l0.165,2.318
			c-3.728,0.033-7.363,0.143-11.145,0.413c-3.798,0.272-7.417,0.692-10.875,1.173l-0.167-2.318c7.394-0.921,7.279-1.458,6.839-7.484
			L357.357,24.514"/>
		<path fill-rule="evenodd" clip-rule="evenodd" fill="#004FA3" d="M444.507,28.024c0.216-2.936,0.372-4.941-0.312-6.242
			c-1.831-3.397-7.227-5.052-10.854-5.329c-6.332-0.481-12.07,3.51-12.579,10.155c-1.269,16.756,30.523,5.193,29.053,24.58
			c-1.004,13.205-13.302,18.642-24.818,17.767c-4.629-0.36-8.867-1.843-12.98-3.938c0.536-2.909,0.977-6.609,1.282-9.613
			l0.155-2.169l2.631,0.204l-0.28,3.626c-0.128,1.703-0.079,3.179,0.78,4.108c2.882,2.936,7.762,4.155,11.702,4.453
			c6.946,0.536,14.058-3.044,14.641-10.689c1.417-18.696-30.492-3.559-28.782-26.038c0.799-10.583,10.269-16.615,20.228-15.863
			c5.269,0.408,9.99,2.475,14.715,4.692c-0.325,1.219-0.724,2.432-0.899,3.66c-0.325,2.305-0.807,4.528-1.058,6.839L444.507,28.024"
			/>
	</g>
	<path fill-rule="evenodd" clip-rule="evenodd" fill="#004FA3" d="M476.188,65.281c-1.157,5.925-1.341,6.44,5.885,8.25l-0.438,2.277
		c-3.615-0.941-7.152-1.79-10.882-2.514c-3.721-0.732-7.319-1.282-10.784-1.715l0.446-2.284c7.363,1.042,7.396,0.495,8.556-5.431
		l6.827-34.89c1.159-5.932,1.334-6.448-5.893-8.251l0.456-2.284c3.375,0.901,6.912,1.749,10.642,2.475
		c3.721,0.733,7.322,1.281,11.017,1.769l-0.448,2.271c-7.368-1.043-7.396-0.496-8.556,5.43L476.188,65.281"/>
	<path fill-rule="evenodd" clip-rule="evenodd" fill="#004FA3" d="M523.627,43.521c0.855-2.82,1.636-5.171,2.145-7.451
		l-11.442-3.389c-1.574-0.435-2.521-0.515-3.309,1.356c-0.877,1.667-1.947,3.431-2.679,5.383l-2.203-0.726
		c0.454-1.395,0.903-2.725,1.289-4.142c0.777-2.595,1.553-5.192,2.243-7.985c6.906,2.536,13.85,4.996,21.048,7.396
		c7.124,2.36,14.167,4.528,21.36,6.677c-1.118,2.644-2.048,5.192-2.969,7.735c-0.543,1.375-0.977,2.706-1.444,4.102l-2.196-0.733
		c0.583-2.012,0.771-4.067,1.064-5.923c0.487-1.966-0.325-2.481-1.843-3.065l-11.342-4.168c-0.956,2.128-1.736,4.479-2.738,7.252
		L520.17,77.3c-1.896,5.735-2.134,6.223,4.795,8.935l-0.732,2.203c-3.457-1.391-6.861-2.679-10.468-3.879
		c-3.593-1.199-7.104-2.196-10.479-3.071l0.726-2.209c7.178,1.973,7.273,1.437,9.178-4.298L523.627,43.521"/>
	<path fill-rule="evenodd" clip-rule="evenodd" fill="#004FA3" d="M636.083,152.491c-11.586-10.047-7.092-24.912,1.795-35.148
		c8.323-9.592,19.09-12.662,29.266-3.83c10.881,9.442,9.389,21.685-0.667,33.263C657.137,157.542,646.412,160.328,636.083,152.491
		 M670.263,111.811c-13.418-11.958-29.964-9.91-40.321,2.027c-11.573,13.34-9.788,29.243,2.089,39.546
		c12.804,11.125,31.362,9.593,42.277-2.988C685.581,137.408,682.776,122.67,670.263,111.811z"/>
	<path fill-rule="evenodd" clip-rule="evenodd" fill="#004FA3" d="M699.046,154.571c4.62-3.897,5.081-4.182,0.596-10.12l1.773-1.504
		c2.869,3.769,5.743,7.422,8.827,11.097c3.098,3.674,6.257,7.193,9.429,10.589c3.094,3.79,6.59,7.822,7.979,10.086
		c-2.494,1.005-4.597,2.357-6.535,3.897c-1.247,1.044-2.4,1.716-3.655,2.759l-1.537-1.83c2.257-2.006,3.612-3.764,5.104-5.721
		c-1.512-3.593-3.932-6.712-6.428-9.674c-2.195-2.609-4.532-5.395-6.479-7.104c-1.159,0.671-2.38,1.505-4.101,2.949l-12.149,10.231
		c10.76,13.014,10.746,14.444,16.604,9.609l1.646,1.961l-13.686,11.522l-1.649-1.958c6.698-5.643,5.993-5.748-5.761-18.744
		l-12.439,10.474c-4.616,3.897-5.084,4.189-0.589,10.121l-1.775,1.492c-2.217-2.991-4.449-5.871-6.89-8.779
		c-2.452-2.903-4.914-5.581-7.327-8.102l1.769-1.498c5.09,5.444,5.458,5.029,10.082,1.146L699.046,154.571"/>
	<path fill-rule="evenodd" clip-rule="evenodd" fill="#004FA3" d="M154.415,638.402c0-4.031,0.108-6.94,0.447-9.517
		c5.044-0.224,9.964-0.679,14.894-0.679c19.258,0,33.811,9.086,33.811,32.701c0,20.502-9.625,36.384-38.183,35.616
		c-4.027-0.114-7.391-0.338-10.521-0.785c-0.447-2.909-0.447-6.271-0.447-9.518V638.402 M143.866,691.373
		c0,4.813-1.904,5.919-5.924,6.69v3.301c4.921-0.333,9.856-0.543,14.9-0.543c5.043,0,9.972,0.21,14.9,0.543
		c26.878,1.791,47.627-16.825,47.627-43.811c0-21.727-17.063-34.586-37.892-34.363c-7.16,0.338-14.325,0.545-21.721,0.545
		c-7.395,0-14.575-0.207-21.733-0.537v3.456c8.84,0.109,9.843,0.774,9.843,11.301V691.373z"/>
	<path fill-rule="evenodd" clip-rule="evenodd" fill="#004FA3" d="M249.792,675.578c-0.666,15.85,8.285,20.417,22.947,20.417
		c6.826,0,14.994-1.781,19.029-7.693c3.471-5.022,4.48-11.828,4.48-18.633v-35.495c0-6.476-2.014-7.478-8.846-7.478l-1.79-0.116
		v-3.367c4.48,0.338,8.955,0.5,13.449,0.5c4.48,0,8.956-0.162,13.32-0.5v3.367l-1.794,0.116c-7.046,0-9.174,1.002-9.174,7.478
		v41.181c0,6.134-1.571,10.941-4.94,16.29c-2.238,3.577-7.621,7.613-11.646,8.955c-4.25,1.471-10.629,2.366-15.11,2.366
		c-10.183,0-22.371-1.575-27.72-11.538c-2.778-5.031-2.778-9.045-2.778-14.624v-40.178c0-8.704,0.107-9.49-10.63-10.046v-3.367
		c5.029,0.338,10.289,0.5,15.747,0.5c5.458,0,10.718-0.162,16.093-0.5v3.367c-10.744,0.556-10.636,1.342-10.636,10.046V675.578"/>
	<path fill-rule="evenodd" clip-rule="evenodd" fill="#004FA3" d="M397.258,689.705v-55.527c0-6.479-2.02-7.481-8.84-7.481
		l-1.795-0.116v-3.367c4.479,0.338,8.955,0.562,13.444,0.562c4.479,0,8.96-0.224,13.321-0.562v3.367l-1.791,0.116
		c-7.051,0-9.173,1.002-9.173,7.481v64.692l0.332,4.156l-8.854-1.567l-54.045-65.598v54.517c0,6.471,2.122,7.48,9.17,7.48
		l1.797,0.11v3.382c-4.365-0.337-8.846-0.514-13.33-0.514c-4.487,0-8.958,0.177-13.434,0.514v-3.382l1.78-0.11
		c6.836,0,8.851-1.01,8.851-7.48v-56.2c0-6.479-1.791-7.481-8.06-7.598h-1.562v-3.367c3.241,0.338,6.375,0.5,9.728,0.5
		c3.254,0,6.393-0.162,9.647-0.5L397.258,689.705"/>
	<path fill-rule="evenodd" clip-rule="evenodd" fill="#004FA3" d="M447.867,638.402c0-4.031,0.115-6.94,0.448-9.517
		c5.037-0.224,9.964-0.679,14.895-0.679c19.257,0,33.818,9.086,33.818,32.701c0,20.502-9.633,36.384-38.185,35.616
		c-4.035-0.114-7.389-0.338-10.528-0.785c-0.448-2.909-0.448-6.271-0.448-9.518V638.402 M437.328,691.373
		c0,4.813-1.903,5.919-5.931,6.69v3.301c4.914-0.333,9.848-0.543,14.904-0.543c5.037,0,9.968,0.21,14.888,0.543
		c26.877,1.791,47.644-16.825,47.644-43.811c0-21.727-17.072-34.586-37.896-34.363c-7.173,0.338-14.338,0.545-21.727,0.545
		c-7.401,0-14.574-0.207-21.73-0.537v3.456c8.831,0.109,9.849,0.774,9.849,11.301V691.373z"/>
	<path fill-rule="evenodd" clip-rule="evenodd" fill="#004FA3" d="M544.499,686.004c0,4.027,0.118,6.712,0.564,9.617
		c4.129,0.558,9.828,0.558,15.199,0.558c6.032,0,12.181-0.225,17.968-1.896c0.551-1.676,1.105-3.689,1.315-5.703l0.996-6.147h3.688
		c-0.446,2.344-1.118,5.477-1.118,9.048v9.311c-4.106,0.561-11.563,0.445-18.492,0.561c-6.594-0.337-13.299-0.514-20.121-0.514
		c-6.783,0-13.372,0.177-20.2,0.514v-3.375c5.6-0.218,9.625-2.578,9.625-10.067v-51.282c0-8.704,0.109-9.49-10.627-10.046v-3.367
		c6.823,0.338,13.522,0.5,20.43,0.5c6.928,0,13.733-0.162,20.438-0.5c7.052,0.105,14.724,0,18.502,0.562
		c-1.228,3.709-1.682,7.279-1.791,10.847c0,2.343-0.333,4.241-0.333,6.59h-3.409c-0.114-4.361-0.785-7.48-1.565-10.941
		c-5.361-1.668-11.062-1.893-16.646-1.893c-4.917,0-10.17,0-13.857,0.563c-0.446,2.781-0.564,5.349-0.564,9.253v20.866
		c24.365,0.224,25.93,1.565,26.039-9.376h3.688v25.813h-3.688c0-12.636-0.772-11.965-26.039-11.068V686.004"/>
	<path fill-rule="evenodd" clip-rule="evenodd" fill="#004FA3" d="M621.812,686.004c0,4.027,0.11,6.712,0.549,9.617
		c4.143,0.558,9.836,0.558,15.207,0.558c6.033,0,12.18-0.225,17.971-1.896c0.548-1.676,1.097-3.689,1.32-5.703l0.991-6.147h3.687
		c-0.447,2.344-1.118,5.477-1.118,9.048v9.311c-4.108,0.561-11.565,0.445-18.493,0.561c-6.596-0.337-13.299-0.514-20.113-0.514
		c-6.797,0-13.382,0.177-20.2,0.514v-3.375c5.594-0.218,9.62-2.578,9.62-10.067v-51.282c0-8.704,0.107-9.49-10.629-10.046v-3.367
		c6.825,0.338,13.522,0.5,20.432,0.5c6.919,0,13.733-0.162,20.45-0.5c7.038,0.105,14.711,0,18.486,0.562
		c-1.225,3.709-1.674,7.279-1.791,10.847c0,2.343-0.33,4.241-0.33,6.59h-3.411c-0.108-4.361-0.778-7.48-1.559-10.941
		c-5.369-1.668-11.062-1.893-16.656-1.893c-4.913,0-10.169,0-13.863,0.563c-0.438,2.781-0.549,5.349-0.549,9.253v20.866
		c24.364,0.224,25.923,1.565,26.039-9.376h3.682v25.813h-3.682c0-12.636-0.785-11.965-26.039-11.068V686.004"/>
	<path fill-rule="evenodd" clip-rule="evenodd" fill="#FFF200" d="M403.087,299.997h-0.23c-52.479,0-80.614,12.271-80.614,12.271
		l-42.584-68.874c0,0,20.573-3.247,27.089,24.872c0.705-10.995,7.437-15.327,13.258-11.53c11.721,9.854,1.966,21.534,1.966,21.534
		s-1.286-10.565-7.646-5.801c-3.564,2.589-2.121,5.783-2.121,5.783s0.982,3.326,5.075,6.955c3.375,3.131,24.474,1.408,30.324-12.195
		c2.163-7.843,0.536-15.245-2.759-17.044c-3.295-1.795-5.491,0.952-5.885,1.636c-0.399,0.686-0.196,3.322-0.196,3.322
		s-3.283-1.811-2.665-5.51c0.123-0.748-2.062,0.566-2.497,0.676c-2.383,0.596-5.427-1.273-5.427-1.273s1.735-3.078,4.12-3.728
		c0.421-0.112,2.979-0.022,2.501-0.61c-2.339-2.936-0.352-6.116-0.352-6.116s1.112,2.4,1.782,2.811
		c0.684,0.404,3.938,1.738,5.946-1.434c2-3.18-0.923-5.687-1.607-6.081c-0.677-0.4-3.313-0.197-3.313-0.197s1.807-3.281,5.51-2.656
		c0.737,0.12-0.57-2.062-0.679-2.496c-0.596-2.386,1.018-5.362,1.018-5.362s2.976,1.878,3.62,4.252
		c0.114,0.426,0.033,2.98,0.623,2.506c2.931-2.344,6.108-0.36,6.108-0.36s-2.405,1.113-2.805,1.79
		c-0.402,0.671-1.743,4.291,1.55,6.088c3.303,1.803,5.493-0.951,5.893-1.635c0.394-0.677,0.188-3.314,0.188-3.314
		s3.29,1.803,2.671,5.503c-0.128,0.754,2.062-0.566,2.483-0.668c2.392-0.596,5.443,1.266,5.443,1.266s-1.757,3.18-4.136,3.815
		c-0.429,0.125-2.983,0.027-2.508,0.62c2.338,2.928,0.35,6.12,0.35,6.12s-1.102-2.414-1.782-2.812
		c-0.67-0.407-3.931-1.741-5.931,1.436c-2.006,3.172-0.413,9.858,6.073,16.311c10.639,8.222,31.687,2.195,32.811-4.034
		c1.649-5.225,0.774-8.574,0.774-8.574s-0.415-3.483-4.799-3.871c-7.905-0.82-3.566,8.907-3.566,8.907s-14.372-4.989-9.403-19.476
		c3.044-6.25,11.044-6.007,17.305,3.063c-8.88-27.459,8.955-35.377,8.955-35.377h0.013c0,0,17.844,7.918,8.963,35.377
		c6.265-9.069,14.256-9.312,17.305-3.063c4.97,14.486-9.408,19.476-9.408,19.476s4.339-9.728-3.566-8.907
		c-4.391,0.388-4.792,3.871-4.792,3.871s-0.867,3.349,0.765,8.574c1.127,6.229,22.223,12.256,32.866,4.034
		c6.487-6.453,8.038-13.139,6.034-16.311c-2.011-3.177-5.27-1.843-5.94-1.436c-0.677,0.398-1.79,2.812-1.79,2.812
		s-1.984-3.192,0.354-6.12c0.476-0.593-2.075-0.495-2.495-0.62c-2.387-0.635-4.142-3.815-4.142-3.815s3.053-1.862,5.436-1.266
		c0.422,0.102,2.618,1.422,2.488,0.668c-0.623-3.7,2.667-5.503,2.667-5.503s-0.206,2.637,0.188,3.314
		c0.4,0.684,2.59,3.438,5.89,1.635c3.295-1.797,1.961-5.417,1.554-6.088c-0.4-0.677-2.801-1.79-2.801-1.79s3.181-1.984,6.117,0.36
		c0.588,0.474,0.495-2.08,0.614-2.506c0.639-2.374,3.615-4.252,3.615-4.252s1.618,2.976,1.022,5.362
		c-0.109,0.435-1.422,2.616-0.678,2.496c3.694-0.625,5.518,2.656,5.518,2.656s-2.644-0.203-3.327,0.197
		c-0.679,0.394-3.602,2.901-1.594,6.081c1.998,3.172,5.261,1.838,5.933,1.434c0.678-0.411,1.787-2.811,1.787-2.811
		s1.986,3.18-0.352,6.116c-0.474,0.587,2.075,0.498,2.51,0.61c2.37,0.65,4.115,3.728,4.115,3.728s-3.053,1.87-5.439,1.273
		c-0.418-0.109-2.616-1.423-2.479-0.676c0.618,3.699-2.672,5.51-2.672,5.51s0.204-2.636-0.19-3.322
		c-0.398-0.684-2.596-3.431-5.89-1.636c-3.295,1.799-4.921,9.201-2.758,17.044c5.842,13.604,26.944,15.326,30.318,12.195
		c4.098-3.629,5.072-6.955,5.072-6.955s1.443-3.194-2.114-5.783c-6.367-4.764-7.652,5.801-7.652,5.801s-9.75-11.68,1.966-21.534
		c5.822-3.797,12.562,0.535,13.259,11.53c6.529-28.119,27.093-24.872,27.093-24.872l-42.59,68.874
		C483.81,312.268,455.576,299.997,403.087,299.997"/>
	<path fill-rule="evenodd" clip-rule="evenodd" fill="#EF3E33" d="M356.625,290.068c-0.534-3.051,3.396-6.293,8.801-7.24
		c5.4-0.952,10.208,0.751,10.75,3.795c0.536,3.051-3.409,6.284-8.807,7.231C361.968,294.805,357.155,293.117,356.625,290.068"/>
	<path fill-rule="evenodd" clip-rule="evenodd" fill="#EF3E33" d="M449.57,290.159c0.542-3.04-3.404-6.283-8.798-7.238
		c-5.405-0.948-10.218,0.753-10.753,3.799c-0.528,3.042,3.408,6.283,8.806,7.231C444.229,294.906,449.04,293.205,449.57,290.159"/>
	<polyline fill-rule="evenodd" clip-rule="evenodd" fill="#004FA3" points="464.021,292.854 476.109,290.819 484.38,299.721 
		472.292,301.752 464.021,292.854 	"/>
	<polyline fill-rule="evenodd" clip-rule="evenodd" fill="#004FA3" points="342.295,293.104 330.208,291.069 321.937,299.978 
		334.024,302.011 342.295,293.104 	"/>
	<rect x="391.361" y="280.442" fill="#004FA3" width="23.412" height="11.447"/>
	<path fill-rule="evenodd" clip-rule="evenodd" fill="#FFF200" d="M317.036,285.497c1.439-0.921,1.86-2.845,0.938-4.292
		c-0.93-1.442-2.847-1.856-4.292-0.934l-9.253,5.932c-1.437,0.921-1.858,2.848-0.938,4.285c0.924,1.451,2.848,1.861,4.292,0.942
		L317.036,285.497"/>
	<path fill-rule="evenodd" clip-rule="evenodd" fill="#FFF200" d="M489.031,285.837c-1.447-0.922-1.86-2.842-0.938-4.285
		c0.921-1.443,2.848-1.863,4.29-0.94l9.25,5.929c1.443,0.923,1.862,2.847,0.939,4.29c-0.928,1.444-2.845,1.86-4.288,0.939
		L489.031,285.837"/>
	<path fill-rule="evenodd" clip-rule="evenodd" fill="#FFF200" d="M411.921,268.056c1.715,0,3.106-1.395,3.106-3.111
		c0-1.715-1.391-3.104-3.106-3.104l-17.673-0.007c-1.714,0-3.109,1.396-3.109,3.111c0,1.716,1.395,3.106,3.104,3.106
		L411.921,268.056"/>
	<path fill-rule="evenodd" clip-rule="evenodd" fill="#004FA3" d="M593.601,71.313c4.413-2.941,8.507-4.528,0.047-8.404l1.044-2.082
		c2.388,1.451,4.766,2.773,7.333,4.054c2.562,1.281,5.044,2.393,7.647,3.429l-1.036,2.082c-4.306-2.495-6.91-0.23-12.44,3.221
		c0,0-14.912,8.683-18.065,11.211c-1.735,1.383-2.739,3.043-3.564,4.704l-4.623,9.259c-2.694,5.391-3.006,5.838,3.47,9.512
		l-1.032,2.074c-3.231-1.871-6.431-3.606-9.821-5.301c-3.389-1.689-6.695-3.206-9.93-4.556l1.044-2.073
		c6.826,2.968,6.994,2.452,9.688-2.942l5.077-10.162c0.276-0.55,0.688-1.384,0.731-2.313l-1.07-18.669l-0.701-9.605
		c-0.672-4.678,0.225-4.21-3.308-6.67l-1.273-0.726l1.03-2.08c2.95,1.736,5.944,3.354,9.057,4.915
		c3.124,1.558,6.222,2.975,9.376,4.284l-1.038,2.087c-6.574-3.464-6.657-1.749-6.859-0.128l0.155,3.152l1.056,22.505l12.76-7.708
		L593.601,71.313"/>
</g>
</svg>
