<?xml version="1.0" encoding="UTF-8" standalone="no"?>
<!-- Created with Inkscape (http://www.inkscape.org/) -->

<svg
   xmlns:dc="http://purl.org/dc/elements/1.1/"
   xmlns:cc="http://creativecommons.org/ns#"
   xmlns:rdf="http://www.w3.org/1999/02/22-rdf-syntax-ns#"
   xmlns:svg="http://www.w3.org/2000/svg"
   xmlns="http://www.w3.org/2000/svg"
   xmlns:xlink="http://www.w3.org/1999/xlink"
   xmlns:sodipodi="http://sodipodi.sourceforge.net/DTD/sodipodi-0.dtd"
   xmlns:inkscape="http://www.inkscape.org/namespaces/inkscape"
   width="512"
   height="512"
   viewBox="0 0 135.46666 135.46667"
   version="1.1"
   id="svg4951"
   inkscape:version="0.92.1 r15371"
   sodipodi:docname="germinate-square.svg">
  <sodipodi:namedview
     id="base"
     pagecolor="#ffffff"
     bordercolor="#666666"
     borderopacity="1.0"
     inkscape:pageopacity="0.0"
     inkscape:pageshadow="2"
     inkscape:zoom="0.5"
     inkscape:cx="-543.40764"
     inkscape:cy="270.81465"
     inkscape:document-units="mm"
     inkscape:current-layer="layer1"
     showgrid="false"
     units="px"
     inkscape:window-width="1920"
     inkscape:window-height="1017"
     inkscape:window-x="1912"
     inkscape:window-y="-8"
     inkscape:window-maximized="1">
    <inkscape:grid
       id="grid5751"
       type="xygrid" />
  </sodipodi:namedview>
  <defs
     id="defs4945">
    <linearGradient
       inkscape:collect="always"
       id="linearGradient8354">
      <stop
         style="stop-color:#000000;stop-opacity:0.48397436"
         offset="0"
         id="stop8350" />
      <stop
         style="stop-color:#000000;stop-opacity:0"
         offset="1"
         id="stop8352" />
    </linearGradient>
    <linearGradient
       inkscape:collect="always"
       xlink:href="#linearGradient8354"
       id="linearGradient8356"
       x1="-155.67912"
       y1="277.19394"
       x2="-107.38889"
       y2="328.0567"
       gradientUnits="userSpaceOnUse"
       gradientTransform="matrix(1.7066667,0,0,1.7066667,309.71907,-271.18523)" />
  </defs>
  <metadata
     id="metadata4948">
    <rdf:RDF>
      <cc:Work
         rdf:about="">
        <dc:format>image/svg+xml</dc:format>
        <dc:type
           rdf:resource="http://purl.org/dc/dcmitype/StillImage" />
        <dc:title />
      </cc:Work>
    </rdf:RDF>
  </metadata>
  <g
     transform="translate(0,-161.53332)"
     id="layer1"
     inkscape:groupmode="layer"
     inkscape:label="Layer 1">
    <circle
       r="67.733337"
       cy="229.26665"
       cx="67.733337"
       id="path6239"
       style="opacity:1;fill:#e6e6e6;fill-opacity:1;stroke:none;stroke-width:6.1052413;stroke-linecap:round;stroke-linejoin:round;stroke-miterlimit:4;stroke-dasharray:none;stroke-opacity:1;paint-order:fill markers stroke"
       inkscape:export-xdpi="163.84"
       inkscape:export-ydpi="163.84" />
    <path
       inkscape:connector-curvature="0"
       style="opacity:0.48200001;fill:url(#linearGradient8356);fill-opacity:1;stroke:none;stroke-width:8.62176514;stroke-linecap:round;stroke-linejoin:bevel;stroke-miterlimit:4;stroke-dasharray:none;stroke-opacity:1;paint-order:normal"
       d="m 36.124026,188.20557 -7.902222,13.6869 v 9e-4 c -0.06127,0.10616 -7.902222,13.6869 -7.902222,13.6869 v 9e-4 c -0.06127,0.10616 -7.902223,13.68602 -7.902223,13.68602 v 9e-4 c 0.06127,0.10615 7.902223,13.68601 7.902223,13.68601 v 9.1e-4 c 0.06127,0.10615 7.902222,13.68601 7.902222,13.68601 v 9.1e-4 c 0.06127,0.10615 7.902222,13.68601 7.902222,13.68601 h 9.03e-4 0.07497 c 0.0036,0.005 0.10407,0.17992 0.10407,0.17992 h 9.03e-4 0.07585 c 0.0036,0.005 0.10407,0.18079 0.10407,0.18079 h 9.04e-4 0.07497 c 0.0036,0.005 0.104065,0.17992 0.104065,0.17992 h 9.03e-4 0.07585 c 0.0036,0.005 0.104066,0.1808 0.104066,0.1808 h 0.07585 c 0.0036,0.005 0.10407,0.17992 0.10407,0.17992 h 9.03e-4 0.07496 c 0.0036,0.005 0.10407,0.17992 0.10407,0.17992 h 9.04e-4 0.07585 c 0.0036,0.005 0.10407,0.18079 0.10407,0.18079 h 9.03e-4 0.07497 c 0.0036,0.005 0.10407,0.17992 0.10407,0.17992 h 9.03e-4 0.07585 c 0.0036,0.005 0.10407,0.1808 0.10407,0.1808 h 0.07585 c 0.0036,0.005 0.10407,0.17991 0.10407,0.17991 h 9.03e-4 0.07496 c 0.0036,0.005 0.10407,0.17992 0.10407,0.17992 h 9.03e-4 0.07585 c 0.0036,0.005 0.104066,0.1808 0.104066,0.1808 h 9.03e-4 0.07496 c 0.0036,0.005 0.10407,0.17992 0.10407,0.17992 h 9.04e-4 0.07496 c 0.0036,0.005 0.10407,0.17991 0.10407,0.17991 h 9.03e-4 0.07585 c 0.0036,0.005 0.10407,0.1808 0.10407,0.1808 h 9.03e-4 0.07497 c 0.0036,0.005 0.10407,0.17992 0.10407,0.17992 h 9.03e-4 0.07585 c 0.0036,0.005 0.10407,0.1808 0.10407,0.1808 h 0.07585 c 0.0036,0.005 0.10407,0.17991 0.10407,0.17991 h 9.03e-4 0.07496 c 0.0036,0.005 0.10407,0.17992 0.10407,0.17992 h 9.03e-4 0.07585 c 0.0036,0.005 0.104066,0.1808 0.104066,0.1808 h 9.03e-4 0.07496 c 0.0036,0.005 0.10407,0.17992 0.10407,0.17992 h 9.04e-4 0.07585 c 0.0036,0.005 0.10407,0.18079 0.10407,0.18079 h 0.07585 c 0.0036,0.005 0.10407,0.17992 0.10407,0.17992 h 9.03e-4 0.07497 c 0.0036,0.005 0.10407,0.17992 0.10407,0.17992 h 9.03e-4 0.07585 c 0.0036,0.005 0.10407,0.18079 0.10407,0.18079 h 9.04e-4 0.07497 c 0.0036,0.005 0.10407,0.17992 0.10407,0.17992 h 9.03e-4 0.07585 c 0.0036,0.005 0.10407,0.1808 0.10407,0.1808 h 0.07584 c 0.0036,0.005 0.10407,0.17992 0.10407,0.17992 h 9.03e-4 0.07496 c 0.0036,0.005 0.10407,0.17992 0.10407,0.17992 h 9.03e-4 0.07585 c 0.0036,0.005 0.10407,0.18079 0.10407,0.18079 h 9.03e-4 0.07497 c 0.0036,0.005 0.10407,0.17992 0.10407,0.17992 h 9.03e-4 0.07585 c 0.0036,0.005 0.10407,0.1808 0.10407,0.1808 h 0.07585 c 0.0036,0.005 0.10407,0.17991 0.10407,0.17991 h 9.03e-4 0.07497 c 0.0036,0.005 0.104066,0.17992 0.104066,0.17992 h 9.03e-4 0.07496 c 0.0036,0.005 0.10495,0.1808 0.10495,0.1808 h 0.07497 c 0.0036,0.005 0.10407,0.17992 0.10407,0.17992 h 9.03e-4 0.07497 c 0.0036,0.005 0.10407,0.17992 0.10407,0.17992 h 9.03e-4 0.07585 c 0.0036,0.005 0.10407,0.18079 0.10407,0.18079 h 9.03e-4 0.07497 c 0.0036,0.005 0.104066,0.17992 0.10407,0.17992 h 9.03e-4 0.07585 c 0.0036,0.005 0.10407,0.1808 0.10407,0.1808 h 0.07584 c 0.0036,0.005 0.10407,0.17991 0.10407,0.17991 h 9.03e-4 0.07496 c 0.0036,0.005 0.10407,0.17992 0.10407,0.17992 h 9.03e-4 0.07585 c 0.0036,0.005 0.10407,0.1808 0.10407,0.1808 h 9.03e-4 0.07497 c 0.0036,0.005 0.10407,0.17992 0.10407,0.17992 h 9.03e-4 0.07585 c 0.0036,0.005 0.10407,0.1808 0.10407,0.1808 h 0.07585 c 0.0036,0.005 0.10407,0.17991 0.10407,0.17991 h 9.03e-4 0.07497 c 0.0036,0.005 0.104066,0.17992 0.104066,0.17992 h 9.03e-4 0.07585 c 0.0036,0.005 0.104065,0.1808 0.104065,0.1808 h 9.03e-4 0.07496 c 0.0036,0.005 0.10407,0.17991 0.10407,0.17991 h 9.03e-4 0.07584 c 0.0036,0.005 0.10407,0.1808 0.10407,0.1808 h 0.07585 c 0.0036,0.005 0.10407,0.17992 0.10407,0.17992 h 9.03e-4 0.07497 c 0.0036,0.005 0.10407,0.17992 0.10407,0.17992 h 9.03e-4 0.07585 c 0.0036,0.005 0.10407,0.18079 0.10407,0.18079 h 0.07585 c 0.0036,0.005 0.10407,0.17992 0.10407,0.17992 h 9.04e-4 0.07585 c 0.0036,0.005 0.10407,0.1808 0.10407,0.1808 h 0.07585 c 0.0036,0.005 0.104066,0.17991 0.104066,0.17991 h 9.03e-4 0.07496 c 0.0036,0.005 0.10407,0.17992 0.10407,0.17992 h 9.03e-4 0.07584 c 0.0036,0.005 0.10407,0.1808 0.10407,0.1808 h 0.07585 c 0.0036,0.005 0.10407,0.17992 0.10407,0.17992 h 9.03e-4 0.07497 c 0.0036,0.005 0.10407,0.17992 0.10407,0.17992 h 9.03e-4 0.07585 c 0.0036,0.005 0.10407,0.18079 0.10407,0.18079 h 9.03e-4 0.07497 c 0.0036,0.005 0.10407,0.17992 0.10407,0.17992 h 9.03e-4 0.07585 c 0.0036,0.005 0.10407,0.1808 0.10407,0.1808 h 0.07585 c 0.0036,0.005 0.104066,0.17991 0.104066,0.17991 h 9.03e-4 0.07496 c 0.0036,0.005 0.10407,0.17992 0.10407,0.17992 h 9.04e-4 0.07585 c 0.0036,0.005 0.10407,0.1808 0.10407,0.1808 h 9.03e-4 0.07497 c 0.0036,0.005 0.10407,0.17992 0.10407,0.17992 h 9.03e-4 0.07585 c 0.0036,0.005 0.10407,0.1808 0.10407,0.1808 h 0.07585 c 0.0036,0.005 0.10407,0.17991 0.10407,0.17991 h 9.04e-4 0.07497 c 0.0036,0.005 0.10407,0.17992 0.10407,0.17992 h 9.03e-4 0.07585 c 0.0036,0.005 0.10407,0.1808 0.10407,0.1808 h 0.07584 c 0.0036,0.005 0.10407,0.17991 0.10407,0.17991 h 9.03e-4 0.07584 c 0.0036,0.005 0.10407,0.1808 0.10407,0.1808 h 0.07585 l 0.10407,0.17992 h 9.03e-4 0.07497 c 0.0036,0.005 0.10407,0.17992 0.10407,0.17992 h 9.03e-4 0.07585 c 0.0036,0.005 0.10407,0.1808 0.10407,0.1808 h 0.07585 c 0.0036,0.005 0.10407,0.17991 0.10407,0.17991 h 9.03e-4 0.07585 c 0.0036,0.005 0.10407,0.1808 0.10407,0.1808 h 0.07585 c 0.0036,0.005 0.104065,0.17992 0.104065,0.17992 h 9.04e-4 0.07496 c 0.0036,0.005 0.10407,0.17991 0.10407,0.17991 h 9.03e-4 0.07584 c 0.0036,0.005 0.10407,0.1808 0.10407,0.1808 h 0.07585 c 0.0036,0.005 0.10407,0.17992 0.10407,0.17992 h 9.04e-4 0.07497 c 0.0036,0.005 0.10407,0.17992 0.10407,0.17992 h 9.03e-4 0.07585 c 0.0036,0.005 0.10407,0.18079 0.10407,0.18079 h 9.03e-4 0.07497 c 0.0036,0.005 0.10407,0.17992 0.10407,0.17992 h 9.03e-4 0.07585 c 0.0036,0.005 0.10407,0.1808 0.10407,0.1808 h 0.07585 c 0.0036,0.005 0.104065,0.17991 0.104065,0.17991 h 9.03e-4 0.07496 c 0.0036,0.005 0.10407,0.17992 0.10407,0.17992 h 9.03e-4 0.07584 c 0.0036,0.005 0.10407,0.1808 0.10407,0.1808 h 9.03e-4 0.07496 c 0.0036,0.005 0.10407,0.17992 0.10407,0.17992 h 9.04e-4 0.07585 c 0.0036,0.005 0.10407,0.1808 0.10407,0.1808 h 0.07585 c 0.0036,0.005 0.10407,0.17991 0.10407,0.17991 h 9.03e-4 0.07497 c 0.0036,0.005 0.10407,0.17992 0.10407,0.17992 h 9.03e-4 0.07585 c 0.0036,0.005 0.10407,0.1808 0.10407,0.1808 h 0.07585 c 0.0036,0.005 0.104066,0.17991 0.104066,0.17991 h 9.03e-4 0.07585 c 0.0036,0.005 0.104065,0.1808 0.104065,0.1808 h 0.07585 c 0.0036,0.005 0.10407,0.17992 0.10407,0.17992 h 9.03e-4 0.07497 c 0.0036,0.005 0.10407,0.17992 0.10407,0.17992 h 9.03e-4 0.07585 c 0.0036,0.005 0.10407,0.1808 0.10407,0.1808 h 0.07585 c 0.0036,0.005 0.10407,0.17991 0.10407,0.17991 h 9.03e-4 0.07585 c 0.0036,0.005 0.10407,0.1808 0.10407,0.1808 h 0.07585 c 0.0036,0.005 0.10407,0.17992 0.10407,0.17992 h 9.03e-4 0.07496 c 0.0036,0.005 0.10407,0.17991 0.10407,0.17991 h 9.03e-4 0.07584 c 0.0036,0.005 0.10407,0.1808 0.10407,0.1808 h 0.07497 c 0.0036,0.005 0.104951,0.17992 0.104951,0.17992 h 9.03e-4 0.07409 c 0.0036,0.005 0.10495,0.17992 0.10495,0.17992 h 0.07585 c 0.0036,0.005 0.10407,0.1808 0.10407,0.1808 h 9.03e-4 0.07497 c 0.0036,0.005 0.104066,0.17991 0.104066,0.17991 h 9.03e-4 0.07585 c 0.0036,0.005 0.104065,0.1808 0.104065,0.1808 h 0.07585 c 0.0036,0.005 0.10407,0.17992 0.10407,0.17992 h 9.03e-4 0.07497 c 0.0036,0.005 0.10407,0.17991 0.10407,0.17991 h 9.03e-4 0.07585 c 0.0036,0.005 0.10407,0.1808 0.10407,0.1808 h 0.07585 c 0.0036,0.005 0.10407,0.17992 0.10407,0.17992 h 9.03e-4 0.07585 c 0.0036,0.005 0.10407,0.1808 0.10407,0.1808 h 0.07585 c 0.0036,0.005 0.10407,0.17991 0.10407,0.17991 h 9.03e-4 0.07496 c 0.0036,0.005 0.10407,0.17992 0.10407,0.17992 h 9.03e-4 0.07584 c 0.0036,0.005 0.10407,0.1808 0.10407,0.1808 h 0.07585 c 0.0036,0.005 0.10407,0.17991 0.10407,0.17991 h 9.03e-4 0.07585 c 0.0036,0.005 0.10407,0.1808 0.10407,0.1808 h 0.07585 c 0.0036,0.005 0.10407,0.17992 0.10407,0.17992 h 9.04e-4 0.07497 c 0.0036,0.005 0.10407,0.17992 0.10407,0.17992 h 9.03e-4 0.07585 c 0.0036,0.005 0.10407,0.1808 0.10407,0.1808 h 0.07585 c 0.0036,0.005 0.10407,0.17991 0.104065,0.17991 h 9.03e-4 0.07585 c 0.0036,0.005 0.10407,0.1808 0.10407,0.1808 h 0.07584 c 0.0036,0.005 0.10407,0.17992 0.10407,0.17992 h 9.03e-4 0.07496 c 0.0036,0.005 0.10407,0.17991 0.10407,0.17991 h 9.03e-4 0.07585 c 0.0036,0.005 0.10407,0.1808 0.10407,0.1808 h 0.07585 c 0.0036,0.005 0.10407,0.17992 0.10407,0.17992 h 9.03e-4 0.07497 c 0.0036,0.005 0.10407,0.17992 0.10407,0.17992 h 9.03e-4 0.07585 c 0.0036,0.005 0.10407,0.1808 0.10407,0.1808 h 0.07585 c 0.0036,0.005 0.104065,0.17991 0.104065,0.17991 h 9.03e-4 0.07585 c 0.0036,0.005 0.10407,0.1808 0.10407,0.1808 h 0.07584 c 0.0036,0.005 0.10407,0.17992 0.10407,0.17992 h 9.03e-4 0.07496 c 0.0036,0.005 0.10407,0.17991 0.10407,0.17991 h 9.04e-4 0.07585 c 0.0036,0.005 0.10407,0.1808 0.10407,0.1808 h 0.07585 c 0.0036,0.005 0.10407,0.17992 0.10407,0.17992 h 9.03e-4 0.07585 c 0.0036,0.005 0.10407,0.1808 0.10407,0.1808 h 0.07585 c 0.0036,0.005 0.10407,0.17992 0.10407,0.17992 h 9.03e-4 0.07497 c 0.0036,0.005 0.104066,0.17991 0.104066,0.17991 h 9.03e-4 0.07496 c 0.0036,0.005 0.10495,0.1808 0.10495,0.1808 h 0.07497 c 0.0036,0.005 0.10407,0.17992 0.10407,0.17992 h 9.03e-4 0.07585 c 0.0036,0.005 0.10407,0.1808 0.10407,0.1808 h 0.07585 c 0.0036,0.005 0.10407,0.17991 0.10407,0.17991 h 9.03e-4 0.07497 c 0.0036,0.005 0.104066,0.17992 0.104066,0.17992 h 9.03e-4 0.07585 c 0.0036,0.005 0.104065,0.1808 0.10407,0.1808 h 0.07584 c 0.0036,0.005 0.10407,0.17992 0.10407,0.17992 h 9.03e-4 0.07584 c 0.0018,0.003 0.02849,0.049 0.05556,0.0961 a 67.733334,67.733334 0 0 0 5.16114,0.25752 67.733334,67.733334 0 0 0 67.733332,-67.73333 67.733334,67.733334 0 0 0 -0.20726,-5.10293 c -0.024,-0.0415 -0.0494,-0.0856 -0.0494,-0.0856 h -0.0767 c -0.005,-0.009 -0.10407,-0.1808 -0.10407,-0.1808 h -0.0758 c -0.005,-0.007 -0.10407,-0.17991 -0.10407,-0.17991 h -0.0767 c -0.005,-0.007 -0.10407,-0.17992 -0.10407,-0.17992 h -0.0759 c -0.005,-0.007 -0.10407,-0.1808 -0.10407,-0.1808 h -0.0759 c -0.005,-0.007 -0.10406,-0.17992 -0.10406,-0.17992 h -0.0767 c -0.005,-0.007 -0.10407,-0.17991 -0.10407,-0.17991 h -0.0758 c -0.005,-0.007 -0.10407,-0.1808 -0.10407,-0.1808 h -0.0767 c -0.005,-0.007 -0.10407,-0.17992 -0.10407,-0.17992 h -0.0758 c -0.005,-0.007 -0.10407,-0.1808 -0.10407,-0.1808 h -0.0758 c -0.005,-0.007 -0.10407,-0.17991 -0.10407,-0.17991 h -0.0767 c -0.005,-0.007 -0.10407,-0.17992 -0.10407,-0.17992 h -0.0759 c -0.005,-0.007 -0.10407,-0.1808 -0.10407,-0.1808 h -0.0767 c -0.004,-0.007 -0.10407,-0.17992 -0.10407,-0.17992 h -0.0759 c -0.004,-0.007 -0.10406,-0.1808 -0.10406,-0.1808 h -0.0759 c -0.004,-0.007 -0.10407,-0.17991 -0.10407,-0.17991 h -0.0767 c -0.004,-0.007 -0.10407,-0.17992 -0.10407,-0.17992 h -0.0758 c -0.004,-0.007 -0.10407,-0.1808 -0.10407,-0.1808 h -0.0759 c -0.004,-0.007 -0.10407,-0.17991 -0.10407,-0.17991 h -0.0767 c -0.004,-0.007 -0.10407,-0.1808 -0.10407,-0.1808 h -0.0759 c -0.004,-0.007 -0.10407,-0.17992 -0.10407,-0.17992 h -0.0776 c -0.004,-0.007 -0.10407,-0.17992 -0.10407,-0.17992 h -0.0759 c -0.004,-0.007 -0.10407,-0.1808 -0.10407,-0.1808 h -0.0758 c -0.004,-0.007 -0.10407,-0.17991 -0.10407,-0.17991 h -0.0767 c -0.004,-0.007 -0.10407,-0.1808 -0.10407,-0.1808 h -0.0758 c -0.004,-0.007 -0.10407,-0.17991 -0.10407,-0.17991 h -0.0767 c -0.004,-0.007 -0.10407,-0.17992 -0.10407,-0.17992 h -0.0759 c -0.004,-0.007 -0.10407,-0.1808 -0.10407,-0.1808 h -0.0759 c -0.004,-0.007 -0.10407,-0.17992 -0.10407,-0.17992 h -0.0767 c -0.004,-0.007 -0.10407,-0.17991 -0.10407,-0.17991 h -0.0758 c -0.004,-0.007 -0.10407,-0.1808 -0.10407,-0.1808 h -0.0767 c -0.004,-0.007 -0.10407,-0.17992 -0.10407,-0.17992 h -0.0759 c -0.004,-0.007 -0.10407,-0.1808 -0.10407,-0.1808 h -0.0758 c -0.004,-0.007 -0.10407,-0.17991 -0.10407,-0.17991 h -0.0767 c -0.004,-0.007 -0.10407,-0.17992 -0.10407,-0.17992 h -0.0759 c -0.004,-0.007 -0.10407,-0.1808 -0.10407,-0.1808 h -0.0759 c -0.004,-0.007 -0.10407,-0.17992 -0.10407,-0.17992 h -0.0767 c -0.004,-0.007 -0.10407,-0.1808 -0.10407,-0.1808 h -0.0758 c -0.004,-0.007 -0.10407,-0.17991 -0.10407,-0.17991 h -0.0767 c -0.004,-0.007 -0.10407,-0.17992 -0.10407,-0.17992 h -0.0759 c -0.004,-0.007 -0.10407,-0.1808 -0.10407,-0.1808 h -0.0758 c -0.004,-0.007 -0.10407,-0.17991 -0.10407,-0.17991 h -0.0767 c -0.004,-0.007 -0.10407,-0.1808 -0.10407,-0.1808 h -0.0759 c -0.004,-0.007 -0.10407,-0.17992 -0.10407,-0.17992 h -0.0767 c -0.004,-0.007 -0.10407,-0.17992 -0.10407,-0.17992 h -0.0759 c -0.004,-0.007 -0.10407,-0.1808 -0.10407,-0.1808 h -0.0758 c -0.004,-0.007 -0.10407,-0.17991 -0.10407,-0.17991 h -0.0767 c -0.004,-0.007 -0.10407,-0.1808 -0.10407,-0.1808 h -0.0759 c -0.004,-0.007 -0.10407,-0.17992 -0.10407,-0.17992 h -0.0767 c -0.004,-0.007 -0.10406,-0.17991 -0.10406,-0.17991 h -0.0759 c -0.004,-0.007 -0.10407,-0.1808 -0.10407,-0.1808 h -0.0759 c -0.004,-0.007 -0.10407,-0.17992 -0.10407,-0.17992 h -0.0767 c -0.004,-0.007 -0.10407,-0.17992 -0.10407,-0.17992 h -0.0759 c -0.004,-0.007 -0.10407,-0.1808 -0.10407,-0.1808 h -0.0758 c -0.004,-0.007 -0.10407,-0.17991 -0.10407,-0.17991 h -0.0767 c -0.004,-0.007 -0.10495,-0.1808 -0.10495,-0.1808 h -0.075 c -0.004,-0.007 -0.10496,-0.17991 -0.10496,-0.17991 h -0.0767 c -0.004,-0.007 -0.10407,-0.17992 -0.10407,-0.17992 h -0.0758 c -0.004,-0.007 -0.10407,-0.1808 -0.10407,-0.1808 h -0.0758 c -0.004,-0.007 -0.10407,-0.17992 -0.10407,-0.17992 h -0.0767 c -0.004,-0.007 -0.10407,-0.1808 -0.10407,-0.1808 h -0.0759 c -0.004,-0.007 -0.10407,-0.17991 -0.10407,-0.17991 h -0.0767 c -0.004,-0.007 -0.10407,-0.17992 -0.10407,-0.17992 h -0.0758 c -0.004,-0.007 -0.10407,-0.1808 -0.10407,-0.1808 h -0.0759 c -0.004,-0.007 -0.10407,-0.17991 -0.10406,-0.17991 h -0.0767 c -0.004,-0.007 -0.10407,-0.1808 -0.10407,-0.1808 h -0.0758 c -0.004,-0.007 -0.10407,-0.17992 -0.10407,-0.17992 h -0.0767 c -0.004,-0.007 -0.10407,-0.17992 -0.10407,-0.17992 h -0.0759 c -0.004,-0.007 -0.10407,-0.1808 -0.10407,-0.1808 h -0.0758 c -0.004,-0.007 -0.10407,-0.17991 -0.10407,-0.17991 h -0.0767 c -0.004,-0.007 -0.10407,-0.1808 -0.10407,-0.1808 h -0.0758 c -0.004,-0.007 -0.10407,-0.17992 -0.10407,-0.17992 h -0.0767 c -0.004,-0.007 -0.10407,-0.17991 -0.10407,-0.17991 h -0.0758 c -0.004,-0.007 -0.10406,-0.1808 -0.10407,-0.1808 h -0.0758 c -0.004,-0.007 -0.10407,-0.17992 -0.10407,-0.17992 h -0.0767 c -0.004,-0.007 -0.10407,-0.17992 -0.10407,-0.17992 h -0.0759 c -0.004,-0.007 -0.10407,-0.1808 -0.10407,-0.1808 h -0.0758 c -0.004,-0.007 -0.10407,-0.17991 -0.10407,-0.17991 h -0.0767 c -0.004,-0.007 -0.10407,-0.1808 -0.10407,-0.1808 h -0.0758 c -0.004,-0.007 -0.10407,-0.17992 -0.10407,-0.17992 h -0.0767 c -0.004,-0.007 -0.10407,-0.17991 -0.10407,-0.17991 h -0.0759 c -0.004,-0.007 -0.10406,-0.1808 -0.10406,-0.1808 h -0.0759 c -0.004,-0.007 -0.10407,-0.17992 -0.10407,-0.17992 h -0.0776 c -0.004,-0.007 -0.10407,-0.1808 -0.10407,-0.1808 h -0.0759 c -0.004,-0.007 -0.10407,-0.17992 -0.10407,-0.17992 h -0.0767 c -0.004,-0.007 -0.10406,-0.17991 -0.10406,-0.17991 h -0.0758 c -0.004,-0.007 -0.10407,-0.1808 -0.10407,-0.1808 h -0.0759 c -0.004,-0.007 -0.10407,-0.17991 -0.10407,-0.17991 h -0.0767 c -0.004,-0.007 -0.10407,-0.1808 -0.10407,-0.1808 h -0.0759 c -0.004,-0.005 -0.10407,-0.17992 -0.10407,-0.17992 h -0.0767 c -0.004,-0.005 -0.10407,-0.17992 -0.10407,-0.17992 h -0.0758 c -0.004,-0.005 -0.10407,-0.1808 -0.10407,-0.1808 h -0.0759 c -0.004,-0.005 -0.10407,-0.17991 -0.10407,-0.17991 h -0.0767 c -0.004,-0.005 -0.10407,-0.1808 -0.10407,-0.1808 h -0.0759 c -0.004,-0.005 -0.10407,-0.17992 -0.10407,-0.17992 h -0.0759 c -0.004,-0.005 -0.10407,-0.17991 -0.10407,-0.17991 h -0.0767 c -0.004,-0.005 -0.10407,-0.1808 -0.10407,-0.1808 h -0.0759 c -0.004,-0.005 -0.10407,-0.17992 -0.10407,-0.17992 h -0.0767 c -0.004,-0.005 -0.10407,-0.17992 -0.10407,-0.17992 h -0.0759 c -0.004,-0.005 -0.10407,-0.1808 -0.10407,-0.1808 h -0.0759 c -0.004,-0.005 -0.10407,-0.17991 -0.10407,-0.17991 h -0.0767 c -0.004,-0.005 -0.10407,-0.1808 -0.10407,-0.1808 h -0.0759 c -0.004,-0.005 -0.10407,-0.17992 -0.10407,-0.17992 h -0.0767 c -0.004,-0.005 -0.10407,-0.17991 -0.10407,-0.17991 h -0.0759 c -0.004,-0.005 -0.10407,-0.1808 -0.10407,-0.1808 h -0.0758 c -0.004,-0.005 -0.10407,-0.17992 -0.10407,-0.17992 h -0.0767 c -0.004,-0.005 -0.10407,-0.1808 -0.10407,-0.1808 h -0.0759 c -0.004,-0.005 -0.10407,-0.17992 -0.10407,-0.17992 h -0.0767 c -0.004,-0.005 -0.10407,-0.17991 -0.10407,-0.17991 h -0.0758 c -0.004,-0.005 -0.10407,-0.1808 -0.10407,-0.1808 h -0.0759 c -0.004,-0.005 -0.10407,-0.17992 -0.10407,-0.17992 h -0.0767 c -0.004,-0.005 -0.10495,-0.18079 -0.10495,-0.18079 h -0.075 c -0.004,-0.005 -0.10407,-0.17992 -0.10407,-0.17992 h -0.0758 c -0.004,-0.005 -0.10406,-0.17992 -0.10406,-0.17992 h -0.0798 c -0.004,-0.005 -0.10407,-0.1808 -0.10407,-0.1808 h -0.075 c -0.004,-0.005 -0.10495,-0.17992 -0.10495,-0.17992 h -0.0767 c -0.004,-0.005 -0.10407,-0.18079 -0.10407,-0.18079 h -0.0759 c -0.004,-0.005 -0.10406,-0.17992 -0.10406,-0.17992 h -0.0759 c -0.004,-0.005 -0.10407,-0.17991 -0.10407,-0.17991 h -0.0767 c -0.004,-0.005 -0.10407,-0.1808 -0.10407,-0.1808 h -0.0759 c -0.004,-0.005 -0.10407,-0.17992 -0.10407,-0.17992 h -0.0767 c -0.004,-0.005 -0.10407,-0.17992 -0.10407,-0.17992 h -0.0758 c -0.004,-0.005 -0.10407,-0.1808 -0.10407,-0.1808 h -0.0759 c -0.004,-0.005 -0.10407,-0.17991 -0.10407,-0.17991 h -0.0767 c -0.004,-0.005 -0.10407,-0.1808 -0.10407,-0.1808 h -0.0758 c -0.004,-0.005 -0.10407,-0.17992 -0.10407,-0.17992 h -0.0767 c -0.004,-0.005 -0.10407,-0.17991 -0.10407,-0.17991 h -0.0759 c -0.004,-0.005 -0.10407,-0.1808 -0.10407,-0.1808 h -0.0759 c -0.004,-0.005 -0.10407,-0.17992 -0.10407,-0.17992 h -0.0767 c -0.004,-0.005 -0.10407,-0.1808 -0.10407,-0.1808 h -0.0758 c -0.004,-0.005 -0.10407,-0.17992 -0.10407,-0.17992 h -0.0767 c -0.004,-0.005 -0.10407,-0.17991 -0.10407,-0.17991 h -0.0759 c -0.004,-0.005 -0.10407,-0.1808 -0.10407,-0.1808 h -0.0758 c -0.004,-0.005 -0.10407,-0.17992 -0.10407,-0.17992 h -0.0767 c -0.004,-0.005 -0.10407,-0.18079 -0.10407,-0.18079 h -0.0759 c -0.004,-0.005 -0.10407,-0.17992 -0.10407,-0.17992 h -0.0759 c -0.004,-0.005 -0.10407,-0.17992 -0.10407,-0.17992 h -0.0767 c -0.004,-0.005 -0.10407,-0.1808 -0.10407,-0.1808 h -0.0759 c -0.004,-0.005 -0.10407,-0.17992 -0.10407,-0.17992 h -0.0767 c -0.004,-0.005 -0.10407,-0.18079 -0.10407,-0.18079 h -0.0759 c -0.004,-0.005 -0.10406,-0.17992 -0.10407,-0.17992 h -0.0758 c -0.004,-0.005 -0.10407,-0.17992 -0.10407,-0.17992 h -0.0767 c -0.004,-0.005 -0.10407,-0.18079 -0.10407,-0.18079 h -0.0759 c -0.004,-0.005 -0.10407,-0.17992 -0.10407,-0.17992 h -0.0767 c -0.004,-0.005 -0.10407,-0.17992 -0.10407,-0.17992 h -0.0758 c -0.004,-0.005 -0.10407,-0.1808 -0.10407,-0.1808 h -0.0759 c -0.004,-0.005 -0.10407,-0.17992 -0.10407,-0.17992 h -0.0767 c -0.004,-0.005 -0.10407,-0.18079 -0.10407,-0.18079 h -0.0759 c -0.004,-0.005 -0.10406,-0.17992 -0.10406,-0.17992 h -0.0767 c -0.004,-0.005 -0.10407,-0.17991 -0.10406,-0.17991 h -0.0758 c -0.004,-0.005 -0.10407,-0.1808 -0.10407,-0.1808 h -0.0759 c -0.004,-0.005 -0.10407,-0.17992 -0.10407,-0.17992 h -0.0767 c -0.004,-0.005 -0.10496,-0.1808 -0.10496,-0.1808 h -0.075 c -0.004,-0.005 -0.10407,-0.17992 -0.10407,-0.17992 h -0.0759 c -0.004,-0.005 -0.10407,-0.17991 -0.10407,-0.17991 h -0.0776 c -0.004,-0.005 -0.10407,-0.1808 -0.10407,-0.1808 h -0.075 c -0.004,-0.005 -0.10496,-0.17992 -0.10496,-0.17992 h -0.0767 c -0.004,-0.005 -0.10407,-0.18079 -0.10407,-0.18079 h -0.0758 c -0.004,-0.005 -0.10407,-0.17992 -0.10407,-0.17992 h -0.0759 c -0.004,-0.005 -0.10407,-0.17992 -0.10407,-0.17992 h -0.0767 c -0.004,-0.005 -0.10407,-0.1808 -0.10407,-0.1808 h -0.0759 c -0.004,-0.005 -0.10407,-0.17992 -0.10407,-0.17992 h -0.0767 c -0.004,-0.005 -0.10407,-0.18079 -0.10407,-0.18079 h -0.0759 c -0.004,-0.005 -0.10407,-0.17992 -0.10407,-0.17992 h -0.0758 c -0.004,-0.005 -0.10407,-0.17992 -0.10407,-0.17992 h -0.0767 c -0.004,-0.005 -0.10407,-0.18079 -0.10407,-0.18079 h -0.0759 c -0.004,-0.005 -0.10407,-0.17992 -0.10407,-0.17992 h -0.0767 c -0.004,-0.005 -0.10407,-0.17992 -0.10407,-0.17992 h -0.0758 c -0.004,-0.005 -0.10407,-0.1808 -0.10407,-0.1808 h -0.0759 c -0.004,-0.005 -0.10407,-0.17992 -0.10407,-0.17992 h -0.0767 c -0.004,-0.005 -0.10407,-0.18079 -0.10407,-0.18079 h -0.0759 c -0.004,-0.005 -0.10407,-0.17992 -0.10407,-0.17992 h -0.0759 c -0.004,-0.005 -0.10407,-0.17992 -0.10407,-0.17992 h -0.0767 c -0.004,-0.005 -0.10407,-0.18079 -0.10407,-0.18079 h -0.0758 c -0.004,-0.005 -0.10407,-0.17992 -0.10407,-0.17992 h -0.0767 c -0.004,-0.005 -0.10407,-0.1808 -0.10407,-0.1808 h -0.0758 c -0.004,-0.005 -0.10407,-0.17992 -0.10407,-0.17992 h -0.0759 c -0.004,-0.005 -0.10407,-0.17992 -0.10407,-0.17992 h -0.0767 c -0.004,-0.005 -0.10407,-0.18079 -0.10407,-0.18079 h -0.0759 c -0.004,-0.005 -0.10407,-0.17992 -0.10407,-0.17992 h -0.0767 c -0.004,-0.005 -0.10407,-0.1808 -0.10407,-0.1808 h -0.0758 c -0.004,-0.005 -0.10407,-0.17991 -0.10407,-0.17991 h -0.0758 l -0.10407,-0.17992 h -0.0767 c -0.004,-0.005 -0.10407,-0.1808 -0.10407,-0.1808 h -0.0758 c -0.004,-0.005 -0.10407,-0.17992 -0.10407,-0.17992 h -0.0767 c -0.004,-0.005 -0.10407,-0.1808 -0.10407,-0.1808 h -0.0759 c -0.004,-0.005 -0.10407,-0.17991 -0.10407,-0.17991 h -0.0759 c -0.004,-0.005 -0.10407,-0.17992 -0.10407,-0.17992 h -0.0767 l -0.10407,-0.18079 h -0.0758 l -0.10407,-0.17992 h -0.0767 l -0.10407,-0.17992 h -0.0758 c -0.004,-0.005 -0.10407,-0.1808 -0.10407,-0.1808 h -0.0759 c -0.004,-0.005 -0.10407,-0.17992 -0.10407,-0.17992 h -0.0767 l -0.10407,-0.17991 h -0.0759 l -0.10407,-0.1808 h -0.0759 l -0.10407,-0.17992 h -0.07761 l -0.10407,-0.18079 h -0.07497 l -0.10495,-0.17992 h -0.06262 -0.01233 l -0.10407,-0.1808 h -0.03174 -0.04497 l -0.10407,-0.17992 H 83.528568 l 7.902223,13.6869 7.902222,13.68778 h -4.299482 c -0.0018,-0.004 -0.08996,-0.15523 -0.08996,-0.15523 h -0.07584 c -0.0036,-0.005 -0.10407,-0.17991 -0.10407,-0.17991 h -9.03e-4 -0.07584 c -0.0036,-0.005 -0.104071,-0.1808 -0.104071,-0.1808 h -0.07585 c -0.0036,-0.005 -0.10407,-0.17992 -0.10407,-0.17992 h -9.03e-4 -0.07495 c -0.0036,-0.005 -0.10407,-0.17992 -0.10407,-0.17992 h -9.03e-4 -0.07585 c -0.0036,-0.005 -0.10407,-0.1808 -0.10407,-0.1808 h -0.07585 c -0.0036,-0.005 -0.10407,-0.17991 -0.10407,-0.17991 h -9.03e-4 -0.07585 c -0.0036,-0.005 -0.10407,-0.1808 -0.10407,-0.1808 h -0.07585 c -0.0036,-0.005 -0.104065,-0.17991 -0.104065,-0.17991 h -9.03e-4 -0.07496 c -0.0036,-0.005 -0.10407,-0.17992 -0.10407,-0.17992 h -9.03e-4 -0.07584 c -0.0036,-0.005 -0.10407,-0.1808 -0.10407,-0.1808 h -0.07585 c -0.0036,-0.005 -0.10407,-0.17992 -0.10407,-0.17992 h -9.03e-4 -0.07585 c -0.0036,-0.005 -0.10407,-0.1808 -0.10407,-0.1808 h -0.07585 c -0.0036,-0.005 -0.10407,-0.17991 -0.10407,-0.17991 h -9.03e-4 -0.07497 c -0.0036,-0.005 -0.10407,-0.17992 -0.10407,-0.17992 h -9.03e-4 -0.07585 c -0.0036,-0.005 -0.10407,-0.1808 -0.10407,-0.1808 h -0.07585 c -0.0036,-0.005 -0.104065,-0.17991 -0.104065,-0.17991 h -9.03e-4 -0.07585 c -0.0036,-0.005 -0.10407,-0.1808 -0.10407,-0.1808 h -0.07584 c -0.0036,-0.005 -0.10407,-0.17992 -0.10407,-0.17992 h -9.03e-4 -0.07408 c -0.0036,-0.005 -0.10495,-0.17992 -0.10495,-0.17992 h -9.04e-4 -0.07497 c -0.0036,-0.005 -0.10407,-0.1808 -0.10407,-0.1808 h -0.07585 c -0.0036,-0.005 -0.10407,-0.17991 -0.104065,-0.17991 h -9.03e-4 -0.07585 c -0.0036,-0.005 -0.10407,-0.1808 -0.10407,-0.1808 h -0.07584 c -0.0036,-0.005 -0.10407,-0.17992 -0.10407,-0.17992 h -9.03e-4 -0.07496 c -0.0036,-0.005 -0.10407,-0.17991 -0.10407,-0.17991 h -9.03e-4 -0.07585 c -0.0036,-0.005 -0.10407,-0.1808 -0.10407,-0.1808 h -0.07585 c -0.0036,-0.005 -0.10407,-0.17992 -0.10407,-0.17992 h -9.03e-4 -0.07497 c -0.0036,-0.005 -0.10407,-0.17992 -0.10407,-0.17992 h -9.03e-4 -0.07585 c -0.0036,-0.005 -0.10407,-0.1808 -0.10407,-0.1808 H 89.8209 c -0.0036,-0.005 -0.104065,-0.17991 -0.104065,-0.17991 h -9.03e-4 -0.07585 c -0.0036,-0.005 -0.104066,-0.1808 -0.10407,-0.1808 h -0.07584 c -0.0036,-0.005 -0.10407,-0.17992 -0.10407,-0.17992 h -9.03e-4 -0.07496 c -0.0036,-0.005 -0.10407,-0.17991 -0.10407,-0.17991 h -9.04e-4 -0.07585 c -0.0036,-0.005 -0.10407,-0.1808 -0.10407,-0.1808 h -0.07585 c -0.0036,-0.005 -0.10407,-0.17992 -0.10407,-0.17992 h -9.03e-4 -0.07585 c -0.0036,-0.005 -0.10407,-0.1808 -0.10407,-0.1808 h -0.07585 c -0.0036,-0.005 -0.10495,-0.17992 -0.10495,-0.17992 h -9.03e-4 -0.07409 c -0.0036,-0.005 -0.104951,-0.17991 -0.104951,-0.17991 h -0.07585 c -0.0036,-0.005 -0.104065,-0.1808 -0.104065,-0.1808 h -0.07585 c -0.0036,-0.005 -0.10407,-0.17991 -0.10407,-0.17991 h -9.03e-4 -0.07585 c -0.0036,-0.005 -0.10407,-0.1808 -0.10407,-0.1808 h -0.07585 c -0.0036,-0.005 -0.10407,-0.17992 -0.10407,-0.17992 h -9.03e-4 -0.07497 c -0.0036,-0.005 -0.10407,-0.17992 -0.10407,-0.17992 h -9.03e-4 -0.07585 c -0.0036,-0.005 -0.10407,-0.1808 -0.10407,-0.1808 h -0.07585 c -0.0036,-0.005 -0.10407,-0.17991 -0.10407,-0.17991 h -9.03e-4 -0.07585 c -0.0036,-0.005 -0.10407,-0.1808 -0.10407,-0.1808 h -0.07584 c -0.0036,-0.005 -0.10407,-0.17992 -0.10407,-0.17992 h -9.03e-4 -0.07496 c -0.0036,-0.005 -0.10407,-0.17991 -0.10407,-0.17991 h -9.03e-4 -0.07585 c -0.0036,-0.005 -0.10407,-0.1808 -0.10407,-0.1808 h -0.07585 c -0.0036,-0.005 -0.10407,-0.17992 -0.10407,-0.17992 h -9.03e-4 -0.07497 c -0.0036,-0.005 -0.10407,-0.17992 -0.10407,-0.17992 h -9.03e-4 -0.07585 c -0.0036,-0.005 -0.10407,-0.1808 -0.10407,-0.1808 h -9.03e-4 -0.07497 c -0.0036,-0.005 -0.104066,-0.17991 -0.104066,-0.17991 h -9.03e-4 -0.07585 c -0.0036,-0.005 -0.10407,-0.1808 -0.10407,-0.1808 h -0.07584 c -0.0036,-0.005 -0.10407,-0.17992 -0.10407,-0.17992 h -9.03e-4 -0.07496 c -0.0036,-0.005 -0.10407,-0.17991 -0.10407,-0.17991 h -9.03e-4 -0.07585 c -0.0036,-0.005 -0.10407,-0.1808 -0.10407,-0.1808 h -0.07585 c -0.0036,-0.005 -0.10407,-0.17992 -0.10407,-0.17992 h -9.03e-4 -0.07585 c -0.0036,-0.005 -0.10407,-0.1808 -0.10407,-0.1808 h -0.07585 c -0.0036,-0.005 -0.10407,-0.17992 -0.10407,-0.17992 h -9.03e-4 -0.07497 c -0.0036,-0.005 -0.104066,-0.17991 -0.104066,-0.17991 h -9.03e-4 -0.07585 c -0.0036,-0.005 -0.10407,-0.1808 -0.10407,-0.1808 h -0.07584 c -0.0036,-0.005 -0.10407,-0.17992 -0.10407,-0.17992 h -9.03e-4 -0.07584 c -0.0036,-0.005 -0.10407,-0.18079 -0.10407,-0.18079 h -0.07585 c -0.0036,-0.005 -0.10407,-0.17992 -0.10407,-0.17992 h -9.03e-4 -0.07497 c -0.0036,-0.005 -0.10407,-0.17992 -0.10407,-0.17992 h -9.03e-4 -0.07585 c -0.0036,-0.005 -0.10407,-0.1808 -0.10407,-0.1808 h -0.07585 c -0.0036,-0.005 -0.10407,-0.17992 -0.10407,-0.17992 h -9.03e-4 -0.07585 c -0.0036,-0.005 -0.10407,-0.18079 -0.10407,-0.18079 h -0.07585 c -0.0036,-0.005 -0.104065,-0.17992 -0.104065,-0.17992 h -9.04e-4 -0.07496 c -0.0036,-0.005 -0.10407,-0.17991 -0.10407,-0.17991 h -9.03e-4 -0.07585 c -0.0036,-0.005 -0.10407,-0.1808 -0.10407,-0.1808 h -0.07585 c -0.0036,-0.005 -0.10407,-0.17992 -0.10407,-0.17992 h -9.03e-4 -0.07497 c -0.0036,-0.005 -0.10407,-0.17992 -0.10407,-0.17992 h -9.04e-4 -0.07585 c -0.0036,-0.005 -0.10407,-0.1808 -0.10407,-0.1808 h -9.03e-4 -0.07497 c -0.0036,-0.005 -0.10407,-0.17991 -0.10407,-0.17991 h -9.03e-4 -0.07496 c -0.0036,-0.005 -0.104955,-0.1808 -0.104955,-0.1808 h -0.07496 c -0.0036,-0.005 -0.10407,-0.17992 -0.10407,-0.17992 h -9.03e-4 -0.07497 c -0.0036,-0.005 -0.10407,-0.17991 -0.10407,-0.17991 h -9.03e-4 -0.07585 c -0.0036,-0.005 -0.10407,-0.1808 -0.10407,-0.1808 h -9.03e-4 -0.07497 c -0.0036,-0.005 -0.10407,-0.17992 -0.10407,-0.17992 h -9.03e-4 -0.07585 c -0.0036,-0.005 -0.10407,-0.1808 -0.10407,-0.1808 h -0.07585 c -0.0036,-0.005 -0.104065,-0.17992 -0.104065,-0.17992 h -9.03e-4 -0.07496 c -0.0036,-0.005 -0.10407,-0.17991 -0.10407,-0.17991 h -9.03e-4 -0.07585 c -0.0036,-0.005 -0.10407,-0.1808 -0.10407,-0.1808 h -0.07585 c -0.0036,-0.005 -0.10407,-0.17992 -0.10407,-0.17992 h -9.03e-4 -0.07585 c -0.0036,-0.005 -0.10407,-0.18079 -0.10407,-0.18079 h -0.07585 c -0.0036,-0.005 -0.10407,-0.17992 -0.10407,-0.17992 h -9.04e-4 -0.07497 c -0.0036,-0.005 -0.10407,-0.17992 -0.10407,-0.17992 h -9.03e-4 -0.07585 c -0.0036,-0.005 -0.10407,-0.1808 -0.10407,-0.1808 h -0.07584 c -0.0036,-0.005 -0.10407,-0.17992 -0.10407,-0.17992 h -9.03e-4 -0.07585 c -0.0036,-0.005 -0.104065,-0.18079 -0.104065,-0.18079 h -0.07585 c -0.0036,-0.005 -0.10407,-0.17992 -0.10407,-0.17992 h -9.03e-4 -0.07496 c -0.0036,-0.005 -0.10407,-0.17992 -0.10407,-0.17992 h -9.03e-4 -0.07585 c -0.0036,-0.005 -0.10407,-0.18079 -0.10407,-0.18079 h -0.07585 c -0.0036,-0.005 -0.10407,-0.17992 -0.10407,-0.17992 h -9.03e-4 -0.07497 c -0.0036,-0.005 -0.104066,-0.17992 -0.104066,-0.17992 h -9.03e-4 -0.07585 c -0.0036,-0.005 -0.10407,-0.1808 -0.10407,-0.1808 h -9.03e-4 -0.07496 c -0.0036,-0.005 -0.10407,-0.17992 -0.10407,-0.17992 h -9.04e-4 -0.07585 c -0.0036,-0.005 -0.104066,-0.18079 -0.104066,-0.18079 h -0.07585 c -0.0036,-0.005 -0.10407,-0.17992 -0.10407,-0.17992 h -9.03e-4 -0.07497 c -0.0036,-0.005 -0.10407,-0.17991 -0.10407,-0.17991 h -9.03e-4 -0.07585 c -0.0036,-0.005 -0.10407,-0.1808 -0.10407,-0.1808 h -9.03e-4 -0.07497 c -0.0036,-0.005 -0.10407,-0.17992 -0.10407,-0.17992 h -9.03e-4 -0.07585 c -0.0036,-0.005 -0.10407,-0.1808 -0.10407,-0.1808 h -0.07585 c -0.0036,-0.005 -0.104065,-0.17992 -0.10407,-0.17992 h -9.03e-4 -0.07496 c -0.0036,-0.005 -0.10407,-0.17991 -0.10407,-0.17991 h -9.03e-4 -0.07584 c -0.0036,-0.005 -0.10407,-0.1808 -0.10407,-0.1808 h -9.03e-4 -0.07496 c -0.0036,-0.005 -0.10407,-0.17992 -0.10407,-0.17992 h -9.03e-4 -0.07585 c -0.0036,-0.005 -0.10407,-0.18079 -0.10407,-0.18079 h -0.07585 c -0.0036,-0.005 -0.10407,-0.17992 -0.10407,-0.17992 h -9.03e-4 -0.07497 c -0.0036,-0.005 -0.10407,-0.17992 -0.10407,-0.17992 h -9.03e-4 -0.07585 c -0.0036,-0.005 -0.10407,-0.1808 -0.10407,-0.1808 h -0.07585 c -0.0036,-0.005 -0.104065,-0.17992 -0.104065,-0.17992 h -9.03e-4 -0.07585 c -0.0036,-0.005 -0.104066,-0.18079 -0.104066,-0.18079 h -0.07585 c -0.0036,-0.005 -0.10407,-0.17992 -0.10407,-0.17992 h -9.03e-4 -0.07496 c -0.0036,-0.005 -0.10407,-0.17992 -0.10407,-0.17992 h -9.04e-4 -0.07585 c -0.0036,-0.005 -0.10407,-0.18079 -0.10407,-0.18079 h -0.07585 c -0.0036,-0.005 -0.10407,-0.17992 -0.10407,-0.17992 h -9.03e-4 -0.07497 c -0.0036,-0.005 -0.10407,-0.17992 -0.10407,-0.17992 h -9.04e-4 -0.07585 c -0.0036,-0.005 -0.10407,-0.1808 -0.10407,-0.1808 h -9.04e-4 -0.07496 c -0.0036,-0.005 -0.10407,-0.17992 -0.10407,-0.17992 h -9.03e-4 -0.07496 c -0.0036,-0.005 -0.104951,-0.18079 -0.104951,-0.18079 h -0.07331 c -0.0036,-0.005 -0.10407,-0.17992 -0.10407,-0.17992 h -9.03e-4 -0.07497 c -0.0036,-0.005 -0.10407,-0.17992 -0.10407,-0.17992 h -9.03e-4 -0.07585 c -0.0036,-0.005 -0.10407,-0.18079 -0.10407,-0.18079 h -9.03e-4 -0.07497 c -0.0036,-0.005 -0.104065,-0.17992 -0.104065,-0.17992 h -9.03e-4 -0.07585 c -0.0036,-0.005 -0.104066,-0.1808 -0.104066,-0.1808 h -0.07585 c -0.0036,-0.005 -0.10407,-0.17992 -0.10407,-0.17992 H 71.87166 71.7967 c -0.0036,-0.005 -0.10407,-0.17992 -0.10407,-0.17992 h -9.04e-4 -0.07585 c -0.0036,-0.005 -0.10407,-0.18079 -0.10407,-0.18079 h -9.03e-4 -0.07497 c -0.0036,-0.005 -0.10407,-0.17992 -0.10407,-0.17992 h -9.03e-4 -0.07585 c -0.0036,-0.005 -0.10407,-0.1808 -0.10407,-0.1808 h -0.07585 c -0.0036,-0.005 -0.10407,-0.17991 -0.10407,-0.17991 h -9.04e-4 -0.07496 c -0.0036,-0.005 -0.10407,-0.17992 -0.10407,-0.17992 h -9.03e-4 -0.07585 c -0.0036,-0.005 -0.104066,-0.1808 -0.104066,-0.1808 h -9.03e-4 -0.07496 c -0.0036,-0.005 -0.10407,-0.17992 -0.10407,-0.17992 h -9.03e-4 -0.07584 c -0.0036,-0.005 -0.10407,-0.1808 -0.10407,-0.1808 h -0.07585 c -0.0036,-0.005 -0.10407,-0.17991 -0.10407,-0.17991 h -9.03e-4 -0.07497 c -0.0036,-0.005 -0.10407,-0.17992 -0.10407,-0.17992 h -9.03e-4 -0.07585 c -0.0036,-0.005 -0.10407,-0.18079 -0.10407,-0.18079 h -0.07585 c -0.0036,-0.005 -0.10407,-0.17992 -0.10407,-0.17992 h -9.03e-4 -0.07496 c -0.0036,-0.005 -0.10407,-0.17992 -0.10407,-0.17992 h -9.03e-4 -0.07585 c -0.0036,-0.005 -0.104065,-0.1808 -0.104065,-0.1808 h -9.03e-4 -0.07496 c -0.0036,-0.005 -0.10407,-0.17992 -0.10407,-0.17992 h -9.03e-4 -0.07585 c -0.0036,-0.005 -0.10407,-0.18079 -0.10407,-0.18079 h -0.07585 c -0.0036,-0.005 -0.10407,-0.17992 -0.10407,-0.17992 h -9.03e-4 -0.07497 c -0.0036,-0.005 -0.10407,-0.17992 -0.10407,-0.17992 h -9.03e-4 -0.07585 c -0.0036,-0.005 -0.10407,-0.18079 -0.10407,-0.18079 h -9.03e-4 -0.07497 c -0.0036,-0.005 -0.10407,-0.17992 -0.10407,-0.17992 h -9.03e-4 -0.07585 c -0.0036,-0.005 -0.10407,-0.1808 -0.10407,-0.1808 h -0.07584 l -0.10407,-0.17992 h -9.04e-4 -15.803559 -9.03e-4 z"
       id="path6309"
       inkscape:export-xdpi="163.84"
       inkscape:export-ydpi="163.84" />
    <path
       inkscape:connector-curvature="0"
       id="path907-7"
       d="m 83.537792,188.20553 7.902225,13.68689 7.902208,13.68777 7.902225,13.68691 7.90223,-13.68691 -7.90223,-13.68777 -7.902225,-13.68689 z"
       style="opacity:1;fill:#00ff00;fill-opacity:1;stroke:none;stroke-width:2.28117537;stroke-linecap:round;stroke-linejoin:bevel;stroke-miterlimit:4;stroke-dasharray:none;stroke-opacity:1;paint-order:normal"
       inkscape:export-xdpi="163.84"
       inkscape:export-ydpi="163.84" />
    <path
       inkscape:connector-curvature="0"
       id="path913-0"
       d="m 115.14668,215.58019 -7.90223,13.68691 -7.902225,13.68688 -7.902208,13.68691 -7.902225,13.6869 h 15.804433 l 7.902225,-13.6869 7.90223,-13.68691 7.90222,-13.68688 z"
       style="opacity:1;fill:#00aa00;fill-opacity:1;stroke:none;stroke-width:2.28117537;stroke-linecap:round;stroke-linejoin:bevel;stroke-miterlimit:4;stroke-dasharray:none;stroke-opacity:1;paint-order:normal"
       inkscape:export-xdpi="163.84"
       inkscape:export-ydpi="163.84" />
    <path
       inkscape:connector-curvature="0"
       id="path825-5"
       d="m 44.026683,256.64089 7.902208,13.6869 h 15.804451 l 7.902225,-13.6869 H 59.831116 Z"
       style="opacity:1;fill:#00ccff;fill-opacity:1;stroke:none;stroke-width:2.28117537;stroke-linecap:round;stroke-linejoin:bevel;stroke-miterlimit:4;stroke-dasharray:none;stroke-opacity:1;paint-order:normal"
       inkscape:export-xdpi="163.84"
       inkscape:export-ydpi="163.84" />
    <path
       inkscape:connector-curvature="0"
       id="path827-0"
       d="m 28.222233,229.2671 -7.902226,13.68688 7.902226,13.68691 7.902225,13.6869 h 15.804433 l -7.902208,-13.6869 -7.902225,-13.68691 z"
       style="opacity:1;fill:#00aad4;fill-opacity:1;stroke:none;stroke-width:2.28117537;stroke-linecap:round;stroke-linejoin:bevel;stroke-miterlimit:4;stroke-dasharray:none;stroke-opacity:1;paint-order:normal"
       inkscape:export-xdpi="163.84"
       inkscape:export-ydpi="163.84" />
    <path
       inkscape:connector-curvature="0"
       id="path831-4"
       d="m 28.222233,201.89242 -7.902226,13.68777 -7.902225,13.68691 7.902225,13.68688 7.902226,-13.68688 7.902225,-13.68691 7.902225,-13.68777 z"
       style="opacity:1;fill:#2c89a0;fill-opacity:1;stroke:none;stroke-width:2.28117537;stroke-linecap:round;stroke-linejoin:bevel;stroke-miterlimit:4;stroke-dasharray:none;stroke-opacity:1;paint-order:normal"
       inkscape:export-xdpi="163.84"
       inkscape:export-ydpi="163.84" />
    <path
       inkscape:connector-curvature="0"
       id="path845-9"
       d="m 36.124458,188.20553 -7.902225,13.68689 h 15.80445 15.804433 15.804451 L 67.733342,188.20553 H 51.928891 Z"
       style="opacity:1;fill:#216778;fill-opacity:1;stroke:none;stroke-width:2.28117537;stroke-linecap:round;stroke-linejoin:bevel;stroke-miterlimit:4;stroke-dasharray:none;stroke-opacity:1;paint-order:normal"
       inkscape:export-xdpi="163.84"
       inkscape:export-ydpi="163.84" />
    <path
       inkscape:connector-curvature="0"
       id="path871-3"
       d="m 44.026683,229.2671 7.902208,13.68688 H 67.733342 L 75.635567,229.2671 H 59.831116 Z"
       style="opacity:1;fill:#55ddff;fill-opacity:1;stroke:none;stroke-width:2.28117537;stroke-linecap:round;stroke-linejoin:bevel;stroke-miterlimit:4;stroke-dasharray:none;stroke-opacity:1;paint-order:normal"
       inkscape:export-xdpi="163.84"
       inkscape:export-ydpi="163.84" />
    <path
       inkscape:connector-curvature="0"
       id="path877-2"
       d="m 75.63543,229.26705 -7.902225,13.68688 -7.902225,13.68691 h 15.80445 l 7.902208,-13.68691 z"
       style="opacity:1;fill:#2ad4ff;fill-opacity:1;stroke:none;stroke-width:2.28117537;stroke-linecap:round;stroke-linejoin:bevel;stroke-miterlimit:4;stroke-dasharray:none;stroke-opacity:1;paint-order:normal"
       inkscape:export-xdpi="163.84"
       inkscape:export-ydpi="163.84" />
    <path
       inkscape:connector-curvature="0"
       id="path1105"
       d="m 83.537792,215.58019 -7.902225,13.68691 h 15.80445 l 7.902208,13.68688 7.902225,-13.68688 -7.902225,-13.68691 z"
       style="opacity:1;fill:#00d400;fill-opacity:1;stroke:none;stroke-width:2.28117537;stroke-linecap:round;stroke-linejoin:bevel;stroke-miterlimit:4;stroke-dasharray:none;stroke-opacity:1;paint-order:normal"
       inkscape:export-xdpi="163.84"
       inkscape:export-ydpi="163.84" />
  </g>
</svg>
