<?xml version="1.0" encoding="UTF-8" standalone="no"?>
<!-- Created with Inkscape (http://www.inkscape.org/) -->

<svg
   xmlns:dc="http://purl.org/dc/elements/1.1/"
   xmlns:cc="http://creativecommons.org/ns#"
   xmlns:rdf="http://www.w3.org/1999/02/22-rdf-syntax-ns#"
   xmlns:svg="http://www.w3.org/2000/svg"
   xmlns="http://www.w3.org/2000/svg"
   xmlns:xlink="http://www.w3.org/1999/xlink"
   xmlns:sodipodi="http://sodipodi.sourceforge.net/DTD/sodipodi-0.dtd"
   xmlns:inkscape="http://www.inkscape.org/namespaces/inkscape"
   width="512"
   height="512"
   viewBox="0 0 135.46666 135.46667"
   version="1.1"
   id="svg4951"
   inkscape:version="0.92.1 r15371"
   sodipodi:docname="germinate-square.svg">
  <sodipodi:namedview
     id="base"
     pagecolor="#ffffff"
     bordercolor="#666666"
     borderopacity="1.0"
     inkscape:pageopacity="0.0"
     inkscape:pageshadow="2"
     inkscape:zoom="0.35355339"
     inkscape:cx="-672.90279"
     inkscape:cy="-68.730036"
     inkscape:document-units="mm"
     inkscape:current-layer="layer1"
     showgrid="false"
     units="px"
     inkscape:window-width="1920"
     inkscape:window-height="1017"
     inkscape:window-x="-8"
     inkscape:window-y="-8"
     inkscape:window-maximized="1">
    <inkscape:grid
       id="grid5751"
       type="xygrid" />
  </sodipodi:namedview>
  <defs
     id="defs4945">
    <linearGradient
       inkscape:collect="always"
       id="linearGradient8354">
      <stop
         style="stop-color:#000000;stop-opacity:0.48397436"
         offset="0"
         id="stop8350" />
      <stop
         style="stop-color:#000000;stop-opacity:0"
         offset="1"
         id="stop8352" />
    </linearGradient>
    <linearGradient
       inkscape:collect="always"
       xlink:href="#linearGradient8354"
       id="linearGradient8356"
       x1="-155.67912"
       y1="277.19394"
       x2="-107.38889"
       y2="328.0567"
       gradientUnits="userSpaceOnUse"
       gradientTransform="matrix(3.7795276,0,0,3.7795276,0,-610.51963)" />
  </defs>
  <metadata
     id="metadata4948">
    <rdf:RDF>
      <cc:Work
         rdf:about="">
        <dc:format>image/svg+xml</dc:format>
        <dc:type
           rdf:resource="http://purl.org/dc/dcmitype/StillImage" />
        <dc:title></dc:title>
      </cc:Work>
    </rdf:RDF>
  </metadata>
  <g
     transform="translate(0,-161.53332)"
     id="layer1"
     inkscape:groupmode="layer"
     inkscape:label="Layer 1">
    <g
       id="g8372"
       transform="matrix(1.7066667,0,0,1.7066667,309.71907,-271.18523)">
      <circle
         inkscape:export-ydpi="163.84"
         inkscape:export-xdpi="163.84"
         style="opacity:1;fill:#e6e6e6;fill-opacity:1;stroke:none;stroke-width:3.57728982;stroke-linecap:round;stroke-linejoin:round;stroke-miterlimit:4;stroke-dasharray:none;stroke-opacity:1;paint-order:fill markers stroke"
         id="path6239"
         cx="-141.78851"
         cy="293.23352"
         r="39.6875" />
      <path
         inkscape:export-ydpi="163.84"
         inkscape:export-xdpi="163.84"
         id="path6309"
         transform="matrix(0.26458333,0,0,0.26458333,0,161.53332)"
         d="m -605.89453,406.83203 -17.5,30.31055 v 0.002 c -0.13569,0.23509 -17.5,30.31055 -17.5,30.31055 v 0.002 c -0.13569,0.23509 -17.5,30.30859 -17.5,30.30859 v 0.002 c 0.13568,0.23508 17.5,30.30859 17.5,30.30859 v 0.002 c 0.13568,0.23509 17.5,30.3086 17.5,30.3086 v 0.002 c 0.13568,0.23509 17.5,30.3086 17.5,30.3086 h 0.002 0.16602 c 0.008,0.0113 0.23047,0.39843 0.23047,0.39843 h 0.002 0.16797 c 0.008,0.0113 0.23047,0.40039 0.23047,0.40039 h 0.002 0.16602 c 0.008,0.0113 0.23046,0.39844 0.23046,0.39844 h 0.002 0.16797 c 0.008,0.0113 0.23046,0.40039 0.23046,0.40039 h 0.16797 c 0.008,0.0113 0.23047,0.39844 0.23047,0.39844 h 0.002 0.16601 c 0.008,0.0113 0.23047,0.39844 0.23047,0.39844 h 0.002 0.16797 c 0.008,0.0113 0.23047,0.40039 0.23047,0.40039 h 0.002 0.16602 c 0.008,0.0113 0.23047,0.39843 0.23047,0.39843 h 0.002 0.16797 c 0.008,0.0113 0.23047,0.4004 0.23047,0.4004 h 0.16797 c 0.008,0.0113 0.23047,0.39843 0.23047,0.39843 h 0.002 0.16601 c 0.008,0.0113 0.23047,0.39844 0.23047,0.39844 h 0.002 0.16797 c 0.008,0.0113 0.23046,0.40039 0.23046,0.40039 h 0.002 0.16601 c 0.008,0.0113 0.23047,0.39844 0.23047,0.39844 h 0.002 0.16601 c 0.008,0.0113 0.23047,0.39844 0.23047,0.39844 h 0.002 0.16797 c 0.008,0.0113 0.23047,0.40039 0.23047,0.40039 h 0.002 0.16602 c 0.008,0.0113 0.23047,0.39843 0.23047,0.39843 h 0.002 0.16797 c 0.008,0.0113 0.23047,0.4004 0.23047,0.4004 h 0.16797 c 0.008,0.0113 0.23047,0.39843 0.23047,0.39843 h 0.002 0.16601 c 0.008,0.0113 0.23047,0.39844 0.23047,0.39844 h 0.002 0.16797 c 0.008,0.0113 0.23046,0.40039 0.23046,0.40039 h 0.002 0.16601 c 0.008,0.0113 0.23047,0.39844 0.23047,0.39844 h 0.002 0.16797 c 0.008,0.0113 0.23047,0.40039 0.23047,0.40039 h 0.16797 c 0.008,0.0113 0.23047,0.39844 0.23047,0.39844 h 0.002 0.16602 c 0.008,0.0113 0.23047,0.39843 0.23047,0.39843 h 0.002 0.16797 c 0.008,0.0113 0.23047,0.40039 0.23047,0.40039 h 0.002 0.16602 c 0.008,0.0113 0.23047,0.39844 0.23047,0.39844 h 0.002 0.16797 c 0.008,0.0113 0.23047,0.40039 0.23047,0.40039 h 0.16796 c 0.008,0.0113 0.23047,0.39844 0.23047,0.39844 h 0.002 0.16601 c 0.008,0.0113 0.23047,0.39844 0.23047,0.39844 h 0.002 0.16797 c 0.008,0.0113 0.23047,0.40039 0.23047,0.40039 h 0.002 0.16602 c 0.008,0.0113 0.23047,0.39844 0.23047,0.39844 h 0.002 0.16797 c 0.008,0.0113 0.23047,0.40039 0.23047,0.40039 h 0.16797 c 0.008,0.0113 0.23047,0.39843 0.23047,0.39843 h 0.002 0.16602 c 0.008,0.0113 0.23046,0.39844 0.23046,0.39844 h 0.002 0.16601 c 0.008,0.0113 0.23242,0.40039 0.23242,0.40039 h 0.16602 c 0.008,0.0113 0.23047,0.39844 0.23047,0.39844 h 0.002 0.16602 c 0.008,0.0113 0.23047,0.39844 0.23047,0.39844 h 0.002 0.16797 c 0.008,0.0113 0.23047,0.40039 0.23047,0.40039 h 0.002 0.16602 c 0.008,0.0113 0.23046,0.39843 0.23047,0.39843 h 0.002 0.16797 c 0.008,0.0113 0.23047,0.4004 0.23047,0.4004 h 0.16796 c 0.008,0.0113 0.23047,0.39843 0.23047,0.39843 h 0.002 0.16601 c 0.008,0.0113 0.23047,0.39844 0.23047,0.39844 h 0.002 0.16797 c 0.008,0.0113 0.23047,0.40039 0.23047,0.40039 h 0.002 0.16602 c 0.008,0.0113 0.23047,0.39844 0.23047,0.39844 h 0.002 0.16797 c 0.008,0.0113 0.23047,0.40039 0.23047,0.40039 h 0.16797 c 0.008,0.0113 0.23047,0.39844 0.23047,0.39844 h 0.002 0.16602 c 0.008,0.0113 0.23046,0.39843 0.23046,0.39843 h 0.002 0.16797 c 0.008,0.0113 0.23046,0.4004 0.23046,0.4004 h 0.002 0.16601 c 0.008,0.0113 0.23047,0.39843 0.23047,0.39843 h 0.002 0.16796 c 0.008,0.0113 0.23047,0.40039 0.23047,0.40039 h 0.16797 c 0.008,0.0113 0.23047,0.39844 0.23047,0.39844 h 0.002 0.16602 c 0.008,0.0113 0.23047,0.39844 0.23047,0.39844 h 0.002 0.16797 c 0.008,0.0113 0.23047,0.40039 0.23047,0.40039 h 0.16797 c 0.008,0.0113 0.23047,0.39844 0.23047,0.39844 h 0.002 0.16797 c 0.008,0.0113 0.23047,0.40039 0.23047,0.40039 h 0.16797 c 0.008,0.0113 0.23046,0.39843 0.23046,0.39843 h 0.002 0.16601 c 0.008,0.0113 0.23047,0.39844 0.23047,0.39844 h 0.002 0.16796 c 0.008,0.0113 0.23047,0.40039 0.23047,0.40039 h 0.16797 c 0.008,0.0113 0.23047,0.39844 0.23047,0.39844 h 0.002 0.16602 c 0.008,0.0113 0.23047,0.39844 0.23047,0.39844 h 0.002 0.16797 c 0.008,0.0113 0.23047,0.40039 0.23047,0.40039 h 0.002 0.16602 c 0.008,0.0113 0.23047,0.39844 0.23047,0.39844 h 0.002 0.16797 c 0.008,0.0113 0.23047,0.40039 0.23047,0.40039 h 0.16797 c 0.008,0.0113 0.23046,0.39843 0.23046,0.39843 h 0.002 0.16601 c 0.008,0.0113 0.23047,0.39844 0.23047,0.39844 h 0.002 0.16797 c 0.008,0.0113 0.23047,0.40039 0.23047,0.40039 h 0.002 0.16602 c 0.008,0.0113 0.23047,0.39844 0.23047,0.39844 h 0.002 0.16797 c 0.008,0.0113 0.23047,0.40039 0.23047,0.40039 h 0.16797 c 0.008,0.0113 0.23047,0.39844 0.23047,0.39844 h 0.002 0.16602 c 0.008,0.0113 0.23047,0.39843 0.23047,0.39843 h 0.002 0.16797 c 0.008,0.0113 0.23047,0.4004 0.23047,0.4004 h 0.16796 c 0.008,0.0113 0.23047,0.39843 0.23047,0.39843 h 0.002 0.16796 c 0.008,0.0113 0.23047,0.40039 0.23047,0.40039 h 0.16797 l 0.23047,0.39844 h 0.002 0.16602 c 0.008,0.0113 0.23047,0.39844 0.23047,0.39844 h 0.002 0.16797 c 0.008,0.0113 0.23047,0.40039 0.23047,0.40039 h 0.16797 c 0.008,0.0113 0.23047,0.39844 0.23047,0.39844 h 0.002 0.16797 c 0.008,0.0113 0.23047,0.40039 0.23047,0.40039 h 0.16797 c 0.008,0.0113 0.23046,0.39844 0.23046,0.39844 h 0.002 0.16601 c 0.008,0.0113 0.23047,0.39843 0.23047,0.39843 h 0.002 0.16796 c 0.008,0.0113 0.23047,0.40039 0.23047,0.40039 h 0.16797 c 0.008,0.0113 0.23047,0.39844 0.23047,0.39844 h 0.002 0.16602 c 0.008,0.0113 0.23047,0.39844 0.23047,0.39844 h 0.002 0.16797 c 0.008,0.0113 0.23047,0.40039 0.23047,0.40039 h 0.002 0.16602 c 0.008,0.0113 0.23047,0.39844 0.23047,0.39844 h 0.002 0.16797 c 0.008,0.0113 0.23047,0.40039 0.23047,0.40039 h 0.16797 c 0.008,0.0113 0.23046,0.39843 0.23046,0.39843 h 0.002 0.16601 c 0.008,0.0113 0.23047,0.39844 0.23047,0.39844 h 0.002 0.16796 c 0.008,0.0113 0.23047,0.40039 0.23047,0.40039 h 0.002 0.16601 c 0.008,0.0113 0.23047,0.39844 0.23047,0.39844 h 0.002 0.16797 c 0.008,0.0113 0.23047,0.40039 0.23047,0.40039 h 0.16797 c 0.008,0.0113 0.23047,0.39844 0.23047,0.39844 h 0.002 0.16602 c 0.008,0.0113 0.23047,0.39844 0.23047,0.39844 h 0.002 0.16797 c 0.008,0.0113 0.23047,0.40039 0.23047,0.40039 h 0.16797 c 0.008,0.0113 0.23046,0.39843 0.23046,0.39843 h 0.002 0.16797 c 0.008,0.0113 0.23046,0.40039 0.23046,0.40039 h 0.16797 c 0.008,0.0113 0.23047,0.39844 0.23047,0.39844 h 0.002 0.16602 c 0.008,0.0113 0.23047,0.39844 0.23047,0.39844 h 0.002 0.16797 c 0.008,0.0113 0.23047,0.40039 0.23047,0.40039 h 0.16797 c 0.008,0.0113 0.23047,0.39844 0.23047,0.39844 h 0.002 0.16797 c 0.008,0.0113 0.23047,0.40039 0.23047,0.40039 h 0.16797 c 0.008,0.0113 0.23047,0.39844 0.23047,0.39844 h 0.002 0.16601 c 0.008,0.0113 0.23047,0.39843 0.23047,0.39843 h 0.002 0.16796 c 0.008,0.0113 0.23047,0.40039 0.23047,0.40039 h 0.16602 c 0.008,0.0113 0.23242,0.39844 0.23242,0.39844 h 0.002 0.16407 c 0.008,0.0113 0.23242,0.39844 0.23242,0.39844 h 0.16797 c 0.008,0.0113 0.23047,0.40039 0.23047,0.40039 h 0.002 0.16602 c 0.008,0.0113 0.23046,0.39844 0.23046,0.39844 h 0.002 0.16797 c 0.008,0.0113 0.23046,0.40039 0.23046,0.40039 h 0.16797 c 0.008,0.0113 0.23047,0.39844 0.23047,0.39844 h 0.002 0.16602 c 0.008,0.0113 0.23047,0.39843 0.23047,0.39843 h 0.002 0.16797 c 0.008,0.0113 0.23047,0.40039 0.23047,0.40039 h 0.16797 c 0.008,0.0113 0.23047,0.39844 0.23047,0.39844 h 0.002 0.16797 c 0.008,0.0113 0.23047,0.40039 0.23047,0.40039 h 0.16797 c 0.008,0.0113 0.23047,0.39844 0.23047,0.39844 h 0.002 0.16601 c 0.008,0.0113 0.23047,0.39844 0.23047,0.39844 h 0.002 0.16796 c 0.008,0.0113 0.23047,0.40039 0.23047,0.40039 h 0.16797 c 0.008,0.0113 0.23047,0.39843 0.23047,0.39843 h 0.002 0.16797 c 0.008,0.0113 0.23047,0.40039 0.23047,0.40039 h 0.16797 c 0.008,0.0113 0.23047,0.39844 0.23047,0.39844 h 0.002 0.16602 c 0.008,0.0113 0.23047,0.39844 0.23047,0.39844 h 0.002 0.16797 c 0.008,0.0113 0.23047,0.40039 0.23047,0.40039 h 0.16797 c 0.008,0.0113 0.23047,0.39844 0.23046,0.39844 h 0.002 0.16797 c 0.008,0.0113 0.23047,0.40039 0.23047,0.40039 h 0.16796 c 0.008,0.0113 0.23047,0.39844 0.23047,0.39844 h 0.002 0.16601 c 0.008,0.0113 0.23047,0.39843 0.23047,0.39843 h 0.002 0.16797 c 0.008,0.0113 0.23047,0.40039 0.23047,0.40039 h 0.16797 c 0.008,0.0113 0.23047,0.39844 0.23047,0.39844 h 0.002 0.16602 c 0.008,0.0113 0.23047,0.39844 0.23047,0.39844 h 0.002 0.16797 c 0.008,0.0113 0.23047,0.40039 0.23047,0.40039 h 0.16797 c 0.008,0.0113 0.23046,0.39844 0.23046,0.39844 h 0.002 0.16797 c 0.008,0.0113 0.23047,0.40039 0.23047,0.40039 h 0.16796 c 0.008,0.0113 0.23047,0.39844 0.23047,0.39844 h 0.002 0.16601 c 0.008,0.0113 0.23047,0.39843 0.23047,0.39843 h 0.002 0.16797 c 0.008,0.0113 0.23047,0.40039 0.23047,0.40039 h 0.16797 c 0.008,0.0113 0.23047,0.39844 0.23047,0.39844 h 0.002 0.16797 c 0.008,0.0113 0.23047,0.40039 0.23047,0.40039 h 0.16797 c 0.008,0.0113 0.23047,0.39844 0.23047,0.39844 h 0.002 0.16602 c 0.008,0.0113 0.23046,0.39844 0.23046,0.39844 h 0.002 0.16601 c 0.008,0.0113 0.23242,0.40039 0.23242,0.40039 h 0.16602 c 0.008,0.0113 0.23047,0.39844 0.23047,0.39844 h 0.002 0.16797 c 0.008,0.0113 0.23047,0.40039 0.23047,0.40039 h 0.16797 c 0.008,0.0113 0.23047,0.39843 0.23047,0.39843 h 0.002 0.16602 c 0.008,0.0113 0.23046,0.39844 0.23046,0.39844 h 0.002 0.16797 c 0.008,0.0113 0.23046,0.40039 0.23047,0.40039 h 0.16796 c 0.008,0.0113 0.23047,0.39844 0.23047,0.39844 h 0.002 0.16796 c 0.004,0.006 0.0631,0.10846 0.12305,0.21289 a 150,150 0 0 0 11.42969,0.57031 150,150 0 0 0 150,-150 150,150 0 0 0 -0.45899,-11.30078 c -0.0532,-0.092 -0.10937,-0.18945 -0.10937,-0.18945 h -0.16992 c -0.0113,-0.0189 -0.23047,-0.40039 -0.23047,-0.40039 h -0.16797 c -0.0113,-0.0151 -0.23047,-0.39844 -0.23047,-0.39844 h -0.16992 c -0.0113,-0.0151 -0.23047,-0.39844 -0.23047,-0.39844 h -0.16797 c -0.0113,-0.0151 -0.23047,-0.40039 -0.23047,-0.40039 h -0.16797 c -0.0113,-0.0151 -0.23046,-0.39844 -0.23046,-0.39844 h -0.16993 c -0.0113,-0.0151 -0.23047,-0.39843 -0.23047,-0.39843 h -0.16796 c -0.0113,-0.0151 -0.23047,-0.40039 -0.23047,-0.40039 h -0.16992 c -0.0113,-0.0151 -0.23047,-0.39844 -0.23047,-0.39844 h -0.16797 c -0.0113,-0.0151 -0.23047,-0.40039 -0.23047,-0.40039 h -0.16797 c -0.0113,-0.0151 -0.23047,-0.39844 -0.23047,-0.39844 h -0.16992 c -0.0113,-0.0151 -0.23047,-0.39844 -0.23047,-0.39844 h -0.16797 c -0.0113,-0.0151 -0.23047,-0.40039 -0.23047,-0.40039 h -0.16992 c -0.008,-0.0151 -0.23047,-0.39844 -0.23047,-0.39844 h -0.16797 c -0.008,-0.0151 -0.23046,-0.40039 -0.23046,-0.40039 h -0.16797 c -0.008,-0.0151 -0.23047,-0.39843 -0.23047,-0.39843 h -0.16992 c -0.008,-0.0151 -0.23047,-0.39844 -0.23047,-0.39844 h -0.16797 c -0.008,-0.0151 -0.23047,-0.40039 -0.23047,-0.40039 h -0.16797 c -0.008,-0.0151 -0.23047,-0.39844 -0.23047,-0.39844 h -0.16992 c -0.008,-0.0151 -0.23047,-0.40039 -0.23047,-0.40039 h -0.16797 c -0.008,-0.0151 -0.23047,-0.39844 -0.23047,-0.39844 h -0.17187 c -0.008,-0.0151 -0.23047,-0.39844 -0.23047,-0.39844 h -0.16797 c -0.008,-0.0151 -0.23047,-0.40039 -0.23047,-0.40039 h -0.16797 c -0.008,-0.0151 -0.23046,-0.39843 -0.23046,-0.39843 h -0.16993 c -0.008,-0.0151 -0.23047,-0.40039 -0.23047,-0.40039 h -0.16796 c -0.008,-0.0151 -0.23047,-0.39844 -0.23047,-0.39844 h -0.16992 c -0.008,-0.0151 -0.23047,-0.39844 -0.23047,-0.39844 h -0.16797 c -0.008,-0.0151 -0.23047,-0.40039 -0.23047,-0.40039 h -0.16797 c -0.008,-0.0151 -0.23047,-0.39844 -0.23047,-0.39844 h -0.16992 c -0.008,-0.0151 -0.23047,-0.39843 -0.23047,-0.39843 h -0.16797 c -0.008,-0.0151 -0.23047,-0.40039 -0.23047,-0.40039 h -0.16992 c -0.008,-0.0151 -0.23047,-0.39844 -0.23047,-0.39844 h -0.16797 c -0.008,-0.0151 -0.23046,-0.40039 -0.23046,-0.40039 h -0.16797 c -0.008,-0.0151 -0.23047,-0.39844 -0.23047,-0.39844 h -0.16992 c -0.008,-0.0151 -0.23047,-0.39844 -0.23047,-0.39844 h -0.16797 c -0.008,-0.0151 -0.23047,-0.40039 -0.23047,-0.40039 h -0.16797 c -0.008,-0.0151 -0.23047,-0.39844 -0.23047,-0.39844 h -0.16992 c -0.008,-0.0151 -0.23047,-0.40039 -0.23047,-0.40039 h -0.16797 c -0.008,-0.0151 -0.23047,-0.39843 -0.23047,-0.39843 h -0.16992 c -0.008,-0.0151 -0.23047,-0.39844 -0.23047,-0.39844 h -0.16796 c -0.008,-0.0151 -0.23047,-0.40039 -0.23047,-0.40039 h -0.16797 c -0.008,-0.0151 -0.23047,-0.39844 -0.23047,-0.39844 h -0.16992 c -0.008,-0.0151 -0.23047,-0.40039 -0.23047,-0.40039 h -0.16797 c -0.008,-0.0151 -0.23047,-0.39844 -0.23047,-0.39844 h -0.16992 c -0.008,-0.0151 -0.23047,-0.39844 -0.23047,-0.39844 h -0.16797 c -0.008,-0.0151 -0.23047,-0.40039 -0.23047,-0.40039 h -0.16797 c -0.008,-0.0151 -0.23046,-0.39843 -0.23046,-0.39843 h -0.16993 c -0.008,-0.0151 -0.23047,-0.40039 -0.23047,-0.40039 h -0.16796 c -0.008,-0.0151 -0.23047,-0.39844 -0.23047,-0.39844 h -0.16993 c -0.008,-0.0151 -0.23046,-0.39844 -0.23046,-0.39844 h -0.16797 c -0.008,-0.0151 -0.23047,-0.40039 -0.23047,-0.40039 h -0.16797 c -0.008,-0.0151 -0.23047,-0.39844 -0.23047,-0.39844 h -0.16992 c -0.008,-0.0151 -0.23047,-0.39844 -0.23047,-0.39844 h -0.16797 c -0.008,-0.0151 -0.23047,-0.40039 -0.23047,-0.40039 h -0.16797 c -0.008,-0.0151 -0.23046,-0.39843 -0.23046,-0.39843 h -0.16993 c -0.008,-0.0151 -0.23242,-0.40039 -0.23242,-0.40039 h -0.16601 c -0.008,-0.0151 -0.23243,-0.39844 -0.23243,-0.39844 h -0.16992 c -0.008,-0.0151 -0.23047,-0.39844 -0.23047,-0.39844 h -0.16796 c -0.008,-0.0151 -0.23047,-0.40039 -0.23047,-0.40039 h -0.16797 c -0.008,-0.0151 -0.23047,-0.39844 -0.23047,-0.39844 h -0.16992 c -0.008,-0.0151 -0.23047,-0.40039 -0.23047,-0.40039 h -0.16797 c -0.008,-0.0151 -0.23047,-0.39843 -0.23047,-0.39843 h -0.16992 c -0.008,-0.0151 -0.23047,-0.39844 -0.23047,-0.39844 h -0.16797 c -0.008,-0.0151 -0.23047,-0.40039 -0.23047,-0.40039 h -0.16797 c -0.008,-0.0151 -0.23047,-0.39844 -0.23046,-0.39844 h -0.16993 c -0.008,-0.0151 -0.23047,-0.40039 -0.23047,-0.40039 h -0.16796 c -0.008,-0.0151 -0.23047,-0.39844 -0.23047,-0.39844 h -0.16993 c -0.008,-0.0151 -0.23046,-0.39844 -0.23046,-0.39844 h -0.16797 c -0.008,-0.0151 -0.23047,-0.40039 -0.23047,-0.40039 h -0.16797 c -0.008,-0.0151 -0.23047,-0.39843 -0.23047,-0.39843 h -0.16992 c -0.008,-0.0151 -0.23047,-0.4004 -0.23047,-0.4004 h -0.16797 c -0.008,-0.0151 -0.23047,-0.39843 -0.23047,-0.39843 h -0.16992 c -0.008,-0.0151 -0.23047,-0.39844 -0.23047,-0.39844 h -0.16797 c -0.008,-0.0151 -0.23046,-0.40039 -0.23047,-0.40039 h -0.16796 c -0.008,-0.0151 -0.23047,-0.39844 -0.23047,-0.39844 h -0.16992 c -0.008,-0.0151 -0.23047,-0.39844 -0.23047,-0.39844 h -0.16797 c -0.008,-0.0151 -0.23047,-0.40039 -0.23047,-0.40039 h -0.16797 c -0.008,-0.0151 -0.23047,-0.39843 -0.23047,-0.39843 h -0.16992 c -0.008,-0.0151 -0.23047,-0.40039 -0.23047,-0.40039 h -0.16797 c -0.008,-0.0151 -0.23047,-0.39844 -0.23047,-0.39844 h -0.16992 c -0.008,-0.0151 -0.23047,-0.39844 -0.23047,-0.39844 h -0.16797 c -0.008,-0.0151 -0.23046,-0.40039 -0.23046,-0.40039 h -0.16797 c -0.008,-0.0151 -0.23047,-0.39844 -0.23047,-0.39844 h -0.17188 c -0.008,-0.0151 -0.23047,-0.40039 -0.23047,-0.40039 h -0.16796 c -0.008,-0.0151 -0.23047,-0.39844 -0.23047,-0.39844 h -0.16993 c -0.008,-0.0151 -0.23046,-0.39843 -0.23046,-0.39843 h -0.16797 c -0.008,-0.0151 -0.23047,-0.40039 -0.23047,-0.40039 h -0.16797 c -0.008,-0.0151 -0.23047,-0.39844 -0.23047,-0.39844 h -0.16992 c -0.008,-0.0151 -0.23047,-0.40039 -0.23047,-0.40039 h -0.16797 c -0.008,-0.0113 -0.23047,-0.39844 -0.23047,-0.39844 h -0.16992 c -0.008,-0.0113 -0.23047,-0.39844 -0.23047,-0.39844 h -0.16797 c -0.008,-0.0113 -0.23046,-0.40039 -0.23047,-0.40039 h -0.16796 c -0.008,-0.0113 -0.23047,-0.39843 -0.23047,-0.39843 h -0.16992 c -0.008,-0.0113 -0.23047,-0.4004 -0.23047,-0.4004 h -0.16797 c -0.008,-0.0113 -0.23047,-0.39843 -0.23047,-0.39843 h -0.16797 c -0.008,-0.0113 -0.23047,-0.39844 -0.23047,-0.39844 h -0.16992 c -0.008,-0.0113 -0.23047,-0.40039 -0.23047,-0.40039 h -0.16797 c -0.008,-0.0113 -0.23047,-0.39844 -0.23047,-0.39844 h -0.16992 c -0.008,-0.0113 -0.23047,-0.39844 -0.23047,-0.39844 h -0.16797 c -0.008,-0.0113 -0.23046,-0.40039 -0.23046,-0.40039 h -0.16797 c -0.008,-0.0113 -0.23047,-0.39843 -0.23047,-0.39843 h -0.16992 c -0.008,-0.0113 -0.23047,-0.4004 -0.23047,-0.4004 h -0.16797 c -0.008,-0.0113 -0.23047,-0.39843 -0.23047,-0.39843 h -0.16992 c -0.008,-0.0113 -0.23047,-0.39844 -0.23047,-0.39844 h -0.16797 c -0.008,-0.0113 -0.23047,-0.40039 -0.23047,-0.40039 h -0.16797 c -0.008,-0.0113 -0.23047,-0.39844 -0.23047,-0.39844 h -0.16992 c -0.008,-0.0113 -0.23047,-0.40039 -0.23047,-0.40039 h -0.16796 c -0.008,-0.0113 -0.23047,-0.39844 -0.23047,-0.39844 h -0.16993 c -0.008,-0.0113 -0.23046,-0.39843 -0.23046,-0.39843 h -0.16797 c -0.008,-0.0113 -0.23047,-0.40039 -0.23047,-0.40039 h -0.16797 c -0.008,-0.0113 -0.23047,-0.39844 -0.23047,-0.39844 h -0.16992 c -0.008,-0.0113 -0.23242,-0.40039 -0.23242,-0.40039 h -0.16602 c -0.008,-0.0113 -0.23047,-0.39844 -0.23047,-0.39844 h -0.16797 c -0.008,-0.0113 -0.23046,-0.39844 -0.23046,-0.39844 H -431.75 c -0.008,-0.0113 -0.23047,-0.40039 -0.23047,-0.40039 h -0.16601 c -0.008,-0.0113 -0.23243,-0.39844 -0.23243,-0.39844 h -0.16992 c -0.008,-0.0113 -0.23047,-0.40039 -0.23047,-0.40039 h -0.16797 c -0.008,-0.0113 -0.23046,-0.39843 -0.23046,-0.39843 h -0.16797 c -0.008,-0.0113 -0.23047,-0.39844 -0.23047,-0.39844 h -0.16992 c -0.008,-0.0113 -0.23047,-0.40039 -0.23047,-0.40039 h -0.16797 c -0.008,-0.0113 -0.23047,-0.39844 -0.23047,-0.39844 h -0.16992 c -0.008,-0.0113 -0.23047,-0.39844 -0.23047,-0.39844 h -0.16797 c -0.008,-0.0113 -0.23047,-0.40039 -0.23047,-0.40039 h -0.16797 c -0.008,-0.0113 -0.23047,-0.39843 -0.23047,-0.39843 h -0.16992 c -0.008,-0.0113 -0.23047,-0.4004 -0.23047,-0.4004 h -0.16796 c -0.008,-0.0113 -0.23047,-0.39843 -0.23047,-0.39843 h -0.16993 c -0.008,-0.0113 -0.23046,-0.39844 -0.23046,-0.39844 h -0.16797 c -0.008,-0.0113 -0.23047,-0.40039 -0.23047,-0.40039 h -0.16797 c -0.008,-0.0113 -0.23047,-0.39844 -0.23047,-0.39844 h -0.16992 c -0.008,-0.0113 -0.23047,-0.40039 -0.23047,-0.40039 h -0.16797 c -0.008,-0.0113 -0.23047,-0.39844 -0.23047,-0.39844 h -0.16992 c -0.008,-0.0113 -0.23047,-0.39843 -0.23047,-0.39843 h -0.16797 c -0.008,-0.0113 -0.23047,-0.4004 -0.23047,-0.4004 h -0.16796 c -0.008,-0.0113 -0.23047,-0.39843 -0.23047,-0.39843 h -0.16993 c -0.008,-0.0113 -0.23046,-0.40039 -0.23046,-0.40039 h -0.16797 c -0.008,-0.0113 -0.23047,-0.39844 -0.23047,-0.39844 h -0.16797 c -0.008,-0.0113 -0.23047,-0.39844 -0.23047,-0.39844 h -0.16992 c -0.008,-0.0113 -0.23047,-0.40039 -0.23047,-0.40039 h -0.16797 c -0.008,-0.0113 -0.23047,-0.39844 -0.23047,-0.39844 h -0.16992 c -0.008,-0.0113 -0.23047,-0.40039 -0.23047,-0.40039 h -0.16797 c -0.008,-0.0113 -0.23046,-0.39843 -0.23047,-0.39843 h -0.16796 c -0.008,-0.0113 -0.23047,-0.39844 -0.23047,-0.39844 h -0.16992 c -0.008,-0.0113 -0.23047,-0.40039 -0.23047,-0.40039 h -0.16797 c -0.008,-0.0113 -0.23047,-0.39844 -0.23047,-0.39844 h -0.16992 c -0.008,-0.0113 -0.23047,-0.39844 -0.23047,-0.39844 h -0.16797 c -0.008,-0.0113 -0.23047,-0.40039 -0.23047,-0.40039 h -0.16797 c -0.008,-0.0113 -0.23047,-0.39844 -0.23047,-0.39844 h -0.16992 c -0.008,-0.0113 -0.23047,-0.40039 -0.23047,-0.40039 h -0.16797 c -0.008,-0.0113 -0.23046,-0.39843 -0.23046,-0.39843 h -0.16993 c -0.008,-0.0113 -0.23047,-0.39844 -0.23046,-0.39844 h -0.16797 c -0.008,-0.0113 -0.23047,-0.40039 -0.23047,-0.40039 h -0.16797 c -0.008,-0.0113 -0.23047,-0.39844 -0.23047,-0.39844 h -0.16992 c -0.008,-0.0113 -0.23242,-0.40039 -0.23242,-0.40039 h -0.16602 c -0.008,-0.0113 -0.23047,-0.39844 -0.23047,-0.39844 h -0.16797 c -0.008,-0.0113 -0.23047,-0.39843 -0.23047,-0.39843 h -0.17187 c -0.008,-0.0113 -0.23047,-0.4004 -0.23047,-0.4004 h -0.16601 c -0.008,-0.0113 -0.23243,-0.39843 -0.23243,-0.39843 h -0.16992 c -0.008,-0.0113 -0.23047,-0.40039 -0.23047,-0.40039 h -0.16797 c -0.008,-0.0113 -0.23046,-0.39844 -0.23047,-0.39844 h -0.16796 c -0.008,-0.0113 -0.23047,-0.39844 -0.23047,-0.39844 h -0.16992 c -0.008,-0.0113 -0.23047,-0.40039 -0.23047,-0.40039 h -0.16797 c -0.008,-0.0113 -0.23047,-0.39844 -0.23047,-0.39844 h -0.16992 c -0.008,-0.0113 -0.23047,-0.40039 -0.23047,-0.40039 h -0.16797 c -0.008,-0.0113 -0.23047,-0.39844 -0.23047,-0.39844 h -0.16797 c -0.008,-0.0113 -0.23047,-0.39843 -0.23047,-0.39843 h -0.16992 c -0.008,-0.0113 -0.23047,-0.40039 -0.23047,-0.40039 h -0.16797 c -0.008,-0.0113 -0.23046,-0.39844 -0.23046,-0.39844 h -0.16993 c -0.008,-0.0113 -0.23046,-0.39844 -0.23046,-0.39844 h -0.16797 c -0.008,-0.0113 -0.23047,-0.40039 -0.23047,-0.40039 h -0.16797 c -0.008,-0.0113 -0.23047,-0.39844 -0.23047,-0.39844 h -0.16992 c -0.008,-0.0113 -0.23047,-0.40039 -0.23047,-0.40039 h -0.16797 c -0.008,-0.0113 -0.23047,-0.39843 -0.23047,-0.39843 h -0.16797 c -0.008,-0.0113 -0.23047,-0.39844 -0.23047,-0.39844 h -0.16992 c -0.008,-0.0113 -0.23047,-0.40039 -0.23047,-0.40039 h -0.16796 c -0.008,-0.0113 -0.23047,-0.39844 -0.23047,-0.39844 h -0.16993 c -0.008,-0.0113 -0.23046,-0.40039 -0.23046,-0.40039 h -0.16797 c -0.008,-0.0113 -0.23047,-0.39844 -0.23047,-0.39844 h -0.16797 c -0.008,-0.0113 -0.23047,-0.39844 -0.23047,-0.39844 h -0.16992 c -0.008,-0.0113 -0.23047,-0.40039 -0.23047,-0.40039 h -0.16797 c -0.008,-0.0113 -0.23047,-0.39843 -0.23047,-0.39843 h -0.16992 c -0.008,-0.0113 -0.23047,-0.40039 -0.23047,-0.40039 h -0.16797 c -0.008,-0.0113 -0.23047,-0.39844 -0.23047,-0.39844 h -0.16796 l -0.23047,-0.39844 h -0.16993 c -0.008,-0.0113 -0.23046,-0.40039 -0.23046,-0.40039 h -0.16797 c -0.008,-0.0113 -0.23047,-0.39844 -0.23047,-0.39844 h -0.16992 c -0.008,-0.0113 -0.23047,-0.40039 -0.23047,-0.40039 h -0.16797 c -0.008,-0.0113 -0.23047,-0.39844 -0.23047,-0.39844 h -0.16797 c -0.008,-0.0113 -0.23047,-0.39843 -0.23047,-0.39843 h -0.16992 l -0.23047,-0.40039 h -0.16797 l -0.23047,-0.39844 h -0.16992 l -0.23047,-0.39844 h -0.16796 c -0.008,-0.0113 -0.23047,-0.40039 -0.23047,-0.40039 h -0.16797 c -0.008,-0.0113 -0.23047,-0.39844 -0.23047,-0.39844 h -0.16992 l -0.23047,-0.39843 h -0.16797 l -0.23047,-0.4004 h -0.16797 l -0.23047,-0.39843 h -0.17187 l -0.23047,-0.40039 h -0.16602 l -0.23242,-0.39844 h -0.13867 -0.0273 l -0.23047,-0.40039 h -0.0703 -0.0996 l -0.23047,-0.39844 h -35 l 17.5,30.31055 17.5,30.3125 h -9.52149 c -0.004,-0.008 -0.19922,-0.34375 -0.19922,-0.34375 h -0.16796 c -0.008,-0.0113 -0.23047,-0.39844 -0.23047,-0.39844 h -0.002 -0.16796 c -0.008,-0.0113 -0.23047,-0.40039 -0.23047,-0.40039 h -0.16797 c -0.008,-0.0113 -0.23047,-0.39844 -0.23047,-0.39844 h -0.002 H -477 c -0.008,-0.0113 -0.23047,-0.39844 -0.23047,-0.39844 h -0.002 -0.16797 c -0.008,-0.0113 -0.23047,-0.40039 -0.23047,-0.40039 h -0.16797 c -0.008,-0.0113 -0.23047,-0.39843 -0.23047,-0.39843 h -0.002 -0.16797 c -0.008,-0.0113 -0.23047,-0.40039 -0.23047,-0.40039 h -0.16797 c -0.008,-0.0113 -0.23046,-0.39844 -0.23046,-0.39844 h -0.002 -0.16601 c -0.008,-0.0113 -0.23047,-0.39844 -0.23047,-0.39844 h -0.002 -0.16796 c -0.008,-0.0113 -0.23047,-0.40039 -0.23047,-0.40039 h -0.16797 c -0.008,-0.0113 -0.23047,-0.39844 -0.23047,-0.39844 h -0.002 -0.16797 c -0.008,-0.0113 -0.23047,-0.40039 -0.23047,-0.40039 h -0.16797 c -0.008,-0.0113 -0.23047,-0.39843 -0.23047,-0.39843 h -0.002 -0.16602 c -0.008,-0.0113 -0.23047,-0.39844 -0.23047,-0.39844 h -0.002 -0.16797 c -0.008,-0.0113 -0.23047,-0.40039 -0.23047,-0.40039 h -0.16797 c -0.008,-0.0113 -0.23046,-0.39844 -0.23046,-0.39844 h -0.002 -0.16797 c -0.008,-0.0113 -0.23047,-0.40039 -0.23047,-0.40039 h -0.16796 c -0.008,-0.0113 -0.23047,-0.39844 -0.23047,-0.39844 h -0.002 -0.16406 c -0.008,-0.0113 -0.23242,-0.39844 -0.23242,-0.39844 h -0.002 -0.16602 c -0.008,-0.0113 -0.23047,-0.40039 -0.23047,-0.40039 h -0.16797 c -0.008,-0.0113 -0.23047,-0.39843 -0.23046,-0.39843 h -0.002 -0.16797 c -0.008,-0.0113 -0.23047,-0.4004 -0.23047,-0.4004 h -0.16796 c -0.008,-0.0113 -0.23047,-0.39843 -0.23047,-0.39843 h -0.002 -0.16601 c -0.008,-0.0113 -0.23047,-0.39844 -0.23047,-0.39844 h -0.002 -0.16797 c -0.008,-0.0113 -0.23047,-0.40039 -0.23047,-0.40039 h -0.16797 c -0.008,-0.0113 -0.23047,-0.39844 -0.23047,-0.39844 h -0.002 -0.16602 c -0.008,-0.0113 -0.23047,-0.39844 -0.23047,-0.39844 h -0.002 -0.16797 c -0.008,-0.0113 -0.23047,-0.40039 -0.23047,-0.40039 h -0.16797 c -0.008,-0.0113 -0.23046,-0.39843 -0.23046,-0.39843 h -0.002 -0.16797 c -0.008,-0.0113 -0.23046,-0.40039 -0.23047,-0.40039 h -0.16796 c -0.008,-0.0113 -0.23047,-0.39844 -0.23047,-0.39844 h -0.002 -0.16601 c -0.008,-0.0113 -0.23047,-0.39844 -0.23047,-0.39844 h -0.002 -0.16797 c -0.008,-0.0113 -0.23047,-0.40039 -0.23047,-0.40039 h -0.16797 c -0.008,-0.0113 -0.23047,-0.39844 -0.23047,-0.39844 h -0.002 -0.16797 c -0.008,-0.0113 -0.23047,-0.40039 -0.23047,-0.40039 h -0.16797 c -0.008,-0.0113 -0.23242,-0.39844 -0.23242,-0.39844 h -0.002 -0.16407 c -0.008,-0.0113 -0.23242,-0.39843 -0.23242,-0.39843 h -0.16797 c -0.008,-0.0113 -0.23046,-0.40039 -0.23046,-0.40039 h -0.16797 c -0.008,-0.0113 -0.23047,-0.39844 -0.23047,-0.39844 h -0.002 -0.16797 c -0.008,-0.0113 -0.23047,-0.40039 -0.23047,-0.40039 h -0.16797 c -0.008,-0.0113 -0.23047,-0.39844 -0.23047,-0.39844 h -0.002 -0.16602 c -0.008,-0.0113 -0.23047,-0.39844 -0.23047,-0.39844 h -0.002 -0.16797 c -0.008,-0.0113 -0.23047,-0.40039 -0.23047,-0.40039 h -0.16797 c -0.008,-0.0113 -0.23047,-0.39843 -0.23047,-0.39843 h -0.002 -0.16797 c -0.008,-0.0113 -0.23047,-0.4004 -0.23047,-0.4004 h -0.16796 c -0.008,-0.0113 -0.23047,-0.39843 -0.23047,-0.39843 h -0.002 -0.16601 c -0.008,-0.0113 -0.23047,-0.39844 -0.23047,-0.39844 h -0.002 -0.16797 c -0.008,-0.0113 -0.23047,-0.40039 -0.23047,-0.40039 h -0.16797 c -0.008,-0.0113 -0.23047,-0.39844 -0.23047,-0.39844 h -0.002 -0.16602 c -0.008,-0.0113 -0.23047,-0.39844 -0.23047,-0.39844 h -0.002 -0.16797 c -0.008,-0.0113 -0.23047,-0.40039 -0.23047,-0.40039 h -0.002 -0.16602 c -0.008,-0.0113 -0.23046,-0.39843 -0.23046,-0.39843 h -0.002 -0.16797 c -0.008,-0.0113 -0.23047,-0.4004 -0.23047,-0.4004 h -0.16796 c -0.008,-0.0113 -0.23047,-0.39843 -0.23047,-0.39843 h -0.002 -0.16601 c -0.008,-0.0113 -0.23047,-0.39844 -0.23047,-0.39844 h -0.002 -0.16797 c -0.008,-0.0113 -0.23047,-0.40039 -0.23047,-0.40039 h -0.16797 c -0.008,-0.0113 -0.23047,-0.39844 -0.23047,-0.39844 h -0.002 -0.16797 c -0.008,-0.0113 -0.23047,-0.40039 -0.23047,-0.40039 h -0.16797 c -0.008,-0.0113 -0.23047,-0.39844 -0.23047,-0.39844 h -0.002 -0.16602 c -0.008,-0.0113 -0.23046,-0.39843 -0.23046,-0.39843 h -0.002 -0.16797 c -0.008,-0.0113 -0.23047,-0.40039 -0.23047,-0.40039 h -0.16796 c -0.008,-0.0113 -0.23047,-0.39844 -0.23047,-0.39844 h -0.002 -0.16796 c -0.008,-0.0113 -0.23047,-0.40039 -0.23047,-0.40039 h -0.16797 c -0.008,-0.0113 -0.23047,-0.39844 -0.23047,-0.39844 h -0.002 -0.16602 c -0.008,-0.0113 -0.23047,-0.39844 -0.23047,-0.39844 h -0.002 -0.16797 c -0.008,-0.0113 -0.23047,-0.40039 -0.23047,-0.40039 h -0.16797 c -0.008,-0.0113 -0.23047,-0.39844 -0.23047,-0.39844 h -0.002 -0.16797 c -0.008,-0.0113 -0.23047,-0.40039 -0.23047,-0.40039 h -0.16797 c -0.008,-0.0113 -0.23046,-0.39843 -0.23046,-0.39843 h -0.002 -0.16601 c -0.008,-0.0113 -0.23047,-0.39844 -0.23047,-0.39844 h -0.002 -0.16797 c -0.008,-0.0113 -0.23047,-0.40039 -0.23047,-0.40039 h -0.16797 c -0.008,-0.0113 -0.23047,-0.39844 -0.23047,-0.39844 h -0.002 -0.16602 c -0.008,-0.0113 -0.23047,-0.39844 -0.23047,-0.39844 h -0.002 -0.16797 c -0.008,-0.0113 -0.23047,-0.40039 -0.23047,-0.40039 h -0.002 -0.16602 c -0.008,-0.0113 -0.23047,-0.39843 -0.23047,-0.39843 h -0.002 -0.16601 c -0.008,-0.0113 -0.23243,-0.4004 -0.23243,-0.4004 h -0.16601 c -0.008,-0.0113 -0.23047,-0.39843 -0.23047,-0.39843 h -0.002 -0.16602 c -0.008,-0.0113 -0.23047,-0.39844 -0.23047,-0.39844 h -0.002 -0.16797 c -0.008,-0.0113 -0.23047,-0.40039 -0.23047,-0.40039 h -0.002 -0.16602 c -0.008,-0.0113 -0.23047,-0.39844 -0.23047,-0.39844 h -0.002 -0.16797 c -0.008,-0.0113 -0.23047,-0.40039 -0.23047,-0.40039 h -0.16797 c -0.008,-0.0113 -0.23046,-0.39844 -0.23046,-0.39844 h -0.002 -0.16601 c -0.008,-0.0113 -0.23047,-0.39843 -0.23047,-0.39843 h -0.002 -0.16797 c -0.008,-0.0113 -0.23047,-0.4004 -0.23047,-0.4004 h -0.16797 c -0.008,-0.0113 -0.23047,-0.39843 -0.23047,-0.39843 h -0.002 -0.16797 c -0.008,-0.0113 -0.23047,-0.40039 -0.23047,-0.40039 h -0.16797 c -0.008,-0.0113 -0.23047,-0.39844 -0.23047,-0.39844 h -0.002 -0.16602 c -0.008,-0.0113 -0.23047,-0.39844 -0.23047,-0.39844 h -0.002 -0.16797 c -0.008,-0.0113 -0.23047,-0.40039 -0.23047,-0.40039 h -0.16796 c -0.008,-0.0113 -0.23047,-0.39844 -0.23047,-0.39844 h -0.002 -0.16797 c -0.008,-0.0113 -0.23046,-0.40039 -0.23046,-0.40039 h -0.16797 c -0.008,-0.0113 -0.23047,-0.39843 -0.23047,-0.39843 h -0.002 -0.16601 c -0.008,-0.0113 -0.23047,-0.39844 -0.23047,-0.39844 h -0.002 -0.16797 c -0.008,-0.0113 -0.23047,-0.40039 -0.23047,-0.40039 h -0.16797 c -0.008,-0.0113 -0.23047,-0.39844 -0.23047,-0.39844 h -0.002 -0.16602 c -0.008,-0.0113 -0.23046,-0.39844 -0.23046,-0.39844 h -0.002 -0.16797 c -0.008,-0.0113 -0.23047,-0.40039 -0.23047,-0.40039 h -0.002 -0.16601 c -0.008,-0.0113 -0.23047,-0.39844 -0.23047,-0.39844 h -0.002 -0.16797 c -0.008,-0.0113 -0.23046,-0.40039 -0.23046,-0.40039 h -0.16797 c -0.008,-0.0113 -0.23047,-0.39843 -0.23047,-0.39843 h -0.002 -0.16602 c -0.008,-0.0113 -0.23047,-0.39844 -0.23047,-0.39844 h -0.002 -0.16797 c -0.008,-0.0113 -0.23047,-0.40039 -0.23047,-0.40039 h -0.002 -0.16602 c -0.008,-0.0113 -0.23047,-0.39844 -0.23047,-0.39844 h -0.002 -0.16797 c -0.008,-0.0113 -0.23047,-0.40039 -0.23047,-0.40039 h -0.16797 c -0.008,-0.0113 -0.23046,-0.39844 -0.23047,-0.39844 h -0.002 -0.16601 c -0.008,-0.0113 -0.23047,-0.39843 -0.23047,-0.39843 h -0.002 -0.16796 c -0.008,-0.0113 -0.23047,-0.4004 -0.23047,-0.4004 h -0.002 -0.16601 c -0.008,-0.0113 -0.23047,-0.39843 -0.23047,-0.39843 h -0.002 -0.16797 c -0.008,-0.0113 -0.23047,-0.40039 -0.23047,-0.40039 h -0.16797 c -0.008,-0.0113 -0.23047,-0.39844 -0.23047,-0.39844 h -0.002 -0.16602 c -0.008,-0.0113 -0.23047,-0.39844 -0.23047,-0.39844 h -0.002 -0.16797 c -0.008,-0.0113 -0.23047,-0.40039 -0.23047,-0.40039 h -0.16797 c -0.008,-0.0113 -0.23046,-0.39844 -0.23046,-0.39844 h -0.002 -0.16797 c -0.008,-0.0113 -0.23046,-0.40039 -0.23046,-0.40039 h -0.16797 c -0.008,-0.0113 -0.23047,-0.39844 -0.23047,-0.39844 h -0.002 -0.16601 c -0.008,-0.0113 -0.23047,-0.39843 -0.23047,-0.39843 h -0.002 -0.16797 c -0.008,-0.0113 -0.23047,-0.40039 -0.23047,-0.40039 h -0.16797 c -0.008,-0.0113 -0.23047,-0.39844 -0.23047,-0.39844 h -0.002 -0.16602 c -0.008,-0.0113 -0.23047,-0.39844 -0.23047,-0.39844 h -0.002 -0.16797 c -0.008,-0.0113 -0.23047,-0.40039 -0.23047,-0.40039 h -0.002 -0.16601 c -0.008,-0.0113 -0.23047,-0.39844 -0.23047,-0.39844 h -0.002 -0.16601 c -0.008,-0.0113 -0.23242,-0.40039 -0.23242,-0.40039 H -524.5 c -0.008,-0.0113 -0.23047,-0.39843 -0.23047,-0.39843 h -0.002 -0.16602 c -0.008,-0.0113 -0.23047,-0.39844 -0.23047,-0.39844 h -0.002 -0.16797 c -0.008,-0.0113 -0.23047,-0.40039 -0.23047,-0.40039 h -0.002 -0.16602 c -0.008,-0.0113 -0.23046,-0.39844 -0.23046,-0.39844 h -0.002 -0.16797 c -0.008,-0.0113 -0.23046,-0.40039 -0.23046,-0.40039 h -0.16797 c -0.008,-0.0113 -0.23047,-0.39844 -0.23047,-0.39844 h -0.002 -0.16601 c -0.008,-0.0113 -0.23047,-0.39844 -0.23047,-0.39844 h -0.002 -0.16797 c -0.008,-0.0113 -0.23047,-0.40039 -0.23047,-0.40039 h -0.002 -0.16602 c -0.008,-0.0113 -0.23047,-0.39843 -0.23047,-0.39843 h -0.002 -0.16797 c -0.008,-0.0113 -0.23047,-0.40039 -0.23047,-0.40039 h -0.16797 c -0.008,-0.0113 -0.23047,-0.39844 -0.23047,-0.39844 h -0.002 -0.16601 c -0.008,-0.0113 -0.23047,-0.39844 -0.23047,-0.39844 h -0.002 -0.16797 c -0.008,-0.0113 -0.23046,-0.40039 -0.23046,-0.40039 h -0.002 -0.16601 c -0.008,-0.0113 -0.23047,-0.39844 -0.23047,-0.39844 h -0.002 -0.16796 c -0.008,-0.0113 -0.23047,-0.40039 -0.23047,-0.40039 h -0.16797 c -0.008,-0.0113 -0.23047,-0.39844 -0.23047,-0.39844 h -0.002 -0.16602 c -0.008,-0.0113 -0.23047,-0.39843 -0.23047,-0.39843 h -0.002 -0.16797 c -0.008,-0.0113 -0.23047,-0.40039 -0.23047,-0.40039 h -0.16797 c -0.008,-0.0113 -0.23047,-0.39844 -0.23047,-0.39844 h -0.002 -0.16601 c -0.008,-0.0113 -0.23047,-0.39844 -0.23047,-0.39844 h -0.002 -0.16797 c -0.008,-0.0113 -0.23046,-0.40039 -0.23046,-0.40039 h -0.002 -0.16601 c -0.008,-0.0113 -0.23047,-0.39844 -0.23047,-0.39844 h -0.002 -0.16797 c -0.008,-0.0113 -0.23047,-0.40039 -0.23047,-0.40039 h -0.16797 c -0.008,-0.0113 -0.23047,-0.39843 -0.23047,-0.39844 h -0.002 -0.16602 c -0.008,-0.0113 -0.23047,-0.39843 -0.23047,-0.39843 h -0.002 -0.16797 c -0.008,-0.0113 -0.23047,-0.40039 -0.23047,-0.40039 h -0.002 -0.16602 c -0.008,-0.0113 -0.23047,-0.39844 -0.23047,-0.39844 h -0.002 -0.16797 c -0.008,-0.0113 -0.23047,-0.40039 -0.23047,-0.40039 h -0.16796 l -0.23047,-0.39844 h -0.002 -34.99804 -0.002 z"
         style="opacity:0.48200001;fill:url(#linearGradient8356);fill-opacity:1;stroke:none;stroke-width:19.09347534;stroke-linecap:round;stroke-linejoin:bevel;stroke-miterlimit:4;stroke-dasharray:none;stroke-opacity:1;paint-order:normal"
         inkscape:connector-curvature="0" />
      <path
         inkscape:export-ydpi="163.84"
         inkscape:export-xdpi="163.84"
         style="opacity:1;fill:#66ff00;fill-opacity:1;stroke:none;stroke-width:1.33662617;stroke-linecap:round;stroke-linejoin:bevel;stroke-miterlimit:4;stroke-dasharray:none;stroke-opacity:1;paint-order:normal"
         d="m -132.52809,269.17427 4.63021,8.01966 4.6302,8.02018 4.63021,8.01967 4.63021,-8.01967 -4.63021,-8.02018 -4.63021,-8.01966 z"
         id="path907-7"
         inkscape:connector-curvature="0" />
      <path
         inkscape:export-ydpi="163.84"
         inkscape:export-xdpi="163.84"
         style="opacity:1;fill:#44aa00;fill-opacity:1;stroke:none;stroke-width:1.33662617;stroke-linecap:round;stroke-linejoin:bevel;stroke-miterlimit:4;stroke-dasharray:none;stroke-opacity:1;paint-order:normal"
         d="m -114.00726,285.21411 -4.63021,8.01967 -4.63021,8.01966 -4.6302,8.01967 -4.63021,8.01967 h 9.26041 l 4.63021,-8.01967 4.63021,-8.01967 4.63021,-8.01966 z"
         id="path913-0"
         inkscape:connector-curvature="0" />
      <path
         inkscape:export-ydpi="163.84"
         inkscape:export-xdpi="163.84"
         style="opacity:1;fill:#00ccff;fill-opacity:1;stroke:none;stroke-width:1.33662617;stroke-linecap:round;stroke-linejoin:bevel;stroke-miterlimit:4;stroke-dasharray:none;stroke-opacity:1;paint-order:normal"
         d="m -155.67913,309.27311 4.6302,8.01967 h 9.26042 l 4.63021,-8.01967 h -9.26042 z"
         id="path825-5"
         inkscape:connector-curvature="0" />
      <path
         inkscape:export-ydpi="163.84"
         inkscape:export-xdpi="163.84"
         style="opacity:1;fill:#00aad4;fill-opacity:1;stroke:none;stroke-width:1.33662617;stroke-linecap:round;stroke-linejoin:bevel;stroke-miterlimit:4;stroke-dasharray:none;stroke-opacity:1;paint-order:normal"
         d="m -164.93955,293.23378 -4.63021,8.01966 4.63021,8.01967 4.63021,8.01967 h 9.26041 l -4.6302,-8.01967 -4.63021,-8.01967 z"
         id="path827-0"
         inkscape:connector-curvature="0" />
      <path
         inkscape:export-ydpi="163.84"
         inkscape:export-xdpi="163.84"
         style="opacity:1;fill:#2c89a0;fill-opacity:1;stroke:none;stroke-width:1.33662617;stroke-linecap:round;stroke-linejoin:bevel;stroke-miterlimit:4;stroke-dasharray:none;stroke-opacity:1;paint-order:normal"
         d="m -164.93955,277.19393 -4.63021,8.02018 -4.63021,8.01967 4.63021,8.01966 4.63021,-8.01966 4.63021,-8.01967 4.63021,-8.02018 z"
         id="path831-4"
         inkscape:connector-curvature="0" />
      <path
         inkscape:export-ydpi="163.84"
         inkscape:export-xdpi="163.84"
         style="opacity:1;fill:#216778;fill-opacity:1;stroke:none;stroke-width:1.33662617;stroke-linecap:round;stroke-linejoin:bevel;stroke-miterlimit:4;stroke-dasharray:none;stroke-opacity:1;paint-order:normal"
         d="m -160.30934,269.17427 -4.63021,8.01966 h 9.26042 9.26041 9.26042 l -4.63021,-8.01966 h -9.26042 z"
         id="path845-9"
         inkscape:connector-curvature="0" />
      <path
         inkscape:export-ydpi="163.84"
         inkscape:export-xdpi="163.84"
         style="opacity:1;fill:#55ddff;fill-opacity:1;stroke:none;stroke-width:1.33662617;stroke-linecap:round;stroke-linejoin:bevel;stroke-miterlimit:4;stroke-dasharray:none;stroke-opacity:1;paint-order:normal"
         d="m -155.67913,293.23378 4.6302,8.01966 h 9.26042 l 4.63021,-8.01966 h -9.26042 z"
         id="path871-3"
         inkscape:connector-curvature="0" />
      <path
         inkscape:export-ydpi="163.84"
         inkscape:export-xdpi="163.84"
         style="opacity:1;fill:#2ad4ff;fill-opacity:1;stroke:none;stroke-width:1.33662617;stroke-linecap:round;stroke-linejoin:bevel;stroke-miterlimit:4;stroke-dasharray:none;stroke-opacity:1;paint-order:normal"
         d="m -137.15838,293.23375 -4.63021,8.01966 -4.63021,8.01967 h 9.26042 l 4.6302,-8.01967 z"
         id="path877-2"
         inkscape:connector-curvature="0" />
      <path
         inkscape:export-ydpi="163.84"
         inkscape:export-xdpi="163.84"
         style="opacity:1;fill:#55d400;fill-opacity:1;stroke:none;stroke-width:1.33662617;stroke-linecap:round;stroke-linejoin:bevel;stroke-miterlimit:4;stroke-dasharray:none;stroke-opacity:1;paint-order:normal"
         d="m -132.52809,285.21411 -4.63021,8.01967 h 9.26042 l 4.6302,8.01966 4.63021,-8.01966 -4.63021,-8.01967 z"
         id="path1105"
         inkscape:connector-curvature="0" />
    </g>
  </g>
</svg>
