<?xml version="1.0" encoding="UTF-8" standalone="no"?>
<!-- Created with Inkscape (http://www.inkscape.org/) -->

<svg
   xmlns:dc="http://purl.org/dc/elements/1.1/"
   xmlns:cc="http://creativecommons.org/ns#"
   xmlns:rdf="http://www.w3.org/1999/02/22-rdf-syntax-ns#"
   xmlns:svg="http://www.w3.org/2000/svg"
   xmlns="http://www.w3.org/2000/svg"
   xmlns:sodipodi="http://sodipodi.sourceforge.net/DTD/sodipodi-0.dtd"
   xmlns:inkscape="http://www.inkscape.org/namespaces/inkscape"
   width="42.044769mm"
   height="7.8687081mm"
   viewBox="0 0 42.044769 7.8687081"
   version="1.1"
   id="svg8"
   inkscape:version="0.92.1 r15371"
   sodipodi:docname="germinate-text.svg">
  <defs
     id="defs2" />
  <sodipodi:namedview
     id="base"
     pagecolor="#ffffff"
     bordercolor="#666666"
     borderopacity="1.0"
     inkscape:pageopacity="0.0"
     inkscape:pageshadow="2"
     inkscape:zoom="2.8"
     inkscape:cx="179.66101"
     inkscape:cy="-83.164364"
     inkscape:document-units="mm"
     inkscape:current-layer="layer1"
     showgrid="false"
     fit-margin-top="0"
     fit-margin-left="0"
     fit-margin-right="0"
     fit-margin-bottom="0"
     inkscape:window-width="3440"
     inkscape:window-height="1377"
     inkscape:window-x="-8"
     inkscape:window-y="-8"
     inkscape:window-maximized="1" />
  <metadata
     id="metadata5">
    <rdf:RDF>
      <cc:Work
         rdf:about="">
        <dc:format>image/svg+xml</dc:format>
        <dc:type
           rdf:resource="http://purl.org/dc/dcmitype/StillImage" />
        <dc:title></dc:title>
      </cc:Work>
    </rdf:RDF>
  </metadata>
  <g
     inkscape:label="Layer 1"
     inkscape:groupmode="layer"
     id="layer1"
     transform="translate(-35.144228,-60.965961)">
    <path
       inkscape:connector-curvature="0"
       id="path4489"
       style="font-style:normal;font-variant:normal;font-weight:normal;font-stretch:normal;font-size:medium;line-height:1.25;font-family:Glasgow;-inkscape-font-specification:Glasgow;letter-spacing:0px;word-spacing:0px;fill:#00aad4;fill-opacity:1;stroke:none;stroke-width:0.26458332"
       d="m 40.012561,61.611544 -0.370416,0.719667 -0.338667,-0.22225 q -0.613833,-0.328083 -1.164167,-0.328083 -0.677333,0 -1.132416,0.486833 -0.455084,0.47625 -0.53975,1.121833 -0.07408,0.635 -0.08467,0.963083 -0.01058,0.328084 -0.01058,0.85725 v 0.22225 q 0,1.312334 0.455083,1.93675 0.455083,0.613834 1.312333,0.613834 0.07408,0 0.15875,0 0.105834,-0.02117 0.22225,-0.03175 0.116417,-0.02117 0.264584,-0.05292 0.15875,-0.04233 0.338666,-0.127 l 0.09525,-0.04233 0.09525,-0.04233 v -2.402416 h -1.61925 v -0.772584 h 2.667 v 3.767667 l -0.179916,0.07408 -0.275167,0.105834 q -0.751417,0.275166 -1.164167,0.3175 -0.41275,0.05292 -0.66675,0.05292 -1.397,0 -2.169583,-0.931333 -0.762,-0.931333 -0.762,-2.76225 0,-0.433917 0.02117,-0.656167 0.02117,-0.22225 0.105833,-1.068916 0.08467,-0.846667 0.79375,-1.640417 0.719667,-0.804333 1.926167,-0.804333 0.105833,0 0.201083,0 0.09525,0 0.529167,0.05292 0.433916,0.05292 1.121833,0.486833 z" />
    <path
       inkscape:connector-curvature="0"
       id="path4491"
       style="font-style:normal;font-variant:normal;font-weight:normal;font-stretch:normal;font-size:medium;line-height:1.25;font-family:Glasgow;-inkscape-font-specification:Glasgow;letter-spacing:0px;word-spacing:0px;fill:#00aad4;fill-opacity:1;stroke:none;stroke-width:0.26458332"
       d="m 45.748562,66.374044 h -3.280833 l 0.02117,0.232833 q 0.116416,0.677334 0.53975,1.058334 0.433916,0.370416 1.121833,0.370416 0.433917,0 0.994833,-0.179916 l 0.137584,-0.05292 0.105833,-0.04233 0.1905,0.762 -0.137583,0.04233 -0.127,0.04233 q -0.762,0.22225 -1.397,0.22225 -1.2065,0 -1.883834,-0.740833 -0.677333,-0.740833 -0.677333,-2.053167 0,-1.217083 0.497417,-1.915583 0.508,-0.6985 1.058333,-0.772583 0.560917,-0.08467 0.751417,-0.08467 0.98425,0 1.545166,0.687917 0.560917,0.687916 0.560917,1.989666 z m -3.3655,-0.677333 h 2.391834 v -0.169334 q 0,-0.719666 -0.3175,-1.11125 -0.306917,-0.391583 -0.8255,-0.391583 -0.0635,0 -0.370417,0.05292 -0.306917,0.04233 -0.592667,0.41275 -0.275166,0.370416 -0.275166,1.026583 z" />
    <path
       inkscape:connector-curvature="0"
       id="path4493"
       style="font-style:normal;font-variant:normal;font-weight:normal;font-stretch:normal;font-size:medium;line-height:1.25;font-family:Glasgow;-inkscape-font-specification:Glasgow;letter-spacing:0px;word-spacing:0px;fill:#00aad4;fill-opacity:1;stroke:none;stroke-width:0.26458332"
       d="m 46.662697,68.702377 v -5.291666 l 1.005417,-0.04233 v 0.423334 l 0.09525,-0.07408 q 0.275167,-0.211666 0.518583,-0.306916 0.243417,-0.105834 0.53975,-0.105834 h 0.15875 l -0.105833,0.963084 -0.137583,-0.02117 q -0.359834,0 -0.5715,0.04233 -0.201084,0.03175 -0.41275,0.169334 l -0.08467,0.05292 v 4.191 z" />
    <path
       inkscape:connector-curvature="0"
       id="path4495"
       style="font-style:normal;font-variant:normal;font-weight:normal;font-stretch:normal;font-size:medium;line-height:1.25;font-family:Glasgow;-inkscape-font-specification:Glasgow;letter-spacing:0px;word-spacing:0px;fill:#00aad4;fill-opacity:1;stroke:none;stroke-width:0.26458332"
       d="m 49.473895,68.702377 v -5.291666 l 0.994833,-0.127 v 0.41275 l 0.09525,-0.0635 0.116417,-0.0635 q 0.296333,-0.169334 0.582083,-0.243417 0.28575,-0.07408 0.5715,-0.07408 0.910167,0 1.3335,0.645583 l 0.116417,-0.08467 q 0.306916,-0.22225 0.6985,-0.381 0.391583,-0.169333 0.846666,-0.169333 0.656167,0 1.090083,0.381 0.433917,0.381 0.433917,0.963083 0.02117,0.105834 0.02117,0.22225 0,0.116417 0,0.232834 v 3.640666 h -0.994833 v -3.429 l -0.01058,-0.328083 q 0,-0.381 -0.264583,-0.613833 -0.254,-0.243417 -0.645583,-0.243417 -0.137584,0 -0.28575,0.04233 -0.137584,0.03175 -0.201084,0.05292 -0.05292,0.01058 -0.232833,0.116417 -0.179917,0.09525 -0.338667,0.254 v 4.148666 h -0.994833 v -3.407833 -0.381 q 0,-0.359833 -0.264583,-0.592667 -0.254,-0.243416 -0.656167,-0.243416 -0.148167,0 -0.359833,0.05292 l -0.275167,0.09525 q -0.22225,0.105834 -0.381,0.254 v 4.22275 z" />
    <path
       inkscape:connector-curvature="0"
       id="path4497"
       style="font-style:normal;font-variant:normal;font-weight:normal;font-stretch:normal;font-size:medium;line-height:1.25;font-family:Glasgow;-inkscape-font-specification:Glasgow;letter-spacing:0px;word-spacing:0px;fill:#00aad4;fill-opacity:1;stroke:none;stroke-width:0.26458332"
       d="m 57.546001,68.702377 v -5.291666 l 0.994834,-0.127 v 5.418666 z m -0.07408,-7.016749 q 0,-0.455084 0.22225,-0.53975 0.22225,-0.09525 0.402167,-0.09525 0.529166,0 0.529166,0.635 0,0.624416 -0.518583,0.624416 -0.169333,0 -0.402167,-0.08467 -0.232833,-0.08467 -0.232833,-0.53975 z" />
    <path
       inkscape:connector-curvature="0"
       id="path4499"
       style="font-style:normal;font-variant:normal;font-weight:normal;font-stretch:normal;font-size:medium;line-height:1.25;font-family:Glasgow;-inkscape-font-specification:Glasgow;letter-spacing:0px;word-spacing:0px;fill:#00aad4;fill-opacity:1;stroke:none;stroke-width:0.26458332"
       d="m 59.7265,68.702377 v -5.291666 l 0.98425,-0.137584 v 0.486834 l 0.116417,-0.07408 0.148166,-0.07408 0.254,-0.127 q 0.550334,-0.243417 1.0795,-0.243417 0.677334,0 1.121834,0.370417 0.4445,0.370417 0.4445,0.941917 l 0.02117,0.455083 v 3.693583 H 62.9015 v -3.46075 l -0.01058,-0.3175 q 0,-0.370416 -0.264584,-0.60325 -0.254,-0.243416 -0.677333,-0.243416 -0.338667,0 -0.772583,0.1905 l -0.22225,0.116416 -0.232834,0.15875 v 4.15925 z" />
    <path
       inkscape:connector-curvature="0"
       id="path4501"
       style="font-style:normal;font-variant:normal;font-weight:normal;font-stretch:normal;font-size:medium;line-height:1.25;font-family:Glasgow;-inkscape-font-specification:Glasgow;letter-spacing:0px;word-spacing:0px;fill:#00aad4;fill-opacity:1;stroke:none;stroke-width:0.26458332"
       d="m 68.022841,65.516794 v -0.518583 q 0,-0.486834 -0.232833,-0.709084 -0.22225,-0.232833 -0.772583,-0.232833 l -0.381,0.02117 q -0.306917,0.05292 -0.402167,0.07408 -0.08467,0.01058 -0.338667,0.09525 l -0.201083,0.0635 -0.169333,0.0635 -0.254,-0.783167 0.201083,-0.05292 0.264583,-0.07408 q 0.338667,-0.08467 0.582084,-0.127 0.243416,-0.05292 0.433916,-0.05292 1.27,0 1.767417,0.34925 0.497416,0.34925 0.497416,1.248833 v 3.820583 h -0.941916 l -0.03175,-0.486833 -0.116417,0.08467 q -0.592666,0.455083 -0.910166,0.486833 -0.306917,0.03175 -0.4445,0.04233 -0.127,0.01058 -0.201084,0 -0.719666,0 -1.164166,-0.465666 -0.4445,-0.465667 -0.4445,-1.185334 0,-0.179916 0.07408,-0.613833 0.08467,-0.4445 0.592667,-0.8255 0.518583,-0.381 1.386416,-0.381 0.338667,0 0.719667,0.0635 l 0.232833,0.04233 0.127,0.03175 z m 0,0.582083 -0.137583,-0.02117 -0.1905,-0.02117 q -0.254,-0.03175 -0.47625,-0.03175 -0.53975,0 -0.878417,0.1905 -0.328083,0.1905 -0.423333,0.455083 -0.08467,0.264584 -0.08467,0.4445 0,0.391584 0.28575,0.656167 0.28575,0.264583 0.762,0.264583 0.264584,0 0.486834,-0.07408 0.232833,-0.07408 0.508,-0.275167 l 0.148166,-0.105833 z" />
    <path
       inkscape:connector-curvature="0"
       id="path4503"
       style="font-style:normal;font-variant:normal;font-weight:normal;font-stretch:normal;font-size:medium;line-height:1.25;font-family:Glasgow;-inkscape-font-specification:Glasgow;letter-spacing:0px;word-spacing:0px;fill:#00aad4;fill-opacity:1;stroke:none;stroke-width:0.26458332"
       d="m 69.624892,64.066877 v -0.66675 h 0.656167 v -0.878416 l 0.994833,-0.15875 v 1.037166 h 1.04775 v 0.66675 l -1.037167,0.09525 v 3.175 q 0,0.41275 0.09525,0.5715 0.105834,0.15875 0.381,0.15875 0.09525,0 0.148167,-0.01058 l 0.09525,-0.01058 0.07408,-0.02117 0.09525,-0.03175 0.08467,-0.02117 0.07408,-0.03175 v 0.73025 l -0.08467,0.03175 -0.0635,0.02117 -0.3175,0.0635 q -0.254,0.03175 -0.455084,0.03175 -1.132416,0 -1.132416,-1.185333 V 64.13038 Z" />
    <path
       inkscape:connector-curvature="0"
       id="path4505"
       style="font-style:normal;font-variant:normal;font-weight:normal;font-stretch:normal;font-size:medium;line-height:1.25;font-family:Glasgow;-inkscape-font-specification:Glasgow;letter-spacing:0px;word-spacing:0px;fill:#00aad4;fill-opacity:1;stroke:none;stroke-width:0.26458332"
       d="m 77.167831,66.374044 h -3.280833 l 0.02117,0.232833 q 0.116417,0.677334 0.53975,1.058334 0.433917,0.370416 1.121834,0.370416 0.433916,0 0.994833,-0.179916 l 0.137583,-0.05292 0.105833,-0.04233 0.1905,0.762 -0.137583,0.04233 -0.127,0.04233 q -0.762,0.22225 -1.397,0.22225 -1.2065,0 -1.883833,-0.740833 -0.677333,-0.740833 -0.677333,-2.053167 0,-1.217083 0.497416,-1.915583 0.508,-0.6985 1.058334,-0.772583 0.560916,-0.08467 0.751416,-0.08467 0.98425,0 1.545167,0.687917 0.560916,0.687916 0.560916,1.989666 z m -3.3655,-0.677333 h 2.391833 v -0.169334 q 0,-0.719666 -0.3175,-1.11125 -0.306916,-0.391583 -0.8255,-0.391583 -0.0635,0 -0.370416,0.05292 -0.306917,0.04233 -0.592667,0.41275 -0.275167,0.370416 -0.275167,1.026583 z" />
  </g>
</svg>
