<?xml version="1.0" encoding="UTF-8" standalone="no"?>
<!-- Created with Inkscape (http://www.inkscape.org/) -->

<svg
   xmlns:dc="http://purl.org/dc/elements/1.1/"
   xmlns:cc="http://creativecommons.org/ns#"
   xmlns:rdf="http://www.w3.org/1999/02/22-rdf-syntax-ns#"
   xmlns:svg="http://www.w3.org/2000/svg"
   xmlns="http://www.w3.org/2000/svg"
   xmlns:xlink="http://www.w3.org/1999/xlink"
   xmlns:sodipodi="http://sodipodi.sourceforge.net/DTD/sodipodi-0.dtd"
   xmlns:inkscape="http://www.inkscape.org/namespaces/inkscape"
   width="512"
   height="512"
   viewBox="0 0 135.46666 135.46667"
   version="1.1"
   id="svg4951"
   inkscape:version="0.92.1 r15371"
   sodipodi:docname="germinate-square2.svg">
  <sodipodi:namedview
     id="base"
     pagecolor="#ffffff"
     bordercolor="#666666"
     borderopacity="1.0"
     inkscape:pageopacity="0.0"
     inkscape:pageshadow="2"
     inkscape:zoom="0.5"
     inkscape:cx="182.54957"
     inkscape:cy="134.1477"
     inkscape:document-units="mm"
     inkscape:current-layer="layer1"
     showgrid="false"
     units="px"
     inkscape:window-width="1920"
     inkscape:window-height="1017"
     inkscape:window-x="-8"
     inkscape:window-y="-8"
     inkscape:window-maximized="1">
    <inkscape:grid
       type="xygrid"
       id="grid5751" />
  </sodipodi:namedview>
  <defs
     id="defs4945">
    <linearGradient
       inkscape:collect="always"
       id="linearGradient6581">
      <stop
         style="stop-color:#0e0000;stop-opacity:1"
         offset="0"
         id="stop6577" />
      <stop
         style="stop-color:#00000e;stop-opacity:0"
         offset="1"
         id="stop6579" />
    </linearGradient>
    <linearGradient
       inkscape:collect="always"
       xlink:href="#linearGradient6581"
       id="linearGradient6583"
       x1="32.914185"
       y1="192.36743"
       x2="134.40833"
       y2="296.47083"
       gradientUnits="userSpaceOnUse"
       gradientTransform="matrix(3.7795276,0,0,3.7795276,0,-610.51963)" />
  </defs>
  <metadata
     id="metadata4948">
    <rdf:RDF>
      <cc:Work
         rdf:about="">
        <dc:format>image/svg+xml</dc:format>
        <dc:type
           rdf:resource="http://purl.org/dc/dcmitype/StillImage" />
        <dc:title></dc:title>
      </cc:Work>
    </rdf:RDF>
  </metadata>
  <g
     inkscape:label="Layer 1"
     inkscape:groupmode="layer"
     id="layer1"
     transform="translate(0,-161.53332)">
    <circle
       inkscape:export-ydpi="163.84"
       inkscape:export-xdpi="163.84"
       style="opacity:1;fill:#e6e6e6;fill-opacity:1;stroke:none;stroke-width:6.1052413;stroke-linecap:round;stroke-linejoin:round;stroke-miterlimit:4;stroke-dasharray:none;stroke-opacity:1;paint-order:fill markers stroke"
       id="path6239"
       cx="67.733337"
       cy="229.26665"
       r="67.733337" />
    <path
       style="opacity:0.29200003;fill:url(#linearGradient6583);fill-opacity:1;stroke:none;stroke-width:32.58620071;stroke-linecap:round;stroke-linejoin:bevel;stroke-miterlimit:4;stroke-dasharray:none;stroke-opacity:1;paint-order:normal"
       d="M 196.26758 100.80859 C 136.53266 100.80874 136.53106 100.80924 106.66602 152.53906 L 106.66406 152.54102 L 76.800781 204.27148 L 76.798828 204.27344 C 46.931913 256.00149 46.932959 256.00702 76.800781 307.73242 L 76.802734 307.73438 C 77.03423 308.13535 106.66602 359.46094 106.66602 359.46094 C 118.18326 379.22076 125.30311 391.41743 133.01562 398.96484 C 133.28526 399.24151 133.55725 399.51052 133.82812 399.77539 C 134.08404 400.03769 134.34062 400.29508 134.59766 400.54688 C 134.86479 400.82089 135.13399 401.08885 135.40234 401.35156 C 135.67024 401.62633 135.93986 401.89481 136.20898 402.1582 C 136.47862 402.43486 136.7506 402.70388 137.02148 402.96875 C 137.28239 403.23596 137.54458 403.49747 137.80664 403.75391 C 138.06565 404.01961 138.32578 404.28026 138.58594 404.53516 C 138.85425 404.81068 139.12497 405.07983 139.39453 405.34375 C 139.66242 405.61852 139.93204 405.88703 140.20117 406.15039 C 140.4708 406.42705 140.74279 406.69607 141.01367 406.96094 C 141.27457 407.22815 141.53676 407.48965 141.79883 407.74609 C 142.05693 408.01066 142.31694 408.26942 142.57617 408.52344 C 142.84679 408.80123 143.11876 409.07373 143.39062 409.33984 C 143.6572 409.6131 143.92556 409.88051 144.19336 410.14258 C 144.46299 410.41924 144.73498 410.68826 145.00586 410.95312 C 145.26177 411.21542 145.51835 411.47282 145.77539 411.72461 C 146.04253 411.99863 146.31172 412.26654 146.58008 412.5293 C 146.84797 412.80407 147.11758 413.07258 147.38672 413.33594 C 147.65635 413.6126 147.92834 413.88162 148.19922 414.14648 C 148.46012 414.4137 148.7223 414.67516 148.98438 414.93164 C 149.24339 415.19734 149.50352 415.458 149.76367 415.71289 C 150.03202 415.98842 150.30269 416.25756 150.57227 416.52148 C 150.84016 416.79626 151.10977 417.06477 151.37891 417.32812 C 151.64854 417.60479 151.92052 417.8738 152.19141 418.13867 C 152.44732 418.40097 152.7039 418.65836 152.96094 418.91016 C 153.22807 419.18417 153.49727 419.45213 153.76562 419.71484 C 154.03352 419.98962 154.30313 420.25813 154.57227 420.52148 C 154.83759 420.79361 155.10457 421.05949 155.37109 421.32031 C 155.64073 421.59697 155.91271 421.86599 156.18359 422.13086 C 156.43951 422.39316 156.69609 422.65059 156.95312 422.90234 C 157.22026 423.17636 157.48946 423.44428 157.75781 423.70703 C 158.02571 423.9818 158.29532 424.25031 158.56445 424.51367 C 158.83408 424.79033 159.10607 425.05935 159.37695 425.32422 C 159.63785 425.59143 159.90005 425.8529 160.16211 426.10938 C 160.42021 426.37394 160.68022 426.6327 160.93945 426.88672 C 161.20874 427.163 161.47947 427.43435 161.75 427.69922 C 162.01789 427.97399 162.28751 428.24246 162.55664 428.50586 C 162.82627 428.78214 163.09826 429.0515 163.36914 429.31641 C 163.62505 429.57871 163.88163 429.8361 164.13867 430.08789 C 164.40581 430.36191 164.675 430.62986 164.94336 430.89258 C 165.21125 431.16735 165.48087 431.43582 165.75 431.69922 C 166.01963 431.9755 166.29162 432.24486 166.5625 432.50977 C 166.8234 432.77698 167.08559 433.03848 167.34766 433.29492 C 167.60667 433.56062 167.8668 433.82128 168.12695 434.07617 C 168.3953 434.3517 168.66598 434.62084 168.93555 434.88477 C 169.20344 435.15954 169.47305 435.42805 169.74219 435.69141 C 170.01182 435.96807 170.28381 436.23708 170.55469 436.50195 C 170.8106 436.76425 171.06718 437.02168 171.32422 437.27344 C 171.59136 437.54745 171.86054 437.81537 172.12891 438.07812 C 172.3968 438.3529 172.66641 438.62141 172.93555 438.88477 C 173.20087 439.15689 173.46785 439.42277 173.73438 439.68359 C 174.00401 439.96026 174.27598 440.22927 174.54688 440.49414 C 174.80279 440.75644 175.05936 441.01387 175.31641 441.26562 C 175.58354 441.53964 175.85274 441.8076 176.12109 442.07031 C 176.38899 442.34508 176.65861 442.61356 176.92773 442.87695 C 177.19737 443.15361 177.46936 443.42263 177.74023 443.6875 C 178.00114 443.95471 178.26333 444.21618 178.52539 444.47266 C 178.78349 444.73722 179.0435 444.99598 179.30273 445.25 C 179.57203 445.52628 179.84275 445.79763 180.11328 446.0625 C 180.38117 446.33727 180.65079 446.60575 180.91992 446.86914 C 181.18955 447.14542 181.46154 447.41482 181.73242 447.67969 C 181.98833 447.94199 182.24491 448.19942 182.50195 448.45117 C 182.76909 448.72519 183.03829 448.99311 183.30664 449.25586 C 183.57453 449.53063 183.84415 449.79914 184.11328 450.0625 C 184.38291 450.33916 184.6549 450.60818 184.92578 450.87305 C 185.18668 451.14026 185.44887 451.40176 185.71094 451.6582 C 185.96995 451.9239 186.23009 452.18456 186.49023 452.43945 C 186.75858 452.71498 187.02926 452.98412 187.29883 453.24805 C 187.56672 453.52282 187.83633 453.79133 188.10547 454.05469 C 188.3751 454.33135 188.64709 454.60037 188.91797 454.86523 C 189.17388 455.12753 189.43046 455.38496 189.6875 455.63672 C 189.95464 455.91073 190.22383 456.17865 190.49219 456.44141 C 190.75868 456.71467 191.0272 456.98207 191.29492 457.24414 C 191.56149 457.5174 191.82985 457.7848 192.09766 458.04688 C 192.36729 458.32354 192.63927 458.59255 192.91016 458.85742 C 193.16607 459.11972 193.42265 459.37711 193.67969 459.62891 C 193.94682 459.90292 194.21602 460.17088 194.48438 460.43359 C 194.75227 460.70837 195.02188 460.97684 195.29102 461.24023 C 195.56065 461.5169 195.83263 461.78591 196.10352 462.05078 C 196.36438 462.31799 196.62661 462.5795 196.88867 462.83594 C 197.14678 463.1005 197.40678 463.35926 197.66602 463.61328 C 197.93531 463.88956 198.20604 464.16091 198.47656 464.42578 C 198.74446 464.70055 199.01407 464.96906 199.2832 465.23242 C 199.55283 465.50908 199.82482 465.7781 200.0957 466.04297 C 200.35161 466.30527 200.60819 466.5627 200.86523 466.81445 C 201.13237 467.08847 201.40157 467.35639 201.66992 467.61914 C 201.93781 467.89391 202.20743 468.16242 202.47656 468.42578 C 202.74189 468.69791 203.00887 468.96378 203.27539 469.22461 C 203.54502 469.50127 203.81701 469.77029 204.08789 470.03516 C 204.34248 470.29594 204.5978 470.55223 204.85352 470.80273 C 205.12182 471.07826 205.39255 471.3474 205.66211 471.61133 C 205.93 471.8861 206.19962 472.15461 206.46875 472.41797 C 206.73838 472.69463 207.01037 472.96361 207.28125 473.22852 C 207.54215 473.49573 207.80434 473.75719 208.06641 474.01367 C 208.32447 474.27824 208.58452 474.53699 208.84375 474.79102 C 209.11304 475.0673 209.38377 475.33865 209.6543 475.60352 C 209.92219 475.87829 210.1918 476.14676 210.46094 476.41016 C 210.73057 476.68644 211.00255 476.95583 211.27344 477.2207 C 211.52935 477.483 211.78593 477.7404 212.04297 477.99219 C 212.31011 478.2662 212.57929 478.53416 212.84766 478.79688 C 213.11555 479.07165 213.38516 479.34012 213.6543 479.60352 C 213.92393 479.8798 214.19592 480.14919 214.4668 480.41406 C 214.7277 480.68128 214.98989 480.94278 215.25195 481.19922 C 215.51096 481.46492 215.77109 481.72558 216.03125 481.98047 C 216.29956 482.256 216.57028 482.52514 216.83984 482.78906 C 217.10774 483.06383 217.37735 483.33235 217.64648 483.5957 C 217.91612 483.87236 218.1881 484.14138 218.45898 484.40625 C 218.7149 484.66855 218.97148 484.92598 219.22852 485.17773 C 219.49565 485.45175 219.76485 485.71967 220.0332 485.98242 C 220.3011 486.25719 220.57071 486.52571 220.83984 486.78906 C 221.10517 487.06119 221.37215 487.32707 221.63867 487.58789 C 221.9083 487.86417 222.18029 488.13353 222.45117 488.39844 C 222.70708 488.66074 222.96367 488.91813 223.2207 489.16992 C 223.48784 489.44394 223.75704 489.71189 224.02539 489.97461 C 224.29328 490.24938 224.5629 490.51785 224.83203 490.78125 C 225.10166 491.05753 225.37365 491.32689 225.64453 491.5918 C 225.90543 491.85901 226.16762 492.12051 226.42969 492.37695 C 226.68779 492.64152 226.9478 492.90027 227.20703 493.1543 C 227.47632 493.43058 227.74705 493.70193 228.01758 493.9668 C 228.28547 494.24157 228.55509 494.51008 228.82422 494.77344 C 229.09385 495.0501 229.36584 495.31912 229.63672 495.58398 C 229.89263 495.84628 230.14921 496.10371 230.40625 496.35547 C 230.67339 496.62948 230.94258 496.8974 231.21094 497.16016 C 231.47883 497.43493 231.74844 497.70344 232.01758 497.9668 C 232.28721 498.24346 232.5592 498.51247 232.83008 498.77734 C 233.09098 499.04456 233.35317 499.30606 233.61523 499.5625 C 233.87425 499.8282 234.13438 500.08886 234.39453 500.34375 C 234.66284 500.61928 234.93357 500.88846 235.20312 501.15234 C 235.47102 501.42712 235.74063 501.69563 236.00977 501.95898 C 236.2794 502.23565 236.55138 502.50466 236.82227 502.76953 C 237.07818 503.03183 237.33475 503.28926 237.5918 503.54102 C 237.85893 503.81503 238.12813 504.08299 238.39648 504.3457 C 238.66305 504.61934 238.93142 504.88629 239.19922 505.14844 C 239.46586 505.42208 239.73409 505.68902 240.00195 505.95117 C 240.27158 506.22746 240.54357 506.49685 240.81445 506.76172 C 241.07036 507.02402 241.32695 507.28145 241.58398 507.5332 C 241.85112 507.80722 242.12032 508.07518 242.38867 508.33789 C 242.65656 508.61266 242.92618 508.88114 243.19531 509.14453 C 243.46494 509.42081 243.73693 509.69021 244.00781 509.95508 C 244.26871 510.22229 244.53091 510.48379 244.79297 510.74023 C 245.03745 510.99084 245.28367 511.2355 245.5293 511.47656 A 256.00002 256.00002 0 0 0 256 512 A 256.00002 256.00002 0 0 0 512 256 A 256.00002 256.00002 0 0 0 511.19727 236.54883 C 511.19706 236.54848 511.18945 236.53711 511.18945 236.53711 L 510.85156 236.53711 C 510.82889 236.49931 510.39066 235.73828 510.39062 235.73828 L 510.05273 235.73828 C 510.03006 235.70049 509.5918 234.93945 509.5918 234.93945 L 509.25391 234.93945 C 509.23123 234.90166 508.79297 234.14258 508.79297 234.14258 L 508.45508 234.14258 C 508.4324 234.10478 507.99418 233.34375 507.99414 233.34375 L 507.6582 233.34375 C 507.63931 233.30595 507.1973 232.54492 507.19727 232.54492 L 506.85938 232.54492 C 506.84048 232.51091 506.39844 231.74609 506.39844 231.74609 L 506.06055 231.74609 C 506.04165 231.71208 505.59961 230.94922 505.59961 230.94922 L 505.26172 230.94922 C 505.24282 230.9152 504.80078 230.15039 504.80078 230.15039 L 504.46484 230.15039 C 504.44595 230.11637 504.00391 229.35156 504.00391 229.35156 L 503.66602 229.35156 C 503.64712 229.31755 503.20508 228.55273 503.20508 228.55273 L 502.86719 228.55273 C 502.84829 228.51872 502.40629 227.75391 502.40625 227.75391 L 502.06836 227.75391 C 502.04946 227.71989 501.60742 226.95703 501.60742 226.95703 L 501.26953 226.95703 C 501.25063 226.92302 500.80859 226.1582 500.80859 226.1582 L 500.47266 226.1582 C 500.45376 226.12419 500.01172 225.35938 500.01172 225.35938 L 499.67383 225.35938 C 499.65493 225.32536 499.21293 224.56055 499.21289 224.56055 L 498.875 224.56055 C 498.8561 224.52653 498.41406 223.76367 498.41406 223.76367 L 498.07617 223.76367 C 498.05727 223.72966 497.61523 222.96484 497.61523 222.96484 L 497.2793 222.96484 C 497.2604 222.93083 496.81836 222.16602 496.81836 222.16602 L 496.48047 222.16602 C 496.46157 222.132 496.01957 221.36719 496.01953 221.36719 L 495.68164 221.36719 C 495.66274 221.33317 495.2207 220.56836 495.2207 220.56836 L 494.88281 220.56836 C 494.86391 220.53434 494.42188 219.77148 494.42188 219.77148 L 494.08398 219.77148 C 494.06509 219.73747 493.62308 218.97266 493.62305 218.97266 L 493.28711 218.97266 C 493.26821 218.93864 492.82621 218.17383 492.82617 218.17383 L 492.48828 218.17383 C 492.46938 218.13981 492.02734 217.375 492.02734 217.375 L 491.68945 217.375 C 491.67056 217.34098 491.22852 216.57617 491.22852 216.57617 L 490.89062 216.57617 C 490.87173 216.54216 490.42973 215.7793 490.42969 215.7793 L 490.09375 215.7793 C 490.07485 215.74528 489.63285 214.98047 489.63281 214.98047 L 489.29492 214.98047 C 489.27602 214.94645 488.83398 214.18164 488.83398 214.18164 L 488.49609 214.18164 C 488.4772 214.14762 488.03516 213.38281 488.03516 213.38281 L 487.69727 213.38281 C 487.67837 213.3488 487.23637 212.58594 487.23633 212.58594 L 486.89844 212.58594 C 486.87954 212.55192 486.4375 211.78711 486.4375 211.78711 L 486.10156 211.78711 C 486.08266 211.75309 485.64062 210.98828 485.64062 210.98828 L 485.30273 210.98828 C 485.28384 210.95427 484.8418 210.18945 484.8418 210.18945 L 484.50391 210.18945 C 484.48501 210.15544 484.04301 209.39062 484.04297 209.39062 L 483.70508 209.39062 C 483.68618 209.35661 483.24414 208.59375 483.24414 208.59375 L 482.9082 208.59375 C 482.88931 208.55973 482.44727 207.79492 482.44727 207.79492 L 482.10938 207.79492 C 482.09048 207.76091 481.64844 206.99609 481.64844 206.99609 L 481.31055 206.99609 C 481.29165 206.96208 480.84965 206.19727 480.84961 206.19727 L 480.51172 206.19727 C 480.49282 206.16325 480.05078 205.40039 480.05078 205.40039 L 479.71289 205.40039 C 479.69399 205.36637 479.25195 204.60156 479.25195 204.60156 L 478.91602 204.60156 C 478.89712 204.56755 478.45508 203.80273 478.45508 203.80273 L 478.11719 203.80273 C 478.09829 203.76872 477.65625 203.00391 477.65625 203.00391 L 477.31836 203.00391 C 477.29946 202.96989 476.85742 202.20508 476.85742 202.20508 L 476.51953 202.20508 C 476.50063 202.17106 476.05859 201.4082 476.05859 201.4082 L 475.7207 201.4082 C 475.70181 201.37419 475.2598 200.60938 475.25977 200.60938 L 474.92383 200.60938 C 474.90493 200.57914 474.46289 199.81055 474.46289 199.81055 L 474.125 199.81055 C 474.1061 199.78031 473.66406 199.01172 473.66406 199.01172 L 473.32617 199.01172 C 473.30727 198.98148 472.86523 198.21289 472.86523 198.21289 L 472.52734 198.21289 C 472.50845 198.18265 472.06641 197.41602 472.06641 197.41602 L 471.73047 197.41602 C 471.71157 197.38578 471.26953 196.61719 471.26953 196.61719 L 470.93164 196.61719 C 470.91274 196.58695 470.4707 195.81836 470.4707 195.81836 L 470.13281 195.81836 C 470.11391 195.78812 469.67188 195.01953 469.67188 195.01953 L 469.33398 195.01953 C 469.31509 194.9893 468.87305 194.22266 468.87305 194.22266 L 468.53516 194.22266 C 468.51626 194.19242 468.07422 193.42383 468.07422 193.42383 L 467.73828 193.42383 C 467.71938 193.39359 467.27734 192.625 467.27734 192.625 L 466.93945 192.625 C 466.92056 192.59476 466.47852 191.82617 466.47852 191.82617 L 466.14062 191.82617 C 466.12173 191.79594 465.67969 191.02734 465.67969 191.02734 L 465.3418 191.02734 C 465.3229 190.99711 464.88086 190.23047 464.88086 190.23047 L 464.54297 190.23047 C 464.52407 190.20023 464.08203 189.43164 464.08203 189.43164 L 463.74414 189.43164 C 463.72524 189.4014 463.2832 188.63281 463.2832 188.63281 L 462.94531 188.63281 C 462.92641 188.60258 462.48438 187.83398 462.48438 187.83398 L 462.14648 187.83398 C 462.12759 187.80375 461.68555 187.03711 461.68555 187.03711 L 461.34766 187.03711 C 461.32876 187.00687 460.88676 186.23828 460.88672 186.23828 L 460.55078 186.23828 C 460.53188 186.20805 460.08984 185.43945 460.08984 185.43945 L 459.75195 185.43945 C 459.73306 185.40922 459.29102 184.64062 459.29102 184.64062 L 458.95312 184.64062 C 458.93423 184.61039 458.49219 183.8418 458.49219 183.8418 L 458.1543 183.8418 C 458.1354 183.81156 457.6934 183.04492 457.69336 183.04492 L 457.35742 183.04492 C 457.33852 183.01469 456.89648 182.24609 456.89648 182.24609 L 456.55859 182.24609 C 456.5397 182.21586 456.09766 181.44727 456.09766 181.44727 L 455.75977 181.44727 C 455.74087 181.41703 455.29883 180.64844 455.29883 180.64844 L 454.96094 180.64844 C 454.94204 180.6182 454.50004 179.84961 454.5 179.84961 L 454.16211 179.84961 C 454.14321 179.81937 453.70117 179.05273 453.70117 179.05273 L 453.36523 179.05273 C 453.34634 179.0225 452.9043 178.25391 452.9043 178.25391 L 452.56641 178.25391 C 452.54751 178.22367 452.10547 177.45508 452.10547 177.45508 L 451.76758 177.45508 C 451.74868 177.42484 451.30668 176.65625 451.30664 176.65625 L 450.96875 176.65625 C 450.94985 176.62601 450.50781 175.85938 450.50781 175.85938 L 450.17188 175.85938 C 450.15298 175.82914 449.71094 175.06055 449.71094 175.06055 L 449.37305 175.06055 C 449.35415 175.03031 448.91211 174.26172 448.91211 174.26172 L 448.57422 174.26172 C 448.55532 174.23148 448.11332 173.46289 448.11328 173.46289 L 447.77539 173.46289 C 447.76027 173.43265 447.31445 172.66406 447.31445 172.66406 L 446.97656 172.66406 C 446.96144 172.63383 446.51562 171.86719 446.51562 171.86719 L 446.17969 171.86719 C 446.16457 171.83695 445.71875 171.06836 445.71875 171.06836 L 445.38086 171.06836 C 445.36574 171.03812 444.91996 170.26953 444.91992 170.26953 L 444.58203 170.26953 C 444.56691 170.2393 444.12109 169.4707 444.12109 169.4707 L 443.7832 169.4707 C 443.76809 169.44047 443.32227 168.67383 443.32227 168.67383 L 442.98633 168.67383 C 442.97121 168.64359 442.52539 167.875 442.52539 167.875 L 442.1875 167.875 C 442.17238 167.84476 441.72656 167.07617 441.72656 167.07617 L 441.38867 167.07617 C 441.37355 167.04594 440.92773 166.27734 440.92773 166.27734 L 440.58984 166.27734 C 440.57473 166.24711 440.12891 165.47852 440.12891 165.47852 L 439.79102 165.47852 C 439.7759 165.44828 439.33008 164.68164 439.33008 164.68164 L 438.99414 164.68164 C 438.97902 164.6514 438.5332 163.88281 438.5332 163.88281 L 438.19531 163.88281 C 438.18019 163.85258 437.73437 163.08398 437.73438 163.08398 L 437.39648 163.08398 C 437.38137 163.05375 436.93555 162.28516 436.93555 162.28516 L 436.59766 162.28516 C 436.58254 162.25492 436.13672 161.48633 436.13672 161.48633 L 435.79883 161.48633 C 435.78371 161.45609 435.33789 160.68945 435.33789 160.68945 L 435.00195 160.68945 C 434.98684 160.65922 434.54102 159.89062 434.54102 159.89062 L 434.20312 159.89062 C 434.18801 159.86417 433.74219 159.0918 433.74219 159.0918 L 433.4043 159.0918 C 433.38918 159.06534 432.94336 158.29297 432.94336 158.29297 L 432.60547 158.29297 C 432.59035 158.26651 432.14453 157.49609 432.14453 157.49609 L 431.80859 157.49609 C 431.79348 157.46964 431.34766 156.69727 431.34766 156.69727 L 431.00977 156.69727 C 430.99465 156.67081 430.54887 155.89844 430.54883 155.89844 L 430.21094 155.89844 C 430.19582 155.87198 429.75 155.09961 429.75 155.09961 L 429.41211 155.09961 C 429.39699 155.07315 428.95117 154.30078 428.95117 154.30078 L 428.61328 154.30078 C 428.59816 154.27432 428.15234 153.50391 428.15234 153.50391 L 427.81641 153.50391 C 427.80129 153.47745 427.35551 152.70508 427.35547 152.70508 L 427.01758 152.70508 C 427.00246 152.67862 426.55664 151.90625 426.55664 151.90625 L 426.21875 151.90625 C 426.20363 151.87979 425.75781 151.10742 425.75781 151.10742 L 425.41992 151.10742 C 425.4048 151.08097 424.95898 150.31055 424.95898 150.31055 L 424.62305 150.31055 C 424.60793 150.28409 424.16215 149.51172 424.16211 149.51172 L 423.82422 149.51172 C 423.8091 149.48526 423.36328 148.71289 423.36328 148.71289 L 423.02539 148.71289 C 423.01027 148.68643 422.56445 147.91406 422.56445 147.91406 L 422.22656 147.91406 C 422.21144 147.88761 421.76563 147.11523 421.76562 147.11523 L 421.42773 147.11523 C 421.41262 147.08878 420.9668 146.31836 420.9668 146.31836 L 420.63086 146.31836 C 420.61574 146.2919 420.16992 145.51953 420.16992 145.51953 L 419.83203 145.51953 C 419.81691 145.49307 419.37109 144.7207 419.37109 144.7207 L 419.0332 144.7207 C 419.01809 144.69425 418.57227 143.92188 418.57227 143.92188 L 418.23438 143.92188 C 418.21926 143.89542 417.77344 143.12305 417.77344 143.12305 L 417.4375 143.12305 C 417.42238 143.09659 416.97656 142.32617 416.97656 142.32617 L 416.63867 142.32617 C 416.62355 142.29972 416.17773 141.52734 416.17773 141.52734 L 415.83984 141.52734 C 415.82473 141.50089 415.37891 140.72852 415.37891 140.72852 L 415.04102 140.72852 C 415.0259 140.70206 414.58008 139.92969 414.58008 139.92969 L 414.24219 139.92969 C 414.22707 139.90323 413.78125 139.13281 413.78125 139.13281 L 413.44531 139.13281 C 413.43019 139.10636 412.98437 138.33398 412.98438 138.33398 L 412.64648 138.33398 C 412.63137 138.30753 412.18555 137.53516 412.18555 137.53516 L 411.84766 137.53516 C 411.83254 137.5087 411.38672 136.73633 411.38672 136.73633 L 411.04883 136.73633 C 411.03371 136.70987 410.58789 135.9375 410.58789 135.9375 L 410.25195 135.9375 C 410.23684 135.91104 409.79102 135.14062 409.79102 135.14062 L 409.45312 135.14062 C 409.43801 135.11417 408.99219 134.3418 408.99219 134.3418 L 408.6543 134.3418 C 408.63918 134.31534 408.19336 133.54297 408.19336 133.54297 L 407.85547 133.54297 C 407.84035 133.51651 407.39453 132.74414 407.39453 132.74414 L 407.05664 132.74414 C 407.04152 132.71768 406.5957 131.94727 406.5957 131.94727 L 406.25977 131.94727 C 406.24465 131.92081 405.79883 131.14844 405.79883 131.14844 L 405.46094 131.14844 C 405.44582 131.12198 405 130.34961 405 130.34961 L 404.66211 130.34961 C 404.64699 130.32315 404.20117 129.55078 404.20117 129.55078 L 403.86328 129.55078 C 403.84816 129.52432 403.40234 128.75195 403.40234 128.75195 L 403.06641 128.75195 C 403.05129 128.7255 402.60547 127.95508 402.60547 127.95508 L 402.26758 127.95508 C 402.25246 127.92862 401.80664 127.15625 401.80664 127.15625 L 401.46875 127.15625 C 401.45363 127.12979 401.00781 126.35742 401.00781 126.35742 L 400.66992 126.35742 C 400.6548 126.33097 400.20898 125.55859 400.20898 125.55859 L 399.87109 125.55859 C 399.85598 125.53214 399.41016 124.75977 399.41016 124.75977 L 399.07422 124.75977 C 399.0591 124.73331 398.61328 123.96289 398.61328 123.96289 L 398.27539 123.96289 C 398.26027 123.93643 397.81445 123.16406 397.81445 123.16406 L 397.47656 123.16406 C 397.46144 123.13761 397.01562 122.36523 397.01562 122.36523 L 396.67773 122.36523 C 396.66262 122.33878 396.2168 121.56641 396.2168 121.56641 L 395.88086 121.56641 C 395.86574 121.53995 395.41992 120.76953 395.41992 120.76953 L 395.08203 120.76953 C 395.06691 120.74307 394.62109 119.9707 394.62109 119.9707 L 394.2832 119.9707 C 394.26809 119.94425 393.82227 119.17188 393.82227 119.17188 L 393.48438 119.17188 C 393.46926 119.14542 393.02344 118.37305 393.02344 118.37305 L 392.68555 118.37305 C 392.67043 118.34659 392.22461 117.57422 392.22461 117.57422 L 391.88867 117.57422 C 391.87355 117.54776 391.42773 116.77734 391.42773 116.77734 L 391.08984 116.77734 C 391.07473 116.75089 390.62891 115.97852 390.62891 115.97852 L 390.29102 115.97852 C 390.2759 115.95206 389.83008 115.17969 389.83008 115.17969 L 389.49219 115.17969 C 389.47707 115.15323 389.03125 114.38086 389.03125 114.38086 L 388.69336 114.38086 C 388.67824 114.3544 388.23242 113.58398 388.23242 113.58398 L 387.89648 113.58398 C 387.88137 113.55753 387.43555 112.78516 387.43555 112.78516 L 387.09766 112.78516 C 387.08254 112.7587 386.63672 111.98633 386.63672 111.98633 L 386.29883 111.98633 C 386.28371 111.95987 385.83789 111.1875 385.83789 111.1875 L 385.5 111.1875 C 385.48488 111.16104 385.03906 110.38867 385.03906 110.38867 L 384.70312 110.38867 C 384.68801 110.36222 384.24219 109.5918 384.24219 109.5918 L 383.9043 109.5918 C 383.88918 109.56534 383.44336 108.79297 383.44336 108.79297 L 383.10547 108.79297 C 383.09035 108.76651 382.64453 107.99414 382.64453 107.99414 L 382.30664 107.99414 C 382.29152 107.96768 381.8457 107.19531 381.8457 107.19531 L 381.50781 107.19531 L 381.04688 106.39648 L 380.71094 106.39648 C 380.69582 106.37381 380.25 105.59961 380.25 105.59961 L 379.91211 105.59961 C 379.89699 105.57693 379.45117 104.80078 379.45117 104.80078 L 379.11328 104.80078 L 378.65234 104.00195 L 378.31445 104.00195 C 378.29934 103.97928 377.85352 103.20312 377.85352 103.20312 L 377.51758 103.20312 C 377.50359 103.18045 377.05664 102.40625 377.05664 102.40625 L 376.81836 102.40625 L 376.71875 102.40625 C 376.70477 102.38357 376.25782 101.60742 376.25781 101.60742 L 376.13867 101.60742 L 375.91992 101.60742 L 375.4668 100.80859 L 315.73242 100.80859 L 315.73438 100.81055 C 315.96591 101.21152 345.59961 152.53906 345.59961 152.53906 L 345.60156 152.54102 C 345.8331 152.94202 375.4668 204.27148 375.4668 204.27148 L 375.46875 204.27344 C 375.57201 204.45221 382.2261 215.97656 388.78906 227.34375 C 388.75127 227.3018 388.7132 227.26618 388.67578 227.22461 C 388.45921 226.97554 388.24196 226.71529 388.02539 226.47461 C 387.79937 226.21458 387.57379 225.94263 387.34766 225.69141 C 387.12882 225.43969 386.90848 225.177 386.68945 224.93359 C 386.46155 224.67129 386.23384 224.39768 386.00586 224.14453 C 385.77947 223.8845 385.5526 223.61451 385.32617 223.36328 C 385.11527 223.12101 384.90433 222.86733 384.69336 222.63281 C 384.46545 222.37051 384.23771 222.09694 384.00977 221.84375 C 383.78602 221.58636 383.56171 221.31889 383.33789 221.07031 C 383.12284 220.82275 382.90673 220.56358 382.69141 220.32422 C 382.4635 220.0623 382.23572 219.78831 382.00781 219.53516 C 376.06339 212.7006 370.09732 208.92163 361.75977 206.8418 C 361.75069 206.82668 361.38867 206.19727 361.38867 206.19727 L 361.38672 206.19727 L 361.05273 206.19727 C 361.03875 206.17459 360.5918 205.40039 360.5918 205.40039 L 360.58789 205.40039 L 360.25391 205.40039 C 360.23992 205.37771 359.79297 204.60156 359.79297 204.60156 L 359.79102 204.60156 L 359.45508 204.60156 C 359.44109 204.57889 358.99414 203.80273 358.99414 203.80273 L 358.99219 203.80273 L 358.65625 203.80273 C 358.64227 203.78006 358.19531 203.00391 358.19531 203.00391 L 358.19336 203.00391 L 357.85742 203.00391 C 357.84344 202.98123 357.39648 202.20508 357.39648 202.20508 L 357.39453 202.20508 L 357.06055 202.20508 C 357.04656 202.1824 356.59961 201.4082 356.59961 201.4082 L 356.59766 201.4082 L 356.26172 201.4082 C 356.24773 201.38553 355.80078 200.60938 355.80078 200.60938 L 355.79883 200.60938 L 355.46289 200.60938 C 355.44891 200.5867 355.00195 199.81055 355.00195 199.81055 L 355 199.81055 L 354.66406 199.81055 C 354.65008 199.78787 354.20312 199.01172 354.20312 199.01172 L 354.20117 199.01172 L 353.86523 199.01172 C 353.85125 198.98904 353.4043 198.21289 353.4043 198.21289 L 353.40234 198.21289 L 353.06836 198.21289 C 353.05438 198.19021 352.60742 197.41602 352.60742 197.41602 L 352.60547 197.41602 L 352.26953 197.41602 C 352.25555 197.39334 351.80859 196.61719 351.80859 196.61719 L 351.80664 196.61719 L 351.4707 196.61719 C 351.45672 196.59451 351.00977 195.81836 351.00977 195.81836 L 351.00781 195.81836 L 350.67188 195.81836 C 350.65789 195.79568 350.21094 195.01953 350.21094 195.01953 L 350.20898 195.01953 L 349.875 195.01953 C 349.86102 194.99685 349.41406 194.22266 349.41406 194.22266 L 349.41016 194.22266 L 349.07617 194.22266 C 349.06219 194.19998 348.61523 193.42383 348.61523 193.42383 L 348.61328 193.42383 L 348.27734 193.42383 C 348.26336 193.40115 347.81641 192.625 347.81641 192.625 L 347.81445 192.625 L 347.47852 192.625 C 347.46453 192.60232 347.01758 191.82617 347.01758 191.82617 L 347.01562 191.82617 L 346.67969 191.82617 C 346.6657 191.80349 346.21875 191.02734 346.21875 191.02734 L 346.2168 191.02734 L 345.88281 191.02734 C 345.86883 191.00467 345.42187 190.23047 345.42188 190.23047 L 345.41992 190.23047 L 345.08398 190.23047 C 345.07 190.20779 344.62305 189.43164 344.62305 189.43164 L 344.62109 189.43164 L 344.28516 189.43164 C 344.27117 189.40896 343.82422 188.63281 343.82422 188.63281 L 343.82227 188.63281 L 343.48633 188.63281 C 343.47234 188.61014 343.02539 187.83398 343.02539 187.83398 L 343.02344 187.83398 L 342.68945 187.83398 C 342.67547 187.81131 342.22852 187.03711 342.22852 187.03711 L 342.22461 187.03711 L 341.89062 187.03711 C 341.87664 187.01443 341.42969 186.23828 341.42969 186.23828 L 341.42773 186.23828 L 341.0918 186.23828 C 341.07781 186.2156 340.63086 185.43945 340.63086 185.43945 L 340.62891 185.43945 L 340.29297 185.43945 C 340.27898 185.41678 339.83203 184.64062 339.83203 184.64062 L 339.83008 184.64062 L 339.49414 184.64062 C 339.48016 184.61795 339.0332 183.8418 339.0332 183.8418 L 339.03125 183.8418 L 338.69727 183.8418 C 338.68328 183.81912 338.23633 183.04492 338.23633 183.04492 L 338.23242 183.04492 L 337.89844 183.04492 C 337.88445 183.02224 337.4375 182.24609 337.4375 182.24609 L 337.43555 182.24609 L 337.09961 182.24609 C 337.08563 182.22342 336.63867 181.44727 336.63867 181.44727 L 336.63672 181.44727 L 336.30078 181.44727 C 336.2868 181.42459 335.83984 180.64844 335.83984 180.64844 L 335.83789 180.64844 L 335.50195 180.64844 C 335.48797 180.62576 335.04102 179.84961 335.04102 179.84961 L 335.03906 179.84961 L 334.70508 179.84961 C 334.69109 179.82693 334.24414 179.05273 334.24414 179.05273 L 334.24219 179.05273 L 333.90625 179.05273 C 333.89227 179.03006 333.44531 178.25391 333.44531 178.25391 L 333.44336 178.25391 L 333.10742 178.25391 C 333.09344 178.23123 332.64648 177.45508 332.64648 177.45508 L 332.64453 177.45508 L 332.30859 177.45508 C 332.29461 177.4324 331.84766 176.65625 331.84766 176.65625 L 331.8457 176.65625 L 331.51172 176.65625 C 331.49773 176.63357 331.05078 175.85938 331.05078 175.85938 L 331.04688 175.85938 L 330.71289 175.85938 C 330.69891 175.8367 330.25195 175.06055 330.25195 175.06055 L 330.25 175.06055 L 329.91406 175.06055 C 329.90008 175.03787 329.45313 174.26172 329.45312 174.26172 L 329.45117 174.26172 L 329.11523 174.26172 C 329.10125 174.23904 328.6543 173.46289 328.6543 173.46289 L 328.65234 173.46289 L 328.31641 173.46289 C 328.30242 173.44021 327.85547 172.66406 327.85547 172.66406 L 327.85352 172.66406 L 327.51953 172.66406 C 327.50555 172.64139 327.05859 171.86719 327.05859 171.86719 L 327.05664 171.86719 L 326.7207 171.86719 C 326.70672 171.84451 326.25977 171.06836 326.25977 171.06836 L 326.25781 171.06836 L 325.92188 171.06836 C 325.90789 171.04568 325.46094 170.26953 325.46094 170.26953 L 325.45898 170.26953 L 325.12305 170.26953 C 325.10906 170.24685 324.66211 169.4707 324.66211 169.4707 L 324.66016 169.4707 L 324.32617 169.4707 C 324.31219 169.44803 323.86523 168.67383 323.86523 168.67383 L 323.86133 168.67383 L 323.52734 168.67383 C 323.51336 168.65115 323.06641 167.875 323.06641 167.875 L 323.06445 167.875 L 322.72852 167.875 C 322.71453 167.85232 322.26758 167.07617 322.26758 167.07617 L 322.26562 167.07617 L 321.92969 167.07617 C 321.9157 167.05349 321.46875 166.27734 321.46875 166.27734 L 321.4668 166.27734 L 321.13086 166.27734 C 321.11688 166.25467 320.66992 165.47852 320.66992 165.47852 L 320.66797 165.47852 L 320.33398 165.47852 C 320.32 165.45584 319.87305 164.68164 319.87305 164.68164 L 319.86914 164.68164 L 319.53516 164.68164 C 319.52117 164.65896 319.07422 163.88281 319.07422 163.88281 L 319.07227 163.88281 L 318.73633 163.88281 C 318.72234 163.86014 318.27539 163.08398 318.27539 163.08398 L 318.27344 163.08398 L 317.9375 163.08398 C 317.92352 163.06131 317.47656 162.28516 317.47656 162.28516 L 317.47461 162.28516 L 317.13867 162.28516 C 317.12469 162.26248 316.67773 161.48633 316.67773 161.48633 L 316.67578 161.48633 L 316.3418 161.48633 C 316.32781 161.46365 315.88086 160.68945 315.88086 160.68945 L 315.87891 160.68945 L 315.54297 160.68945 C 315.52898 160.66678 315.08203 159.89062 315.08203 159.89062 L 315.08008 159.89062 L 314.74414 159.89062 C 314.73016 159.86795 314.2832 159.0918 314.2832 159.0918 L 314.28125 159.0918 L 313.94531 159.0918 C 313.93133 159.06912 313.48437 158.29297 313.48438 158.29297 L 313.48242 158.29297 L 313.14844 158.29297 C 313.13445 158.27029 312.6875 157.49609 312.6875 157.49609 L 312.68359 157.49609 L 312.34961 157.49609 C 312.33563 157.47342 311.88867 156.69727 311.88867 156.69727 L 311.88672 156.69727 L 311.55078 156.69727 C 311.5368 156.67459 311.08984 155.89844 311.08984 155.89844 L 311.08789 155.89844 L 310.75195 155.89844 C 310.73797 155.87576 310.29102 155.09961 310.29102 155.09961 L 310.28906 155.09961 L 309.95312 155.09961 C 309.93914 155.07693 309.49219 154.30078 309.49219 154.30078 L 309.49023 154.30078 L 309.15625 154.30078 C 309.14227 154.2781 308.69531 153.50391 308.69531 153.50391 L 308.69141 153.50391 L 308.35742 153.50391 C 308.34344 153.48123 307.89648 152.70508 307.89648 152.70508 L 307.89453 152.70508 L 307.55859 152.70508 C 307.54461 152.6824 307.09766 151.90625 307.09766 151.90625 L 307.0957 151.90625 L 306.75977 151.90625 C 306.74578 151.88357 306.29883 151.10742 306.29883 151.10742 L 306.29688 151.10742 L 305.96289 151.10742 C 305.94891 151.08474 305.50195 150.31055 305.50195 150.31055 L 305.49805 150.31055 L 305.16406 150.31055 C 305.15008 150.28787 304.70312 149.51172 304.70312 149.51172 L 304.70117 149.51172 L 304.36523 149.51172 C 304.35125 149.48904 303.9043 148.71289 303.9043 148.71289 L 303.90234 148.71289 L 303.56641 148.71289 C 303.55242 148.69021 303.10547 147.91406 303.10547 147.91406 L 303.10352 147.91406 L 302.76758 147.91406 C 302.75359 147.89139 302.30664 147.11523 302.30664 147.11523 L 302.30469 147.11523 L 301.9707 147.11523 C 301.95672 147.09256 301.50977 146.31836 301.50977 146.31836 L 301.50586 146.31836 L 301.17188 146.31836 C 301.15789 146.29568 300.71094 145.51953 300.71094 145.51953 L 300.70898 145.51953 L 300.37305 145.51953 C 300.35906 145.49685 299.91211 144.7207 299.91211 144.7207 L 299.91016 144.7207 L 299.57422 144.7207 C 299.56023 144.69803 299.11328 143.92188 299.11328 143.92188 L 299.11133 143.92188 L 298.77539 143.92188 C 298.76141 143.8992 298.31445 143.12305 298.31445 143.12305 L 298.3125 143.12305 L 297.97852 143.12305 C 297.96453 143.10037 297.51758 142.32617 297.51758 142.32617 L 297.51367 142.32617 L 297.17969 142.32617 C 297.1657 142.30349 296.71875 141.52734 296.71875 141.52734 L 296.7168 141.52734 L 296.38086 141.52734 C 296.36688 141.50467 295.91992 140.72852 295.91992 140.72852 L 295.91797 140.72852 L 295.58203 140.72852 C 295.56805 140.70584 295.12109 139.92969 295.12109 139.92969 L 295.11914 139.92969 L 294.78711 139.92969 C 294.77313 139.90701 294.32617 139.13281 294.32617 139.13281 L 294.32227 139.13281 L 293.98828 139.13281 C 293.9743 139.11014 293.52734 138.33398 293.52734 138.33398 L 293.52539 138.33398 L 293.18945 138.33398 C 293.17547 138.31131 292.72852 137.53516 292.72852 137.53516 L 292.72656 137.53516 L 292.39062 137.53516 C 292.37664 137.51248 291.92969 136.73633 291.92969 136.73633 L 291.92773 136.73633 L 291.5918 136.73633 C 291.57781 136.71365 291.13086 135.9375 291.13086 135.9375 L 291.12891 135.9375 L 290.79492 135.9375 C 290.78094 135.91482 290.33398 135.14062 290.33398 135.14062 L 290.33008 135.14062 L 289.99609 135.14062 C 289.98211 135.11795 289.53516 134.3418 289.53516 134.3418 L 289.5332 134.3418 L 289.19727 134.3418 C 289.18328 134.31912 288.73633 133.54297 288.73633 133.54297 L 288.73438 133.54297 L 288.39844 133.54297 C 288.38445 133.52029 287.9375 132.74414 287.9375 132.74414 L 287.93555 132.74414 L 287.60156 132.74414 C 287.58758 132.72146 287.14062 131.94727 287.14062 131.94727 L 287.13672 131.94727 L 286.80273 131.94727 C 286.78875 131.92459 286.3418 131.14844 286.3418 131.14844 L 286.33789 131.14844 L 286.00391 131.14844 C 285.98992 131.12576 285.54297 130.34961 285.54297 130.34961 L 285.54102 130.34961 L 285.20508 130.34961 C 285.19109 130.32693 284.74414 129.55078 284.74414 129.55078 L 284.74219 129.55078 L 284.40625 129.55078 C 284.39227 129.5281 283.94531 128.75195 283.94531 128.75195 L 283.94336 128.75195 L 283.60938 128.75195 C 283.59539 128.72928 283.14844 127.95508 283.14844 127.95508 L 283.14453 127.95508 L 282.81055 127.95508 C 282.79656 127.9324 282.34961 127.15625 282.34961 127.15625 L 282.34766 127.15625 L 282.01172 127.15625 C 281.99773 127.13357 281.55078 126.35742 281.55078 126.35742 L 281.54883 126.35742 L 281.21289 126.35742 C 281.19891 126.33474 280.75195 125.55859 280.75195 125.55859 L 280.75 125.55859 L 280.41406 125.55859 C 280.40008 125.53592 279.95312 124.75977 279.95312 124.75977 L 279.95117 124.75977 L 279.61719 124.75977 C 279.6032 124.73709 279.15625 123.96289 279.15625 123.96289 L 279.15234 123.96289 L 278.81836 123.96289 C 278.80438 123.94021 278.35742 123.16406 278.35742 123.16406 L 278.35547 123.16406 L 278.01953 123.16406 C 278.00555 123.14139 277.55859 122.36523 277.55859 122.36523 L 277.55664 122.36523 L 277.2207 122.36523 C 277.20672 122.34256 276.75977 121.56641 276.75977 121.56641 L 276.75781 121.56641 L 276.42383 121.56641 C 276.40984 121.54373 275.96289 120.76953 275.96289 120.76953 L 275.95898 120.76953 L 275.625 120.76953 C 275.61102 120.74685 275.16406 119.9707 275.16406 119.9707 L 275.16016 119.9707 L 274.82617 119.9707 C 274.81219 119.94803 274.36523 119.17188 274.36523 119.17188 L 274.36328 119.17188 L 274.02734 119.17188 C 274.01336 119.1492 273.56641 118.37305 273.56641 118.37305 L 273.56445 118.37305 L 273.22852 118.37305 C 273.21453 118.35037 272.76758 117.57422 272.76758 117.57422 L 272.76562 117.57422 L 272.43164 117.57422 L 271.9707 116.77734 L 271.9668 116.77734 L 271.63281 116.77734 C 271.61883 116.75467 271.17187 115.97852 271.17188 115.97852 L 271.16992 115.97852 L 270.83398 115.97852 C 270.82 115.95584 270.37305 115.17969 270.37305 115.17969 L 270.37109 115.17969 L 270.03516 115.17969 C 270.02117 115.15701 269.57422 114.38086 269.57422 114.38086 L 269.57227 114.38086 L 269.23828 114.38086 C 269.2243 114.35818 268.77734 113.58398 268.77734 113.58398 L 268.77344 113.58398 L 268.43945 113.58398 C 268.42547 113.56131 267.97852 112.78516 267.97852 112.78516 L 267.97461 112.78516 L 267.64062 112.78516 C 267.62664 112.76248 267.17969 111.98633 267.17969 111.98633 L 267.17773 111.98633 L 266.8418 111.98633 C 266.82781 111.96365 266.38086 111.1875 266.38086 111.1875 L 266.37891 111.1875 L 266.04297 111.1875 C 266.02898 111.16482 265.58203 110.38867 265.58203 110.38867 L 265.58008 110.38867 L 265.24609 110.38867 C 265.23211 110.36599 264.78516 109.5918 264.78516 109.5918 L 264.78125 109.5918 L 264.44727 109.5918 C 264.43328 109.56912 263.98633 108.79297 263.98633 108.79297 L 263.98242 108.79297 L 263.64844 108.79297 C 263.63445 108.77029 263.1875 107.99414 263.1875 107.99414 L 263.18555 107.99414 L 262.84961 107.99414 C 262.83563 107.97146 262.38867 107.19531 262.38867 107.19531 L 262.38672 107.19531 L 262.05078 107.19531 C 262.0368 107.17264 261.58984 106.39648 261.58984 106.39648 L 261.58789 106.39648 L 261.25391 106.39648 C 261.23992 106.37381 260.79297 105.59961 260.79297 105.59961 L 260.78906 105.59961 L 260.45508 105.59961 C 260.44109 105.57693 259.99414 104.80078 259.99414 104.80078 L 259.99219 104.80078 L 259.65625 104.80078 C 259.64227 104.7781 259.19531 104.00195 259.19531 104.00195 L 259.19336 104.00195 L 258.85742 104.00195 C 258.84344 103.97928 258.39648 103.20312 258.39648 103.20312 L 258.39453 103.20312 L 258.06055 103.20312 L 257.59961 102.40625 L 257.59766 102.40625 L 257.26367 102.40625 C 257.24969 102.38357 256.80273 101.60742 256.80273 101.60742 L 256.79883 101.60742 L 256.46484 101.60742 C 256.45086 101.58474 256.00391 100.80859 256.00391 100.80859 L 256.00195 100.80859 L 196.26758 100.80859 z "
       transform="matrix(0.26458333,0,0,0.26458333,0,161.53332)"
       id="path4547" />
    <path
       inkscape:export-ydpi="163.84"
       inkscape:export-xdpi="163.84"
       style="opacity:1;fill:#00ff00;fill-opacity:1;stroke:none;stroke-width:2.28117537;stroke-linecap:round;stroke-linejoin:bevel;stroke-miterlimit:4;stroke-dasharray:none;stroke-opacity:1;paint-order:normal"
       d="m 83.537792,188.20553 7.902225,13.68689 7.902208,13.68777 7.902225,13.68691 7.90223,-13.68691 -7.90223,-13.68777 -7.902225,-13.68689 z"
       id="path907-7"
       inkscape:connector-curvature="0" />
    <path
       sodipodi:nodetypes="ccccccc"
       inkscape:export-ydpi="163.84"
       inkscape:export-xdpi="163.84"
       style="opacity:1;fill:#00aad4;fill-opacity:1;stroke:none;stroke-width:2.28117537;stroke-linecap:round;stroke-linejoin:bevel;stroke-miterlimit:4;stroke-dasharray:none;stroke-opacity:1;paint-order:normal"
       d="m 28.222233,229.2671 -7.902226,13.68688 7.902226,13.68691 c 7.977666,13.68705 7.977666,13.68705 23.706658,13.6869 l -7.902208,-13.6869 -7.902225,-13.68691 z"
       id="path827-0"
       inkscape:connector-curvature="0" />
    <path
       sodipodi:nodetypes="ccccccc"
       inkscape:export-ydpi="163.84"
       inkscape:export-xdpi="163.84"
       style="opacity:1;fill:#2c89a0;fill-opacity:1;stroke:none;stroke-width:2.28117537;stroke-linecap:round;stroke-linejoin:bevel;stroke-miterlimit:4;stroke-dasharray:none;stroke-opacity:1;paint-order:normal"
       d="m 28.222233,201.89242 -7.902226,13.68777 c -7.902648,13.687 -7.902648,13.6879 0,27.37379 l 7.902226,-13.68688 7.902225,-13.68691 7.902225,-13.68777 z"
       id="path831-4"
       inkscape:connector-curvature="0" />
    <path
       sodipodi:nodetypes="ccccccc"
       inkscape:export-ydpi="163.84"
       inkscape:export-xdpi="163.84"
       style="opacity:1;fill:#216778;fill-opacity:1;stroke:none;stroke-width:2.28117537;stroke-linecap:round;stroke-linejoin:bevel;stroke-miterlimit:4;stroke-dasharray:none;stroke-opacity:1;paint-order:normal"
       d="m 28.222233,201.89242 h 15.80445 15.804433 15.804451 L 67.733342,188.20553 H 51.928891 c -15.804865,4e-5 -15.804865,4e-5 -23.706658,13.68689 z"
       id="path845-9"
       inkscape:connector-curvature="0" />
    <path
       inkscape:export-ydpi="163.84"
       inkscape:export-xdpi="163.84"
       style="opacity:1;fill:#55ddff;fill-opacity:1;stroke:none;stroke-width:2.28117537;stroke-linecap:round;stroke-linejoin:bevel;stroke-miterlimit:4;stroke-dasharray:none;stroke-opacity:1;paint-order:normal"
       d="m 44.026683,229.2671 7.902208,13.68688 H 67.733342 L 75.635567,229.2671 H 59.831116 Z"
       id="path871-3"
       inkscape:connector-curvature="0" />
    <path
       sodipodi:nodetypes="ccccc"
       inkscape:connector-curvature="0"
       id="path4502"
       d="m 44.026683,256.64089 7.902208,13.6869 c 15.804451,0 15.804451,0 23.706676,-13.6869 H 59.831116 Z"
       style="opacity:1;fill:#00ccff;fill-opacity:1;stroke:none;stroke-width:2.28117537;stroke-linecap:round;stroke-linejoin:bevel;stroke-miterlimit:4;stroke-dasharray:none;stroke-opacity:1;paint-order:normal"
       inkscape:export-xdpi="163.84"
       inkscape:export-ydpi="163.84" />
    <path
       sodipodi:nodetypes="ccccc"
       inkscape:connector-curvature="0"
       id="path4504"
       d="m 75.63543,229.26705 -7.902225,13.68688 -7.902225,13.68691 h 15.80445 c 7.902208,-13.68691 7.902208,-13.68691 0,-27.37379 z"
       style="opacity:1;fill:#2ad4ff;fill-opacity:1;stroke:none;stroke-width:2.28117537;stroke-linecap:round;stroke-linejoin:bevel;stroke-miterlimit:4;stroke-dasharray:none;stroke-opacity:1;paint-order:normal"
       inkscape:export-xdpi="163.84"
       inkscape:export-ydpi="163.84" />
    <path
       sodipodi:nodetypes="ccccccccc"
       inkscape:connector-curvature="0"
       id="path4506"
       d="m 115.14668,215.58019 -7.90223,13.68691 -7.902225,13.68688 -7.902208,13.68691 -7.902225,13.6869 h 15.804433 l 7.902225,-13.6869 7.90223,-13.68691 c 7.90222,-13.68688 7.90222,-13.68688 0,-27.37379 z"
       style="opacity:1;fill:#00aa00;fill-opacity:1;stroke:none;stroke-width:2.28117537;stroke-linecap:round;stroke-linejoin:bevel;stroke-miterlimit:4;stroke-dasharray:none;stroke-opacity:1;paint-order:normal"
       inkscape:export-xdpi="163.84"
       inkscape:export-ydpi="163.84" />
    <path
       sodipodi:nodetypes="cccccc"
       inkscape:connector-curvature="0"
       id="path4508"
       d="m 83.537792,215.58019 -7.902225,13.68691 h 15.80445 l 7.902208,13.68688 7.902225,-13.68688 C 99.333013,215.58028 99.333013,215.58028 83.537792,215.58019 Z"
       style="opacity:1;fill:#00d400;fill-opacity:1;stroke:none;stroke-width:2.28117537;stroke-linecap:round;stroke-linejoin:bevel;stroke-miterlimit:4;stroke-dasharray:none;stroke-opacity:1;paint-order:normal"
       inkscape:export-xdpi="163.84"
       inkscape:export-ydpi="163.84" />
  </g>
</svg>
