<?xml version="1.0" encoding="UTF-8" standalone="no"?>
<!-- Created with Inkscape (http://www.inkscape.org/) -->

<svg
   xmlns:dc="http://purl.org/dc/elements/1.1/"
   xmlns:cc="http://creativecommons.org/ns#"
   xmlns:rdf="http://www.w3.org/1999/02/22-rdf-syntax-ns#"
   xmlns:svg="http://www.w3.org/2000/svg"
   xmlns="http://www.w3.org/2000/svg"
   xmlns:xlink="http://www.w3.org/1999/xlink"
   xmlns:sodipodi="http://sodipodi.sourceforge.net/DTD/sodipodi-0.dtd"
   xmlns:inkscape="http://www.inkscape.org/namespaces/inkscape"
   width="673.24872"
   height="693.42731"
   viewBox="0 0 178.13038 183.46932"
   version="1.1"
   id="svg4951"
   inkscape:version="0.92.4 (5da689c313, 2019-01-14)"
   sodipodi:docname="germinate-square-name.svg"
   inkscape:export-filename="D:\workspaces\web-vscode\germinate\germinate\public\img\germinate-square-name.png"
   inkscape:export-xdpi="111.61"
   inkscape:export-ydpi="111.61">
  <sodipodi:namedview
     id="base"
     pagecolor="#ffffff"
     bordercolor="#666666"
     borderopacity="1.0"
     inkscape:pageopacity="0.0"
     inkscape:pageshadow="2"
     inkscape:zoom="0.1767767"
     inkscape:cx="-2713.0476"
     inkscape:cy="246.90776"
     inkscape:document-units="mm"
     inkscape:current-layer="layer1"
     showgrid="false"
     units="px"
     inkscape:window-width="3440"
     inkscape:window-height="1377"
     inkscape:window-x="-8"
     inkscape:window-y="-8"
     inkscape:window-maximized="1"
     fit-margin-top="0"
     fit-margin-left="0"
     fit-margin-right="0"
     fit-margin-bottom="0">
    <inkscape:grid
       type="xygrid"
       id="grid5751"
       originx="16.054719"
       originy="48.002629" />
  </sodipodi:namedview>
  <defs
     id="defs4945">
    <linearGradient
       inkscape:collect="always"
       id="linearGradient6581">
      <stop
         style="stop-color:#0e0000;stop-opacity:1"
         offset="0"
         id="stop6577" />
      <stop
         style="stop-color:#00000e;stop-opacity:0"
         offset="1"
         id="stop6579" />
    </linearGradient>
    <linearGradient
       inkscape:collect="always"
       xlink:href="#linearGradient6581"
       id="linearGradient6583"
       x1="32.914185"
       y1="192.36743"
       x2="134.40833"
       y2="296.47083"
       gradientUnits="userSpaceOnUse"
       gradientTransform="matrix(3.7795276,0,0,3.7795276,0,-610.51963)" />
  </defs>
  <metadata
     id="metadata4948">
    <rdf:RDF>
      <cc:Work
         rdf:about="">
        <dc:format>image/svg+xml</dc:format>
        <dc:type
           rdf:resource="http://purl.org/dc/dcmitype/StillImage" />
        <dc:title></dc:title>
      </cc:Work>
    </rdf:RDF>
  </metadata>
  <g
     inkscape:label="Layer 1"
     inkscape:groupmode="layer"
     id="layer1"
     transform="translate(16.05472,-161.53331)">
    <g
       id="g866"
       transform="translate(5.2771347)">
      <circle
         inkscape:label="#path6239"
         r="67.733337"
         cy="229.26665"
         cx="67.733337"
         id="bg"
         style="opacity:1;fill:#e6e6e6;fill-opacity:1;stroke:none;stroke-width:6.1052413;stroke-linecap:round;stroke-linejoin:round;stroke-miterlimit:4;stroke-dasharray:none;stroke-opacity:1;paint-order:fill markers stroke"
         inkscape:export-xdpi="163.84"
         inkscape:export-ydpi="163.84" />
      <path
         inkscape:connector-curvature="0"
         inkscape:label="#path4547"
         id="sh"
         transform="matrix(0.26458333,0,0,0.26458333,0,161.53332)"
         d="m 196.26758,100.80859 c -59.73492,1.5e-4 -59.73652,6.5e-4 -89.60156,51.73047 l -0.002,0.002 -29.863279,51.73046 -0.002,0.002 c -29.866915,51.72805 -29.865869,51.73358 0.002,103.45898 l 0.002,0.002 c 0.231496,0.40097 29.863289,51.72656 29.863289,51.72656 11.51724,19.75982 18.63709,31.95649 26.3496,39.5039 0.26964,0.27667 0.54163,0.54568 0.8125,0.81055 0.25592,0.2623 0.5125,0.51969 0.76954,0.77149 0.26713,0.27401 0.53633,0.54197 0.80468,0.80468 0.2679,0.27477 0.53752,0.54325 0.80664,0.80664 0.26964,0.27666 0.54162,0.54568 0.8125,0.81055 0.26091,0.26721 0.5231,0.52872 0.78516,0.78516 0.25901,0.2657 0.51914,0.52635 0.7793,0.78125 0.26831,0.27552 0.53903,0.54467 0.80859,0.80859 0.26789,0.27477 0.53751,0.54328 0.80664,0.80664 0.26963,0.27666 0.54162,0.54568 0.8125,0.81055 0.2609,0.26721 0.52309,0.52871 0.78516,0.78515 0.2581,0.26457 0.51811,0.52333 0.77734,0.77735 0.27062,0.27779 0.54259,0.55029 0.81445,0.8164 0.26658,0.27326 0.53494,0.54067 0.80274,0.80274 0.26963,0.27666 0.54162,0.54568 0.8125,0.81054 0.25591,0.2623 0.51249,0.5197 0.76953,0.77149 0.26714,0.27402 0.53633,0.54193 0.80469,0.80469 0.26789,0.27477 0.5375,0.54328 0.80664,0.80664 0.26963,0.27666 0.54162,0.54568 0.8125,0.81054 0.2609,0.26722 0.52308,0.52868 0.78516,0.78516 0.25901,0.2657 0.51914,0.52636 0.77929,0.78125 0.26835,0.27553 0.53902,0.54467 0.8086,0.80859 0.26789,0.27478 0.5375,0.54329 0.80664,0.80664 0.26963,0.27667 0.54161,0.54568 0.8125,0.81055 0.25591,0.2623 0.51249,0.51969 0.76953,0.77149 0.26713,0.27401 0.53633,0.54197 0.80468,0.80468 0.2679,0.27478 0.53751,0.54329 0.80665,0.80664 0.26532,0.27213 0.5323,0.53801 0.79882,0.79883 0.26964,0.27666 0.54162,0.54568 0.8125,0.81055 0.25592,0.2623 0.5125,0.51973 0.76953,0.77148 0.26714,0.27402 0.53634,0.54194 0.80469,0.80469 0.2679,0.27477 0.53751,0.54328 0.80664,0.80664 0.26963,0.27666 0.54162,0.54568 0.8125,0.81055 0.2609,0.26721 0.5231,0.52868 0.78516,0.78516 0.2581,0.26456 0.51811,0.52332 0.77734,0.77734 0.26929,0.27628 0.54002,0.54763 0.81055,0.8125 0.26789,0.27477 0.53751,0.54324 0.80664,0.80664 0.26963,0.27628 0.54162,0.54564 0.8125,0.81055 0.25591,0.2623 0.51249,0.51969 0.76953,0.77148 0.26714,0.27402 0.53633,0.54197 0.80469,0.80469 0.26789,0.27477 0.53751,0.54324 0.80664,0.80664 0.26963,0.27628 0.54162,0.54564 0.8125,0.81055 0.2609,0.26721 0.52309,0.52871 0.78516,0.78515 0.25901,0.2657 0.51914,0.52636 0.77929,0.78125 0.26835,0.27553 0.53903,0.54467 0.8086,0.8086 0.26789,0.27477 0.5375,0.54328 0.80664,0.80664 0.26963,0.27666 0.54162,0.54567 0.8125,0.81054 0.25591,0.2623 0.51249,0.51973 0.76953,0.77149 0.26714,0.27401 0.53632,0.54193 0.80469,0.80468 0.26789,0.27478 0.5375,0.54329 0.80664,0.80665 0.26532,0.27212 0.5323,0.538 0.79883,0.79882 0.26963,0.27667 0.5416,0.54568 0.8125,0.81055 0.25591,0.2623 0.51248,0.51973 0.76953,0.77148 0.26713,0.27402 0.53633,0.54198 0.80468,0.80469 0.2679,0.27477 0.53752,0.54325 0.80664,0.80664 0.26964,0.27666 0.54163,0.54568 0.8125,0.81055 0.26091,0.26721 0.5231,0.52868 0.78516,0.78516 0.2581,0.26456 0.51811,0.52332 0.77734,0.77734 0.2693,0.27628 0.54002,0.54763 0.81055,0.8125 0.26789,0.27477 0.53751,0.54325 0.80664,0.80664 0.26963,0.27628 0.54162,0.54568 0.8125,0.81055 0.25591,0.2623 0.51249,0.51973 0.76953,0.77148 0.26714,0.27402 0.53634,0.54194 0.80469,0.80469 0.26789,0.27477 0.53751,0.54328 0.80664,0.80664 0.26963,0.27666 0.54162,0.54568 0.8125,0.81055 0.2609,0.26721 0.52309,0.52871 0.78516,0.78515 0.25901,0.2657 0.51915,0.52636 0.77929,0.78125 0.26835,0.27553 0.53903,0.54467 0.8086,0.8086 0.26789,0.27477 0.5375,0.54328 0.80664,0.80664 0.26963,0.27666 0.54162,0.54568 0.8125,0.81054 0.25591,0.2623 0.51249,0.51973 0.76953,0.77149 0.26714,0.27401 0.53633,0.54193 0.80469,0.80469 0.26649,0.27326 0.53501,0.54066 0.80273,0.80273 0.26657,0.27326 0.53493,0.54066 0.80274,0.80274 0.26963,0.27666 0.54161,0.54567 0.8125,0.81054 0.25591,0.2623 0.51249,0.51969 0.76953,0.77149 0.26713,0.27401 0.53633,0.54197 0.80469,0.80468 0.26789,0.27478 0.5375,0.54325 0.80664,0.80664 0.26963,0.27667 0.54161,0.54568 0.8125,0.81055 0.26086,0.26721 0.52309,0.52872 0.78515,0.78516 0.25811,0.26456 0.51811,0.52332 0.77735,0.77734 0.26929,0.27628 0.54002,0.54763 0.81054,0.8125 0.2679,0.27477 0.53751,0.54328 0.80664,0.80664 0.26963,0.27666 0.54162,0.54568 0.8125,0.81055 0.25591,0.2623 0.51249,0.51973 0.76953,0.77148 0.26714,0.27402 0.53634,0.54194 0.80469,0.80469 0.26789,0.27477 0.53751,0.54328 0.80664,0.80664 0.26533,0.27213 0.53231,0.538 0.79883,0.79883 0.26963,0.27666 0.54162,0.54568 0.8125,0.81055 0.25459,0.26078 0.50991,0.51707 0.76563,0.76757 0.2683,0.27553 0.53903,0.54467 0.80859,0.8086 0.26789,0.27477 0.53751,0.54328 0.80664,0.80664 0.26963,0.27666 0.54162,0.54564 0.8125,0.81055 0.2609,0.26721 0.52309,0.52867 0.78516,0.78515 0.25806,0.26457 0.51811,0.52332 0.77734,0.77735 0.26929,0.27628 0.54002,0.54763 0.81055,0.8125 0.26789,0.27477 0.5375,0.54324 0.80664,0.80664 0.26963,0.27628 0.54161,0.54567 0.8125,0.81054 0.25591,0.2623 0.51249,0.5197 0.76953,0.77149 0.26714,0.27401 0.53632,0.54197 0.80469,0.80469 0.26789,0.27477 0.5375,0.54324 0.80664,0.80664 0.26963,0.27628 0.54162,0.54567 0.8125,0.81054 0.2609,0.26722 0.52309,0.52872 0.78515,0.78516 0.25901,0.2657 0.51914,0.52636 0.7793,0.78125 0.26831,0.27553 0.53903,0.54467 0.80859,0.80859 0.2679,0.27477 0.53751,0.54329 0.80664,0.80664 0.26964,0.27666 0.54162,0.54568 0.8125,0.81055 0.25592,0.2623 0.5125,0.51973 0.76954,0.77148 0.26713,0.27402 0.53633,0.54194 0.80468,0.80469 0.2679,0.27477 0.53751,0.54329 0.80664,0.80664 0.26533,0.27213 0.53231,0.53801 0.79883,0.79883 0.26963,0.27628 0.54162,0.54564 0.8125,0.81055 0.25591,0.2623 0.5125,0.51969 0.76953,0.77148 0.26714,0.27402 0.53634,0.54197 0.80469,0.80469 0.26789,0.27477 0.53751,0.54324 0.80664,0.80664 0.26963,0.27628 0.54162,0.54564 0.8125,0.81055 0.2609,0.26721 0.52309,0.52871 0.78516,0.78515 0.2581,0.26457 0.51811,0.52332 0.77734,0.77735 0.26929,0.27628 0.54002,0.54763 0.81055,0.8125 0.26789,0.27477 0.53751,0.54328 0.80664,0.80664 0.26963,0.27666 0.54162,0.54568 0.8125,0.81054 0.25591,0.2623 0.51249,0.51973 0.76953,0.77149 0.26714,0.27401 0.53633,0.54193 0.80469,0.80469 0.26789,0.27477 0.5375,0.54328 0.80664,0.80664 0.26963,0.27666 0.54162,0.54567 0.8125,0.81054 0.2609,0.26722 0.52309,0.52872 0.78515,0.78516 0.25902,0.2657 0.51915,0.52636 0.7793,0.78125 0.26831,0.27553 0.53904,0.54471 0.80859,0.80859 0.2679,0.27478 0.53751,0.54329 0.80665,0.80664 0.26963,0.27667 0.54161,0.54568 0.8125,0.81055 0.25591,0.2623 0.51248,0.51973 0.76953,0.77149 0.26713,0.27401 0.53633,0.54197 0.80468,0.80468 0.26657,0.27364 0.53494,0.54059 0.80274,0.80274 0.26664,0.27364 0.53487,0.54058 0.80273,0.80273 0.26963,0.27629 0.54162,0.54568 0.8125,0.81055 0.25591,0.2623 0.5125,0.51973 0.76953,0.77148 0.26714,0.27402 0.53634,0.54198 0.80469,0.80469 0.26789,0.27477 0.53751,0.54325 0.80664,0.80664 0.26963,0.27628 0.54162,0.54568 0.8125,0.81055 0.2609,0.26721 0.5231,0.52871 0.78516,0.78515 0.24448,0.25061 0.4907,0.49527 0.73633,0.73633 A 256.00002,256.00002 0 0 0 256,512 256.00002,256.00002 0 0 0 512,256 256.00002,256.00002 0 0 0 511.19727,236.54883 c -2.1e-4,-3.5e-4 -0.008,-0.0117 -0.008,-0.0117 h -0.33789 c -0.0227,-0.0378 -0.4609,-0.79883 -0.46094,-0.79883 h -0.33789 c -0.0227,-0.0378 -0.46093,-0.79883 -0.46093,-0.79883 h -0.33789 c -0.0227,-0.0378 -0.46094,-0.79687 -0.46094,-0.79687 h -0.33789 c -0.0227,-0.0378 -0.4609,-0.79883 -0.46094,-0.79883 h -0.33594 c -0.0189,-0.0378 -0.4609,-0.79883 -0.46093,-0.79883 h -0.33789 c -0.0189,-0.034 -0.46094,-0.79883 -0.46094,-0.79883 h -0.33789 c -0.0189,-0.034 -0.46094,-0.79687 -0.46094,-0.79687 h -0.33789 c -0.0189,-0.034 -0.46094,-0.79883 -0.46094,-0.79883 h -0.33594 c -0.0189,-0.034 -0.46093,-0.79883 -0.46093,-0.79883 h -0.33789 c -0.0189,-0.034 -0.46094,-0.79883 -0.46094,-0.79883 h -0.33789 c -0.0189,-0.034 -0.4609,-0.79882 -0.46094,-0.79882 h -0.33789 c -0.0189,-0.034 -0.46094,-0.79688 -0.46094,-0.79688 h -0.33789 c -0.0189,-0.034 -0.46094,-0.79883 -0.46094,-0.79883 h -0.33593 c -0.0189,-0.034 -0.46094,-0.79882 -0.46094,-0.79882 h -0.33789 c -0.0189,-0.034 -0.4609,-0.79883 -0.46094,-0.79883 H 498.875 c -0.0189,-0.034 -0.46094,-0.79688 -0.46094,-0.79688 h -0.33789 c -0.0189,-0.034 -0.46094,-0.79883 -0.46094,-0.79883 h -0.33593 c -0.0189,-0.034 -0.46094,-0.79882 -0.46094,-0.79882 h -0.33789 c -0.0189,-0.034 -0.4609,-0.79883 -0.46094,-0.79883 h -0.33789 c -0.0189,-0.034 -0.46094,-0.79883 -0.46094,-0.79883 h -0.33789 c -0.0189,-0.034 -0.46093,-0.79688 -0.46093,-0.79688 h -0.3379 c -0.0189,-0.034 -0.4609,-0.79882 -0.46093,-0.79882 h -0.33594 c -0.0189,-0.034 -0.4609,-0.79883 -0.46094,-0.79883 h -0.33789 c -0.0189,-0.034 -0.46094,-0.79883 -0.46094,-0.79883 h -0.33789 c -0.0189,-0.034 -0.46093,-0.79883 -0.46093,-0.79883 h -0.3379 c -0.0189,-0.034 -0.46089,-0.79687 -0.46093,-0.79687 h -0.33594 c -0.0189,-0.034 -0.4609,-0.79883 -0.46094,-0.79883 h -0.33789 c -0.0189,-0.034 -0.46094,-0.79883 -0.46094,-0.79883 h -0.33789 c -0.0189,-0.034 -0.46093,-0.79883 -0.46093,-0.79883 h -0.33789 c -0.0189,-0.034 -0.4609,-0.79687 -0.46094,-0.79687 h -0.33789 c -0.0189,-0.034 -0.46094,-0.79883 -0.46094,-0.79883 h -0.33594 c -0.0189,-0.034 -0.46094,-0.79883 -0.46094,-0.79883 h -0.33789 c -0.0189,-0.034 -0.46093,-0.79883 -0.46093,-0.79883 h -0.33789 c -0.0189,-0.034 -0.4609,-0.79883 -0.46094,-0.79883 h -0.33789 c -0.0189,-0.034 -0.46094,-0.79687 -0.46094,-0.79687 h -0.33594 c -0.0189,-0.034 -0.46093,-0.79883 -0.46093,-0.79883 h -0.33789 c -0.0189,-0.034 -0.46094,-0.79883 -0.46094,-0.79883 h -0.33789 c -0.0189,-0.034 -0.4609,-0.79882 -0.46094,-0.79882 h -0.33789 c -0.0189,-0.034 -0.46094,-0.79688 -0.46094,-0.79688 h -0.33789 c -0.0189,-0.034 -0.46094,-0.79883 -0.46094,-0.79883 h -0.33593 c -0.0189,-0.034 -0.46094,-0.79883 -0.46094,-0.79883 h -0.33789 c -0.0189,-0.034 -0.46094,-0.79882 -0.46094,-0.79882 h -0.33789 c -0.0189,-0.034 -0.46094,-0.79883 -0.46094,-0.79883 h -0.33789 c -0.0189,-0.034 -0.46094,-0.79688 -0.46094,-0.79688 h -0.33789 c -0.0189,-0.034 -0.4609,-0.79882 -0.46093,-0.79882 h -0.33594 c -0.0189,-0.0302 -0.46094,-0.79883 -0.46094,-0.79883 H 474.125 c -0.0189,-0.0302 -0.46094,-0.79883 -0.46094,-0.79883 h -0.33789 c -0.0189,-0.0302 -0.46094,-0.79883 -0.46094,-0.79883 h -0.33789 c -0.0189,-0.0302 -0.46093,-0.79687 -0.46093,-0.79687 h -0.33594 c -0.0189,-0.0302 -0.46094,-0.79883 -0.46094,-0.79883 h -0.33789 c -0.0189,-0.0302 -0.46094,-0.79883 -0.46094,-0.79883 h -0.33789 c -0.0189,-0.0302 -0.46093,-0.79883 -0.46093,-0.79883 h -0.3379 c -0.0189,-0.0302 -0.46093,-0.79687 -0.46093,-0.79687 h -0.33789 c -0.0189,-0.0302 -0.46094,-0.79883 -0.46094,-0.79883 h -0.33594 c -0.0189,-0.0302 -0.46094,-0.79883 -0.46094,-0.79883 h -0.33789 c -0.0189,-0.0302 -0.46093,-0.79883 -0.46093,-0.79883 h -0.3379 c -0.0189,-0.0302 -0.46093,-0.79883 -0.46093,-0.79883 h -0.33789 c -0.0189,-0.0302 -0.46094,-0.79687 -0.46094,-0.79687 h -0.33789 c -0.0189,-0.0302 -0.46094,-0.79883 -0.46094,-0.79883 h -0.33789 c -0.0189,-0.0302 -0.46094,-0.79883 -0.46094,-0.79883 h -0.33789 c -0.0189,-0.0302 -0.46093,-0.79883 -0.46093,-0.79883 h -0.3379 c -0.0189,-0.0302 -0.46093,-0.79687 -0.46093,-0.79687 h -0.33789 c -0.0189,-0.0302 -0.4609,-0.79883 -0.46094,-0.79883 h -0.33594 c -0.0189,-0.0302 -0.46094,-0.79883 -0.46094,-0.79883 h -0.33789 c -0.0189,-0.0302 -0.46093,-0.79883 -0.46093,-0.79883 h -0.3379 c -0.0189,-0.0302 -0.46093,-0.79882 -0.46093,-0.79882 h -0.33789 c -0.0189,-0.0302 -0.4609,-0.79688 -0.46094,-0.79688 h -0.33594 c -0.0189,-0.0302 -0.46094,-0.79883 -0.46094,-0.79883 h -0.33789 c -0.0189,-0.0302 -0.46093,-0.79882 -0.46093,-0.79882 h -0.33789 c -0.0189,-0.0302 -0.46094,-0.79883 -0.46094,-0.79883 h -0.33789 c -0.0189,-0.0302 -0.4609,-0.79883 -0.46094,-0.79883 h -0.33789 c -0.0189,-0.0302 -0.46094,-0.79688 -0.46094,-0.79688 h -0.33594 c -0.0189,-0.0302 -0.46093,-0.79882 -0.46093,-0.79882 h -0.33789 c -0.0189,-0.0302 -0.46094,-0.79883 -0.46094,-0.79883 h -0.33789 c -0.0189,-0.0302 -0.4609,-0.79883 -0.46094,-0.79883 h -0.33789 c -0.0189,-0.0302 -0.46094,-0.79687 -0.46094,-0.79687 h -0.33593 c -0.0189,-0.0302 -0.46094,-0.79883 -0.46094,-0.79883 h -0.33789 c -0.0189,-0.0302 -0.46094,-0.79883 -0.46094,-0.79883 h -0.33789 c -0.0189,-0.0302 -0.4609,-0.79883 -0.46094,-0.79883 h -0.33789 c -0.0151,-0.0302 -0.46094,-0.79883 -0.46094,-0.79883 h -0.33789 c -0.0151,-0.0302 -0.46094,-0.79687 -0.46094,-0.79687 h -0.33593 c -0.0151,-0.0302 -0.46094,-0.79883 -0.46094,-0.79883 h -0.33789 c -0.0151,-0.0302 -0.4609,-0.79883 -0.46094,-0.79883 h -0.33789 c -0.0151,-0.0302 -0.46094,-0.79883 -0.46094,-0.79883 h -0.33789 c -0.0151,-0.0302 -0.46093,-0.79687 -0.46093,-0.79687 h -0.33594 c -0.0151,-0.0302 -0.46094,-0.79883 -0.46094,-0.79883 h -0.33789 c -0.0151,-0.0302 -0.46094,-0.79883 -0.46094,-0.79883 h -0.33789 c -0.0151,-0.0302 -0.46094,-0.79883 -0.46094,-0.79883 h -0.33789 c -0.0151,-0.0302 -0.46093,-0.79882 -0.46093,-0.79882 h -0.33789 c -0.0151,-0.0302 -0.46094,-0.79688 -0.46094,-0.79688 h -0.33594 c -0.0151,-0.0302 -0.46094,-0.79883 -0.46094,-0.79883 h -0.33789 c -0.0151,-0.0302 -0.46094,-0.79883 -0.46093,-0.79883 h -0.3379 c -0.0151,-0.0302 -0.46093,-0.79882 -0.46093,-0.79882 h -0.33789 c -0.0151,-0.0302 -0.46094,-0.79883 -0.46094,-0.79883 h -0.33789 c -0.0151,-0.0302 -0.46094,-0.79688 -0.46094,-0.79688 h -0.33594 c -0.0151,-0.0302 -0.46093,-0.79883 -0.46093,-0.79883 h -0.3379 c -0.0151,-0.0265 -0.46093,-0.79882 -0.46093,-0.79882 h -0.33789 c -0.0151,-0.0265 -0.46094,-0.79883 -0.46094,-0.79883 h -0.33789 c -0.0151,-0.0265 -0.46094,-0.79688 -0.46094,-0.79688 h -0.33594 c -0.0151,-0.0265 -0.46093,-0.79882 -0.46093,-0.79882 h -0.33789 c -0.0151,-0.0265 -0.4609,-0.79883 -0.46094,-0.79883 h -0.33789 c -0.0151,-0.0265 -0.46094,-0.79883 -0.46094,-0.79883 h -0.33789 c -0.0151,-0.0265 -0.46094,-0.79883 -0.46094,-0.79883 h -0.33789 c -0.0151,-0.0265 -0.46094,-0.79687 -0.46094,-0.79687 h -0.33593 c -0.0151,-0.0265 -0.4609,-0.79883 -0.46094,-0.79883 h -0.33789 c -0.0151,-0.0265 -0.46094,-0.79883 -0.46094,-0.79883 h -0.33789 c -0.0151,-0.0265 -0.46094,-0.79883 -0.46094,-0.79883 h -0.33789 c -0.0151,-0.0264 -0.46094,-0.79687 -0.46094,-0.79687 h -0.33593 c -0.0151,-0.0265 -0.4609,-0.79883 -0.46094,-0.79883 h -0.33789 c -0.0151,-0.0265 -0.46094,-0.79883 -0.46094,-0.79883 h -0.33789 c -0.0151,-0.0265 -0.46094,-0.79883 -0.46094,-0.79883 h -0.33789 c -0.0151,-0.0265 -0.46093,-0.79883 -0.46094,-0.79883 h -0.33789 c -0.0151,-0.0264 -0.46093,-0.79687 -0.46093,-0.79687 h -0.33594 c -0.0151,-0.0265 -0.46094,-0.79883 -0.46094,-0.79883 h -0.33789 c -0.0151,-0.0265 -0.46094,-0.79883 -0.46094,-0.79883 h -0.33789 c -0.0151,-0.0264 -0.46093,-0.79882 -0.46093,-0.79882 h -0.33789 c -0.0151,-0.0265 -0.46094,-0.79883 -0.46094,-0.79883 h -0.33594 c -0.0151,-0.0265 -0.46094,-0.79688 -0.46094,-0.79688 h -0.33789 c -0.0151,-0.0264 -0.46094,-0.79883 -0.46094,-0.79883 h -0.33789 c -0.0151,-0.0265 -0.46093,-0.79882 -0.46093,-0.79882 h -0.33789 c -0.0151,-0.0265 -0.46094,-0.79883 -0.46094,-0.79883 h -0.33789 c -0.0151,-0.0265 -0.46094,-0.79688 -0.46094,-0.79688 h -0.33594 c -0.0151,-0.0265 -0.46094,-0.79883 -0.46093,-0.79883 h -0.3379 c -0.0151,-0.0264 -0.46093,-0.79882 -0.46093,-0.79882 h -0.33789 c -0.0151,-0.0265 -0.46094,-0.79883 -0.46094,-0.79883 h -0.33789 c -0.0151,-0.0265 -0.46094,-0.79883 -0.46094,-0.79883 h -0.33594 c -0.0151,-0.0265 -0.46093,-0.79688 -0.46093,-0.79688 h -0.3379 c -0.0151,-0.0265 -0.46093,-0.79882 -0.46093,-0.79882 h -0.33789 c -0.0151,-0.0265 -0.46094,-0.79883 -0.46094,-0.79883 h -0.33789 c -0.0151,-0.0265 -0.46094,-0.79883 -0.46094,-0.79883 h -0.33789 c -0.0151,-0.0265 -0.46094,-0.79687 -0.46094,-0.79687 h -0.33593 c -0.0151,-0.0265 -0.46094,-0.79883 -0.46094,-0.79883 h -0.33789 C 405.44582,131.12198 405,130.34961 405,130.34961 h -0.33789 c -0.0151,-0.0265 -0.46094,-0.79883 -0.46094,-0.79883 h -0.33789 c -0.0151,-0.0265 -0.46094,-0.79883 -0.46094,-0.79883 h -0.33593 c -0.0151,-0.0264 -0.46094,-0.79687 -0.46094,-0.79687 h -0.33789 c -0.0151,-0.0265 -0.46094,-0.79883 -0.46094,-0.79883 h -0.33789 c -0.0151,-0.0265 -0.46094,-0.79883 -0.46094,-0.79883 h -0.33789 c -0.0151,-0.0265 -0.46094,-0.79883 -0.46094,-0.79883 h -0.33789 c -0.0151,-0.0264 -0.46093,-0.79882 -0.46093,-0.79882 h -0.33594 c -0.0151,-0.0265 -0.46094,-0.79688 -0.46094,-0.79688 h -0.33789 c -0.0151,-0.0265 -0.46094,-0.79883 -0.46094,-0.79883 h -0.33789 c -0.0151,-0.0265 -0.46094,-0.79883 -0.46094,-0.79883 h -0.33789 c -0.0151,-0.0264 -0.46093,-0.79882 -0.46093,-0.79882 h -0.33594 c -0.0151,-0.0265 -0.46094,-0.79688 -0.46094,-0.79688 h -0.33789 c -0.0151,-0.0265 -0.46094,-0.79883 -0.46094,-0.79883 h -0.33789 c -0.0151,-0.0264 -0.46093,-0.79882 -0.46093,-0.79882 h -0.33789 c -0.0151,-0.0265 -0.46094,-0.79883 -0.46094,-0.79883 h -0.33789 c -0.0151,-0.0265 -0.46094,-0.79883 -0.46094,-0.79883 h -0.33594 c -0.0151,-0.0265 -0.46094,-0.79688 -0.46094,-0.79688 h -0.33789 c -0.0151,-0.0264 -0.46093,-0.79882 -0.46093,-0.79882 h -0.33789 c -0.0151,-0.0265 -0.46094,-0.79883 -0.46094,-0.79883 h -0.33789 c -0.0151,-0.0265 -0.46094,-0.79883 -0.46094,-0.79883 h -0.33789 c -0.0151,-0.0265 -0.46094,-0.79688 -0.46094,-0.79688 h -0.33594 c -0.0151,-0.0264 -0.46093,-0.79882 -0.46093,-0.79882 h -0.33789 c -0.0151,-0.0265 -0.46094,-0.79883 -0.46094,-0.79883 h -0.33789 c -0.0151,-0.0265 -0.46094,-0.79883 -0.46094,-0.79883 H 385.5 c -0.0151,-0.0265 -0.46094,-0.79883 -0.46094,-0.79883 h -0.33594 c -0.0151,-0.0265 -0.46093,-0.79687 -0.46093,-0.79687 h -0.33789 c -0.0151,-0.0265 -0.46094,-0.79883 -0.46094,-0.79883 h -0.33789 c -0.0151,-0.0265 -0.46094,-0.79883 -0.46094,-0.79883 h -0.33789 c -0.0151,-0.0265 -0.46094,-0.79883 -0.46094,-0.79883 h -0.33789 l -0.46093,-0.79883 h -0.33594 c -0.0151,-0.0227 -0.46094,-0.79687 -0.46094,-0.79687 h -0.33789 c -0.0151,-0.0227 -0.46094,-0.79883 -0.46094,-0.79883 h -0.33789 l -0.46094,-0.79883 h -0.33789 c -0.0151,-0.0227 -0.46093,-0.79883 -0.46093,-0.79883 h -0.33594 c -0.014,-0.0227 -0.46094,-0.79687 -0.46094,-0.79687 h -0.23828 -0.0996 c -0.014,-0.0227 -0.46093,-0.79883 -0.46094,-0.79883 h -0.11914 -0.21875 l -0.45312,-0.79883 h -59.73438 l 0.002,0.002 c 0.23153,0.40097 29.86523,51.72851 29.86523,51.72851 l 0.002,0.002 c 0.23154,0.401 29.86524,51.73046 29.86524,51.73046 l 0.002,0.002 c 0.10326,0.17877 6.75735,11.70312 13.32031,23.07031 -0.0378,-0.042 -0.0759,-0.0776 -0.11328,-0.11914 -0.21657,-0.24907 -0.43382,-0.50932 -0.65039,-0.75 -0.22602,-0.26003 -0.4516,-0.53198 -0.67773,-0.7832 -0.21884,-0.25172 -0.43918,-0.51441 -0.65821,-0.75782 -0.2279,-0.2623 -0.45561,-0.53591 -0.68359,-0.78906 -0.22639,-0.26003 -0.45326,-0.53002 -0.67969,-0.78125 -0.2109,-0.24227 -0.42184,-0.49595 -0.63281,-0.73047 -0.22791,-0.2623 -0.45565,-0.53587 -0.68359,-0.78906 -0.22375,-0.25739 -0.44806,-0.52486 -0.67188,-0.77344 -0.21505,-0.24756 -0.43116,-0.50673 -0.64648,-0.74609 -0.22791,-0.26192 -0.45569,-0.53591 -0.6836,-0.78906 -5.94442,-6.83456 -11.91049,-10.61353 -20.24804,-12.69336 -0.009,-0.0151 -0.3711,-0.64453 -0.3711,-0.64453 h -0.002 -0.33399 c -0.014,-0.0227 -0.46093,-0.79688 -0.46093,-0.79688 h -0.004 -0.33398 c -0.014,-0.0227 -0.46094,-0.79883 -0.46094,-0.79883 h -0.002 -0.33594 c -0.014,-0.0227 -0.46094,-0.79883 -0.46094,-0.79883 h -0.002 -0.33594 c -0.014,-0.0227 -0.46094,-0.79882 -0.46094,-0.79882 h -0.002 -0.33594 c -0.014,-0.0227 -0.46094,-0.79883 -0.46094,-0.79883 h -0.002 -0.33398 c -0.014,-0.0227 -0.46094,-0.79688 -0.46094,-0.79688 h -0.002 -0.33594 c -0.014,-0.0227 -0.46094,-0.79882 -0.46094,-0.79882 h -0.002 -0.33594 c -0.014,-0.0227 -0.46094,-0.79883 -0.46094,-0.79883 H 355 354.66406 c -0.014,-0.0227 -0.46094,-0.79883 -0.46094,-0.79883 h -0.002 -0.33594 c -0.014,-0.0227 -0.46093,-0.79883 -0.46093,-0.79883 h -0.002 -0.33398 c -0.014,-0.0227 -0.46094,-0.79687 -0.46094,-0.79687 h -0.002 -0.33594 c -0.014,-0.0227 -0.46094,-0.79883 -0.46094,-0.79883 h -0.002 -0.33594 c -0.014,-0.0227 -0.46093,-0.79883 -0.46093,-0.79883 h -0.002 -0.33593 c -0.014,-0.0227 -0.46094,-0.79883 -0.46094,-0.79883 h -0.002 -0.33398 c -0.014,-0.0227 -0.46094,-0.79687 -0.46094,-0.79687 h -0.004 -0.33399 c -0.014,-0.0227 -0.46094,-0.79883 -0.46094,-0.79883 h -0.002 -0.33594 c -0.014,-0.0227 -0.46093,-0.79883 -0.46093,-0.79883 h -0.002 -0.33593 c -0.014,-0.0227 -0.46094,-0.79883 -0.46094,-0.79883 h -0.002 -0.33593 c -0.014,-0.0227 -0.46094,-0.79883 -0.46094,-0.79883 h -0.002 -0.33399 c -0.014,-0.0227 -0.46094,-0.79687 -0.46093,-0.79687 h -0.002 -0.33594 c -0.014,-0.0227 -0.46093,-0.79883 -0.46093,-0.79883 h -0.002 -0.33593 c -0.014,-0.0227 -0.46094,-0.79883 -0.46094,-0.79883 h -0.002 -0.33594 c -0.014,-0.0227 -0.46094,-0.79883 -0.46094,-0.79883 h -0.002 -0.33399 c -0.014,-0.0227 -0.46093,-0.79687 -0.46093,-0.79687 h -0.004 -0.33399 c -0.014,-0.0227 -0.46093,-0.79883 -0.46093,-0.79883 h -0.002 -0.33593 c -0.014,-0.0227 -0.46094,-0.79883 -0.46094,-0.79883 h -0.002 -0.33594 c -0.014,-0.0227 -0.46094,-0.79883 -0.46094,-0.79883 h -0.002 -0.33594 c -0.014,-0.0227 -0.46094,-0.79882 -0.46094,-0.79882 h -0.002 -0.33398 c -0.014,-0.0227 -0.46094,-0.79688 -0.46094,-0.79688 h -0.004 -0.33398 c -0.014,-0.0227 -0.46094,-0.79883 -0.46094,-0.79883 h -0.002 -0.33594 c -0.014,-0.0227 -0.46094,-0.79882 -0.46094,-0.79882 h -0.002 -0.33594 c -0.014,-0.0227 -0.46094,-0.79883 -0.46094,-0.79883 h -0.002 -0.33594 c -0.014,-0.0227 -0.46093,-0.79883 -0.46093,-0.79883 h -0.002 -0.33398 c -0.014,-0.0227 -0.46094,-0.79688 -0.46094,-0.79688 h -0.002 -0.33594 c -0.014,-0.0227 -0.46094,-0.79882 -0.46094,-0.79882 h -0.002 -0.33594 c -0.014,-0.0227 -0.46094,-0.79883 -0.46094,-0.79883 h -0.002 -0.33594 c -0.014,-0.0227 -0.46093,-0.79883 -0.46093,-0.79883 h -0.002 -0.33398 c -0.014,-0.0227 -0.46094,-0.79687 -0.46094,-0.79687 h -0.004 -0.33399 c -0.014,-0.0227 -0.46094,-0.79883 -0.46094,-0.79883 h -0.002 -0.33594 c -0.014,-0.0227 -0.46093,-0.79883 -0.46094,-0.79883 h -0.002 -0.33594 c -0.014,-0.0227 -0.46093,-0.79883 -0.46093,-0.79883 h -0.002 -0.33593 c -0.014,-0.0227 -0.46094,-0.79883 -0.46094,-0.79883 h -0.002 -0.33399 c -0.014,-0.0227 -0.46094,-0.79687 -0.46094,-0.79687 h -0.002 -0.33594 c -0.014,-0.0227 -0.46093,-0.79883 -0.46093,-0.79883 h -0.002 -0.33593 c -0.014,-0.0227 -0.46094,-0.79883 -0.46094,-0.79883 h -0.002 -0.33593 c -0.014,-0.0227 -0.46094,-0.79883 -0.46094,-0.79883 h -0.002 -0.33399 c -0.014,-0.0227 -0.46094,-0.79687 -0.46094,-0.79687 h -0.004 -0.33399 c -0.014,-0.0227 -0.46093,-0.79883 -0.46093,-0.79883 h -0.002 -0.33593 c -0.014,-0.0227 -0.46094,-0.79883 -0.46094,-0.79883 h -0.002 -0.33593 c -0.014,-0.0227 -0.46094,-0.79883 -0.46094,-0.79883 h -0.002 -0.33594 c -0.014,-0.0227 -0.46094,-0.79882 -0.46094,-0.79882 h -0.002 -0.33399 c -0.014,-0.0227 -0.46093,-0.79688 -0.46093,-0.79688 h -0.004 -0.33398 c -0.014,-0.0227 -0.46094,-0.79883 -0.46094,-0.79883 h -0.002 -0.33594 c -0.014,-0.0227 -0.46094,-0.79883 -0.46094,-0.79883 h -0.002 -0.33594 c -0.014,-0.0227 -0.46094,-0.79882 -0.46094,-0.79882 h -0.002 -0.33594 c -0.014,-0.0227 -0.46094,-0.79883 -0.46094,-0.79883 h -0.002 -0.33398 c -0.014,-0.0227 -0.46094,-0.79688 -0.46094,-0.79688 h -0.002 -0.33594 c -0.014,-0.0227 -0.46094,-0.79883 -0.46094,-0.79883 h -0.002 -0.33594 c -0.014,-0.0227 -0.46094,-0.79882 -0.46094,-0.79882 h -0.002 -0.33594 c -0.014,-0.0227 -0.46094,-0.79883 -0.46093,-0.79883 h -0.002 -0.33398 c -0.014,-0.0227 -0.46094,-0.79688 -0.46094,-0.79688 h -0.004 -0.33398 c -0.014,-0.0227 -0.46094,-0.79882 -0.46094,-0.79882 h -0.002 -0.33594 c -0.014,-0.0227 -0.46094,-0.79883 -0.46094,-0.79883 h -0.002 -0.33594 c -0.014,-0.0227 -0.46093,-0.79883 -0.46093,-0.79883 h -0.002 -0.33594 c -0.014,-0.0227 -0.46093,-0.79883 -0.46093,-0.79883 h -0.002 -0.33398 c -0.014,-0.0227 -0.46094,-0.79687 -0.46094,-0.79687 h -0.004 -0.33399 c -0.014,-0.0227 -0.46094,-0.79883 -0.46094,-0.79883 h -0.002 -0.33594 c -0.014,-0.0227 -0.46093,-0.79883 -0.46093,-0.79883 h -0.002 -0.33593 c -0.014,-0.0227 -0.46094,-0.79883 -0.46094,-0.79883 h -0.002 -0.33399 c -0.014,-0.0227 -0.46094,-0.79687 -0.46094,-0.79687 h -0.004 -0.33399 c -0.014,-0.0227 -0.46094,-0.79883 -0.46094,-0.79883 h -0.002 -0.33594 c -0.014,-0.0227 -0.46093,-0.79883 -0.46093,-0.79883 h -0.002 -0.33593 c -0.014,-0.0227 -0.46094,-0.79883 -0.46094,-0.79883 h -0.002 -0.33594 c -0.014,-0.0227 -0.46094,-0.79883 -0.46094,-0.79883 h -0.002 -0.33399 c -0.014,-0.0227 -0.46093,-0.79687 -0.46093,-0.79687 h -0.004 -0.33398 c -0.014,-0.0227 -0.46094,-0.79883 -0.46094,-0.79883 h -0.002 -0.33593 c -0.014,-0.0227 -0.46094,-0.79883 -0.46094,-0.79883 h -0.002 -0.33594 c -0.014,-0.0227 -0.46094,-0.79882 -0.46094,-0.79882 h -0.002 -0.33594 c -0.014,-0.0227 -0.46094,-0.79883 -0.46094,-0.79883 h -0.002 -0.33398 c -0.014,-0.0227 -0.46094,-0.79688 -0.46094,-0.79688 h -0.004 -0.33398 c -0.014,-0.0227 -0.46094,-0.79883 -0.46094,-0.79883 h -0.002 -0.33594 c -0.014,-0.0227 -0.46094,-0.79882 -0.46094,-0.79882 h -0.002 -0.33594 c -0.014,-0.0227 -0.46094,-0.79883 -0.46094,-0.79883 h -0.002 -0.33203 c -0.014,-0.0227 -0.46094,-0.79688 -0.46094,-0.79688 h -0.004 -0.33399 c -0.014,-0.0227 -0.46094,-0.79883 -0.46094,-0.79883 h -0.002 -0.33594 c -0.014,-0.0227 -0.46093,-0.79882 -0.46093,-0.79882 h -0.002 -0.33594 c -0.014,-0.0227 -0.46093,-0.79883 -0.46093,-0.79883 h -0.002 -0.33593 c -0.014,-0.0227 -0.46094,-0.79883 -0.46094,-0.79883 h -0.002 -0.33399 c -0.014,-0.0227 -0.46094,-0.79688 -0.46094,-0.79688 h -0.004 -0.33399 c -0.014,-0.0227 -0.46093,-0.79882 -0.46093,-0.79882 h -0.002 -0.33593 c -0.014,-0.0227 -0.46094,-0.79883 -0.46094,-0.79883 h -0.002 -0.33594 c -0.014,-0.0227 -0.46094,-0.79883 -0.46094,-0.79883 h -0.002 -0.33399 c -0.014,-0.0227 -0.46094,-0.79687 -0.46094,-0.79687 h -0.004 -0.33399 c -0.014,-0.0227 -0.46093,-0.79883 -0.46093,-0.79883 h -0.004 -0.33398 c -0.014,-0.0227 -0.46094,-0.79883 -0.46094,-0.79883 h -0.002 -0.33594 c -0.014,-0.0227 -0.46094,-0.79883 -0.46094,-0.79883 h -0.002 -0.33594 c -0.014,-0.0227 -0.46094,-0.79883 -0.46094,-0.79883 h -0.002 -0.33398 c -0.014,-0.0227 -0.46094,-0.79687 -0.46094,-0.79687 h -0.004 -0.33398 c -0.014,-0.0227 -0.46094,-0.79883 -0.46094,-0.79883 h -0.002 -0.33594 c -0.014,-0.0227 -0.46094,-0.79883 -0.46094,-0.79883 h -0.002 -0.33594 c -0.014,-0.0227 -0.46094,-0.79883 -0.46094,-0.79883 h -0.002 -0.33594 c -0.014,-0.0227 -0.46094,-0.79882 -0.46094,-0.79882 h -0.002 -0.33398 c -0.014,-0.0227 -0.46094,-0.79688 -0.46094,-0.79688 h -0.004 -0.33398 c -0.014,-0.0227 -0.46094,-0.79883 -0.46094,-0.79883 h -0.002 -0.33594 c -0.014,-0.0227 -0.46094,-0.79883 -0.46094,-0.79883 h -0.002 -0.33594 c -0.014,-0.0227 -0.46093,-0.79882 -0.46093,-0.79882 h -0.002 -0.33398 c -0.014,-0.0227 -0.46094,-0.79688 -0.46094,-0.79688 h -0.004 -0.33398 c -0.014,-0.0227 -0.46094,-0.79883 -0.46094,-0.79883 h -0.004 -0.33399 c -0.014,-0.0227 -0.46094,-0.79882 -0.46094,-0.79882 h -0.002 -0.33594 c -0.014,-0.0227 -0.46093,-0.79883 -0.46093,-0.79883 h -0.002 -0.33593 c -0.014,-0.0227 -0.46094,-0.79883 -0.46094,-0.79883 h -0.002 -0.33398 l -0.46094,-0.79688 h -0.004 -0.33399 c -0.014,-0.0227 -0.46094,-0.79882 -0.46093,-0.79882 h -0.002 -0.33594 c -0.014,-0.0227 -0.46093,-0.79883 -0.46093,-0.79883 h -0.002 -0.33593 c -0.014,-0.0227 -0.46094,-0.79883 -0.46094,-0.79883 h -0.002 -0.33399 c -0.014,-0.0227 -0.46094,-0.79688 -0.46094,-0.79688 h -0.004 -0.33399 c -0.014,-0.0227 -0.46093,-0.79882 -0.46093,-0.79882 h -0.004 -0.33399 c -0.014,-0.0227 -0.46093,-0.79883 -0.46093,-0.79883 h -0.002 -0.33593 c -0.014,-0.0227 -0.46094,-0.79883 -0.46094,-0.79883 h -0.002 -0.33594 c -0.014,-0.0227 -0.46094,-0.79883 -0.46094,-0.79883 h -0.002 -0.33399 c -0.014,-0.0227 -0.46093,-0.79687 -0.46093,-0.79687 h -0.004 -0.33398 c -0.014,-0.0227 -0.46094,-0.79883 -0.46094,-0.79883 h -0.004 -0.33398 c -0.014,-0.0227 -0.46094,-0.79883 -0.46094,-0.79883 h -0.002 -0.33594 c -0.014,-0.0227 -0.46094,-0.79883 -0.46094,-0.79883 h -0.002 -0.33594 c -0.014,-0.0227 -0.46094,-0.79883 -0.46094,-0.79883 h -0.002 -0.33398 c -0.014,-0.0227 -0.46094,-0.79687 -0.46094,-0.79687 h -0.004 -0.33398 c -0.014,-0.0227 -0.46094,-0.79883 -0.46094,-0.79883 h -0.002 -0.33594 c -0.014,-0.0227 -0.46094,-0.79883 -0.46094,-0.79883 h -0.002 -0.33594 c -0.014,-0.0227 -0.46094,-0.79883 -0.46094,-0.79883 h -0.002 -0.33398 l -0.46094,-0.79687 h -0.002 -0.33399 c -0.014,-0.0227 -0.46094,-0.79883 -0.46094,-0.79883 h -0.004 -0.33399 c -0.014,-0.0227 -0.46093,-0.79883 -0.46093,-0.79883 h -0.002 z"
         style="opacity:0.29200003;fill:url(#linearGradient6583);fill-opacity:1;stroke:none;stroke-width:32.58620071;stroke-linecap:round;stroke-linejoin:bevel;stroke-miterlimit:4;stroke-dasharray:none;stroke-opacity:1;paint-order:normal" />
      <path
         inkscape:label="#path907-7"
         inkscape:connector-curvature="0"
         id="t3"
         d="m 83.537792,188.20553 7.902225,13.68689 7.902208,13.68777 7.902225,13.68691 7.90223,-13.68691 -7.90223,-13.68777 -7.902225,-13.68689 z"
         style="opacity:1;fill:#00ff00;fill-opacity:1;stroke:none;stroke-width:2.28117537;stroke-linecap:round;stroke-linejoin:bevel;stroke-miterlimit:4;stroke-dasharray:none;stroke-opacity:1;paint-order:normal"
         inkscape:export-xdpi="163.84"
         inkscape:export-ydpi="163.84" />
      <path
         inkscape:label="#path827-0"
         inkscape:connector-curvature="0"
         id="g3"
         d="m 28.222233,229.2671 -7.902226,13.68688 7.902226,13.68691 c 7.977666,13.68705 7.977666,13.68705 23.706658,13.6869 l -7.902208,-13.6869 -7.902225,-13.68691 z"
         style="opacity:1;fill:#00aad4;fill-opacity:1;stroke:none;stroke-width:2.28117537;stroke-linecap:round;stroke-linejoin:bevel;stroke-miterlimit:4;stroke-dasharray:none;stroke-opacity:1;paint-order:normal"
         inkscape:export-xdpi="163.84"
         inkscape:export-ydpi="163.84"
         sodipodi:nodetypes="ccccccc" />
      <path
         inkscape:label="#path831-4"
         inkscape:connector-curvature="0"
         id="g2"
         d="m 28.222233,201.89242 -7.902226,13.68777 c -7.902648,13.687 -7.902648,13.6879 0,27.37379 l 7.902226,-13.68688 7.902225,-13.68691 7.902225,-13.68777 z"
         style="opacity:1;fill:#2c89a0;fill-opacity:1;stroke:none;stroke-width:2.28117537;stroke-linecap:round;stroke-linejoin:bevel;stroke-miterlimit:4;stroke-dasharray:none;stroke-opacity:1;paint-order:normal"
         inkscape:export-xdpi="163.84"
         inkscape:export-ydpi="163.84"
         sodipodi:nodetypes="ccccccc" />
      <path
         inkscape:label="#path845-9"
         inkscape:connector-curvature="0"
         id="g1"
         d="m 28.222233,201.89242 h 15.80445 15.804433 15.804451 L 67.733342,188.20553 H 51.928891 c -15.804865,4e-5 -15.804865,4e-5 -23.706658,13.68689 z"
         style="opacity:1;fill:#216778;fill-opacity:1;stroke:none;stroke-width:2.28117537;stroke-linecap:round;stroke-linejoin:bevel;stroke-miterlimit:4;stroke-dasharray:none;stroke-opacity:1;paint-order:normal"
         inkscape:export-xdpi="163.84"
         inkscape:export-ydpi="163.84"
         sodipodi:nodetypes="ccccccc" />
      <path
         inkscape:label="#path871-3"
         inkscape:connector-curvature="0"
         id="g6"
         d="m 44.026683,229.2671 7.902208,13.68688 H 67.733342 L 75.635567,229.2671 H 59.831116 Z"
         style="opacity:1;fill:#55ddff;fill-opacity:1;stroke:none;stroke-width:2.28117537;stroke-linecap:round;stroke-linejoin:bevel;stroke-miterlimit:4;stroke-dasharray:none;stroke-opacity:1;paint-order:normal"
         inkscape:export-xdpi="163.84"
         inkscape:export-ydpi="163.84" />
      <path
         inkscape:label="#path4502"
         inkscape:export-ydpi="163.84"
         inkscape:export-xdpi="163.84"
         style="opacity:1;fill:#00ccff;fill-opacity:1;stroke:none;stroke-width:2.28117537;stroke-linecap:round;stroke-linejoin:bevel;stroke-miterlimit:4;stroke-dasharray:none;stroke-opacity:1;paint-order:normal"
         d="m 44.026683,256.64089 7.902208,13.6869 c 15.804451,0 15.804451,0 23.706676,-13.6869 H 59.831116 Z"
         id="g4"
         inkscape:connector-curvature="0"
         sodipodi:nodetypes="ccccc" />
      <path
         inkscape:label="#path4504"
         inkscape:export-ydpi="163.84"
         inkscape:export-xdpi="163.84"
         style="opacity:1;fill:#2ad4ff;fill-opacity:1;stroke:none;stroke-width:2.28117537;stroke-linecap:round;stroke-linejoin:bevel;stroke-miterlimit:4;stroke-dasharray:none;stroke-opacity:1;paint-order:normal"
         d="m 75.63543,229.26705 -7.902225,13.68688 -7.902225,13.68691 h 15.80445 c 7.902208,-13.68691 7.902208,-13.68691 0,-27.37379 z"
         id="g5"
         inkscape:connector-curvature="0"
         sodipodi:nodetypes="ccccc" />
      <path
         inkscape:label="#path4506"
         inkscape:export-ydpi="163.84"
         inkscape:export-xdpi="163.84"
         style="opacity:1;fill:#00aa00;fill-opacity:1;stroke:none;stroke-width:2.28117537;stroke-linecap:round;stroke-linejoin:bevel;stroke-miterlimit:4;stroke-dasharray:none;stroke-opacity:1;paint-order:normal"
         d="m 115.14668,215.58019 -7.90223,13.68691 -7.902225,13.68688 -7.902208,13.68691 -7.902225,13.6869 h 15.804433 l 7.902225,-13.6869 7.90223,-13.68691 c 7.90222,-13.68688 7.90222,-13.68688 0,-27.37379 z"
         id="t1"
         inkscape:connector-curvature="0"
         sodipodi:nodetypes="ccccccccc" />
      <path
         inkscape:label="#path1105"
         inkscape:export-ydpi="163.84"
         inkscape:export-xdpi="163.84"
         style="opacity:1;fill:#00d400;fill-opacity:1;stroke:none;stroke-width:2.28117537;stroke-linecap:round;stroke-linejoin:bevel;stroke-miterlimit:4;stroke-dasharray:none;stroke-opacity:1;paint-order:normal"
         d="m 83.537786,215.58019 -7.90223,13.68691 h 15.80445 l 7.90221,13.68688 7.902234,-13.68688 -7.902234,-13.68691 z"
         id="t2"
         inkscape:connector-curvature="0" />
    </g>
    <g
       transform="matrix(4.2366832,0,0,4.2366832,-164.94968,53.37196)"
       id="layer1-6"
       inkscape:label="Layer 1">
      <path
         d="m 40.012561,61.611544 -0.370416,0.719667 -0.338667,-0.22225 q -0.613833,-0.328083 -1.164167,-0.328083 -0.677333,0 -1.132416,0.486833 -0.455084,0.47625 -0.53975,1.121833 -0.07408,0.635 -0.08467,0.963083 -0.01058,0.328084 -0.01058,0.85725 v 0.22225 q 0,1.312334 0.455083,1.93675 0.455083,0.613834 1.312333,0.613834 0.07408,0 0.15875,0 0.105834,-0.02117 0.22225,-0.03175 0.116417,-0.02117 0.264584,-0.05292 0.15875,-0.04233 0.338666,-0.127 l 0.09525,-0.04233 0.09525,-0.04233 v -2.402416 h -1.61925 v -0.772584 h 2.667 v 3.767667 l -0.179916,0.07408 -0.275167,0.105834 q -0.751417,0.275166 -1.164167,0.3175 -0.41275,0.05292 -0.66675,0.05292 -1.397,0 -2.169583,-0.931333 -0.762,-0.931333 -0.762,-2.76225 0,-0.433917 0.02117,-0.656167 0.02117,-0.22225 0.105833,-1.068916 0.08467,-0.846667 0.79375,-1.640417 0.719667,-0.804333 1.926167,-0.804333 0.105833,0 0.201083,0 0.09525,0 0.529167,0.05292 0.433916,0.05292 1.121833,0.486833 z"
         style="font-style:normal;font-variant:normal;font-weight:normal;font-stretch:normal;font-size:medium;line-height:1.25;font-family:Glasgow;-inkscape-font-specification:Glasgow;letter-spacing:0px;word-spacing:0px;fill:#00aad4;fill-opacity:1;stroke:none;stroke-width:0.26458332"
         id="path4489"
         inkscape:connector-curvature="0" />
      <path
         d="m 45.748562,66.374044 h -3.280833 l 0.02117,0.232833 q 0.116416,0.677334 0.53975,1.058334 0.433916,0.370416 1.121833,0.370416 0.433917,0 0.994833,-0.179916 l 0.137584,-0.05292 0.105833,-0.04233 0.1905,0.762 -0.137583,0.04233 -0.127,0.04233 q -0.762,0.22225 -1.397,0.22225 -1.2065,0 -1.883834,-0.740833 -0.677333,-0.740833 -0.677333,-2.053167 0,-1.217083 0.497417,-1.915583 0.508,-0.6985 1.058333,-0.772583 0.560917,-0.08467 0.751417,-0.08467 0.98425,0 1.545166,0.687917 0.560917,0.687916 0.560917,1.989666 z m -3.3655,-0.677333 h 2.391834 v -0.169334 q 0,-0.719666 -0.3175,-1.11125 -0.306917,-0.391583 -0.8255,-0.391583 -0.0635,0 -0.370417,0.05292 -0.306917,0.04233 -0.592667,0.41275 -0.275166,0.370416 -0.275166,1.026583 z"
         style="font-style:normal;font-variant:normal;font-weight:normal;font-stretch:normal;font-size:medium;line-height:1.25;font-family:Glasgow;-inkscape-font-specification:Glasgow;letter-spacing:0px;word-spacing:0px;fill:#00aad4;fill-opacity:1;stroke:none;stroke-width:0.26458332"
         id="path4491"
         inkscape:connector-curvature="0" />
      <path
         d="m 46.662697,68.702377 v -5.291666 l 1.005417,-0.04233 v 0.423334 l 0.09525,-0.07408 q 0.275167,-0.211666 0.518583,-0.306916 0.243417,-0.105834 0.53975,-0.105834 h 0.15875 l -0.105833,0.963084 -0.137583,-0.02117 q -0.359834,0 -0.5715,0.04233 -0.201084,0.03175 -0.41275,0.169334 l -0.08467,0.05292 v 4.191 z"
         style="font-style:normal;font-variant:normal;font-weight:normal;font-stretch:normal;font-size:medium;line-height:1.25;font-family:Glasgow;-inkscape-font-specification:Glasgow;letter-spacing:0px;word-spacing:0px;fill:#00aad4;fill-opacity:1;stroke:none;stroke-width:0.26458332"
         id="path4493"
         inkscape:connector-curvature="0" />
      <path
         d="m 49.473895,68.702377 v -5.291666 l 0.994833,-0.127 v 0.41275 l 0.09525,-0.0635 0.116417,-0.0635 q 0.296333,-0.169334 0.582083,-0.243417 0.28575,-0.07408 0.5715,-0.07408 0.910167,0 1.3335,0.645583 l 0.116417,-0.08467 q 0.306916,-0.22225 0.6985,-0.381 0.391583,-0.169333 0.846666,-0.169333 0.656167,0 1.090083,0.381 0.433917,0.381 0.433917,0.963083 0.02117,0.105834 0.02117,0.22225 0,0.116417 0,0.232834 v 3.640666 h -0.994833 v -3.429 l -0.01058,-0.328083 q 0,-0.381 -0.264583,-0.613833 -0.254,-0.243417 -0.645583,-0.243417 -0.137584,0 -0.28575,0.04233 -0.137584,0.03175 -0.201084,0.05292 -0.05292,0.01058 -0.232833,0.116417 -0.179917,0.09525 -0.338667,0.254 v 4.148666 h -0.994833 v -3.407833 -0.381 q 0,-0.359833 -0.264583,-0.592667 -0.254,-0.243416 -0.656167,-0.243416 -0.148167,0 -0.359833,0.05292 l -0.275167,0.09525 q -0.22225,0.105834 -0.381,0.254 v 4.22275 z"
         style="font-style:normal;font-variant:normal;font-weight:normal;font-stretch:normal;font-size:medium;line-height:1.25;font-family:Glasgow;-inkscape-font-specification:Glasgow;letter-spacing:0px;word-spacing:0px;fill:#00aad4;fill-opacity:1;stroke:none;stroke-width:0.26458332"
         id="path4495"
         inkscape:connector-curvature="0" />
      <path
         d="m 57.546001,68.702377 v -5.291666 l 0.994834,-0.127 v 5.418666 z m -0.07408,-7.016749 q 0,-0.455084 0.22225,-0.53975 0.22225,-0.09525 0.402167,-0.09525 0.529166,0 0.529166,0.635 0,0.624416 -0.518583,0.624416 -0.169333,0 -0.402167,-0.08467 -0.232833,-0.08467 -0.232833,-0.53975 z"
         style="font-style:normal;font-variant:normal;font-weight:normal;font-stretch:normal;font-size:medium;line-height:1.25;font-family:Glasgow;-inkscape-font-specification:Glasgow;letter-spacing:0px;word-spacing:0px;fill:#00aad4;fill-opacity:1;stroke:none;stroke-width:0.26458332"
         id="path4497"
         inkscape:connector-curvature="0" />
      <path
         d="m 59.7265,68.702377 v -5.291666 l 0.98425,-0.137584 v 0.486834 l 0.116417,-0.07408 0.148166,-0.07408 0.254,-0.127 q 0.550334,-0.243417 1.0795,-0.243417 0.677334,0 1.121834,0.370417 0.4445,0.370417 0.4445,0.941917 l 0.02117,0.455083 v 3.693583 H 62.9015 v -3.46075 l -0.01058,-0.3175 q 0,-0.370416 -0.264584,-0.60325 -0.254,-0.243416 -0.677333,-0.243416 -0.338667,0 -0.772583,0.1905 l -0.22225,0.116416 -0.232834,0.15875 v 4.15925 z"
         style="font-style:normal;font-variant:normal;font-weight:normal;font-stretch:normal;font-size:medium;line-height:1.25;font-family:Glasgow;-inkscape-font-specification:Glasgow;letter-spacing:0px;word-spacing:0px;fill:#00aad4;fill-opacity:1;stroke:none;stroke-width:0.26458332"
         id="path4499"
         inkscape:connector-curvature="0" />
      <path
         d="m 68.022841,65.516794 v -0.518583 q 0,-0.486834 -0.232833,-0.709084 -0.22225,-0.232833 -0.772583,-0.232833 l -0.381,0.02117 q -0.306917,0.05292 -0.402167,0.07408 -0.08467,0.01058 -0.338667,0.09525 l -0.201083,0.0635 -0.169333,0.0635 -0.254,-0.783167 0.201083,-0.05292 0.264583,-0.07408 q 0.338667,-0.08467 0.582084,-0.127 0.243416,-0.05292 0.433916,-0.05292 1.27,0 1.767417,0.34925 0.497416,0.34925 0.497416,1.248833 v 3.820583 h -0.941916 l -0.03175,-0.486833 -0.116417,0.08467 q -0.592666,0.455083 -0.910166,0.486833 -0.306917,0.03175 -0.4445,0.04233 -0.127,0.01058 -0.201084,0 -0.719666,0 -1.164166,-0.465666 -0.4445,-0.465667 -0.4445,-1.185334 0,-0.179916 0.07408,-0.613833 0.08467,-0.4445 0.592667,-0.8255 0.518583,-0.381 1.386416,-0.381 0.338667,0 0.719667,0.0635 l 0.232833,0.04233 0.127,0.03175 z m 0,0.582083 -0.137583,-0.02117 -0.1905,-0.02117 q -0.254,-0.03175 -0.47625,-0.03175 -0.53975,0 -0.878417,0.1905 -0.328083,0.1905 -0.423333,0.455083 -0.08467,0.264584 -0.08467,0.4445 0,0.391584 0.28575,0.656167 0.28575,0.264583 0.762,0.264583 0.264584,0 0.486834,-0.07408 0.232833,-0.07408 0.508,-0.275167 l 0.148166,-0.105833 z"
         style="font-style:normal;font-variant:normal;font-weight:normal;font-stretch:normal;font-size:medium;line-height:1.25;font-family:Glasgow;-inkscape-font-specification:Glasgow;letter-spacing:0px;word-spacing:0px;fill:#00aad4;fill-opacity:1;stroke:none;stroke-width:0.26458332"
         id="path4501"
         inkscape:connector-curvature="0" />
      <path
         d="m 69.624892,64.066877 v -0.66675 h 0.656167 v -0.878416 l 0.994833,-0.15875 v 1.037166 h 1.04775 v 0.66675 l -1.037167,0.09525 v 3.175 q 0,0.41275 0.09525,0.5715 0.105834,0.15875 0.381,0.15875 0.09525,0 0.148167,-0.01058 l 0.09525,-0.01058 0.07408,-0.02117 0.09525,-0.03175 0.08467,-0.02117 0.07408,-0.03175 v 0.73025 l -0.08467,0.03175 -0.0635,0.02117 -0.3175,0.0635 q -0.254,0.03175 -0.455084,0.03175 -1.132416,0 -1.132416,-1.185333 V 64.13038 Z"
         style="font-style:normal;font-variant:normal;font-weight:normal;font-stretch:normal;font-size:medium;line-height:1.25;font-family:Glasgow;-inkscape-font-specification:Glasgow;letter-spacing:0px;word-spacing:0px;fill:#00aad4;fill-opacity:1;stroke:none;stroke-width:0.26458332"
         id="path4503"
         inkscape:connector-curvature="0" />
      <path
         d="m 77.167831,66.374044 h -3.280833 l 0.02117,0.232833 q 0.116417,0.677334 0.53975,1.058334 0.433917,0.370416 1.121834,0.370416 0.433916,0 0.994833,-0.179916 l 0.137583,-0.05292 0.105833,-0.04233 0.1905,0.762 -0.137583,0.04233 -0.127,0.04233 q -0.762,0.22225 -1.397,0.22225 -1.2065,0 -1.883833,-0.740833 -0.677333,-0.740833 -0.677333,-2.053167 0,-1.217083 0.497416,-1.915583 0.508,-0.6985 1.058334,-0.772583 0.560916,-0.08467 0.751416,-0.08467 0.98425,0 1.545167,0.687917 0.560916,0.687916 0.560916,1.989666 z m -3.3655,-0.677333 h 2.391833 v -0.169334 q 0,-0.719666 -0.3175,-1.11125 -0.306916,-0.391583 -0.8255,-0.391583 -0.0635,0 -0.370416,0.05292 -0.306917,0.04233 -0.592667,0.41275 -0.275167,0.370416 -0.275167,1.026583 z"
         style="font-style:normal;font-variant:normal;font-weight:normal;font-stretch:normal;font-size:medium;line-height:1.25;font-family:Glasgow;-inkscape-font-specification:Glasgow;letter-spacing:0px;word-spacing:0px;fill:#00aad4;fill-opacity:1;stroke:none;stroke-width:0.26458332"
         id="path4505"
         inkscape:connector-curvature="0" />
    </g>
  </g>
</svg>
