<?xml version="1.0" encoding="UTF-8" standalone="no"?>
<!-- Created with Inkscape (http://www.inkscape.org/) -->

<svg
   xmlns:dc="http://purl.org/dc/elements/1.1/"
   xmlns:cc="http://creativecommons.org/ns#"
   xmlns:rdf="http://www.w3.org/1999/02/22-rdf-syntax-ns#"
   xmlns:svg="http://www.w3.org/2000/svg"
   xmlns="http://www.w3.org/2000/svg"
   xmlns:sodipodi="http://sodipodi.sourceforge.net/DTD/sodipodi-0.dtd"
   xmlns:inkscape="http://www.inkscape.org/namespaces/inkscape"
   height="32.108437"
   id="svg4316"
   version="1.1"
   viewBox="0 0 69.376405 32.108437"
   width="69.376404"
   inkscape:version="0.92.1 r15371"
   sodipodi:docname="hutton-black.svg">
  <defs
     id="defs4318" />
  <sodipodi:namedview
     bordercolor="#666666"
     borderopacity="1.0"
     fit-margin-bottom="0"
     fit-margin-left="0"
     fit-margin-right="0"
     fit-margin-top="0"
     id="base"
     pagecolor="#ffffff"
     showgrid="false"
     units="px"
     inkscape:bbox-nodes="true"
     inkscape:bbox-paths="true"
     inkscape:current-layer="layer1"
     inkscape:cx="9.3128877"
     inkscape:cy="25.045904"
     inkscape:document-units="px"
     inkscape:pageopacity="0.0"
     inkscape:pageshadow="2"
     inkscape:snap-bbox="true"
     inkscape:snap-bbox-edge-midpoints="true"
     inkscape:snap-page="true"
     inkscape:window-height="1377"
     inkscape:window-maximized="1"
     inkscape:window-width="3440"
     inkscape:window-x="-8"
     inkscape:window-y="-8"
     inkscape:zoom="11.2">
    <inkscape:grid
       id="grid4590"
       originx="-11.7669"
       originy="-10.892997"
       type="xygrid" />
  </sodipodi:namedview>
  <metadata
     id="metadata4321">
    <rdf:RDF>
      <cc:Work
         rdf:about="">
        <dc:format>image/svg+xml</dc:format>
        <dc:type
           rdf:resource="http://purl.org/dc/dcmitype/StillImage" />
        <dc:title></dc:title>
      </cc:Work>
    </rdf:RDF>
  </metadata>
  <g
     id="layer1"
     transform="translate(1261.5292,344.94312)"
     inkscape:groupmode="layer"
     inkscape:label="Layer 1">
    <path
       style="fill:#6ba62e;fill-opacity:1;fill-rule:nonzero;stroke:none;stroke-width:0.5524357"
       d="m -1246.3388,-340.01966 c 2.4683,1.40208 5.2487,2.11307 8.2633,2.11307 h 6e-4 c 3.9681,0 7.2999,-1.23746 8.6544,-1.82304 v -1.82525 c 0,-0.34361 -0.1215,-3.38809 -3.2908,-3.38809 h -25.527 c -0.3331,0.003 -3.2908,0.12651 -3.2908,3.38809 v 0.56404 c 1.5462,-0.62702 3.8875,-1.31977 6.7005,-1.31977 2.9572,0 5.8138,0.7712 8.4898,2.29095"
       id="path3095"
       inkscape:connector-curvature="0" />
    <path
       style="fill:#6ba62e;fill-opacity:1;fill-rule:nonzero;stroke:none;stroke-width:0.5524357"
       d="m -1234.5126,-325.91691 v 13.08223 h 1.7982 c 0.3425,-0.004 3.2942,-0.13038 3.2942,-3.38809 v -11.10617 c -1.1209,0.44969 -2.9075,1.05571 -5.0924,1.41203"
       id="path3099"
       inkscape:connector-curvature="0" />
    <path
       style="fill:#6ba62e;fill-opacity:1;fill-rule:nonzero;stroke:none;stroke-width:0.5524357"
       d="m -1238.0742,-325.62157 h -6e-4 c -1.0905,0 -2.1528,-0.0884 -3.1847,-0.2613 v 13.04798 h 5.1404 v -12.87728 c -0.6298,0.058 -1.2828,0.0906 -1.9551,0.0906"
       id="path3103"
       inkscape:connector-curvature="0" />
    <path
       style="fill:#6ba62e;fill-opacity:1;fill-rule:nonzero;stroke:none;stroke-width:0.5524357"
       d="m -1247.0107,-327.91242 c -0.3293,-0.18672 -0.6613,-0.36074 -0.996,-0.52316 v 15.60079 h 5.1404 v -13.3916 c -1.4535,-0.38228 -2.8384,-0.94411 -4.1444,-1.68603"
       id="path3107"
       inkscape:connector-curvature="0" />
    <path
       style="fill:#811c76;fill-opacity:1;fill-rule:nonzero;stroke:none;stroke-width:0.5524357"
       d="m -1254.7541,-330.02438 v 17.18959 h 5.1404 v -16.27641 c -1.6628,-0.59774 -3.3825,-0.90489 -5.1404,-0.91318"
       id="path3111"
       inkscape:connector-curvature="0" />
    <path
       style="fill:#811c76;fill-opacity:1;fill-rule:nonzero;stroke:none;stroke-width:0.5524357"
       d="m -1261.5292,-328.65981 v 12.43698 c 0,0.34362 0.1215,3.38809 3.2914,3.38809 h 1.8772 v -17.11501 c -2.1904,0.20661 -3.9925,0.79938 -5.1686,1.28994"
       id="path3115"
       inkscape:connector-curvature="0" />
    <path
       style="fill:#6ba62e;fill-opacity:1;fill-rule:nonzero;stroke:none;stroke-width:0.5524357"
       d="m -1246.3388,-334.56667 c 2.4683,1.40263 5.2487,2.11362 8.2633,2.11362 h 6e-4 c 3.9698,-5.5e-4 7.3004,-1.23801 8.6544,-1.82359 v -3.97699 c -1.6849,0.67619 -4.8741,1.70758 -8.6544,1.70758 h -6e-4 c -3.2533,0 -6.2591,-0.77064 -8.9351,-2.29095 -2.4688,-1.40208 -5.0989,-2.11362 -7.818,-2.11362 -2.9279,0 -5.3222,0.82645 -6.7005,1.44131 v 3.97035 c 1.5462,-0.62646 3.8891,-1.31811 6.7005,-1.31811 2.9572,0 5.8138,0.77065 8.4898,2.2904"
       id="path3119"
       inkscape:connector-curvature="0" />
    <path
       style="fill:#5c9bc1;fill-opacity:1;fill-rule:nonzero;stroke:none;stroke-width:0.5524357"
       d="m -1246.3388,-329.09502 c 2.4683,1.40208 5.2487,2.11307 8.2639,2.11307 3.9676,0 7.2988,-1.23691 8.6544,-1.82304 v -3.99522 c -1.6849,0.67563 -4.8741,1.70703 -8.6544,1.70758 h -6e-4 c -3.2533,0 -6.2591,-0.7712 -8.9351,-2.2915 -2.4688,-1.40208 -5.0989,-2.11307 -7.818,-2.11307 -2.9279,0 -5.3222,0.82645 -6.7005,1.44131 v 3.98858 c 1.5462,-0.62646 3.8897,-1.31866 6.7005,-1.31866 2.9572,0 5.8138,0.7712 8.4898,2.29095"
       id="path3123"
       inkscape:connector-curvature="0" />
    <path
       style="fill:#000000;fill-opacity:1;fill-rule:nonzero;stroke:none;stroke-width:0.5524357"
       d="m -1224.2835,-343.03761 h 3.6555 v 0.53807 l -1.422,0.0994 v 4.88574 h -0.8198 v -4.87745 l -1.4137,-0.11601 z"
       id="path3127"
       inkscape:connector-curvature="0" />
    <path
       style="fill:#000000;fill-opacity:1;fill-rule:nonzero;stroke:none;stroke-width:0.5524357"
       d="m -1220.2694,-343.02098 0.7502,-0.0911 v 2.04512 c 0.1309,-0.0989 0.1829,-0.13204 0.2701,-0.18176 0.2442,-0.13258 0.5845,-0.21545 0.89,-0.21545 0.3834,0 0.7331,0.1243 0.9684,0.33147 0.2177,0.19832 0.2961,0.43863 0.2961,0.9187 v 2.69975 h -0.7408 v -2.53402 c 0,-0.15745 -0.01,-0.26462 -0.035,-0.35577 -0.07,-0.29003 -0.3403,-0.47233 -0.7237,-0.47233 -0.2271,0 -0.4801,0.0663 -0.6806,0.1823 -0.079,0.0414 -0.1221,0.0746 -0.2442,0.16573 v 3.01409 h -0.7502 z"
       id="path3131"
       inkscape:connector-curvature="0" />
    <path
       style="fill:#000000;fill-opacity:1;fill-rule:nonzero;stroke:none;stroke-width:0.5524357"
       d="m -1213.8919,-339.69211 c 0,-0.79495 -0.3049,-1.20873 -0.8983,-1.20873 -0.5844,0 -0.9247,0.43035 -0.9424,1.20873 z m -1.7794,0.48835 c 0.07,0.78667 0.532,1.20928 1.2999,1.20928 0.279,0 0.5497,-0.0497 0.9336,-0.19059 l 0.1481,0.53863 c -0.4359,0.1486 -0.8464,0.2149 -1.2563,0.2149 -1.2385,0 -1.9633,-0.75353 -1.9633,-2.06169 0,-1.21757 0.6546,-1.95452 1.728,-1.95452 1.0463,0 1.6313,0.69552 1.6313,1.92137 0,0.0746 0,0.1823 -0.01,0.32262 z"
       id="path3135"
       inkscape:connector-curvature="0" />
    <path
       style="fill:#000000;fill-opacity:1;fill-rule:nonzero;stroke:none;stroke-width:0.5524357"
       d="m -1210.3661,-337.31548 c 0.043,-0.1823 0.061,-0.34803 0.061,-0.84467 v -4.87746 h 0.8286 v 4.80288 c 0,0.69551 -0.017,0.83638 -0.1486,1.09327 -0.1304,0.26517 -0.3221,0.48835 -0.6624,0.74523 l -0.4275,-0.28174 c 0.201,-0.22318 0.2878,-0.38891 0.3491,-0.63751"
       id="path3139"
       inkscape:connector-curvature="0" />
    <path
       style="fill:#000000;fill-opacity:1;fill-rule:nonzero;stroke:none;stroke-width:0.5524357"
       d="m -1207.0074,-339.46026 c -0.6104,0 -1.0203,0.31489 -1.0203,0.78667 0,0.40604 0.3226,0.68723 0.8021,0.68723 0.3055,0 0.5585,-0.0994 0.8728,-0.3392 v -1.07669 c -0.2618,-0.0414 -0.4541,-0.058 -0.6546,-0.058 m 0.6546,-0.73695 c 0,-0.1243 0,-0.19888 -0.018,-0.26517 -0.061,-0.2729 -0.3315,-0.42206 -0.7762,-0.42206 -0.3232,0 -0.6635,0.0746 -1.117,0.23147 l -0.1917,-0.56293 c 0.2176,-0.058 0.2961,-0.0746 0.4276,-0.10773 0.3662,-0.0829 0.7065,-0.12429 1.0463,-0.12429 0.4889,0 0.8203,0.0912 1.0733,0.29003 0.2359,0.19059 0.3055,0.38118 0.3055,0.86953 v 2.77433 h -0.7071 l -0.026,-0.35632 c -0.4188,0.32317 -0.7591,0.44747 -1.1778,0.44747 -0.7939,0 -1.3259,-0.4889 -1.3259,-1.20928 0,-0.79495 0.611,-1.30817 1.5441,-1.30817 0.2618,0 0.6104,0.0497 0.9424,0.12375 z"
       id="path3143"
       inkscape:connector-curvature="0" />
    <path
       style="fill:#000000;fill-opacity:1;fill-rule:nonzero;stroke:none;stroke-width:0.5524357"
       d="m -1204.7648,-341.34827 0.7497,-0.0911 v 0.31489 c 0.1314,-0.0829 0.1834,-0.10773 0.2535,-0.14087 0.253,-0.1243 0.5403,-0.19888 0.8027,-0.19888 0.3315,0 0.6458,0.10772 0.8635,0.29003 0.061,0.0497 0.096,0.0911 0.1663,0.19059 0.4181,-0.31489 0.8109,-0.46405 1.238,-0.46405 0.3668,0 0.6894,0.1243 0.9076,0.33146 0.2354,0.23147 0.305,0.44692 0.305,0.96069 v 2.64119 h -0.7497 v -2.4843 c 0,-0.15689 -0.01,-0.28119 -0.026,-0.36405 -0.053,-0.29003 -0.3403,-0.4972 -0.6806,-0.4972 -0.2878,0 -0.5232,0.0994 -0.8198,0.33146 v 3.01409 h -0.7414 v -2.46773 c 0,-0.21489 0,-0.30605 -0.018,-0.37234 -0.044,-0.3066 -0.3314,-0.51376 -0.7154,-0.51376 -0.2613,0 -0.4707,0.0746 -0.7855,0.29831 v 3.05552 h -0.7497 z"
       id="path3147"
       inkscape:connector-curvature="0" />
    <path
       style="fill:#000000;fill-opacity:1;fill-rule:nonzero;stroke:none;stroke-width:0.5524357"
       d="m -1196.1969,-339.69211 c 0,-0.79495 -0.3055,-1.20873 -0.8988,-1.20873 -0.5845,0 -0.9242,0.43035 -0.9419,1.20873 z m -1.7799,0.48835 c 0.07,0.78667 0.5319,1.20928 1.2998,1.20928 0.2796,0 0.5497,-0.0497 0.9336,-0.19059 l 0.1481,0.53863 c -0.4359,0.1486 -0.8458,0.2149 -1.2562,0.2149 -1.2386,0 -1.9628,-0.75353 -1.9628,-2.06169 0,-1.21757 0.6546,-1.95452 1.7274,-1.95452 1.0469,0 1.6314,0.69552 1.6314,1.92137 0,0.0746 0,0.1823 -0.01,0.32262 z"
       id="path3151"
       inkscape:connector-curvature="0" />
    <path
       style="fill:#000000;fill-opacity:1;fill-rule:nonzero;stroke:none;stroke-width:0.5524357"
       d="m -1194.8789,-338.2512 c 0.4182,0.16573 0.7502,0.2486 1.064,0.2486 0.506,0 0.8375,-0.19888 0.8375,-0.4972 0,-0.23975 -0.1569,-0.36405 -0.9861,-0.73695 -0.453,-0.21545 -0.6016,-0.29776 -0.7762,-0.4552 -0.2,-0.18231 -0.3138,-0.43919 -0.3138,-0.70381 0,-0.63806 0.6016,-1.06841 1.5093,-1.06841 0.3922,0 0.8027,0.0829 1.291,0.25689 l -0.2005,0.55464 c -0.4536,-0.15744 -0.7939,-0.23202 -1.0994,-0.23202 -0.4535,0 -0.7413,0.17402 -0.7413,0.45576 0,0.0823 0.026,0.15689 0.07,0.22318 0.087,0.11601 0.1657,0.17402 0.5149,0.33975 l 0.3137,0.14916 0.4011,0.19832 c 0.611,0.29003 0.8204,0.53863 0.8204,0.97726 0,0.69552 -0.6016,1.1347 -1.5529,1.1347 -0.4271,0 -0.8375,-0.0746 -1.3607,-0.25688 z"
       id="path3155"
       inkscape:connector-curvature="0" />
    <path
       style="fill:#000000;fill-opacity:1;fill-rule:nonzero;stroke:none;stroke-width:0.5524357"
       d="m -1224.2779,-334.24554 h 1.7446 v 3.61017 h 2.3948 v -3.61017 h 1.7446 v 8.78815 h -1.7446 v -3.95268 h -2.3948 v 3.95268 h -1.7446 z"
       id="path3159"
       inkscape:connector-curvature="0" />
    <path
       style="fill:#000000;fill-opacity:1;fill-rule:nonzero;stroke:none;stroke-width:0.5524357"
       d="m -1215.6437,-331.84753 v 4.22945 c 0,0.72479 0.2547,1.01427 0.9038,1.01427 0.3314,0 0.6502,-0.10552 0.9938,-0.35577 v -4.72995 h 1.5286 v 6.23202 h -1.5159 l -0.013,-0.36902 c -0.5729,0.36902 -1.0446,0.51376 -1.6175,0.51376 -1.1971,0 -1.8087,-0.63198 -1.8087,-1.87055 v -4.49295 z"
       id="path3163"
       inkscape:connector-curvature="0" />
    <path
       style="fill:#000000;fill-opacity:1;fill-rule:nonzero;stroke:none;stroke-width:0.5524357"
       d="m -1211.3649,-331.68948 h 0.6745 v -0.96179 l 1.5286,-0.21103 v 1.17282 h 1.0574 v 1.01482 l -1.0574,0.11823 v 3.32013 c 0,0.18452 0.013,0.31655 0.013,0.38229 0.038,0.26351 0.2293,0.40825 0.5221,0.40825 0.1535,0 0.306,-0.0392 0.5353,-0.11822 v 1.08001 c -0.2679,0.10552 -0.7011,0.17126 -1.0574,0.17126 -1.0955,0 -1.5413,-0.42151 -1.5413,-1.44904 v -3.79468 l -0.6745,-0.11823 z"
       id="path3167"
       inkscape:connector-curvature="0" />
    <path
       style="fill:#000000;fill-opacity:1;fill-rule:nonzero;stroke:none;stroke-width:0.5524357"
       d="m -1207.4558,-331.68948 h 0.6751 v -0.96179 l 1.5286,-0.21103 v 1.17282 h 1.0568 v 1.01482 l -1.0568,0.11823 v 3.32013 c 0,0.18452 0.012,0.31655 0.012,0.38229 0.039,0.26351 0.2293,0.40825 0.5226,0.40825 0.153,0 0.3055,-0.0392 0.5348,-0.11822 v 1.08001 c -0.2674,0.10552 -0.7005,0.17126 -1.0574,0.17126 -1.0949,0 -1.5407,-0.42151 -1.5407,-1.44904 v -3.79468 l -0.6751,-0.11823 z"
       id="path3171"
       inkscape:connector-curvature="0" />
    <path
       style="fill:#000000;fill-opacity:1;fill-rule:nonzero;stroke:none;stroke-width:0.5524357"
       d="m -1200.7698,-326.41924 c 0.7259,0 1.0955,-0.69828 1.0955,-2.14787 0,-1.44904 -0.3696,-2.16058 -1.0955,-2.16058 -0.7259,0 -1.0955,0.71154 -1.0955,2.13462 0,1.47555 0.3569,2.17383 1.0955,2.17383 m 0,-5.42823 c 1.8087,0 2.6876,1.0673 2.6876,3.28036 0,2.21361 -0.8789,3.28092 -2.6876,3.28092 -1.8087,0 -2.6876,-1.06731 -2.6876,-3.24114 0,-2.25284 0.8535,-3.32014 2.6876,-3.32014"
       id="path3175"
       inkscape:connector-curvature="0" />
    <path
       style="fill:#000000;fill-opacity:1;fill-rule:nonzero;stroke:none;stroke-width:0.5524357"
       d="m -1197.1404,-331.67632 1.5153,-0.158 v 0.50051 c 0.548,-0.34251 1.1082,-0.52702 1.6303,-0.52702 0.5347,0 1.0446,0.18451 1.3628,0.51376 0.3315,0.32981 0.4458,0.73806 0.4458,1.55511 v 4.33441 h -1.528 v -3.93942 c 0,-0.18451 -0.013,-0.36903 -0.026,-0.4878 -0.063,-0.40825 -0.4071,-0.67176 -0.8662,-0.67176 -0.3049,0 -0.6491,0.13203 -1.0187,0.38228 v 4.7167 h -1.5153 z"
       id="path3179"
       inkscape:connector-curvature="0" />
    <path
       style="fill:#000000;fill-opacity:1;fill-rule:nonzero;stroke:none;stroke-width:0.5524357"
       d="m -1224.2837,-322.22984 h 1.4066 v 7.45014 h -1.4066 z"
       id="path3181"
       inkscape:connector-curvature="0" />
    <path
       style="fill:#000000;fill-opacity:1;fill-rule:nonzero;stroke:none;stroke-width:0.5524357"
       d="m -1221.905,-320.05187 1.2308,-0.13424 v 0.42482 c 0.4447,-0.29058 0.8999,-0.44692 1.3237,-0.44692 0.4342,0 0.848,0.15634 1.107,0.43587 0.2685,0.27898 0.3619,0.62536 0.3619,1.31756 v 3.6748 h -1.2413 v -3.33947 c 0,-0.15634 -0.01,-0.31268 -0.021,-0.41322 -0.051,-0.34638 -0.3309,-0.56956 -0.7027,-0.56956 -0.2486,0 -0.5276,0.11104 -0.8276,0.32372 v 3.99853 h -1.2308 z"
       id="path3185"
       inkscape:connector-curvature="0" />
    <path
       style="fill:#000000;fill-opacity:1;fill-rule:nonzero;stroke:none;stroke-width:0.5524357"
       d="m -1216.9517,-315.99749 c 0.1552,0.0668 0.2276,0.10054 0.3315,0.13424 0.3099,0.0889 0.6408,0.14529 0.8894,0.14529 0.5579,0 0.8993,-0.20108 0.8993,-0.51432 0,-0.16738 -0.083,-0.29002 -0.2795,-0.41266 -0.1856,-0.1232 -0.2895,-0.17899 -0.7756,-0.38008 -0.4751,-0.21214 -0.7027,-0.35743 -0.9099,-0.56956 -0.248,-0.25688 -0.3927,-0.62536 -0.3927,-1.02753 0,-0.97174 0.7651,-1.59709 1.9755,-1.59709 0.496,0 0.9927,0.1 1.6131,0.31212 l -0.2685,1.00544 c -0.5276,-0.20109 -0.9933,-0.30163 -1.3446,-0.30163 -0.4657,0 -0.7447,0.17898 -0.7447,0.48061 0,0.089 0.031,0.17899 0.072,0.23424 0.1039,0.13424 0.1558,0.17899 0.5486,0.36902 l 0.3408,0.16739 0.4552,0.21214 c 0.7447,0.35742 1.0242,0.74855 1.0242,1.40705 0,1.06123 -0.7651,1.70924 -2.0169,1.70924 -0.4138,0 -0.9099,-0.0784 -1.3341,-0.20109 -0.1033,-0.0337 -0.1757,-0.0558 -0.3619,-0.12319 z"
       id="path3189"
       inkscape:connector-curvature="0" />
    <path
       style="fill:#000000;fill-opacity:1;fill-rule:nonzero;stroke:none;stroke-width:0.5524357"
       d="m -1213.0011,-320.06319 h 0.548 v -0.8154 l 1.2413,-0.17843 v 0.99383 h 0.8585 v 0.86014 l -0.8585,0.10055 v 2.81466 c 0,0.15633 0.01,0.26793 0.01,0.32372 0.032,0.22374 0.1867,0.34638 0.4243,0.34638 0.1243,0 0.248,-0.0337 0.4342,-0.10054 v 0.91594 c -0.2171,0.0895 -0.5685,0.14529 -0.8585,0.14529 -0.8894,0 -1.2513,-0.35743 -1.2513,-1.22862 v -3.21683 l -0.548,-0.10055 z"
       id="path3193"
       inkscape:connector-curvature="0" />
    <path
       style="fill:#000000;fill-opacity:1;fill-rule:nonzero;stroke:none;stroke-width:0.5524357"
       d="m -1209.547,-320.05187 1.2308,-0.13424 v 5.40613 h -1.2308 z m 0.6104,-2.23405 c 0.3823,0 0.6928,0.30163 0.6928,0.6701 0,0.38008 -0.3105,0.68171 -0.6928,0.68171 -0.3729,0 -0.6828,-0.30163 -0.6828,-0.67066 0,-0.37952 0.3,-0.68115 0.6828,-0.68115"
       id="path3197"
       inkscape:connector-curvature="0" />
    <path
       style="fill:#000000;fill-opacity:1;fill-rule:nonzero;stroke:none;stroke-width:0.5524357"
       d="m -1207.5204,-320.06319 h 0.548 v -0.8154 l 1.2413,-0.17843 v 0.99383 h 0.858 v 0.86014 l -0.858,0.10055 v 2.81466 c 0,0.15633 0.01,0.26793 0.01,0.32372 0.031,0.22374 0.1857,0.34638 0.4238,0.34638 0.1243,0 0.248,-0.0337 0.4342,-0.10054 v 0.91594 c -0.2171,0.0895 -0.5685,0.14529 -0.858,0.14529 -0.8894,0 -1.2518,-0.35743 -1.2518,-1.22862 v -3.21683 l -0.548,-0.10055 z"
       id="path3201"
       inkscape:connector-curvature="0" />
    <path
       style="fill:#000000;fill-opacity:1;fill-rule:nonzero;stroke:none;stroke-width:0.5524357"
       d="m -1202.9288,-320.19716 v 3.58531 c 0,0.61431 0.2072,0.86014 0.7347,0.86014 0.2685,0 0.5271,-0.0895 0.8066,-0.30163 v -4.01013 h 1.2413 v 5.28349 h -1.2314 l -0.01,-0.31267 c -0.4652,0.31267 -0.8485,0.43587 -1.3137,0.43587 -0.9723,0 -1.4684,-0.53642 -1.4684,-1.5866 v -3.80849 z"
       id="path3205"
       inkscape:connector-curvature="0" />
    <path
       style="fill:#000000;fill-opacity:1;fill-rule:nonzero;stroke:none;stroke-width:0.5524357"
       d="m -1199.4543,-320.06319 h 0.548 v -0.8154 l 1.2413,-0.17843 v 0.99383 h 0.858 v 0.86014 l -0.858,0.10055 v 2.81466 c 0,0.15633 0.01,0.26793 0.01,0.32372 0.031,0.22374 0.1857,0.34638 0.4238,0.34638 0.1243,0 0.248,-0.0337 0.4342,-0.10054 v 0.91594 c -0.2171,0.0895 -0.5685,0.14529 -0.858,0.14529 -0.8894,0 -1.2518,-0.35743 -1.2518,-1.22862 v -3.21683 l -0.548,-0.10055 z"
       id="path3209"
       inkscape:connector-curvature="0" />
    <path
       style="fill:#000000;fill-opacity:1;fill-rule:nonzero;stroke:none;stroke-width:0.5524357"
       d="m -1193.3218,-317.81803 v -0.0447 c 0,-0.88224 -0.2994,-1.3739 -0.8585,-1.3739 -0.5585,0 -0.8789,0.51376 -0.8894,1.41865 z m -1.6236,0.83749 c 0.093,0.8491 0.5795,1.30707 1.396,1.30707 0.3105,0 0.59,-0.0558 1.0452,-0.22374 l 0.2066,0.94964 c -0.5381,0.20108 -1.0032,0.27898 -1.5413,0.27898 -1.5822,0 -2.4716,-1.02698 -2.4716,-2.83676 0,-1.68659 0.7961,-2.69202 2.1512,-2.69202 1.3032,0 2.0065,0.94964 2.0065,2.69202 0,0.13424 0,0.26793 -0.021,0.52481 z"
       id="path3213"
       inkscape:connector-curvature="0" />
    <rect
       style="opacity:0;fill:#ffffff;fill-opacity:1;stroke:none;stroke-width:2.07616258;stroke-miterlimit:4;stroke-dasharray:none;stroke-opacity:1"
       height="32.108002"
       id="rect4584"
       width="69.375999"
       x="-1261.5291"
       y="-344.94312" />
  </g>
</svg>
