<?xml version="1.0" encoding="UTF-8" standalone="no"?>
<!-- Created with Inkscape (http://www.inkscape.org/) -->

<svg
   version="1.1"
   id="svg2"
   width="762.45331"
   height="343.07999"
   viewBox="0 0 762.45331 343.07999"
   sodipodi:docname="hutton-white.svg"
   inkscape:version="1.4 (86a8ad7, 2024-10-11)"
   xmlns:inkscape="http://www.inkscape.org/namespaces/inkscape"
   xmlns:sodipodi="http://sodipodi.sourceforge.net/DTD/sodipodi-0.dtd"
   xmlns="http://www.w3.org/2000/svg"
   xmlns:svg="http://www.w3.org/2000/svg">
  <defs
     id="defs6" />
  <sodipodi:namedview
     id="namedview4"
     pagecolor="#ffffff"
     bordercolor="#000000"
     borderopacity="0.25"
     inkscape:showpageshadow="2"
     inkscape:pageopacity="0.0"
     inkscape:pagecheckerboard="0"
     inkscape:deskcolor="#d1d1d1"
     inkscape:zoom="1.7007696"
     inkscape:cx="282.22518"
     inkscape:cy="216.07865"
     inkscape:window-width="3440"
     inkscape:window-height="1369"
     inkscape:window-x="-8"
     inkscape:window-y="-8"
     inkscape:window-maximized="1"
     inkscape:current-layer="g8" />
  <g
     id="g8"
     inkscape:groupmode="layer"
     inkscape:label="ink_ext_XXXXXX"
     transform="matrix(1.3333333,0,0,-1.3333333,0,343.08)">
    <path
       d="m 121.735,217.855 c 19.782,-11.237 42.061,-16.936 66.221,-16.936 h 0.005 c 31.803,0 58.496,9.919 69.357,14.613 v 14.629 c -0.033,2.749 -0.981,27.147 -26.377,27.147 H 26.3766 C 23.707,257.29 0,256.297 0,230.161 v -4.521 c 12.3934,5.02 31.1547,10.569 53.6996,10.569 23.6981,0 46.5924,-6.172 68.0354,-18.354"
       style="fill:#74a82b;fill-opacity:1;fill-rule:nonzero;stroke:none;stroke-width:0.1"
       id="path12" />
    <path
       d="M 216.507,104.837 V 0 h 14.408 c 2.742,0.0269531 26.402,1.04297 26.402,27.148 v 89.003 c -8.99,-3.605 -23.306,-8.46 -40.81,-11.314"
       style="fill:#74a82b;fill-opacity:1;fill-rule:nonzero;stroke:none;stroke-width:0.1"
       id="path14" />
    <path
       d="m 187.966,102.471 h -0.007 c -8.74,0 -17.253,0.707 -25.519,2.094 V 0.00117188 h 41.19 V 103.196 c -5.045,-0.466 -10.276,-0.725 -15.664,-0.725"
       style="fill:#74a82b;fill-opacity:1;fill-rule:nonzero;stroke:none;stroke-width:0.1"
       id="path16" />
    <path
       d="m 116.351,120.829 c -2.639,1.498 -5.304,2.891 -7.982,4.195 V 0.00195313 h 41.193 V 107.317 c -11.647,3.06 -22.747,7.566 -33.211,13.512"
       style="fill:#74a82b;fill-opacity:1;fill-rule:nonzero;stroke:none;stroke-width:0.1"
       id="path18" />
    <path
       d="M 54.2961,137.755 V 0 h 41.1984 v 130.441 c -13.33,4.785 -27.114,7.25 -41.1984,7.314"
       style="fill:#821a74;fill-opacity:1;fill-rule:nonzero;stroke:none;stroke-width:0.1"
       id="path20" />
    <path
       d="M 0.00351563,126.82 V 27.15 C 0.0304688,24.402 0.976953,0.00195313 26.3785,0.00195313 h 15.043 V 137.155 C 23.8707,135.502 9.43008,130.756 0.00351563,126.82"
       style="fill:#821a74;fill-opacity:1;fill-rule:nonzero;stroke:none;stroke-width:0.1"
       id="path22" />
    <path
       d="m 121.735,174.155 c 19.782,-11.236 42.061,-16.935 66.221,-16.935 h 0.005 c 31.81,0 58.503,9.919 69.357,14.613 v 31.869 c -13.507,-5.413 -39.065,-13.681 -69.357,-13.681 h -0.005 c -26.074,0 -50.159,6.172 -71.601,18.355 -19.7835,11.238 -40.8679,16.937 -62.6554,16.937 -23.4641,0 -42.6484,-6.62 -53.6996,-11.548 v -31.817 c 12.3934,5.018 31.1691,10.563 53.6996,10.563 23.6981,0 46.5924,-6.173 68.0354,-18.356"
       style="fill:#74a82b;fill-opacity:1;fill-rule:nonzero;stroke:none;stroke-width:0.1"
       id="path24" />
    <path
       d="m 121.735,130.307 c 19.782,-11.237 42.061,-16.936 66.226,-16.936 31.789,0 58.484,9.914 69.357,14.615 v 32.017 c -13.507,-5.421 -39.065,-13.682 -69.357,-13.687 h -0.005 c -26.074,0 -50.159,6.178 -71.601,18.36 -19.7835,11.238 -40.8679,16.938 -62.6554,16.938 -23.4641,0 -42.6484,-6.62 -53.6996,-11.555 v -31.957 c 12.3984,5.017 31.1746,10.562 53.6996,10.562 23.6981,0 46.5924,-6.174 68.0354,-18.357"
       style="fill:#67a0c0;fill-opacity:1;fill-rule:nonzero;stroke:none;stroke-width:0.1"
       id="path26" />
    <path
       d="m 320.841,13.268 h -18.603 v 3.9199 l 5.918,1.3851 v 44.2809 l -5.918,1.3852 v 3.9199 h 18.603 v -3.9199 l -5.919,-1.3852 V 18.573 l 5.919,-1.3851 V 13.268"
       style="fill:#f9f9f9;fill-opacity:1;fill-rule:nonzero;stroke:none;stroke-width:0.1"
       id="path28" />
    <path
       d="m 347.824,55.2441 c 4.357,0 7.637,-1.182 9.84,-3.539 2.204,-2.3582 3.307,-6.0981 3.307,-11.2219 V 13.268 h -6.534 v 26.523 c 0,3.2789 -0.63,5.7399 -1.885,7.3809 -1.256,1.639 -3.215,2.459 -5.881,2.459 -3.895,0 -6.599,-1.245 -8.108,-3.727 -1.513,-2.4879 -2.269,-6.241 -2.269,-11.266 V 13.268 h -6.535 v 41.2058 h 5.228 l 0.922,-5.6129 h 0.385 c 1.177,2.1012 2.805,3.6922 4.883,4.7672 2.074,1.0758 4.29,1.616 6.647,1.616"
       style="fill:#f9f9f9;fill-opacity:1;fill-rule:nonzero;stroke:none;stroke-width:0.1"
       id="path30" />
    <path
       d="m 396.488,24.5691 c 0,-3.9472 -1.32,-6.9461 -3.96,-8.9949 -2.64,-2.0492 -6.213,-3.0754 -10.723,-3.0754 -2.564,0 -4.78,0.2203 -6.649,0.6532 -1.871,0.4359 -3.526,1.0652 -4.96,1.8839 v 6.2282 c 1.434,-0.8211 3.189,-1.5649 5.266,-2.2289 2.076,-0.6692 4.189,-1 6.343,-1 2.869,0 4.97,0.5378 6.303,1.6128 1.332,1.0758 1.999,2.5391 1.999,4.3829 0,1.5882 -0.604,2.932 -1.808,4.0371 -1.203,1.1011 -3.497,2.3961 -6.879,3.882 -2.307,1.0762 -4.307,2.1391 -5.998,3.1891 -1.691,1.0507 -2.997,2.305 -3.918,3.7668 -0.923,1.4613 -1.385,3.2933 -1.385,5.498 0,3.4313 1.295,6.0992 3.884,7.9953 2.587,1.8938 5.981,2.8457 10.184,2.8457 2.203,0 4.279,-0.232 6.228,-0.6949 1.946,-0.4621 3.79,-1.1281 5.535,-1.998 l -2.306,-5.2278 c -1.486,0.718 -3.049,1.3078 -4.688,1.768 -1.645,0.4629 -3.336,0.693 -5.077,0.693 -2.411,0 -4.253,-0.4622 -5.534,-1.3832 -1.281,-0.9231 -1.923,-2.1559 -1.923,-3.6899 0,-1.1801 0.281,-2.1539 0.846,-2.9223 0.565,-0.7679 1.513,-1.5378 2.844,-2.3058 1.333,-0.7699 3.152,-1.641 5.46,-2.6141 3.432,-1.4879 6.111,-3.1027 8.032,-4.8449 1.923,-1.741 2.884,-4.227 2.884,-7.4559"
       style="fill:#f9f9f9;fill-opacity:1;fill-rule:nonzero;stroke:none;stroke-width:0.1"
       id="path32" />
    <path
       d="m 418.013,18.034 c 0.87,0 1.768,0.0781 2.689,0.2301 0.925,0.155 1.718,0.3597 2.384,0.6168 v -5.152 c -0.768,-0.3598 -1.756,-0.6527 -2.96,-0.8848 -1.205,-0.2281 -2.394,-0.3453 -3.574,-0.3453 -3.024,0 -5.536,0.8973 -7.536,2.691 -1.997,1.7954 -2.997,4.9454 -2.997,9.4551 v 24.602 h -5.149 v 3.3043 l 5.304,2.3078 2.306,9.0711 h 4.075 v -9.4563 h 10.068 V 49.2469 H 412.555 V 24.9531 c 0,-2.3062 0.473,-4.0351 1.423,-5.1902 0.944,-1.1508 2.291,-1.7289 4.035,-1.7289"
       style="fill:#f9f9f9;fill-opacity:1;fill-rule:nonzero;stroke:none;stroke-width:0.1"
       id="path34" />
    <path
       d="m 433.926,70.0039 c 1.078,0 1.973,-0.3578 2.689,-1.0758 0.72,-0.7199 1.078,-1.8211 1.078,-3.307 0,-1.4352 -0.358,-2.5109 -1.078,-3.2289 -0.716,-0.7184 -1.611,-1.0762 -2.689,-1.0762 -1.128,0 -2.063,0.3578 -2.808,1.0762 -0.743,0.718 -1.114,1.7937 -1.114,3.2289 0,1.4859 0.371,2.5871 1.114,3.307 0.745,0.718 1.68,1.0758 2.808,1.0758 m 3.152,-56.7348 h -6.534 V 54.475 h 6.534 V 13.2691"
       style="fill:#f9f9f9;fill-opacity:1;fill-rule:nonzero;stroke:none;stroke-width:0.1"
       id="path36" />
    <path
       d="m 461.448,18.034 c 0.869,0 1.767,0.0781 2.69,0.2301 0.923,0.155 1.716,0.3597 2.383,0.6168 v -5.152 c -0.766,-0.3598 -1.755,-0.6527 -2.959,-0.8848 -1.205,-0.2281 -2.398,-0.3453 -3.575,-0.3453 -3.025,0 -5.537,0.8973 -7.535,2.691 -1.997,1.7954 -2.998,4.9454 -2.998,9.4551 v 24.602 h -5.15 v 3.3043 l 5.305,2.3078 2.305,9.0711 h 4.076 v -9.4563 h 10.069 V 49.2469 H 455.99 V 24.9531 c 0,-2.3062 0.473,-4.0351 1.421,-5.1902 0.948,-1.1508 2.292,-1.7289 4.037,-1.7289"
       style="fill:#f9f9f9;fill-opacity:1;fill-rule:nonzero;stroke:none;stroke-width:0.1"
       id="path38" />
    <path
       d="M 504.958,54.4738 V 13.268 h -5.304 l -0.923,5.459 h -0.383 c -1.18,-2.1032 -2.795,-3.6668 -4.844,-4.6899 -2.051,-1.0262 -4.28,-1.5391 -6.689,-1.5391 -4.508,0 -7.84,1.2559 -9.993,3.7692 -2.152,2.5098 -3.231,6.2769 -3.231,11.3 v 26.9066 h 6.614 V 28.259 c 0,-6.7641 2.562,-10.1481 7.687,-10.1481 3.946,0 6.687,1.243 8.225,3.7282 1.537,2.4859 2.309,6.1609 2.309,11.0328 v 21.6019 h 6.532"
       style="fill:#f9f9f9;fill-opacity:1;fill-rule:nonzero;stroke:none;stroke-width:0.1"
       id="path40" />
    <path
       d="m 529.328,18.034 c 0.871,0 1.769,0.0781 2.692,0.2301 0.921,0.155 1.716,0.3597 2.383,0.6168 v -5.152 c -0.768,-0.3598 -1.756,-0.6527 -2.961,-0.8848 -1.203,-0.2281 -2.394,-0.3453 -3.575,-0.3453 -3.024,0 -5.535,0.8973 -7.534,2.691 -1.997,1.7954 -2.999,4.9454 -2.999,9.4551 v 24.602 h -5.15 v 3.3043 l 5.305,2.3078 2.306,9.0711 h 4.077 v -9.4563 h 10.067 V 49.2469 H 523.872 V 24.9531 c 0,-2.3062 0.471,-4.0351 1.419,-5.1902 0.948,-1.1508 2.294,-1.7289 4.037,-1.7289"
       style="fill:#f9f9f9;fill-opacity:1;fill-rule:nonzero;stroke:none;stroke-width:0.1"
       id="path42" />
    <path
       d="m 556.159,55.2441 c 3.277,0 6.057,-0.7832 8.341,-2.3461 2.278,-1.5648 4.021,-3.7421 5.228,-6.5359 1.202,-2.793 1.805,-5.9832 1.805,-9.568 V 32.641 h -25.062 c 0.101,-4.8168 1.141,-8.4461 3.114,-10.8801 1.972,-2.432 4.829,-3.65 8.57,-3.65 2.206,0 4.217,0.2301 6.036,0.693 1.819,0.4602 3.677,1.1781 5.573,2.1512 V 15.191 c -1.896,-0.9238 -3.779,-1.6031 -5.65,-2.0379 -1.871,-0.4351 -4.012,-0.6531 -6.419,-0.6531 -5.638,0 -10.033,1.8711 -13.185,5.6109 -3.152,3.7403 -4.729,8.8911 -4.729,15.452 0,6.868 1.462,12.198 4.384,15.991 2.921,3.7922 6.919,5.6902 11.994,5.6902 m -0.078,-5.3812 c -2.819,0 -5.035,-1.0289 -6.649,-3.0777 -1.617,-2.0512 -2.576,-5.0211 -2.885,-8.9161 h 18.297 c 0,3.4329 -0.703,6.2899 -2.116,8.5707 -1.406,2.2813 -3.623,3.4231 -6.647,3.4231"
       style="fill:#f9f9f9;fill-opacity:1;fill-rule:nonzero;stroke:none;stroke-width:0.1"
       id="path44" />
    <path
       d="m 317.718,197.918 h -5.584 v 40.356 h -12.181 v 4.949 h 29.884 v -4.949 h -12.119 v -40.356"
       style="fill:#f9f9f9;fill-opacity:1;fill-rule:nonzero;stroke:none;stroke-width:0.1"
       id="path46" />
    <path
       d="m 340.878,246.142 v -13.96 c 0,-0.846 -0.031,-1.693 -0.096,-2.537 -0.063,-0.849 -0.138,-1.63 -0.221,-2.347 h 0.38 c 0.931,1.732 2.243,3.043 3.936,3.934 1.689,0.889 3.51,1.331 5.456,1.331 3.679,0 6.419,-0.995 8.216,-2.983 1.797,-1.987 2.697,-5.055 2.697,-9.2 v -22.462 h -5.394 v 21.892 c 0,2.747 -0.518,4.789 -1.554,6.122 -1.038,1.333 -2.655,1.999 -4.855,1.999 -3.213,0 -5.448,-1.047 -6.693,-3.141 -1.248,-2.094 -1.872,-5.172 -1.872,-9.233 v -17.639 h -5.392 v 48.224 h 5.392"
       style="fill:#f9f9f9;fill-opacity:1;fill-rule:nonzero;stroke:none;stroke-width:0.1"
       id="path48" />
    <path
       d="m 382.757,232.563 c 2.705,0 5.001,-0.646 6.883,-1.936 1.883,-1.291 3.321,-3.087 4.317,-5.393 0.991,-2.306 1.49,-4.938 1.49,-7.899 v -3.428 h -20.685 c 0.085,-3.975 0.939,-6.969 2.567,-8.978 1.63,-2.011 3.989,-3.013 7.077,-3.013 1.819,0 3.48,0.19 4.982,0.57 1.5,0.379 3.035,0.973 4.6,1.777 v -4.758 c -1.565,-0.763 -3.12,-1.324 -4.665,-1.684 -1.543,-0.358 -3.31,-0.538 -5.298,-0.538 -4.654,0 -8.279,1.546 -10.882,4.633 -2.601,3.087 -3.902,7.338 -3.902,12.752 0,5.669 1.205,10.07 3.618,13.2 2.41,3.13 5.71,4.695 9.898,4.695 m -0.065,-4.442 c -2.326,0 -4.156,-0.847 -5.489,-2.538 -1.333,-1.691 -2.124,-4.147 -2.378,-7.362 h 15.101 c 0,2.836 -0.581,5.194 -1.744,7.076 -1.165,1.883 -2.993,2.824 -5.49,2.824"
       style="fill:#f9f9f9;fill-opacity:1;fill-rule:nonzero;stroke:none;stroke-width:0.1"
       id="path50" />
    <path
       d="m 413.276,185.798 c -1.819,0 -3.301,0.254 -4.442,0.763 v 4.821 c 0.592,-0.212 1.238,-0.37 1.934,-0.477 0.698,-0.104 1.45,-0.158 2.253,-0.158 1.523,0 2.804,0.529 3.841,1.587 1.034,1.058 1.554,3.026 1.554,5.901 v 44.988 H 424 v -44.86 c 0,-4.399 -0.963,-7.594 -2.887,-9.584 -1.925,-1.986 -4.536,-2.981 -7.837,-2.981"
       style="fill:#f9f9f9;fill-opacity:1;fill-rule:nonzero;stroke:none;stroke-width:0.1"
       id="path52" />
    <path
       d="m 445.763,232.563 c 3.809,0 6.588,-0.952 8.344,-2.855 1.756,-1.903 2.636,-4.801 2.636,-8.693 v -23.097 h -4 l -0.951,4.76 h -0.193 c -1.268,-1.82 -2.653,-3.173 -4.152,-4.064 -1.504,-0.887 -3.483,-1.331 -5.935,-1.331 -2.919,0 -5.246,0.889 -6.978,2.665 -1.738,1.775 -2.603,4.252 -2.603,7.424 0,3.384 1.196,6.007 3.585,7.869 2.391,1.861 5.996,2.876 10.818,3.045 l 5.078,0.189 v 2.096 c 0,2.749 -0.52,4.695 -1.556,5.838 -1.038,1.14 -2.549,1.712 -4.537,1.712 -1.481,0 -2.918,-0.233 -4.316,-0.698 -1.394,-0.466 -2.77,-1.036 -4.121,-1.714 l -1.717,4.06 c 1.44,0.847 3.068,1.524 4.887,2.033 1.818,0.507 3.723,0.761 5.711,0.761 m 5.649,-17.958 -4.316,-0.19 c -3.511,-0.126 -5.987,-0.783 -7.424,-1.967 -1.439,-1.183 -2.157,-2.878 -2.157,-5.076 0,-1.988 0.496,-3.436 1.49,-4.347 0.993,-0.91 2.317,-1.363 3.964,-1.363 2.456,0 4.478,0.813 6.061,2.443 1.587,1.628 2.382,4.069 2.382,7.329 v 3.171"
       style="fill:#f9f9f9;fill-opacity:1;fill-rule:nonzero;stroke:none;stroke-width:0.1"
       id="path54" />
    <path
       d="m 500.016,232.563 c 3.425,0 5.985,-0.973 7.676,-2.918 1.691,-1.947 2.54,-5.055 2.54,-9.327 v -22.4 h -5.393 v 21.892 c 0,5.413 -1.99,8.121 -5.966,8.121 -2.835,0 -4.853,-0.963 -6.059,-2.886 -1.205,-1.927 -1.809,-4.708 -1.809,-8.345 v -18.782 h -5.331 v 21.955 c 0,2.749 -0.496,4.78 -1.489,6.091 -0.995,1.31 -2.506,1.967 -4.539,1.967 -3.003,0 -5.055,-1.091 -6.154,-3.267 -1.1,-2.179 -1.65,-5.194 -1.65,-9.044 v -17.702 h -5.392 v 34.01 h 4.313 l 0.762,-4.631 h 0.317 c 0.93,1.776 2.191,3.098 3.774,3.966 1.587,0.867 3.334,1.3 5.237,1.3 4.737,0 7.784,-1.862 9.139,-5.584 h 0.316 c 1.015,1.903 2.368,3.31 4.059,4.22 1.695,0.909 3.575,1.364 5.649,1.364"
       style="fill:#f9f9f9;fill-opacity:1;fill-rule:nonzero;stroke:none;stroke-width:0.1"
       id="path56" />
    <path
       d="m 531.679,232.563 c 2.706,0 5.001,-0.646 6.883,-1.936 1.883,-1.291 3.321,-3.087 4.318,-5.393 0.991,-2.306 1.489,-4.938 1.489,-7.899 v -3.428 h -20.683 c 0.083,-3.975 0.937,-6.969 2.567,-8.978 1.628,-2.011 3.987,-3.013 7.076,-3.013 1.818,0 3.479,0.19 4.981,0.57 1.5,0.379 3.035,0.973 4.6,1.777 v -4.758 c -1.565,-0.763 -3.119,-1.324 -4.665,-1.684 -1.543,-0.358 -3.308,-0.538 -5.296,-0.538 -4.654,0 -8.279,1.546 -10.884,4.633 -2.601,3.087 -3.902,7.338 -3.902,12.752 0,5.669 1.206,10.07 3.618,13.2 2.411,3.13 5.71,4.695 9.898,4.695 m -0.063,-4.442 c -2.328,0 -4.157,-0.847 -5.489,-2.538 -1.334,-1.691 -2.126,-4.147 -2.38,-7.362 h 15.101 c 0,2.836 -0.581,5.194 -1.743,7.076 -1.164,1.883 -2.994,2.824 -5.489,2.824"
       style="fill:#f9f9f9;fill-opacity:1;fill-rule:nonzero;stroke:none;stroke-width:0.1"
       id="path58" />
    <path
       d="m 571.843,207.245 c 0,-3.258 -1.088,-5.733 -3.267,-7.423 -2.18,-1.692 -5.129,-2.538 -8.851,-2.538 -2.117,0 -3.947,0.18 -5.49,0.538 -1.544,0.36 -2.907,0.878 -4.093,1.554 v 5.142 c 1.186,-0.679 2.634,-1.292 4.348,-1.841 1.713,-0.55 3.458,-0.825 5.235,-0.825 2.368,0 4.104,0.444 5.203,1.331 1.099,0.888 1.65,2.096 1.65,3.618 0,1.311 -0.499,2.421 -1.492,3.331 -0.995,0.909 -2.885,1.977 -5.679,3.203 -1.905,0.89 -3.553,1.768 -4.949,2.635 -1.394,0.867 -2.475,1.903 -3.236,3.109 -0.761,1.205 -1.145,2.716 -1.145,4.537 0,2.835 1.071,5.033 3.208,6.6 2.135,1.562 4.938,2.346 8.407,2.346 1.818,0 3.531,-0.191 5.139,-0.57 1.607,-0.379 3.131,-0.932 4.568,-1.65 l -1.903,-4.315 c -1.225,0.593 -2.515,1.079 -3.87,1.46 -1.355,0.382 -2.751,0.572 -4.188,0.572 -1.99,0 -3.512,-0.383 -4.569,-1.142 -1.058,-0.763 -1.587,-1.778 -1.587,-3.047 0,-0.972 0.234,-1.776 0.7,-2.411 0.462,-0.635 1.246,-1.27 2.346,-1.904 1.102,-0.634 2.603,-1.354 4.506,-2.157 2.833,-1.228 5.044,-2.559 6.633,-3.997 1.585,-1.439 2.376,-3.49 2.376,-6.156"
       style="fill:#f9f9f9;fill-opacity:1;fill-rule:nonzero;stroke:none;stroke-width:0.1"
       id="path60" />
    <path
       d="m 351.61,105.18 h -15.164 v 24.097 H 320.3 V 105.18 h -15.248 v 58.523 H 320.3 v -21.885 h 16.146 v 21.885 H 351.61 V 105.18"
       style="fill:#f9f9f9;fill-opacity:1;fill-rule:nonzero;stroke:none;stroke-width:0.1"
       id="path62" />
    <path
       d="M 403.083,150.506 V 105.18 h -11.229 l -1.803,5.655 h -0.82 c -1.312,-2.242 -3.048,-3.881 -5.205,-4.919 -2.158,-1.036 -4.576,-1.556 -7.253,-1.556 -4.262,0 -7.759,1.364 -10.492,4.098 -2.734,2.731 -4.098,6.912 -4.098,12.541 v 29.507 h 14.836 v -24.918 c 0,-3.004 0.357,-5.273 1.065,-6.802 0.709,-1.529 1.913,-2.295 3.606,-2.295 2.732,0 4.522,1.16 5.371,3.484 0.844,2.321 1.27,5.586 1.27,9.794 v 20.737 h 14.752"
       style="fill:#f9f9f9;fill-opacity:1;fill-rule:nonzero;stroke:none;stroke-width:0.1"
       id="path64" />
    <path
       d="m 433.492,116.409 c 1.148,0 2.267,0.15 3.36,0.452 1.094,0.299 2.267,0.667 3.526,1.105 V 106.9 c -1.64,-0.765 -3.348,-1.38 -5.123,-1.844 -1.776,-0.462 -3.949,-0.696 -6.516,-0.696 -4.481,0 -7.939,1.16 -10.369,3.483 -2.433,2.322 -3.647,6.406 -3.647,12.254 v 19.017 h -5.165 v 6.639 l 6.559,4.344 3.688,9.508 h 9.752 v -9.1 h 10.167 v -11.391 h -10.167 v -18.279 c 0,-2.95 1.312,-4.426 3.935,-4.426"
       style="fill:#f9f9f9;fill-opacity:1;fill-rule:nonzero;stroke:none;stroke-width:0.1"
       id="path66" />
    <path
       d="m 467.999,116.409 c 1.148,0 2.267,0.15 3.361,0.452 1.094,0.299 2.267,0.667 3.524,1.105 V 106.9 c -1.639,-0.765 -3.346,-1.38 -5.123,-1.844 -1.776,-0.462 -3.947,-0.696 -6.516,-0.696 -4.482,0 -7.939,1.16 -10.368,3.483 -2.434,2.322 -3.648,6.406 -3.648,12.254 v 19.017 h -5.165 v 6.639 l 6.559,4.344 3.69,9.508 h 9.75 v -9.1 h 10.166 v -11.391 h -10.166 v -18.279 c 0,-2.95 1.314,-4.426 3.936,-4.426"
       style="fill:#f9f9f9;fill-opacity:1;fill-rule:nonzero;stroke:none;stroke-width:0.1"
       id="path68" />
    <path
       d="m 522.341,127.965 c 0,-4.588 -0.793,-8.659 -2.374,-12.212 -1.587,-3.553 -3.953,-6.34 -7.092,-8.36 -3.145,-2.022 -7.038,-3.033 -11.681,-3.033 -4.317,0 -8.061,0.997 -11.227,2.992 -3.172,1.993 -5.604,4.753 -7.299,8.279 -1.691,3.524 -2.538,7.635 -2.538,12.334 0,7.104 1.815,12.774 5.449,17.009 3.634,4.233 8.919,6.352 15.862,6.352 4.042,0 7.649,-0.901 10.819,-2.706 3.168,-1.802 5.641,-4.439 7.419,-7.908 1.774,-3.472 2.662,-7.719 2.662,-12.747 m -27.211,-0.081 c 0,-3.935 0.477,-6.939 1.432,-9.017 0.957,-2.076 2.554,-3.114 4.796,-3.114 2.186,0 3.729,1.024 4.631,3.073 0.901,2.051 1.354,5.096 1.354,9.139 0,3.99 -0.468,6.981 -1.392,8.976 -0.932,1.994 -2.49,2.99 -4.674,2.99 -4.098,0 -6.147,-4.015 -6.147,-12.047"
       style="fill:#f9f9f9;fill-opacity:1;fill-rule:nonzero;stroke:none;stroke-width:0.1"
       id="path70" />
    <path
       d="m 556.847,151.325 c 4.426,0 7.98,-1.365 10.656,-4.098 2.676,-2.732 4.017,-6.913 4.017,-12.539 V 105.18 h -14.837 v 24.917 c 0,3.005 -0.354,5.273 -1.065,6.802 -0.71,1.531 -1.995,2.296 -3.851,2.296 -2.571,0 -4.291,-1.121 -5.165,-3.361 -0.876,-2.241 -1.312,-5.737 -1.312,-10.49 V 105.18 h -14.753 v 45.325 h 11.31 l 1.887,-5.818 h 0.655 c 1.256,2.132 2.922,3.771 5,4.917 2.077,1.149 4.564,1.721 7.458,1.721"
       style="fill:#f9f9f9;fill-opacity:1;fill-rule:nonzero;stroke:none;stroke-width:0.1"
       id="path72" />
  </g>
</svg>
