<?xml version="1.0" encoding="UTF-8" standalone="no"?>
<!-- Created with Inkscape (http://www.inkscape.org/) -->

<svg
   xmlns:dc="http://purl.org/dc/elements/1.1/"
   xmlns:cc="http://creativecommons.org/ns#"
   xmlns:rdf="http://www.w3.org/1999/02/22-rdf-syntax-ns#"
   xmlns:svg="http://www.w3.org/2000/svg"
   xmlns="http://www.w3.org/2000/svg"
   xmlns:xlink="http://www.w3.org/1999/xlink"
   xmlns:sodipodi="http://sodipodi.sourceforge.net/DTD/sodipodi-0.dtd"
   xmlns:inkscape="http://www.inkscape.org/namespaces/inkscape"
   height="25.927999"
   id="svg4648"
   version="1.1"
   viewBox="0 0 18.355911 6.8601167"
   width="69.376671"
   inkscape:version="0.92.1 r15371"
   sodipodi:docname="ics-sdg-black.svg">
  <defs
     id="defs4642">
    <linearGradient
       gradientTransform="matrix(0.10335588,0,0,0.10335588,101.19118,140.85558)"
       gradientUnits="userSpaceOnUse"
       id="linearGradient4306"
       x1="2.2898221e-006"
       x2="60.000004"
       y1="200"
       y2="260"
       inkscape:collect="always"
       xlink:href="#linearGradient4347" />
    <linearGradient
       id="linearGradient4347"
       inkscape:collect="always">
      <stop
         style="stop-color:#00acef;stop-opacity:1"
         id="stop4349"
         offset="0" />
      <stop
         style="stop-color:#2b4775;stop-opacity:1"
         id="stop4351"
         offset="1" />
    </linearGradient>
  </defs>
  <sodipodi:namedview
     bordercolor="#666666"
     borderopacity="1.0"
     fit-margin-bottom="0"
     fit-margin-left="0"
     fit-margin-right="0"
     fit-margin-top="0"
     id="base"
     pagecolor="#ffffff"
     showgrid="false"
     units="px"
     inkscape:current-layer="layer1"
     inkscape:cx="8.1068732"
     inkscape:cy="10.382263"
     inkscape:document-units="mm"
     inkscape:pageopacity="0.0"
     inkscape:pageshadow="2"
     inkscape:window-height="1368"
     inkscape:window-maximized="0"
     inkscape:window-width="1718"
     inkscape:window-x="1713"
     inkscape:window-y="0"
     inkscape:zoom="7.919596" />
  <metadata
     id="metadata4645">
    <rdf:RDF>
      <cc:Work
         rdf:about="">
        <dc:format>image/svg+xml</dc:format>
        <dc:type
           rdf:resource="http://purl.org/dc/dcmitype/StillImage" />
        <dc:title></dc:title>
      </cc:Work>
    </rdf:RDF>
  </metadata>
  <g
     id="layer1"
     transform="translate(-101.19118,-161.27827)"
     inkscape:groupmode="layer"
     inkscape:label="Layer 1">
    <path
       style="opacity:1;fill:url(#linearGradient4306);fill-opacity:1;stroke:none;stroke-width:0.05167794;stroke-linecap:square;stroke-linejoin:round;stroke-miterlimit:4;stroke-dasharray:none;stroke-dashoffset:0;stroke-opacity:1"
       d="m 101.96635,161.52676 a 0.77516907,0.77516907 0 0 0 -0.77517,0.77517 0.77516907,0.77516907 0 0 0 0.77517,0.77517 0.77516907,0.77516907 0 0 0 0.75942,-0.62014 h 0.75579 a 0.77516907,0.77516907 0 0 0 0.75862,0.62014 0.77516907,0.77516907 0 0 0 0.43744,-0.13626 l 0.39747,0.39747 0.21923,-0.21923 -0.40111,-0.4011 a 0.77516907,0.77516907 0 0 0 0.12214,-0.41605 0.77516907,0.77516907 0 0 0 -0.77517,-0.77517 0.77516907,0.77516907 0 0 0 -0.75943,0.62013 h -0.75579 a 0.77516907,0.77516907 0 0 0 -0.75861,-0.62013 z m 3.75392,2.01826 -0.21923,0.21923 0.37345,0.37345 a 0.77516907,0.77516907 0 0 0 -0.13566,0.43806 0.77516907,0.77516907 0 0 0 0.13849,0.44067 l -1.19607,1.19606 a 0.77516907,0.77516907 0 0 0 -0.44107,-0.13807 0.77516907,0.77516907 0 0 0 -0.41666,0.12152 l -1.20413,-1.20414 a 0.77516907,0.77516907 0 0 0 0.12212,-0.41604 0.77516907,0.77516907 0 0 0 -0.77516,-0.77517 0.77516907,0.77516907 0 0 0 -0.77517,0.77517 0.77516907,0.77516907 0 0 0 0.77517,0.77517 0.77516907,0.77516907 0 0 0 0.43744,-0.13626 l 1.19687,1.19686 a 0.77516907,0.77516907 0 0 0 -0.11991,0.28302 h -0.75579 a 0.77516907,0.77516907 0 0 0 -0.75861,-0.62013 0.77516907,0.77516907 0 0 0 -0.77517,0.77517 0.77516907,0.77516907 0 0 0 0.77517,0.77516 0.77516907,0.77516907 0 0 0 0.75942,-0.62013 h 0.75579 a 0.77516907,0.77516907 0 0 0 0.75862,0.62013 0.77516907,0.77516907 0 0 0 0.77517,-0.77516 0.77516907,0.77516907 0 0 0 -0.11972,-0.41302 l 1.20576,-1.20576 a 0.77516907,0.77516907 0 0 0 0.41261,0.12012 0.77516907,0.77516907 0 0 0 0.75942,-0.62014 h 0.75579 a 0.77516907,0.77516907 0 0 0 0.12193,0.28564 l -1.19606,1.19606 a 0.77516907,0.77516907 0 0 0 -0.44108,-0.13807 0.77516907,0.77516907 0 0 0 -0.77517,0.77517 0.77516907,0.77516907 0 0 0 0.77517,0.77516 0.77516907,0.77516907 0 0 0 0.77517,-0.77516 0.77516907,0.77516907 0 0 0 -0.11971,-0.41302 l 1.20576,-1.20576 a 0.77516907,0.77516907 0 0 0 0.41261,0.12012 0.77516907,0.77516907 0 0 0 0.77517,-0.77517 0.77516907,0.77516907 0 0 0 -0.77517,-0.77517 0.77516907,0.77516907 0 0 0 -0.75942,0.62013 h -0.75579 a 0.77516907,0.77516907 0 0 0 -0.75862,-0.62013 0.77516907,0.77516907 0 0 0 -0.41665,0.12152 z"
       id="path4278"
       inkscape:connector-curvature="0" />
    <path
       style="font-style:normal;font-variant:normal;font-weight:100;font-stretch:normal;font-size:17.5px;line-height:125%;font-family:Glasgow-Medium;-inkscape-font-specification:'Glasgow-Medium Thin';letter-spacing:0px;word-spacing:0px;fill:#000000;fill-opacity:1;stroke:none;stroke-width:0.10335588px;stroke-linecap:butt;stroke-linejoin:miter;stroke-opacity:1"
       d="m 110.71179,161.8606 q -0.11938,-0.0543 -0.22067,-0.0543 -0.10129,0 -0.16097,0.047 -0.0597,0.047 -0.0597,0.1248 0,0.0651 0.0344,0.0995 0.0289,0.0253 0.0724,0.0524 l 0.11757,0.0579 q 0.0778,0.0344 0.13023,0.0633 0.0543,0.0289 0.13565,0.0922 0.0832,0.0615 0.0832,0.23152 0,0.17725 -0.12842,0.2894 -0.12841,0.11214 -0.33099,0.11214 -0.13927,0 -0.34366,-0.076 l 0.0579,-0.18268 q 0.15736,0.076 0.27854,0.076 0.0959,0 0.15917,-0.0488 0.0633,-0.0506 0.0633,-0.13204 0,-0.0742 -0.0525,-0.12118 l -0.0724,-0.0452 -0.13022,-0.0651 q -0.0941,-0.0434 -0.13204,-0.0669 -0.0362,-0.0253 -0.10672,-0.0922 -0.0687,-0.0687 -0.0687,-0.21705 0,-0.16821 0.11757,-0.27131 0.11757,-0.10491 0.31472,-0.10491 0.0742,0 0.13565,0.0127 0.0416,0.007 0.0742,0.0163 0.0326,0.007 0.0886,0.0253 z"
       id="path4309"
       inkscape:connector-curvature="0" />
    <path
       style="font-style:normal;font-variant:normal;font-weight:100;font-stretch:normal;font-size:17.5px;line-height:125%;font-family:Glasgow-Medium;-inkscape-font-specification:'Glasgow-Medium Thin';letter-spacing:0px;word-spacing:0px;fill:#000000;fill-opacity:1;stroke:none;stroke-width:0.10335588px;stroke-linecap:butt;stroke-linejoin:miter;stroke-opacity:1"
       d="m 111.35586,162.01073 q 0.40697,0 0.40697,0.48293 0,0.48474 -0.40697,0.48474 -0.40334,0 -0.40334,-0.48474 0,-0.48293 0.40334,-0.48293 z m -0.18087,0.48293 q 0,0.33099 0.18087,0.33099 0.18269,0 0.18269,-0.33099 0,-0.32919 -0.18269,-0.32919 -0.18087,0 -0.18087,0.32919 z"
       id="path4311"
       inkscape:connector-curvature="0" />
    <path
       style="font-style:normal;font-variant:normal;font-weight:100;font-stretch:normal;font-size:17.5px;line-height:125%;font-family:Glasgow-Medium;-inkscape-font-specification:'Glasgow-Medium Thin';letter-spacing:0px;word-spacing:0px;fill:#000000;fill-opacity:1;stroke:none;stroke-width:0.10335588px;stroke-linecap:butt;stroke-linejoin:miter;stroke-opacity:1"
       d="m 111.82899,162.03424 h 0.10671 v -0.13204 q 0,-0.26769 0.27493,-0.26769 l 0.0868,0.005 0.0886,0.0145 -0.0362,0.15193 -0.0814,-0.0127 q -0.11938,0 -0.11938,0.13565 v 0.10491 h 0.19896 v 0.14289 l -0.19896,0.0127 v 0.76328 h -0.21162 v -0.76509 l -0.10852,-0.009 z"
       id="path4314"
       inkscape:connector-curvature="0" />
    <path
       style="font-style:normal;font-variant:normal;font-weight:100;font-stretch:normal;font-size:17.5px;line-height:125%;font-family:Glasgow-Medium;-inkscape-font-specification:'Glasgow-Medium Thin';letter-spacing:0px;word-spacing:0px;fill:#000000;fill-opacity:1;stroke:none;stroke-width:0.10335588px;stroke-linecap:butt;stroke-linejoin:miter;stroke-opacity:1"
       d="m 112.28643,162.03424 h 0.1049 v -0.1447 l 0.21343,-0.0308 v 0.17545 h 0.16821 v 0.13746 l -0.16821,0.0163 v 0.51006 l 0.002,0.0597 q 0.0108,0.0597 0.0832,0.0597 0.0326,0 0.085,-0.0163 v 0.14832 l -0.0814,0.0181 -0.0778,0.007 q -0.11937,0 -0.17363,-0.0488 -0.0507,-0.0506 -0.0507,-0.16278 v -0.57699 l -0.1049,-0.0109 z"
       id="path4316"
       inkscape:connector-curvature="0" />
    <path
       style="font-style:normal;font-variant:normal;font-weight:100;font-stretch:normal;font-size:17.5px;line-height:125%;font-family:Glasgow-Medium;-inkscape-font-specification:'Glasgow-Medium Thin';letter-spacing:0px;word-spacing:0px;fill:#000000;fill-opacity:1;stroke:none;stroke-width:0.10335588px;stroke-linecap:butt;stroke-linejoin:miter;stroke-opacity:1"
       d="m 113.01062,162.01253 0.13566,0.60774 0.0108,0.0579 0.005,0.0651 q 0,-0.0506 0.004,-0.0669 l 0.0163,-0.0579 0.15374,-0.58422 h 0.23514 l 0.15193,0.5806 0.0181,0.1248 0.005,-0.0705 0.0109,-0.0543 0.14108,-0.5806 h 0.20981 l -0.23875,0.91883 h -0.24599 l -0.15193,-0.57879 -0.0163,-0.0778 -0.0108,-0.085 -0.004,0.038 -0.005,0.0362 -0.0109,0.0814 -0.15374,0.58602 h -0.2496 l -0.23514,-0.91702 z"
       id="path4318"
       inkscape:connector-curvature="0" />
    <path
       style="font-style:normal;font-variant:normal;font-weight:100;font-stretch:normal;font-size:17.5px;line-height:125%;font-family:Glasgow-Medium;-inkscape-font-specification:'Glasgow-Medium Thin';letter-spacing:0px;word-spacing:0px;fill:#000000;fill-opacity:1;stroke:none;stroke-width:0.10335588px;stroke-linecap:butt;stroke-linejoin:miter;stroke-opacity:1"
       d="m 114.68131,162.32183 q 0,-0.0416 -0.005,-0.0579 -0.0163,-0.0886 -0.16278,-0.0886 -0.0543,0 -0.11033,0.0109 -0.0543,0.0109 -0.13023,0.0398 l -0.0543,-0.15916 q 0.0995,-0.0271 0.18449,-0.0416 0.0868,-0.0145 0.15735,-0.0145 0.17003,0 0.23514,0.0524 0.0651,0.0525 0.0814,0.0977 0.0163,0.0452 0.0163,0.13927 v 0.65295 h -0.20077 l -0.009,-0.0814 q -0.1248,0.10491 -0.25684,0.10491 -0.13385,0 -0.21524,-0.0814 -0.0796,-0.0814 -0.0796,-0.21162 0,-0.13927 0.0922,-0.22609 0.0452,-0.0416 0.10672,-0.0633 0.0615,-0.0217 0.13927,-0.0217 0.10129,0 0.21162,0.0289 z m 0,0.19172 -0.0597,-0.009 -0.0543,-0.002 q -0.0959,0 -0.15374,0.0452 -0.0579,0.0434 -0.0579,0.12118 0,0.0633 0.0434,0.10672 0.0434,0.038 0.11757,0.038 0.0741,0 0.16459,-0.0597 z"
       id="path4320"
       inkscape:connector-curvature="0" />
    <path
       style="font-style:normal;font-variant:normal;font-weight:100;font-stretch:normal;font-size:17.5px;line-height:125%;font-family:Glasgow-Medium;-inkscape-font-specification:'Glasgow-Medium Thin';letter-spacing:0px;word-spacing:0px;fill:#000000;fill-opacity:1;stroke:none;stroke-width:0.10335588px;stroke-linecap:butt;stroke-linejoin:miter;stroke-opacity:1"
       d="m 115.07402,162.03605 0.21343,-0.0127 v 0.076 q 0.0995,-0.0832 0.208,-0.0832 h 0.0217 l -0.0217,0.19715 -0.0633,-0.005 q -0.076,0 -0.14469,0.0398 v 0.7054 h -0.21343 z"
       id="path4322"
       inkscape:connector-curvature="0" />
    <path
       style="font-style:normal;font-variant:normal;font-weight:100;font-stretch:normal;font-size:17.5px;line-height:125%;font-family:Glasgow-Medium;-inkscape-font-specification:'Glasgow-Medium Thin';letter-spacing:0px;word-spacing:0px;fill:#000000;fill-opacity:1;stroke:none;stroke-width:0.10335588px;stroke-linecap:butt;stroke-linejoin:miter;stroke-opacity:1"
       d="m 115.76419,162.5642 q 0.0253,0.24598 0.27492,0.24598 0.0217,0 0.0434,-0.002 0.0235,-0.002 0.0579,-0.007 0.0344,-0.007 0.0995,-0.0326 l 0.038,0.15555 q -0.15194,0.0488 -0.2894,0.0488 -0.21886,0 -0.33823,-0.13023 -0.11938,-0.13023 -0.11938,-0.36536 0,-0.21886 0.1031,-0.34185 0.1049,-0.123 0.29482,-0.123 0.17906,0 0.27854,0.11938 0.0995,0.11938 0.0995,0.34366 l -0.004,0.0886 z m -0.0181,-0.13747 h 0.35451 v -0.009 q 0,-0.25141 -0.17364,-0.25141 -0.0868,0 -0.13384,0.0687 -0.047,0.0669 -0.047,0.19172 z"
       id="path4326"
       inkscape:connector-curvature="0" />
    <path
       style="font-style:normal;font-variant:normal;font-weight:100;font-stretch:normal;font-size:17.5px;line-height:125%;font-family:Glasgow-Medium;-inkscape-font-specification:'Glasgow-Medium Thin';letter-spacing:0px;word-spacing:0px;fill:#000000;fill-opacity:1;stroke:none;stroke-width:0.10335588px;stroke-linecap:butt;stroke-linejoin:miter;stroke-opacity:1"
       d="m 110.08235,163.92281 h 0.36175 q 0.18268,0 0.35089,0.10129 0.17002,0.0995 0.17002,0.54623 0,0.33462 -0.13204,0.4956 -0.13023,0.16097 -0.40334,0.16097 h -0.34728 z m 0.24056,1.12865 h 0.11757 q 0.11395,0 0.16278,-0.0488 0.0506,-0.0506 0.0705,-0.10672 0.0217,-0.0579 0.0307,-0.1465 l 0.007,-0.17364 q 0,-0.32738 -0.0814,-0.40154 -0.0796,-0.076 -0.18629,-0.076 h -0.12119 z"
       id="path4329"
       inkscape:connector-curvature="0" />
    <path
       style="font-style:normal;font-variant:normal;font-weight:100;font-stretch:normal;font-size:17.5px;line-height:125%;font-family:Glasgow-Medium;-inkscape-font-specification:'Glasgow-Medium Thin';letter-spacing:0px;word-spacing:0px;fill:#000000;fill-opacity:1;stroke:none;stroke-width:0.10335588px;stroke-linecap:butt;stroke-linejoin:miter;stroke-opacity:1"
       d="m 111.32009,164.83803 q 0.0253,0.24598 0.27492,0.24598 0.0217,0 0.0434,-0.002 0.0235,-0.002 0.0579,-0.007 0.0344,-0.007 0.0995,-0.0326 l 0.038,0.15555 q -0.15193,0.0488 -0.28939,0.0488 -0.21886,0 -0.33823,-0.13023 -0.11938,-0.13023 -0.11938,-0.36536 0,-0.21886 0.1031,-0.34185 0.1049,-0.123 0.29482,-0.123 0.17906,0 0.27854,0.11938 0.0995,0.11938 0.0995,0.34366 l -0.004,0.0886 z m -0.0181,-0.13747 h 0.35451 v -0.009 q 0,-0.25141 -0.17364,-0.25141 -0.0868,0 -0.13385,0.0687 -0.047,0.0669 -0.047,0.19172 z"
       id="path4331"
       inkscape:connector-curvature="0" />
    <path
       style="font-style:normal;font-variant:normal;font-weight:100;font-stretch:normal;font-size:17.5px;line-height:125%;font-family:Glasgow-Medium;-inkscape-font-specification:'Glasgow-Medium Thin';letter-spacing:0px;word-spacing:0px;fill:#000000;fill-opacity:1;stroke:none;stroke-width:0.10335588px;stroke-linecap:butt;stroke-linejoin:miter;stroke-opacity:1"
       d="m 112.11273,164.28636 0.17545,0.63125 q 0.0109,0.0344 0.0217,0.13023 l 0.009,-0.0669 q 0.005,-0.0416 0.0145,-0.0633 l 0.17183,-0.60954 h 0.21704 l -0.28578,0.91883 h -0.2695 l -0.28035,-0.91702 z"
       id="path4333"
       inkscape:connector-curvature="0" />
    <path
       style="font-style:normal;font-variant:normal;font-weight:100;font-stretch:normal;font-size:17.5px;line-height:125%;font-family:Glasgow-Medium;-inkscape-font-specification:'Glasgow-Medium Thin';letter-spacing:0px;word-spacing:0px;fill:#000000;fill-opacity:1;stroke:none;stroke-width:0.10335588px;stroke-linecap:butt;stroke-linejoin:miter;stroke-opacity:1"
       d="m 112.99457,164.83803 q 0.0253,0.24598 0.27493,0.24598 0.0217,0 0.0434,-0.002 0.0235,-0.002 0.0579,-0.007 0.0344,-0.007 0.0995,-0.0326 l 0.038,0.15555 q -0.15193,0.0488 -0.2894,0.0488 -0.21885,0 -0.33823,-0.13023 -0.11937,-0.13023 -0.11937,-0.36536 0,-0.21886 0.10309,-0.34185 0.10491,-0.123 0.29483,-0.123 0.17906,0 0.27854,0.11938 0.0995,0.11938 0.0995,0.34366 l -0.004,0.0886 z m -0.0181,-0.13747 h 0.35451 v -0.009 q 0,-0.25141 -0.17363,-0.25141 -0.0868,0 -0.13385,0.0687 -0.047,0.0669 -0.047,0.19172 z"
       id="path4335"
       inkscape:connector-curvature="0" />
    <path
       style="font-style:normal;font-variant:normal;font-weight:100;font-stretch:normal;font-size:17.5px;line-height:125%;font-family:Glasgow-Medium;-inkscape-font-specification:'Glasgow-Medium Thin';letter-spacing:0px;word-spacing:0px;fill:#000000;fill-opacity:1;stroke:none;stroke-width:0.10335588px;stroke-linecap:butt;stroke-linejoin:miter;stroke-opacity:1"
       d="m 113.67508,163.92643 0.20981,-0.0235 v 1.32399 h -0.20981 z"
       id="path4337"
       inkscape:connector-curvature="0" />
    <path
       style="font-style:normal;font-variant:normal;font-weight:100;font-stretch:normal;font-size:17.5px;line-height:125%;font-family:Glasgow-Medium;-inkscape-font-specification:'Glasgow-Medium Thin';letter-spacing:0px;word-spacing:0px;fill:#000000;fill-opacity:1;stroke:none;stroke-width:0.10335588px;stroke-linecap:butt;stroke-linejoin:miter;stroke-opacity:1"
       d="m 114.44342,164.28455 q 0.40696,0 0.40696,0.48294 0,0.48473 -0.40696,0.48473 -0.40335,0 -0.40335,-0.48473 0,-0.48294 0.40335,-0.48294 z m -0.18087,0.48294 q 0,0.33099 0.18087,0.33099 0.18268,0 0.18268,-0.33099 0,-0.32919 -0.18268,-0.32919 -0.18087,0 -0.18087,0.32919 z"
       id="path4339"
       inkscape:connector-curvature="0" />
    <path
       style="font-style:normal;font-variant:normal;font-weight:100;font-stretch:normal;font-size:17.5px;line-height:125%;font-family:Glasgow-Medium;-inkscape-font-specification:'Glasgow-Medium Thin';letter-spacing:0px;word-spacing:0px;fill:#000000;fill-opacity:1;stroke:none;stroke-width:0.10335588px;stroke-linecap:butt;stroke-linejoin:miter;stroke-opacity:1"
       d="m 115.00336,164.30988 0.20439,-0.0217 0.009,0.0814 q 0.0525,-0.0398 0.10491,-0.0633 0.0543,-0.0181 0.10852,-0.0181 0.15917,0 0.25503,0.13204 0.0977,0.13204 0.0977,0.3527 0,0.21343 -0.0941,0.34547 -0.0922,0.13023 -0.2478,0.13023 -0.11033,0 -0.2279,-0.0868 v 0.40334 h -0.20981 z m 0.21343,0.69817 q 0.0434,0.0235 0.0814,0.038 0.0416,0.0127 0.0687,0.0127 0.18991,0 0.18991,-0.2894 0,-0.13565 -0.0525,-0.21523 -0.0524,-0.0796 -0.14289,-0.0796 -0.0651,0 -0.1447,0.0506 z"
       id="path4341"
       inkscape:connector-curvature="0" />
    <path
       style="font-style:normal;font-variant:normal;font-weight:100;font-stretch:normal;font-size:17.5px;line-height:125%;font-family:Glasgow-Medium;-inkscape-font-specification:'Glasgow-Medium Thin';letter-spacing:0px;word-spacing:0px;fill:#000000;fill-opacity:1;stroke:none;stroke-width:0.10335588px;stroke-linecap:butt;stroke-linejoin:miter;stroke-opacity:1"
       d="m 115.93599,164.30988 0.21343,-0.0235 v 0.0687 q 0.11756,-0.0724 0.2279,-0.0724 0.1465,0 0.2297,0.1049 0.13747,-0.10129 0.27855,-0.10129 0.13204,0 0.1863,0.0597 0.0543,0.0597 0.0687,0.11033 0.005,0.0235 0.009,0.0597 0.004,0.0344 0.004,0.0814 v 0.62944 h -0.21343 v -0.57698 l -0.004,-0.0814 q -0.007,-0.0488 -0.0452,-0.0796 -0.038,-0.0308 -0.0886,-0.0308 -0.076,0 -0.15555,0.0651 v 0.70359 h -0.21162 v -0.57698 l -0.004,-0.0796 q -0.005,-0.047 -0.0452,-0.0796 -0.038,-0.0326 -0.0922,-0.0326 -0.0705,0 -0.14831,0.0561 v 0.71264 h -0.20981 z"
       id="path4343"
       inkscape:connector-curvature="0" />
    <path
       style="font-style:normal;font-variant:normal;font-weight:100;font-stretch:normal;font-size:17.5px;line-height:125%;font-family:Glasgow-Medium;-inkscape-font-specification:'Glasgow-Medium Thin';letter-spacing:0px;word-spacing:0px;fill:#000000;fill-opacity:1;stroke:none;stroke-width:0.10335588px;stroke-linecap:butt;stroke-linejoin:miter;stroke-opacity:1"
       d="m 117.54112,164.83803 q 0.0253,0.24598 0.27493,0.24598 0.0217,0 0.0434,-0.002 0.0235,-0.002 0.0579,-0.007 0.0344,-0.007 0.0995,-0.0326 l 0.038,0.15555 q -0.15193,0.0488 -0.2894,0.0488 -0.21885,0 -0.33823,-0.13023 -0.11938,-0.13023 -0.11938,-0.36536 0,-0.21886 0.1031,-0.34185 0.10491,-0.123 0.29482,-0.123 0.17907,0 0.27855,0.11938 0.0995,0.11938 0.0995,0.34366 l -0.004,0.0886 z m -0.0181,-0.13747 h 0.35451 v -0.009 q 0,-0.25141 -0.17363,-0.25141 -0.0868,0 -0.13385,0.0687 -0.047,0.0669 -0.047,0.19172 z"
       id="path4345"
       inkscape:connector-curvature="0" />
    <path
       style="font-style:normal;font-variant:normal;font-weight:100;font-stretch:normal;font-size:17.5px;line-height:125%;font-family:Glasgow-Medium;-inkscape-font-specification:'Glasgow-Medium Thin';letter-spacing:0px;word-spacing:0px;fill:#000000;fill-opacity:1;stroke:none;stroke-width:0.10335588px;stroke-linecap:butt;stroke-linejoin:miter;stroke-opacity:1"
       d="m 118.22163,164.30988 0.20981,-0.0235 v 0.0778 q 0.13927,-0.0814 0.25503,-0.0814 0.13204,0 0.18811,0.0543 0.0561,0.0543 0.0742,0.10852 0.0181,0.0543 0.0181,0.14108 v 0.64029 h -0.21343 v -0.58603 l -0.004,-0.076 q -0.009,-0.0488 -0.0488,-0.0778 -0.038,-0.0289 -0.0941,-0.0289 -0.0723,0 -0.17544,0.0651 v 0.70359 h -0.20981 z"
       id="path4347"
       inkscape:connector-curvature="0" />
    <path
       style="font-style:normal;font-variant:normal;font-weight:100;font-stretch:normal;font-size:17.5px;line-height:125%;font-family:Glasgow-Medium;-inkscape-font-specification:'Glasgow-Medium Thin';letter-spacing:0px;word-spacing:0px;fill:#000000;fill-opacity:1;stroke:none;stroke-width:0.10335588px;stroke-linecap:butt;stroke-linejoin:miter;stroke-opacity:1"
       d="m 119.05856,164.30807 h 0.1049 v -0.1447 l 0.21343,-0.0307 v 0.17545 h 0.16822 v 0.13746 l -0.16822,0.0163 v 0.51006 l 0.002,0.0597 q 0.0109,0.0597 0.0832,0.0597 0.0326,0 0.085,-0.0163 v 0.14831 l -0.0814,0.0181 -0.0778,0.007 q -0.11938,0 -0.17364,-0.0488 -0.0507,-0.0506 -0.0507,-0.16278 V 164.46 l -0.1049,-0.0109 z"
       id="path4349"
       inkscape:connector-curvature="0" />
    <path
       style="font-style:normal;font-variant:normal;font-weight:100;font-stretch:normal;font-size:17.5px;line-height:125%;font-family:Glasgow-Medium;-inkscape-font-specification:'Glasgow-Medium Thin';letter-spacing:0px;word-spacing:0px;fill:#000000;fill-opacity:1;stroke:none;stroke-width:0.10335588px;stroke-linecap:butt;stroke-linejoin:miter;stroke-opacity:1"
       d="m 110.85829,166.43539 q -0.13927,-0.0832 -0.26045,-0.0832 -0.0705,0 -0.14108,0.0398 -0.0705,0.038 -0.11034,0.15193 -0.0398,0.11215 -0.0398,0.31653 0,0.25503 0.0651,0.36898 0.0651,0.11214 0.21704,0.11214 0.0922,0 0.17364,-0.0416 v -0.35993 h -0.25322 v -0.1646 h 0.4775 v 0.65114 q -0.11033,0.0434 -0.2279,0.0742 -0.0398,0.009 -0.0959,0.0163 -0.0543,0.007 -0.094,0.007 -0.25503,0 -0.38888,-0.1664 -0.13204,-0.16821 -0.13204,-0.49197 0,-0.33643 0.13204,-0.51187 0.13204,-0.17726 0.38526,-0.17726 0.17906,0 0.35994,0.10491 z"
       id="path4352"
       inkscape:connector-curvature="0" />
    <path
       style="font-style:normal;font-variant:normal;font-weight:100;font-stretch:normal;font-size:17.5px;line-height:125%;font-family:Glasgow-Medium;-inkscape-font-specification:'Glasgow-Medium Thin';letter-spacing:0px;word-spacing:0px;fill:#000000;fill-opacity:1;stroke:none;stroke-width:0.10335588px;stroke-linecap:butt;stroke-linejoin:miter;stroke-opacity:1"
       d="m 111.16688,166.58371 0.21343,-0.0127 v 0.076 q 0.0995,-0.0832 0.208,-0.0832 h 0.0217 l -0.0217,0.19715 -0.0633,-0.005 q -0.076,0 -0.1447,0.0398 v 0.7054 h -0.21343 z"
       id="path4354"
       inkscape:connector-curvature="0" />
    <path
       style="font-style:normal;font-variant:normal;font-weight:100;font-stretch:normal;font-size:17.5px;line-height:125%;font-family:Glasgow-Medium;-inkscape-font-specification:'Glasgow-Medium Thin';letter-spacing:0px;word-spacing:0px;fill:#000000;fill-opacity:1;stroke:none;stroke-width:0.10335588px;stroke-linecap:butt;stroke-linejoin:miter;stroke-opacity:1"
       d="m 112.02707,166.55838 q 0.40697,0 0.40697,0.48293 0,0.48474 -0.40697,0.48474 -0.40334,0 -0.40334,-0.48474 0,-0.48293 0.40334,-0.48293 z m -0.18087,0.48293 q 0,0.331 0.18087,0.331 0.18268,0 0.18268,-0.331 0,-0.32918 -0.18268,-0.32918 -0.18087,0 -0.18087,0.32918 z"
       id="path4356"
       inkscape:connector-curvature="0" />
    <path
       style="font-style:normal;font-variant:normal;font-weight:100;font-stretch:normal;font-size:17.5px;line-height:125%;font-family:Glasgow-Medium;-inkscape-font-specification:'Glasgow-Medium Thin';letter-spacing:0px;word-spacing:0px;fill:#000000;fill-opacity:1;stroke:none;stroke-width:0.10335588px;stroke-linecap:butt;stroke-linejoin:miter;stroke-opacity:1"
       d="m 112.86556,167.52244 q -0.27855,0 -0.27855,-0.27855 v -0.66018 l 0.21343,-0.0235 v 0.62763 q 0,0.0868 0.0326,0.1248 0.0326,0.0362 0.11576,0.0362 0.0796,0 0.17002,-0.0615 v -0.7054 h 0.21343 v 0.91883 h -0.21162 l -0.002,-0.0561 q -0.13385,0.0778 -0.25322,0.0778 z"
       id="path4358"
       inkscape:connector-curvature="0" />
    <path
       style="font-style:normal;font-variant:normal;font-weight:100;font-stretch:normal;font-size:17.5px;line-height:125%;font-family:Glasgow-Medium;-inkscape-font-specification:'Glasgow-Medium Thin';letter-spacing:0px;word-spacing:0px;fill:#000000;fill-opacity:1;stroke:none;stroke-width:0.10335588px;stroke-linecap:butt;stroke-linejoin:miter;stroke-opacity:1"
       d="m 113.51257,166.58371 0.20439,-0.0217 0.009,0.0814 q 0.0525,-0.0398 0.10491,-0.0633 0.0543,-0.0181 0.10852,-0.0181 0.15917,0 0.25503,0.13204 0.0977,0.13204 0.0977,0.3527 0,0.21343 -0.0941,0.34547 -0.0922,0.13023 -0.24779,0.13023 -0.11034,0 -0.2279,-0.0868 v 0.40334 h -0.20982 z m 0.21343,0.69817 q 0.0434,0.0235 0.0814,0.038 0.0416,0.0127 0.0687,0.0127 0.18992,0 0.18992,-0.2894 0,-0.13565 -0.0525,-0.21524 -0.0524,-0.0796 -0.14289,-0.0796 -0.0651,0 -0.1447,0.0506 z"
       id="path4360"
       inkscape:connector-curvature="0" />
    <rect
       style="opacity:1;fill:#333333;fill-opacity:1;stroke:none;stroke-width:0.05167794;stroke-linecap:square;stroke-linejoin:round;stroke-miterlimit:4;stroke-dasharray:none;stroke-dashoffset:0;stroke-opacity:1"
       height="0.31006762"
       id="rect4294"
       ry="0"
       transform="matrix(-0.70710678,0.70710678,0.70710678,0.70710678,0,0)"
       width="2.1704733"
       x="39.958042"
       y="189.94295"
       inkscape:export-xdpi="349.32202"
       inkscape:export-ydpi="349.32202" />
    <rect
       style="opacity:1;fill:#333333;fill-opacity:1;stroke:none;stroke-width:0.05167794;stroke-linecap:square;stroke-linejoin:round;stroke-miterlimit:4;stroke-dasharray:none;stroke-dashoffset:0;stroke-opacity:1"
       height="0.31006762"
       id="rect4296"
       ry="0"
       width="1.1369146"
       x="107.08246"
       y="162.1469"
       inkscape:export-xdpi="349.32202"
       inkscape:export-ydpi="349.32202" />
    <path
       style="opacity:1;fill:#559bbd;fill-opacity:1;stroke:none;stroke-width:0.05167794;stroke-linecap:square;stroke-linejoin:round;stroke-miterlimit:4;stroke-dasharray:none;stroke-dashoffset:0;stroke-opacity:1"
       d="m 108.78783,161.52676 a 0.77516907,0.77516907 0 0 0 -0.77517,0.77517 0.77516907,0.77516907 0 0 0 0.77517,0.77517 0.77516907,0.77516907 0 0 0 0.77517,-0.77517 0.77516907,0.77516907 0 0 0 -0.77517,-0.77517 z m 0,0.31007 c 0.25767,0 0.4651,0.20743 0.4651,0.4651 0,0.25766 -0.20743,0.4651 -0.4651,0.4651 -0.25766,0 -0.4651,-0.20744 -0.4651,-0.4651 0,-0.25767 0.20744,-0.4651 0.4651,-0.4651 z"
       id="path4298"
       inkscape:connector-curvature="0"
       inkscape:export-xdpi="349.32202"
       inkscape:export-ydpi="349.32202" />
    <path
       style="opacity:1;fill:#862174;fill-opacity:1;stroke:none;stroke-width:0.05167794;stroke-linecap:square;stroke-linejoin:round;stroke-miterlimit:4;stroke-dasharray:none;stroke-dashoffset:0;stroke-opacity:1"
       d="m 104.24018,163.80059 a 0.77516907,0.77516907 0 0 0 -0.77517,0.77517 0.77516907,0.77516907 0 0 0 0.77517,0.77517 0.77516907,0.77516907 0 0 0 0.77517,-0.77517 0.77516907,0.77516907 0 0 0 -0.77517,-0.77517 z m 0,0.31007 c 0.25765,0 0.4651,0.20743 0.4651,0.4651 0,0.25766 -0.20745,0.4651 -0.4651,0.4651 -0.25767,0 -0.4651,-0.20744 -0.4651,-0.4651 0,-0.25767 0.20743,-0.4651 0.4651,-0.4651 z"
       id="path4300"
       inkscape:connector-curvature="0"
       inkscape:export-xdpi="349.32202"
       inkscape:export-ydpi="349.32202" />
    <path
       style="opacity:1;fill:#78a22f;fill-opacity:1;stroke:none;stroke-width:0.05167794;stroke-linecap:square;stroke-linejoin:round;stroke-miterlimit:4;stroke-dasharray:none;stroke-dashoffset:0;stroke-opacity:1"
       d="m 106.514,161.52676 a 0.77516907,0.77516907 0 0 0 -0.77517,0.77517 0.77516907,0.77516907 0 0 0 0.77517,0.77517 0.77516907,0.77516907 0 0 0 0.77517,-0.77517 0.77516907,0.77516907 0 0 0 -0.77517,-0.77517 z m 0,0.31007 c 0.25767,0 0.4651,0.20743 0.4651,0.4651 0,0.25766 -0.20743,0.4651 -0.4651,0.4651 -0.25767,0 -0.4651,-0.20744 -0.4651,-0.4651 0,-0.25767 0.20743,-0.4651 0.4651,-0.4651 z"
       id="path4302"
       inkscape:connector-curvature="0"
       inkscape:export-xdpi="349.32202"
       inkscape:export-ydpi="349.32202" />
    <path
       style="opacity:1;fill:#00acef;fill-opacity:1;stroke:none;stroke-width:0.05167794;stroke-linecap:square;stroke-linejoin:round;stroke-miterlimit:4;stroke-dasharray:none;stroke-dashoffset:0;stroke-opacity:1"
       d="m 108.78783,166.07442 a 0.77516907,0.77516907 0 0 0 -0.77517,0.77517 0.77516907,0.77516907 0 0 0 0.77517,0.77516 0.77516907,0.77516907 0 0 0 0.77517,-0.77516 0.77516907,0.77516907 0 0 0 -0.77517,-0.77517 z m 0,0.31006 c 0.25767,0 0.4651,0.20744 0.4651,0.46511 0,0.25766 -0.20743,0.4651 -0.4651,0.4651 -0.25766,0 -0.4651,-0.20744 -0.4651,-0.4651 0,-0.25767 0.20744,-0.46511 0.4651,-0.46511 z"
       id="path4304"
       inkscape:connector-curvature="0"
       inkscape:export-xdpi="349.32202"
       inkscape:export-ydpi="349.32202" />
    <rect
       style="opacity:0;fill:#ffffff;fill-opacity:1;stroke:none;stroke-width:0.71613395;stroke-miterlimit:4;stroke-dasharray:none;stroke-opacity:1"
       height="6.8601165"
       id="rect4685"
       width="18.355734"
       x="101.19119"
       y="161.27827" />
  </g>
</svg>
