<?xml version="1.0" standalone="no"?>
<!DOCTYPE svg PUBLIC "-//W3C//DTD SVG 20010904//EN"
 "http://www.w3.org/TR/2001/REC-SVG-20010904/DTD/svg10.dtd">
<svg version="1.0" xmlns="http://www.w3.org/2000/svg"
 width="700.000000pt" height="700.000000pt" viewBox="0 0 700.000000 700.000000"
 preserveAspectRatio="xMidYMid meet">
<metadata>
Created by potrace 1.14, written by Peter Selinger 2001-2017
</metadata>
<g transform="translate(0.000000,700.000000) scale(0.100000,-0.100000)"
fill="#000000" stroke="none">
<path d="M2682 5623 c-4 -1 -119 -4 -257 -6 -137 -3 -260 -8 -271 -10 -12 -3
-37 -8 -57 -11 -116 -19 -221 -76 -309 -171 -68 -72 -215 -306 -428 -680 -9
-16 -52 -91 -95 -165 -402 -698 -453 -791 -496 -925 -31 -95 -31 -213 2 -315
25 -81 110 -254 204 -415 32 -55 69 -120 83 -145 13 -25 39 -70 57 -100 18
-30 42 -71 52 -90 11 -19 71 -123 133 -230 62 -107 124 -215 138 -240 14 -25
69 -119 123 -209 260 -431 349 -498 704 -526 83 -6 755 -6 835 0 117 9 206 23
245 37 181 66 277 170 484 526 39 68 68 128 65 134 -4 6 -2 8 4 4 6 -3 17 6
24 21 8 16 44 80 80 143 163 288 210 407 210 539 0 154 -38 244 -279 669 l-25
42 410 0 409 0 32 -57 c17 -32 42 -76 55 -98 14 -22 33 -56 44 -75 11 -19 77
-134 146 -254 70 -120 125 -225 122 -233 -3 -8 -38 -69 -77 -136 -40 -67 -83
-142 -97 -167 -14 -25 -48 -83 -75 -130 -27 -47 -63 -110 -80 -140 -17 -30
-48 -83 -69 -118 -21 -34 -38 -64 -38 -66 0 -2 -58 -104 -130 -226 -71 -123
-130 -224 -130 -226 0 -1 -25 -44 -55 -95 -30 -51 -55 -95 -55 -98 0 -6 809
-6 814 0 2 2 53 90 113 194 209 362 301 520 320 555 35 60 285 493 304 525 10
17 24 41 32 55 7 14 50 88 94 165 273 474 305 606 208 850 -44 111 -167 333
-568 1025 -114 198 -129 222 -205 355 -35 61 -67 117 -73 125 -5 8 -57 98
-115 200 -59 102 -108 187 -110 189 -4 5 -804 4 -809 -1 -3 -3 145 -269 194
-348 14 -22 201 -348 218 -378 8 -15 99 -173 203 -352 104 -179 187 -326 185
-328 -2 -2 -184 -4 -405 -4 l-401 -1 -23 -36 c-13 -20 -34 -56 -48 -81 -14
-25 -67 -117 -118 -205 -50 -88 -121 -211 -157 -272 l-65 -113 -815 0 c-648 0
-814 -3 -810 -12 8 -21 385 -672 396 -684 7 -9 112 -12 368 -12 197 -1 379 -1
405 -1 l47 -1 -31 -52 c-17 -29 -40 -69 -51 -88 -51 -90 -320 -556 -324 -560
-2 -2 -187 -4 -411 -5 l-407 0 -64 110 c-35 61 -78 135 -95 165 -52 92 -157
274 -167 290 -12 20 -97 166 -122 210 -43 77 -302 526 -317 550 -5 8 -18 32
-30 53 l-20 39 121 211 c67 117 143 248 169 292 26 44 101 172 165 285 65 113
143 248 173 300 30 52 85 147 121 210 l66 115 808 0 c445 -1 810 3 813 7 2 4
-64 125 -148 270 -83 145 -172 298 -196 341 -24 42 -49 80 -54 83 -8 5 -795
12 -816 7z"/>
</g>
</svg>
