<?xml version="1.0" standalone="no"?>
<!DOCTYPE svg PUBLIC "-//W3C//DTD SVG 20010904//EN"
 "http://www.w3.org/TR/2001/REC-SVG-20010904/DTD/svg10.dtd">
<svg version="1.0" xmlns="http://www.w3.org/2000/svg"
 width="700.000000pt" height="700.000000pt" viewBox="0 0 700.000000 700.000000"
 preserveAspectRatio="xMidYMid meet">
<metadata>
Created by potrace 1.11, written by Peter Selinger 2001-2013
</metadata>
<g transform="translate(0.000000,700.000000) scale(0.100000,-0.100000)"
fill="#000000" stroke="none">
<path d="M2672 5623 c-4 -1 -117 -4 -252 -7 -135 -2 -258 -7 -275 -10 -234
-46 -320 -106 -473 -334 -34 -51 -62 -94 -62 -97 0 -2 -31 -56 -70 -121 -38
-64 -70 -118 -70 -119 0 -2 -21 -39 -46 -82 -26 -43 -55 -91 -64 -108 -9 -16
-52 -91 -95 -165 -494 -856 -519 -910 -518 -1082 1 -134 53 -268 206 -534 35
-60 66 -117 70 -125 4 -8 15 -27 25 -44 10 -16 31 -52 46 -80 16 -27 32 -54
36 -60 4 -5 18 -30 32 -55 153 -278 477 -822 551 -926 108 -152 223 -237 357
-263 30 -6 66 -14 80 -18 38 -9 936 -13 1010 -3 135 17 163 22 223 47 80 32
109 53 182 127 70 71 177 229 284 420 10 17 63 110 118 206 55 96 119 212 142
257 43 86 94 213 85 213 -2 0 0 9 7 21 6 11 11 60 11 107 0 155 -37 244 -279
670 l-25 42 410 0 409 0 32 -57 c17 -32 42 -76 55 -98 14 -22 33 -56 44 -75
11 -19 77 -134 147 -255 l127 -220 -19 -35 c-10 -19 -45 -80 -77 -135 -32 -55
-70 -120 -84 -145 -14 -25 -34 -58 -44 -75 -10 -16 -21 -37 -25 -45 -3 -8 -21
-39 -40 -68 -18 -29 -33 -54 -33 -56 0 -2 -30 -55 -66 -117 -37 -63 -77 -132
-89 -154 -13 -22 -93 -161 -179 -310 -85 -148 -154 -271 -152 -272 3 -3 600
-5 787 -3 17 0 30 8 37 23 15 30 46 82 115 199 31 53 57 100 57 103 0 3 8 18
19 33 16 23 130 219 188 322 11 19 132 229 268 465 293 506 312 542 370 662
105 220 115 350 40 538 -46 117 -89 194 -548 990 -105 182 -213 368 -240 415
-26 47 -52 92 -57 100 -6 8 -58 98 -116 200 -59 102 -108 187 -110 189 -4 4
-804 4 -809 -1 -2 -2 39 -78 92 -168 52 -91 106 -185 120 -210 14 -25 33 -58
43 -75 114 -193 548 -951 545 -953 -2 -2 -184 -4 -405 -4 l-401 -1 -23 -36
c-13 -20 -34 -56 -48 -81 -14 -25 -67 -117 -118 -205 -50 -88 -121 -211 -157
-272 l-65 -113 -814 0 c-448 0 -814 -2 -814 -5 0 -3 6 -16 14 -28 8 -12 27
-45 43 -73 15 -28 100 -175 187 -326 l159 -275 408 1 408 1 -31 -55 c-17 -30
-42 -74 -55 -97 -12 -23 -53 -93 -89 -155 -37 -62 -76 -129 -87 -148 -85 -151
-141 -246 -148 -250 -6 -4 -737 -5 -800 -1 -15 1 -44 46 -149 230 -79 138
-183 319 -191 331 -27 44 -129 222 -129 225 0 2 -42 74 -93 162 -51 87 -133
227 -181 310 l-88 152 158 273 c87 150 216 374 287 498 72 124 155 268 185
320 30 52 84 147 121 210 l66 115 808 0 c445 -1 811 3 813 7 3 4 -26 61 -64
125 -38 65 -124 215 -192 333 -68 118 -129 221 -136 229 -9 10 -90 13 -418 15
-223 0 -409 0 -414 -1z"/>
</g>
</svg>
